<?xml version="1.0" encoding="utf-8" standalone="no"?>
<!DOCTYPE svg PUBLIC "-//W3C//DTD SVG 1.1//EN"
  "http://www.w3.org/Graphics/SVG/1.1/DTD/svg11.dtd">
<svg xmlns:xlink="http://www.w3.org/1999/xlink" width="572.88279pt" height="500.611446pt" viewBox="0 0 572.88279 500.611446" xmlns="http://www.w3.org/2000/svg" version="1.1">
 <metadata>
  <rdf:RDF xmlns:dc="http://purl.org/dc/elements/1.1/" xmlns:cc="http://creativecommons.org/ns#" xmlns:rdf="http://www.w3.org/1999/02/22-rdf-syntax-ns#">
   <cc:Work>
    <dc:type rdf:resource="http://purl.org/dc/dcmitype/StillImage"/>
    <dc:date>2023-06-26T13:51:00.994363</dc:date>
    <dc:format>image/svg+xml</dc:format>
    <dc:creator>
     <cc:Agent>
      <dc:title>Matplotlib v3.7.1, https://matplotlib.org/</dc:title>
     </cc:Agent>
    </dc:creator>
   </cc:Work>
  </rdf:RDF>
 </metadata>
 <defs>
  <style type="text/css">*{stroke-linejoin: round; stroke-linecap: butt}</style>
 </defs>
 <g id="figure_1">
  <g id="patch_1">
   <path d="M 0 500.611446 
L 572.88279 500.611446 
L 572.88279 0 
L 0 0 
z
" style="fill: #ffffff"/>
  </g>
  <g id="axes_1">
   <g id="patch_2">
    <path d="M 475.564821 256.394108 
C 475.564821 227.272852 469.828568 198.434763 458.684346 171.53023 
C 447.540124 144.625697 431.204659 120.177946 410.612821 99.586108 
C 390.020983 78.99427 365.573232 62.658805 338.668699 51.514583 
C 311.764166 40.37036 282.926077 34.634108 253.804821 34.634108 
C 224.683564 34.634108 195.845476 40.37036 168.940943 51.514583 
C 142.03641 62.658805 117.588659 78.99427 96.996821 99.586108 
C 76.404983 120.177946 60.069518 144.625697 48.925296 171.53023 
C 37.781073 198.434763 32.044821 227.272852 32.044821 256.394108 
C 32.044821 285.515364 37.781073 314.353453 48.925296 341.257986 
C 60.069518 368.162519 76.404983 392.61027 96.996821 413.202108 
C 117.588659 433.793946 142.03641 450.129411 168.940943 461.273633 
C 195.845476 472.417855 224.683564 478.154108 253.804821 478.154108 
C 282.926077 478.154108 311.764166 472.417855 338.668699 461.273633 
C 365.573232 450.129411 390.020983 433.793946 410.612821 413.202108 
C 431.204659 392.61027 447.540124 368.162519 458.684346 341.257986 
C 469.828568 314.353453 475.564821 285.515364 475.564821 256.394108 
M 253.804821 256.394108 
C 253.804821 256.394108 253.804821 256.394108 253.804821 256.394108 
C 253.804821 256.394108 253.804821 256.394108 253.804821 256.394108 
C 253.804821 256.394108 253.804821 256.394108 253.804821 256.394108 
C 253.804821 256.394108 253.804821 256.394108 253.804821 256.394108 
C 253.804821 256.394108 253.804821 256.394108 253.804821 256.394108 
C 253.804821 256.394108 253.804821 256.394108 253.804821 256.394108 
C 253.804821 256.394108 253.804821 256.394108 253.804821 256.394108 
C 253.804821 256.394108 253.804821 256.394108 253.804821 256.394108 
C 253.804821 256.394108 253.804821 256.394108 253.804821 256.394108 
C 253.804821 256.394108 253.804821 256.394108 253.804821 256.394108 
C 253.804821 256.394108 253.804821 256.394108 253.804821 256.394108 
C 253.804821 256.394108 253.804821 256.394108 253.804821 256.394108 
C 253.804821 256.394108 253.804821 256.394108 253.804821 256.394108 
C 253.804821 256.394108 253.804821 256.394108 253.804821 256.394108 
C 253.804821 256.394108 253.804821 256.394108 253.804821 256.394108 
C 253.804821 256.394108 253.804821 256.394108 253.804821 256.394108 
z
" style="fill: #ffffff"/>
   </g>
   <g id="matplotlib.axis_1">
    <g id="xtick_1">
     <g id="line2d_1">
      <path d="M 253.804821 256.394108 
L 475.564821 256.394108 
" clip-path="url(#p0ee574634d)" style="fill: none; stroke: #b0b0b0; stroke-width: 0.8; stroke-linecap: square"/>
     </g>
     <g id="text_1">
      <!-- apiculture (nombre de ruches) -->
      <g transform="translate(413.446852 259.153483) scale(0.1 -0.1)">
       <defs>
        <path id="DejaVuSans-61" d="M 2194 1759 
Q 1497 1759 1228 1600 
Q 959 1441 959 1056 
Q 959 750 1161 570 
Q 1363 391 1709 391 
Q 2188 391 2477 730 
Q 2766 1069 2766 1631 
L 2766 1759 
L 2194 1759 
z
M 3341 1997 
L 3341 0 
L 2766 0 
L 2766 531 
Q 2569 213 2275 61 
Q 1981 -91 1556 -91 
Q 1019 -91 701 211 
Q 384 513 384 1019 
Q 384 1609 779 1909 
Q 1175 2209 1959 2209 
L 2766 2209 
L 2766 2266 
Q 2766 2663 2505 2880 
Q 2244 3097 1772 3097 
Q 1472 3097 1187 3025 
Q 903 2953 641 2809 
L 641 3341 
Q 956 3463 1253 3523 
Q 1550 3584 1831 3584 
Q 2591 3584 2966 3190 
Q 3341 2797 3341 1997 
z
" transform="scale(0.015625)"/>
        <path id="DejaVuSans-70" d="M 1159 525 
L 1159 -1331 
L 581 -1331 
L 581 3500 
L 1159 3500 
L 1159 2969 
Q 1341 3281 1617 3432 
Q 1894 3584 2278 3584 
Q 2916 3584 3314 3078 
Q 3713 2572 3713 1747 
Q 3713 922 3314 415 
Q 2916 -91 2278 -91 
Q 1894 -91 1617 61 
Q 1341 213 1159 525 
z
M 3116 1747 
Q 3116 2381 2855 2742 
Q 2594 3103 2138 3103 
Q 1681 3103 1420 2742 
Q 1159 2381 1159 1747 
Q 1159 1113 1420 752 
Q 1681 391 2138 391 
Q 2594 391 2855 752 
Q 3116 1113 3116 1747 
z
" transform="scale(0.015625)"/>
        <path id="DejaVuSans-69" d="M 603 3500 
L 1178 3500 
L 1178 0 
L 603 0 
L 603 3500 
z
M 603 4863 
L 1178 4863 
L 1178 4134 
L 603 4134 
L 603 4863 
z
" transform="scale(0.015625)"/>
        <path id="DejaVuSans-63" d="M 3122 3366 
L 3122 2828 
Q 2878 2963 2633 3030 
Q 2388 3097 2138 3097 
Q 1578 3097 1268 2742 
Q 959 2388 959 1747 
Q 959 1106 1268 751 
Q 1578 397 2138 397 
Q 2388 397 2633 464 
Q 2878 531 3122 666 
L 3122 134 
Q 2881 22 2623 -34 
Q 2366 -91 2075 -91 
Q 1284 -91 818 406 
Q 353 903 353 1747 
Q 353 2603 823 3093 
Q 1294 3584 2113 3584 
Q 2378 3584 2631 3529 
Q 2884 3475 3122 3366 
z
" transform="scale(0.015625)"/>
        <path id="DejaVuSans-75" d="M 544 1381 
L 544 3500 
L 1119 3500 
L 1119 1403 
Q 1119 906 1312 657 
Q 1506 409 1894 409 
Q 2359 409 2629 706 
Q 2900 1003 2900 1516 
L 2900 3500 
L 3475 3500 
L 3475 0 
L 2900 0 
L 2900 538 
Q 2691 219 2414 64 
Q 2138 -91 1772 -91 
Q 1169 -91 856 284 
Q 544 659 544 1381 
z
M 1991 3584 
L 1991 3584 
z
" transform="scale(0.015625)"/>
        <path id="DejaVuSans-6c" d="M 603 4863 
L 1178 4863 
L 1178 0 
L 603 0 
L 603 4863 
z
" transform="scale(0.015625)"/>
        <path id="DejaVuSans-74" d="M 1172 4494 
L 1172 3500 
L 2356 3500 
L 2356 3053 
L 1172 3053 
L 1172 1153 
Q 1172 725 1289 603 
Q 1406 481 1766 481 
L 2356 481 
L 2356 0 
L 1766 0 
Q 1100 0 847 248 
Q 594 497 594 1153 
L 594 3053 
L 172 3053 
L 172 3500 
L 594 3500 
L 594 4494 
L 1172 4494 
z
" transform="scale(0.015625)"/>
        <path id="DejaVuSans-72" d="M 2631 2963 
Q 2534 3019 2420 3045 
Q 2306 3072 2169 3072 
Q 1681 3072 1420 2755 
Q 1159 2438 1159 1844 
L 1159 0 
L 581 0 
L 581 3500 
L 1159 3500 
L 1159 2956 
Q 1341 3275 1631 3429 
Q 1922 3584 2338 3584 
Q 2397 3584 2469 3576 
Q 2541 3569 2628 3553 
L 2631 2963 
z
" transform="scale(0.015625)"/>
        <path id="DejaVuSans-65" d="M 3597 1894 
L 3597 1613 
L 953 1613 
Q 991 1019 1311 708 
Q 1631 397 2203 397 
Q 2534 397 2845 478 
Q 3156 559 3463 722 
L 3463 178 
Q 3153 47 2828 -22 
Q 2503 -91 2169 -91 
Q 1331 -91 842 396 
Q 353 884 353 1716 
Q 353 2575 817 3079 
Q 1281 3584 2069 3584 
Q 2775 3584 3186 3129 
Q 3597 2675 3597 1894 
z
M 3022 2063 
Q 3016 2534 2758 2815 
Q 2500 3097 2075 3097 
Q 1594 3097 1305 2825 
Q 1016 2553 972 2059 
L 3022 2063 
z
" transform="scale(0.015625)"/>
        <path id="DejaVuSans-20" transform="scale(0.015625)"/>
        <path id="DejaVuSans-28" d="M 1984 4856 
Q 1566 4138 1362 3434 
Q 1159 2731 1159 2009 
Q 1159 1288 1364 580 
Q 1569 -128 1984 -844 
L 1484 -844 
Q 1016 -109 783 600 
Q 550 1309 550 2009 
Q 550 2706 781 3412 
Q 1013 4119 1484 4856 
L 1984 4856 
z
" transform="scale(0.015625)"/>
        <path id="DejaVuSans-6e" d="M 3513 2113 
L 3513 0 
L 2938 0 
L 2938 2094 
Q 2938 2591 2744 2837 
Q 2550 3084 2163 3084 
Q 1697 3084 1428 2787 
Q 1159 2491 1159 1978 
L 1159 0 
L 581 0 
L 581 3500 
L 1159 3500 
L 1159 2956 
Q 1366 3272 1645 3428 
Q 1925 3584 2291 3584 
Q 2894 3584 3203 3211 
Q 3513 2838 3513 2113 
z
" transform="scale(0.015625)"/>
        <path id="DejaVuSans-6f" d="M 1959 3097 
Q 1497 3097 1228 2736 
Q 959 2375 959 1747 
Q 959 1119 1226 758 
Q 1494 397 1959 397 
Q 2419 397 2687 759 
Q 2956 1122 2956 1747 
Q 2956 2369 2687 2733 
Q 2419 3097 1959 3097 
z
M 1959 3584 
Q 2709 3584 3137 3096 
Q 3566 2609 3566 1747 
Q 3566 888 3137 398 
Q 2709 -91 1959 -91 
Q 1206 -91 779 398 
Q 353 888 353 1747 
Q 353 2609 779 3096 
Q 1206 3584 1959 3584 
z
" transform="scale(0.015625)"/>
        <path id="DejaVuSans-6d" d="M 3328 2828 
Q 3544 3216 3844 3400 
Q 4144 3584 4550 3584 
Q 5097 3584 5394 3201 
Q 5691 2819 5691 2113 
L 5691 0 
L 5113 0 
L 5113 2094 
Q 5113 2597 4934 2840 
Q 4756 3084 4391 3084 
Q 3944 3084 3684 2787 
Q 3425 2491 3425 1978 
L 3425 0 
L 2847 0 
L 2847 2094 
Q 2847 2600 2669 2842 
Q 2491 3084 2119 3084 
Q 1678 3084 1418 2786 
Q 1159 2488 1159 1978 
L 1159 0 
L 581 0 
L 581 3500 
L 1159 3500 
L 1159 2956 
Q 1356 3278 1631 3431 
Q 1906 3584 2284 3584 
Q 2666 3584 2933 3390 
Q 3200 3197 3328 2828 
z
" transform="scale(0.015625)"/>
        <path id="DejaVuSans-62" d="M 3116 1747 
Q 3116 2381 2855 2742 
Q 2594 3103 2138 3103 
Q 1681 3103 1420 2742 
Q 1159 2381 1159 1747 
Q 1159 1113 1420 752 
Q 1681 391 2138 391 
Q 2594 391 2855 752 
Q 3116 1113 3116 1747 
z
M 1159 2969 
Q 1341 3281 1617 3432 
Q 1894 3584 2278 3584 
Q 2916 3584 3314 3078 
Q 3713 2572 3713 1747 
Q 3713 922 3314 415 
Q 2916 -91 2278 -91 
Q 1894 -91 1617 61 
Q 1341 213 1159 525 
L 1159 0 
L 581 0 
L 581 4863 
L 1159 4863 
L 1159 2969 
z
" transform="scale(0.015625)"/>
        <path id="DejaVuSans-64" d="M 2906 2969 
L 2906 4863 
L 3481 4863 
L 3481 0 
L 2906 0 
L 2906 525 
Q 2725 213 2448 61 
Q 2172 -91 1784 -91 
Q 1150 -91 751 415 
Q 353 922 353 1747 
Q 353 2572 751 3078 
Q 1150 3584 1784 3584 
Q 2172 3584 2448 3432 
Q 2725 3281 2906 2969 
z
M 947 1747 
Q 947 1113 1208 752 
Q 1469 391 1925 391 
Q 2381 391 2643 752 
Q 2906 1113 2906 1747 
Q 2906 2381 2643 2742 
Q 2381 3103 1925 3103 
Q 1469 3103 1208 2742 
Q 947 2381 947 1747 
z
" transform="scale(0.015625)"/>
        <path id="DejaVuSans-68" d="M 3513 2113 
L 3513 0 
L 2938 0 
L 2938 2094 
Q 2938 2591 2744 2837 
Q 2550 3084 2163 3084 
Q 1697 3084 1428 2787 
Q 1159 2491 1159 1978 
L 1159 0 
L 581 0 
L 581 4863 
L 1159 4863 
L 1159 2956 
Q 1366 3272 1645 3428 
Q 1925 3584 2291 3584 
Q 2894 3584 3203 3211 
Q 3513 2838 3513 2113 
z
" transform="scale(0.015625)"/>
        <path id="DejaVuSans-73" d="M 2834 3397 
L 2834 2853 
Q 2591 2978 2328 3040 
Q 2066 3103 1784 3103 
Q 1356 3103 1142 2972 
Q 928 2841 928 2578 
Q 928 2378 1081 2264 
Q 1234 2150 1697 2047 
L 1894 2003 
Q 2506 1872 2764 1633 
Q 3022 1394 3022 966 
Q 3022 478 2636 193 
Q 2250 -91 1575 -91 
Q 1294 -91 989 -36 
Q 684 19 347 128 
L 347 722 
Q 666 556 975 473 
Q 1284 391 1588 391 
Q 1994 391 2212 530 
Q 2431 669 2431 922 
Q 2431 1156 2273 1281 
Q 2116 1406 1581 1522 
L 1381 1569 
Q 847 1681 609 1914 
Q 372 2147 372 2553 
Q 372 3047 722 3315 
Q 1072 3584 1716 3584 
Q 2034 3584 2315 3537 
Q 2597 3491 2834 3397 
z
" transform="scale(0.015625)"/>
        <path id="DejaVuSans-29" d="M 513 4856 
L 1013 4856 
Q 1481 4119 1714 3412 
Q 1947 2706 1947 2009 
Q 1947 1309 1714 600 
Q 1481 -109 1013 -844 
L 513 -844 
Q 928 -128 1133 580 
Q 1338 1288 1338 2009 
Q 1338 2731 1133 3434 
Q 928 4138 513 4856 
z
" transform="scale(0.015625)"/>
       </defs>
       <use xlink:href="#DejaVuSans-61"/>
       <use xlink:href="#DejaVuSans-70" x="61.279297"/>
       <use xlink:href="#DejaVuSans-69" x="124.755859"/>
       <use xlink:href="#DejaVuSans-63" x="152.539062"/>
       <use xlink:href="#DejaVuSans-75" x="207.519531"/>
       <use xlink:href="#DejaVuSans-6c" x="270.898438"/>
       <use xlink:href="#DejaVuSans-74" x="298.681641"/>
       <use xlink:href="#DejaVuSans-75" x="337.890625"/>
       <use xlink:href="#DejaVuSans-72" x="401.269531"/>
       <use xlink:href="#DejaVuSans-65" x="440.132812"/>
       <use xlink:href="#DejaVuSans-20" x="501.65625"/>
       <use xlink:href="#DejaVuSans-28" x="533.443359"/>
       <use xlink:href="#DejaVuSans-6e" x="572.457031"/>
       <use xlink:href="#DejaVuSans-6f" x="635.835938"/>
       <use xlink:href="#DejaVuSans-6d" x="697.017578"/>
       <use xlink:href="#DejaVuSans-62" x="794.429688"/>
       <use xlink:href="#DejaVuSans-72" x="857.90625"/>
       <use xlink:href="#DejaVuSans-65" x="896.769531"/>
       <use xlink:href="#DejaVuSans-20" x="958.292969"/>
       <use xlink:href="#DejaVuSans-64" x="990.080078"/>
       <use xlink:href="#DejaVuSans-65" x="1053.556641"/>
       <use xlink:href="#DejaVuSans-20" x="1115.080078"/>
       <use xlink:href="#DejaVuSans-72" x="1146.867188"/>
       <use xlink:href="#DejaVuSans-75" x="1187.980469"/>
       <use xlink:href="#DejaVuSans-63" x="1251.359375"/>
       <use xlink:href="#DejaVuSans-68" x="1306.339844"/>
       <use xlink:href="#DejaVuSans-65" x="1369.71875"/>
       <use xlink:href="#DejaVuSans-73" x="1431.242188"/>
       <use xlink:href="#DejaVuSans-29" x="1483.341797"/>
      </g>
     </g>
    </g>
    <g id="xtick_2">
     <g id="line2d_2">
      <path d="M 253.804821 256.394108 
L 390.33391 81.644843 
" clip-path="url(#p0ee574634d)" style="fill: none; stroke: #b0b0b0; stroke-width: 0.8; stroke-linecap: square"/>
     </g>
     <g id="text_2">
      <!-- total équins -->
      <g transform="translate(369.349264 73.572068) scale(0.1 -0.1)">
       <defs>
        <path id="DejaVuSans-e9" d="M 3597 1894 
L 3597 1613 
L 953 1613 
Q 991 1019 1311 708 
Q 1631 397 2203 397 
Q 2534 397 2845 478 
Q 3156 559 3463 722 
L 3463 178 
Q 3153 47 2828 -22 
Q 2503 -91 2169 -91 
Q 1331 -91 842 396 
Q 353 884 353 1716 
Q 353 2575 817 3079 
Q 1281 3584 2069 3584 
Q 2775 3584 3186 3129 
Q 3597 2675 3597 1894 
z
M 3022 2063 
Q 3016 2534 2758 2815 
Q 2500 3097 2075 3097 
Q 1594 3097 1305 2825 
Q 1016 2553 972 2059 
L 3022 2063 
z
M 2466 5119 
L 3088 5119 
L 2070 3944 
L 1591 3944 
L 2466 5119 
z
" transform="scale(0.015625)"/>
        <path id="DejaVuSans-71" d="M 947 1747 
Q 947 1113 1208 752 
Q 1469 391 1925 391 
Q 2381 391 2643 752 
Q 2906 1113 2906 1747 
Q 2906 2381 2643 2742 
Q 2381 3103 1925 3103 
Q 1469 3103 1208 2742 
Q 947 2381 947 1747 
z
M 2906 525 
Q 2725 213 2448 61 
Q 2172 -91 1784 -91 
Q 1150 -91 751 415 
Q 353 922 353 1747 
Q 353 2572 751 3078 
Q 1150 3584 1784 3584 
Q 2172 3584 2448 3432 
Q 2725 3281 2906 2969 
L 2906 3500 
L 3481 3500 
L 3481 -1331 
L 2906 -1331 
L 2906 525 
z
" transform="scale(0.015625)"/>
       </defs>
       <use xlink:href="#DejaVuSans-74"/>
       <use xlink:href="#DejaVuSans-6f" x="39.208984"/>
       <use xlink:href="#DejaVuSans-74" x="100.390625"/>
       <use xlink:href="#DejaVuSans-61" x="139.599609"/>
       <use xlink:href="#DejaVuSans-6c" x="200.878906"/>
       <use xlink:href="#DejaVuSans-20" x="228.662109"/>
       <use xlink:href="#DejaVuSans-e9" x="260.449219"/>
       <use xlink:href="#DejaVuSans-71" x="321.972656"/>
       <use xlink:href="#DejaVuSans-75" x="385.449219"/>
       <use xlink:href="#DejaVuSans-69" x="448.828125"/>
       <use xlink:href="#DejaVuSans-6e" x="476.611328"/>
       <use xlink:href="#DejaVuSans-73" x="539.990234"/>
      </g>
     </g>
    </g>
    <g id="xtick_3">
     <g id="line2d_3">
      <path d="M 253.804821 256.394108 
L 200.156221 41.221328 
" clip-path="url(#p0ee574634d)" style="fill: none; stroke: #b0b0b0; stroke-width: 0.8; stroke-linecap: square"/>
     </g>
     <g id="text_3">
      <!-- total bovins -->
      <g transform="translate(167.391971 30.396563) scale(0.1 -0.1)">
       <defs>
        <path id="DejaVuSans-76" d="M 191 3500 
L 800 3500 
L 1894 563 
L 2988 3500 
L 3597 3500 
L 2284 0 
L 1503 0 
L 191 3500 
z
" transform="scale(0.015625)"/>
       </defs>
       <use xlink:href="#DejaVuSans-74"/>
       <use xlink:href="#DejaVuSans-6f" x="39.208984"/>
       <use xlink:href="#DejaVuSans-74" x="100.390625"/>
       <use xlink:href="#DejaVuSans-61" x="139.599609"/>
       <use xlink:href="#DejaVuSans-6c" x="200.878906"/>
       <use xlink:href="#DejaVuSans-20" x="228.662109"/>
       <use xlink:href="#DejaVuSans-62" x="260.449219"/>
       <use xlink:href="#DejaVuSans-6f" x="323.925781"/>
       <use xlink:href="#DejaVuSans-76" x="385.107422"/>
       <use xlink:href="#DejaVuSans-69" x="444.287109"/>
       <use xlink:href="#DejaVuSans-6e" x="472.070312"/>
       <use xlink:href="#DejaVuSans-73" x="535.449219"/>
      </g>
     </g>
    </g>
    <g id="xtick_4">
     <g id="line2d_4">
      <path d="M 253.804821 256.394108 
L 51.21698 166.19619 
" clip-path="url(#p0ee574634d)" style="fill: none; stroke: #b0b0b0; stroke-width: 0.8; stroke-linecap: square"/>
     </g>
     <g id="text_4">
      <!-- total caprins -->
      <g transform="translate(7.2 163.261252) scale(0.1 -0.1)">
       <use xlink:href="#DejaVuSans-74"/>
       <use xlink:href="#DejaVuSans-6f" x="39.208984"/>
       <use xlink:href="#DejaVuSans-74" x="100.390625"/>
       <use xlink:href="#DejaVuSans-61" x="139.599609"/>
       <use xlink:href="#DejaVuSans-6c" x="200.878906"/>
       <use xlink:href="#DejaVuSans-20" x="228.662109"/>
       <use xlink:href="#DejaVuSans-63" x="260.449219"/>
       <use xlink:href="#DejaVuSans-61" x="315.429688"/>
       <use xlink:href="#DejaVuSans-70" x="376.708984"/>
       <use xlink:href="#DejaVuSans-72" x="440.185547"/>
       <use xlink:href="#DejaVuSans-69" x="481.298828"/>
       <use xlink:href="#DejaVuSans-6e" x="509.082031"/>
       <use xlink:href="#DejaVuSans-73" x="572.460938"/>
      </g>
     </g>
    </g>
    <g id="xtick_5">
     <g id="line2d_5">
      <path d="M 253.804821 256.394108 
L 58.002363 360.504122 
" clip-path="url(#p0ee574634d)" style="fill: none; stroke: #b0b0b0; stroke-width: 0.8; stroke-linecap: square"/>
     </g>
     <g id="text_5">
      <!-- total ovins -->
      <g transform="translate(19.437971 369.836099) scale(0.1 -0.1)">
       <use xlink:href="#DejaVuSans-74"/>
       <use xlink:href="#DejaVuSans-6f" x="39.208984"/>
       <use xlink:href="#DejaVuSans-74" x="100.390625"/>
       <use xlink:href="#DejaVuSans-61" x="139.599609"/>
       <use xlink:href="#DejaVuSans-6c" x="200.878906"/>
       <use xlink:href="#DejaVuSans-20" x="228.662109"/>
       <use xlink:href="#DejaVuSans-6f" x="260.449219"/>
       <use xlink:href="#DejaVuSans-76" x="321.630859"/>
       <use xlink:href="#DejaVuSans-69" x="380.810547"/>
       <use xlink:href="#DejaVuSans-6e" x="408.59375"/>
       <use xlink:href="#DejaVuSans-73" x="471.972656"/>
      </g>
     </g>
    </g>
    <g id="xtick_6">
     <g id="line2d_6">
      <path d="M 253.804821 256.394108 
L 215.296601 474.785075 
" clip-path="url(#p0ee574634d)" style="fill: none; stroke: #b0b0b0; stroke-width: 0.8; stroke-linecap: square"/>
     </g>
     <g id="text_6">
      <!-- total porcins -->
      <g transform="translate(181.75537 491.331759) scale(0.1 -0.1)">
       <use xlink:href="#DejaVuSans-74"/>
       <use xlink:href="#DejaVuSans-6f" x="39.208984"/>
       <use xlink:href="#DejaVuSans-74" x="100.390625"/>
       <use xlink:href="#DejaVuSans-61" x="139.599609"/>
       <use xlink:href="#DejaVuSans-6c" x="200.878906"/>
       <use xlink:href="#DejaVuSans-20" x="228.662109"/>
       <use xlink:href="#DejaVuSans-70" x="260.449219"/>
       <use xlink:href="#DejaVuSans-6f" x="323.925781"/>
       <use xlink:href="#DejaVuSans-72" x="385.107422"/>
       <use xlink:href="#DejaVuSans-63" x="423.970703"/>
       <use xlink:href="#DejaVuSans-69" x="478.951172"/>
       <use xlink:href="#DejaVuSans-6e" x="506.734375"/>
       <use xlink:href="#DejaVuSans-73" x="570.113281"/>
      </g>
     </g>
    </g>
    <g id="xtick_7">
     <g id="line2d_7">
      <path d="M 253.804821 256.394108 
L 402.191224 421.193904 
" clip-path="url(#p0ee574634d)" style="fill: none; stroke: #b0b0b0; stroke-width: 0.8; stroke-linecap: square"/>
     </g>
     <g id="text_7">
      <!-- total volailles -->
      <g transform="translate(378.216865 434.357307) scale(0.1 -0.1)">
       <use xlink:href="#DejaVuSans-74"/>
       <use xlink:href="#DejaVuSans-6f" x="39.208984"/>
       <use xlink:href="#DejaVuSans-74" x="100.390625"/>
       <use xlink:href="#DejaVuSans-61" x="139.599609"/>
       <use xlink:href="#DejaVuSans-6c" x="200.878906"/>
       <use xlink:href="#DejaVuSans-20" x="228.662109"/>
       <use xlink:href="#DejaVuSans-76" x="260.449219"/>
       <use xlink:href="#DejaVuSans-6f" x="319.628906"/>
       <use xlink:href="#DejaVuSans-6c" x="380.810547"/>
       <use xlink:href="#DejaVuSans-61" x="408.59375"/>
       <use xlink:href="#DejaVuSans-69" x="469.873047"/>
       <use xlink:href="#DejaVuSans-6c" x="497.65625"/>
       <use xlink:href="#DejaVuSans-6c" x="525.439453"/>
       <use xlink:href="#DejaVuSans-65" x="553.222656"/>
       <use xlink:href="#DejaVuSans-73" x="614.746094"/>
      </g>
     </g>
    </g>
   </g>
   <g id="matplotlib.axis_2">
    <g id="ytick_1">
     <g id="line2d_8">
      <path d="M 282.08896 256.394108 
C 282.08896 252.679869 281.357336 249.001746 279.935958 245.570236 
C 278.51458 242.138727 276.431091 239.020565 273.804727 236.394201 
C 271.178364 233.767838 268.060202 231.684348 264.628692 230.262971 
C 261.197183 228.841593 257.51906 228.109969 253.804821 228.109969 
C 250.090582 228.109969 246.412459 228.841593 242.980949 230.262971 
C 239.54944 231.684348 236.431278 233.767838 233.804914 236.394201 
C 231.178551 239.020565 229.095061 242.138727 227.673684 245.570236 
C 226.252306 249.001746 225.520682 252.679869 225.520682 256.394108 
C 225.520682 260.108347 226.252306 263.78647 227.673684 267.217979 
C 229.095061 270.649489 231.178551 273.767651 233.804914 276.394015 
C 236.431278 279.020378 239.54944 281.103867 242.980949 282.525245 
C 246.412459 283.946623 250.090582 284.678247 253.804821 284.678247 
C 257.51906 284.678247 261.197183 283.946623 264.628692 282.525245 
C 268.060202 281.103867 271.178364 279.020378 273.804727 276.394015 
C 276.431091 273.767651 278.51458 270.649489 279.935958 267.217979 
C 281.357336 263.78647 282.08896 260.108347 282.08896 256.394108 
" clip-path="url(#p0ee574634d)" style="fill: none; stroke: #b0b0b0; stroke-width: 0.8; stroke-linecap: square"/>
     </g>
     <g id="text_8">
      <!-- 0.025 -->
      <g transform="translate(279.935958 243.490549) scale(0.1 -0.1)">
       <defs>
        <path id="DejaVuSans-30" d="M 2034 4250 
Q 1547 4250 1301 3770 
Q 1056 3291 1056 2328 
Q 1056 1369 1301 889 
Q 1547 409 2034 409 
Q 2525 409 2770 889 
Q 3016 1369 3016 2328 
Q 3016 3291 2770 3770 
Q 2525 4250 2034 4250 
z
M 2034 4750 
Q 2819 4750 3233 4129 
Q 3647 3509 3647 2328 
Q 3647 1150 3233 529 
Q 2819 -91 2034 -91 
Q 1250 -91 836 529 
Q 422 1150 422 2328 
Q 422 3509 836 4129 
Q 1250 4750 2034 4750 
z
" transform="scale(0.015625)"/>
        <path id="DejaVuSans-2e" d="M 684 794 
L 1344 794 
L 1344 0 
L 684 0 
L 684 794 
z
" transform="scale(0.015625)"/>
        <path id="DejaVuSans-32" d="M 1228 531 
L 3431 531 
L 3431 0 
L 469 0 
L 469 531 
Q 828 903 1448 1529 
Q 2069 2156 2228 2338 
Q 2531 2678 2651 2914 
Q 2772 3150 2772 3378 
Q 2772 3750 2511 3984 
Q 2250 4219 1831 4219 
Q 1534 4219 1204 4116 
Q 875 4013 500 3803 
L 500 4441 
Q 881 4594 1212 4672 
Q 1544 4750 1819 4750 
Q 2544 4750 2975 4387 
Q 3406 4025 3406 3419 
Q 3406 3131 3298 2873 
Q 3191 2616 2906 2266 
Q 2828 2175 2409 1742 
Q 1991 1309 1228 531 
z
" transform="scale(0.015625)"/>
        <path id="DejaVuSans-35" d="M 691 4666 
L 3169 4666 
L 3169 4134 
L 1269 4134 
L 1269 2991 
Q 1406 3038 1543 3061 
Q 1681 3084 1819 3084 
Q 2600 3084 3056 2656 
Q 3513 2228 3513 1497 
Q 3513 744 3044 326 
Q 2575 -91 1722 -91 
Q 1428 -91 1123 -41 
Q 819 9 494 109 
L 494 744 
Q 775 591 1075 516 
Q 1375 441 1709 441 
Q 2250 441 2565 725 
Q 2881 1009 2881 1497 
Q 2881 1984 2565 2268 
Q 2250 2553 1709 2553 
Q 1456 2553 1204 2497 
Q 953 2441 691 2322 
L 691 4666 
z
" transform="scale(0.015625)"/>
       </defs>
       <use xlink:href="#DejaVuSans-30"/>
       <use xlink:href="#DejaVuSans-2e" x="63.623047"/>
       <use xlink:href="#DejaVuSans-30" x="95.410156"/>
       <use xlink:href="#DejaVuSans-32" x="159.033203"/>
       <use xlink:href="#DejaVuSans-35" x="222.65625"/>
      </g>
     </g>
    </g>
    <g id="ytick_2">
     <g id="line2d_9">
      <path d="M 310.373099 256.394108 
C 310.373099 248.96563 308.909851 241.609384 306.067095 234.746365 
C 303.22434 227.883346 299.057361 221.647022 293.804634 216.394295 
C 288.551907 211.141567 282.315583 206.974589 275.452564 204.131833 
C 268.589545 201.289078 261.233299 199.82583 253.804821 199.82583 
C 246.376343 199.82583 239.020097 201.289078 232.157078 204.131833 
C 225.294059 206.974589 219.057735 211.141567 213.805008 216.394295 
C 208.55228 221.647022 204.385302 227.883346 201.542546 234.746365 
C 198.699791 241.609384 197.236542 248.96563 197.236542 256.394108 
C 197.236542 263.822586 198.699791 271.178832 201.542546 278.041851 
C 204.385302 284.90487 208.55228 291.141194 213.805008 296.393921 
C 219.057735 301.646649 225.294059 305.813627 232.157078 308.656383 
C 239.020097 311.499138 246.376343 312.962386 253.804821 312.962386 
C 261.233299 312.962386 268.589545 311.499138 275.452564 308.656383 
C 282.315583 305.813627 288.551907 301.646649 293.804634 296.393921 
C 299.057361 291.141194 303.22434 284.90487 306.067095 278.041851 
C 308.909851 271.178832 310.373099 263.822586 310.373099 256.394108 
" clip-path="url(#p0ee574634d)" style="fill: none; stroke: #b0b0b0; stroke-width: 0.8; stroke-linecap: square"/>
     </g>
     <g id="text_9">
      <!-- 0.050 -->
      <g transform="translate(306.067095 232.666677) scale(0.1 -0.1)">
       <use xlink:href="#DejaVuSans-30"/>
       <use xlink:href="#DejaVuSans-2e" x="63.623047"/>
       <use xlink:href="#DejaVuSans-30" x="95.410156"/>
       <use xlink:href="#DejaVuSans-35" x="159.033203"/>
       <use xlink:href="#DejaVuSans-30" x="222.65625"/>
      </g>
     </g>
    </g>
    <g id="ytick_3">
     <g id="line2d_10">
      <path d="M 338.657238 256.394108 
C 338.657238 245.251391 336.462366 234.217022 332.198233 223.922494 
C 327.934099 213.627965 321.683632 204.273479 313.804541 196.394388 
C 305.92545 188.515297 296.570964 182.264829 286.276435 178.000696 
C 275.981907 173.736563 264.947538 171.54169 253.804821 171.54169 
C 242.662103 171.54169 231.627735 173.736563 221.333206 178.000696 
C 211.038678 182.264829 201.684192 188.515297 193.805101 196.394388 
C 185.92601 204.273479 179.675542 213.627965 175.411409 223.922494 
C 171.147276 234.217022 168.952403 245.251391 168.952403 256.394108 
C 168.952403 267.536825 171.147276 278.571194 175.411409 288.865722 
C 179.675542 299.160251 185.92601 308.514737 193.805101 316.393828 
C 201.684192 324.272919 211.038678 330.523387 221.333206 334.78752 
C 231.627735 339.051653 242.662103 341.246526 253.804821 341.246526 
C 264.947538 341.246526 275.981907 339.051653 286.276435 334.78752 
C 296.570964 330.523387 305.92545 324.272919 313.804541 316.393828 
C 321.683632 308.514737 327.934099 299.160251 332.198233 288.865722 
C 336.462366 278.571194 338.657238 267.536825 338.657238 256.394108 
" clip-path="url(#p0ee574634d)" style="fill: none; stroke: #b0b0b0; stroke-width: 0.8; stroke-linecap: square"/>
     </g>
     <g id="text_10">
      <!-- 0.075 -->
      <g transform="translate(332.198233 221.842806) scale(0.1 -0.1)">
       <defs>
        <path id="DejaVuSans-37" d="M 525 4666 
L 3525 4666 
L 3525 4397 
L 1831 0 
L 1172 0 
L 2766 4134 
L 525 4134 
L 525 4666 
z
" transform="scale(0.015625)"/>
       </defs>
       <use xlink:href="#DejaVuSans-30"/>
       <use xlink:href="#DejaVuSans-2e" x="63.623047"/>
       <use xlink:href="#DejaVuSans-30" x="95.410156"/>
       <use xlink:href="#DejaVuSans-37" x="159.033203"/>
       <use xlink:href="#DejaVuSans-35" x="222.65625"/>
      </g>
     </g>
    </g>
    <g id="ytick_4">
     <g id="line2d_11">
      <path d="M 366.941378 256.394108 
C 366.941378 241.537151 364.014881 226.82466 358.32937 213.098622 
C 352.643859 199.372584 344.309902 186.899936 333.804447 176.394481 
C 323.298993 165.889027 310.826345 157.55507 297.100307 151.869559 
C 283.374269 146.184048 268.661777 143.257551 253.804821 143.257551 
C 238.947864 143.257551 224.235373 146.184048 210.509335 151.869559 
C 196.783297 157.55507 184.310649 165.889027 173.805194 176.394481 
C 163.29974 186.899936 154.965783 199.372584 149.280272 213.098622 
C 143.59476 226.82466 140.668264 241.537151 140.668264 256.394108 
C 140.668264 271.251064 143.59476 285.963556 149.280272 299.689594 
C 154.965783 313.415632 163.29974 325.88828 173.805194 336.393734 
C 184.310649 346.899189 196.783297 355.233146 210.509335 360.918657 
C 224.235373 366.604168 238.947864 369.530665 253.804821 369.530665 
C 268.661777 369.530665 283.374269 366.604168 297.100307 360.918657 
C 310.826345 355.233146 323.298993 346.899189 333.804447 336.393734 
C 344.309902 325.88828 352.643859 313.415632 358.32937 299.689594 
C 364.014881 285.963556 366.941378 271.251064 366.941378 256.394108 
" clip-path="url(#p0ee574634d)" style="fill: none; stroke: #b0b0b0; stroke-width: 0.8; stroke-linecap: square"/>
     </g>
     <g id="text_11">
      <!-- 0.100 -->
      <g transform="translate(358.32937 211.018935) scale(0.1 -0.1)">
       <defs>
        <path id="DejaVuSans-31" d="M 794 531 
L 1825 531 
L 1825 4091 
L 703 3866 
L 703 4441 
L 1819 4666 
L 2450 4666 
L 2450 531 
L 3481 531 
L 3481 0 
L 794 0 
L 794 531 
z
" transform="scale(0.015625)"/>
       </defs>
       <use xlink:href="#DejaVuSans-30"/>
       <use xlink:href="#DejaVuSans-2e" x="63.623047"/>
       <use xlink:href="#DejaVuSans-31" x="95.410156"/>
       <use xlink:href="#DejaVuSans-30" x="159.033203"/>
       <use xlink:href="#DejaVuSans-30" x="222.65625"/>
      </g>
     </g>
    </g>
    <g id="ytick_5">
     <g id="line2d_12">
      <path d="M 395.225517 256.394108 
C 395.225517 237.822912 391.567396 219.432298 384.460507 202.274751 
C 377.353619 185.117203 366.936172 169.526393 353.804354 156.394575 
C 340.672536 143.262756 325.081726 132.84531 307.924178 125.738421 
C 290.766631 118.631532 272.376016 114.973412 253.804821 114.973412 
C 235.233625 114.973412 216.843011 118.631532 199.685463 125.738421 
C 182.527916 132.84531 166.937106 143.262756 153.805288 156.394575 
C 140.673469 169.526393 130.256023 185.117203 123.149134 202.274751 
C 116.042245 219.432298 112.384125 237.822912 112.384125 256.394108 
C 112.384125 274.965304 116.042245 293.355918 123.149134 310.513465 
C 130.256023 327.671013 140.673469 343.261823 153.805288 356.393641 
C 166.937106 369.525459 182.527916 379.942906 199.685463 387.049794 
C 216.843011 394.156683 235.233625 397.814804 253.804821 397.814804 
C 272.376016 397.814804 290.766631 394.156683 307.924178 387.049794 
C 325.081726 379.942906 340.672536 369.525459 353.804354 356.393641 
C 366.936172 343.261823 377.353619 327.671013 384.460507 310.513465 
C 391.567396 293.355918 395.225517 274.965304 395.225517 256.394108 
" clip-path="url(#p0ee574634d)" style="fill: none; stroke: #b0b0b0; stroke-width: 0.8; stroke-linecap: square"/>
     </g>
     <g id="text_12">
      <!-- 0.125 -->
      <g transform="translate(384.460507 200.195063) scale(0.1 -0.1)">
       <use xlink:href="#DejaVuSans-30"/>
       <use xlink:href="#DejaVuSans-2e" x="63.623047"/>
       <use xlink:href="#DejaVuSans-31" x="95.410156"/>
       <use xlink:href="#DejaVuSans-32" x="159.033203"/>
       <use xlink:href="#DejaVuSans-35" x="222.65625"/>
      </g>
     </g>
    </g>
    <g id="ytick_6">
     <g id="line2d_13">
      <path d="M 423.509656 256.394108 
C 423.509656 234.108673 419.119911 212.039936 410.591645 191.450879 
C 402.063378 170.861822 389.562443 152.15285 373.804261 136.394668 
C 358.046079 120.636486 339.337107 108.135551 318.74805 99.607284 
C 298.158993 91.079017 276.090256 86.689273 253.804821 86.689273 
C 231.519386 86.689273 209.450649 91.079017 188.861592 99.607284 
C 168.272535 108.135551 149.563563 120.636486 133.805381 136.394668 
C 118.047199 152.15285 105.546264 170.861822 97.017997 191.450879 
C 88.48973 212.039936 84.099986 234.108673 84.099986 256.394108 
C 84.099986 278.679543 88.48973 300.74828 97.017997 321.337337 
C 105.546264 341.926394 118.047199 360.635366 133.805381 376.393548 
C 149.563563 392.15173 168.272535 404.652665 188.861592 413.180932 
C 209.450649 421.709198 231.519386 426.098943 253.804821 426.098943 
C 276.090256 426.098943 298.158993 421.709198 318.74805 413.180932 
C 339.337107 404.652665 358.046079 392.15173 373.804261 376.393548 
C 389.562443 360.635366 402.063378 341.926394 410.591645 321.337337 
C 419.119911 300.74828 423.509656 278.679543 423.509656 256.394108 
" clip-path="url(#p0ee574634d)" style="fill: none; stroke: #b0b0b0; stroke-width: 0.8; stroke-linecap: square"/>
     </g>
     <g id="text_13">
      <!-- 0.150 -->
      <g transform="translate(410.591645 189.371192) scale(0.1 -0.1)">
       <use xlink:href="#DejaVuSans-30"/>
       <use xlink:href="#DejaVuSans-2e" x="63.623047"/>
       <use xlink:href="#DejaVuSans-31" x="95.410156"/>
       <use xlink:href="#DejaVuSans-35" x="159.033203"/>
       <use xlink:href="#DejaVuSans-30" x="222.65625"/>
      </g>
     </g>
    </g>
    <g id="ytick_7">
     <g id="line2d_14">
      <path d="M 451.793795 256.394108 
C 451.793795 230.394434 446.672426 204.647574 436.722782 180.627008 
C 426.773138 156.606441 412.188713 134.779307 393.804167 116.394761 
C 375.419622 98.010216 353.592488 83.425791 329.571921 73.476147 
C 305.551355 63.526502 279.804495 58.405133 253.804821 58.405133 
C 227.805147 58.405133 202.058287 63.526502 178.037721 73.476147 
C 154.017154 83.425791 132.19002 98.010216 113.805474 116.394761 
C 95.420929 134.779307 80.836504 156.606441 70.88686 180.627008 
C 60.937215 204.647574 55.815846 230.394434 55.815846 256.394108 
C 55.815846 282.393782 60.937215 308.140642 70.88686 332.161208 
C 80.836504 356.181775 95.420929 378.008909 113.805474 396.393454 
C 132.19002 414.778 154.017154 429.362425 178.037721 439.312069 
C 202.058287 449.261714 227.805147 454.383082 253.804821 454.383082 
C 279.804495 454.383082 305.551355 449.261714 329.571921 439.312069 
C 353.592488 429.362425 375.419622 414.778 393.804167 396.393454 
C 412.188713 378.008909 426.773138 356.181775 436.722782 332.161208 
C 446.672426 308.140642 451.793795 282.393782 451.793795 256.394108 
" clip-path="url(#p0ee574634d)" style="fill: none; stroke: #b0b0b0; stroke-width: 0.8; stroke-linecap: square"/>
     </g>
     <g id="text_14">
      <!-- 0.175 -->
      <g transform="translate(436.722782 178.54732) scale(0.1 -0.1)">
       <use xlink:href="#DejaVuSans-30"/>
       <use xlink:href="#DejaVuSans-2e" x="63.623047"/>
       <use xlink:href="#DejaVuSans-31" x="95.410156"/>
       <use xlink:href="#DejaVuSans-37" x="159.033203"/>
       <use xlink:href="#DejaVuSans-35" x="222.65625"/>
      </g>
     </g>
    </g>
   </g>
   <g id="line2d_15">
    <path d="M 397.47029 256.394108 
L 351.220639 134.238536 
L 219.930406 107.980599 
L 117.8948 190.943292 
L 113.494626 323.963937 
L 210.207053 447.408409 
L 346.627768 372.790402 
L 397.47029 256.394108 
" clip-path="url(#p0ee574634d)" style="fill: none; stroke: #0000ff; stroke-width: 1.5; stroke-linecap: square"/>
   </g>
   <g id="line2d_16">
    <path d="M 425.969146 256.394108 
L 343.798916 143.545082 
L 219.248167 104.991516 
L 57.780753 161.993892 
L 113.5943 323.915936 
L 224.036786 386.81639 
L 353.91545 381.928866 
L 425.969146 256.394108 
" clip-path="url(#p0ee574634d)" style="fill: none; stroke: #ff0000; stroke-width: 1.5; stroke-linecap: square"/>
   </g>
   <g id="patch_3">
    <path d="M 475.564821 256.394108 
C 475.564821 227.272852 469.828568 198.434763 458.684346 171.53023 
C 447.540124 144.625697 431.204659 120.177946 410.612821 99.586108 
C 390.020983 78.99427 365.573232 62.658805 338.668699 51.514583 
C 311.764166 40.37036 282.926077 34.634108 253.804821 34.634108 
C 224.683564 34.634108 195.845476 40.37036 168.940943 51.514583 
C 142.03641 62.658805 117.588659 78.99427 96.996821 99.586108 
C 76.404983 120.177946 60.069518 144.625697 48.925296 171.53023 
C 37.781073 198.434763 32.044821 227.272852 32.044821 256.394108 
C 32.044821 285.515364 37.781073 314.353453 48.925296 341.257986 
C 60.069518 368.162519 76.404983 392.61027 96.996821 413.202108 
C 117.588659 433.793946 142.03641 450.129411 168.940943 461.273633 
C 195.845476 472.417855 224.683564 478.154108 253.804821 478.154108 
C 282.926077 478.154108 311.764166 472.417855 338.668699 461.273633 
C 365.573232 450.129411 390.020983 433.793946 410.612821 413.202108 
C 431.204659 392.61027 447.540124 368.162519 458.684346 341.257986 
C 469.828568 314.353453 475.564821 285.515364 475.564821 256.394108 
" style="fill: none; stroke: #000000; stroke-width: 0.8; stroke-linejoin: miter; stroke-linecap: square"/>
   </g>
   <g id="text_15">
    <!-- Répartition des cheptels sur le pole de Pays d'Hasparren en 2010 et 2020 -->
    <g transform="translate(32.481696 16.798125) scale(0.12 -0.12)">
     <defs>
      <path id="DejaVuSans-52" d="M 2841 2188 
Q 3044 2119 3236 1894 
Q 3428 1669 3622 1275 
L 4263 0 
L 3584 0 
L 2988 1197 
Q 2756 1666 2539 1819 
Q 2322 1972 1947 1972 
L 1259 1972 
L 1259 0 
L 628 0 
L 628 4666 
L 2053 4666 
Q 2853 4666 3247 4331 
Q 3641 3997 3641 3322 
Q 3641 2881 3436 2590 
Q 3231 2300 2841 2188 
z
M 1259 4147 
L 1259 2491 
L 2053 2491 
Q 2509 2491 2742 2702 
Q 2975 2913 2975 3322 
Q 2975 3731 2742 3939 
Q 2509 4147 2053 4147 
L 1259 4147 
z
" transform="scale(0.015625)"/>
      <path id="DejaVuSans-50" d="M 1259 4147 
L 1259 2394 
L 2053 2394 
Q 2494 2394 2734 2622 
Q 2975 2850 2975 3272 
Q 2975 3691 2734 3919 
Q 2494 4147 2053 4147 
L 1259 4147 
z
M 628 4666 
L 2053 4666 
Q 2838 4666 3239 4311 
Q 3641 3956 3641 3272 
Q 3641 2581 3239 2228 
Q 2838 1875 2053 1875 
L 1259 1875 
L 1259 0 
L 628 0 
L 628 4666 
z
" transform="scale(0.015625)"/>
      <path id="DejaVuSans-79" d="M 2059 -325 
Q 1816 -950 1584 -1140 
Q 1353 -1331 966 -1331 
L 506 -1331 
L 506 -850 
L 844 -850 
Q 1081 -850 1212 -737 
Q 1344 -625 1503 -206 
L 1606 56 
L 191 3500 
L 800 3500 
L 1894 763 
L 2988 3500 
L 3597 3500 
L 2059 -325 
z
" transform="scale(0.015625)"/>
      <path id="DejaVuSans-27" d="M 1147 4666 
L 1147 2931 
L 616 2931 
L 616 4666 
L 1147 4666 
z
" transform="scale(0.015625)"/>
      <path id="DejaVuSans-48" d="M 628 4666 
L 1259 4666 
L 1259 2753 
L 3553 2753 
L 3553 4666 
L 4184 4666 
L 4184 0 
L 3553 0 
L 3553 2222 
L 1259 2222 
L 1259 0 
L 628 0 
L 628 4666 
z
" transform="scale(0.015625)"/>
     </defs>
     <use xlink:href="#DejaVuSans-52"/>
     <use xlink:href="#DejaVuSans-e9" x="64.982422"/>
     <use xlink:href="#DejaVuSans-70" x="126.505859"/>
     <use xlink:href="#DejaVuSans-61" x="189.982422"/>
     <use xlink:href="#DejaVuSans-72" x="251.261719"/>
     <use xlink:href="#DejaVuSans-74" x="292.375"/>
     <use xlink:href="#DejaVuSans-69" x="331.583984"/>
     <use xlink:href="#DejaVuSans-74" x="359.367188"/>
     <use xlink:href="#DejaVuSans-69" x="398.576172"/>
     <use xlink:href="#DejaVuSans-6f" x="426.359375"/>
     <use xlink:href="#DejaVuSans-6e" x="487.541016"/>
     <use xlink:href="#DejaVuSans-20" x="550.919922"/>
     <use xlink:href="#DejaVuSans-64" x="582.707031"/>
     <use xlink:href="#DejaVuSans-65" x="646.183594"/>
     <use xlink:href="#DejaVuSans-73" x="707.707031"/>
     <use xlink:href="#DejaVuSans-20" x="759.806641"/>
     <use xlink:href="#DejaVuSans-63" x="791.59375"/>
     <use xlink:href="#DejaVuSans-68" x="846.574219"/>
     <use xlink:href="#DejaVuSans-65" x="909.953125"/>
     <use xlink:href="#DejaVuSans-70" x="971.476562"/>
     <use xlink:href="#DejaVuSans-74" x="1034.953125"/>
     <use xlink:href="#DejaVuSans-65" x="1074.162109"/>
     <use xlink:href="#DejaVuSans-6c" x="1135.685547"/>
     <use xlink:href="#DejaVuSans-73" x="1163.46875"/>
     <use xlink:href="#DejaVuSans-20" x="1215.568359"/>
     <use xlink:href="#DejaVuSans-73" x="1247.355469"/>
     <use xlink:href="#DejaVuSans-75" x="1299.455078"/>
     <use xlink:href="#DejaVuSans-72" x="1362.833984"/>
     <use xlink:href="#DejaVuSans-20" x="1403.947266"/>
     <use xlink:href="#DejaVuSans-6c" x="1435.734375"/>
     <use xlink:href="#DejaVuSans-65" x="1463.517578"/>
     <use xlink:href="#DejaVuSans-20" x="1525.041016"/>
     <use xlink:href="#DejaVuSans-70" x="1556.828125"/>
     <use xlink:href="#DejaVuSans-6f" x="1620.304688"/>
     <use xlink:href="#DejaVuSans-6c" x="1681.486328"/>
     <use xlink:href="#DejaVuSans-65" x="1709.269531"/>
     <use xlink:href="#DejaVuSans-20" x="1770.792969"/>
     <use xlink:href="#DejaVuSans-64" x="1802.580078"/>
     <use xlink:href="#DejaVuSans-65" x="1866.056641"/>
     <use xlink:href="#DejaVuSans-20" x="1927.580078"/>
     <use xlink:href="#DejaVuSans-50" x="1959.367188"/>
     <use xlink:href="#DejaVuSans-61" x="2015.169922"/>
     <use xlink:href="#DejaVuSans-79" x="2076.449219"/>
     <use xlink:href="#DejaVuSans-73" x="2135.628906"/>
     <use xlink:href="#DejaVuSans-20" x="2187.728516"/>
     <use xlink:href="#DejaVuSans-64" x="2219.515625"/>
     <use xlink:href="#DejaVuSans-27" x="2282.992188"/>
     <use xlink:href="#DejaVuSans-48" x="2310.482422"/>
     <use xlink:href="#DejaVuSans-61" x="2385.677734"/>
     <use xlink:href="#DejaVuSans-73" x="2446.957031"/>
     <use xlink:href="#DejaVuSans-70" x="2499.056641"/>
     <use xlink:href="#DejaVuSans-61" x="2562.533203"/>
     <use xlink:href="#DejaVuSans-72" x="2623.8125"/>
     <use xlink:href="#DejaVuSans-72" x="2663.175781"/>
     <use xlink:href="#DejaVuSans-65" x="2702.039062"/>
     <use xlink:href="#DejaVuSans-6e" x="2763.5625"/>
     <use xlink:href="#DejaVuSans-20" x="2826.941406"/>
     <use xlink:href="#DejaVuSans-65" x="2858.728516"/>
     <use xlink:href="#DejaVuSans-6e" x="2920.251953"/>
     <use xlink:href="#DejaVuSans-20" x="2983.630859"/>
     <use xlink:href="#DejaVuSans-32" x="3015.417969"/>
     <use xlink:href="#DejaVuSans-30" x="3079.041016"/>
     <use xlink:href="#DejaVuSans-31" x="3142.664062"/>
     <use xlink:href="#DejaVuSans-30" x="3206.287109"/>
     <use xlink:href="#DejaVuSans-20" x="3269.910156"/>
     <use xlink:href="#DejaVuSans-65" x="3301.697266"/>
     <use xlink:href="#DejaVuSans-74" x="3363.220703"/>
     <use xlink:href="#DejaVuSans-20" x="3402.429688"/>
     <use xlink:href="#DejaVuSans-32" x="3434.216797"/>
     <use xlink:href="#DejaVuSans-30" x="3497.839844"/>
     <use xlink:href="#DejaVuSans-32" x="3561.462891"/>
     <use xlink:href="#DejaVuSans-30" x="3625.085938"/>
    </g>
   </g>
   <g id="legend_1">
    <g id="patch_4">
     <path d="M 411.114821 71.990358 
L 468.564821 71.990358 
Q 470.564821 71.990358 470.564821 69.990358 
L 470.564821 41.634108 
Q 470.564821 39.634108 468.564821 39.634108 
L 411.114821 39.634108 
Q 409.114821 39.634108 409.114821 41.634108 
L 409.114821 69.990358 
Q 409.114821 71.990358 411.114821 71.990358 
z
" style="fill: #ffffff; opacity: 0.8; stroke: #cccccc; stroke-linejoin: miter"/>
    </g>
    <g id="line2d_17">
     <path d="M 413.114821 47.732545 
L 423.114821 47.732545 
L 433.114821 47.732545 
" style="fill: none; stroke: #0000ff; stroke-width: 1.5; stroke-linecap: square"/>
    </g>
    <g id="text_16">
     <!-- 2020 -->
     <g transform="translate(441.114821 51.232545) scale(0.1 -0.1)">
      <use xlink:href="#DejaVuSans-32"/>
      <use xlink:href="#DejaVuSans-30" x="63.623047"/>
      <use xlink:href="#DejaVuSans-32" x="127.246094"/>
      <use xlink:href="#DejaVuSans-30" x="190.869141"/>
     </g>
    </g>
    <g id="line2d_18">
     <path d="M 413.114821 62.41067 
L 423.114821 62.41067 
L 433.114821 62.41067 
" style="fill: none; stroke: #ff0000; stroke-width: 1.5; stroke-linecap: square"/>
    </g>
    <g id="text_17">
     <!-- 2010 -->
     <g transform="translate(441.114821 65.91067) scale(0.1 -0.1)">
      <use xlink:href="#DejaVuSans-32"/>
      <use xlink:href="#DejaVuSans-30" x="63.623047"/>
      <use xlink:href="#DejaVuSans-31" x="127.246094"/>
      <use xlink:href="#DejaVuSans-30" x="190.869141"/>
     </g>
    </g>
   </g>
  </g>
 </g>
 <defs>
  <clipPath id="p0ee574634d">
   <path d="M 475.564821 256.394108 
C 475.564821 227.272852 469.828568 198.434763 458.684346 171.53023 
C 447.540124 144.625697 431.204659 120.177946 410.612821 99.586108 
C 390.020983 78.99427 365.573232 62.658805 338.668699 51.514583 
C 311.764166 40.37036 282.926077 34.634108 253.804821 34.634108 
C 224.683564 34.634108 195.845476 40.37036 168.940943 51.514583 
C 142.03641 62.658805 117.588659 78.99427 96.996821 99.586108 
C 76.404983 120.177946 60.069518 144.625697 48.925296 171.53023 
C 37.781073 198.434763 32.044821 227.272852 32.044821 256.394108 
C 32.044821 285.515364 37.781073 314.353453 48.925296 341.257986 
C 60.069518 368.162519 76.404983 392.61027 96.996821 413.202108 
C 117.588659 433.793946 142.03641 450.129411 168.940943 461.273633 
C 195.845476 472.417855 224.683564 478.154108 253.804821 478.154108 
C 282.926077 478.154108 311.764166 472.417855 338.668699 461.273633 
C 365.573232 450.129411 390.020983 433.793946 410.612821 413.202108 
C 431.204659 392.61027 447.540124 368.162519 458.684346 341.257986 
C 469.828568 314.353453 475.564821 285.515364 475.564821 256.394108 
M 253.804821 256.394108 
C 253.804821 256.394108 253.804821 256.394108 253.804821 256.394108 
C 253.804821 256.394108 253.804821 256.394108 253.804821 256.394108 
C 253.804821 256.394108 253.804821 256.394108 253.804821 256.394108 
C 253.804821 256.394108 253.804821 256.394108 253.804821 256.394108 
C 253.804821 256.394108 253.804821 256.394108 253.804821 256.394108 
C 253.804821 256.394108 253.804821 256.394108 253.804821 256.394108 
C 253.804821 256.394108 253.804821 256.394108 253.804821 256.394108 
C 253.804821 256.394108 253.804821 256.394108 253.804821 256.394108 
C 253.804821 256.394108 253.804821 256.394108 253.804821 256.394108 
C 253.804821 256.394108 253.804821 256.394108 253.804821 256.394108 
C 253.804821 256.394108 253.804821 256.394108 253.804821 256.394108 
C 253.804821 256.394108 253.804821 256.394108 253.804821 256.394108 
C 253.804821 256.394108 253.804821 256.394108 253.804821 256.394108 
C 253.804821 256.394108 253.804821 256.394108 253.804821 256.394108 
C 253.804821 256.394108 253.804821 256.394108 253.804821 256.394108 
C 253.804821 256.394108 253.804821 256.394108 253.804821 256.394108 
z
"/>
  </clipPath>
 </defs>
</svg>
