<?xml version="1.0" encoding="utf-8" standalone="no"?>
<!DOCTYPE svg PUBLIC "-//W3C//DTD SVG 1.1//EN"
  "http://www.w3.org/Graphics/SVG/1.1/DTD/svg11.dtd">
<svg xmlns:xlink="http://www.w3.org/1999/xlink" width="572.88279pt" height="500.611446pt" viewBox="0 0 572.88279 500.611446" xmlns="http://www.w3.org/2000/svg" version="1.1">
 <metadata>
  <rdf:RDF xmlns:dc="http://purl.org/dc/elements/1.1/" xmlns:cc="http://creativecommons.org/ns#" xmlns:rdf="http://www.w3.org/1999/02/22-rdf-syntax-ns#">
   <cc:Work>
    <dc:type rdf:resource="http://purl.org/dc/dcmitype/StillImage"/>
    <dc:date>2023-06-26T13:50:55.448314</dc:date>
    <dc:format>image/svg+xml</dc:format>
    <dc:creator>
     <cc:Agent>
      <dc:title>Matplotlib v3.7.1, https://matplotlib.org/</dc:title>
     </cc:Agent>
    </dc:creator>
   </cc:Work>
  </rdf:RDF>
 </metadata>
 <defs>
  <style type="text/css">*{stroke-linejoin: round; stroke-linecap: butt}</style>
 </defs>
 <g id="figure_1">
  <g id="patch_1">
   <path d="M 0 500.611446 
L 572.88279 500.611446 
L 572.88279 0 
L 0 0 
z
" style="fill: #ffffff"/>
  </g>
  <g id="axes_1">
   <g id="patch_2">
    <path d="M 475.564821 256.394108 
C 475.564821 227.272852 469.828568 198.434763 458.684346 171.53023 
C 447.540124 144.625697 431.204659 120.177946 410.612821 99.586108 
C 390.020983 78.99427 365.573232 62.658805 338.668699 51.514583 
C 311.764166 40.37036 282.926077 34.634108 253.804821 34.634108 
C 224.683564 34.634108 195.845476 40.37036 168.940943 51.514583 
C 142.03641 62.658805 117.588659 78.99427 96.996821 99.586108 
C 76.404983 120.177946 60.069518 144.625697 48.925296 171.53023 
C 37.781073 198.434763 32.044821 227.272852 32.044821 256.394108 
C 32.044821 285.515364 37.781073 314.353453 48.925296 341.257986 
C 60.069518 368.162519 76.404983 392.61027 96.996821 413.202108 
C 117.588659 433.793946 142.03641 450.129411 168.940943 461.273633 
C 195.845476 472.417855 224.683564 478.154108 253.804821 478.154108 
C 282.926077 478.154108 311.764166 472.417855 338.668699 461.273633 
C 365.573232 450.129411 390.020983 433.793946 410.612821 413.202108 
C 431.204659 392.61027 447.540124 368.162519 458.684346 341.257986 
C 469.828568 314.353453 475.564821 285.515364 475.564821 256.394108 
M 253.804821 256.394108 
C 253.804821 256.394108 253.804821 256.394108 253.804821 256.394108 
C 253.804821 256.394108 253.804821 256.394108 253.804821 256.394108 
C 253.804821 256.394108 253.804821 256.394108 253.804821 256.394108 
C 253.804821 256.394108 253.804821 256.394108 253.804821 256.394108 
C 253.804821 256.394108 253.804821 256.394108 253.804821 256.394108 
C 253.804821 256.394108 253.804821 256.394108 253.804821 256.394108 
C 253.804821 256.394108 253.804821 256.394108 253.804821 256.394108 
C 253.804821 256.394108 253.804821 256.394108 253.804821 256.394108 
C 253.804821 256.394108 253.804821 256.394108 253.804821 256.394108 
C 253.804821 256.394108 253.804821 256.394108 253.804821 256.394108 
C 253.804821 256.394108 253.804821 256.394108 253.804821 256.394108 
C 253.804821 256.394108 253.804821 256.394108 253.804821 256.394108 
C 253.804821 256.394108 253.804821 256.394108 253.804821 256.394108 
C 253.804821 256.394108 253.804821 256.394108 253.804821 256.394108 
C 253.804821 256.394108 253.804821 256.394108 253.804821 256.394108 
C 253.804821 256.394108 253.804821 256.394108 253.804821 256.394108 
z
" style="fill: #ffffff"/>
   </g>
   <g id="matplotlib.axis_1">
    <g id="xtick_1">
     <g id="line2d_1">
      <path d="M 253.804821 256.394108 
L 475.564821 256.394108 
" clip-path="url(#paf10c216ad)" style="fill: none; stroke: #b0b0b0; stroke-width: 0.8; stroke-linecap: square"/>
     </g>
     <g id="text_1">
      <!-- apiculture (nombre de ruches) -->
      <g transform="translate(413.446852 259.153483) scale(0.1 -0.1)">
       <defs>
        <path id="DejaVuSans-61" d="M 2194 1759 
Q 1497 1759 1228 1600 
Q 959 1441 959 1056 
Q 959 750 1161 570 
Q 1363 391 1709 391 
Q 2188 391 2477 730 
Q 2766 1069 2766 1631 
L 2766 1759 
L 2194 1759 
z
M 3341 1997 
L 3341 0 
L 2766 0 
L 2766 531 
Q 2569 213 2275 61 
Q 1981 -91 1556 -91 
Q 1019 -91 701 211 
Q 384 513 384 1019 
Q 384 1609 779 1909 
Q 1175 2209 1959 2209 
L 2766 2209 
L 2766 2266 
Q 2766 2663 2505 2880 
Q 2244 3097 1772 3097 
Q 1472 3097 1187 3025 
Q 903 2953 641 2809 
L 641 3341 
Q 956 3463 1253 3523 
Q 1550 3584 1831 3584 
Q 2591 3584 2966 3190 
Q 3341 2797 3341 1997 
z
" transform="scale(0.015625)"/>
        <path id="DejaVuSans-70" d="M 1159 525 
L 1159 -1331 
L 581 -1331 
L 581 3500 
L 1159 3500 
L 1159 2969 
Q 1341 3281 1617 3432 
Q 1894 3584 2278 3584 
Q 2916 3584 3314 3078 
Q 3713 2572 3713 1747 
Q 3713 922 3314 415 
Q 2916 -91 2278 -91 
Q 1894 -91 1617 61 
Q 1341 213 1159 525 
z
M 3116 1747 
Q 3116 2381 2855 2742 
Q 2594 3103 2138 3103 
Q 1681 3103 1420 2742 
Q 1159 2381 1159 1747 
Q 1159 1113 1420 752 
Q 1681 391 2138 391 
Q 2594 391 2855 752 
Q 3116 1113 3116 1747 
z
" transform="scale(0.015625)"/>
        <path id="DejaVuSans-69" d="M 603 3500 
L 1178 3500 
L 1178 0 
L 603 0 
L 603 3500 
z
M 603 4863 
L 1178 4863 
L 1178 4134 
L 603 4134 
L 603 4863 
z
" transform="scale(0.015625)"/>
        <path id="DejaVuSans-63" d="M 3122 3366 
L 3122 2828 
Q 2878 2963 2633 3030 
Q 2388 3097 2138 3097 
Q 1578 3097 1268 2742 
Q 959 2388 959 1747 
Q 959 1106 1268 751 
Q 1578 397 2138 397 
Q 2388 397 2633 464 
Q 2878 531 3122 666 
L 3122 134 
Q 2881 22 2623 -34 
Q 2366 -91 2075 -91 
Q 1284 -91 818 406 
Q 353 903 353 1747 
Q 353 2603 823 3093 
Q 1294 3584 2113 3584 
Q 2378 3584 2631 3529 
Q 2884 3475 3122 3366 
z
" transform="scale(0.015625)"/>
        <path id="DejaVuSans-75" d="M 544 1381 
L 544 3500 
L 1119 3500 
L 1119 1403 
Q 1119 906 1312 657 
Q 1506 409 1894 409 
Q 2359 409 2629 706 
Q 2900 1003 2900 1516 
L 2900 3500 
L 3475 3500 
L 3475 0 
L 2900 0 
L 2900 538 
Q 2691 219 2414 64 
Q 2138 -91 1772 -91 
Q 1169 -91 856 284 
Q 544 659 544 1381 
z
M 1991 3584 
L 1991 3584 
z
" transform="scale(0.015625)"/>
        <path id="DejaVuSans-6c" d="M 603 4863 
L 1178 4863 
L 1178 0 
L 603 0 
L 603 4863 
z
" transform="scale(0.015625)"/>
        <path id="DejaVuSans-74" d="M 1172 4494 
L 1172 3500 
L 2356 3500 
L 2356 3053 
L 1172 3053 
L 1172 1153 
Q 1172 725 1289 603 
Q 1406 481 1766 481 
L 2356 481 
L 2356 0 
L 1766 0 
Q 1100 0 847 248 
Q 594 497 594 1153 
L 594 3053 
L 172 3053 
L 172 3500 
L 594 3500 
L 594 4494 
L 1172 4494 
z
" transform="scale(0.015625)"/>
        <path id="DejaVuSans-72" d="M 2631 2963 
Q 2534 3019 2420 3045 
Q 2306 3072 2169 3072 
Q 1681 3072 1420 2755 
Q 1159 2438 1159 1844 
L 1159 0 
L 581 0 
L 581 3500 
L 1159 3500 
L 1159 2956 
Q 1341 3275 1631 3429 
Q 1922 3584 2338 3584 
Q 2397 3584 2469 3576 
Q 2541 3569 2628 3553 
L 2631 2963 
z
" transform="scale(0.015625)"/>
        <path id="DejaVuSans-65" d="M 3597 1894 
L 3597 1613 
L 953 1613 
Q 991 1019 1311 708 
Q 1631 397 2203 397 
Q 2534 397 2845 478 
Q 3156 559 3463 722 
L 3463 178 
Q 3153 47 2828 -22 
Q 2503 -91 2169 -91 
Q 1331 -91 842 396 
Q 353 884 353 1716 
Q 353 2575 817 3079 
Q 1281 3584 2069 3584 
Q 2775 3584 3186 3129 
Q 3597 2675 3597 1894 
z
M 3022 2063 
Q 3016 2534 2758 2815 
Q 2500 3097 2075 3097 
Q 1594 3097 1305 2825 
Q 1016 2553 972 2059 
L 3022 2063 
z
" transform="scale(0.015625)"/>
        <path id="DejaVuSans-20" transform="scale(0.015625)"/>
        <path id="DejaVuSans-28" d="M 1984 4856 
Q 1566 4138 1362 3434 
Q 1159 2731 1159 2009 
Q 1159 1288 1364 580 
Q 1569 -128 1984 -844 
L 1484 -844 
Q 1016 -109 783 600 
Q 550 1309 550 2009 
Q 550 2706 781 3412 
Q 1013 4119 1484 4856 
L 1984 4856 
z
" transform="scale(0.015625)"/>
        <path id="DejaVuSans-6e" d="M 3513 2113 
L 3513 0 
L 2938 0 
L 2938 2094 
Q 2938 2591 2744 2837 
Q 2550 3084 2163 3084 
Q 1697 3084 1428 2787 
Q 1159 2491 1159 1978 
L 1159 0 
L 581 0 
L 581 3500 
L 1159 3500 
L 1159 2956 
Q 1366 3272 1645 3428 
Q 1925 3584 2291 3584 
Q 2894 3584 3203 3211 
Q 3513 2838 3513 2113 
z
" transform="scale(0.015625)"/>
        <path id="DejaVuSans-6f" d="M 1959 3097 
Q 1497 3097 1228 2736 
Q 959 2375 959 1747 
Q 959 1119 1226 758 
Q 1494 397 1959 397 
Q 2419 397 2687 759 
Q 2956 1122 2956 1747 
Q 2956 2369 2687 2733 
Q 2419 3097 1959 3097 
z
M 1959 3584 
Q 2709 3584 3137 3096 
Q 3566 2609 3566 1747 
Q 3566 888 3137 398 
Q 2709 -91 1959 -91 
Q 1206 -91 779 398 
Q 353 888 353 1747 
Q 353 2609 779 3096 
Q 1206 3584 1959 3584 
z
" transform="scale(0.015625)"/>
        <path id="DejaVuSans-6d" d="M 3328 2828 
Q 3544 3216 3844 3400 
Q 4144 3584 4550 3584 
Q 5097 3584 5394 3201 
Q 5691 2819 5691 2113 
L 5691 0 
L 5113 0 
L 5113 2094 
Q 5113 2597 4934 2840 
Q 4756 3084 4391 3084 
Q 3944 3084 3684 2787 
Q 3425 2491 3425 1978 
L 3425 0 
L 2847 0 
L 2847 2094 
Q 2847 2600 2669 2842 
Q 2491 3084 2119 3084 
Q 1678 3084 1418 2786 
Q 1159 2488 1159 1978 
L 1159 0 
L 581 0 
L 581 3500 
L 1159 3500 
L 1159 2956 
Q 1356 3278 1631 3431 
Q 1906 3584 2284 3584 
Q 2666 3584 2933 3390 
Q 3200 3197 3328 2828 
z
" transform="scale(0.015625)"/>
        <path id="DejaVuSans-62" d="M 3116 1747 
Q 3116 2381 2855 2742 
Q 2594 3103 2138 3103 
Q 1681 3103 1420 2742 
Q 1159 2381 1159 1747 
Q 1159 1113 1420 752 
Q 1681 391 2138 391 
Q 2594 391 2855 752 
Q 3116 1113 3116 1747 
z
M 1159 2969 
Q 1341 3281 1617 3432 
Q 1894 3584 2278 3584 
Q 2916 3584 3314 3078 
Q 3713 2572 3713 1747 
Q 3713 922 3314 415 
Q 2916 -91 2278 -91 
Q 1894 -91 1617 61 
Q 1341 213 1159 525 
L 1159 0 
L 581 0 
L 581 4863 
L 1159 4863 
L 1159 2969 
z
" transform="scale(0.015625)"/>
        <path id="DejaVuSans-64" d="M 2906 2969 
L 2906 4863 
L 3481 4863 
L 3481 0 
L 2906 0 
L 2906 525 
Q 2725 213 2448 61 
Q 2172 -91 1784 -91 
Q 1150 -91 751 415 
Q 353 922 353 1747 
Q 353 2572 751 3078 
Q 1150 3584 1784 3584 
Q 2172 3584 2448 3432 
Q 2725 3281 2906 2969 
z
M 947 1747 
Q 947 1113 1208 752 
Q 1469 391 1925 391 
Q 2381 391 2643 752 
Q 2906 1113 2906 1747 
Q 2906 2381 2643 2742 
Q 2381 3103 1925 3103 
Q 1469 3103 1208 2742 
Q 947 2381 947 1747 
z
" transform="scale(0.015625)"/>
        <path id="DejaVuSans-68" d="M 3513 2113 
L 3513 0 
L 2938 0 
L 2938 2094 
Q 2938 2591 2744 2837 
Q 2550 3084 2163 3084 
Q 1697 3084 1428 2787 
Q 1159 2491 1159 1978 
L 1159 0 
L 581 0 
L 581 4863 
L 1159 4863 
L 1159 2956 
Q 1366 3272 1645 3428 
Q 1925 3584 2291 3584 
Q 2894 3584 3203 3211 
Q 3513 2838 3513 2113 
z
" transform="scale(0.015625)"/>
        <path id="DejaVuSans-73" d="M 2834 3397 
L 2834 2853 
Q 2591 2978 2328 3040 
Q 2066 3103 1784 3103 
Q 1356 3103 1142 2972 
Q 928 2841 928 2578 
Q 928 2378 1081 2264 
Q 1234 2150 1697 2047 
L 1894 2003 
Q 2506 1872 2764 1633 
Q 3022 1394 3022 966 
Q 3022 478 2636 193 
Q 2250 -91 1575 -91 
Q 1294 -91 989 -36 
Q 684 19 347 128 
L 347 722 
Q 666 556 975 473 
Q 1284 391 1588 391 
Q 1994 391 2212 530 
Q 2431 669 2431 922 
Q 2431 1156 2273 1281 
Q 2116 1406 1581 1522 
L 1381 1569 
Q 847 1681 609 1914 
Q 372 2147 372 2553 
Q 372 3047 722 3315 
Q 1072 3584 1716 3584 
Q 2034 3584 2315 3537 
Q 2597 3491 2834 3397 
z
" transform="scale(0.015625)"/>
        <path id="DejaVuSans-29" d="M 513 4856 
L 1013 4856 
Q 1481 4119 1714 3412 
Q 1947 2706 1947 2009 
Q 1947 1309 1714 600 
Q 1481 -109 1013 -844 
L 513 -844 
Q 928 -128 1133 580 
Q 1338 1288 1338 2009 
Q 1338 2731 1133 3434 
Q 928 4138 513 4856 
z
" transform="scale(0.015625)"/>
       </defs>
       <use xlink:href="#DejaVuSans-61"/>
       <use xlink:href="#DejaVuSans-70" x="61.279297"/>
       <use xlink:href="#DejaVuSans-69" x="124.755859"/>
       <use xlink:href="#DejaVuSans-63" x="152.539062"/>
       <use xlink:href="#DejaVuSans-75" x="207.519531"/>
       <use xlink:href="#DejaVuSans-6c" x="270.898438"/>
       <use xlink:href="#DejaVuSans-74" x="298.681641"/>
       <use xlink:href="#DejaVuSans-75" x="337.890625"/>
       <use xlink:href="#DejaVuSans-72" x="401.269531"/>
       <use xlink:href="#DejaVuSans-65" x="440.132812"/>
       <use xlink:href="#DejaVuSans-20" x="501.65625"/>
       <use xlink:href="#DejaVuSans-28" x="533.443359"/>
       <use xlink:href="#DejaVuSans-6e" x="572.457031"/>
       <use xlink:href="#DejaVuSans-6f" x="635.835938"/>
       <use xlink:href="#DejaVuSans-6d" x="697.017578"/>
       <use xlink:href="#DejaVuSans-62" x="794.429688"/>
       <use xlink:href="#DejaVuSans-72" x="857.90625"/>
       <use xlink:href="#DejaVuSans-65" x="896.769531"/>
       <use xlink:href="#DejaVuSans-20" x="958.292969"/>
       <use xlink:href="#DejaVuSans-64" x="990.080078"/>
       <use xlink:href="#DejaVuSans-65" x="1053.556641"/>
       <use xlink:href="#DejaVuSans-20" x="1115.080078"/>
       <use xlink:href="#DejaVuSans-72" x="1146.867188"/>
       <use xlink:href="#DejaVuSans-75" x="1187.980469"/>
       <use xlink:href="#DejaVuSans-63" x="1251.359375"/>
       <use xlink:href="#DejaVuSans-68" x="1306.339844"/>
       <use xlink:href="#DejaVuSans-65" x="1369.71875"/>
       <use xlink:href="#DejaVuSans-73" x="1431.242188"/>
       <use xlink:href="#DejaVuSans-29" x="1483.341797"/>
      </g>
     </g>
    </g>
    <g id="xtick_2">
     <g id="line2d_2">
      <path d="M 253.804821 256.394108 
L 390.33391 81.644843 
" clip-path="url(#paf10c216ad)" style="fill: none; stroke: #b0b0b0; stroke-width: 0.8; stroke-linecap: square"/>
     </g>
     <g id="text_2">
      <!-- total équins -->
      <g transform="translate(369.349264 73.572068) scale(0.1 -0.1)">
       <defs>
        <path id="DejaVuSans-e9" d="M 3597 1894 
L 3597 1613 
L 953 1613 
Q 991 1019 1311 708 
Q 1631 397 2203 397 
Q 2534 397 2845 478 
Q 3156 559 3463 722 
L 3463 178 
Q 3153 47 2828 -22 
Q 2503 -91 2169 -91 
Q 1331 -91 842 396 
Q 353 884 353 1716 
Q 353 2575 817 3079 
Q 1281 3584 2069 3584 
Q 2775 3584 3186 3129 
Q 3597 2675 3597 1894 
z
M 3022 2063 
Q 3016 2534 2758 2815 
Q 2500 3097 2075 3097 
Q 1594 3097 1305 2825 
Q 1016 2553 972 2059 
L 3022 2063 
z
M 2466 5119 
L 3088 5119 
L 2070 3944 
L 1591 3944 
L 2466 5119 
z
" transform="scale(0.015625)"/>
        <path id="DejaVuSans-71" d="M 947 1747 
Q 947 1113 1208 752 
Q 1469 391 1925 391 
Q 2381 391 2643 752 
Q 2906 1113 2906 1747 
Q 2906 2381 2643 2742 
Q 2381 3103 1925 3103 
Q 1469 3103 1208 2742 
Q 947 2381 947 1747 
z
M 2906 525 
Q 2725 213 2448 61 
Q 2172 -91 1784 -91 
Q 1150 -91 751 415 
Q 353 922 353 1747 
Q 353 2572 751 3078 
Q 1150 3584 1784 3584 
Q 2172 3584 2448 3432 
Q 2725 3281 2906 2969 
L 2906 3500 
L 3481 3500 
L 3481 -1331 
L 2906 -1331 
L 2906 525 
z
" transform="scale(0.015625)"/>
       </defs>
       <use xlink:href="#DejaVuSans-74"/>
       <use xlink:href="#DejaVuSans-6f" x="39.208984"/>
       <use xlink:href="#DejaVuSans-74" x="100.390625"/>
       <use xlink:href="#DejaVuSans-61" x="139.599609"/>
       <use xlink:href="#DejaVuSans-6c" x="200.878906"/>
       <use xlink:href="#DejaVuSans-20" x="228.662109"/>
       <use xlink:href="#DejaVuSans-e9" x="260.449219"/>
       <use xlink:href="#DejaVuSans-71" x="321.972656"/>
       <use xlink:href="#DejaVuSans-75" x="385.449219"/>
       <use xlink:href="#DejaVuSans-69" x="448.828125"/>
       <use xlink:href="#DejaVuSans-6e" x="476.611328"/>
       <use xlink:href="#DejaVuSans-73" x="539.990234"/>
      </g>
     </g>
    </g>
    <g id="xtick_3">
     <g id="line2d_3">
      <path d="M 253.804821 256.394108 
L 200.156221 41.221328 
" clip-path="url(#paf10c216ad)" style="fill: none; stroke: #b0b0b0; stroke-width: 0.8; stroke-linecap: square"/>
     </g>
     <g id="text_3">
      <!-- total bovins -->
      <g transform="translate(167.391971 30.396563) scale(0.1 -0.1)">
       <defs>
        <path id="DejaVuSans-76" d="M 191 3500 
L 800 3500 
L 1894 563 
L 2988 3500 
L 3597 3500 
L 2284 0 
L 1503 0 
L 191 3500 
z
" transform="scale(0.015625)"/>
       </defs>
       <use xlink:href="#DejaVuSans-74"/>
       <use xlink:href="#DejaVuSans-6f" x="39.208984"/>
       <use xlink:href="#DejaVuSans-74" x="100.390625"/>
       <use xlink:href="#DejaVuSans-61" x="139.599609"/>
       <use xlink:href="#DejaVuSans-6c" x="200.878906"/>
       <use xlink:href="#DejaVuSans-20" x="228.662109"/>
       <use xlink:href="#DejaVuSans-62" x="260.449219"/>
       <use xlink:href="#DejaVuSans-6f" x="323.925781"/>
       <use xlink:href="#DejaVuSans-76" x="385.107422"/>
       <use xlink:href="#DejaVuSans-69" x="444.287109"/>
       <use xlink:href="#DejaVuSans-6e" x="472.070312"/>
       <use xlink:href="#DejaVuSans-73" x="535.449219"/>
      </g>
     </g>
    </g>
    <g id="xtick_4">
     <g id="line2d_4">
      <path d="M 253.804821 256.394108 
L 51.21698 166.19619 
" clip-path="url(#paf10c216ad)" style="fill: none; stroke: #b0b0b0; stroke-width: 0.8; stroke-linecap: square"/>
     </g>
     <g id="text_4">
      <!-- total caprins -->
      <g transform="translate(7.2 163.261252) scale(0.1 -0.1)">
       <use xlink:href="#DejaVuSans-74"/>
       <use xlink:href="#DejaVuSans-6f" x="39.208984"/>
       <use xlink:href="#DejaVuSans-74" x="100.390625"/>
       <use xlink:href="#DejaVuSans-61" x="139.599609"/>
       <use xlink:href="#DejaVuSans-6c" x="200.878906"/>
       <use xlink:href="#DejaVuSans-20" x="228.662109"/>
       <use xlink:href="#DejaVuSans-63" x="260.449219"/>
       <use xlink:href="#DejaVuSans-61" x="315.429688"/>
       <use xlink:href="#DejaVuSans-70" x="376.708984"/>
       <use xlink:href="#DejaVuSans-72" x="440.185547"/>
       <use xlink:href="#DejaVuSans-69" x="481.298828"/>
       <use xlink:href="#DejaVuSans-6e" x="509.082031"/>
       <use xlink:href="#DejaVuSans-73" x="572.460938"/>
      </g>
     </g>
    </g>
    <g id="xtick_5">
     <g id="line2d_5">
      <path d="M 253.804821 256.394108 
L 58.002363 360.504122 
" clip-path="url(#paf10c216ad)" style="fill: none; stroke: #b0b0b0; stroke-width: 0.8; stroke-linecap: square"/>
     </g>
     <g id="text_5">
      <!-- total ovins -->
      <g transform="translate(19.437971 369.836099) scale(0.1 -0.1)">
       <use xlink:href="#DejaVuSans-74"/>
       <use xlink:href="#DejaVuSans-6f" x="39.208984"/>
       <use xlink:href="#DejaVuSans-74" x="100.390625"/>
       <use xlink:href="#DejaVuSans-61" x="139.599609"/>
       <use xlink:href="#DejaVuSans-6c" x="200.878906"/>
       <use xlink:href="#DejaVuSans-20" x="228.662109"/>
       <use xlink:href="#DejaVuSans-6f" x="260.449219"/>
       <use xlink:href="#DejaVuSans-76" x="321.630859"/>
       <use xlink:href="#DejaVuSans-69" x="380.810547"/>
       <use xlink:href="#DejaVuSans-6e" x="408.59375"/>
       <use xlink:href="#DejaVuSans-73" x="471.972656"/>
      </g>
     </g>
    </g>
    <g id="xtick_6">
     <g id="line2d_6">
      <path d="M 253.804821 256.394108 
L 215.296601 474.785075 
" clip-path="url(#paf10c216ad)" style="fill: none; stroke: #b0b0b0; stroke-width: 0.8; stroke-linecap: square"/>
     </g>
     <g id="text_6">
      <!-- total porcins -->
      <g transform="translate(181.75537 491.331759) scale(0.1 -0.1)">
       <use xlink:href="#DejaVuSans-74"/>
       <use xlink:href="#DejaVuSans-6f" x="39.208984"/>
       <use xlink:href="#DejaVuSans-74" x="100.390625"/>
       <use xlink:href="#DejaVuSans-61" x="139.599609"/>
       <use xlink:href="#DejaVuSans-6c" x="200.878906"/>
       <use xlink:href="#DejaVuSans-20" x="228.662109"/>
       <use xlink:href="#DejaVuSans-70" x="260.449219"/>
       <use xlink:href="#DejaVuSans-6f" x="323.925781"/>
       <use xlink:href="#DejaVuSans-72" x="385.107422"/>
       <use xlink:href="#DejaVuSans-63" x="423.970703"/>
       <use xlink:href="#DejaVuSans-69" x="478.951172"/>
       <use xlink:href="#DejaVuSans-6e" x="506.734375"/>
       <use xlink:href="#DejaVuSans-73" x="570.113281"/>
      </g>
     </g>
    </g>
    <g id="xtick_7">
     <g id="line2d_7">
      <path d="M 253.804821 256.394108 
L 402.191224 421.193904 
" clip-path="url(#paf10c216ad)" style="fill: none; stroke: #b0b0b0; stroke-width: 0.8; stroke-linecap: square"/>
     </g>
     <g id="text_7">
      <!-- total volailles -->
      <g transform="translate(378.216865 434.357307) scale(0.1 -0.1)">
       <use xlink:href="#DejaVuSans-74"/>
       <use xlink:href="#DejaVuSans-6f" x="39.208984"/>
       <use xlink:href="#DejaVuSans-74" x="100.390625"/>
       <use xlink:href="#DejaVuSans-61" x="139.599609"/>
       <use xlink:href="#DejaVuSans-6c" x="200.878906"/>
       <use xlink:href="#DejaVuSans-20" x="228.662109"/>
       <use xlink:href="#DejaVuSans-76" x="260.449219"/>
       <use xlink:href="#DejaVuSans-6f" x="319.628906"/>
       <use xlink:href="#DejaVuSans-6c" x="380.810547"/>
       <use xlink:href="#DejaVuSans-61" x="408.59375"/>
       <use xlink:href="#DejaVuSans-69" x="469.873047"/>
       <use xlink:href="#DejaVuSans-6c" x="497.65625"/>
       <use xlink:href="#DejaVuSans-6c" x="525.439453"/>
       <use xlink:href="#DejaVuSans-65" x="553.222656"/>
       <use xlink:href="#DejaVuSans-73" x="614.746094"/>
      </g>
     </g>
    </g>
   </g>
   <g id="matplotlib.axis_2">
    <g id="ytick_1">
     <g id="line2d_8">
      <path d="M 279.000847 256.394108 
C 279.000847 253.085396 278.349103 249.808857 277.082914 246.752006 
C 275.816725 243.695155 273.960714 240.917439 271.621102 238.577827 
C 269.281489 236.238214 266.503774 234.382204 263.446923 233.116015 
C 260.390071 231.849826 257.113533 231.198082 253.804821 231.198082 
C 250.496109 231.198082 247.21957 231.849826 244.162719 233.116015 
C 241.105868 234.382204 238.328152 236.238214 235.98854 238.577827 
C 233.648927 240.917439 231.792917 243.695155 230.526728 246.752006 
C 229.260539 249.808857 228.608795 253.085396 228.608795 256.394108 
C 228.608795 259.70282 229.260539 262.979359 230.526728 266.03621 
C 231.792917 269.093061 233.648927 271.870776 235.98854 274.210389 
C 238.328152 276.550002 241.105868 278.406012 244.162719 279.672201 
C 247.21957 280.93839 250.496109 281.590134 253.804821 281.590134 
C 257.113533 281.590134 260.390071 280.93839 263.446923 279.672201 
C 266.503774 278.406012 269.281489 276.550002 271.621102 274.210389 
C 273.960714 271.870776 275.816725 269.093061 277.082914 266.03621 
C 278.349103 262.979359 279.000847 259.70282 279.000847 256.394108 
" clip-path="url(#paf10c216ad)" style="fill: none; stroke: #b0b0b0; stroke-width: 0.8; stroke-linecap: square"/>
     </g>
     <g id="text_8">
      <!-- 0.025 -->
      <g transform="translate(277.082914 244.672319) scale(0.1 -0.1)">
       <defs>
        <path id="DejaVuSans-30" d="M 2034 4250 
Q 1547 4250 1301 3770 
Q 1056 3291 1056 2328 
Q 1056 1369 1301 889 
Q 1547 409 2034 409 
Q 2525 409 2770 889 
Q 3016 1369 3016 2328 
Q 3016 3291 2770 3770 
Q 2525 4250 2034 4250 
z
M 2034 4750 
Q 2819 4750 3233 4129 
Q 3647 3509 3647 2328 
Q 3647 1150 3233 529 
Q 2819 -91 2034 -91 
Q 1250 -91 836 529 
Q 422 1150 422 2328 
Q 422 3509 836 4129 
Q 1250 4750 2034 4750 
z
" transform="scale(0.015625)"/>
        <path id="DejaVuSans-2e" d="M 684 794 
L 1344 794 
L 1344 0 
L 684 0 
L 684 794 
z
" transform="scale(0.015625)"/>
        <path id="DejaVuSans-32" d="M 1228 531 
L 3431 531 
L 3431 0 
L 469 0 
L 469 531 
Q 828 903 1448 1529 
Q 2069 2156 2228 2338 
Q 2531 2678 2651 2914 
Q 2772 3150 2772 3378 
Q 2772 3750 2511 3984 
Q 2250 4219 1831 4219 
Q 1534 4219 1204 4116 
Q 875 4013 500 3803 
L 500 4441 
Q 881 4594 1212 4672 
Q 1544 4750 1819 4750 
Q 2544 4750 2975 4387 
Q 3406 4025 3406 3419 
Q 3406 3131 3298 2873 
Q 3191 2616 2906 2266 
Q 2828 2175 2409 1742 
Q 1991 1309 1228 531 
z
" transform="scale(0.015625)"/>
        <path id="DejaVuSans-35" d="M 691 4666 
L 3169 4666 
L 3169 4134 
L 1269 4134 
L 1269 2991 
Q 1406 3038 1543 3061 
Q 1681 3084 1819 3084 
Q 2600 3084 3056 2656 
Q 3513 2228 3513 1497 
Q 3513 744 3044 326 
Q 2575 -91 1722 -91 
Q 1428 -91 1123 -41 
Q 819 9 494 109 
L 494 744 
Q 775 591 1075 516 
Q 1375 441 1709 441 
Q 2250 441 2565 725 
Q 2881 1009 2881 1497 
Q 2881 1984 2565 2268 
Q 2250 2553 1709 2553 
Q 1456 2553 1204 2497 
Q 953 2441 691 2322 
L 691 4666 
z
" transform="scale(0.015625)"/>
       </defs>
       <use xlink:href="#DejaVuSans-30"/>
       <use xlink:href="#DejaVuSans-2e" x="63.623047"/>
       <use xlink:href="#DejaVuSans-30" x="95.410156"/>
       <use xlink:href="#DejaVuSans-32" x="159.033203"/>
       <use xlink:href="#DejaVuSans-35" x="222.65625"/>
      </g>
     </g>
    </g>
    <g id="ytick_2">
     <g id="line2d_9">
      <path d="M 304.196873 256.394108 
C 304.196873 249.776684 302.893385 243.223607 300.361007 237.109904 
C 297.828628 230.996202 294.116608 225.440771 289.437383 220.761546 
C 284.758158 216.082321 279.202727 212.3703 273.089024 209.837922 
C 266.975322 207.305544 260.422245 206.002055 253.804821 206.002055 
C 247.187397 206.002055 240.63432 207.305544 234.520617 209.837922 
C 228.406915 212.3703 222.851484 216.082321 218.172259 220.761546 
C 213.493034 225.440771 209.781013 230.996202 207.248635 237.109904 
C 204.716257 243.223607 203.412768 249.776684 203.412768 256.394108 
C 203.412768 263.011532 204.716257 269.564609 207.248635 275.678312 
C 209.781013 281.792014 213.493034 287.347445 218.172259 292.02667 
C 222.851484 296.705895 228.406915 300.417915 234.520617 302.950294 
C 240.63432 305.482672 247.187397 306.78616 253.804821 306.78616 
C 260.422245 306.78616 266.975322 305.482672 273.089024 302.950294 
C 279.202727 300.417915 284.758158 296.705895 289.437383 292.02667 
C 294.116608 287.347445 297.828628 281.792014 300.361007 275.678312 
C 302.893385 269.564609 304.196873 263.011532 304.196873 256.394108 
" clip-path="url(#paf10c216ad)" style="fill: none; stroke: #b0b0b0; stroke-width: 0.8; stroke-linecap: square"/>
     </g>
     <g id="text_9">
      <!-- 0.050 -->
      <g transform="translate(300.361007 235.030217) scale(0.1 -0.1)">
       <use xlink:href="#DejaVuSans-30"/>
       <use xlink:href="#DejaVuSans-2e" x="63.623047"/>
       <use xlink:href="#DejaVuSans-30" x="95.410156"/>
       <use xlink:href="#DejaVuSans-35" x="159.033203"/>
       <use xlink:href="#DejaVuSans-30" x="222.65625"/>
      </g>
     </g>
    </g>
    <g id="ytick_3">
     <g id="line2d_10">
      <path d="M 329.3929 256.394108 
C 329.3929 246.467972 327.437667 236.638356 323.6391 227.467803 
C 319.840532 218.297249 314.272502 209.964103 307.253664 202.945265 
C 300.234826 195.926427 291.90168 190.358397 282.731126 186.559829 
C 273.560573 182.761261 263.730956 180.806029 253.804821 180.806029 
C 243.878685 180.806029 234.049069 182.761261 224.878515 186.559829 
C 215.707962 190.358397 207.374816 195.926427 200.355978 202.945265 
C 193.33714 209.964103 187.76911 218.297249 183.970542 227.467803 
C 180.171974 236.638356 178.216742 246.467972 178.216742 256.394108 
C 178.216742 266.320243 180.171974 276.14986 183.970542 285.320413 
C 187.76911 294.490967 193.33714 302.824113 200.355978 309.842951 
C 207.374816 316.861789 215.707962 322.429819 224.878515 326.228387 
C 234.049069 330.026954 243.878685 331.982187 253.804821 331.982187 
C 263.730956 331.982187 273.560573 330.026954 282.731126 326.228387 
C 291.90168 322.429819 300.234826 316.861789 307.253664 309.842951 
C 314.272502 302.824113 319.840532 294.490967 323.6391 285.320413 
C 327.437667 276.14986 329.3929 266.320243 329.3929 256.394108 
" clip-path="url(#paf10c216ad)" style="fill: none; stroke: #b0b0b0; stroke-width: 0.8; stroke-linecap: square"/>
     </g>
     <g id="text_10">
      <!-- 0.075 -->
      <g transform="translate(323.6391 225.388115) scale(0.1 -0.1)">
       <defs>
        <path id="DejaVuSans-37" d="M 525 4666 
L 3525 4666 
L 3525 4397 
L 1831 0 
L 1172 0 
L 2766 4134 
L 525 4134 
L 525 4666 
z
" transform="scale(0.015625)"/>
       </defs>
       <use xlink:href="#DejaVuSans-30"/>
       <use xlink:href="#DejaVuSans-2e" x="63.623047"/>
       <use xlink:href="#DejaVuSans-30" x="95.410156"/>
       <use xlink:href="#DejaVuSans-37" x="159.033203"/>
       <use xlink:href="#DejaVuSans-35" x="222.65625"/>
      </g>
     </g>
    </g>
    <g id="ytick_4">
     <g id="line2d_11">
      <path d="M 354.588926 256.394108 
C 354.588926 243.159261 351.98195 230.053105 346.917193 217.825701 
C 341.852436 205.598296 334.428395 194.487434 325.069945 185.128984 
C 315.711495 175.770533 304.600633 168.346493 292.373228 163.281736 
C 280.145823 158.216979 267.039668 155.610003 253.804821 155.610003 
C 240.569973 155.610003 227.463818 158.216979 215.236414 163.281736 
C 203.009009 168.346493 191.898147 175.770533 182.539697 185.128984 
C 173.181246 194.487434 165.757206 205.598296 160.692449 217.825701 
C 155.627692 230.053105 153.020716 243.159261 153.020716 256.394108 
C 153.020716 269.628955 155.627692 282.735111 160.692449 294.962515 
C 165.757206 307.18992 173.181246 318.300782 182.539697 327.659232 
C 191.898147 337.017682 203.009009 344.441723 215.236414 349.50648 
C 227.463818 354.571237 240.569973 357.178213 253.804821 357.178213 
C 267.039668 357.178213 280.145823 354.571237 292.373228 349.50648 
C 304.600633 344.441723 315.711495 337.017682 325.069945 327.659232 
C 334.428395 318.300782 341.852436 307.18992 346.917193 294.962515 
C 351.98195 282.735111 354.588926 269.628955 354.588926 256.394108 
" clip-path="url(#paf10c216ad)" style="fill: none; stroke: #b0b0b0; stroke-width: 0.8; stroke-linecap: square"/>
     </g>
     <g id="text_11">
      <!-- 0.100 -->
      <g transform="translate(346.917193 215.746013) scale(0.1 -0.1)">
       <defs>
        <path id="DejaVuSans-31" d="M 794 531 
L 1825 531 
L 1825 4091 
L 703 3866 
L 703 4441 
L 1819 4666 
L 2450 4666 
L 2450 531 
L 3481 531 
L 3481 0 
L 794 0 
L 794 531 
z
" transform="scale(0.015625)"/>
       </defs>
       <use xlink:href="#DejaVuSans-30"/>
       <use xlink:href="#DejaVuSans-2e" x="63.623047"/>
       <use xlink:href="#DejaVuSans-31" x="95.410156"/>
       <use xlink:href="#DejaVuSans-30" x="159.033203"/>
       <use xlink:href="#DejaVuSans-30" x="222.65625"/>
      </g>
     </g>
    </g>
    <g id="ytick_5">
     <g id="line2d_12">
      <path d="M 379.784952 256.394108 
C 379.784952 239.850549 376.526232 223.467855 370.195286 208.183599 
C 363.86434 192.899343 354.584289 179.010766 342.886226 167.312703 
C 331.188163 155.61464 317.299586 146.334589 302.01533 140.003643 
C 286.731074 133.672697 270.34838 130.413977 253.804821 130.413977 
C 237.261262 130.413977 220.878568 133.672697 205.594312 140.003643 
C 190.310056 146.334589 176.421479 155.61464 164.723416 167.312703 
C 153.025353 179.010766 143.745302 192.899343 137.414356 208.183599 
C 131.08341 223.467855 127.82469 239.850549 127.82469 256.394108 
C 127.82469 272.937667 131.08341 289.320361 137.414356 304.604617 
C 143.745302 319.888873 153.025353 333.77745 164.723416 345.475513 
C 176.421479 357.173576 190.310056 366.453627 205.594312 372.784573 
C 220.878568 379.115519 237.261262 382.374239 253.804821 382.374239 
C 270.34838 382.374239 286.731074 379.115519 302.01533 372.784573 
C 317.299586 366.453627 331.188163 357.173576 342.886226 345.475513 
C 354.584289 333.77745 363.86434 319.888873 370.195286 304.604617 
C 376.526232 289.320361 379.784952 272.937667 379.784952 256.394108 
" clip-path="url(#paf10c216ad)" style="fill: none; stroke: #b0b0b0; stroke-width: 0.8; stroke-linecap: square"/>
     </g>
     <g id="text_12">
      <!-- 0.125 -->
      <g transform="translate(370.195286 206.103911) scale(0.1 -0.1)">
       <use xlink:href="#DejaVuSans-30"/>
       <use xlink:href="#DejaVuSans-2e" x="63.623047"/>
       <use xlink:href="#DejaVuSans-31" x="95.410156"/>
       <use xlink:href="#DejaVuSans-32" x="159.033203"/>
       <use xlink:href="#DejaVuSans-35" x="222.65625"/>
      </g>
     </g>
    </g>
    <g id="ytick_6">
     <g id="line2d_13">
      <path d="M 404.980978 256.394108 
C 404.980978 236.541837 401.070514 216.882604 393.473379 198.541497 
C 385.876243 180.20039 374.740183 163.534097 360.702507 149.496422 
C 346.664831 135.458746 329.998539 124.322685 311.657432 116.72555 
C 293.316325 109.128415 273.657092 105.21795 253.804821 105.21795 
C 233.95255 105.21795 214.293317 109.128415 195.95221 116.72555 
C 177.611103 124.322685 160.94481 135.458746 146.907135 149.496422 
C 132.869459 163.534097 121.733398 180.20039 114.136263 198.541497 
C 106.539128 216.882604 102.628663 236.541837 102.628663 256.394108 
C 102.628663 276.246379 106.539128 295.905612 114.136263 314.246719 
C 121.733398 332.587826 132.869459 349.254119 146.907135 363.291794 
C 160.94481 377.32947 177.611103 388.46553 195.95221 396.062666 
C 214.293317 403.659801 233.95255 407.570265 253.804821 407.570265 
C 273.657092 407.570265 293.316325 403.659801 311.657432 396.062666 
C 329.998539 388.46553 346.664831 377.32947 360.702507 363.291794 
C 374.740183 349.254119 385.876243 332.587826 393.473379 314.246719 
C 401.070514 295.905612 404.980978 276.246379 404.980978 256.394108 
" clip-path="url(#paf10c216ad)" style="fill: none; stroke: #b0b0b0; stroke-width: 0.8; stroke-linecap: square"/>
     </g>
     <g id="text_13">
      <!-- 0.150 -->
      <g transform="translate(393.473379 196.46181) scale(0.1 -0.1)">
       <use xlink:href="#DejaVuSans-30"/>
       <use xlink:href="#DejaVuSans-2e" x="63.623047"/>
       <use xlink:href="#DejaVuSans-31" x="95.410156"/>
       <use xlink:href="#DejaVuSans-35" x="159.033203"/>
       <use xlink:href="#DejaVuSans-30" x="222.65625"/>
      </g>
     </g>
    </g>
    <g id="ytick_7">
     <g id="line2d_14">
      <path d="M 430.177005 256.394108 
C 430.177005 233.233125 425.614796 210.297353 416.751472 188.899395 
C 407.888147 167.501437 394.896076 148.057429 378.518788 131.680141 
C 362.1415 115.302853 342.697492 102.310782 321.299534 93.447457 
C 299.901575 84.584133 276.965804 80.021924 253.804821 80.021924 
C 230.643838 80.021924 207.708066 84.584133 186.310108 93.447457 
C 164.91215 102.310782 145.468142 115.302853 129.090854 131.680141 
C 112.713566 148.057429 99.721495 167.501437 90.85817 188.899395 
C 81.994846 210.297353 77.432637 233.233125 77.432637 256.394108 
C 77.432637 279.555091 81.994846 302.490862 90.85817 323.888821 
C 99.721495 345.286779 112.713566 364.730787 129.090854 381.108075 
C 145.468142 397.485363 164.91215 410.477434 186.310108 419.340759 
C 207.708066 428.204083 230.643838 432.766292 253.804821 432.766292 
C 276.965804 432.766292 299.901575 428.204083 321.299534 419.340759 
C 342.697492 410.477434 362.1415 397.485363 378.518788 381.108075 
C 394.896076 364.730787 407.888147 345.286779 416.751472 323.888821 
C 425.614796 302.490862 430.177005 279.555091 430.177005 256.394108 
" clip-path="url(#paf10c216ad)" style="fill: none; stroke: #b0b0b0; stroke-width: 0.8; stroke-linecap: square"/>
     </g>
     <g id="text_14">
      <!-- 0.175 -->
      <g transform="translate(416.751472 186.819708) scale(0.1 -0.1)">
       <use xlink:href="#DejaVuSans-30"/>
       <use xlink:href="#DejaVuSans-2e" x="63.623047"/>
       <use xlink:href="#DejaVuSans-31" x="95.410156"/>
       <use xlink:href="#DejaVuSans-37" x="159.033203"/>
       <use xlink:href="#DejaVuSans-35" x="222.65625"/>
      </g>
     </g>
    </g>
    <g id="ytick_8">
     <g id="line2d_15">
      <path d="M 455.373031 256.394108 
C 455.373031 229.924413 450.159078 203.712103 440.029564 179.257293 
C 429.900051 154.802484 415.05197 132.58076 396.335069 113.86386 
C 377.618168 95.146959 355.396445 80.298878 330.941635 70.169364 
C 306.486826 60.039851 280.274516 54.825898 253.804821 54.825898 
C 227.335126 54.825898 201.122816 60.039851 176.668006 70.169364 
C 152.213197 80.298878 129.991473 95.146959 111.274573 113.86386 
C 92.557672 132.58076 77.709591 154.802484 67.580077 179.257293 
C 57.450564 203.712103 52.236611 229.924413 52.236611 256.394108 
C 52.236611 282.863803 57.450564 309.076113 67.580077 333.530922 
C 77.709591 357.985732 92.557672 380.207455 111.274573 398.924356 
C 129.991473 417.641257 152.213197 432.489338 176.668006 442.618852 
C 201.122816 452.748365 227.335126 457.962318 253.804821 457.962318 
C 280.274516 457.962318 306.486826 452.748365 330.941635 442.618852 
C 355.396445 432.489338 377.618168 417.641257 396.335069 398.924356 
C 415.05197 380.207455 429.900051 357.985732 440.029564 333.530922 
C 450.159078 309.076113 455.373031 282.863803 455.373031 256.394108 
" clip-path="url(#paf10c216ad)" style="fill: none; stroke: #b0b0b0; stroke-width: 0.8; stroke-linecap: square"/>
     </g>
     <g id="text_15">
      <!-- 0.200 -->
      <g transform="translate(440.029564 177.177606) scale(0.1 -0.1)">
       <use xlink:href="#DejaVuSans-30"/>
       <use xlink:href="#DejaVuSans-2e" x="63.623047"/>
       <use xlink:href="#DejaVuSans-32" x="95.410156"/>
       <use xlink:href="#DejaVuSans-30" x="159.033203"/>
       <use xlink:href="#DejaVuSans-30" x="222.65625"/>
      </g>
     </g>
    </g>
   </g>
   <g id="line2d_16">
    <path d="M 413.779591 256.394108 
L 290.996157 209.757648 
L 220.074117 108.61024 
L 175.973386 218.912464 
L 157.62804 302.710404 
L 211.754996 440.626427 
L 351.599722 379.025035 
L 413.779591 256.394108 
" clip-path="url(#paf10c216ad)" style="fill: none; stroke: #0000ff; stroke-width: 1.5; stroke-linecap: square"/>
   </g>
   <g id="line2d_17">
    <path d="M 363.352761 256.394108 
L 283.27849 219.435296 
L 220.961652 112.498782 
L 195.597551 228.362964 
L 158.822247 302.135305 
L 219.710368 405.771664 
L 386.889375 423.27686 
L 363.352761 256.394108 
" clip-path="url(#paf10c216ad)" style="fill: none; stroke: #ff0000; stroke-width: 1.5; stroke-linecap: square"/>
   </g>
   <g id="patch_3">
    <path d="M 475.564821 256.394108 
C 475.564821 227.272852 469.828568 198.434763 458.684346 171.53023 
C 447.540124 144.625697 431.204659 120.177946 410.612821 99.586108 
C 390.020983 78.99427 365.573232 62.658805 338.668699 51.514583 
C 311.764166 40.37036 282.926077 34.634108 253.804821 34.634108 
C 224.683564 34.634108 195.845476 40.37036 168.940943 51.514583 
C 142.03641 62.658805 117.588659 78.99427 96.996821 99.586108 
C 76.404983 120.177946 60.069518 144.625697 48.925296 171.53023 
C 37.781073 198.434763 32.044821 227.272852 32.044821 256.394108 
C 32.044821 285.515364 37.781073 314.353453 48.925296 341.257986 
C 60.069518 368.162519 76.404983 392.61027 96.996821 413.202108 
C 117.588659 433.793946 142.03641 450.129411 168.940943 461.273633 
C 195.845476 472.417855 224.683564 478.154108 253.804821 478.154108 
C 282.926077 478.154108 311.764166 472.417855 338.668699 461.273633 
C 365.573232 450.129411 390.020983 433.793946 410.612821 413.202108 
C 431.204659 392.61027 447.540124 368.162519 458.684346 341.257986 
C 469.828568 314.353453 475.564821 285.515364 475.564821 256.394108 
" style="fill: none; stroke: #000000; stroke-width: 0.8; stroke-linejoin: miter; stroke-linecap: square"/>
   </g>
   <g id="text_16">
    <!-- Répartition des cheptels sur le pole de Amikuze en 2010 et 2020 -->
    <g transform="translate(58.990446 16.798125) scale(0.12 -0.12)">
     <defs>
      <path id="DejaVuSans-52" d="M 2841 2188 
Q 3044 2119 3236 1894 
Q 3428 1669 3622 1275 
L 4263 0 
L 3584 0 
L 2988 1197 
Q 2756 1666 2539 1819 
Q 2322 1972 1947 1972 
L 1259 1972 
L 1259 0 
L 628 0 
L 628 4666 
L 2053 4666 
Q 2853 4666 3247 4331 
Q 3641 3997 3641 3322 
Q 3641 2881 3436 2590 
Q 3231 2300 2841 2188 
z
M 1259 4147 
L 1259 2491 
L 2053 2491 
Q 2509 2491 2742 2702 
Q 2975 2913 2975 3322 
Q 2975 3731 2742 3939 
Q 2509 4147 2053 4147 
L 1259 4147 
z
" transform="scale(0.015625)"/>
      <path id="DejaVuSans-41" d="M 2188 4044 
L 1331 1722 
L 3047 1722 
L 2188 4044 
z
M 1831 4666 
L 2547 4666 
L 4325 0 
L 3669 0 
L 3244 1197 
L 1141 1197 
L 716 0 
L 50 0 
L 1831 4666 
z
" transform="scale(0.015625)"/>
      <path id="DejaVuSans-6b" d="M 581 4863 
L 1159 4863 
L 1159 1991 
L 2875 3500 
L 3609 3500 
L 1753 1863 
L 3688 0 
L 2938 0 
L 1159 1709 
L 1159 0 
L 581 0 
L 581 4863 
z
" transform="scale(0.015625)"/>
      <path id="DejaVuSans-7a" d="M 353 3500 
L 3084 3500 
L 3084 2975 
L 922 459 
L 3084 459 
L 3084 0 
L 275 0 
L 275 525 
L 2438 3041 
L 353 3041 
L 353 3500 
z
" transform="scale(0.015625)"/>
     </defs>
     <use xlink:href="#DejaVuSans-52"/>
     <use xlink:href="#DejaVuSans-e9" x="64.982422"/>
     <use xlink:href="#DejaVuSans-70" x="126.505859"/>
     <use xlink:href="#DejaVuSans-61" x="189.982422"/>
     <use xlink:href="#DejaVuSans-72" x="251.261719"/>
     <use xlink:href="#DejaVuSans-74" x="292.375"/>
     <use xlink:href="#DejaVuSans-69" x="331.583984"/>
     <use xlink:href="#DejaVuSans-74" x="359.367188"/>
     <use xlink:href="#DejaVuSans-69" x="398.576172"/>
     <use xlink:href="#DejaVuSans-6f" x="426.359375"/>
     <use xlink:href="#DejaVuSans-6e" x="487.541016"/>
     <use xlink:href="#DejaVuSans-20" x="550.919922"/>
     <use xlink:href="#DejaVuSans-64" x="582.707031"/>
     <use xlink:href="#DejaVuSans-65" x="646.183594"/>
     <use xlink:href="#DejaVuSans-73" x="707.707031"/>
     <use xlink:href="#DejaVuSans-20" x="759.806641"/>
     <use xlink:href="#DejaVuSans-63" x="791.59375"/>
     <use xlink:href="#DejaVuSans-68" x="846.574219"/>
     <use xlink:href="#DejaVuSans-65" x="909.953125"/>
     <use xlink:href="#DejaVuSans-70" x="971.476562"/>
     <use xlink:href="#DejaVuSans-74" x="1034.953125"/>
     <use xlink:href="#DejaVuSans-65" x="1074.162109"/>
     <use xlink:href="#DejaVuSans-6c" x="1135.685547"/>
     <use xlink:href="#DejaVuSans-73" x="1163.46875"/>
     <use xlink:href="#DejaVuSans-20" x="1215.568359"/>
     <use xlink:href="#DejaVuSans-73" x="1247.355469"/>
     <use xlink:href="#DejaVuSans-75" x="1299.455078"/>
     <use xlink:href="#DejaVuSans-72" x="1362.833984"/>
     <use xlink:href="#DejaVuSans-20" x="1403.947266"/>
     <use xlink:href="#DejaVuSans-6c" x="1435.734375"/>
     <use xlink:href="#DejaVuSans-65" x="1463.517578"/>
     <use xlink:href="#DejaVuSans-20" x="1525.041016"/>
     <use xlink:href="#DejaVuSans-70" x="1556.828125"/>
     <use xlink:href="#DejaVuSans-6f" x="1620.304688"/>
     <use xlink:href="#DejaVuSans-6c" x="1681.486328"/>
     <use xlink:href="#DejaVuSans-65" x="1709.269531"/>
     <use xlink:href="#DejaVuSans-20" x="1770.792969"/>
     <use xlink:href="#DejaVuSans-64" x="1802.580078"/>
     <use xlink:href="#DejaVuSans-65" x="1866.056641"/>
     <use xlink:href="#DejaVuSans-20" x="1927.580078"/>
     <use xlink:href="#DejaVuSans-41" x="1959.367188"/>
     <use xlink:href="#DejaVuSans-6d" x="2027.775391"/>
     <use xlink:href="#DejaVuSans-69" x="2125.1875"/>
     <use xlink:href="#DejaVuSans-6b" x="2152.970703"/>
     <use xlink:href="#DejaVuSans-75" x="2207.755859"/>
     <use xlink:href="#DejaVuSans-7a" x="2271.134766"/>
     <use xlink:href="#DejaVuSans-65" x="2323.625"/>
     <use xlink:href="#DejaVuSans-20" x="2385.148438"/>
     <use xlink:href="#DejaVuSans-65" x="2416.935547"/>
     <use xlink:href="#DejaVuSans-6e" x="2478.458984"/>
     <use xlink:href="#DejaVuSans-20" x="2541.837891"/>
     <use xlink:href="#DejaVuSans-32" x="2573.625"/>
     <use xlink:href="#DejaVuSans-30" x="2637.248047"/>
     <use xlink:href="#DejaVuSans-31" x="2700.871094"/>
     <use xlink:href="#DejaVuSans-30" x="2764.494141"/>
     <use xlink:href="#DejaVuSans-20" x="2828.117188"/>
     <use xlink:href="#DejaVuSans-65" x="2859.904297"/>
     <use xlink:href="#DejaVuSans-74" x="2921.427734"/>
     <use xlink:href="#DejaVuSans-20" x="2960.636719"/>
     <use xlink:href="#DejaVuSans-32" x="2992.423828"/>
     <use xlink:href="#DejaVuSans-30" x="3056.046875"/>
     <use xlink:href="#DejaVuSans-32" x="3119.669922"/>
     <use xlink:href="#DejaVuSans-30" x="3183.292969"/>
    </g>
   </g>
   <g id="legend_1">
    <g id="patch_4">
     <path d="M 411.114821 71.990358 
L 468.564821 71.990358 
Q 470.564821 71.990358 470.564821 69.990358 
L 470.564821 41.634108 
Q 470.564821 39.634108 468.564821 39.634108 
L 411.114821 39.634108 
Q 409.114821 39.634108 409.114821 41.634108 
L 409.114821 69.990358 
Q 409.114821 71.990358 411.114821 71.990358 
z
" style="fill: #ffffff; opacity: 0.8; stroke: #cccccc; stroke-linejoin: miter"/>
    </g>
    <g id="line2d_18">
     <path d="M 413.114821 47.732545 
L 423.114821 47.732545 
L 433.114821 47.732545 
" style="fill: none; stroke: #0000ff; stroke-width: 1.5; stroke-linecap: square"/>
    </g>
    <g id="text_17">
     <!-- 2020 -->
     <g transform="translate(441.114821 51.232545) scale(0.1 -0.1)">
      <use xlink:href="#DejaVuSans-32"/>
      <use xlink:href="#DejaVuSans-30" x="63.623047"/>
      <use xlink:href="#DejaVuSans-32" x="127.246094"/>
      <use xlink:href="#DejaVuSans-30" x="190.869141"/>
     </g>
    </g>
    <g id="line2d_19">
     <path d="M 413.114821 62.41067 
L 423.114821 62.41067 
L 433.114821 62.41067 
" style="fill: none; stroke: #ff0000; stroke-width: 1.5; stroke-linecap: square"/>
    </g>
    <g id="text_18">
     <!-- 2010 -->
     <g transform="translate(441.114821 65.91067) scale(0.1 -0.1)">
      <use xlink:href="#DejaVuSans-32"/>
      <use xlink:href="#DejaVuSans-30" x="63.623047"/>
      <use xlink:href="#DejaVuSans-31" x="127.246094"/>
      <use xlink:href="#DejaVuSans-30" x="190.869141"/>
     </g>
    </g>
   </g>
  </g>
 </g>
 <defs>
  <clipPath id="paf10c216ad">
   <path d="M 475.564821 256.394108 
C 475.564821 227.272852 469.828568 198.434763 458.684346 171.53023 
C 447.540124 144.625697 431.204659 120.177946 410.612821 99.586108 
C 390.020983 78.99427 365.573232 62.658805 338.668699 51.514583 
C 311.764166 40.37036 282.926077 34.634108 253.804821 34.634108 
C 224.683564 34.634108 195.845476 40.37036 168.940943 51.514583 
C 142.03641 62.658805 117.588659 78.99427 96.996821 99.586108 
C 76.404983 120.177946 60.069518 144.625697 48.925296 171.53023 
C 37.781073 198.434763 32.044821 227.272852 32.044821 256.394108 
C 32.044821 285.515364 37.781073 314.353453 48.925296 341.257986 
C 60.069518 368.162519 76.404983 392.61027 96.996821 413.202108 
C 117.588659 433.793946 142.03641 450.129411 168.940943 461.273633 
C 195.845476 472.417855 224.683564 478.154108 253.804821 478.154108 
C 282.926077 478.154108 311.764166 472.417855 338.668699 461.273633 
C 365.573232 450.129411 390.020983 433.793946 410.612821 413.202108 
C 431.204659 392.61027 447.540124 368.162519 458.684346 341.257986 
C 469.828568 314.353453 475.564821 285.515364 475.564821 256.394108 
M 253.804821 256.394108 
C 253.804821 256.394108 253.804821 256.394108 253.804821 256.394108 
C 253.804821 256.394108 253.804821 256.394108 253.804821 256.394108 
C 253.804821 256.394108 253.804821 256.394108 253.804821 256.394108 
C 253.804821 256.394108 253.804821 256.394108 253.804821 256.394108 
C 253.804821 256.394108 253.804821 256.394108 253.804821 256.394108 
C 253.804821 256.394108 253.804821 256.394108 253.804821 256.394108 
C 253.804821 256.394108 253.804821 256.394108 253.804821 256.394108 
C 253.804821 256.394108 253.804821 256.394108 253.804821 256.394108 
C 253.804821 256.394108 253.804821 256.394108 253.804821 256.394108 
C 253.804821 256.394108 253.804821 256.394108 253.804821 256.394108 
C 253.804821 256.394108 253.804821 256.394108 253.804821 256.394108 
C 253.804821 256.394108 253.804821 256.394108 253.804821 256.394108 
C 253.804821 256.394108 253.804821 256.394108 253.804821 256.394108 
C 253.804821 256.394108 253.804821 256.394108 253.804821 256.394108 
C 253.804821 256.394108 253.804821 256.394108 253.804821 256.394108 
C 253.804821 256.394108 253.804821 256.394108 253.804821 256.394108 
z
"/>
  </clipPath>
 </defs>
</svg>
