<?xml version="1.0" encoding="utf-8" standalone="no"?>
<!DOCTYPE svg PUBLIC "-//W3C//DTD SVG 1.1//EN"
  "http://www.w3.org/Graphics/SVG/1.1/DTD/svg11.dtd">
<svg xmlns:xlink="http://www.w3.org/1999/xlink" width="588.862188pt" height="325.986375pt" viewBox="0 0 588.862188 325.986375" xmlns="http://www.w3.org/2000/svg" version="1.1">
 <metadata>
  <rdf:RDF xmlns:dc="http://purl.org/dc/elements/1.1/" xmlns:cc="http://creativecommons.org/ns#" xmlns:rdf="http://www.w3.org/1999/02/22-rdf-syntax-ns#">
   <cc:Work>
    <dc:type rdf:resource="http://purl.org/dc/dcmitype/StillImage"/>
    <dc:date>2023-06-28T18:06:37.939443</dc:date>
    <dc:format>image/svg+xml</dc:format>
    <dc:creator>
     <cc:Agent>
      <dc:title>Matplotlib v3.7.1, https://matplotlib.org/</dc:title>
     </cc:Agent>
    </dc:creator>
   </cc:Work>
  </rdf:RDF>
 </metadata>
 <defs>
  <style type="text/css">*{stroke-linejoin: round; stroke-linecap: butt}</style>
 </defs>
 <g id="figure_1">
  <g id="patch_1">
   <path d="M 0 325.986375 
L 588.862188 325.986375 
L 588.862188 0 
L 0 0 
z
" style="fill: #ffffff"/>
  </g>
  <g id="axes_1">
   <g id="patch_2">
    <path d="M 46.965625 288.430125 
L 404.085625 288.430125 
L 404.085625 22.318125 
L 46.965625 22.318125 
z
" style="fill: #ffffff"/>
   </g>
   <g id="matplotlib.axis_1">
    <g id="xtick_1">
     <g id="line2d_1">
      <path d="M 92.712402 288.430125 
L 92.712402 22.318125 
" clip-path="url(#p1fd84912dc)" style="fill: none; stroke: #b0b0b0; stroke-width: 0.8; stroke-linecap: square"/>
     </g>
     <g id="line2d_2">
      <defs>
       <path id="me90a88c172" d="M 0 0 
L 0 3.5 
" style="stroke: #000000; stroke-width: 0.8"/>
      </defs>
      <g>
       <use xlink:href="#me90a88c172" x="92.712402" y="288.430125" style="stroke: #000000; stroke-width: 0.8"/>
      </g>
     </g>
     <g id="text_1">
      <!-- 5 -->
      <g transform="translate(89.531152 303.028562) scale(0.1 -0.1)">
       <defs>
        <path id="DejaVuSans-35" d="M 691 4666 
L 3169 4666 
L 3169 4134 
L 1269 4134 
L 1269 2991 
Q 1406 3038 1543 3061 
Q 1681 3084 1819 3084 
Q 2600 3084 3056 2656 
Q 3513 2228 3513 1497 
Q 3513 744 3044 326 
Q 2575 -91 1722 -91 
Q 1428 -91 1123 -41 
Q 819 9 494 109 
L 494 744 
Q 775 591 1075 516 
Q 1375 441 1709 441 
Q 2250 441 2565 725 
Q 2881 1009 2881 1497 
Q 2881 1984 2565 2268 
Q 2250 2553 1709 2553 
Q 1456 2553 1204 2497 
Q 953 2441 691 2322 
L 691 4666 
z
" transform="scale(0.015625)"/>
       </defs>
       <use xlink:href="#DejaVuSans-35"/>
      </g>
     </g>
    </g>
    <g id="xtick_2">
     <g id="line2d_3">
      <path d="M 166.497526 288.430125 
L 166.497526 22.318125 
" clip-path="url(#p1fd84912dc)" style="fill: none; stroke: #b0b0b0; stroke-width: 0.8; stroke-linecap: square"/>
     </g>
     <g id="line2d_4">
      <g>
       <use xlink:href="#me90a88c172" x="166.497526" y="288.430125" style="stroke: #000000; stroke-width: 0.8"/>
      </g>
     </g>
     <g id="text_2">
      <!-- 10 -->
      <g transform="translate(160.135026 303.028562) scale(0.1 -0.1)">
       <defs>
        <path id="DejaVuSans-31" d="M 794 531 
L 1825 531 
L 1825 4091 
L 703 3866 
L 703 4441 
L 1819 4666 
L 2450 4666 
L 2450 531 
L 3481 531 
L 3481 0 
L 794 0 
L 794 531 
z
" transform="scale(0.015625)"/>
        <path id="DejaVuSans-30" d="M 2034 4250 
Q 1547 4250 1301 3770 
Q 1056 3291 1056 2328 
Q 1056 1369 1301 889 
Q 1547 409 2034 409 
Q 2525 409 2770 889 
Q 3016 1369 3016 2328 
Q 3016 3291 2770 3770 
Q 2525 4250 2034 4250 
z
M 2034 4750 
Q 2819 4750 3233 4129 
Q 3647 3509 3647 2328 
Q 3647 1150 3233 529 
Q 2819 -91 2034 -91 
Q 1250 -91 836 529 
Q 422 1150 422 2328 
Q 422 3509 836 4129 
Q 1250 4750 2034 4750 
z
" transform="scale(0.015625)"/>
       </defs>
       <use xlink:href="#DejaVuSans-31"/>
       <use xlink:href="#DejaVuSans-30" x="63.623047"/>
      </g>
     </g>
    </g>
    <g id="xtick_3">
     <g id="line2d_5">
      <path d="M 240.28265 288.430125 
L 240.28265 22.318125 
" clip-path="url(#p1fd84912dc)" style="fill: none; stroke: #b0b0b0; stroke-width: 0.8; stroke-linecap: square"/>
     </g>
     <g id="line2d_6">
      <g>
       <use xlink:href="#me90a88c172" x="240.28265" y="288.430125" style="stroke: #000000; stroke-width: 0.8"/>
      </g>
     </g>
     <g id="text_3">
      <!-- 15 -->
      <g transform="translate(233.92015 303.028562) scale(0.1 -0.1)">
       <use xlink:href="#DejaVuSans-31"/>
       <use xlink:href="#DejaVuSans-35" x="63.623047"/>
      </g>
     </g>
    </g>
    <g id="xtick_4">
     <g id="line2d_7">
      <path d="M 314.067774 288.430125 
L 314.067774 22.318125 
" clip-path="url(#p1fd84912dc)" style="fill: none; stroke: #b0b0b0; stroke-width: 0.8; stroke-linecap: square"/>
     </g>
     <g id="line2d_8">
      <g>
       <use xlink:href="#me90a88c172" x="314.067774" y="288.430125" style="stroke: #000000; stroke-width: 0.8"/>
      </g>
     </g>
     <g id="text_4">
      <!-- 20 -->
      <g transform="translate(307.705274 303.028562) scale(0.1 -0.1)">
       <defs>
        <path id="DejaVuSans-32" d="M 1228 531 
L 3431 531 
L 3431 0 
L 469 0 
L 469 531 
Q 828 903 1448 1529 
Q 2069 2156 2228 2338 
Q 2531 2678 2651 2914 
Q 2772 3150 2772 3378 
Q 2772 3750 2511 3984 
Q 2250 4219 1831 4219 
Q 1534 4219 1204 4116 
Q 875 4013 500 3803 
L 500 4441 
Q 881 4594 1212 4672 
Q 1544 4750 1819 4750 
Q 2544 4750 2975 4387 
Q 3406 4025 3406 3419 
Q 3406 3131 3298 2873 
Q 3191 2616 2906 2266 
Q 2828 2175 2409 1742 
Q 1991 1309 1228 531 
z
" transform="scale(0.015625)"/>
       </defs>
       <use xlink:href="#DejaVuSans-32"/>
       <use xlink:href="#DejaVuSans-30" x="63.623047"/>
      </g>
     </g>
    </g>
    <g id="xtick_5">
     <g id="line2d_9">
      <path d="M 387.852898 288.430125 
L 387.852898 22.318125 
" clip-path="url(#p1fd84912dc)" style="fill: none; stroke: #b0b0b0; stroke-width: 0.8; stroke-linecap: square"/>
     </g>
     <g id="line2d_10">
      <g>
       <use xlink:href="#me90a88c172" x="387.852898" y="288.430125" style="stroke: #000000; stroke-width: 0.8"/>
      </g>
     </g>
     <g id="text_5">
      <!-- 25 -->
      <g transform="translate(381.490398 303.028562) scale(0.1 -0.1)">
       <use xlink:href="#DejaVuSans-32"/>
       <use xlink:href="#DejaVuSans-35" x="63.623047"/>
      </g>
     </g>
    </g>
    <g id="text_6">
     <!-- Nombre exploitation 2010 - 2020 -->
     <g transform="translate(142.489688 316.706687) scale(0.1 -0.1)">
      <defs>
       <path id="DejaVuSans-4e" d="M 628 4666 
L 1478 4666 
L 3547 763 
L 3547 4666 
L 4159 4666 
L 4159 0 
L 3309 0 
L 1241 3903 
L 1241 0 
L 628 0 
L 628 4666 
z
" transform="scale(0.015625)"/>
       <path id="DejaVuSans-6f" d="M 1959 3097 
Q 1497 3097 1228 2736 
Q 959 2375 959 1747 
Q 959 1119 1226 758 
Q 1494 397 1959 397 
Q 2419 397 2687 759 
Q 2956 1122 2956 1747 
Q 2956 2369 2687 2733 
Q 2419 3097 1959 3097 
z
M 1959 3584 
Q 2709 3584 3137 3096 
Q 3566 2609 3566 1747 
Q 3566 888 3137 398 
Q 2709 -91 1959 -91 
Q 1206 -91 779 398 
Q 353 888 353 1747 
Q 353 2609 779 3096 
Q 1206 3584 1959 3584 
z
" transform="scale(0.015625)"/>
       <path id="DejaVuSans-6d" d="M 3328 2828 
Q 3544 3216 3844 3400 
Q 4144 3584 4550 3584 
Q 5097 3584 5394 3201 
Q 5691 2819 5691 2113 
L 5691 0 
L 5113 0 
L 5113 2094 
Q 5113 2597 4934 2840 
Q 4756 3084 4391 3084 
Q 3944 3084 3684 2787 
Q 3425 2491 3425 1978 
L 3425 0 
L 2847 0 
L 2847 2094 
Q 2847 2600 2669 2842 
Q 2491 3084 2119 3084 
Q 1678 3084 1418 2786 
Q 1159 2488 1159 1978 
L 1159 0 
L 581 0 
L 581 3500 
L 1159 3500 
L 1159 2956 
Q 1356 3278 1631 3431 
Q 1906 3584 2284 3584 
Q 2666 3584 2933 3390 
Q 3200 3197 3328 2828 
z
" transform="scale(0.015625)"/>
       <path id="DejaVuSans-62" d="M 3116 1747 
Q 3116 2381 2855 2742 
Q 2594 3103 2138 3103 
Q 1681 3103 1420 2742 
Q 1159 2381 1159 1747 
Q 1159 1113 1420 752 
Q 1681 391 2138 391 
Q 2594 391 2855 752 
Q 3116 1113 3116 1747 
z
M 1159 2969 
Q 1341 3281 1617 3432 
Q 1894 3584 2278 3584 
Q 2916 3584 3314 3078 
Q 3713 2572 3713 1747 
Q 3713 922 3314 415 
Q 2916 -91 2278 -91 
Q 1894 -91 1617 61 
Q 1341 213 1159 525 
L 1159 0 
L 581 0 
L 581 4863 
L 1159 4863 
L 1159 2969 
z
" transform="scale(0.015625)"/>
       <path id="DejaVuSans-72" d="M 2631 2963 
Q 2534 3019 2420 3045 
Q 2306 3072 2169 3072 
Q 1681 3072 1420 2755 
Q 1159 2438 1159 1844 
L 1159 0 
L 581 0 
L 581 3500 
L 1159 3500 
L 1159 2956 
Q 1341 3275 1631 3429 
Q 1922 3584 2338 3584 
Q 2397 3584 2469 3576 
Q 2541 3569 2628 3553 
L 2631 2963 
z
" transform="scale(0.015625)"/>
       <path id="DejaVuSans-65" d="M 3597 1894 
L 3597 1613 
L 953 1613 
Q 991 1019 1311 708 
Q 1631 397 2203 397 
Q 2534 397 2845 478 
Q 3156 559 3463 722 
L 3463 178 
Q 3153 47 2828 -22 
Q 2503 -91 2169 -91 
Q 1331 -91 842 396 
Q 353 884 353 1716 
Q 353 2575 817 3079 
Q 1281 3584 2069 3584 
Q 2775 3584 3186 3129 
Q 3597 2675 3597 1894 
z
M 3022 2063 
Q 3016 2534 2758 2815 
Q 2500 3097 2075 3097 
Q 1594 3097 1305 2825 
Q 1016 2553 972 2059 
L 3022 2063 
z
" transform="scale(0.015625)"/>
       <path id="DejaVuSans-20" transform="scale(0.015625)"/>
       <path id="DejaVuSans-78" d="M 3513 3500 
L 2247 1797 
L 3578 0 
L 2900 0 
L 1881 1375 
L 863 0 
L 184 0 
L 1544 1831 
L 300 3500 
L 978 3500 
L 1906 2253 
L 2834 3500 
L 3513 3500 
z
" transform="scale(0.015625)"/>
       <path id="DejaVuSans-70" d="M 1159 525 
L 1159 -1331 
L 581 -1331 
L 581 3500 
L 1159 3500 
L 1159 2969 
Q 1341 3281 1617 3432 
Q 1894 3584 2278 3584 
Q 2916 3584 3314 3078 
Q 3713 2572 3713 1747 
Q 3713 922 3314 415 
Q 2916 -91 2278 -91 
Q 1894 -91 1617 61 
Q 1341 213 1159 525 
z
M 3116 1747 
Q 3116 2381 2855 2742 
Q 2594 3103 2138 3103 
Q 1681 3103 1420 2742 
Q 1159 2381 1159 1747 
Q 1159 1113 1420 752 
Q 1681 391 2138 391 
Q 2594 391 2855 752 
Q 3116 1113 3116 1747 
z
" transform="scale(0.015625)"/>
       <path id="DejaVuSans-6c" d="M 603 4863 
L 1178 4863 
L 1178 0 
L 603 0 
L 603 4863 
z
" transform="scale(0.015625)"/>
       <path id="DejaVuSans-69" d="M 603 3500 
L 1178 3500 
L 1178 0 
L 603 0 
L 603 3500 
z
M 603 4863 
L 1178 4863 
L 1178 4134 
L 603 4134 
L 603 4863 
z
" transform="scale(0.015625)"/>
       <path id="DejaVuSans-74" d="M 1172 4494 
L 1172 3500 
L 2356 3500 
L 2356 3053 
L 1172 3053 
L 1172 1153 
Q 1172 725 1289 603 
Q 1406 481 1766 481 
L 2356 481 
L 2356 0 
L 1766 0 
Q 1100 0 847 248 
Q 594 497 594 1153 
L 594 3053 
L 172 3053 
L 172 3500 
L 594 3500 
L 594 4494 
L 1172 4494 
z
" transform="scale(0.015625)"/>
       <path id="DejaVuSans-61" d="M 2194 1759 
Q 1497 1759 1228 1600 
Q 959 1441 959 1056 
Q 959 750 1161 570 
Q 1363 391 1709 391 
Q 2188 391 2477 730 
Q 2766 1069 2766 1631 
L 2766 1759 
L 2194 1759 
z
M 3341 1997 
L 3341 0 
L 2766 0 
L 2766 531 
Q 2569 213 2275 61 
Q 1981 -91 1556 -91 
Q 1019 -91 701 211 
Q 384 513 384 1019 
Q 384 1609 779 1909 
Q 1175 2209 1959 2209 
L 2766 2209 
L 2766 2266 
Q 2766 2663 2505 2880 
Q 2244 3097 1772 3097 
Q 1472 3097 1187 3025 
Q 903 2953 641 2809 
L 641 3341 
Q 956 3463 1253 3523 
Q 1550 3584 1831 3584 
Q 2591 3584 2966 3190 
Q 3341 2797 3341 1997 
z
" transform="scale(0.015625)"/>
       <path id="DejaVuSans-6e" d="M 3513 2113 
L 3513 0 
L 2938 0 
L 2938 2094 
Q 2938 2591 2744 2837 
Q 2550 3084 2163 3084 
Q 1697 3084 1428 2787 
Q 1159 2491 1159 1978 
L 1159 0 
L 581 0 
L 581 3500 
L 1159 3500 
L 1159 2956 
Q 1366 3272 1645 3428 
Q 1925 3584 2291 3584 
Q 2894 3584 3203 3211 
Q 3513 2838 3513 2113 
z
" transform="scale(0.015625)"/>
       <path id="DejaVuSans-2d" d="M 313 2009 
L 1997 2009 
L 1997 1497 
L 313 1497 
L 313 2009 
z
" transform="scale(0.015625)"/>
      </defs>
      <use xlink:href="#DejaVuSans-4e"/>
      <use xlink:href="#DejaVuSans-6f" x="74.804688"/>
      <use xlink:href="#DejaVuSans-6d" x="135.986328"/>
      <use xlink:href="#DejaVuSans-62" x="233.398438"/>
      <use xlink:href="#DejaVuSans-72" x="296.875"/>
      <use xlink:href="#DejaVuSans-65" x="335.738281"/>
      <use xlink:href="#DejaVuSans-20" x="397.261719"/>
      <use xlink:href="#DejaVuSans-65" x="429.048828"/>
      <use xlink:href="#DejaVuSans-78" x="488.822266"/>
      <use xlink:href="#DejaVuSans-70" x="548.001953"/>
      <use xlink:href="#DejaVuSans-6c" x="611.478516"/>
      <use xlink:href="#DejaVuSans-6f" x="639.261719"/>
      <use xlink:href="#DejaVuSans-69" x="700.443359"/>
      <use xlink:href="#DejaVuSans-74" x="728.226562"/>
      <use xlink:href="#DejaVuSans-61" x="767.435547"/>
      <use xlink:href="#DejaVuSans-74" x="828.714844"/>
      <use xlink:href="#DejaVuSans-69" x="867.923828"/>
      <use xlink:href="#DejaVuSans-6f" x="895.707031"/>
      <use xlink:href="#DejaVuSans-6e" x="956.888672"/>
      <use xlink:href="#DejaVuSans-20" x="1020.267578"/>
      <use xlink:href="#DejaVuSans-32" x="1052.054688"/>
      <use xlink:href="#DejaVuSans-30" x="1115.677734"/>
      <use xlink:href="#DejaVuSans-31" x="1179.300781"/>
      <use xlink:href="#DejaVuSans-30" x="1242.923828"/>
      <use xlink:href="#DejaVuSans-20" x="1306.546875"/>
      <use xlink:href="#DejaVuSans-2d" x="1338.333984"/>
      <use xlink:href="#DejaVuSans-20" x="1374.417969"/>
      <use xlink:href="#DejaVuSans-32" x="1406.205078"/>
      <use xlink:href="#DejaVuSans-30" x="1469.828125"/>
      <use xlink:href="#DejaVuSans-32" x="1533.451172"/>
      <use xlink:href="#DejaVuSans-30" x="1597.074219"/>
     </g>
    </g>
   </g>
   <g id="matplotlib.axis_2">
    <g id="ytick_1">
     <g id="line2d_11">
      <path d="M 46.965625 252.943203 
L 404.085625 252.943203 
" clip-path="url(#p1fd84912dc)" style="fill: none; stroke: #b0b0b0; stroke-width: 0.8; stroke-linecap: square"/>
     </g>
     <g id="line2d_12">
      <defs>
       <path id="mebfcbf3fe5" d="M 0 0 
L -3.5 0 
" style="stroke: #000000; stroke-width: 0.8"/>
      </defs>
      <g>
       <use xlink:href="#mebfcbf3fe5" x="46.965625" y="252.943203" style="stroke: #000000; stroke-width: 0.8"/>
      </g>
     </g>
     <g id="text_7">
      <!-- 25 -->
      <g transform="translate(27.240625 256.742422) scale(0.1 -0.1)">
       <use xlink:href="#DejaVuSans-32"/>
       <use xlink:href="#DejaVuSans-35" x="63.623047"/>
      </g>
     </g>
    </g>
    <g id="ytick_2">
     <g id="line2d_13">
      <path d="M 46.965625 217.30804 
L 404.085625 217.30804 
" clip-path="url(#p1fd84912dc)" style="fill: none; stroke: #b0b0b0; stroke-width: 0.8; stroke-linecap: square"/>
     </g>
     <g id="line2d_14">
      <g>
       <use xlink:href="#mebfcbf3fe5" x="46.965625" y="217.30804" style="stroke: #000000; stroke-width: 0.8"/>
      </g>
     </g>
     <g id="text_8">
      <!-- 50 -->
      <g transform="translate(27.240625 221.107258) scale(0.1 -0.1)">
       <use xlink:href="#DejaVuSans-35"/>
       <use xlink:href="#DejaVuSans-30" x="63.623047"/>
      </g>
     </g>
    </g>
    <g id="ytick_3">
     <g id="line2d_15">
      <path d="M 46.965625 181.672876 
L 404.085625 181.672876 
" clip-path="url(#p1fd84912dc)" style="fill: none; stroke: #b0b0b0; stroke-width: 0.8; stroke-linecap: square"/>
     </g>
     <g id="line2d_16">
      <g>
       <use xlink:href="#mebfcbf3fe5" x="46.965625" y="181.672876" style="stroke: #000000; stroke-width: 0.8"/>
      </g>
     </g>
     <g id="text_9">
      <!-- 75 -->
      <g transform="translate(27.240625 185.472095) scale(0.1 -0.1)">
       <defs>
        <path id="DejaVuSans-37" d="M 525 4666 
L 3525 4666 
L 3525 4397 
L 1831 0 
L 1172 0 
L 2766 4134 
L 525 4134 
L 525 4666 
z
" transform="scale(0.015625)"/>
       </defs>
       <use xlink:href="#DejaVuSans-37"/>
       <use xlink:href="#DejaVuSans-35" x="63.623047"/>
      </g>
     </g>
    </g>
    <g id="ytick_4">
     <g id="line2d_17">
      <path d="M 46.965625 146.037712 
L 404.085625 146.037712 
" clip-path="url(#p1fd84912dc)" style="fill: none; stroke: #b0b0b0; stroke-width: 0.8; stroke-linecap: square"/>
     </g>
     <g id="line2d_18">
      <g>
       <use xlink:href="#mebfcbf3fe5" x="46.965625" y="146.037712" style="stroke: #000000; stroke-width: 0.8"/>
      </g>
     </g>
     <g id="text_10">
      <!-- 100 -->
      <g transform="translate(20.878125 149.836931) scale(0.1 -0.1)">
       <use xlink:href="#DejaVuSans-31"/>
       <use xlink:href="#DejaVuSans-30" x="63.623047"/>
       <use xlink:href="#DejaVuSans-30" x="127.246094"/>
      </g>
     </g>
    </g>
    <g id="ytick_5">
     <g id="line2d_19">
      <path d="M 46.965625 110.402548 
L 404.085625 110.402548 
" clip-path="url(#p1fd84912dc)" style="fill: none; stroke: #b0b0b0; stroke-width: 0.8; stroke-linecap: square"/>
     </g>
     <g id="line2d_20">
      <g>
       <use xlink:href="#mebfcbf3fe5" x="46.965625" y="110.402548" style="stroke: #000000; stroke-width: 0.8"/>
      </g>
     </g>
     <g id="text_11">
      <!-- 125 -->
      <g transform="translate(20.878125 114.201767) scale(0.1 -0.1)">
       <use xlink:href="#DejaVuSans-31"/>
       <use xlink:href="#DejaVuSans-32" x="63.623047"/>
       <use xlink:href="#DejaVuSans-35" x="127.246094"/>
      </g>
     </g>
    </g>
    <g id="ytick_6">
     <g id="line2d_21">
      <path d="M 46.965625 74.767384 
L 404.085625 74.767384 
" clip-path="url(#p1fd84912dc)" style="fill: none; stroke: #b0b0b0; stroke-width: 0.8; stroke-linecap: square"/>
     </g>
     <g id="line2d_22">
      <g>
       <use xlink:href="#mebfcbf3fe5" x="46.965625" y="74.767384" style="stroke: #000000; stroke-width: 0.8"/>
      </g>
     </g>
     <g id="text_12">
      <!-- 150 -->
      <g transform="translate(20.878125 78.566603) scale(0.1 -0.1)">
       <use xlink:href="#DejaVuSans-31"/>
       <use xlink:href="#DejaVuSans-35" x="63.623047"/>
       <use xlink:href="#DejaVuSans-30" x="127.246094"/>
      </g>
     </g>
    </g>
    <g id="ytick_7">
     <g id="line2d_23">
      <path d="M 46.965625 39.132221 
L 404.085625 39.132221 
" clip-path="url(#p1fd84912dc)" style="fill: none; stroke: #b0b0b0; stroke-width: 0.8; stroke-linecap: square"/>
     </g>
     <g id="line2d_24">
      <g>
       <use xlink:href="#mebfcbf3fe5" x="46.965625" y="39.132221" style="stroke: #000000; stroke-width: 0.8"/>
      </g>
     </g>
     <g id="text_13">
      <!-- 175 -->
      <g transform="translate(20.878125 42.931439) scale(0.1 -0.1)">
       <use xlink:href="#DejaVuSans-31"/>
       <use xlink:href="#DejaVuSans-37" x="63.623047"/>
       <use xlink:href="#DejaVuSans-35" x="127.246094"/>
      </g>
     </g>
    </g>
    <g id="text_14">
     <!-- Surface exploitation 2010 - 2020 -->
     <g transform="translate(14.798438 237.594437) rotate(-90) scale(0.1 -0.1)">
      <defs>
       <path id="DejaVuSans-53" d="M 3425 4513 
L 3425 3897 
Q 3066 4069 2747 4153 
Q 2428 4238 2131 4238 
Q 1616 4238 1336 4038 
Q 1056 3838 1056 3469 
Q 1056 3159 1242 3001 
Q 1428 2844 1947 2747 
L 2328 2669 
Q 3034 2534 3370 2195 
Q 3706 1856 3706 1288 
Q 3706 609 3251 259 
Q 2797 -91 1919 -91 
Q 1588 -91 1214 -16 
Q 841 59 441 206 
L 441 856 
Q 825 641 1194 531 
Q 1563 422 1919 422 
Q 2459 422 2753 634 
Q 3047 847 3047 1241 
Q 3047 1584 2836 1778 
Q 2625 1972 2144 2069 
L 1759 2144 
Q 1053 2284 737 2584 
Q 422 2884 422 3419 
Q 422 4038 858 4394 
Q 1294 4750 2059 4750 
Q 2388 4750 2728 4690 
Q 3069 4631 3425 4513 
z
" transform="scale(0.015625)"/>
       <path id="DejaVuSans-75" d="M 544 1381 
L 544 3500 
L 1119 3500 
L 1119 1403 
Q 1119 906 1312 657 
Q 1506 409 1894 409 
Q 2359 409 2629 706 
Q 2900 1003 2900 1516 
L 2900 3500 
L 3475 3500 
L 3475 0 
L 2900 0 
L 2900 538 
Q 2691 219 2414 64 
Q 2138 -91 1772 -91 
Q 1169 -91 856 284 
Q 544 659 544 1381 
z
M 1991 3584 
L 1991 3584 
z
" transform="scale(0.015625)"/>
       <path id="DejaVuSans-66" d="M 2375 4863 
L 2375 4384 
L 1825 4384 
Q 1516 4384 1395 4259 
Q 1275 4134 1275 3809 
L 1275 3500 
L 2222 3500 
L 2222 3053 
L 1275 3053 
L 1275 0 
L 697 0 
L 697 3053 
L 147 3053 
L 147 3500 
L 697 3500 
L 697 3744 
Q 697 4328 969 4595 
Q 1241 4863 1831 4863 
L 2375 4863 
z
" transform="scale(0.015625)"/>
       <path id="DejaVuSans-63" d="M 3122 3366 
L 3122 2828 
Q 2878 2963 2633 3030 
Q 2388 3097 2138 3097 
Q 1578 3097 1268 2742 
Q 959 2388 959 1747 
Q 959 1106 1268 751 
Q 1578 397 2138 397 
Q 2388 397 2633 464 
Q 2878 531 3122 666 
L 3122 134 
Q 2881 22 2623 -34 
Q 2366 -91 2075 -91 
Q 1284 -91 818 406 
Q 353 903 353 1747 
Q 353 2603 823 3093 
Q 1294 3584 2113 3584 
Q 2378 3584 2631 3529 
Q 2884 3475 3122 3366 
z
" transform="scale(0.015625)"/>
      </defs>
      <use xlink:href="#DejaVuSans-53"/>
      <use xlink:href="#DejaVuSans-75" x="63.476562"/>
      <use xlink:href="#DejaVuSans-72" x="126.855469"/>
      <use xlink:href="#DejaVuSans-66" x="167.96875"/>
      <use xlink:href="#DejaVuSans-61" x="203.173828"/>
      <use xlink:href="#DejaVuSans-63" x="264.453125"/>
      <use xlink:href="#DejaVuSans-65" x="319.433594"/>
      <use xlink:href="#DejaVuSans-20" x="380.957031"/>
      <use xlink:href="#DejaVuSans-65" x="412.744141"/>
      <use xlink:href="#DejaVuSans-78" x="472.517578"/>
      <use xlink:href="#DejaVuSans-70" x="531.697266"/>
      <use xlink:href="#DejaVuSans-6c" x="595.173828"/>
      <use xlink:href="#DejaVuSans-6f" x="622.957031"/>
      <use xlink:href="#DejaVuSans-69" x="684.138672"/>
      <use xlink:href="#DejaVuSans-74" x="711.921875"/>
      <use xlink:href="#DejaVuSans-61" x="751.130859"/>
      <use xlink:href="#DejaVuSans-74" x="812.410156"/>
      <use xlink:href="#DejaVuSans-69" x="851.619141"/>
      <use xlink:href="#DejaVuSans-6f" x="879.402344"/>
      <use xlink:href="#DejaVuSans-6e" x="940.583984"/>
      <use xlink:href="#DejaVuSans-20" x="1003.962891"/>
      <use xlink:href="#DejaVuSans-32" x="1035.75"/>
      <use xlink:href="#DejaVuSans-30" x="1099.373047"/>
      <use xlink:href="#DejaVuSans-31" x="1162.996094"/>
      <use xlink:href="#DejaVuSans-30" x="1226.619141"/>
      <use xlink:href="#DejaVuSans-20" x="1290.242188"/>
      <use xlink:href="#DejaVuSans-2d" x="1322.029297"/>
      <use xlink:href="#DejaVuSans-20" x="1358.113281"/>
      <use xlink:href="#DejaVuSans-32" x="1389.900391"/>
      <use xlink:href="#DejaVuSans-30" x="1453.523438"/>
      <use xlink:href="#DejaVuSans-32" x="1517.146484"/>
      <use xlink:href="#DejaVuSans-30" x="1580.769531"/>
     </g>
    </g>
   </g>
   <g id="PathCollection_1">
    <path d="M 387.852898 40.537849 
C 389.476928 40.537849 391.034662 39.892615 392.183025 38.744252 
C 393.331388 37.595889 393.976622 36.038156 393.976622 34.414125 
C 393.976622 32.790094 393.331388 31.232361 392.183025 30.083998 
C 391.034662 28.935635 389.476928 28.290401 387.852898 28.290401 
C 386.228867 28.290401 384.671134 28.935635 383.522771 30.083998 
C 382.374408 31.232361 381.729173 32.790094 381.729173 34.414125 
C 381.729173 36.038156 382.374408 37.595889 383.522771 38.744252 
C 384.671134 39.892615 386.228867 40.537849 387.852898 40.537849 
z
" clip-path="url(#p1fd84912dc)" style="fill: #ff0000; stroke: #ff0000"/>
    <path d="M 255.039675 183.862478 
C 256.663705 183.862478 258.221438 183.217244 259.369802 182.068881 
C 260.518165 180.920518 261.163399 179.362784 261.163399 177.738754 
C 261.163399 176.114723 260.518165 174.55699 259.369802 173.408627 
C 258.221438 172.260264 256.663705 171.615029 255.039675 171.615029 
C 253.415644 171.615029 251.857911 172.260264 250.709548 173.408627 
C 249.561184 174.55699 248.91595 176.114723 248.91595 177.738754 
C 248.91595 179.362784 249.561184 180.920518 250.709548 182.068881 
C 251.857911 183.217244 253.415644 183.862478 255.039675 183.862478 
z
" clip-path="url(#p1fd84912dc)" style="fill: #ffa500; stroke: #ffa500"/>
    <path d="M 122.226451 95.544288 
C 123.850482 95.544288 125.408215 94.899054 126.556578 93.750691 
C 127.704942 92.602328 128.350176 91.044595 128.350176 89.420564 
C 128.350176 87.796533 127.704942 86.2388 126.556578 85.090437 
C 125.408215 83.942074 123.850482 83.296839 122.226451 83.296839 
C 120.602421 83.296839 119.044688 83.942074 117.896324 85.090437 
C 116.747961 86.2388 116.102727 87.796533 116.102727 89.420564 
C 116.102727 91.044595 116.747961 92.602328 117.896324 93.750691 
C 119.044688 94.899054 120.602421 95.544288 122.226451 95.544288 
z
" clip-path="url(#p1fd84912dc)" style="fill: #0000ff; stroke: #0000ff"/>
   </g>
   <g id="PathCollection_2">
    <path d="M 255.039675 101.345693 
C 256.663705 101.345693 258.221438 100.700459 259.369802 99.552096 
C 260.518165 98.403732 261.163399 96.845999 261.163399 95.221969 
C 261.163399 93.597938 260.518165 92.040205 259.369802 90.891841 
C 258.221438 89.743478 256.663705 89.098244 255.039675 89.098244 
C 253.415644 89.098244 251.857911 89.743478 250.709548 90.891841 
C 249.561184 92.040205 248.91595 93.597938 248.91595 95.221969 
C 248.91595 96.845999 249.561184 98.403732 250.709548 99.552096 
C 251.857911 100.700459 253.415644 101.345693 255.039675 101.345693 
z
" clip-path="url(#p1fd84912dc)" style="fill: #ff0000; fill-opacity: 0.5; stroke: #ff0000; stroke-opacity: 0.5"/>
    <path d="M 136.983476 180.812108 
C 138.607507 180.812108 140.16524 180.166874 141.313603 179.018511 
C 142.461966 177.870148 143.107201 176.312414 143.107201 174.688384 
C 143.107201 173.064353 142.461966 171.50662 141.313603 170.358257 
C 140.16524 169.209894 138.607507 168.564659 136.983476 168.564659 
C 135.359446 168.564659 133.801712 169.209894 132.653349 170.358257 
C 131.504986 171.50662 130.859752 173.064353 130.859752 174.688384 
C 130.859752 176.312414 131.504986 177.870148 132.653349 179.018511 
C 133.801712 180.166874 135.359446 180.812108 136.983476 180.812108 
z
" clip-path="url(#p1fd84912dc)" style="fill: #ffa500; fill-opacity: 0.5; stroke: #ffa500; stroke-opacity: 0.5"/>
    <path d="M 63.198352 282.457849 
C 64.822383 282.457849 66.380116 281.812615 67.528479 280.664252 
C 68.676842 279.515889 69.322077 277.958156 69.322077 276.334125 
C 69.322077 274.710094 68.676842 273.152361 67.528479 272.003998 
C 66.380116 270.855635 64.822383 270.210401 63.198352 270.210401 
C 61.574322 270.210401 60.016588 270.855635 58.868225 272.003998 
C 57.719862 273.152361 57.074628 274.710094 57.074628 276.334125 
C 57.074628 277.958156 57.719862 279.515889 58.868225 280.664252 
C 60.016588 281.812615 61.574322 282.457849 63.198352 282.457849 
z
" clip-path="url(#p1fd84912dc)" style="fill: #0000ff; fill-opacity: 0.5; stroke: #0000ff; stroke-opacity: 0.5"/>
   </g>
   <g id="patch_3">
    <path d="M 46.965625 288.430125 
L 46.965625 22.318125 
" style="fill: none; stroke: #000000; stroke-width: 0.8; stroke-linejoin: miter; stroke-linecap: square"/>
   </g>
   <g id="patch_4">
    <path d="M 404.085625 288.430125 
L 404.085625 22.318125 
" style="fill: none; stroke: #000000; stroke-width: 0.8; stroke-linejoin: miter; stroke-linecap: square"/>
   </g>
   <g id="patch_5">
    <path d="M 46.965625 288.430125 
L 404.085625 288.430125 
" style="fill: none; stroke: #000000; stroke-width: 0.8; stroke-linejoin: miter; stroke-linecap: square"/>
   </g>
   <g id="patch_6">
    <path d="M 46.965625 22.318125 
L 404.085625 22.318125 
" style="fill: none; stroke: #000000; stroke-width: 0.8; stroke-linejoin: miter; stroke-linecap: square"/>
   </g>
   <g id="text_15">
    <!-- Cote Basque Adour -->
    <g transform="translate(167.835625 16.318125) scale(0.12 -0.12)">
     <defs>
      <path id="DejaVuSans-43" d="M 4122 4306 
L 4122 3641 
Q 3803 3938 3442 4084 
Q 3081 4231 2675 4231 
Q 1875 4231 1450 3742 
Q 1025 3253 1025 2328 
Q 1025 1406 1450 917 
Q 1875 428 2675 428 
Q 3081 428 3442 575 
Q 3803 722 4122 1019 
L 4122 359 
Q 3791 134 3420 21 
Q 3050 -91 2638 -91 
Q 1578 -91 968 557 
Q 359 1206 359 2328 
Q 359 3453 968 4101 
Q 1578 4750 2638 4750 
Q 3056 4750 3426 4639 
Q 3797 4528 4122 4306 
z
" transform="scale(0.015625)"/>
      <path id="DejaVuSans-42" d="M 1259 2228 
L 1259 519 
L 2272 519 
Q 2781 519 3026 730 
Q 3272 941 3272 1375 
Q 3272 1813 3026 2020 
Q 2781 2228 2272 2228 
L 1259 2228 
z
M 1259 4147 
L 1259 2741 
L 2194 2741 
Q 2656 2741 2882 2914 
Q 3109 3088 3109 3444 
Q 3109 3797 2882 3972 
Q 2656 4147 2194 4147 
L 1259 4147 
z
M 628 4666 
L 2241 4666 
Q 2963 4666 3353 4366 
Q 3744 4066 3744 3513 
Q 3744 3084 3544 2831 
Q 3344 2578 2956 2516 
Q 3422 2416 3680 2098 
Q 3938 1781 3938 1306 
Q 3938 681 3513 340 
Q 3088 0 2303 0 
L 628 0 
L 628 4666 
z
" transform="scale(0.015625)"/>
      <path id="DejaVuSans-73" d="M 2834 3397 
L 2834 2853 
Q 2591 2978 2328 3040 
Q 2066 3103 1784 3103 
Q 1356 3103 1142 2972 
Q 928 2841 928 2578 
Q 928 2378 1081 2264 
Q 1234 2150 1697 2047 
L 1894 2003 
Q 2506 1872 2764 1633 
Q 3022 1394 3022 966 
Q 3022 478 2636 193 
Q 2250 -91 1575 -91 
Q 1294 -91 989 -36 
Q 684 19 347 128 
L 347 722 
Q 666 556 975 473 
Q 1284 391 1588 391 
Q 1994 391 2212 530 
Q 2431 669 2431 922 
Q 2431 1156 2273 1281 
Q 2116 1406 1581 1522 
L 1381 1569 
Q 847 1681 609 1914 
Q 372 2147 372 2553 
Q 372 3047 722 3315 
Q 1072 3584 1716 3584 
Q 2034 3584 2315 3537 
Q 2597 3491 2834 3397 
z
" transform="scale(0.015625)"/>
      <path id="DejaVuSans-71" d="M 947 1747 
Q 947 1113 1208 752 
Q 1469 391 1925 391 
Q 2381 391 2643 752 
Q 2906 1113 2906 1747 
Q 2906 2381 2643 2742 
Q 2381 3103 1925 3103 
Q 1469 3103 1208 2742 
Q 947 2381 947 1747 
z
M 2906 525 
Q 2725 213 2448 61 
Q 2172 -91 1784 -91 
Q 1150 -91 751 415 
Q 353 922 353 1747 
Q 353 2572 751 3078 
Q 1150 3584 1784 3584 
Q 2172 3584 2448 3432 
Q 2725 3281 2906 2969 
L 2906 3500 
L 3481 3500 
L 3481 -1331 
L 2906 -1331 
L 2906 525 
z
" transform="scale(0.015625)"/>
      <path id="DejaVuSans-41" d="M 2188 4044 
L 1331 1722 
L 3047 1722 
L 2188 4044 
z
M 1831 4666 
L 2547 4666 
L 4325 0 
L 3669 0 
L 3244 1197 
L 1141 1197 
L 716 0 
L 50 0 
L 1831 4666 
z
" transform="scale(0.015625)"/>
      <path id="DejaVuSans-64" d="M 2906 2969 
L 2906 4863 
L 3481 4863 
L 3481 0 
L 2906 0 
L 2906 525 
Q 2725 213 2448 61 
Q 2172 -91 1784 -91 
Q 1150 -91 751 415 
Q 353 922 353 1747 
Q 353 2572 751 3078 
Q 1150 3584 1784 3584 
Q 2172 3584 2448 3432 
Q 2725 3281 2906 2969 
z
M 947 1747 
Q 947 1113 1208 752 
Q 1469 391 1925 391 
Q 2381 391 2643 752 
Q 2906 1113 2906 1747 
Q 2906 2381 2643 2742 
Q 2381 3103 1925 3103 
Q 1469 3103 1208 2742 
Q 947 2381 947 1747 
z
" transform="scale(0.015625)"/>
     </defs>
     <use xlink:href="#DejaVuSans-43"/>
     <use xlink:href="#DejaVuSans-6f" x="69.824219"/>
     <use xlink:href="#DejaVuSans-74" x="131.005859"/>
     <use xlink:href="#DejaVuSans-65" x="170.214844"/>
     <use xlink:href="#DejaVuSans-20" x="231.738281"/>
     <use xlink:href="#DejaVuSans-42" x="263.525391"/>
     <use xlink:href="#DejaVuSans-61" x="332.128906"/>
     <use xlink:href="#DejaVuSans-73" x="393.408203"/>
     <use xlink:href="#DejaVuSans-71" x="445.507812"/>
     <use xlink:href="#DejaVuSans-75" x="508.984375"/>
     <use xlink:href="#DejaVuSans-65" x="572.363281"/>
     <use xlink:href="#DejaVuSans-20" x="633.886719"/>
     <use xlink:href="#DejaVuSans-41" x="665.673828"/>
     <use xlink:href="#DejaVuSans-64" x="732.332031"/>
     <use xlink:href="#DejaVuSans-6f" x="795.808594"/>
     <use xlink:href="#DejaVuSans-75" x="856.990234"/>
     <use xlink:href="#DejaVuSans-72" x="920.369141"/>
    </g>
   </g>
   <g id="legend_1">
    <g id="patch_7">
     <path d="M 411.085625 147.743125 
L 579.662188 147.743125 
Q 581.662188 147.743125 581.662188 145.743125 
L 581.662188 29.318125 
Q 581.662188 27.318125 579.662188 27.318125 
L 411.085625 27.318125 
Q 409.085625 27.318125 409.085625 29.318125 
L 409.085625 145.743125 
Q 409.085625 147.743125 411.085625 147.743125 
z
" style="fill: #ffffff; opacity: 0.8; stroke: #cccccc; stroke-linejoin: miter"/>
    </g>
    <g id="line2d_25">
     <path d="M 413.085625 35.416562 
L 423.085625 35.416562 
L 433.085625 35.416562 
" style="fill: none; stroke: #ffffff; stroke-opacity: 0.5; stroke-width: 1.5; stroke-linecap: square"/>
     <defs>
      <path id="mab9b5a2273" d="M 0 2.5 
C 0.663008 2.5 1.29895 2.236584 1.767767 1.767767 
C 2.236584 1.29895 2.5 0.663008 2.5 0 
C 2.5 -0.663008 2.236584 -1.29895 1.767767 -1.767767 
C 1.29895 -2.236584 0.663008 -2.5 0 -2.5 
C -0.663008 -2.5 -1.29895 -2.236584 -1.767767 -1.767767 
C -2.236584 -1.29895 -2.5 -0.663008 -2.5 0 
C -2.5 0.663008 -2.236584 1.29895 -1.767767 1.767767 
C -1.29895 2.236584 -0.663008 2.5 0 2.5 
z
" style="stroke: #ffffff; stroke-opacity: 0.5"/>
     </defs>
     <g>
      <use xlink:href="#mab9b5a2273" x="423.085625" y="35.416562" style="fill: #ff0000; fill-opacity: 0.5; stroke: #ffffff; stroke-opacity: 0.5"/>
     </g>
    </g>
    <g id="text_16">
     <!-- Micro exploitation 2010 -->
     <g transform="translate(441.085625 38.916562) scale(0.1 -0.1)">
      <defs>
       <path id="DejaVuSans-4d" d="M 628 4666 
L 1569 4666 
L 2759 1491 
L 3956 4666 
L 4897 4666 
L 4897 0 
L 4281 0 
L 4281 4097 
L 3078 897 
L 2444 897 
L 1241 4097 
L 1241 0 
L 628 0 
L 628 4666 
z
" transform="scale(0.015625)"/>
      </defs>
      <use xlink:href="#DejaVuSans-4d"/>
      <use xlink:href="#DejaVuSans-69" x="86.279297"/>
      <use xlink:href="#DejaVuSans-63" x="114.0625"/>
      <use xlink:href="#DejaVuSans-72" x="169.042969"/>
      <use xlink:href="#DejaVuSans-6f" x="207.90625"/>
      <use xlink:href="#DejaVuSans-20" x="269.087891"/>
      <use xlink:href="#DejaVuSans-65" x="300.875"/>
      <use xlink:href="#DejaVuSans-78" x="360.648438"/>
      <use xlink:href="#DejaVuSans-70" x="419.828125"/>
      <use xlink:href="#DejaVuSans-6c" x="483.304688"/>
      <use xlink:href="#DejaVuSans-6f" x="511.087891"/>
      <use xlink:href="#DejaVuSans-69" x="572.269531"/>
      <use xlink:href="#DejaVuSans-74" x="600.052734"/>
      <use xlink:href="#DejaVuSans-61" x="639.261719"/>
      <use xlink:href="#DejaVuSans-74" x="700.541016"/>
      <use xlink:href="#DejaVuSans-69" x="739.75"/>
      <use xlink:href="#DejaVuSans-6f" x="767.533203"/>
      <use xlink:href="#DejaVuSans-6e" x="828.714844"/>
      <use xlink:href="#DejaVuSans-20" x="892.09375"/>
      <use xlink:href="#DejaVuSans-32" x="923.880859"/>
      <use xlink:href="#DejaVuSans-30" x="987.503906"/>
      <use xlink:href="#DejaVuSans-31" x="1051.126953"/>
      <use xlink:href="#DejaVuSans-30" x="1114.75"/>
     </g>
    </g>
    <g id="line2d_26">
     <path d="M 413.085625 50.094688 
L 423.085625 50.094688 
L 433.085625 50.094688 
" style="fill: none; stroke: #ffffff; stroke-width: 1.5; stroke-linecap: square"/>
     <defs>
      <path id="m2e1b91af43" d="M 0 2.5 
C 0.663008 2.5 1.29895 2.236584 1.767767 1.767767 
C 2.236584 1.29895 2.5 0.663008 2.5 0 
C 2.5 -0.663008 2.236584 -1.29895 1.767767 -1.767767 
C 1.29895 -2.236584 0.663008 -2.5 0 -2.5 
C -0.663008 -2.5 -1.29895 -2.236584 -1.767767 -1.767767 
C -2.236584 -1.29895 -2.5 -0.663008 -2.5 0 
C -2.5 0.663008 -2.236584 1.29895 -1.767767 1.767767 
C -1.29895 2.236584 -0.663008 2.5 0 2.5 
z
" style="stroke: #ffffff"/>
     </defs>
     <g>
      <use xlink:href="#m2e1b91af43" x="423.085625" y="50.094688" style="fill: #ff0000; stroke: #ffffff"/>
     </g>
    </g>
    <g id="text_17">
     <!-- Micro exploitation 2020 -->
     <g transform="translate(441.085625 53.594688) scale(0.1 -0.1)">
      <use xlink:href="#DejaVuSans-4d"/>
      <use xlink:href="#DejaVuSans-69" x="86.279297"/>
      <use xlink:href="#DejaVuSans-63" x="114.0625"/>
      <use xlink:href="#DejaVuSans-72" x="169.042969"/>
      <use xlink:href="#DejaVuSans-6f" x="207.90625"/>
      <use xlink:href="#DejaVuSans-20" x="269.087891"/>
      <use xlink:href="#DejaVuSans-65" x="300.875"/>
      <use xlink:href="#DejaVuSans-78" x="360.648438"/>
      <use xlink:href="#DejaVuSans-70" x="419.828125"/>
      <use xlink:href="#DejaVuSans-6c" x="483.304688"/>
      <use xlink:href="#DejaVuSans-6f" x="511.087891"/>
      <use xlink:href="#DejaVuSans-69" x="572.269531"/>
      <use xlink:href="#DejaVuSans-74" x="600.052734"/>
      <use xlink:href="#DejaVuSans-61" x="639.261719"/>
      <use xlink:href="#DejaVuSans-74" x="700.541016"/>
      <use xlink:href="#DejaVuSans-69" x="739.75"/>
      <use xlink:href="#DejaVuSans-6f" x="767.533203"/>
      <use xlink:href="#DejaVuSans-6e" x="828.714844"/>
      <use xlink:href="#DejaVuSans-20" x="892.09375"/>
      <use xlink:href="#DejaVuSans-32" x="923.880859"/>
      <use xlink:href="#DejaVuSans-30" x="987.503906"/>
      <use xlink:href="#DejaVuSans-32" x="1051.126953"/>
      <use xlink:href="#DejaVuSans-30" x="1114.75"/>
     </g>
    </g>
    <g id="line2d_27">
     <path d="M 413.085625 64.772812 
L 423.085625 64.772812 
L 433.085625 64.772812 
" style="fill: none; stroke: #ffffff; stroke-opacity: 0.5; stroke-width: 1.5; stroke-linecap: square"/>
     <defs>
      <path id="mddfd8d047c" d="M 0 2.5 
C 0.663008 2.5 1.29895 2.236584 1.767767 1.767767 
C 2.236584 1.29895 2.5 0.663008 2.5 0 
C 2.5 -0.663008 2.236584 -1.29895 1.767767 -1.767767 
C 1.29895 -2.236584 0.663008 -2.5 0 -2.5 
C -0.663008 -2.5 -1.29895 -2.236584 -1.767767 -1.767767 
C -2.236584 -1.29895 -2.5 -0.663008 -2.5 0 
C -2.5 0.663008 -2.236584 1.29895 -1.767767 1.767767 
C -1.29895 2.236584 -0.663008 2.5 0 2.5 
z
" style="stroke: #ffffff; stroke-opacity: 0.5"/>
     </defs>
     <g>
      <use xlink:href="#mddfd8d047c" x="423.085625" y="64.772812" style="fill: #ffa500; fill-opacity: 0.5; stroke: #ffffff; stroke-opacity: 0.5"/>
     </g>
    </g>
    <g id="text_18">
     <!-- Petite exploitation 2010 -->
     <g transform="translate(441.085625 68.272812) scale(0.1 -0.1)">
      <defs>
       <path id="DejaVuSans-50" d="M 1259 4147 
L 1259 2394 
L 2053 2394 
Q 2494 2394 2734 2622 
Q 2975 2850 2975 3272 
Q 2975 3691 2734 3919 
Q 2494 4147 2053 4147 
L 1259 4147 
z
M 628 4666 
L 2053 4666 
Q 2838 4666 3239 4311 
Q 3641 3956 3641 3272 
Q 3641 2581 3239 2228 
Q 2838 1875 2053 1875 
L 1259 1875 
L 1259 0 
L 628 0 
L 628 4666 
z
" transform="scale(0.015625)"/>
      </defs>
      <use xlink:href="#DejaVuSans-50"/>
      <use xlink:href="#DejaVuSans-65" x="56.677734"/>
      <use xlink:href="#DejaVuSans-74" x="118.201172"/>
      <use xlink:href="#DejaVuSans-69" x="157.410156"/>
      <use xlink:href="#DejaVuSans-74" x="185.193359"/>
      <use xlink:href="#DejaVuSans-65" x="224.402344"/>
      <use xlink:href="#DejaVuSans-20" x="285.925781"/>
      <use xlink:href="#DejaVuSans-65" x="317.712891"/>
      <use xlink:href="#DejaVuSans-78" x="377.486328"/>
      <use xlink:href="#DejaVuSans-70" x="436.666016"/>
      <use xlink:href="#DejaVuSans-6c" x="500.142578"/>
      <use xlink:href="#DejaVuSans-6f" x="527.925781"/>
      <use xlink:href="#DejaVuSans-69" x="589.107422"/>
      <use xlink:href="#DejaVuSans-74" x="616.890625"/>
      <use xlink:href="#DejaVuSans-61" x="656.099609"/>
      <use xlink:href="#DejaVuSans-74" x="717.378906"/>
      <use xlink:href="#DejaVuSans-69" x="756.587891"/>
      <use xlink:href="#DejaVuSans-6f" x="784.371094"/>
      <use xlink:href="#DejaVuSans-6e" x="845.552734"/>
      <use xlink:href="#DejaVuSans-20" x="908.931641"/>
      <use xlink:href="#DejaVuSans-32" x="940.71875"/>
      <use xlink:href="#DejaVuSans-30" x="1004.341797"/>
      <use xlink:href="#DejaVuSans-31" x="1067.964844"/>
      <use xlink:href="#DejaVuSans-30" x="1131.587891"/>
     </g>
    </g>
    <g id="line2d_28">
     <path d="M 413.085625 79.450938 
L 423.085625 79.450938 
L 433.085625 79.450938 
" style="fill: none; stroke: #ffffff; stroke-width: 1.5; stroke-linecap: square"/>
     <defs>
      <path id="m067881abd5" d="M 0 2.5 
C 0.663008 2.5 1.29895 2.236584 1.767767 1.767767 
C 2.236584 1.29895 2.5 0.663008 2.5 0 
C 2.5 -0.663008 2.236584 -1.29895 1.767767 -1.767767 
C 1.29895 -2.236584 0.663008 -2.5 0 -2.5 
C -0.663008 -2.5 -1.29895 -2.236584 -1.767767 -1.767767 
C -2.236584 -1.29895 -2.5 -0.663008 -2.5 0 
C -2.5 0.663008 -2.236584 1.29895 -1.767767 1.767767 
C -1.29895 2.236584 -0.663008 2.5 0 2.5 
z
" style="stroke: #ffffff"/>
     </defs>
     <g>
      <use xlink:href="#m067881abd5" x="423.085625" y="79.450938" style="fill: #ffa500; stroke: #ffffff"/>
     </g>
    </g>
    <g id="text_19">
     <!-- Petite exploitation 2020 -->
     <g transform="translate(441.085625 82.950938) scale(0.1 -0.1)">
      <use xlink:href="#DejaVuSans-50"/>
      <use xlink:href="#DejaVuSans-65" x="56.677734"/>
      <use xlink:href="#DejaVuSans-74" x="118.201172"/>
      <use xlink:href="#DejaVuSans-69" x="157.410156"/>
      <use xlink:href="#DejaVuSans-74" x="185.193359"/>
      <use xlink:href="#DejaVuSans-65" x="224.402344"/>
      <use xlink:href="#DejaVuSans-20" x="285.925781"/>
      <use xlink:href="#DejaVuSans-65" x="317.712891"/>
      <use xlink:href="#DejaVuSans-78" x="377.486328"/>
      <use xlink:href="#DejaVuSans-70" x="436.666016"/>
      <use xlink:href="#DejaVuSans-6c" x="500.142578"/>
      <use xlink:href="#DejaVuSans-6f" x="527.925781"/>
      <use xlink:href="#DejaVuSans-69" x="589.107422"/>
      <use xlink:href="#DejaVuSans-74" x="616.890625"/>
      <use xlink:href="#DejaVuSans-61" x="656.099609"/>
      <use xlink:href="#DejaVuSans-74" x="717.378906"/>
      <use xlink:href="#DejaVuSans-69" x="756.587891"/>
      <use xlink:href="#DejaVuSans-6f" x="784.371094"/>
      <use xlink:href="#DejaVuSans-6e" x="845.552734"/>
      <use xlink:href="#DejaVuSans-20" x="908.931641"/>
      <use xlink:href="#DejaVuSans-32" x="940.71875"/>
      <use xlink:href="#DejaVuSans-30" x="1004.341797"/>
      <use xlink:href="#DejaVuSans-32" x="1067.964844"/>
      <use xlink:href="#DejaVuSans-30" x="1131.587891"/>
     </g>
    </g>
    <g id="line2d_29">
     <path d="M 413.085625 94.129063 
L 423.085625 94.129063 
L 433.085625 94.129063 
" style="fill: none; stroke: #ffffff; stroke-opacity: 0.5; stroke-width: 1.5; stroke-linecap: square"/>
     <defs>
      <path id="mc678295ceb" d="M 0 2.5 
C 0.663008 2.5 1.29895 2.236584 1.767767 1.767767 
C 2.236584 1.29895 2.5 0.663008 2.5 0 
C 2.5 -0.663008 2.236584 -1.29895 1.767767 -1.767767 
C 1.29895 -2.236584 0.663008 -2.5 0 -2.5 
C -0.663008 -2.5 -1.29895 -2.236584 -1.767767 -1.767767 
C -2.236584 -1.29895 -2.5 -0.663008 -2.5 0 
C -2.5 0.663008 -2.236584 1.29895 -1.767767 1.767767 
C -1.29895 2.236584 -0.663008 2.5 0 2.5 
z
" style="stroke: #ffffff; stroke-opacity: 0.5"/>
     </defs>
     <g>
      <use xlink:href="#mc678295ceb" x="423.085625" y="94.129063" style="fill: #0000ff; fill-opacity: 0.5; stroke: #ffffff; stroke-opacity: 0.5"/>
     </g>
    </g>
    <g id="text_20">
     <!-- Moyenne exploitation 2010 -->
     <g transform="translate(441.085625 97.629063) scale(0.1 -0.1)">
      <defs>
       <path id="DejaVuSans-79" d="M 2059 -325 
Q 1816 -950 1584 -1140 
Q 1353 -1331 966 -1331 
L 506 -1331 
L 506 -850 
L 844 -850 
Q 1081 -850 1212 -737 
Q 1344 -625 1503 -206 
L 1606 56 
L 191 3500 
L 800 3500 
L 1894 763 
L 2988 3500 
L 3597 3500 
L 2059 -325 
z
" transform="scale(0.015625)"/>
      </defs>
      <use xlink:href="#DejaVuSans-4d"/>
      <use xlink:href="#DejaVuSans-6f" x="86.279297"/>
      <use xlink:href="#DejaVuSans-79" x="147.460938"/>
      <use xlink:href="#DejaVuSans-65" x="206.640625"/>
      <use xlink:href="#DejaVuSans-6e" x="268.164062"/>
      <use xlink:href="#DejaVuSans-6e" x="331.542969"/>
      <use xlink:href="#DejaVuSans-65" x="394.921875"/>
      <use xlink:href="#DejaVuSans-20" x="456.445312"/>
      <use xlink:href="#DejaVuSans-65" x="488.232422"/>
      <use xlink:href="#DejaVuSans-78" x="548.005859"/>
      <use xlink:href="#DejaVuSans-70" x="607.185547"/>
      <use xlink:href="#DejaVuSans-6c" x="670.662109"/>
      <use xlink:href="#DejaVuSans-6f" x="698.445312"/>
      <use xlink:href="#DejaVuSans-69" x="759.626953"/>
      <use xlink:href="#DejaVuSans-74" x="787.410156"/>
      <use xlink:href="#DejaVuSans-61" x="826.619141"/>
      <use xlink:href="#DejaVuSans-74" x="887.898438"/>
      <use xlink:href="#DejaVuSans-69" x="927.107422"/>
      <use xlink:href="#DejaVuSans-6f" x="954.890625"/>
      <use xlink:href="#DejaVuSans-6e" x="1016.072266"/>
      <use xlink:href="#DejaVuSans-20" x="1079.451172"/>
      <use xlink:href="#DejaVuSans-32" x="1111.238281"/>
      <use xlink:href="#DejaVuSans-30" x="1174.861328"/>
      <use xlink:href="#DejaVuSans-31" x="1238.484375"/>
      <use xlink:href="#DejaVuSans-30" x="1302.107422"/>
     </g>
    </g>
    <g id="line2d_30">
     <path d="M 413.085625 108.807187 
L 423.085625 108.807187 
L 433.085625 108.807187 
" style="fill: none; stroke: #ffffff; stroke-width: 1.5; stroke-linecap: square"/>
     <defs>
      <path id="m6c01fd62e6" d="M 0 2.5 
C 0.663008 2.5 1.29895 2.236584 1.767767 1.767767 
C 2.236584 1.29895 2.5 0.663008 2.5 0 
C 2.5 -0.663008 2.236584 -1.29895 1.767767 -1.767767 
C 1.29895 -2.236584 0.663008 -2.5 0 -2.5 
C -0.663008 -2.5 -1.29895 -2.236584 -1.767767 -1.767767 
C -2.236584 -1.29895 -2.5 -0.663008 -2.5 0 
C -2.5 0.663008 -2.236584 1.29895 -1.767767 1.767767 
C -1.29895 2.236584 -0.663008 2.5 0 2.5 
z
" style="stroke: #ffffff"/>
     </defs>
     <g>
      <use xlink:href="#m6c01fd62e6" x="423.085625" y="108.807187" style="fill: #0000ff; stroke: #ffffff"/>
     </g>
    </g>
    <g id="text_21">
     <!-- Moyenne exploitation 2020 -->
     <g transform="translate(441.085625 112.307187) scale(0.1 -0.1)">
      <use xlink:href="#DejaVuSans-4d"/>
      <use xlink:href="#DejaVuSans-6f" x="86.279297"/>
      <use xlink:href="#DejaVuSans-79" x="147.460938"/>
      <use xlink:href="#DejaVuSans-65" x="206.640625"/>
      <use xlink:href="#DejaVuSans-6e" x="268.164062"/>
      <use xlink:href="#DejaVuSans-6e" x="331.542969"/>
      <use xlink:href="#DejaVuSans-65" x="394.921875"/>
      <use xlink:href="#DejaVuSans-20" x="456.445312"/>
      <use xlink:href="#DejaVuSans-65" x="488.232422"/>
      <use xlink:href="#DejaVuSans-78" x="548.005859"/>
      <use xlink:href="#DejaVuSans-70" x="607.185547"/>
      <use xlink:href="#DejaVuSans-6c" x="670.662109"/>
      <use xlink:href="#DejaVuSans-6f" x="698.445312"/>
      <use xlink:href="#DejaVuSans-69" x="759.626953"/>
      <use xlink:href="#DejaVuSans-74" x="787.410156"/>
      <use xlink:href="#DejaVuSans-61" x="826.619141"/>
      <use xlink:href="#DejaVuSans-74" x="887.898438"/>
      <use xlink:href="#DejaVuSans-69" x="927.107422"/>
      <use xlink:href="#DejaVuSans-6f" x="954.890625"/>
      <use xlink:href="#DejaVuSans-6e" x="1016.072266"/>
      <use xlink:href="#DejaVuSans-20" x="1079.451172"/>
      <use xlink:href="#DejaVuSans-32" x="1111.238281"/>
      <use xlink:href="#DejaVuSans-30" x="1174.861328"/>
      <use xlink:href="#DejaVuSans-32" x="1238.484375"/>
      <use xlink:href="#DejaVuSans-30" x="1302.107422"/>
     </g>
    </g>
    <g id="line2d_31">
     <path d="M 413.085625 123.485312 
L 423.085625 123.485312 
L 433.085625 123.485312 
" style="fill: none; stroke: #ffffff; stroke-opacity: 0.5; stroke-width: 1.5; stroke-linecap: square"/>
     <defs>
      <path id="macf6485a12" d="M 0 2.5 
C 0.663008 2.5 1.29895 2.236584 1.767767 1.767767 
C 2.236584 1.29895 2.5 0.663008 2.5 0 
C 2.5 -0.663008 2.236584 -1.29895 1.767767 -1.767767 
C 1.29895 -2.236584 0.663008 -2.5 0 -2.5 
C -0.663008 -2.5 -1.29895 -2.236584 -1.767767 -1.767767 
C -2.236584 -1.29895 -2.5 -0.663008 -2.5 0 
C -2.5 0.663008 -2.236584 1.29895 -1.767767 1.767767 
C -1.29895 2.236584 -0.663008 2.5 0 2.5 
z
" style="stroke: #ffffff; stroke-opacity: 0.5"/>
     </defs>
     <g>
      <use xlink:href="#macf6485a12" x="423.085625" y="123.485312" style="fill: #008000; fill-opacity: 0.5; stroke: #ffffff; stroke-opacity: 0.5"/>
     </g>
    </g>
    <g id="text_22">
     <!-- Grande exploitation 2010 -->
     <g transform="translate(441.085625 126.985312) scale(0.1 -0.1)">
      <defs>
       <path id="DejaVuSans-47" d="M 3809 666 
L 3809 1919 
L 2778 1919 
L 2778 2438 
L 4434 2438 
L 4434 434 
Q 4069 175 3628 42 
Q 3188 -91 2688 -91 
Q 1594 -91 976 548 
Q 359 1188 359 2328 
Q 359 3472 976 4111 
Q 1594 4750 2688 4750 
Q 3144 4750 3555 4637 
Q 3966 4525 4313 4306 
L 4313 3634 
Q 3963 3931 3569 4081 
Q 3175 4231 2741 4231 
Q 1884 4231 1454 3753 
Q 1025 3275 1025 2328 
Q 1025 1384 1454 906 
Q 1884 428 2741 428 
Q 3075 428 3337 486 
Q 3600 544 3809 666 
z
" transform="scale(0.015625)"/>
      </defs>
      <use xlink:href="#DejaVuSans-47"/>
      <use xlink:href="#DejaVuSans-72" x="77.490234"/>
      <use xlink:href="#DejaVuSans-61" x="118.603516"/>
      <use xlink:href="#DejaVuSans-6e" x="179.882812"/>
      <use xlink:href="#DejaVuSans-64" x="243.261719"/>
      <use xlink:href="#DejaVuSans-65" x="306.738281"/>
      <use xlink:href="#DejaVuSans-20" x="368.261719"/>
      <use xlink:href="#DejaVuSans-65" x="400.048828"/>
      <use xlink:href="#DejaVuSans-78" x="459.822266"/>
      <use xlink:href="#DejaVuSans-70" x="519.001953"/>
      <use xlink:href="#DejaVuSans-6c" x="582.478516"/>
      <use xlink:href="#DejaVuSans-6f" x="610.261719"/>
      <use xlink:href="#DejaVuSans-69" x="671.443359"/>
      <use xlink:href="#DejaVuSans-74" x="699.226562"/>
      <use xlink:href="#DejaVuSans-61" x="738.435547"/>
      <use xlink:href="#DejaVuSans-74" x="799.714844"/>
      <use xlink:href="#DejaVuSans-69" x="838.923828"/>
      <use xlink:href="#DejaVuSans-6f" x="866.707031"/>
      <use xlink:href="#DejaVuSans-6e" x="927.888672"/>
      <use xlink:href="#DejaVuSans-20" x="991.267578"/>
      <use xlink:href="#DejaVuSans-32" x="1023.054688"/>
      <use xlink:href="#DejaVuSans-30" x="1086.677734"/>
      <use xlink:href="#DejaVuSans-31" x="1150.300781"/>
      <use xlink:href="#DejaVuSans-30" x="1213.923828"/>
     </g>
    </g>
    <g id="line2d_32">
     <path d="M 413.085625 138.163437 
L 423.085625 138.163437 
L 433.085625 138.163437 
" style="fill: none; stroke: #ffffff; stroke-width: 1.5; stroke-linecap: square"/>
     <defs>
      <path id="me9ad1af5d3" d="M 0 2.5 
C 0.663008 2.5 1.29895 2.236584 1.767767 1.767767 
C 2.236584 1.29895 2.5 0.663008 2.5 0 
C 2.5 -0.663008 2.236584 -1.29895 1.767767 -1.767767 
C 1.29895 -2.236584 0.663008 -2.5 0 -2.5 
C -0.663008 -2.5 -1.29895 -2.236584 -1.767767 -1.767767 
C -2.236584 -1.29895 -2.5 -0.663008 -2.5 0 
C -2.5 0.663008 -2.236584 1.29895 -1.767767 1.767767 
C -1.29895 2.236584 -0.663008 2.5 0 2.5 
z
" style="stroke: #ffffff"/>
     </defs>
     <g>
      <use xlink:href="#me9ad1af5d3" x="423.085625" y="138.163437" style="fill: #008000; stroke: #ffffff"/>
     </g>
    </g>
    <g id="text_23">
     <!-- Grande exploitation 2020 -->
     <g transform="translate(441.085625 141.663437) scale(0.1 -0.1)">
      <use xlink:href="#DejaVuSans-47"/>
      <use xlink:href="#DejaVuSans-72" x="77.490234"/>
      <use xlink:href="#DejaVuSans-61" x="118.603516"/>
      <use xlink:href="#DejaVuSans-6e" x="179.882812"/>
      <use xlink:href="#DejaVuSans-64" x="243.261719"/>
      <use xlink:href="#DejaVuSans-65" x="306.738281"/>
      <use xlink:href="#DejaVuSans-20" x="368.261719"/>
      <use xlink:href="#DejaVuSans-65" x="400.048828"/>
      <use xlink:href="#DejaVuSans-78" x="459.822266"/>
      <use xlink:href="#DejaVuSans-70" x="519.001953"/>
      <use xlink:href="#DejaVuSans-6c" x="582.478516"/>
      <use xlink:href="#DejaVuSans-6f" x="610.261719"/>
      <use xlink:href="#DejaVuSans-69" x="671.443359"/>
      <use xlink:href="#DejaVuSans-74" x="699.226562"/>
      <use xlink:href="#DejaVuSans-61" x="738.435547"/>
      <use xlink:href="#DejaVuSans-74" x="799.714844"/>
      <use xlink:href="#DejaVuSans-69" x="838.923828"/>
      <use xlink:href="#DejaVuSans-6f" x="866.707031"/>
      <use xlink:href="#DejaVuSans-6e" x="927.888672"/>
      <use xlink:href="#DejaVuSans-20" x="991.267578"/>
      <use xlink:href="#DejaVuSans-32" x="1023.054688"/>
      <use xlink:href="#DejaVuSans-30" x="1086.677734"/>
      <use xlink:href="#DejaVuSans-32" x="1150.300781"/>
      <use xlink:href="#DejaVuSans-30" x="1213.923828"/>
     </g>
    </g>
   </g>
  </g>
 </g>
 <defs>
  <clipPath id="p1fd84912dc">
   <rect x="46.965625" y="22.318125" width="357.12" height="266.112"/>
  </clipPath>
 </defs>
</svg>
