<?xml version="1.0" encoding="utf-8" standalone="no"?>
<!DOCTYPE svg PUBLIC "-//W3C//DTD SVG 1.1//EN"
  "http://www.w3.org/Graphics/SVG/1.1/DTD/svg11.dtd">
<svg xmlns:xlink="http://www.w3.org/1999/xlink" width="417.648125pt" height="325.986375pt" viewBox="0 0 417.648125 325.986375" xmlns="http://www.w3.org/2000/svg" version="1.1">
 <metadata>
  <rdf:RDF xmlns:dc="http://purl.org/dc/elements/1.1/" xmlns:cc="http://creativecommons.org/ns#" xmlns:rdf="http://www.w3.org/1999/02/22-rdf-syntax-ns#">
   <cc:Work>
    <dc:type rdf:resource="http://purl.org/dc/dcmitype/StillImage"/>
    <dc:date>2023-06-28T18:06:38.243175</dc:date>
    <dc:format>image/svg+xml</dc:format>
    <dc:creator>
     <cc:Agent>
      <dc:title>Matplotlib v3.7.1, https://matplotlib.org/</dc:title>
     </cc:Agent>
    </dc:creator>
   </cc:Work>
  </rdf:RDF>
 </metadata>
 <defs>
  <style type="text/css">*{stroke-linejoin: round; stroke-linecap: butt}</style>
 </defs>
 <g id="figure_1">
  <g id="patch_1">
   <path d="M 0 325.986375 
L 417.648125 325.986375 
L 417.648125 0 
L 0 0 
z
" style="fill: #ffffff"/>
  </g>
  <g id="axes_1">
   <g id="patch_2">
    <path d="M 53.328125 288.430125 
L 410.448125 288.430125 
L 410.448125 22.318125 
L 53.328125 22.318125 
z
" style="fill: #ffffff"/>
   </g>
   <g id="matplotlib.axis_1">
    <g id="xtick_1">
     <g id="line2d_1">
      <path d="M 63.244616 288.430125 
L 63.244616 22.318125 
" clip-path="url(#p6dcf41c526)" style="fill: none; stroke: #b0b0b0; stroke-width: 0.8; stroke-linecap: square"/>
     </g>
     <g id="line2d_2">
      <defs>
       <path id="m94583b4f47" d="M 0 0 
L 0 3.5 
" style="stroke: #000000; stroke-width: 0.8"/>
      </defs>
      <g>
       <use xlink:href="#m94583b4f47" x="63.244616" y="288.430125" style="stroke: #000000; stroke-width: 0.8"/>
      </g>
     </g>
     <g id="text_1">
      <!-- 0 -->
      <g transform="translate(60.063366 303.028562) scale(0.1 -0.1)">
       <defs>
        <path id="DejaVuSans-30" d="M 2034 4250 
Q 1547 4250 1301 3770 
Q 1056 3291 1056 2328 
Q 1056 1369 1301 889 
Q 1547 409 2034 409 
Q 2525 409 2770 889 
Q 3016 1369 3016 2328 
Q 3016 3291 2770 3770 
Q 2525 4250 2034 4250 
z
M 2034 4750 
Q 2819 4750 3233 4129 
Q 3647 3509 3647 2328 
Q 3647 1150 3233 529 
Q 2819 -91 2034 -91 
Q 1250 -91 836 529 
Q 422 1150 422 2328 
Q 422 3509 836 4129 
Q 1250 4750 2034 4750 
z
" transform="scale(0.015625)"/>
       </defs>
       <use xlink:href="#DejaVuSans-30"/>
      </g>
     </g>
    </g>
    <g id="xtick_2">
     <g id="line2d_3">
      <path d="M 126.406979 288.430125 
L 126.406979 22.318125 
" clip-path="url(#p6dcf41c526)" style="fill: none; stroke: #b0b0b0; stroke-width: 0.8; stroke-linecap: square"/>
     </g>
     <g id="line2d_4">
      <g>
       <use xlink:href="#m94583b4f47" x="126.406979" y="288.430125" style="stroke: #000000; stroke-width: 0.8"/>
      </g>
     </g>
     <g id="text_2">
      <!-- 50 -->
      <g transform="translate(120.044479 303.028562) scale(0.1 -0.1)">
       <defs>
        <path id="DejaVuSans-35" d="M 691 4666 
L 3169 4666 
L 3169 4134 
L 1269 4134 
L 1269 2991 
Q 1406 3038 1543 3061 
Q 1681 3084 1819 3084 
Q 2600 3084 3056 2656 
Q 3513 2228 3513 1497 
Q 3513 744 3044 326 
Q 2575 -91 1722 -91 
Q 1428 -91 1123 -41 
Q 819 9 494 109 
L 494 744 
Q 775 591 1075 516 
Q 1375 441 1709 441 
Q 2250 441 2565 725 
Q 2881 1009 2881 1497 
Q 2881 1984 2565 2268 
Q 2250 2553 1709 2553 
Q 1456 2553 1204 2497 
Q 953 2441 691 2322 
L 691 4666 
z
" transform="scale(0.015625)"/>
       </defs>
       <use xlink:href="#DejaVuSans-35"/>
       <use xlink:href="#DejaVuSans-30" x="63.623047"/>
      </g>
     </g>
    </g>
    <g id="xtick_3">
     <g id="line2d_5">
      <path d="M 189.569342 288.430125 
L 189.569342 22.318125 
" clip-path="url(#p6dcf41c526)" style="fill: none; stroke: #b0b0b0; stroke-width: 0.8; stroke-linecap: square"/>
     </g>
     <g id="line2d_6">
      <g>
       <use xlink:href="#m94583b4f47" x="189.569342" y="288.430125" style="stroke: #000000; stroke-width: 0.8"/>
      </g>
     </g>
     <g id="text_3">
      <!-- 100 -->
      <g transform="translate(180.025592 303.028562) scale(0.1 -0.1)">
       <defs>
        <path id="DejaVuSans-31" d="M 794 531 
L 1825 531 
L 1825 4091 
L 703 3866 
L 703 4441 
L 1819 4666 
L 2450 4666 
L 2450 531 
L 3481 531 
L 3481 0 
L 794 0 
L 794 531 
z
" transform="scale(0.015625)"/>
       </defs>
       <use xlink:href="#DejaVuSans-31"/>
       <use xlink:href="#DejaVuSans-30" x="63.623047"/>
       <use xlink:href="#DejaVuSans-30" x="127.246094"/>
      </g>
     </g>
    </g>
    <g id="xtick_4">
     <g id="line2d_7">
      <path d="M 252.731705 288.430125 
L 252.731705 22.318125 
" clip-path="url(#p6dcf41c526)" style="fill: none; stroke: #b0b0b0; stroke-width: 0.8; stroke-linecap: square"/>
     </g>
     <g id="line2d_8">
      <g>
       <use xlink:href="#m94583b4f47" x="252.731705" y="288.430125" style="stroke: #000000; stroke-width: 0.8"/>
      </g>
     </g>
     <g id="text_4">
      <!-- 150 -->
      <g transform="translate(243.187955 303.028562) scale(0.1 -0.1)">
       <use xlink:href="#DejaVuSans-31"/>
       <use xlink:href="#DejaVuSans-35" x="63.623047"/>
       <use xlink:href="#DejaVuSans-30" x="127.246094"/>
      </g>
     </g>
    </g>
    <g id="xtick_5">
     <g id="line2d_9">
      <path d="M 315.894068 288.430125 
L 315.894068 22.318125 
" clip-path="url(#p6dcf41c526)" style="fill: none; stroke: #b0b0b0; stroke-width: 0.8; stroke-linecap: square"/>
     </g>
     <g id="line2d_10">
      <g>
       <use xlink:href="#m94583b4f47" x="315.894068" y="288.430125" style="stroke: #000000; stroke-width: 0.8"/>
      </g>
     </g>
     <g id="text_5">
      <!-- 200 -->
      <g transform="translate(306.350318 303.028562) scale(0.1 -0.1)">
       <defs>
        <path id="DejaVuSans-32" d="M 1228 531 
L 3431 531 
L 3431 0 
L 469 0 
L 469 531 
Q 828 903 1448 1529 
Q 2069 2156 2228 2338 
Q 2531 2678 2651 2914 
Q 2772 3150 2772 3378 
Q 2772 3750 2511 3984 
Q 2250 4219 1831 4219 
Q 1534 4219 1204 4116 
Q 875 4013 500 3803 
L 500 4441 
Q 881 4594 1212 4672 
Q 1544 4750 1819 4750 
Q 2544 4750 2975 4387 
Q 3406 4025 3406 3419 
Q 3406 3131 3298 2873 
Q 3191 2616 2906 2266 
Q 2828 2175 2409 1742 
Q 1991 1309 1228 531 
z
" transform="scale(0.015625)"/>
       </defs>
       <use xlink:href="#DejaVuSans-32"/>
       <use xlink:href="#DejaVuSans-30" x="63.623047"/>
       <use xlink:href="#DejaVuSans-30" x="127.246094"/>
      </g>
     </g>
    </g>
    <g id="xtick_6">
     <g id="line2d_11">
      <path d="M 379.056431 288.430125 
L 379.056431 22.318125 
" clip-path="url(#p6dcf41c526)" style="fill: none; stroke: #b0b0b0; stroke-width: 0.8; stroke-linecap: square"/>
     </g>
     <g id="line2d_12">
      <g>
       <use xlink:href="#m94583b4f47" x="379.056431" y="288.430125" style="stroke: #000000; stroke-width: 0.8"/>
      </g>
     </g>
     <g id="text_6">
      <!-- 250 -->
      <g transform="translate(369.512681 303.028562) scale(0.1 -0.1)">
       <use xlink:href="#DejaVuSans-32"/>
       <use xlink:href="#DejaVuSans-35" x="63.623047"/>
       <use xlink:href="#DejaVuSans-30" x="127.246094"/>
      </g>
     </g>
    </g>
    <g id="text_7">
     <!-- Nombre exploitation 2010 - 2020 -->
     <g transform="translate(148.852188 316.706687) scale(0.1 -0.1)">
      <defs>
       <path id="DejaVuSans-4e" d="M 628 4666 
L 1478 4666 
L 3547 763 
L 3547 4666 
L 4159 4666 
L 4159 0 
L 3309 0 
L 1241 3903 
L 1241 0 
L 628 0 
L 628 4666 
z
" transform="scale(0.015625)"/>
       <path id="DejaVuSans-6f" d="M 1959 3097 
Q 1497 3097 1228 2736 
Q 959 2375 959 1747 
Q 959 1119 1226 758 
Q 1494 397 1959 397 
Q 2419 397 2687 759 
Q 2956 1122 2956 1747 
Q 2956 2369 2687 2733 
Q 2419 3097 1959 3097 
z
M 1959 3584 
Q 2709 3584 3137 3096 
Q 3566 2609 3566 1747 
Q 3566 888 3137 398 
Q 2709 -91 1959 -91 
Q 1206 -91 779 398 
Q 353 888 353 1747 
Q 353 2609 779 3096 
Q 1206 3584 1959 3584 
z
" transform="scale(0.015625)"/>
       <path id="DejaVuSans-6d" d="M 3328 2828 
Q 3544 3216 3844 3400 
Q 4144 3584 4550 3584 
Q 5097 3584 5394 3201 
Q 5691 2819 5691 2113 
L 5691 0 
L 5113 0 
L 5113 2094 
Q 5113 2597 4934 2840 
Q 4756 3084 4391 3084 
Q 3944 3084 3684 2787 
Q 3425 2491 3425 1978 
L 3425 0 
L 2847 0 
L 2847 2094 
Q 2847 2600 2669 2842 
Q 2491 3084 2119 3084 
Q 1678 3084 1418 2786 
Q 1159 2488 1159 1978 
L 1159 0 
L 581 0 
L 581 3500 
L 1159 3500 
L 1159 2956 
Q 1356 3278 1631 3431 
Q 1906 3584 2284 3584 
Q 2666 3584 2933 3390 
Q 3200 3197 3328 2828 
z
" transform="scale(0.015625)"/>
       <path id="DejaVuSans-62" d="M 3116 1747 
Q 3116 2381 2855 2742 
Q 2594 3103 2138 3103 
Q 1681 3103 1420 2742 
Q 1159 2381 1159 1747 
Q 1159 1113 1420 752 
Q 1681 391 2138 391 
Q 2594 391 2855 752 
Q 3116 1113 3116 1747 
z
M 1159 2969 
Q 1341 3281 1617 3432 
Q 1894 3584 2278 3584 
Q 2916 3584 3314 3078 
Q 3713 2572 3713 1747 
Q 3713 922 3314 415 
Q 2916 -91 2278 -91 
Q 1894 -91 1617 61 
Q 1341 213 1159 525 
L 1159 0 
L 581 0 
L 581 4863 
L 1159 4863 
L 1159 2969 
z
" transform="scale(0.015625)"/>
       <path id="DejaVuSans-72" d="M 2631 2963 
Q 2534 3019 2420 3045 
Q 2306 3072 2169 3072 
Q 1681 3072 1420 2755 
Q 1159 2438 1159 1844 
L 1159 0 
L 581 0 
L 581 3500 
L 1159 3500 
L 1159 2956 
Q 1341 3275 1631 3429 
Q 1922 3584 2338 3584 
Q 2397 3584 2469 3576 
Q 2541 3569 2628 3553 
L 2631 2963 
z
" transform="scale(0.015625)"/>
       <path id="DejaVuSans-65" d="M 3597 1894 
L 3597 1613 
L 953 1613 
Q 991 1019 1311 708 
Q 1631 397 2203 397 
Q 2534 397 2845 478 
Q 3156 559 3463 722 
L 3463 178 
Q 3153 47 2828 -22 
Q 2503 -91 2169 -91 
Q 1331 -91 842 396 
Q 353 884 353 1716 
Q 353 2575 817 3079 
Q 1281 3584 2069 3584 
Q 2775 3584 3186 3129 
Q 3597 2675 3597 1894 
z
M 3022 2063 
Q 3016 2534 2758 2815 
Q 2500 3097 2075 3097 
Q 1594 3097 1305 2825 
Q 1016 2553 972 2059 
L 3022 2063 
z
" transform="scale(0.015625)"/>
       <path id="DejaVuSans-20" transform="scale(0.015625)"/>
       <path id="DejaVuSans-78" d="M 3513 3500 
L 2247 1797 
L 3578 0 
L 2900 0 
L 1881 1375 
L 863 0 
L 184 0 
L 1544 1831 
L 300 3500 
L 978 3500 
L 1906 2253 
L 2834 3500 
L 3513 3500 
z
" transform="scale(0.015625)"/>
       <path id="DejaVuSans-70" d="M 1159 525 
L 1159 -1331 
L 581 -1331 
L 581 3500 
L 1159 3500 
L 1159 2969 
Q 1341 3281 1617 3432 
Q 1894 3584 2278 3584 
Q 2916 3584 3314 3078 
Q 3713 2572 3713 1747 
Q 3713 922 3314 415 
Q 2916 -91 2278 -91 
Q 1894 -91 1617 61 
Q 1341 213 1159 525 
z
M 3116 1747 
Q 3116 2381 2855 2742 
Q 2594 3103 2138 3103 
Q 1681 3103 1420 2742 
Q 1159 2381 1159 1747 
Q 1159 1113 1420 752 
Q 1681 391 2138 391 
Q 2594 391 2855 752 
Q 3116 1113 3116 1747 
z
" transform="scale(0.015625)"/>
       <path id="DejaVuSans-6c" d="M 603 4863 
L 1178 4863 
L 1178 0 
L 603 0 
L 603 4863 
z
" transform="scale(0.015625)"/>
       <path id="DejaVuSans-69" d="M 603 3500 
L 1178 3500 
L 1178 0 
L 603 0 
L 603 3500 
z
M 603 4863 
L 1178 4863 
L 1178 4134 
L 603 4134 
L 603 4863 
z
" transform="scale(0.015625)"/>
       <path id="DejaVuSans-74" d="M 1172 4494 
L 1172 3500 
L 2356 3500 
L 2356 3053 
L 1172 3053 
L 1172 1153 
Q 1172 725 1289 603 
Q 1406 481 1766 481 
L 2356 481 
L 2356 0 
L 1766 0 
Q 1100 0 847 248 
Q 594 497 594 1153 
L 594 3053 
L 172 3053 
L 172 3500 
L 594 3500 
L 594 4494 
L 1172 4494 
z
" transform="scale(0.015625)"/>
       <path id="DejaVuSans-61" d="M 2194 1759 
Q 1497 1759 1228 1600 
Q 959 1441 959 1056 
Q 959 750 1161 570 
Q 1363 391 1709 391 
Q 2188 391 2477 730 
Q 2766 1069 2766 1631 
L 2766 1759 
L 2194 1759 
z
M 3341 1997 
L 3341 0 
L 2766 0 
L 2766 531 
Q 2569 213 2275 61 
Q 1981 -91 1556 -91 
Q 1019 -91 701 211 
Q 384 513 384 1019 
Q 384 1609 779 1909 
Q 1175 2209 1959 2209 
L 2766 2209 
L 2766 2266 
Q 2766 2663 2505 2880 
Q 2244 3097 1772 3097 
Q 1472 3097 1187 3025 
Q 903 2953 641 2809 
L 641 3341 
Q 956 3463 1253 3523 
Q 1550 3584 1831 3584 
Q 2591 3584 2966 3190 
Q 3341 2797 3341 1997 
z
" transform="scale(0.015625)"/>
       <path id="DejaVuSans-6e" d="M 3513 2113 
L 3513 0 
L 2938 0 
L 2938 2094 
Q 2938 2591 2744 2837 
Q 2550 3084 2163 3084 
Q 1697 3084 1428 2787 
Q 1159 2491 1159 1978 
L 1159 0 
L 581 0 
L 581 3500 
L 1159 3500 
L 1159 2956 
Q 1366 3272 1645 3428 
Q 1925 3584 2291 3584 
Q 2894 3584 3203 3211 
Q 3513 2838 3513 2113 
z
" transform="scale(0.015625)"/>
       <path id="DejaVuSans-2d" d="M 313 2009 
L 1997 2009 
L 1997 1497 
L 313 1497 
L 313 2009 
z
" transform="scale(0.015625)"/>
      </defs>
      <use xlink:href="#DejaVuSans-4e"/>
      <use xlink:href="#DejaVuSans-6f" x="74.804688"/>
      <use xlink:href="#DejaVuSans-6d" x="135.986328"/>
      <use xlink:href="#DejaVuSans-62" x="233.398438"/>
      <use xlink:href="#DejaVuSans-72" x="296.875"/>
      <use xlink:href="#DejaVuSans-65" x="335.738281"/>
      <use xlink:href="#DejaVuSans-20" x="397.261719"/>
      <use xlink:href="#DejaVuSans-65" x="429.048828"/>
      <use xlink:href="#DejaVuSans-78" x="488.822266"/>
      <use xlink:href="#DejaVuSans-70" x="548.001953"/>
      <use xlink:href="#DejaVuSans-6c" x="611.478516"/>
      <use xlink:href="#DejaVuSans-6f" x="639.261719"/>
      <use xlink:href="#DejaVuSans-69" x="700.443359"/>
      <use xlink:href="#DejaVuSans-74" x="728.226562"/>
      <use xlink:href="#DejaVuSans-61" x="767.435547"/>
      <use xlink:href="#DejaVuSans-74" x="828.714844"/>
      <use xlink:href="#DejaVuSans-69" x="867.923828"/>
      <use xlink:href="#DejaVuSans-6f" x="895.707031"/>
      <use xlink:href="#DejaVuSans-6e" x="956.888672"/>
      <use xlink:href="#DejaVuSans-20" x="1020.267578"/>
      <use xlink:href="#DejaVuSans-32" x="1052.054688"/>
      <use xlink:href="#DejaVuSans-30" x="1115.677734"/>
      <use xlink:href="#DejaVuSans-31" x="1179.300781"/>
      <use xlink:href="#DejaVuSans-30" x="1242.923828"/>
      <use xlink:href="#DejaVuSans-20" x="1306.546875"/>
      <use xlink:href="#DejaVuSans-2d" x="1338.333984"/>
      <use xlink:href="#DejaVuSans-20" x="1374.417969"/>
      <use xlink:href="#DejaVuSans-32" x="1406.205078"/>
      <use xlink:href="#DejaVuSans-30" x="1469.828125"/>
      <use xlink:href="#DejaVuSans-32" x="1533.451172"/>
      <use xlink:href="#DejaVuSans-30" x="1597.074219"/>
     </g>
    </g>
   </g>
   <g id="matplotlib.axis_2">
    <g id="ytick_1">
     <g id="line2d_13">
      <path d="M 53.328125 264.363503 
L 410.448125 264.363503 
" clip-path="url(#p6dcf41c526)" style="fill: none; stroke: #b0b0b0; stroke-width: 0.8; stroke-linecap: square"/>
     </g>
     <g id="line2d_14">
      <defs>
       <path id="mb35638517c" d="M 0 0 
L -3.5 0 
" style="stroke: #000000; stroke-width: 0.8"/>
      </defs>
      <g>
       <use xlink:href="#mb35638517c" x="53.328125" y="264.363503" style="stroke: #000000; stroke-width: 0.8"/>
      </g>
     </g>
     <g id="text_8">
      <!-- 500 -->
      <g transform="translate(27.240625 268.162722) scale(0.1 -0.1)">
       <use xlink:href="#DejaVuSans-35"/>
       <use xlink:href="#DejaVuSans-30" x="63.623047"/>
       <use xlink:href="#DejaVuSans-30" x="127.246094"/>
      </g>
     </g>
    </g>
    <g id="ytick_2">
     <g id="line2d_15">
      <path d="M 53.328125 225.618612 
L 410.448125 225.618612 
" clip-path="url(#p6dcf41c526)" style="fill: none; stroke: #b0b0b0; stroke-width: 0.8; stroke-linecap: square"/>
     </g>
     <g id="line2d_16">
      <g>
       <use xlink:href="#mb35638517c" x="53.328125" y="225.618612" style="stroke: #000000; stroke-width: 0.8"/>
      </g>
     </g>
     <g id="text_9">
      <!-- 1000 -->
      <g transform="translate(20.878125 229.417831) scale(0.1 -0.1)">
       <use xlink:href="#DejaVuSans-31"/>
       <use xlink:href="#DejaVuSans-30" x="63.623047"/>
       <use xlink:href="#DejaVuSans-30" x="127.246094"/>
       <use xlink:href="#DejaVuSans-30" x="190.869141"/>
      </g>
     </g>
    </g>
    <g id="ytick_3">
     <g id="line2d_17">
      <path d="M 53.328125 186.873721 
L 410.448125 186.873721 
" clip-path="url(#p6dcf41c526)" style="fill: none; stroke: #b0b0b0; stroke-width: 0.8; stroke-linecap: square"/>
     </g>
     <g id="line2d_18">
      <g>
       <use xlink:href="#mb35638517c" x="53.328125" y="186.873721" style="stroke: #000000; stroke-width: 0.8"/>
      </g>
     </g>
     <g id="text_10">
      <!-- 1500 -->
      <g transform="translate(20.878125 190.67294) scale(0.1 -0.1)">
       <use xlink:href="#DejaVuSans-31"/>
       <use xlink:href="#DejaVuSans-35" x="63.623047"/>
       <use xlink:href="#DejaVuSans-30" x="127.246094"/>
       <use xlink:href="#DejaVuSans-30" x="190.869141"/>
      </g>
     </g>
    </g>
    <g id="ytick_4">
     <g id="line2d_19">
      <path d="M 53.328125 148.12883 
L 410.448125 148.12883 
" clip-path="url(#p6dcf41c526)" style="fill: none; stroke: #b0b0b0; stroke-width: 0.8; stroke-linecap: square"/>
     </g>
     <g id="line2d_20">
      <g>
       <use xlink:href="#mb35638517c" x="53.328125" y="148.12883" style="stroke: #000000; stroke-width: 0.8"/>
      </g>
     </g>
     <g id="text_11">
      <!-- 2000 -->
      <g transform="translate(20.878125 151.928049) scale(0.1 -0.1)">
       <use xlink:href="#DejaVuSans-32"/>
       <use xlink:href="#DejaVuSans-30" x="63.623047"/>
       <use xlink:href="#DejaVuSans-30" x="127.246094"/>
       <use xlink:href="#DejaVuSans-30" x="190.869141"/>
      </g>
     </g>
    </g>
    <g id="ytick_5">
     <g id="line2d_21">
      <path d="M 53.328125 109.383939 
L 410.448125 109.383939 
" clip-path="url(#p6dcf41c526)" style="fill: none; stroke: #b0b0b0; stroke-width: 0.8; stroke-linecap: square"/>
     </g>
     <g id="line2d_22">
      <g>
       <use xlink:href="#mb35638517c" x="53.328125" y="109.383939" style="stroke: #000000; stroke-width: 0.8"/>
      </g>
     </g>
     <g id="text_12">
      <!-- 2500 -->
      <g transform="translate(20.878125 113.183158) scale(0.1 -0.1)">
       <use xlink:href="#DejaVuSans-32"/>
       <use xlink:href="#DejaVuSans-35" x="63.623047"/>
       <use xlink:href="#DejaVuSans-30" x="127.246094"/>
       <use xlink:href="#DejaVuSans-30" x="190.869141"/>
      </g>
     </g>
    </g>
    <g id="ytick_6">
     <g id="line2d_23">
      <path d="M 53.328125 70.639048 
L 410.448125 70.639048 
" clip-path="url(#p6dcf41c526)" style="fill: none; stroke: #b0b0b0; stroke-width: 0.8; stroke-linecap: square"/>
     </g>
     <g id="line2d_24">
      <g>
       <use xlink:href="#mb35638517c" x="53.328125" y="70.639048" style="stroke: #000000; stroke-width: 0.8"/>
      </g>
     </g>
     <g id="text_13">
      <!-- 3000 -->
      <g transform="translate(20.878125 74.438267) scale(0.1 -0.1)">
       <defs>
        <path id="DejaVuSans-33" d="M 2597 2516 
Q 3050 2419 3304 2112 
Q 3559 1806 3559 1356 
Q 3559 666 3084 287 
Q 2609 -91 1734 -91 
Q 1441 -91 1130 -33 
Q 819 25 488 141 
L 488 750 
Q 750 597 1062 519 
Q 1375 441 1716 441 
Q 2309 441 2620 675 
Q 2931 909 2931 1356 
Q 2931 1769 2642 2001 
Q 2353 2234 1838 2234 
L 1294 2234 
L 1294 2753 
L 1863 2753 
Q 2328 2753 2575 2939 
Q 2822 3125 2822 3475 
Q 2822 3834 2567 4026 
Q 2313 4219 1838 4219 
Q 1578 4219 1281 4162 
Q 984 4106 628 3988 
L 628 4550 
Q 988 4650 1302 4700 
Q 1616 4750 1894 4750 
Q 2613 4750 3031 4423 
Q 3450 4097 3450 3541 
Q 3450 3153 3228 2886 
Q 3006 2619 2597 2516 
z
" transform="scale(0.015625)"/>
       </defs>
       <use xlink:href="#DejaVuSans-33"/>
       <use xlink:href="#DejaVuSans-30" x="63.623047"/>
       <use xlink:href="#DejaVuSans-30" x="127.246094"/>
       <use xlink:href="#DejaVuSans-30" x="190.869141"/>
      </g>
     </g>
    </g>
    <g id="ytick_7">
     <g id="line2d_25">
      <path d="M 53.328125 31.894157 
L 410.448125 31.894157 
" clip-path="url(#p6dcf41c526)" style="fill: none; stroke: #b0b0b0; stroke-width: 0.8; stroke-linecap: square"/>
     </g>
     <g id="line2d_26">
      <g>
       <use xlink:href="#mb35638517c" x="53.328125" y="31.894157" style="stroke: #000000; stroke-width: 0.8"/>
      </g>
     </g>
     <g id="text_14">
      <!-- 3500 -->
      <g transform="translate(20.878125 35.693376) scale(0.1 -0.1)">
       <use xlink:href="#DejaVuSans-33"/>
       <use xlink:href="#DejaVuSans-35" x="63.623047"/>
       <use xlink:href="#DejaVuSans-30" x="127.246094"/>
       <use xlink:href="#DejaVuSans-30" x="190.869141"/>
      </g>
     </g>
    </g>
    <g id="text_15">
     <!-- Surface exploitation 2010 - 2020 -->
     <g transform="translate(14.798438 237.594437) rotate(-90) scale(0.1 -0.1)">
      <defs>
       <path id="DejaVuSans-53" d="M 3425 4513 
L 3425 3897 
Q 3066 4069 2747 4153 
Q 2428 4238 2131 4238 
Q 1616 4238 1336 4038 
Q 1056 3838 1056 3469 
Q 1056 3159 1242 3001 
Q 1428 2844 1947 2747 
L 2328 2669 
Q 3034 2534 3370 2195 
Q 3706 1856 3706 1288 
Q 3706 609 3251 259 
Q 2797 -91 1919 -91 
Q 1588 -91 1214 -16 
Q 841 59 441 206 
L 441 856 
Q 825 641 1194 531 
Q 1563 422 1919 422 
Q 2459 422 2753 634 
Q 3047 847 3047 1241 
Q 3047 1584 2836 1778 
Q 2625 1972 2144 2069 
L 1759 2144 
Q 1053 2284 737 2584 
Q 422 2884 422 3419 
Q 422 4038 858 4394 
Q 1294 4750 2059 4750 
Q 2388 4750 2728 4690 
Q 3069 4631 3425 4513 
z
" transform="scale(0.015625)"/>
       <path id="DejaVuSans-75" d="M 544 1381 
L 544 3500 
L 1119 3500 
L 1119 1403 
Q 1119 906 1312 657 
Q 1506 409 1894 409 
Q 2359 409 2629 706 
Q 2900 1003 2900 1516 
L 2900 3500 
L 3475 3500 
L 3475 0 
L 2900 0 
L 2900 538 
Q 2691 219 2414 64 
Q 2138 -91 1772 -91 
Q 1169 -91 856 284 
Q 544 659 544 1381 
z
M 1991 3584 
L 1991 3584 
z
" transform="scale(0.015625)"/>
       <path id="DejaVuSans-66" d="M 2375 4863 
L 2375 4384 
L 1825 4384 
Q 1516 4384 1395 4259 
Q 1275 4134 1275 3809 
L 1275 3500 
L 2222 3500 
L 2222 3053 
L 1275 3053 
L 1275 0 
L 697 0 
L 697 3053 
L 147 3053 
L 147 3500 
L 697 3500 
L 697 3744 
Q 697 4328 969 4595 
Q 1241 4863 1831 4863 
L 2375 4863 
z
" transform="scale(0.015625)"/>
       <path id="DejaVuSans-63" d="M 3122 3366 
L 3122 2828 
Q 2878 2963 2633 3030 
Q 2388 3097 2138 3097 
Q 1578 3097 1268 2742 
Q 959 2388 959 1747 
Q 959 1106 1268 751 
Q 1578 397 2138 397 
Q 2388 397 2633 464 
Q 2878 531 3122 666 
L 3122 134 
Q 2881 22 2623 -34 
Q 2366 -91 2075 -91 
Q 1284 -91 818 406 
Q 353 903 353 1747 
Q 353 2603 823 3093 
Q 1294 3584 2113 3584 
Q 2378 3584 2631 3529 
Q 2884 3475 3122 3366 
z
" transform="scale(0.015625)"/>
      </defs>
      <use xlink:href="#DejaVuSans-53"/>
      <use xlink:href="#DejaVuSans-75" x="63.476562"/>
      <use xlink:href="#DejaVuSans-72" x="126.855469"/>
      <use xlink:href="#DejaVuSans-66" x="167.96875"/>
      <use xlink:href="#DejaVuSans-61" x="203.173828"/>
      <use xlink:href="#DejaVuSans-63" x="264.453125"/>
      <use xlink:href="#DejaVuSans-65" x="319.433594"/>
      <use xlink:href="#DejaVuSans-20" x="380.957031"/>
      <use xlink:href="#DejaVuSans-65" x="412.744141"/>
      <use xlink:href="#DejaVuSans-78" x="472.517578"/>
      <use xlink:href="#DejaVuSans-70" x="531.697266"/>
      <use xlink:href="#DejaVuSans-6c" x="595.173828"/>
      <use xlink:href="#DejaVuSans-6f" x="622.957031"/>
      <use xlink:href="#DejaVuSans-69" x="684.138672"/>
      <use xlink:href="#DejaVuSans-74" x="711.921875"/>
      <use xlink:href="#DejaVuSans-61" x="751.130859"/>
      <use xlink:href="#DejaVuSans-74" x="812.410156"/>
      <use xlink:href="#DejaVuSans-69" x="851.619141"/>
      <use xlink:href="#DejaVuSans-6f" x="879.402344"/>
      <use xlink:href="#DejaVuSans-6e" x="940.583984"/>
      <use xlink:href="#DejaVuSans-20" x="1003.962891"/>
      <use xlink:href="#DejaVuSans-32" x="1035.75"/>
      <use xlink:href="#DejaVuSans-30" x="1099.373047"/>
      <use xlink:href="#DejaVuSans-31" x="1162.996094"/>
      <use xlink:href="#DejaVuSans-30" x="1226.619141"/>
      <use xlink:href="#DejaVuSans-20" x="1290.242188"/>
      <use xlink:href="#DejaVuSans-2d" x="1322.029297"/>
      <use xlink:href="#DejaVuSans-20" x="1358.113281"/>
      <use xlink:href="#DejaVuSans-32" x="1389.900391"/>
      <use xlink:href="#DejaVuSans-30" x="1453.523438"/>
      <use xlink:href="#DejaVuSans-32" x="1517.146484"/>
      <use xlink:href="#DejaVuSans-30" x="1580.769531"/>
     </g>
    </g>
   </g>
   <g id="PathCollection_1">
    <path d="M 394.215398 167.189474 
C 395.839428 167.189474 397.397162 166.54424 398.545525 165.395877 
C 399.693888 164.247513 400.339122 162.68978 400.339122 161.065749 
C 400.339122 159.441719 399.693888 157.883986 398.545525 156.735622 
C 397.397162 155.587259 395.839428 154.942025 394.215398 154.942025 
C 392.591367 154.942025 391.033634 155.587259 389.885271 156.735622 
C 388.736908 157.883986 388.091673 159.441719 388.091673 161.065749 
C 388.091673 162.68978 388.736908 164.247513 389.885271 165.395877 
C 391.033634 166.54424 392.591367 167.189474 394.215398 167.189474 
z
" clip-path="url(#p6dcf41c526)" style="fill: #ff0000; stroke: #ff0000"/>
    <path d="M 216.097534 40.537849 
C 217.721565 40.537849 219.279298 39.892615 220.427661 38.744252 
C 221.576024 37.595889 222.221259 36.038156 222.221259 34.414125 
C 222.221259 32.790094 221.576024 31.232361 220.427661 30.083998 
C 219.279298 28.935635 217.721565 28.290401 216.097534 28.290401 
C 214.473504 28.290401 212.91577 28.935635 211.767407 30.083998 
C 210.619044 31.232361 209.97381 32.790094 209.97381 34.414125 
C 209.97381 36.038156 210.619044 37.595889 211.767407 38.744252 
C 212.91577 39.892615 214.473504 40.537849 216.097534 40.537849 
z
" clip-path="url(#p6dcf41c526)" style="fill: #ffa500; stroke: #ffa500"/>
    <path d="M 104.931776 190.42401 
C 106.555806 190.42401 108.113539 189.778776 109.261903 188.630413 
C 110.410266 187.48205 111.0555 185.924316 111.0555 184.300286 
C 111.0555 182.676255 110.410266 181.118522 109.261903 179.970159 
C 108.113539 178.821796 106.555806 178.176561 104.931776 178.176561 
C 103.307745 178.176561 101.750012 178.821796 100.601648 179.970159 
C 99.453285 181.118522 98.808051 182.676255 98.808051 184.300286 
C 98.808051 185.924316 99.453285 187.48205 100.601648 188.630413 
C 101.750012 189.778776 103.307745 190.42401 104.931776 190.42401 
z
" clip-path="url(#p6dcf41c526)" style="fill: #0000ff; stroke: #0000ff"/>
   </g>
   <g id="PathCollection_2">
    <path d="M 298.208606 192.36203 
C 299.832637 192.36203 301.39037 191.716795 302.538733 190.568432 
C 303.687096 189.420069 304.33233 187.862336 304.33233 186.238305 
C 304.33233 184.614275 303.687096 183.056541 302.538733 181.908178 
C 301.39037 180.759815 299.832637 180.114581 298.208606 180.114581 
C 296.584575 180.114581 295.026842 180.759815 293.878479 181.908178 
C 292.730116 183.056541 292.084882 184.614275 292.084882 186.238305 
C 292.084882 187.862336 292.730116 189.420069 293.878479 190.568432 
C 295.026842 191.716795 296.584575 192.36203 298.208606 192.36203 
z
" clip-path="url(#p6dcf41c526)" style="fill: #ff0000; fill-opacity: 0.5; stroke: #ff0000; stroke-opacity: 0.5"/>
    <path d="M 185.7796 93.554808 
C 187.403631 93.554808 188.961364 92.909574 190.109727 91.761211 
C 191.25809 90.612848 191.903324 89.055115 191.903324 87.431084 
C 191.903324 85.807053 191.25809 84.24932 190.109727 83.100957 
C 188.961364 81.952594 187.403631 81.30736 185.7796 81.30736 
C 184.155569 81.30736 182.597836 81.952594 181.449473 83.100957 
C 180.30111 84.24932 179.655876 85.807053 179.655876 87.431084 
C 179.655876 89.055115 180.30111 90.612848 181.449473 91.761211 
C 182.597836 92.909574 184.155569 93.554808 185.7796 93.554808 
z
" clip-path="url(#p6dcf41c526)" style="fill: #ffa500; fill-opacity: 0.5; stroke: #ffa500; stroke-opacity: 0.5"/>
    <path d="M 108.721517 177.943506 
C 110.345548 177.943506 111.903281 177.298272 113.051644 176.149908 
C 114.200007 175.001545 114.845242 173.443812 114.845242 171.819781 
C 114.845242 170.195751 114.200007 168.638018 113.051644 167.489654 
C 111.903281 166.341291 110.345548 165.696057 108.721517 165.696057 
C 107.097487 165.696057 105.539753 166.341291 104.39139 167.489654 
C 103.243027 168.638018 102.597793 170.195751 102.597793 171.819781 
C 102.597793 173.443812 103.243027 175.001545 104.39139 176.149908 
C 105.539753 177.298272 107.097487 177.943506 108.721517 177.943506 
z
" clip-path="url(#p6dcf41c526)" style="fill: #0000ff; fill-opacity: 0.5; stroke: #0000ff; stroke-opacity: 0.5"/>
    <path d="M 69.560852 282.457849 
C 71.184883 282.457849 72.742616 281.812615 73.890979 280.664252 
C 75.039342 279.515889 75.684577 277.958156 75.684577 276.334125 
C 75.684577 274.710094 75.039342 273.152361 73.890979 272.003998 
C 72.742616 270.855635 71.184883 270.210401 69.560852 270.210401 
C 67.936822 270.210401 66.379088 270.855635 65.230725 272.003998 
C 64.082362 273.152361 63.437128 274.710094 63.437128 276.334125 
C 63.437128 277.958156 64.082362 279.515889 65.230725 280.664252 
C 66.379088 281.812615 67.936822 282.457849 69.560852 282.457849 
z
" clip-path="url(#p6dcf41c526)" style="fill: #008000; fill-opacity: 0.5; stroke: #008000; stroke-opacity: 0.5"/>
   </g>
   <g id="patch_3">
    <path d="M 53.328125 288.430125 
L 53.328125 22.318125 
" style="fill: none; stroke: #000000; stroke-width: 0.8; stroke-linejoin: miter; stroke-linecap: square"/>
   </g>
   <g id="patch_4">
    <path d="M 410.448125 288.430125 
L 410.448125 22.318125 
" style="fill: none; stroke: #000000; stroke-width: 0.8; stroke-linejoin: miter; stroke-linecap: square"/>
   </g>
   <g id="patch_5">
    <path d="M 53.328125 288.430125 
L 410.448125 288.430125 
" style="fill: none; stroke: #000000; stroke-width: 0.8; stroke-linejoin: miter; stroke-linecap: square"/>
   </g>
   <g id="patch_6">
    <path d="M 53.328125 22.318125 
L 410.448125 22.318125 
" style="fill: none; stroke: #000000; stroke-width: 0.8; stroke-linejoin: miter; stroke-linecap: square"/>
   </g>
   <g id="text_16">
    <!-- Errobi -->
    <g transform="translate(214.256563 16.318125) scale(0.12 -0.12)">
     <defs>
      <path id="DejaVuSans-45" d="M 628 4666 
L 3578 4666 
L 3578 4134 
L 1259 4134 
L 1259 2753 
L 3481 2753 
L 3481 2222 
L 1259 2222 
L 1259 531 
L 3634 531 
L 3634 0 
L 628 0 
L 628 4666 
z
" transform="scale(0.015625)"/>
     </defs>
     <use xlink:href="#DejaVuSans-45"/>
     <use xlink:href="#DejaVuSans-72" x="63.183594"/>
     <use xlink:href="#DejaVuSans-72" x="102.546875"/>
     <use xlink:href="#DejaVuSans-6f" x="141.410156"/>
     <use xlink:href="#DejaVuSans-62" x="202.591797"/>
     <use xlink:href="#DejaVuSans-69" x="266.068359"/>
    </g>
   </g>
   <g id="legend_1">
    <g id="patch_7">
     <path d="M 234.871563 147.743125 
L 403.448125 147.743125 
Q 405.448125 147.743125 405.448125 145.743125 
L 405.448125 29.318125 
Q 405.448125 27.318125 403.448125 27.318125 
L 234.871563 27.318125 
Q 232.871563 27.318125 232.871563 29.318125 
L 232.871563 145.743125 
Q 232.871563 147.743125 234.871563 147.743125 
z
" style="fill: #ffffff; opacity: 0.8; stroke: #cccccc; stroke-linejoin: miter"/>
    </g>
    <g id="line2d_27">
     <path d="M 236.871563 35.416562 
L 246.871563 35.416562 
L 256.871563 35.416562 
" style="fill: none; stroke: #ffffff; stroke-opacity: 0.5; stroke-width: 1.5; stroke-linecap: square"/>
     <defs>
      <path id="m8ab30eef3d" d="M 0 2.5 
C 0.663008 2.5 1.29895 2.236584 1.767767 1.767767 
C 2.236584 1.29895 2.5 0.663008 2.5 0 
C 2.5 -0.663008 2.236584 -1.29895 1.767767 -1.767767 
C 1.29895 -2.236584 0.663008 -2.5 0 -2.5 
C -0.663008 -2.5 -1.29895 -2.236584 -1.767767 -1.767767 
C -2.236584 -1.29895 -2.5 -0.663008 -2.5 0 
C -2.5 0.663008 -2.236584 1.29895 -1.767767 1.767767 
C -1.29895 2.236584 -0.663008 2.5 0 2.5 
z
" style="stroke: #ffffff; stroke-opacity: 0.5"/>
     </defs>
     <g>
      <use xlink:href="#m8ab30eef3d" x="246.871563" y="35.416562" style="fill: #ff0000; fill-opacity: 0.5; stroke: #ffffff; stroke-opacity: 0.5"/>
     </g>
    </g>
    <g id="text_17">
     <!-- Micro exploitation 2010 -->
     <g transform="translate(264.871563 38.916562) scale(0.1 -0.1)">
      <defs>
       <path id="DejaVuSans-4d" d="M 628 4666 
L 1569 4666 
L 2759 1491 
L 3956 4666 
L 4897 4666 
L 4897 0 
L 4281 0 
L 4281 4097 
L 3078 897 
L 2444 897 
L 1241 4097 
L 1241 0 
L 628 0 
L 628 4666 
z
" transform="scale(0.015625)"/>
      </defs>
      <use xlink:href="#DejaVuSans-4d"/>
      <use xlink:href="#DejaVuSans-69" x="86.279297"/>
      <use xlink:href="#DejaVuSans-63" x="114.0625"/>
      <use xlink:href="#DejaVuSans-72" x="169.042969"/>
      <use xlink:href="#DejaVuSans-6f" x="207.90625"/>
      <use xlink:href="#DejaVuSans-20" x="269.087891"/>
      <use xlink:href="#DejaVuSans-65" x="300.875"/>
      <use xlink:href="#DejaVuSans-78" x="360.648438"/>
      <use xlink:href="#DejaVuSans-70" x="419.828125"/>
      <use xlink:href="#DejaVuSans-6c" x="483.304688"/>
      <use xlink:href="#DejaVuSans-6f" x="511.087891"/>
      <use xlink:href="#DejaVuSans-69" x="572.269531"/>
      <use xlink:href="#DejaVuSans-74" x="600.052734"/>
      <use xlink:href="#DejaVuSans-61" x="639.261719"/>
      <use xlink:href="#DejaVuSans-74" x="700.541016"/>
      <use xlink:href="#DejaVuSans-69" x="739.75"/>
      <use xlink:href="#DejaVuSans-6f" x="767.533203"/>
      <use xlink:href="#DejaVuSans-6e" x="828.714844"/>
      <use xlink:href="#DejaVuSans-20" x="892.09375"/>
      <use xlink:href="#DejaVuSans-32" x="923.880859"/>
      <use xlink:href="#DejaVuSans-30" x="987.503906"/>
      <use xlink:href="#DejaVuSans-31" x="1051.126953"/>
      <use xlink:href="#DejaVuSans-30" x="1114.75"/>
     </g>
    </g>
    <g id="line2d_28">
     <path d="M 236.871563 50.094688 
L 246.871563 50.094688 
L 256.871563 50.094688 
" style="fill: none; stroke: #ffffff; stroke-width: 1.5; stroke-linecap: square"/>
     <defs>
      <path id="m0d5f8bb22d" d="M 0 2.5 
C 0.663008 2.5 1.29895 2.236584 1.767767 1.767767 
C 2.236584 1.29895 2.5 0.663008 2.5 0 
C 2.5 -0.663008 2.236584 -1.29895 1.767767 -1.767767 
C 1.29895 -2.236584 0.663008 -2.5 0 -2.5 
C -0.663008 -2.5 -1.29895 -2.236584 -1.767767 -1.767767 
C -2.236584 -1.29895 -2.5 -0.663008 -2.5 0 
C -2.5 0.663008 -2.236584 1.29895 -1.767767 1.767767 
C -1.29895 2.236584 -0.663008 2.5 0 2.5 
z
" style="stroke: #ffffff"/>
     </defs>
     <g>
      <use xlink:href="#m0d5f8bb22d" x="246.871563" y="50.094688" style="fill: #ff0000; stroke: #ffffff"/>
     </g>
    </g>
    <g id="text_18">
     <!-- Micro exploitation 2020 -->
     <g transform="translate(264.871563 53.594688) scale(0.1 -0.1)">
      <use xlink:href="#DejaVuSans-4d"/>
      <use xlink:href="#DejaVuSans-69" x="86.279297"/>
      <use xlink:href="#DejaVuSans-63" x="114.0625"/>
      <use xlink:href="#DejaVuSans-72" x="169.042969"/>
      <use xlink:href="#DejaVuSans-6f" x="207.90625"/>
      <use xlink:href="#DejaVuSans-20" x="269.087891"/>
      <use xlink:href="#DejaVuSans-65" x="300.875"/>
      <use xlink:href="#DejaVuSans-78" x="360.648438"/>
      <use xlink:href="#DejaVuSans-70" x="419.828125"/>
      <use xlink:href="#DejaVuSans-6c" x="483.304688"/>
      <use xlink:href="#DejaVuSans-6f" x="511.087891"/>
      <use xlink:href="#DejaVuSans-69" x="572.269531"/>
      <use xlink:href="#DejaVuSans-74" x="600.052734"/>
      <use xlink:href="#DejaVuSans-61" x="639.261719"/>
      <use xlink:href="#DejaVuSans-74" x="700.541016"/>
      <use xlink:href="#DejaVuSans-69" x="739.75"/>
      <use xlink:href="#DejaVuSans-6f" x="767.533203"/>
      <use xlink:href="#DejaVuSans-6e" x="828.714844"/>
      <use xlink:href="#DejaVuSans-20" x="892.09375"/>
      <use xlink:href="#DejaVuSans-32" x="923.880859"/>
      <use xlink:href="#DejaVuSans-30" x="987.503906"/>
      <use xlink:href="#DejaVuSans-32" x="1051.126953"/>
      <use xlink:href="#DejaVuSans-30" x="1114.75"/>
     </g>
    </g>
    <g id="line2d_29">
     <path d="M 236.871563 64.772812 
L 246.871563 64.772812 
L 256.871563 64.772812 
" style="fill: none; stroke: #ffffff; stroke-opacity: 0.5; stroke-width: 1.5; stroke-linecap: square"/>
     <defs>
      <path id="m76272f47e5" d="M 0 2.5 
C 0.663008 2.5 1.29895 2.236584 1.767767 1.767767 
C 2.236584 1.29895 2.5 0.663008 2.5 0 
C 2.5 -0.663008 2.236584 -1.29895 1.767767 -1.767767 
C 1.29895 -2.236584 0.663008 -2.5 0 -2.5 
C -0.663008 -2.5 -1.29895 -2.236584 -1.767767 -1.767767 
C -2.236584 -1.29895 -2.5 -0.663008 -2.5 0 
C -2.5 0.663008 -2.236584 1.29895 -1.767767 1.767767 
C -1.29895 2.236584 -0.663008 2.5 0 2.5 
z
" style="stroke: #ffffff; stroke-opacity: 0.5"/>
     </defs>
     <g>
      <use xlink:href="#m76272f47e5" x="246.871563" y="64.772812" style="fill: #ffa500; fill-opacity: 0.5; stroke: #ffffff; stroke-opacity: 0.5"/>
     </g>
    </g>
    <g id="text_19">
     <!-- Petite exploitation 2010 -->
     <g transform="translate(264.871563 68.272812) scale(0.1 -0.1)">
      <defs>
       <path id="DejaVuSans-50" d="M 1259 4147 
L 1259 2394 
L 2053 2394 
Q 2494 2394 2734 2622 
Q 2975 2850 2975 3272 
Q 2975 3691 2734 3919 
Q 2494 4147 2053 4147 
L 1259 4147 
z
M 628 4666 
L 2053 4666 
Q 2838 4666 3239 4311 
Q 3641 3956 3641 3272 
Q 3641 2581 3239 2228 
Q 2838 1875 2053 1875 
L 1259 1875 
L 1259 0 
L 628 0 
L 628 4666 
z
" transform="scale(0.015625)"/>
      </defs>
      <use xlink:href="#DejaVuSans-50"/>
      <use xlink:href="#DejaVuSans-65" x="56.677734"/>
      <use xlink:href="#DejaVuSans-74" x="118.201172"/>
      <use xlink:href="#DejaVuSans-69" x="157.410156"/>
      <use xlink:href="#DejaVuSans-74" x="185.193359"/>
      <use xlink:href="#DejaVuSans-65" x="224.402344"/>
      <use xlink:href="#DejaVuSans-20" x="285.925781"/>
      <use xlink:href="#DejaVuSans-65" x="317.712891"/>
      <use xlink:href="#DejaVuSans-78" x="377.486328"/>
      <use xlink:href="#DejaVuSans-70" x="436.666016"/>
      <use xlink:href="#DejaVuSans-6c" x="500.142578"/>
      <use xlink:href="#DejaVuSans-6f" x="527.925781"/>
      <use xlink:href="#DejaVuSans-69" x="589.107422"/>
      <use xlink:href="#DejaVuSans-74" x="616.890625"/>
      <use xlink:href="#DejaVuSans-61" x="656.099609"/>
      <use xlink:href="#DejaVuSans-74" x="717.378906"/>
      <use xlink:href="#DejaVuSans-69" x="756.587891"/>
      <use xlink:href="#DejaVuSans-6f" x="784.371094"/>
      <use xlink:href="#DejaVuSans-6e" x="845.552734"/>
      <use xlink:href="#DejaVuSans-20" x="908.931641"/>
      <use xlink:href="#DejaVuSans-32" x="940.71875"/>
      <use xlink:href="#DejaVuSans-30" x="1004.341797"/>
      <use xlink:href="#DejaVuSans-31" x="1067.964844"/>
      <use xlink:href="#DejaVuSans-30" x="1131.587891"/>
     </g>
    </g>
    <g id="line2d_30">
     <path d="M 236.871563 79.450938 
L 246.871563 79.450938 
L 256.871563 79.450938 
" style="fill: none; stroke: #ffffff; stroke-width: 1.5; stroke-linecap: square"/>
     <defs>
      <path id="mf74baabb67" d="M 0 2.5 
C 0.663008 2.5 1.29895 2.236584 1.767767 1.767767 
C 2.236584 1.29895 2.5 0.663008 2.5 0 
C 2.5 -0.663008 2.236584 -1.29895 1.767767 -1.767767 
C 1.29895 -2.236584 0.663008 -2.5 0 -2.5 
C -0.663008 -2.5 -1.29895 -2.236584 -1.767767 -1.767767 
C -2.236584 -1.29895 -2.5 -0.663008 -2.5 0 
C -2.5 0.663008 -2.236584 1.29895 -1.767767 1.767767 
C -1.29895 2.236584 -0.663008 2.5 0 2.5 
z
" style="stroke: #ffffff"/>
     </defs>
     <g>
      <use xlink:href="#mf74baabb67" x="246.871563" y="79.450938" style="fill: #ffa500; stroke: #ffffff"/>
     </g>
    </g>
    <g id="text_20">
     <!-- Petite exploitation 2020 -->
     <g transform="translate(264.871563 82.950938) scale(0.1 -0.1)">
      <use xlink:href="#DejaVuSans-50"/>
      <use xlink:href="#DejaVuSans-65" x="56.677734"/>
      <use xlink:href="#DejaVuSans-74" x="118.201172"/>
      <use xlink:href="#DejaVuSans-69" x="157.410156"/>
      <use xlink:href="#DejaVuSans-74" x="185.193359"/>
      <use xlink:href="#DejaVuSans-65" x="224.402344"/>
      <use xlink:href="#DejaVuSans-20" x="285.925781"/>
      <use xlink:href="#DejaVuSans-65" x="317.712891"/>
      <use xlink:href="#DejaVuSans-78" x="377.486328"/>
      <use xlink:href="#DejaVuSans-70" x="436.666016"/>
      <use xlink:href="#DejaVuSans-6c" x="500.142578"/>
      <use xlink:href="#DejaVuSans-6f" x="527.925781"/>
      <use xlink:href="#DejaVuSans-69" x="589.107422"/>
      <use xlink:href="#DejaVuSans-74" x="616.890625"/>
      <use xlink:href="#DejaVuSans-61" x="656.099609"/>
      <use xlink:href="#DejaVuSans-74" x="717.378906"/>
      <use xlink:href="#DejaVuSans-69" x="756.587891"/>
      <use xlink:href="#DejaVuSans-6f" x="784.371094"/>
      <use xlink:href="#DejaVuSans-6e" x="845.552734"/>
      <use xlink:href="#DejaVuSans-20" x="908.931641"/>
      <use xlink:href="#DejaVuSans-32" x="940.71875"/>
      <use xlink:href="#DejaVuSans-30" x="1004.341797"/>
      <use xlink:href="#DejaVuSans-32" x="1067.964844"/>
      <use xlink:href="#DejaVuSans-30" x="1131.587891"/>
     </g>
    </g>
    <g id="line2d_31">
     <path d="M 236.871563 94.129063 
L 246.871563 94.129063 
L 256.871563 94.129063 
" style="fill: none; stroke: #ffffff; stroke-opacity: 0.5; stroke-width: 1.5; stroke-linecap: square"/>
     <defs>
      <path id="ma2606d2644" d="M 0 2.5 
C 0.663008 2.5 1.29895 2.236584 1.767767 1.767767 
C 2.236584 1.29895 2.5 0.663008 2.5 0 
C 2.5 -0.663008 2.236584 -1.29895 1.767767 -1.767767 
C 1.29895 -2.236584 0.663008 -2.5 0 -2.5 
C -0.663008 -2.5 -1.29895 -2.236584 -1.767767 -1.767767 
C -2.236584 -1.29895 -2.5 -0.663008 -2.5 0 
C -2.5 0.663008 -2.236584 1.29895 -1.767767 1.767767 
C -1.29895 2.236584 -0.663008 2.5 0 2.5 
z
" style="stroke: #ffffff; stroke-opacity: 0.5"/>
     </defs>
     <g>
      <use xlink:href="#ma2606d2644" x="246.871563" y="94.129063" style="fill: #0000ff; fill-opacity: 0.5; stroke: #ffffff; stroke-opacity: 0.5"/>
     </g>
    </g>
    <g id="text_21">
     <!-- Moyenne exploitation 2010 -->
     <g transform="translate(264.871563 97.629063) scale(0.1 -0.1)">
      <defs>
       <path id="DejaVuSans-79" d="M 2059 -325 
Q 1816 -950 1584 -1140 
Q 1353 -1331 966 -1331 
L 506 -1331 
L 506 -850 
L 844 -850 
Q 1081 -850 1212 -737 
Q 1344 -625 1503 -206 
L 1606 56 
L 191 3500 
L 800 3500 
L 1894 763 
L 2988 3500 
L 3597 3500 
L 2059 -325 
z
" transform="scale(0.015625)"/>
      </defs>
      <use xlink:href="#DejaVuSans-4d"/>
      <use xlink:href="#DejaVuSans-6f" x="86.279297"/>
      <use xlink:href="#DejaVuSans-79" x="147.460938"/>
      <use xlink:href="#DejaVuSans-65" x="206.640625"/>
      <use xlink:href="#DejaVuSans-6e" x="268.164062"/>
      <use xlink:href="#DejaVuSans-6e" x="331.542969"/>
      <use xlink:href="#DejaVuSans-65" x="394.921875"/>
      <use xlink:href="#DejaVuSans-20" x="456.445312"/>
      <use xlink:href="#DejaVuSans-65" x="488.232422"/>
      <use xlink:href="#DejaVuSans-78" x="548.005859"/>
      <use xlink:href="#DejaVuSans-70" x="607.185547"/>
      <use xlink:href="#DejaVuSans-6c" x="670.662109"/>
      <use xlink:href="#DejaVuSans-6f" x="698.445312"/>
      <use xlink:href="#DejaVuSans-69" x="759.626953"/>
      <use xlink:href="#DejaVuSans-74" x="787.410156"/>
      <use xlink:href="#DejaVuSans-61" x="826.619141"/>
      <use xlink:href="#DejaVuSans-74" x="887.898438"/>
      <use xlink:href="#DejaVuSans-69" x="927.107422"/>
      <use xlink:href="#DejaVuSans-6f" x="954.890625"/>
      <use xlink:href="#DejaVuSans-6e" x="1016.072266"/>
      <use xlink:href="#DejaVuSans-20" x="1079.451172"/>
      <use xlink:href="#DejaVuSans-32" x="1111.238281"/>
      <use xlink:href="#DejaVuSans-30" x="1174.861328"/>
      <use xlink:href="#DejaVuSans-31" x="1238.484375"/>
      <use xlink:href="#DejaVuSans-30" x="1302.107422"/>
     </g>
    </g>
    <g id="line2d_32">
     <path d="M 236.871563 108.807187 
L 246.871563 108.807187 
L 256.871563 108.807187 
" style="fill: none; stroke: #ffffff; stroke-width: 1.5; stroke-linecap: square"/>
     <defs>
      <path id="m3a6bb08f2a" d="M 0 2.5 
C 0.663008 2.5 1.29895 2.236584 1.767767 1.767767 
C 2.236584 1.29895 2.5 0.663008 2.5 0 
C 2.5 -0.663008 2.236584 -1.29895 1.767767 -1.767767 
C 1.29895 -2.236584 0.663008 -2.5 0 -2.5 
C -0.663008 -2.5 -1.29895 -2.236584 -1.767767 -1.767767 
C -2.236584 -1.29895 -2.5 -0.663008 -2.5 0 
C -2.5 0.663008 -2.236584 1.29895 -1.767767 1.767767 
C -1.29895 2.236584 -0.663008 2.5 0 2.5 
z
" style="stroke: #ffffff"/>
     </defs>
     <g>
      <use xlink:href="#m3a6bb08f2a" x="246.871563" y="108.807187" style="fill: #0000ff; stroke: #ffffff"/>
     </g>
    </g>
    <g id="text_22">
     <!-- Moyenne exploitation 2020 -->
     <g transform="translate(264.871563 112.307187) scale(0.1 -0.1)">
      <use xlink:href="#DejaVuSans-4d"/>
      <use xlink:href="#DejaVuSans-6f" x="86.279297"/>
      <use xlink:href="#DejaVuSans-79" x="147.460938"/>
      <use xlink:href="#DejaVuSans-65" x="206.640625"/>
      <use xlink:href="#DejaVuSans-6e" x="268.164062"/>
      <use xlink:href="#DejaVuSans-6e" x="331.542969"/>
      <use xlink:href="#DejaVuSans-65" x="394.921875"/>
      <use xlink:href="#DejaVuSans-20" x="456.445312"/>
      <use xlink:href="#DejaVuSans-65" x="488.232422"/>
      <use xlink:href="#DejaVuSans-78" x="548.005859"/>
      <use xlink:href="#DejaVuSans-70" x="607.185547"/>
      <use xlink:href="#DejaVuSans-6c" x="670.662109"/>
      <use xlink:href="#DejaVuSans-6f" x="698.445312"/>
      <use xlink:href="#DejaVuSans-69" x="759.626953"/>
      <use xlink:href="#DejaVuSans-74" x="787.410156"/>
      <use xlink:href="#DejaVuSans-61" x="826.619141"/>
      <use xlink:href="#DejaVuSans-74" x="887.898438"/>
      <use xlink:href="#DejaVuSans-69" x="927.107422"/>
      <use xlink:href="#DejaVuSans-6f" x="954.890625"/>
      <use xlink:href="#DejaVuSans-6e" x="1016.072266"/>
      <use xlink:href="#DejaVuSans-20" x="1079.451172"/>
      <use xlink:href="#DejaVuSans-32" x="1111.238281"/>
      <use xlink:href="#DejaVuSans-30" x="1174.861328"/>
      <use xlink:href="#DejaVuSans-32" x="1238.484375"/>
      <use xlink:href="#DejaVuSans-30" x="1302.107422"/>
     </g>
    </g>
    <g id="line2d_33">
     <path d="M 236.871563 123.485312 
L 246.871563 123.485312 
L 256.871563 123.485312 
" style="fill: none; stroke: #ffffff; stroke-opacity: 0.5; stroke-width: 1.5; stroke-linecap: square"/>
     <defs>
      <path id="m8d20e04522" d="M 0 2.5 
C 0.663008 2.5 1.29895 2.236584 1.767767 1.767767 
C 2.236584 1.29895 2.5 0.663008 2.5 0 
C 2.5 -0.663008 2.236584 -1.29895 1.767767 -1.767767 
C 1.29895 -2.236584 0.663008 -2.5 0 -2.5 
C -0.663008 -2.5 -1.29895 -2.236584 -1.767767 -1.767767 
C -2.236584 -1.29895 -2.5 -0.663008 -2.5 0 
C -2.5 0.663008 -2.236584 1.29895 -1.767767 1.767767 
C -1.29895 2.236584 -0.663008 2.5 0 2.5 
z
" style="stroke: #ffffff; stroke-opacity: 0.5"/>
     </defs>
     <g>
      <use xlink:href="#m8d20e04522" x="246.871563" y="123.485312" style="fill: #008000; fill-opacity: 0.5; stroke: #ffffff; stroke-opacity: 0.5"/>
     </g>
    </g>
    <g id="text_23">
     <!-- Grande exploitation 2010 -->
     <g transform="translate(264.871563 126.985312) scale(0.1 -0.1)">
      <defs>
       <path id="DejaVuSans-47" d="M 3809 666 
L 3809 1919 
L 2778 1919 
L 2778 2438 
L 4434 2438 
L 4434 434 
Q 4069 175 3628 42 
Q 3188 -91 2688 -91 
Q 1594 -91 976 548 
Q 359 1188 359 2328 
Q 359 3472 976 4111 
Q 1594 4750 2688 4750 
Q 3144 4750 3555 4637 
Q 3966 4525 4313 4306 
L 4313 3634 
Q 3963 3931 3569 4081 
Q 3175 4231 2741 4231 
Q 1884 4231 1454 3753 
Q 1025 3275 1025 2328 
Q 1025 1384 1454 906 
Q 1884 428 2741 428 
Q 3075 428 3337 486 
Q 3600 544 3809 666 
z
" transform="scale(0.015625)"/>
       <path id="DejaVuSans-64" d="M 2906 2969 
L 2906 4863 
L 3481 4863 
L 3481 0 
L 2906 0 
L 2906 525 
Q 2725 213 2448 61 
Q 2172 -91 1784 -91 
Q 1150 -91 751 415 
Q 353 922 353 1747 
Q 353 2572 751 3078 
Q 1150 3584 1784 3584 
Q 2172 3584 2448 3432 
Q 2725 3281 2906 2969 
z
M 947 1747 
Q 947 1113 1208 752 
Q 1469 391 1925 391 
Q 2381 391 2643 752 
Q 2906 1113 2906 1747 
Q 2906 2381 2643 2742 
Q 2381 3103 1925 3103 
Q 1469 3103 1208 2742 
Q 947 2381 947 1747 
z
" transform="scale(0.015625)"/>
      </defs>
      <use xlink:href="#DejaVuSans-47"/>
      <use xlink:href="#DejaVuSans-72" x="77.490234"/>
      <use xlink:href="#DejaVuSans-61" x="118.603516"/>
      <use xlink:href="#DejaVuSans-6e" x="179.882812"/>
      <use xlink:href="#DejaVuSans-64" x="243.261719"/>
      <use xlink:href="#DejaVuSans-65" x="306.738281"/>
      <use xlink:href="#DejaVuSans-20" x="368.261719"/>
      <use xlink:href="#DejaVuSans-65" x="400.048828"/>
      <use xlink:href="#DejaVuSans-78" x="459.822266"/>
      <use xlink:href="#DejaVuSans-70" x="519.001953"/>
      <use xlink:href="#DejaVuSans-6c" x="582.478516"/>
      <use xlink:href="#DejaVuSans-6f" x="610.261719"/>
      <use xlink:href="#DejaVuSans-69" x="671.443359"/>
      <use xlink:href="#DejaVuSans-74" x="699.226562"/>
      <use xlink:href="#DejaVuSans-61" x="738.435547"/>
      <use xlink:href="#DejaVuSans-74" x="799.714844"/>
      <use xlink:href="#DejaVuSans-69" x="838.923828"/>
      <use xlink:href="#DejaVuSans-6f" x="866.707031"/>
      <use xlink:href="#DejaVuSans-6e" x="927.888672"/>
      <use xlink:href="#DejaVuSans-20" x="991.267578"/>
      <use xlink:href="#DejaVuSans-32" x="1023.054688"/>
      <use xlink:href="#DejaVuSans-30" x="1086.677734"/>
      <use xlink:href="#DejaVuSans-31" x="1150.300781"/>
      <use xlink:href="#DejaVuSans-30" x="1213.923828"/>
     </g>
    </g>
    <g id="line2d_34">
     <path d="M 236.871563 138.163437 
L 246.871563 138.163437 
L 256.871563 138.163437 
" style="fill: none; stroke: #ffffff; stroke-width: 1.5; stroke-linecap: square"/>
     <defs>
      <path id="m47e7fc33f9" d="M 0 2.5 
C 0.663008 2.5 1.29895 2.236584 1.767767 1.767767 
C 2.236584 1.29895 2.5 0.663008 2.5 0 
C 2.5 -0.663008 2.236584 -1.29895 1.767767 -1.767767 
C 1.29895 -2.236584 0.663008 -2.5 0 -2.5 
C -0.663008 -2.5 -1.29895 -2.236584 -1.767767 -1.767767 
C -2.236584 -1.29895 -2.5 -0.663008 -2.5 0 
C -2.5 0.663008 -2.236584 1.29895 -1.767767 1.767767 
C -1.29895 2.236584 -0.663008 2.5 0 2.5 
z
" style="stroke: #ffffff"/>
     </defs>
     <g>
      <use xlink:href="#m47e7fc33f9" x="246.871563" y="138.163437" style="fill: #008000; stroke: #ffffff"/>
     </g>
    </g>
    <g id="text_24">
     <!-- Grande exploitation 2020 -->
     <g transform="translate(264.871563 141.663437) scale(0.1 -0.1)">
      <use xlink:href="#DejaVuSans-47"/>
      <use xlink:href="#DejaVuSans-72" x="77.490234"/>
      <use xlink:href="#DejaVuSans-61" x="118.603516"/>
      <use xlink:href="#DejaVuSans-6e" x="179.882812"/>
      <use xlink:href="#DejaVuSans-64" x="243.261719"/>
      <use xlink:href="#DejaVuSans-65" x="306.738281"/>
      <use xlink:href="#DejaVuSans-20" x="368.261719"/>
      <use xlink:href="#DejaVuSans-65" x="400.048828"/>
      <use xlink:href="#DejaVuSans-78" x="459.822266"/>
      <use xlink:href="#DejaVuSans-70" x="519.001953"/>
      <use xlink:href="#DejaVuSans-6c" x="582.478516"/>
      <use xlink:href="#DejaVuSans-6f" x="610.261719"/>
      <use xlink:href="#DejaVuSans-69" x="671.443359"/>
      <use xlink:href="#DejaVuSans-74" x="699.226562"/>
      <use xlink:href="#DejaVuSans-61" x="738.435547"/>
      <use xlink:href="#DejaVuSans-74" x="799.714844"/>
      <use xlink:href="#DejaVuSans-69" x="838.923828"/>
      <use xlink:href="#DejaVuSans-6f" x="866.707031"/>
      <use xlink:href="#DejaVuSans-6e" x="927.888672"/>
      <use xlink:href="#DejaVuSans-20" x="991.267578"/>
      <use xlink:href="#DejaVuSans-32" x="1023.054688"/>
      <use xlink:href="#DejaVuSans-30" x="1086.677734"/>
      <use xlink:href="#DejaVuSans-32" x="1150.300781"/>
      <use xlink:href="#DejaVuSans-30" x="1213.923828"/>
     </g>
    </g>
   </g>
  </g>
 </g>
 <defs>
  <clipPath id="p6dcf41c526">
   <rect x="53.328125" y="22.318125" width="357.12" height="266.112"/>
  </clipPath>
 </defs>
</svg>
