<?xml version="1.0" encoding="utf-8" standalone="no"?>
<!DOCTYPE svg PUBLIC "-//W3C//DTD SVG 1.1//EN"
  "http://www.w3.org/Graphics/SVG/1.1/DTD/svg11.dtd">
<svg xmlns:xlink="http://www.w3.org/1999/xlink" width="612.005937pt" height="325.986375pt" viewBox="0 0 612.005937 325.986375" xmlns="http://www.w3.org/2000/svg" version="1.1">
 <metadata>
  <rdf:RDF xmlns:dc="http://purl.org/dc/elements/1.1/" xmlns:cc="http://creativecommons.org/ns#" xmlns:rdf="http://www.w3.org/1999/02/22-rdf-syntax-ns#">
   <cc:Work>
    <dc:type rdf:resource="http://purl.org/dc/dcmitype/StillImage"/>
    <dc:date>2023-06-29T17:32:09.829327</dc:date>
    <dc:format>image/svg+xml</dc:format>
    <dc:creator>
     <cc:Agent>
      <dc:title>Matplotlib v3.7.1, https://matplotlib.org/</dc:title>
     </cc:Agent>
    </dc:creator>
   </cc:Work>
  </rdf:RDF>
 </metadata>
 <defs>
  <style type="text/css">*{stroke-linejoin: round; stroke-linecap: butt}</style>
 </defs>
 <g id="figure_1">
  <g id="patch_1">
   <path d="M 0 325.986375 
L 612.005937 325.986375 
L 612.005937 0 
L 0 0 
z
" style="fill: #ffffff"/>
  </g>
  <g id="axes_1">
   <g id="patch_2">
    <path d="M 59.690625 288.430125 
L 416.810625 288.430125 
L 416.810625 22.318125 
L 59.690625 22.318125 
z
" style="fill: #ffffff"/>
   </g>
   <g id="matplotlib.axis_1">
    <g id="xtick_1">
     <g id="line2d_1">
      <path d="M 72.24107 288.430125 
L 72.24107 22.318125 
" clip-path="url(#pcc65d7594a)" style="fill: none; stroke: #b0b0b0; stroke-width: 0.8; stroke-linecap: square"/>
     </g>
     <g id="line2d_2">
      <defs>
       <path id="m4119d99a11" d="M 0 0 
L 0 3.5 
" style="stroke: #000000; stroke-width: 0.8"/>
      </defs>
      <g>
       <use xlink:href="#m4119d99a11" x="72.24107" y="288.430125" style="stroke: #000000; stroke-width: 0.8"/>
      </g>
     </g>
     <g id="text_1">
      <!-- 0 -->
      <g transform="translate(69.05982 303.028562) scale(0.1 -0.1)">
       <defs>
        <path id="DejaVuSans-30" d="M 2034 4250 
Q 1547 4250 1301 3770 
Q 1056 3291 1056 2328 
Q 1056 1369 1301 889 
Q 1547 409 2034 409 
Q 2525 409 2770 889 
Q 3016 1369 3016 2328 
Q 3016 3291 2770 3770 
Q 2525 4250 2034 4250 
z
M 2034 4750 
Q 2819 4750 3233 4129 
Q 3647 3509 3647 2328 
Q 3647 1150 3233 529 
Q 2819 -91 2034 -91 
Q 1250 -91 836 529 
Q 422 1150 422 2328 
Q 422 3509 836 4129 
Q 1250 4750 2034 4750 
z
" transform="scale(0.015625)"/>
       </defs>
       <use xlink:href="#DejaVuSans-30"/>
      </g>
     </g>
    </g>
    <g id="xtick_2">
     <g id="line2d_3">
      <path d="M 133.61244 288.430125 
L 133.61244 22.318125 
" clip-path="url(#pcc65d7594a)" style="fill: none; stroke: #b0b0b0; stroke-width: 0.8; stroke-linecap: square"/>
     </g>
     <g id="line2d_4">
      <g>
       <use xlink:href="#m4119d99a11" x="133.61244" y="288.430125" style="stroke: #000000; stroke-width: 0.8"/>
      </g>
     </g>
     <g id="text_2">
      <!-- 100 -->
      <g transform="translate(124.06869 303.028562) scale(0.1 -0.1)">
       <defs>
        <path id="DejaVuSans-31" d="M 794 531 
L 1825 531 
L 1825 4091 
L 703 3866 
L 703 4441 
L 1819 4666 
L 2450 4666 
L 2450 531 
L 3481 531 
L 3481 0 
L 794 0 
L 794 531 
z
" transform="scale(0.015625)"/>
       </defs>
       <use xlink:href="#DejaVuSans-31"/>
       <use xlink:href="#DejaVuSans-30" x="63.623047"/>
       <use xlink:href="#DejaVuSans-30" x="127.246094"/>
      </g>
     </g>
    </g>
    <g id="xtick_3">
     <g id="line2d_5">
      <path d="M 194.983809 288.430125 
L 194.983809 22.318125 
" clip-path="url(#pcc65d7594a)" style="fill: none; stroke: #b0b0b0; stroke-width: 0.8; stroke-linecap: square"/>
     </g>
     <g id="line2d_6">
      <g>
       <use xlink:href="#m4119d99a11" x="194.983809" y="288.430125" style="stroke: #000000; stroke-width: 0.8"/>
      </g>
     </g>
     <g id="text_3">
      <!-- 200 -->
      <g transform="translate(185.440059 303.028562) scale(0.1 -0.1)">
       <defs>
        <path id="DejaVuSans-32" d="M 1228 531 
L 3431 531 
L 3431 0 
L 469 0 
L 469 531 
Q 828 903 1448 1529 
Q 2069 2156 2228 2338 
Q 2531 2678 2651 2914 
Q 2772 3150 2772 3378 
Q 2772 3750 2511 3984 
Q 2250 4219 1831 4219 
Q 1534 4219 1204 4116 
Q 875 4013 500 3803 
L 500 4441 
Q 881 4594 1212 4672 
Q 1544 4750 1819 4750 
Q 2544 4750 2975 4387 
Q 3406 4025 3406 3419 
Q 3406 3131 3298 2873 
Q 3191 2616 2906 2266 
Q 2828 2175 2409 1742 
Q 1991 1309 1228 531 
z
" transform="scale(0.015625)"/>
       </defs>
       <use xlink:href="#DejaVuSans-32"/>
       <use xlink:href="#DejaVuSans-30" x="63.623047"/>
       <use xlink:href="#DejaVuSans-30" x="127.246094"/>
      </g>
     </g>
    </g>
    <g id="xtick_4">
     <g id="line2d_7">
      <path d="M 256.355179 288.430125 
L 256.355179 22.318125 
" clip-path="url(#pcc65d7594a)" style="fill: none; stroke: #b0b0b0; stroke-width: 0.8; stroke-linecap: square"/>
     </g>
     <g id="line2d_8">
      <g>
       <use xlink:href="#m4119d99a11" x="256.355179" y="288.430125" style="stroke: #000000; stroke-width: 0.8"/>
      </g>
     </g>
     <g id="text_4">
      <!-- 300 -->
      <g transform="translate(246.811429 303.028562) scale(0.1 -0.1)">
       <defs>
        <path id="DejaVuSans-33" d="M 2597 2516 
Q 3050 2419 3304 2112 
Q 3559 1806 3559 1356 
Q 3559 666 3084 287 
Q 2609 -91 1734 -91 
Q 1441 -91 1130 -33 
Q 819 25 488 141 
L 488 750 
Q 750 597 1062 519 
Q 1375 441 1716 441 
Q 2309 441 2620 675 
Q 2931 909 2931 1356 
Q 2931 1769 2642 2001 
Q 2353 2234 1838 2234 
L 1294 2234 
L 1294 2753 
L 1863 2753 
Q 2328 2753 2575 2939 
Q 2822 3125 2822 3475 
Q 2822 3834 2567 4026 
Q 2313 4219 1838 4219 
Q 1578 4219 1281 4162 
Q 984 4106 628 3988 
L 628 4550 
Q 988 4650 1302 4700 
Q 1616 4750 1894 4750 
Q 2613 4750 3031 4423 
Q 3450 4097 3450 3541 
Q 3450 3153 3228 2886 
Q 3006 2619 2597 2516 
z
" transform="scale(0.015625)"/>
       </defs>
       <use xlink:href="#DejaVuSans-33"/>
       <use xlink:href="#DejaVuSans-30" x="63.623047"/>
       <use xlink:href="#DejaVuSans-30" x="127.246094"/>
      </g>
     </g>
    </g>
    <g id="xtick_5">
     <g id="line2d_9">
      <path d="M 317.726549 288.430125 
L 317.726549 22.318125 
" clip-path="url(#pcc65d7594a)" style="fill: none; stroke: #b0b0b0; stroke-width: 0.8; stroke-linecap: square"/>
     </g>
     <g id="line2d_10">
      <g>
       <use xlink:href="#m4119d99a11" x="317.726549" y="288.430125" style="stroke: #000000; stroke-width: 0.8"/>
      </g>
     </g>
     <g id="text_5">
      <!-- 400 -->
      <g transform="translate(308.182799 303.028562) scale(0.1 -0.1)">
       <defs>
        <path id="DejaVuSans-34" d="M 2419 4116 
L 825 1625 
L 2419 1625 
L 2419 4116 
z
M 2253 4666 
L 3047 4666 
L 3047 1625 
L 3713 1625 
L 3713 1100 
L 3047 1100 
L 3047 0 
L 2419 0 
L 2419 1100 
L 313 1100 
L 313 1709 
L 2253 4666 
z
" transform="scale(0.015625)"/>
       </defs>
       <use xlink:href="#DejaVuSans-34"/>
       <use xlink:href="#DejaVuSans-30" x="63.623047"/>
       <use xlink:href="#DejaVuSans-30" x="127.246094"/>
      </g>
     </g>
    </g>
    <g id="xtick_6">
     <g id="line2d_11">
      <path d="M 379.097918 288.430125 
L 379.097918 22.318125 
" clip-path="url(#pcc65d7594a)" style="fill: none; stroke: #b0b0b0; stroke-width: 0.8; stroke-linecap: square"/>
     </g>
     <g id="line2d_12">
      <g>
       <use xlink:href="#m4119d99a11" x="379.097918" y="288.430125" style="stroke: #000000; stroke-width: 0.8"/>
      </g>
     </g>
     <g id="text_6">
      <!-- 500 -->
      <g transform="translate(369.554168 303.028562) scale(0.1 -0.1)">
       <defs>
        <path id="DejaVuSans-35" d="M 691 4666 
L 3169 4666 
L 3169 4134 
L 1269 4134 
L 1269 2991 
Q 1406 3038 1543 3061 
Q 1681 3084 1819 3084 
Q 2600 3084 3056 2656 
Q 3513 2228 3513 1497 
Q 3513 744 3044 326 
Q 2575 -91 1722 -91 
Q 1428 -91 1123 -41 
Q 819 9 494 109 
L 494 744 
Q 775 591 1075 516 
Q 1375 441 1709 441 
Q 2250 441 2565 725 
Q 2881 1009 2881 1497 
Q 2881 1984 2565 2268 
Q 2250 2553 1709 2553 
Q 1456 2553 1204 2497 
Q 953 2441 691 2322 
L 691 4666 
z
" transform="scale(0.015625)"/>
       </defs>
       <use xlink:href="#DejaVuSans-35"/>
       <use xlink:href="#DejaVuSans-30" x="63.623047"/>
       <use xlink:href="#DejaVuSans-30" x="127.246094"/>
      </g>
     </g>
    </g>
    <g id="text_7">
     <!-- Nombre exploitations 2010 - 2020 -->
     <g transform="translate(152.61 316.706687) scale(0.1 -0.1)">
      <defs>
       <path id="DejaVuSans-4e" d="M 628 4666 
L 1478 4666 
L 3547 763 
L 3547 4666 
L 4159 4666 
L 4159 0 
L 3309 0 
L 1241 3903 
L 1241 0 
L 628 0 
L 628 4666 
z
" transform="scale(0.015625)"/>
       <path id="DejaVuSans-6f" d="M 1959 3097 
Q 1497 3097 1228 2736 
Q 959 2375 959 1747 
Q 959 1119 1226 758 
Q 1494 397 1959 397 
Q 2419 397 2687 759 
Q 2956 1122 2956 1747 
Q 2956 2369 2687 2733 
Q 2419 3097 1959 3097 
z
M 1959 3584 
Q 2709 3584 3137 3096 
Q 3566 2609 3566 1747 
Q 3566 888 3137 398 
Q 2709 -91 1959 -91 
Q 1206 -91 779 398 
Q 353 888 353 1747 
Q 353 2609 779 3096 
Q 1206 3584 1959 3584 
z
" transform="scale(0.015625)"/>
       <path id="DejaVuSans-6d" d="M 3328 2828 
Q 3544 3216 3844 3400 
Q 4144 3584 4550 3584 
Q 5097 3584 5394 3201 
Q 5691 2819 5691 2113 
L 5691 0 
L 5113 0 
L 5113 2094 
Q 5113 2597 4934 2840 
Q 4756 3084 4391 3084 
Q 3944 3084 3684 2787 
Q 3425 2491 3425 1978 
L 3425 0 
L 2847 0 
L 2847 2094 
Q 2847 2600 2669 2842 
Q 2491 3084 2119 3084 
Q 1678 3084 1418 2786 
Q 1159 2488 1159 1978 
L 1159 0 
L 581 0 
L 581 3500 
L 1159 3500 
L 1159 2956 
Q 1356 3278 1631 3431 
Q 1906 3584 2284 3584 
Q 2666 3584 2933 3390 
Q 3200 3197 3328 2828 
z
" transform="scale(0.015625)"/>
       <path id="DejaVuSans-62" d="M 3116 1747 
Q 3116 2381 2855 2742 
Q 2594 3103 2138 3103 
Q 1681 3103 1420 2742 
Q 1159 2381 1159 1747 
Q 1159 1113 1420 752 
Q 1681 391 2138 391 
Q 2594 391 2855 752 
Q 3116 1113 3116 1747 
z
M 1159 2969 
Q 1341 3281 1617 3432 
Q 1894 3584 2278 3584 
Q 2916 3584 3314 3078 
Q 3713 2572 3713 1747 
Q 3713 922 3314 415 
Q 2916 -91 2278 -91 
Q 1894 -91 1617 61 
Q 1341 213 1159 525 
L 1159 0 
L 581 0 
L 581 4863 
L 1159 4863 
L 1159 2969 
z
" transform="scale(0.015625)"/>
       <path id="DejaVuSans-72" d="M 2631 2963 
Q 2534 3019 2420 3045 
Q 2306 3072 2169 3072 
Q 1681 3072 1420 2755 
Q 1159 2438 1159 1844 
L 1159 0 
L 581 0 
L 581 3500 
L 1159 3500 
L 1159 2956 
Q 1341 3275 1631 3429 
Q 1922 3584 2338 3584 
Q 2397 3584 2469 3576 
Q 2541 3569 2628 3553 
L 2631 2963 
z
" transform="scale(0.015625)"/>
       <path id="DejaVuSans-65" d="M 3597 1894 
L 3597 1613 
L 953 1613 
Q 991 1019 1311 708 
Q 1631 397 2203 397 
Q 2534 397 2845 478 
Q 3156 559 3463 722 
L 3463 178 
Q 3153 47 2828 -22 
Q 2503 -91 2169 -91 
Q 1331 -91 842 396 
Q 353 884 353 1716 
Q 353 2575 817 3079 
Q 1281 3584 2069 3584 
Q 2775 3584 3186 3129 
Q 3597 2675 3597 1894 
z
M 3022 2063 
Q 3016 2534 2758 2815 
Q 2500 3097 2075 3097 
Q 1594 3097 1305 2825 
Q 1016 2553 972 2059 
L 3022 2063 
z
" transform="scale(0.015625)"/>
       <path id="DejaVuSans-20" transform="scale(0.015625)"/>
       <path id="DejaVuSans-78" d="M 3513 3500 
L 2247 1797 
L 3578 0 
L 2900 0 
L 1881 1375 
L 863 0 
L 184 0 
L 1544 1831 
L 300 3500 
L 978 3500 
L 1906 2253 
L 2834 3500 
L 3513 3500 
z
" transform="scale(0.015625)"/>
       <path id="DejaVuSans-70" d="M 1159 525 
L 1159 -1331 
L 581 -1331 
L 581 3500 
L 1159 3500 
L 1159 2969 
Q 1341 3281 1617 3432 
Q 1894 3584 2278 3584 
Q 2916 3584 3314 3078 
Q 3713 2572 3713 1747 
Q 3713 922 3314 415 
Q 2916 -91 2278 -91 
Q 1894 -91 1617 61 
Q 1341 213 1159 525 
z
M 3116 1747 
Q 3116 2381 2855 2742 
Q 2594 3103 2138 3103 
Q 1681 3103 1420 2742 
Q 1159 2381 1159 1747 
Q 1159 1113 1420 752 
Q 1681 391 2138 391 
Q 2594 391 2855 752 
Q 3116 1113 3116 1747 
z
" transform="scale(0.015625)"/>
       <path id="DejaVuSans-6c" d="M 603 4863 
L 1178 4863 
L 1178 0 
L 603 0 
L 603 4863 
z
" transform="scale(0.015625)"/>
       <path id="DejaVuSans-69" d="M 603 3500 
L 1178 3500 
L 1178 0 
L 603 0 
L 603 3500 
z
M 603 4863 
L 1178 4863 
L 1178 4134 
L 603 4134 
L 603 4863 
z
" transform="scale(0.015625)"/>
       <path id="DejaVuSans-74" d="M 1172 4494 
L 1172 3500 
L 2356 3500 
L 2356 3053 
L 1172 3053 
L 1172 1153 
Q 1172 725 1289 603 
Q 1406 481 1766 481 
L 2356 481 
L 2356 0 
L 1766 0 
Q 1100 0 847 248 
Q 594 497 594 1153 
L 594 3053 
L 172 3053 
L 172 3500 
L 594 3500 
L 594 4494 
L 1172 4494 
z
" transform="scale(0.015625)"/>
       <path id="DejaVuSans-61" d="M 2194 1759 
Q 1497 1759 1228 1600 
Q 959 1441 959 1056 
Q 959 750 1161 570 
Q 1363 391 1709 391 
Q 2188 391 2477 730 
Q 2766 1069 2766 1631 
L 2766 1759 
L 2194 1759 
z
M 3341 1997 
L 3341 0 
L 2766 0 
L 2766 531 
Q 2569 213 2275 61 
Q 1981 -91 1556 -91 
Q 1019 -91 701 211 
Q 384 513 384 1019 
Q 384 1609 779 1909 
Q 1175 2209 1959 2209 
L 2766 2209 
L 2766 2266 
Q 2766 2663 2505 2880 
Q 2244 3097 1772 3097 
Q 1472 3097 1187 3025 
Q 903 2953 641 2809 
L 641 3341 
Q 956 3463 1253 3523 
Q 1550 3584 1831 3584 
Q 2591 3584 2966 3190 
Q 3341 2797 3341 1997 
z
" transform="scale(0.015625)"/>
       <path id="DejaVuSans-6e" d="M 3513 2113 
L 3513 0 
L 2938 0 
L 2938 2094 
Q 2938 2591 2744 2837 
Q 2550 3084 2163 3084 
Q 1697 3084 1428 2787 
Q 1159 2491 1159 1978 
L 1159 0 
L 581 0 
L 581 3500 
L 1159 3500 
L 1159 2956 
Q 1366 3272 1645 3428 
Q 1925 3584 2291 3584 
Q 2894 3584 3203 3211 
Q 3513 2838 3513 2113 
z
" transform="scale(0.015625)"/>
       <path id="DejaVuSans-73" d="M 2834 3397 
L 2834 2853 
Q 2591 2978 2328 3040 
Q 2066 3103 1784 3103 
Q 1356 3103 1142 2972 
Q 928 2841 928 2578 
Q 928 2378 1081 2264 
Q 1234 2150 1697 2047 
L 1894 2003 
Q 2506 1872 2764 1633 
Q 3022 1394 3022 966 
Q 3022 478 2636 193 
Q 2250 -91 1575 -91 
Q 1294 -91 989 -36 
Q 684 19 347 128 
L 347 722 
Q 666 556 975 473 
Q 1284 391 1588 391 
Q 1994 391 2212 530 
Q 2431 669 2431 922 
Q 2431 1156 2273 1281 
Q 2116 1406 1581 1522 
L 1381 1569 
Q 847 1681 609 1914 
Q 372 2147 372 2553 
Q 372 3047 722 3315 
Q 1072 3584 1716 3584 
Q 2034 3584 2315 3537 
Q 2597 3491 2834 3397 
z
" transform="scale(0.015625)"/>
       <path id="DejaVuSans-2d" d="M 313 2009 
L 1997 2009 
L 1997 1497 
L 313 1497 
L 313 2009 
z
" transform="scale(0.015625)"/>
      </defs>
      <use xlink:href="#DejaVuSans-4e"/>
      <use xlink:href="#DejaVuSans-6f" x="74.804688"/>
      <use xlink:href="#DejaVuSans-6d" x="135.986328"/>
      <use xlink:href="#DejaVuSans-62" x="233.398438"/>
      <use xlink:href="#DejaVuSans-72" x="296.875"/>
      <use xlink:href="#DejaVuSans-65" x="335.738281"/>
      <use xlink:href="#DejaVuSans-20" x="397.261719"/>
      <use xlink:href="#DejaVuSans-65" x="429.048828"/>
      <use xlink:href="#DejaVuSans-78" x="488.822266"/>
      <use xlink:href="#DejaVuSans-70" x="548.001953"/>
      <use xlink:href="#DejaVuSans-6c" x="611.478516"/>
      <use xlink:href="#DejaVuSans-6f" x="639.261719"/>
      <use xlink:href="#DejaVuSans-69" x="700.443359"/>
      <use xlink:href="#DejaVuSans-74" x="728.226562"/>
      <use xlink:href="#DejaVuSans-61" x="767.435547"/>
      <use xlink:href="#DejaVuSans-74" x="828.714844"/>
      <use xlink:href="#DejaVuSans-69" x="867.923828"/>
      <use xlink:href="#DejaVuSans-6f" x="895.707031"/>
      <use xlink:href="#DejaVuSans-6e" x="956.888672"/>
      <use xlink:href="#DejaVuSans-73" x="1020.267578"/>
      <use xlink:href="#DejaVuSans-20" x="1072.367188"/>
      <use xlink:href="#DejaVuSans-32" x="1104.154297"/>
      <use xlink:href="#DejaVuSans-30" x="1167.777344"/>
      <use xlink:href="#DejaVuSans-31" x="1231.400391"/>
      <use xlink:href="#DejaVuSans-30" x="1295.023438"/>
      <use xlink:href="#DejaVuSans-20" x="1358.646484"/>
      <use xlink:href="#DejaVuSans-2d" x="1390.433594"/>
      <use xlink:href="#DejaVuSans-20" x="1426.517578"/>
      <use xlink:href="#DejaVuSans-32" x="1458.304688"/>
      <use xlink:href="#DejaVuSans-30" x="1521.927734"/>
      <use xlink:href="#DejaVuSans-32" x="1585.550781"/>
      <use xlink:href="#DejaVuSans-30" x="1649.173828"/>
     </g>
    </g>
   </g>
   <g id="matplotlib.axis_2">
    <g id="ytick_1">
     <g id="line2d_13">
      <path d="M 59.690625 279.252078 
L 416.810625 279.252078 
" clip-path="url(#pcc65d7594a)" style="fill: none; stroke: #b0b0b0; stroke-width: 0.8; stroke-linecap: square"/>
     </g>
     <g id="line2d_14">
      <defs>
       <path id="mc6b2811a95" d="M 0 0 
L -3.5 0 
" style="stroke: #000000; stroke-width: 0.8"/>
      </defs>
      <g>
       <use xlink:href="#mc6b2811a95" x="59.690625" y="279.252078" style="stroke: #000000; stroke-width: 0.8"/>
      </g>
     </g>
     <g id="text_8">
      <!-- 0 -->
      <g transform="translate(46.328125 283.051297) scale(0.1 -0.1)">
       <use xlink:href="#DejaVuSans-30"/>
      </g>
     </g>
    </g>
    <g id="ytick_2">
     <g id="line2d_15">
      <path d="M 59.690625 245.652522 
L 416.810625 245.652522 
" clip-path="url(#pcc65d7594a)" style="fill: none; stroke: #b0b0b0; stroke-width: 0.8; stroke-linecap: square"/>
     </g>
     <g id="line2d_16">
      <g>
       <use xlink:href="#mc6b2811a95" x="59.690625" y="245.652522" style="stroke: #000000; stroke-width: 0.8"/>
      </g>
     </g>
     <g id="text_9">
      <!-- 2000 -->
      <g transform="translate(27.240625 249.451741) scale(0.1 -0.1)">
       <use xlink:href="#DejaVuSans-32"/>
       <use xlink:href="#DejaVuSans-30" x="63.623047"/>
       <use xlink:href="#DejaVuSans-30" x="127.246094"/>
       <use xlink:href="#DejaVuSans-30" x="190.869141"/>
      </g>
     </g>
    </g>
    <g id="ytick_3">
     <g id="line2d_17">
      <path d="M 59.690625 212.052965 
L 416.810625 212.052965 
" clip-path="url(#pcc65d7594a)" style="fill: none; stroke: #b0b0b0; stroke-width: 0.8; stroke-linecap: square"/>
     </g>
     <g id="line2d_18">
      <g>
       <use xlink:href="#mc6b2811a95" x="59.690625" y="212.052965" style="stroke: #000000; stroke-width: 0.8"/>
      </g>
     </g>
     <g id="text_10">
      <!-- 4000 -->
      <g transform="translate(27.240625 215.852184) scale(0.1 -0.1)">
       <use xlink:href="#DejaVuSans-34"/>
       <use xlink:href="#DejaVuSans-30" x="63.623047"/>
       <use xlink:href="#DejaVuSans-30" x="127.246094"/>
       <use xlink:href="#DejaVuSans-30" x="190.869141"/>
      </g>
     </g>
    </g>
    <g id="ytick_4">
     <g id="line2d_19">
      <path d="M 59.690625 178.453408 
L 416.810625 178.453408 
" clip-path="url(#pcc65d7594a)" style="fill: none; stroke: #b0b0b0; stroke-width: 0.8; stroke-linecap: square"/>
     </g>
     <g id="line2d_20">
      <g>
       <use xlink:href="#mc6b2811a95" x="59.690625" y="178.453408" style="stroke: #000000; stroke-width: 0.8"/>
      </g>
     </g>
     <g id="text_11">
      <!-- 6000 -->
      <g transform="translate(27.240625 182.252627) scale(0.1 -0.1)">
       <defs>
        <path id="DejaVuSans-36" d="M 2113 2584 
Q 1688 2584 1439 2293 
Q 1191 2003 1191 1497 
Q 1191 994 1439 701 
Q 1688 409 2113 409 
Q 2538 409 2786 701 
Q 3034 994 3034 1497 
Q 3034 2003 2786 2293 
Q 2538 2584 2113 2584 
z
M 3366 4563 
L 3366 3988 
Q 3128 4100 2886 4159 
Q 2644 4219 2406 4219 
Q 1781 4219 1451 3797 
Q 1122 3375 1075 2522 
Q 1259 2794 1537 2939 
Q 1816 3084 2150 3084 
Q 2853 3084 3261 2657 
Q 3669 2231 3669 1497 
Q 3669 778 3244 343 
Q 2819 -91 2113 -91 
Q 1303 -91 875 529 
Q 447 1150 447 2328 
Q 447 3434 972 4092 
Q 1497 4750 2381 4750 
Q 2619 4750 2861 4703 
Q 3103 4656 3366 4563 
z
" transform="scale(0.015625)"/>
       </defs>
       <use xlink:href="#DejaVuSans-36"/>
       <use xlink:href="#DejaVuSans-30" x="63.623047"/>
       <use xlink:href="#DejaVuSans-30" x="127.246094"/>
       <use xlink:href="#DejaVuSans-30" x="190.869141"/>
      </g>
     </g>
    </g>
    <g id="ytick_5">
     <g id="line2d_21">
      <path d="M 59.690625 144.853852 
L 416.810625 144.853852 
" clip-path="url(#pcc65d7594a)" style="fill: none; stroke: #b0b0b0; stroke-width: 0.8; stroke-linecap: square"/>
     </g>
     <g id="line2d_22">
      <g>
       <use xlink:href="#mc6b2811a95" x="59.690625" y="144.853852" style="stroke: #000000; stroke-width: 0.8"/>
      </g>
     </g>
     <g id="text_12">
      <!-- 8000 -->
      <g transform="translate(27.240625 148.653071) scale(0.1 -0.1)">
       <defs>
        <path id="DejaVuSans-38" d="M 2034 2216 
Q 1584 2216 1326 1975 
Q 1069 1734 1069 1313 
Q 1069 891 1326 650 
Q 1584 409 2034 409 
Q 2484 409 2743 651 
Q 3003 894 3003 1313 
Q 3003 1734 2745 1975 
Q 2488 2216 2034 2216 
z
M 1403 2484 
Q 997 2584 770 2862 
Q 544 3141 544 3541 
Q 544 4100 942 4425 
Q 1341 4750 2034 4750 
Q 2731 4750 3128 4425 
Q 3525 4100 3525 3541 
Q 3525 3141 3298 2862 
Q 3072 2584 2669 2484 
Q 3125 2378 3379 2068 
Q 3634 1759 3634 1313 
Q 3634 634 3220 271 
Q 2806 -91 2034 -91 
Q 1263 -91 848 271 
Q 434 634 434 1313 
Q 434 1759 690 2068 
Q 947 2378 1403 2484 
z
M 1172 3481 
Q 1172 3119 1398 2916 
Q 1625 2713 2034 2713 
Q 2441 2713 2670 2916 
Q 2900 3119 2900 3481 
Q 2900 3844 2670 4047 
Q 2441 4250 2034 4250 
Q 1625 4250 1398 4047 
Q 1172 3844 1172 3481 
z
" transform="scale(0.015625)"/>
       </defs>
       <use xlink:href="#DejaVuSans-38"/>
       <use xlink:href="#DejaVuSans-30" x="63.623047"/>
       <use xlink:href="#DejaVuSans-30" x="127.246094"/>
       <use xlink:href="#DejaVuSans-30" x="190.869141"/>
      </g>
     </g>
    </g>
    <g id="ytick_6">
     <g id="line2d_23">
      <path d="M 59.690625 111.254295 
L 416.810625 111.254295 
" clip-path="url(#pcc65d7594a)" style="fill: none; stroke: #b0b0b0; stroke-width: 0.8; stroke-linecap: square"/>
     </g>
     <g id="line2d_24">
      <g>
       <use xlink:href="#mc6b2811a95" x="59.690625" y="111.254295" style="stroke: #000000; stroke-width: 0.8"/>
      </g>
     </g>
     <g id="text_13">
      <!-- 10000 -->
      <g transform="translate(20.878125 115.053514) scale(0.1 -0.1)">
       <use xlink:href="#DejaVuSans-31"/>
       <use xlink:href="#DejaVuSans-30" x="63.623047"/>
       <use xlink:href="#DejaVuSans-30" x="127.246094"/>
       <use xlink:href="#DejaVuSans-30" x="190.869141"/>
       <use xlink:href="#DejaVuSans-30" x="254.492188"/>
      </g>
     </g>
    </g>
    <g id="ytick_7">
     <g id="line2d_25">
      <path d="M 59.690625 77.654738 
L 416.810625 77.654738 
" clip-path="url(#pcc65d7594a)" style="fill: none; stroke: #b0b0b0; stroke-width: 0.8; stroke-linecap: square"/>
     </g>
     <g id="line2d_26">
      <g>
       <use xlink:href="#mc6b2811a95" x="59.690625" y="77.654738" style="stroke: #000000; stroke-width: 0.8"/>
      </g>
     </g>
     <g id="text_14">
      <!-- 12000 -->
      <g transform="translate(20.878125 81.453957) scale(0.1 -0.1)">
       <use xlink:href="#DejaVuSans-31"/>
       <use xlink:href="#DejaVuSans-32" x="63.623047"/>
       <use xlink:href="#DejaVuSans-30" x="127.246094"/>
       <use xlink:href="#DejaVuSans-30" x="190.869141"/>
       <use xlink:href="#DejaVuSans-30" x="254.492188"/>
      </g>
     </g>
    </g>
    <g id="ytick_8">
     <g id="line2d_27">
      <path d="M 59.690625 44.055182 
L 416.810625 44.055182 
" clip-path="url(#pcc65d7594a)" style="fill: none; stroke: #b0b0b0; stroke-width: 0.8; stroke-linecap: square"/>
     </g>
     <g id="line2d_28">
      <g>
       <use xlink:href="#mc6b2811a95" x="59.690625" y="44.055182" style="stroke: #000000; stroke-width: 0.8"/>
      </g>
     </g>
     <g id="text_15">
      <!-- 14000 -->
      <g transform="translate(20.878125 47.854401) scale(0.1 -0.1)">
       <use xlink:href="#DejaVuSans-31"/>
       <use xlink:href="#DejaVuSans-34" x="63.623047"/>
       <use xlink:href="#DejaVuSans-30" x="127.246094"/>
       <use xlink:href="#DejaVuSans-30" x="190.869141"/>
       <use xlink:href="#DejaVuSans-30" x="254.492188"/>
      </g>
     </g>
    </g>
    <g id="text_16">
     <!-- Sau totale 2010 - 2020 -->
     <g transform="translate(14.798438 212.900687) rotate(-90) scale(0.1 -0.1)">
      <defs>
       <path id="DejaVuSans-53" d="M 3425 4513 
L 3425 3897 
Q 3066 4069 2747 4153 
Q 2428 4238 2131 4238 
Q 1616 4238 1336 4038 
Q 1056 3838 1056 3469 
Q 1056 3159 1242 3001 
Q 1428 2844 1947 2747 
L 2328 2669 
Q 3034 2534 3370 2195 
Q 3706 1856 3706 1288 
Q 3706 609 3251 259 
Q 2797 -91 1919 -91 
Q 1588 -91 1214 -16 
Q 841 59 441 206 
L 441 856 
Q 825 641 1194 531 
Q 1563 422 1919 422 
Q 2459 422 2753 634 
Q 3047 847 3047 1241 
Q 3047 1584 2836 1778 
Q 2625 1972 2144 2069 
L 1759 2144 
Q 1053 2284 737 2584 
Q 422 2884 422 3419 
Q 422 4038 858 4394 
Q 1294 4750 2059 4750 
Q 2388 4750 2728 4690 
Q 3069 4631 3425 4513 
z
" transform="scale(0.015625)"/>
       <path id="DejaVuSans-75" d="M 544 1381 
L 544 3500 
L 1119 3500 
L 1119 1403 
Q 1119 906 1312 657 
Q 1506 409 1894 409 
Q 2359 409 2629 706 
Q 2900 1003 2900 1516 
L 2900 3500 
L 3475 3500 
L 3475 0 
L 2900 0 
L 2900 538 
Q 2691 219 2414 64 
Q 2138 -91 1772 -91 
Q 1169 -91 856 284 
Q 544 659 544 1381 
z
M 1991 3584 
L 1991 3584 
z
" transform="scale(0.015625)"/>
      </defs>
      <use xlink:href="#DejaVuSans-53"/>
      <use xlink:href="#DejaVuSans-61" x="63.476562"/>
      <use xlink:href="#DejaVuSans-75" x="124.755859"/>
      <use xlink:href="#DejaVuSans-20" x="188.134766"/>
      <use xlink:href="#DejaVuSans-74" x="219.921875"/>
      <use xlink:href="#DejaVuSans-6f" x="259.130859"/>
      <use xlink:href="#DejaVuSans-74" x="320.3125"/>
      <use xlink:href="#DejaVuSans-61" x="359.521484"/>
      <use xlink:href="#DejaVuSans-6c" x="420.800781"/>
      <use xlink:href="#DejaVuSans-65" x="448.583984"/>
      <use xlink:href="#DejaVuSans-20" x="510.107422"/>
      <use xlink:href="#DejaVuSans-32" x="541.894531"/>
      <use xlink:href="#DejaVuSans-30" x="605.517578"/>
      <use xlink:href="#DejaVuSans-31" x="669.140625"/>
      <use xlink:href="#DejaVuSans-30" x="732.763672"/>
      <use xlink:href="#DejaVuSans-20" x="796.386719"/>
      <use xlink:href="#DejaVuSans-2d" x="828.173828"/>
      <use xlink:href="#DejaVuSans-20" x="864.257812"/>
      <use xlink:href="#DejaVuSans-32" x="896.044922"/>
      <use xlink:href="#DejaVuSans-30" x="959.667969"/>
      <use xlink:href="#DejaVuSans-32" x="1023.291016"/>
      <use xlink:href="#DejaVuSans-30" x="1086.914062"/>
     </g>
    </g>
   </g>
   <g id="PathCollection_1">
    <path d="M 185.16439 246.635178 
C 186.788421 246.635178 188.346154 245.989944 189.494517 244.841581 
C 190.64288 243.693218 191.288115 242.135484 191.288115 240.511454 
C 191.288115 238.887423 190.64288 237.32969 189.494517 236.181327 
C 188.346154 235.032964 186.788421 234.387729 185.16439 234.387729 
C 183.54036 234.387729 181.982626 235.032964 180.834263 236.181327 
C 179.6859 237.32969 179.040666 238.887423 179.040666 240.511454 
C 179.040666 242.135484 179.6859 243.693218 180.834263 244.841581 
C 181.982626 245.989944 183.54036 246.635178 185.16439 246.635178 
z
" clip-path="url(#pcc65d7594a)" style="fill: #ff0000; stroke: #ff0000"/>
    <path d="M 400.577898 40.537849 
C 402.201928 40.537849 403.759662 39.892615 404.908025 38.744252 
C 406.056388 37.595889 406.701622 36.038156 406.701622 34.414125 
C 406.701622 32.790094 406.056388 31.232361 404.908025 30.083998 
C 403.759662 28.935635 402.201928 28.290401 400.577898 28.290401 
C 398.953867 28.290401 397.396134 28.935635 396.247771 30.083998 
C 395.099408 31.232361 394.454173 32.790094 394.454173 34.414125 
C 394.454173 36.038156 395.099408 37.595889 396.247771 38.744252 
C 397.396134 39.892615 398.953867 40.537849 400.577898 40.537849 
z
" clip-path="url(#pcc65d7594a)" style="fill: #ffa500; stroke: #ffa500"/>
    <path d="M 164.298125 181.357455 
C 165.922155 181.357455 167.479888 180.712221 168.628252 179.563858 
C 169.776615 178.415495 170.421849 176.857762 170.421849 175.233731 
C 170.421849 173.6097 169.776615 172.051967 168.628252 170.903604 
C 167.479888 169.755241 165.922155 169.110007 164.298125 169.110007 
C 162.674094 169.110007 161.116361 169.755241 159.967998 170.903604 
C 158.819634 172.051967 158.1744 173.6097 158.1744 175.233731 
C 158.1744 176.857762 158.819634 178.415495 159.967998 179.563858 
C 161.116361 180.712221 162.674094 181.357455 164.298125 181.357455 
z
" clip-path="url(#pcc65d7594a)" style="fill: #0000ff; stroke: #0000ff"/>
    <path d="M 75.923352 282.457849 
C 77.547383 282.457849 79.105116 281.812615 80.253479 280.664252 
C 81.401842 279.515889 82.047077 277.958156 82.047077 276.334125 
C 82.047077 274.710094 81.401842 273.152361 80.253479 272.003998 
C 79.105116 270.855635 77.547383 270.210401 75.923352 270.210401 
C 74.299322 270.210401 72.741588 270.855635 71.593225 272.003998 
C 70.444862 273.152361 69.799628 274.710094 69.799628 276.334125 
C 69.799628 277.958156 70.444862 279.515889 71.593225 280.664252 
C 72.741588 281.812615 74.299322 282.457849 75.923352 282.457849 
z
" clip-path="url(#pcc65d7594a)" style="fill: #008000; stroke: #008000"/>
   </g>
   <g id="PathCollection_2">
    <path d="M 182.095822 248.325908 
C 183.719852 248.325908 185.277586 247.680673 186.425949 246.53231 
C 187.574312 245.383947 188.219546 243.826214 188.219546 242.202183 
C 188.219546 240.578153 187.574312 239.020419 186.425949 237.872056 
C 185.277586 236.723693 183.719852 236.078459 182.095822 236.078459 
C 180.471791 236.078459 178.914058 236.723693 177.765695 237.872056 
C 176.617332 239.020419 175.972097 240.578153 175.972097 242.202183 
C 175.972097 243.826214 176.617332 245.383947 177.765695 246.53231 
C 178.914058 247.680673 180.471791 248.325908 182.095822 248.325908 
z
" clip-path="url(#pcc65d7594a)" style="fill: #ff0000; fill-opacity: 0.5; stroke: #ff0000; stroke-opacity: 0.5"/>
    <path d="M 323.863686 87.956064 
C 325.487716 87.956064 327.04545 87.310829 328.193813 86.162466 
C 329.342176 85.014103 329.98741 83.45637 329.98741 81.832339 
C 329.98741 80.208309 329.342176 78.650575 328.193813 77.502212 
C 327.04545 76.353849 325.487716 75.708615 323.863686 75.708615 
C 322.239655 75.708615 320.681922 76.353849 319.533559 77.502212 
C 318.385196 78.650575 317.739961 80.208309 317.739961 81.832339 
C 317.739961 83.45637 318.385196 85.014103 319.533559 86.162466 
C 320.681922 87.310829 322.239655 87.956064 323.863686 87.956064 
z
" clip-path="url(#pcc65d7594a)" style="fill: #ffa500; fill-opacity: 0.5; stroke: #ffa500; stroke-opacity: 0.5"/>
    <path d="M 176.572399 155.52242 
C 178.196429 155.52242 179.754162 154.877186 180.902526 153.728823 
C 182.050889 152.58046 182.696123 151.022727 182.696123 149.398696 
C 182.696123 147.774665 182.050889 146.216932 180.902526 145.068569 
C 179.754162 143.920206 178.196429 143.274971 176.572399 143.274971 
C 174.948368 143.274971 173.390635 143.920206 172.242271 145.068569 
C 171.093908 146.216932 170.448674 147.774665 170.448674 149.398696 
C 170.448674 151.022727 171.093908 152.58046 172.242271 153.728823 
C 173.390635 154.877186 174.948368 155.52242 176.572399 155.52242 
z
" clip-path="url(#pcc65d7594a)" style="fill: #0000ff; fill-opacity: 0.5; stroke: #0000ff; stroke-opacity: 0.5"/>
    <path d="M 78.991921 278.17105 
C 80.615951 278.17105 82.173685 277.525816 83.322048 276.377453 
C 84.470411 275.229089 85.115645 273.671356 85.115645 272.047326 
C 85.115645 270.423295 84.470411 268.865562 83.322048 267.717199 
C 82.173685 266.568835 80.615951 265.923601 78.991921 265.923601 
C 77.36789 265.923601 75.810157 266.568835 74.661794 267.717199 
C 73.513431 268.865562 72.868196 270.423295 72.868196 272.047326 
C 72.868196 273.671356 73.513431 275.229089 74.661794 276.377453 
C 75.810157 277.525816 77.36789 278.17105 78.991921 278.17105 
z
" clip-path="url(#pcc65d7594a)" style="fill: #008000; fill-opacity: 0.5; stroke: #008000; stroke-opacity: 0.5"/>
   </g>
   <g id="patch_3">
    <path d="M 59.690625 288.430125 
L 59.690625 22.318125 
" style="fill: none; stroke: #000000; stroke-width: 0.8; stroke-linejoin: miter; stroke-linecap: square"/>
   </g>
   <g id="patch_4">
    <path d="M 416.810625 288.430125 
L 416.810625 22.318125 
" style="fill: none; stroke: #000000; stroke-width: 0.8; stroke-linejoin: miter; stroke-linecap: square"/>
   </g>
   <g id="patch_5">
    <path d="M 59.690625 288.430125 
L 416.810625 288.430125 
" style="fill: none; stroke: #000000; stroke-width: 0.8; stroke-linejoin: miter; stroke-linecap: square"/>
   </g>
   <g id="patch_6">
    <path d="M 59.690625 22.318125 
L 416.810625 22.318125 
" style="fill: none; stroke: #000000; stroke-width: 0.8; stroke-linejoin: miter; stroke-linecap: square"/>
   </g>
   <g id="text_17">
    <!-- Garazi Baigorri -->
    <g transform="translate(193.622813 16.318125) scale(0.12 -0.12)">
     <defs>
      <path id="DejaVuSans-47" d="M 3809 666 
L 3809 1919 
L 2778 1919 
L 2778 2438 
L 4434 2438 
L 4434 434 
Q 4069 175 3628 42 
Q 3188 -91 2688 -91 
Q 1594 -91 976 548 
Q 359 1188 359 2328 
Q 359 3472 976 4111 
Q 1594 4750 2688 4750 
Q 3144 4750 3555 4637 
Q 3966 4525 4313 4306 
L 4313 3634 
Q 3963 3931 3569 4081 
Q 3175 4231 2741 4231 
Q 1884 4231 1454 3753 
Q 1025 3275 1025 2328 
Q 1025 1384 1454 906 
Q 1884 428 2741 428 
Q 3075 428 3337 486 
Q 3600 544 3809 666 
z
" transform="scale(0.015625)"/>
      <path id="DejaVuSans-7a" d="M 353 3500 
L 3084 3500 
L 3084 2975 
L 922 459 
L 3084 459 
L 3084 0 
L 275 0 
L 275 525 
L 2438 3041 
L 353 3041 
L 353 3500 
z
" transform="scale(0.015625)"/>
      <path id="DejaVuSans-42" d="M 1259 2228 
L 1259 519 
L 2272 519 
Q 2781 519 3026 730 
Q 3272 941 3272 1375 
Q 3272 1813 3026 2020 
Q 2781 2228 2272 2228 
L 1259 2228 
z
M 1259 4147 
L 1259 2741 
L 2194 2741 
Q 2656 2741 2882 2914 
Q 3109 3088 3109 3444 
Q 3109 3797 2882 3972 
Q 2656 4147 2194 4147 
L 1259 4147 
z
M 628 4666 
L 2241 4666 
Q 2963 4666 3353 4366 
Q 3744 4066 3744 3513 
Q 3744 3084 3544 2831 
Q 3344 2578 2956 2516 
Q 3422 2416 3680 2098 
Q 3938 1781 3938 1306 
Q 3938 681 3513 340 
Q 3088 0 2303 0 
L 628 0 
L 628 4666 
z
" transform="scale(0.015625)"/>
      <path id="DejaVuSans-67" d="M 2906 1791 
Q 2906 2416 2648 2759 
Q 2391 3103 1925 3103 
Q 1463 3103 1205 2759 
Q 947 2416 947 1791 
Q 947 1169 1205 825 
Q 1463 481 1925 481 
Q 2391 481 2648 825 
Q 2906 1169 2906 1791 
z
M 3481 434 
Q 3481 -459 3084 -895 
Q 2688 -1331 1869 -1331 
Q 1566 -1331 1297 -1286 
Q 1028 -1241 775 -1147 
L 775 -588 
Q 1028 -725 1275 -790 
Q 1522 -856 1778 -856 
Q 2344 -856 2625 -561 
Q 2906 -266 2906 331 
L 2906 616 
Q 2728 306 2450 153 
Q 2172 0 1784 0 
Q 1141 0 747 490 
Q 353 981 353 1791 
Q 353 2603 747 3093 
Q 1141 3584 1784 3584 
Q 2172 3584 2450 3431 
Q 2728 3278 2906 2969 
L 2906 3500 
L 3481 3500 
L 3481 434 
z
" transform="scale(0.015625)"/>
     </defs>
     <use xlink:href="#DejaVuSans-47"/>
     <use xlink:href="#DejaVuSans-61" x="77.490234"/>
     <use xlink:href="#DejaVuSans-72" x="138.769531"/>
     <use xlink:href="#DejaVuSans-61" x="179.882812"/>
     <use xlink:href="#DejaVuSans-7a" x="241.162109"/>
     <use xlink:href="#DejaVuSans-69" x="293.652344"/>
     <use xlink:href="#DejaVuSans-20" x="321.435547"/>
     <use xlink:href="#DejaVuSans-42" x="353.222656"/>
     <use xlink:href="#DejaVuSans-61" x="421.826172"/>
     <use xlink:href="#DejaVuSans-69" x="483.105469"/>
     <use xlink:href="#DejaVuSans-67" x="510.888672"/>
     <use xlink:href="#DejaVuSans-6f" x="574.365234"/>
     <use xlink:href="#DejaVuSans-72" x="635.546875"/>
     <use xlink:href="#DejaVuSans-72" x="674.910156"/>
     <use xlink:href="#DejaVuSans-69" x="716.023438"/>
    </g>
   </g>
   <g id="legend_1">
    <g id="patch_7">
     <path d="M 423.810625 147.743125 
L 602.805938 147.743125 
Q 604.805938 147.743125 604.805938 145.743125 
L 604.805938 29.318125 
Q 604.805938 27.318125 602.805938 27.318125 
L 423.810625 27.318125 
Q 421.810625 27.318125 421.810625 29.318125 
L 421.810625 145.743125 
Q 421.810625 147.743125 423.810625 147.743125 
z
" style="fill: #ffffff; opacity: 0.8; stroke: #cccccc; stroke-linejoin: miter"/>
    </g>
    <g id="line2d_29">
     <path d="M 425.810625 35.416562 
L 435.810625 35.416562 
L 445.810625 35.416562 
" style="fill: none; stroke: #ffffff; stroke-opacity: 0.5; stroke-width: 1.5; stroke-linecap: square"/>
     <defs>
      <path id="mbefd87e2bb" d="M 0 2.5 
C 0.663008 2.5 1.29895 2.236584 1.767767 1.767767 
C 2.236584 1.29895 2.5 0.663008 2.5 0 
C 2.5 -0.663008 2.236584 -1.29895 1.767767 -1.767767 
C 1.29895 -2.236584 0.663008 -2.5 0 -2.5 
C -0.663008 -2.5 -1.29895 -2.236584 -1.767767 -1.767767 
C -2.236584 -1.29895 -2.5 -0.663008 -2.5 0 
C -2.5 0.663008 -2.236584 1.29895 -1.767767 1.767767 
C -1.29895 2.236584 -0.663008 2.5 0 2.5 
z
" style="stroke: #ffffff; stroke-opacity: 0.5"/>
     </defs>
     <g>
      <use xlink:href="#mbefd87e2bb" x="435.810625" y="35.416562" style="fill: #ff0000; fill-opacity: 0.5; stroke: #ffffff; stroke-opacity: 0.5"/>
     </g>
    </g>
    <g id="text_18">
     <!-- Micro-exploitations 2010 -->
     <g transform="translate(453.810625 38.916562) scale(0.1 -0.1)">
      <defs>
       <path id="DejaVuSans-4d" d="M 628 4666 
L 1569 4666 
L 2759 1491 
L 3956 4666 
L 4897 4666 
L 4897 0 
L 4281 0 
L 4281 4097 
L 3078 897 
L 2444 897 
L 1241 4097 
L 1241 0 
L 628 0 
L 628 4666 
z
" transform="scale(0.015625)"/>
       <path id="DejaVuSans-63" d="M 3122 3366 
L 3122 2828 
Q 2878 2963 2633 3030 
Q 2388 3097 2138 3097 
Q 1578 3097 1268 2742 
Q 959 2388 959 1747 
Q 959 1106 1268 751 
Q 1578 397 2138 397 
Q 2388 397 2633 464 
Q 2878 531 3122 666 
L 3122 134 
Q 2881 22 2623 -34 
Q 2366 -91 2075 -91 
Q 1284 -91 818 406 
Q 353 903 353 1747 
Q 353 2603 823 3093 
Q 1294 3584 2113 3584 
Q 2378 3584 2631 3529 
Q 2884 3475 3122 3366 
z
" transform="scale(0.015625)"/>
      </defs>
      <use xlink:href="#DejaVuSans-4d"/>
      <use xlink:href="#DejaVuSans-69" x="86.279297"/>
      <use xlink:href="#DejaVuSans-63" x="114.0625"/>
      <use xlink:href="#DejaVuSans-72" x="169.042969"/>
      <use xlink:href="#DejaVuSans-6f" x="207.90625"/>
      <use xlink:href="#DejaVuSans-2d" x="270.962891"/>
      <use xlink:href="#DejaVuSans-65" x="307.046875"/>
      <use xlink:href="#DejaVuSans-78" x="366.820312"/>
      <use xlink:href="#DejaVuSans-70" x="426"/>
      <use xlink:href="#DejaVuSans-6c" x="489.476562"/>
      <use xlink:href="#DejaVuSans-6f" x="517.259766"/>
      <use xlink:href="#DejaVuSans-69" x="578.441406"/>
      <use xlink:href="#DejaVuSans-74" x="606.224609"/>
      <use xlink:href="#DejaVuSans-61" x="645.433594"/>
      <use xlink:href="#DejaVuSans-74" x="706.712891"/>
      <use xlink:href="#DejaVuSans-69" x="745.921875"/>
      <use xlink:href="#DejaVuSans-6f" x="773.705078"/>
      <use xlink:href="#DejaVuSans-6e" x="834.886719"/>
      <use xlink:href="#DejaVuSans-73" x="898.265625"/>
      <use xlink:href="#DejaVuSans-20" x="950.365234"/>
      <use xlink:href="#DejaVuSans-32" x="982.152344"/>
      <use xlink:href="#DejaVuSans-30" x="1045.775391"/>
      <use xlink:href="#DejaVuSans-31" x="1109.398438"/>
      <use xlink:href="#DejaVuSans-30" x="1173.021484"/>
     </g>
    </g>
    <g id="line2d_30">
     <path d="M 425.810625 50.094688 
L 435.810625 50.094688 
L 445.810625 50.094688 
" style="fill: none; stroke: #ffffff; stroke-width: 1.5; stroke-linecap: square"/>
     <defs>
      <path id="mabc27b1427" d="M 0 2.5 
C 0.663008 2.5 1.29895 2.236584 1.767767 1.767767 
C 2.236584 1.29895 2.5 0.663008 2.5 0 
C 2.5 -0.663008 2.236584 -1.29895 1.767767 -1.767767 
C 1.29895 -2.236584 0.663008 -2.5 0 -2.5 
C -0.663008 -2.5 -1.29895 -2.236584 -1.767767 -1.767767 
C -2.236584 -1.29895 -2.5 -0.663008 -2.5 0 
C -2.5 0.663008 -2.236584 1.29895 -1.767767 1.767767 
C -1.29895 2.236584 -0.663008 2.5 0 2.5 
z
" style="stroke: #ffffff"/>
     </defs>
     <g>
      <use xlink:href="#mabc27b1427" x="435.810625" y="50.094688" style="fill: #ff0000; stroke: #ffffff"/>
     </g>
    </g>
    <g id="text_19">
     <!-- Micro-exploitations 2020 -->
     <g transform="translate(453.810625 53.594688) scale(0.1 -0.1)">
      <use xlink:href="#DejaVuSans-4d"/>
      <use xlink:href="#DejaVuSans-69" x="86.279297"/>
      <use xlink:href="#DejaVuSans-63" x="114.0625"/>
      <use xlink:href="#DejaVuSans-72" x="169.042969"/>
      <use xlink:href="#DejaVuSans-6f" x="207.90625"/>
      <use xlink:href="#DejaVuSans-2d" x="270.962891"/>
      <use xlink:href="#DejaVuSans-65" x="307.046875"/>
      <use xlink:href="#DejaVuSans-78" x="366.820312"/>
      <use xlink:href="#DejaVuSans-70" x="426"/>
      <use xlink:href="#DejaVuSans-6c" x="489.476562"/>
      <use xlink:href="#DejaVuSans-6f" x="517.259766"/>
      <use xlink:href="#DejaVuSans-69" x="578.441406"/>
      <use xlink:href="#DejaVuSans-74" x="606.224609"/>
      <use xlink:href="#DejaVuSans-61" x="645.433594"/>
      <use xlink:href="#DejaVuSans-74" x="706.712891"/>
      <use xlink:href="#DejaVuSans-69" x="745.921875"/>
      <use xlink:href="#DejaVuSans-6f" x="773.705078"/>
      <use xlink:href="#DejaVuSans-6e" x="834.886719"/>
      <use xlink:href="#DejaVuSans-73" x="898.265625"/>
      <use xlink:href="#DejaVuSans-20" x="950.365234"/>
      <use xlink:href="#DejaVuSans-32" x="982.152344"/>
      <use xlink:href="#DejaVuSans-30" x="1045.775391"/>
      <use xlink:href="#DejaVuSans-32" x="1109.398438"/>
      <use xlink:href="#DejaVuSans-30" x="1173.021484"/>
     </g>
    </g>
    <g id="line2d_31">
     <path d="M 425.810625 64.772812 
L 435.810625 64.772812 
L 445.810625 64.772812 
" style="fill: none; stroke: #ffffff; stroke-opacity: 0.5; stroke-width: 1.5; stroke-linecap: square"/>
     <defs>
      <path id="m4eec437844" d="M 0 2.5 
C 0.663008 2.5 1.29895 2.236584 1.767767 1.767767 
C 2.236584 1.29895 2.5 0.663008 2.5 0 
C 2.5 -0.663008 2.236584 -1.29895 1.767767 -1.767767 
C 1.29895 -2.236584 0.663008 -2.5 0 -2.5 
C -0.663008 -2.5 -1.29895 -2.236584 -1.767767 -1.767767 
C -2.236584 -1.29895 -2.5 -0.663008 -2.5 0 
C -2.5 0.663008 -2.236584 1.29895 -1.767767 1.767767 
C -1.29895 2.236584 -0.663008 2.5 0 2.5 
z
" style="stroke: #ffffff; stroke-opacity: 0.5"/>
     </defs>
     <g>
      <use xlink:href="#m4eec437844" x="435.810625" y="64.772812" style="fill: #ffa500; fill-opacity: 0.5; stroke: #ffffff; stroke-opacity: 0.5"/>
     </g>
    </g>
    <g id="text_20">
     <!-- Petites exploitations 2010 -->
     <g transform="translate(453.810625 68.272812) scale(0.1 -0.1)">
      <defs>
       <path id="DejaVuSans-50" d="M 1259 4147 
L 1259 2394 
L 2053 2394 
Q 2494 2394 2734 2622 
Q 2975 2850 2975 3272 
Q 2975 3691 2734 3919 
Q 2494 4147 2053 4147 
L 1259 4147 
z
M 628 4666 
L 2053 4666 
Q 2838 4666 3239 4311 
Q 3641 3956 3641 3272 
Q 3641 2581 3239 2228 
Q 2838 1875 2053 1875 
L 1259 1875 
L 1259 0 
L 628 0 
L 628 4666 
z
" transform="scale(0.015625)"/>
      </defs>
      <use xlink:href="#DejaVuSans-50"/>
      <use xlink:href="#DejaVuSans-65" x="56.677734"/>
      <use xlink:href="#DejaVuSans-74" x="118.201172"/>
      <use xlink:href="#DejaVuSans-69" x="157.410156"/>
      <use xlink:href="#DejaVuSans-74" x="185.193359"/>
      <use xlink:href="#DejaVuSans-65" x="224.402344"/>
      <use xlink:href="#DejaVuSans-73" x="285.925781"/>
      <use xlink:href="#DejaVuSans-20" x="338.025391"/>
      <use xlink:href="#DejaVuSans-65" x="369.8125"/>
      <use xlink:href="#DejaVuSans-78" x="429.585938"/>
      <use xlink:href="#DejaVuSans-70" x="488.765625"/>
      <use xlink:href="#DejaVuSans-6c" x="552.242188"/>
      <use xlink:href="#DejaVuSans-6f" x="580.025391"/>
      <use xlink:href="#DejaVuSans-69" x="641.207031"/>
      <use xlink:href="#DejaVuSans-74" x="668.990234"/>
      <use xlink:href="#DejaVuSans-61" x="708.199219"/>
      <use xlink:href="#DejaVuSans-74" x="769.478516"/>
      <use xlink:href="#DejaVuSans-69" x="808.6875"/>
      <use xlink:href="#DejaVuSans-6f" x="836.470703"/>
      <use xlink:href="#DejaVuSans-6e" x="897.652344"/>
      <use xlink:href="#DejaVuSans-73" x="961.03125"/>
      <use xlink:href="#DejaVuSans-20" x="1013.130859"/>
      <use xlink:href="#DejaVuSans-32" x="1044.917969"/>
      <use xlink:href="#DejaVuSans-30" x="1108.541016"/>
      <use xlink:href="#DejaVuSans-31" x="1172.164062"/>
      <use xlink:href="#DejaVuSans-30" x="1235.787109"/>
     </g>
    </g>
    <g id="line2d_32">
     <path d="M 425.810625 79.450938 
L 435.810625 79.450938 
L 445.810625 79.450938 
" style="fill: none; stroke: #ffffff; stroke-width: 1.5; stroke-linecap: square"/>
     <defs>
      <path id="m8ea673824d" d="M 0 2.5 
C 0.663008 2.5 1.29895 2.236584 1.767767 1.767767 
C 2.236584 1.29895 2.5 0.663008 2.5 0 
C 2.5 -0.663008 2.236584 -1.29895 1.767767 -1.767767 
C 1.29895 -2.236584 0.663008 -2.5 0 -2.5 
C -0.663008 -2.5 -1.29895 -2.236584 -1.767767 -1.767767 
C -2.236584 -1.29895 -2.5 -0.663008 -2.5 0 
C -2.5 0.663008 -2.236584 1.29895 -1.767767 1.767767 
C -1.29895 2.236584 -0.663008 2.5 0 2.5 
z
" style="stroke: #ffffff"/>
     </defs>
     <g>
      <use xlink:href="#m8ea673824d" x="435.810625" y="79.450938" style="fill: #ffa500; stroke: #ffffff"/>
     </g>
    </g>
    <g id="text_21">
     <!-- Petites exploitations 2020 -->
     <g transform="translate(453.810625 82.950938) scale(0.1 -0.1)">
      <use xlink:href="#DejaVuSans-50"/>
      <use xlink:href="#DejaVuSans-65" x="56.677734"/>
      <use xlink:href="#DejaVuSans-74" x="118.201172"/>
      <use xlink:href="#DejaVuSans-69" x="157.410156"/>
      <use xlink:href="#DejaVuSans-74" x="185.193359"/>
      <use xlink:href="#DejaVuSans-65" x="224.402344"/>
      <use xlink:href="#DejaVuSans-73" x="285.925781"/>
      <use xlink:href="#DejaVuSans-20" x="338.025391"/>
      <use xlink:href="#DejaVuSans-65" x="369.8125"/>
      <use xlink:href="#DejaVuSans-78" x="429.585938"/>
      <use xlink:href="#DejaVuSans-70" x="488.765625"/>
      <use xlink:href="#DejaVuSans-6c" x="552.242188"/>
      <use xlink:href="#DejaVuSans-6f" x="580.025391"/>
      <use xlink:href="#DejaVuSans-69" x="641.207031"/>
      <use xlink:href="#DejaVuSans-74" x="668.990234"/>
      <use xlink:href="#DejaVuSans-61" x="708.199219"/>
      <use xlink:href="#DejaVuSans-74" x="769.478516"/>
      <use xlink:href="#DejaVuSans-69" x="808.6875"/>
      <use xlink:href="#DejaVuSans-6f" x="836.470703"/>
      <use xlink:href="#DejaVuSans-6e" x="897.652344"/>
      <use xlink:href="#DejaVuSans-73" x="961.03125"/>
      <use xlink:href="#DejaVuSans-20" x="1013.130859"/>
      <use xlink:href="#DejaVuSans-32" x="1044.917969"/>
      <use xlink:href="#DejaVuSans-30" x="1108.541016"/>
      <use xlink:href="#DejaVuSans-32" x="1172.164062"/>
      <use xlink:href="#DejaVuSans-30" x="1235.787109"/>
     </g>
    </g>
    <g id="line2d_33">
     <path d="M 425.810625 94.129063 
L 435.810625 94.129063 
L 445.810625 94.129063 
" style="fill: none; stroke: #ffffff; stroke-opacity: 0.5; stroke-width: 1.5; stroke-linecap: square"/>
     <defs>
      <path id="mf1ffcfa5b3" d="M 0 2.5 
C 0.663008 2.5 1.29895 2.236584 1.767767 1.767767 
C 2.236584 1.29895 2.5 0.663008 2.5 0 
C 2.5 -0.663008 2.236584 -1.29895 1.767767 -1.767767 
C 1.29895 -2.236584 0.663008 -2.5 0 -2.5 
C -0.663008 -2.5 -1.29895 -2.236584 -1.767767 -1.767767 
C -2.236584 -1.29895 -2.5 -0.663008 -2.5 0 
C -2.5 0.663008 -2.236584 1.29895 -1.767767 1.767767 
C -1.29895 2.236584 -0.663008 2.5 0 2.5 
z
" style="stroke: #ffffff; stroke-opacity: 0.5"/>
     </defs>
     <g>
      <use xlink:href="#mf1ffcfa5b3" x="435.810625" y="94.129063" style="fill: #0000ff; fill-opacity: 0.5; stroke: #ffffff; stroke-opacity: 0.5"/>
     </g>
    </g>
    <g id="text_22">
     <!-- Moyennes exploitations 2010 -->
     <g transform="translate(453.810625 97.629063) scale(0.1 -0.1)">
      <defs>
       <path id="DejaVuSans-79" d="M 2059 -325 
Q 1816 -950 1584 -1140 
Q 1353 -1331 966 -1331 
L 506 -1331 
L 506 -850 
L 844 -850 
Q 1081 -850 1212 -737 
Q 1344 -625 1503 -206 
L 1606 56 
L 191 3500 
L 800 3500 
L 1894 763 
L 2988 3500 
L 3597 3500 
L 2059 -325 
z
" transform="scale(0.015625)"/>
      </defs>
      <use xlink:href="#DejaVuSans-4d"/>
      <use xlink:href="#DejaVuSans-6f" x="86.279297"/>
      <use xlink:href="#DejaVuSans-79" x="147.460938"/>
      <use xlink:href="#DejaVuSans-65" x="206.640625"/>
      <use xlink:href="#DejaVuSans-6e" x="268.164062"/>
      <use xlink:href="#DejaVuSans-6e" x="331.542969"/>
      <use xlink:href="#DejaVuSans-65" x="394.921875"/>
      <use xlink:href="#DejaVuSans-73" x="456.445312"/>
      <use xlink:href="#DejaVuSans-20" x="508.544922"/>
      <use xlink:href="#DejaVuSans-65" x="540.332031"/>
      <use xlink:href="#DejaVuSans-78" x="600.105469"/>
      <use xlink:href="#DejaVuSans-70" x="659.285156"/>
      <use xlink:href="#DejaVuSans-6c" x="722.761719"/>
      <use xlink:href="#DejaVuSans-6f" x="750.544922"/>
      <use xlink:href="#DejaVuSans-69" x="811.726562"/>
      <use xlink:href="#DejaVuSans-74" x="839.509766"/>
      <use xlink:href="#DejaVuSans-61" x="878.71875"/>
      <use xlink:href="#DejaVuSans-74" x="939.998047"/>
      <use xlink:href="#DejaVuSans-69" x="979.207031"/>
      <use xlink:href="#DejaVuSans-6f" x="1006.990234"/>
      <use xlink:href="#DejaVuSans-6e" x="1068.171875"/>
      <use xlink:href="#DejaVuSans-73" x="1131.550781"/>
      <use xlink:href="#DejaVuSans-20" x="1183.650391"/>
      <use xlink:href="#DejaVuSans-32" x="1215.4375"/>
      <use xlink:href="#DejaVuSans-30" x="1279.060547"/>
      <use xlink:href="#DejaVuSans-31" x="1342.683594"/>
      <use xlink:href="#DejaVuSans-30" x="1406.306641"/>
     </g>
    </g>
    <g id="line2d_34">
     <path d="M 425.810625 108.807187 
L 435.810625 108.807187 
L 445.810625 108.807187 
" style="fill: none; stroke: #ffffff; stroke-width: 1.5; stroke-linecap: square"/>
     <defs>
      <path id="mc9a7ae2a7d" d="M 0 2.5 
C 0.663008 2.5 1.29895 2.236584 1.767767 1.767767 
C 2.236584 1.29895 2.5 0.663008 2.5 0 
C 2.5 -0.663008 2.236584 -1.29895 1.767767 -1.767767 
C 1.29895 -2.236584 0.663008 -2.5 0 -2.5 
C -0.663008 -2.5 -1.29895 -2.236584 -1.767767 -1.767767 
C -2.236584 -1.29895 -2.5 -0.663008 -2.5 0 
C -2.5 0.663008 -2.236584 1.29895 -1.767767 1.767767 
C -1.29895 2.236584 -0.663008 2.5 0 2.5 
z
" style="stroke: #ffffff"/>
     </defs>
     <g>
      <use xlink:href="#mc9a7ae2a7d" x="435.810625" y="108.807187" style="fill: #0000ff; stroke: #ffffff"/>
     </g>
    </g>
    <g id="text_23">
     <!-- Moyennes exploitations 2020 -->
     <g transform="translate(453.810625 112.307187) scale(0.1 -0.1)">
      <use xlink:href="#DejaVuSans-4d"/>
      <use xlink:href="#DejaVuSans-6f" x="86.279297"/>
      <use xlink:href="#DejaVuSans-79" x="147.460938"/>
      <use xlink:href="#DejaVuSans-65" x="206.640625"/>
      <use xlink:href="#DejaVuSans-6e" x="268.164062"/>
      <use xlink:href="#DejaVuSans-6e" x="331.542969"/>
      <use xlink:href="#DejaVuSans-65" x="394.921875"/>
      <use xlink:href="#DejaVuSans-73" x="456.445312"/>
      <use xlink:href="#DejaVuSans-20" x="508.544922"/>
      <use xlink:href="#DejaVuSans-65" x="540.332031"/>
      <use xlink:href="#DejaVuSans-78" x="600.105469"/>
      <use xlink:href="#DejaVuSans-70" x="659.285156"/>
      <use xlink:href="#DejaVuSans-6c" x="722.761719"/>
      <use xlink:href="#DejaVuSans-6f" x="750.544922"/>
      <use xlink:href="#DejaVuSans-69" x="811.726562"/>
      <use xlink:href="#DejaVuSans-74" x="839.509766"/>
      <use xlink:href="#DejaVuSans-61" x="878.71875"/>
      <use xlink:href="#DejaVuSans-74" x="939.998047"/>
      <use xlink:href="#DejaVuSans-69" x="979.207031"/>
      <use xlink:href="#DejaVuSans-6f" x="1006.990234"/>
      <use xlink:href="#DejaVuSans-6e" x="1068.171875"/>
      <use xlink:href="#DejaVuSans-73" x="1131.550781"/>
      <use xlink:href="#DejaVuSans-20" x="1183.650391"/>
      <use xlink:href="#DejaVuSans-32" x="1215.4375"/>
      <use xlink:href="#DejaVuSans-30" x="1279.060547"/>
      <use xlink:href="#DejaVuSans-32" x="1342.683594"/>
      <use xlink:href="#DejaVuSans-30" x="1406.306641"/>
     </g>
    </g>
    <g id="line2d_35">
     <path d="M 425.810625 123.485312 
L 435.810625 123.485312 
L 445.810625 123.485312 
" style="fill: none; stroke: #ffffff; stroke-opacity: 0.5; stroke-width: 1.5; stroke-linecap: square"/>
     <defs>
      <path id="m3c3ef522ad" d="M 0 2.5 
C 0.663008 2.5 1.29895 2.236584 1.767767 1.767767 
C 2.236584 1.29895 2.5 0.663008 2.5 0 
C 2.5 -0.663008 2.236584 -1.29895 1.767767 -1.767767 
C 1.29895 -2.236584 0.663008 -2.5 0 -2.5 
C -0.663008 -2.5 -1.29895 -2.236584 -1.767767 -1.767767 
C -2.236584 -1.29895 -2.5 -0.663008 -2.5 0 
C -2.5 0.663008 -2.236584 1.29895 -1.767767 1.767767 
C -1.29895 2.236584 -0.663008 2.5 0 2.5 
z
" style="stroke: #ffffff; stroke-opacity: 0.5"/>
     </defs>
     <g>
      <use xlink:href="#m3c3ef522ad" x="435.810625" y="123.485312" style="fill: #008000; fill-opacity: 0.5; stroke: #ffffff; stroke-opacity: 0.5"/>
     </g>
    </g>
    <g id="text_24">
     <!-- Grandes exploitations 2010 -->
     <g transform="translate(453.810625 126.985312) scale(0.1 -0.1)">
      <defs>
       <path id="DejaVuSans-64" d="M 2906 2969 
L 2906 4863 
L 3481 4863 
L 3481 0 
L 2906 0 
L 2906 525 
Q 2725 213 2448 61 
Q 2172 -91 1784 -91 
Q 1150 -91 751 415 
Q 353 922 353 1747 
Q 353 2572 751 3078 
Q 1150 3584 1784 3584 
Q 2172 3584 2448 3432 
Q 2725 3281 2906 2969 
z
M 947 1747 
Q 947 1113 1208 752 
Q 1469 391 1925 391 
Q 2381 391 2643 752 
Q 2906 1113 2906 1747 
Q 2906 2381 2643 2742 
Q 2381 3103 1925 3103 
Q 1469 3103 1208 2742 
Q 947 2381 947 1747 
z
" transform="scale(0.015625)"/>
      </defs>
      <use xlink:href="#DejaVuSans-47"/>
      <use xlink:href="#DejaVuSans-72" x="77.490234"/>
      <use xlink:href="#DejaVuSans-61" x="118.603516"/>
      <use xlink:href="#DejaVuSans-6e" x="179.882812"/>
      <use xlink:href="#DejaVuSans-64" x="243.261719"/>
      <use xlink:href="#DejaVuSans-65" x="306.738281"/>
      <use xlink:href="#DejaVuSans-73" x="368.261719"/>
      <use xlink:href="#DejaVuSans-20" x="420.361328"/>
      <use xlink:href="#DejaVuSans-65" x="452.148438"/>
      <use xlink:href="#DejaVuSans-78" x="511.921875"/>
      <use xlink:href="#DejaVuSans-70" x="571.101562"/>
      <use xlink:href="#DejaVuSans-6c" x="634.578125"/>
      <use xlink:href="#DejaVuSans-6f" x="662.361328"/>
      <use xlink:href="#DejaVuSans-69" x="723.542969"/>
      <use xlink:href="#DejaVuSans-74" x="751.326172"/>
      <use xlink:href="#DejaVuSans-61" x="790.535156"/>
      <use xlink:href="#DejaVuSans-74" x="851.814453"/>
      <use xlink:href="#DejaVuSans-69" x="891.023438"/>
      <use xlink:href="#DejaVuSans-6f" x="918.806641"/>
      <use xlink:href="#DejaVuSans-6e" x="979.988281"/>
      <use xlink:href="#DejaVuSans-73" x="1043.367188"/>
      <use xlink:href="#DejaVuSans-20" x="1095.466797"/>
      <use xlink:href="#DejaVuSans-32" x="1127.253906"/>
      <use xlink:href="#DejaVuSans-30" x="1190.876953"/>
      <use xlink:href="#DejaVuSans-31" x="1254.5"/>
      <use xlink:href="#DejaVuSans-30" x="1318.123047"/>
     </g>
    </g>
    <g id="line2d_36">
     <path d="M 425.810625 138.163437 
L 435.810625 138.163437 
L 445.810625 138.163437 
" style="fill: none; stroke: #ffffff; stroke-width: 1.5; stroke-linecap: square"/>
     <defs>
      <path id="m534e34c3e5" d="M 0 2.5 
C 0.663008 2.5 1.29895 2.236584 1.767767 1.767767 
C 2.236584 1.29895 2.5 0.663008 2.5 0 
C 2.5 -0.663008 2.236584 -1.29895 1.767767 -1.767767 
C 1.29895 -2.236584 0.663008 -2.5 0 -2.5 
C -0.663008 -2.5 -1.29895 -2.236584 -1.767767 -1.767767 
C -2.236584 -1.29895 -2.5 -0.663008 -2.5 0 
C -2.5 0.663008 -2.236584 1.29895 -1.767767 1.767767 
C -1.29895 2.236584 -0.663008 2.5 0 2.5 
z
" style="stroke: #ffffff"/>
     </defs>
     <g>
      <use xlink:href="#m534e34c3e5" x="435.810625" y="138.163437" style="fill: #008000; stroke: #ffffff"/>
     </g>
    </g>
    <g id="text_25">
     <!-- Grandes exploitations 2020 -->
     <g transform="translate(453.810625 141.663437) scale(0.1 -0.1)">
      <use xlink:href="#DejaVuSans-47"/>
      <use xlink:href="#DejaVuSans-72" x="77.490234"/>
      <use xlink:href="#DejaVuSans-61" x="118.603516"/>
      <use xlink:href="#DejaVuSans-6e" x="179.882812"/>
      <use xlink:href="#DejaVuSans-64" x="243.261719"/>
      <use xlink:href="#DejaVuSans-65" x="306.738281"/>
      <use xlink:href="#DejaVuSans-73" x="368.261719"/>
      <use xlink:href="#DejaVuSans-20" x="420.361328"/>
      <use xlink:href="#DejaVuSans-65" x="452.148438"/>
      <use xlink:href="#DejaVuSans-78" x="511.921875"/>
      <use xlink:href="#DejaVuSans-70" x="571.101562"/>
      <use xlink:href="#DejaVuSans-6c" x="634.578125"/>
      <use xlink:href="#DejaVuSans-6f" x="662.361328"/>
      <use xlink:href="#DejaVuSans-69" x="723.542969"/>
      <use xlink:href="#DejaVuSans-74" x="751.326172"/>
      <use xlink:href="#DejaVuSans-61" x="790.535156"/>
      <use xlink:href="#DejaVuSans-74" x="851.814453"/>
      <use xlink:href="#DejaVuSans-69" x="891.023438"/>
      <use xlink:href="#DejaVuSans-6f" x="918.806641"/>
      <use xlink:href="#DejaVuSans-6e" x="979.988281"/>
      <use xlink:href="#DejaVuSans-73" x="1043.367188"/>
      <use xlink:href="#DejaVuSans-20" x="1095.466797"/>
      <use xlink:href="#DejaVuSans-32" x="1127.253906"/>
      <use xlink:href="#DejaVuSans-30" x="1190.876953"/>
      <use xlink:href="#DejaVuSans-32" x="1254.5"/>
      <use xlink:href="#DejaVuSans-30" x="1318.123047"/>
     </g>
    </g>
   </g>
  </g>
 </g>
 <defs>
  <clipPath id="pcc65d7594a">
   <rect x="59.690625" y="22.318125" width="357.12" height="266.112"/>
  </clipPath>
 </defs>
</svg>
