<?xml version="1.0" encoding="utf-8" standalone="no"?>
<!DOCTYPE svg PUBLIC "-//W3C//DTD SVG 1.1//EN"
  "http://www.w3.org/Graphics/SVG/1.1/DTD/svg11.dtd">
<svg xmlns:xlink="http://www.w3.org/1999/xlink" width="601.587188pt" height="325.986375pt" viewBox="0 0 601.587188 325.986375" xmlns="http://www.w3.org/2000/svg" version="1.1">
 <metadata>
  <rdf:RDF xmlns:dc="http://purl.org/dc/elements/1.1/" xmlns:cc="http://creativecommons.org/ns#" xmlns:rdf="http://www.w3.org/1999/02/22-rdf-syntax-ns#">
   <cc:Work>
    <dc:type rdf:resource="http://purl.org/dc/dcmitype/StillImage"/>
    <dc:date>2023-06-28T18:06:40.189506</dc:date>
    <dc:format>image/svg+xml</dc:format>
    <dc:creator>
     <cc:Agent>
      <dc:title>Matplotlib v3.7.1, https://matplotlib.org/</dc:title>
     </cc:Agent>
    </dc:creator>
   </cc:Work>
  </rdf:RDF>
 </metadata>
 <defs>
  <style type="text/css">*{stroke-linejoin: round; stroke-linecap: butt}</style>
 </defs>
 <g id="figure_1">
  <g id="patch_1">
   <path d="M 0 325.986375 
L 601.587188 325.986375 
L 601.587188 0 
L 0 0 
z
" style="fill: #ffffff"/>
  </g>
  <g id="axes_1">
   <g id="patch_2">
    <path d="M 59.690625 288.430125 
L 416.810625 288.430125 
L 416.810625 22.318125 
L 59.690625 22.318125 
z
" style="fill: #ffffff"/>
   </g>
   <g id="matplotlib.axis_1">
    <g id="xtick_1">
     <g id="line2d_1">
      <path d="M 73.631673 288.430125 
L 73.631673 22.318125 
" clip-path="url(#pd835bc5229)" style="fill: none; stroke: #b0b0b0; stroke-width: 0.8; stroke-linecap: square"/>
     </g>
     <g id="line2d_2">
      <defs>
       <path id="mcef070cee8" d="M 0 0 
L 0 3.5 
" style="stroke: #000000; stroke-width: 0.8"/>
      </defs>
      <g>
       <use xlink:href="#mcef070cee8" x="73.631673" y="288.430125" style="stroke: #000000; stroke-width: 0.8"/>
      </g>
     </g>
     <g id="text_1">
      <!-- 0 -->
      <g transform="translate(70.450423 303.028562) scale(0.1 -0.1)">
       <defs>
        <path id="DejaVuSans-30" d="M 2034 4250 
Q 1547 4250 1301 3770 
Q 1056 3291 1056 2328 
Q 1056 1369 1301 889 
Q 1547 409 2034 409 
Q 2525 409 2770 889 
Q 3016 1369 3016 2328 
Q 3016 3291 2770 3770 
Q 2525 4250 2034 4250 
z
M 2034 4750 
Q 2819 4750 3233 4129 
Q 3647 3509 3647 2328 
Q 3647 1150 3233 529 
Q 2819 -91 2034 -91 
Q 1250 -91 836 529 
Q 422 1150 422 2328 
Q 422 3509 836 4129 
Q 1250 4750 2034 4750 
z
" transform="scale(0.015625)"/>
       </defs>
       <use xlink:href="#DejaVuSans-30"/>
      </g>
     </g>
    </g>
    <g id="xtick_2">
     <g id="line2d_3">
      <path d="M 150.020978 288.430125 
L 150.020978 22.318125 
" clip-path="url(#pd835bc5229)" style="fill: none; stroke: #b0b0b0; stroke-width: 0.8; stroke-linecap: square"/>
     </g>
     <g id="line2d_4">
      <g>
       <use xlink:href="#mcef070cee8" x="150.020978" y="288.430125" style="stroke: #000000; stroke-width: 0.8"/>
      </g>
     </g>
     <g id="text_2">
      <!-- 100 -->
      <g transform="translate(140.477228 303.028562) scale(0.1 -0.1)">
       <defs>
        <path id="DejaVuSans-31" d="M 794 531 
L 1825 531 
L 1825 4091 
L 703 3866 
L 703 4441 
L 1819 4666 
L 2450 4666 
L 2450 531 
L 3481 531 
L 3481 0 
L 794 0 
L 794 531 
z
" transform="scale(0.015625)"/>
       </defs>
       <use xlink:href="#DejaVuSans-31"/>
       <use xlink:href="#DejaVuSans-30" x="63.623047"/>
       <use xlink:href="#DejaVuSans-30" x="127.246094"/>
      </g>
     </g>
    </g>
    <g id="xtick_3">
     <g id="line2d_5">
      <path d="M 226.410283 288.430125 
L 226.410283 22.318125 
" clip-path="url(#pd835bc5229)" style="fill: none; stroke: #b0b0b0; stroke-width: 0.8; stroke-linecap: square"/>
     </g>
     <g id="line2d_6">
      <g>
       <use xlink:href="#mcef070cee8" x="226.410283" y="288.430125" style="stroke: #000000; stroke-width: 0.8"/>
      </g>
     </g>
     <g id="text_3">
      <!-- 200 -->
      <g transform="translate(216.866533 303.028562) scale(0.1 -0.1)">
       <defs>
        <path id="DejaVuSans-32" d="M 1228 531 
L 3431 531 
L 3431 0 
L 469 0 
L 469 531 
Q 828 903 1448 1529 
Q 2069 2156 2228 2338 
Q 2531 2678 2651 2914 
Q 2772 3150 2772 3378 
Q 2772 3750 2511 3984 
Q 2250 4219 1831 4219 
Q 1534 4219 1204 4116 
Q 875 4013 500 3803 
L 500 4441 
Q 881 4594 1212 4672 
Q 1544 4750 1819 4750 
Q 2544 4750 2975 4387 
Q 3406 4025 3406 3419 
Q 3406 3131 3298 2873 
Q 3191 2616 2906 2266 
Q 2828 2175 2409 1742 
Q 1991 1309 1228 531 
z
" transform="scale(0.015625)"/>
       </defs>
       <use xlink:href="#DejaVuSans-32"/>
       <use xlink:href="#DejaVuSans-30" x="63.623047"/>
       <use xlink:href="#DejaVuSans-30" x="127.246094"/>
      </g>
     </g>
    </g>
    <g id="xtick_4">
     <g id="line2d_7">
      <path d="M 302.799588 288.430125 
L 302.799588 22.318125 
" clip-path="url(#pd835bc5229)" style="fill: none; stroke: #b0b0b0; stroke-width: 0.8; stroke-linecap: square"/>
     </g>
     <g id="line2d_8">
      <g>
       <use xlink:href="#mcef070cee8" x="302.799588" y="288.430125" style="stroke: #000000; stroke-width: 0.8"/>
      </g>
     </g>
     <g id="text_4">
      <!-- 300 -->
      <g transform="translate(293.255838 303.028562) scale(0.1 -0.1)">
       <defs>
        <path id="DejaVuSans-33" d="M 2597 2516 
Q 3050 2419 3304 2112 
Q 3559 1806 3559 1356 
Q 3559 666 3084 287 
Q 2609 -91 1734 -91 
Q 1441 -91 1130 -33 
Q 819 25 488 141 
L 488 750 
Q 750 597 1062 519 
Q 1375 441 1716 441 
Q 2309 441 2620 675 
Q 2931 909 2931 1356 
Q 2931 1769 2642 2001 
Q 2353 2234 1838 2234 
L 1294 2234 
L 1294 2753 
L 1863 2753 
Q 2328 2753 2575 2939 
Q 2822 3125 2822 3475 
Q 2822 3834 2567 4026 
Q 2313 4219 1838 4219 
Q 1578 4219 1281 4162 
Q 984 4106 628 3988 
L 628 4550 
Q 988 4650 1302 4700 
Q 1616 4750 1894 4750 
Q 2613 4750 3031 4423 
Q 3450 4097 3450 3541 
Q 3450 3153 3228 2886 
Q 3006 2619 2597 2516 
z
" transform="scale(0.015625)"/>
       </defs>
       <use xlink:href="#DejaVuSans-33"/>
       <use xlink:href="#DejaVuSans-30" x="63.623047"/>
       <use xlink:href="#DejaVuSans-30" x="127.246094"/>
      </g>
     </g>
    </g>
    <g id="xtick_5">
     <g id="line2d_9">
      <path d="M 379.188892 288.430125 
L 379.188892 22.318125 
" clip-path="url(#pd835bc5229)" style="fill: none; stroke: #b0b0b0; stroke-width: 0.8; stroke-linecap: square"/>
     </g>
     <g id="line2d_10">
      <g>
       <use xlink:href="#mcef070cee8" x="379.188892" y="288.430125" style="stroke: #000000; stroke-width: 0.8"/>
      </g>
     </g>
     <g id="text_5">
      <!-- 400 -->
      <g transform="translate(369.645142 303.028562) scale(0.1 -0.1)">
       <defs>
        <path id="DejaVuSans-34" d="M 2419 4116 
L 825 1625 
L 2419 1625 
L 2419 4116 
z
M 2253 4666 
L 3047 4666 
L 3047 1625 
L 3713 1625 
L 3713 1100 
L 3047 1100 
L 3047 0 
L 2419 0 
L 2419 1100 
L 313 1100 
L 313 1709 
L 2253 4666 
z
" transform="scale(0.015625)"/>
       </defs>
       <use xlink:href="#DejaVuSans-34"/>
       <use xlink:href="#DejaVuSans-30" x="63.623047"/>
       <use xlink:href="#DejaVuSans-30" x="127.246094"/>
      </g>
     </g>
    </g>
    <g id="text_6">
     <!-- Nombre exploitation 2010 - 2020 -->
     <g transform="translate(155.214688 316.706687) scale(0.1 -0.1)">
      <defs>
       <path id="DejaVuSans-4e" d="M 628 4666 
L 1478 4666 
L 3547 763 
L 3547 4666 
L 4159 4666 
L 4159 0 
L 3309 0 
L 1241 3903 
L 1241 0 
L 628 0 
L 628 4666 
z
" transform="scale(0.015625)"/>
       <path id="DejaVuSans-6f" d="M 1959 3097 
Q 1497 3097 1228 2736 
Q 959 2375 959 1747 
Q 959 1119 1226 758 
Q 1494 397 1959 397 
Q 2419 397 2687 759 
Q 2956 1122 2956 1747 
Q 2956 2369 2687 2733 
Q 2419 3097 1959 3097 
z
M 1959 3584 
Q 2709 3584 3137 3096 
Q 3566 2609 3566 1747 
Q 3566 888 3137 398 
Q 2709 -91 1959 -91 
Q 1206 -91 779 398 
Q 353 888 353 1747 
Q 353 2609 779 3096 
Q 1206 3584 1959 3584 
z
" transform="scale(0.015625)"/>
       <path id="DejaVuSans-6d" d="M 3328 2828 
Q 3544 3216 3844 3400 
Q 4144 3584 4550 3584 
Q 5097 3584 5394 3201 
Q 5691 2819 5691 2113 
L 5691 0 
L 5113 0 
L 5113 2094 
Q 5113 2597 4934 2840 
Q 4756 3084 4391 3084 
Q 3944 3084 3684 2787 
Q 3425 2491 3425 1978 
L 3425 0 
L 2847 0 
L 2847 2094 
Q 2847 2600 2669 2842 
Q 2491 3084 2119 3084 
Q 1678 3084 1418 2786 
Q 1159 2488 1159 1978 
L 1159 0 
L 581 0 
L 581 3500 
L 1159 3500 
L 1159 2956 
Q 1356 3278 1631 3431 
Q 1906 3584 2284 3584 
Q 2666 3584 2933 3390 
Q 3200 3197 3328 2828 
z
" transform="scale(0.015625)"/>
       <path id="DejaVuSans-62" d="M 3116 1747 
Q 3116 2381 2855 2742 
Q 2594 3103 2138 3103 
Q 1681 3103 1420 2742 
Q 1159 2381 1159 1747 
Q 1159 1113 1420 752 
Q 1681 391 2138 391 
Q 2594 391 2855 752 
Q 3116 1113 3116 1747 
z
M 1159 2969 
Q 1341 3281 1617 3432 
Q 1894 3584 2278 3584 
Q 2916 3584 3314 3078 
Q 3713 2572 3713 1747 
Q 3713 922 3314 415 
Q 2916 -91 2278 -91 
Q 1894 -91 1617 61 
Q 1341 213 1159 525 
L 1159 0 
L 581 0 
L 581 4863 
L 1159 4863 
L 1159 2969 
z
" transform="scale(0.015625)"/>
       <path id="DejaVuSans-72" d="M 2631 2963 
Q 2534 3019 2420 3045 
Q 2306 3072 2169 3072 
Q 1681 3072 1420 2755 
Q 1159 2438 1159 1844 
L 1159 0 
L 581 0 
L 581 3500 
L 1159 3500 
L 1159 2956 
Q 1341 3275 1631 3429 
Q 1922 3584 2338 3584 
Q 2397 3584 2469 3576 
Q 2541 3569 2628 3553 
L 2631 2963 
z
" transform="scale(0.015625)"/>
       <path id="DejaVuSans-65" d="M 3597 1894 
L 3597 1613 
L 953 1613 
Q 991 1019 1311 708 
Q 1631 397 2203 397 
Q 2534 397 2845 478 
Q 3156 559 3463 722 
L 3463 178 
Q 3153 47 2828 -22 
Q 2503 -91 2169 -91 
Q 1331 -91 842 396 
Q 353 884 353 1716 
Q 353 2575 817 3079 
Q 1281 3584 2069 3584 
Q 2775 3584 3186 3129 
Q 3597 2675 3597 1894 
z
M 3022 2063 
Q 3016 2534 2758 2815 
Q 2500 3097 2075 3097 
Q 1594 3097 1305 2825 
Q 1016 2553 972 2059 
L 3022 2063 
z
" transform="scale(0.015625)"/>
       <path id="DejaVuSans-20" transform="scale(0.015625)"/>
       <path id="DejaVuSans-78" d="M 3513 3500 
L 2247 1797 
L 3578 0 
L 2900 0 
L 1881 1375 
L 863 0 
L 184 0 
L 1544 1831 
L 300 3500 
L 978 3500 
L 1906 2253 
L 2834 3500 
L 3513 3500 
z
" transform="scale(0.015625)"/>
       <path id="DejaVuSans-70" d="M 1159 525 
L 1159 -1331 
L 581 -1331 
L 581 3500 
L 1159 3500 
L 1159 2969 
Q 1341 3281 1617 3432 
Q 1894 3584 2278 3584 
Q 2916 3584 3314 3078 
Q 3713 2572 3713 1747 
Q 3713 922 3314 415 
Q 2916 -91 2278 -91 
Q 1894 -91 1617 61 
Q 1341 213 1159 525 
z
M 3116 1747 
Q 3116 2381 2855 2742 
Q 2594 3103 2138 3103 
Q 1681 3103 1420 2742 
Q 1159 2381 1159 1747 
Q 1159 1113 1420 752 
Q 1681 391 2138 391 
Q 2594 391 2855 752 
Q 3116 1113 3116 1747 
z
" transform="scale(0.015625)"/>
       <path id="DejaVuSans-6c" d="M 603 4863 
L 1178 4863 
L 1178 0 
L 603 0 
L 603 4863 
z
" transform="scale(0.015625)"/>
       <path id="DejaVuSans-69" d="M 603 3500 
L 1178 3500 
L 1178 0 
L 603 0 
L 603 3500 
z
M 603 4863 
L 1178 4863 
L 1178 4134 
L 603 4134 
L 603 4863 
z
" transform="scale(0.015625)"/>
       <path id="DejaVuSans-74" d="M 1172 4494 
L 1172 3500 
L 2356 3500 
L 2356 3053 
L 1172 3053 
L 1172 1153 
Q 1172 725 1289 603 
Q 1406 481 1766 481 
L 2356 481 
L 2356 0 
L 1766 0 
Q 1100 0 847 248 
Q 594 497 594 1153 
L 594 3053 
L 172 3053 
L 172 3500 
L 594 3500 
L 594 4494 
L 1172 4494 
z
" transform="scale(0.015625)"/>
       <path id="DejaVuSans-61" d="M 2194 1759 
Q 1497 1759 1228 1600 
Q 959 1441 959 1056 
Q 959 750 1161 570 
Q 1363 391 1709 391 
Q 2188 391 2477 730 
Q 2766 1069 2766 1631 
L 2766 1759 
L 2194 1759 
z
M 3341 1997 
L 3341 0 
L 2766 0 
L 2766 531 
Q 2569 213 2275 61 
Q 1981 -91 1556 -91 
Q 1019 -91 701 211 
Q 384 513 384 1019 
Q 384 1609 779 1909 
Q 1175 2209 1959 2209 
L 2766 2209 
L 2766 2266 
Q 2766 2663 2505 2880 
Q 2244 3097 1772 3097 
Q 1472 3097 1187 3025 
Q 903 2953 641 2809 
L 641 3341 
Q 956 3463 1253 3523 
Q 1550 3584 1831 3584 
Q 2591 3584 2966 3190 
Q 3341 2797 3341 1997 
z
" transform="scale(0.015625)"/>
       <path id="DejaVuSans-6e" d="M 3513 2113 
L 3513 0 
L 2938 0 
L 2938 2094 
Q 2938 2591 2744 2837 
Q 2550 3084 2163 3084 
Q 1697 3084 1428 2787 
Q 1159 2491 1159 1978 
L 1159 0 
L 581 0 
L 581 3500 
L 1159 3500 
L 1159 2956 
Q 1366 3272 1645 3428 
Q 1925 3584 2291 3584 
Q 2894 3584 3203 3211 
Q 3513 2838 3513 2113 
z
" transform="scale(0.015625)"/>
       <path id="DejaVuSans-2d" d="M 313 2009 
L 1997 2009 
L 1997 1497 
L 313 1497 
L 313 2009 
z
" transform="scale(0.015625)"/>
      </defs>
      <use xlink:href="#DejaVuSans-4e"/>
      <use xlink:href="#DejaVuSans-6f" x="74.804688"/>
      <use xlink:href="#DejaVuSans-6d" x="135.986328"/>
      <use xlink:href="#DejaVuSans-62" x="233.398438"/>
      <use xlink:href="#DejaVuSans-72" x="296.875"/>
      <use xlink:href="#DejaVuSans-65" x="335.738281"/>
      <use xlink:href="#DejaVuSans-20" x="397.261719"/>
      <use xlink:href="#DejaVuSans-65" x="429.048828"/>
      <use xlink:href="#DejaVuSans-78" x="488.822266"/>
      <use xlink:href="#DejaVuSans-70" x="548.001953"/>
      <use xlink:href="#DejaVuSans-6c" x="611.478516"/>
      <use xlink:href="#DejaVuSans-6f" x="639.261719"/>
      <use xlink:href="#DejaVuSans-69" x="700.443359"/>
      <use xlink:href="#DejaVuSans-74" x="728.226562"/>
      <use xlink:href="#DejaVuSans-61" x="767.435547"/>
      <use xlink:href="#DejaVuSans-74" x="828.714844"/>
      <use xlink:href="#DejaVuSans-69" x="867.923828"/>
      <use xlink:href="#DejaVuSans-6f" x="895.707031"/>
      <use xlink:href="#DejaVuSans-6e" x="956.888672"/>
      <use xlink:href="#DejaVuSans-20" x="1020.267578"/>
      <use xlink:href="#DejaVuSans-32" x="1052.054688"/>
      <use xlink:href="#DejaVuSans-30" x="1115.677734"/>
      <use xlink:href="#DejaVuSans-31" x="1179.300781"/>
      <use xlink:href="#DejaVuSans-30" x="1242.923828"/>
      <use xlink:href="#DejaVuSans-20" x="1306.546875"/>
      <use xlink:href="#DejaVuSans-2d" x="1338.333984"/>
      <use xlink:href="#DejaVuSans-20" x="1374.417969"/>
      <use xlink:href="#DejaVuSans-32" x="1406.205078"/>
      <use xlink:href="#DejaVuSans-30" x="1469.828125"/>
      <use xlink:href="#DejaVuSans-32" x="1533.451172"/>
      <use xlink:href="#DejaVuSans-30" x="1597.074219"/>
     </g>
    </g>
   </g>
   <g id="matplotlib.axis_2">
    <g id="ytick_1">
     <g id="line2d_11">
      <path d="M 59.690625 280.822894 
L 416.810625 280.822894 
" clip-path="url(#pd835bc5229)" style="fill: none; stroke: #b0b0b0; stroke-width: 0.8; stroke-linecap: square"/>
     </g>
     <g id="line2d_12">
      <defs>
       <path id="m3196f902b1" d="M 0 0 
L -3.5 0 
" style="stroke: #000000; stroke-width: 0.8"/>
      </defs>
      <g>
       <use xlink:href="#m3196f902b1" x="59.690625" y="280.822894" style="stroke: #000000; stroke-width: 0.8"/>
      </g>
     </g>
     <g id="text_7">
      <!-- 0 -->
      <g transform="translate(46.328125 284.622112) scale(0.1 -0.1)">
       <use xlink:href="#DejaVuSans-30"/>
      </g>
     </g>
    </g>
    <g id="ytick_2">
     <g id="line2d_13">
      <path d="M 59.690625 247.871756 
L 416.810625 247.871756 
" clip-path="url(#pd835bc5229)" style="fill: none; stroke: #b0b0b0; stroke-width: 0.8; stroke-linecap: square"/>
     </g>
     <g id="line2d_14">
      <g>
       <use xlink:href="#m3196f902b1" x="59.690625" y="247.871756" style="stroke: #000000; stroke-width: 0.8"/>
      </g>
     </g>
     <g id="text_8">
      <!-- 2000 -->
      <g transform="translate(27.240625 251.670975) scale(0.1 -0.1)">
       <use xlink:href="#DejaVuSans-32"/>
       <use xlink:href="#DejaVuSans-30" x="63.623047"/>
       <use xlink:href="#DejaVuSans-30" x="127.246094"/>
       <use xlink:href="#DejaVuSans-30" x="190.869141"/>
      </g>
     </g>
    </g>
    <g id="ytick_3">
     <g id="line2d_15">
      <path d="M 59.690625 214.920619 
L 416.810625 214.920619 
" clip-path="url(#pd835bc5229)" style="fill: none; stroke: #b0b0b0; stroke-width: 0.8; stroke-linecap: square"/>
     </g>
     <g id="line2d_16">
      <g>
       <use xlink:href="#m3196f902b1" x="59.690625" y="214.920619" style="stroke: #000000; stroke-width: 0.8"/>
      </g>
     </g>
     <g id="text_9">
      <!-- 4000 -->
      <g transform="translate(27.240625 218.719838) scale(0.1 -0.1)">
       <use xlink:href="#DejaVuSans-34"/>
       <use xlink:href="#DejaVuSans-30" x="63.623047"/>
       <use xlink:href="#DejaVuSans-30" x="127.246094"/>
       <use xlink:href="#DejaVuSans-30" x="190.869141"/>
      </g>
     </g>
    </g>
    <g id="ytick_4">
     <g id="line2d_17">
      <path d="M 59.690625 181.969482 
L 416.810625 181.969482 
" clip-path="url(#pd835bc5229)" style="fill: none; stroke: #b0b0b0; stroke-width: 0.8; stroke-linecap: square"/>
     </g>
     <g id="line2d_18">
      <g>
       <use xlink:href="#m3196f902b1" x="59.690625" y="181.969482" style="stroke: #000000; stroke-width: 0.8"/>
      </g>
     </g>
     <g id="text_10">
      <!-- 6000 -->
      <g transform="translate(27.240625 185.768701) scale(0.1 -0.1)">
       <defs>
        <path id="DejaVuSans-36" d="M 2113 2584 
Q 1688 2584 1439 2293 
Q 1191 2003 1191 1497 
Q 1191 994 1439 701 
Q 1688 409 2113 409 
Q 2538 409 2786 701 
Q 3034 994 3034 1497 
Q 3034 2003 2786 2293 
Q 2538 2584 2113 2584 
z
M 3366 4563 
L 3366 3988 
Q 3128 4100 2886 4159 
Q 2644 4219 2406 4219 
Q 1781 4219 1451 3797 
Q 1122 3375 1075 2522 
Q 1259 2794 1537 2939 
Q 1816 3084 2150 3084 
Q 2853 3084 3261 2657 
Q 3669 2231 3669 1497 
Q 3669 778 3244 343 
Q 2819 -91 2113 -91 
Q 1303 -91 875 529 
Q 447 1150 447 2328 
Q 447 3434 972 4092 
Q 1497 4750 2381 4750 
Q 2619 4750 2861 4703 
Q 3103 4656 3366 4563 
z
" transform="scale(0.015625)"/>
       </defs>
       <use xlink:href="#DejaVuSans-36"/>
       <use xlink:href="#DejaVuSans-30" x="63.623047"/>
       <use xlink:href="#DejaVuSans-30" x="127.246094"/>
       <use xlink:href="#DejaVuSans-30" x="190.869141"/>
      </g>
     </g>
    </g>
    <g id="ytick_5">
     <g id="line2d_19">
      <path d="M 59.690625 149.018345 
L 416.810625 149.018345 
" clip-path="url(#pd835bc5229)" style="fill: none; stroke: #b0b0b0; stroke-width: 0.8; stroke-linecap: square"/>
     </g>
     <g id="line2d_20">
      <g>
       <use xlink:href="#m3196f902b1" x="59.690625" y="149.018345" style="stroke: #000000; stroke-width: 0.8"/>
      </g>
     </g>
     <g id="text_11">
      <!-- 8000 -->
      <g transform="translate(27.240625 152.817564) scale(0.1 -0.1)">
       <defs>
        <path id="DejaVuSans-38" d="M 2034 2216 
Q 1584 2216 1326 1975 
Q 1069 1734 1069 1313 
Q 1069 891 1326 650 
Q 1584 409 2034 409 
Q 2484 409 2743 651 
Q 3003 894 3003 1313 
Q 3003 1734 2745 1975 
Q 2488 2216 2034 2216 
z
M 1403 2484 
Q 997 2584 770 2862 
Q 544 3141 544 3541 
Q 544 4100 942 4425 
Q 1341 4750 2034 4750 
Q 2731 4750 3128 4425 
Q 3525 4100 3525 3541 
Q 3525 3141 3298 2862 
Q 3072 2584 2669 2484 
Q 3125 2378 3379 2068 
Q 3634 1759 3634 1313 
Q 3634 634 3220 271 
Q 2806 -91 2034 -91 
Q 1263 -91 848 271 
Q 434 634 434 1313 
Q 434 1759 690 2068 
Q 947 2378 1403 2484 
z
M 1172 3481 
Q 1172 3119 1398 2916 
Q 1625 2713 2034 2713 
Q 2441 2713 2670 2916 
Q 2900 3119 2900 3481 
Q 2900 3844 2670 4047 
Q 2441 4250 2034 4250 
Q 1625 4250 1398 4047 
Q 1172 3844 1172 3481 
z
" transform="scale(0.015625)"/>
       </defs>
       <use xlink:href="#DejaVuSans-38"/>
       <use xlink:href="#DejaVuSans-30" x="63.623047"/>
       <use xlink:href="#DejaVuSans-30" x="127.246094"/>
       <use xlink:href="#DejaVuSans-30" x="190.869141"/>
      </g>
     </g>
    </g>
    <g id="ytick_6">
     <g id="line2d_21">
      <path d="M 59.690625 116.067208 
L 416.810625 116.067208 
" clip-path="url(#pd835bc5229)" style="fill: none; stroke: #b0b0b0; stroke-width: 0.8; stroke-linecap: square"/>
     </g>
     <g id="line2d_22">
      <g>
       <use xlink:href="#m3196f902b1" x="59.690625" y="116.067208" style="stroke: #000000; stroke-width: 0.8"/>
      </g>
     </g>
     <g id="text_12">
      <!-- 10000 -->
      <g transform="translate(20.878125 119.866426) scale(0.1 -0.1)">
       <use xlink:href="#DejaVuSans-31"/>
       <use xlink:href="#DejaVuSans-30" x="63.623047"/>
       <use xlink:href="#DejaVuSans-30" x="127.246094"/>
       <use xlink:href="#DejaVuSans-30" x="190.869141"/>
       <use xlink:href="#DejaVuSans-30" x="254.492188"/>
      </g>
     </g>
    </g>
    <g id="ytick_7">
     <g id="line2d_23">
      <path d="M 59.690625 83.116071 
L 416.810625 83.116071 
" clip-path="url(#pd835bc5229)" style="fill: none; stroke: #b0b0b0; stroke-width: 0.8; stroke-linecap: square"/>
     </g>
     <g id="line2d_24">
      <g>
       <use xlink:href="#m3196f902b1" x="59.690625" y="83.116071" style="stroke: #000000; stroke-width: 0.8"/>
      </g>
     </g>
     <g id="text_13">
      <!-- 12000 -->
      <g transform="translate(20.878125 86.915289) scale(0.1 -0.1)">
       <use xlink:href="#DejaVuSans-31"/>
       <use xlink:href="#DejaVuSans-32" x="63.623047"/>
       <use xlink:href="#DejaVuSans-30" x="127.246094"/>
       <use xlink:href="#DejaVuSans-30" x="190.869141"/>
       <use xlink:href="#DejaVuSans-30" x="254.492188"/>
      </g>
     </g>
    </g>
    <g id="ytick_8">
     <g id="line2d_25">
      <path d="M 59.690625 50.164933 
L 416.810625 50.164933 
" clip-path="url(#pd835bc5229)" style="fill: none; stroke: #b0b0b0; stroke-width: 0.8; stroke-linecap: square"/>
     </g>
     <g id="line2d_26">
      <g>
       <use xlink:href="#m3196f902b1" x="59.690625" y="50.164933" style="stroke: #000000; stroke-width: 0.8"/>
      </g>
     </g>
     <g id="text_14">
      <!-- 14000 -->
      <g transform="translate(20.878125 53.964152) scale(0.1 -0.1)">
       <use xlink:href="#DejaVuSans-31"/>
       <use xlink:href="#DejaVuSans-34" x="63.623047"/>
       <use xlink:href="#DejaVuSans-30" x="127.246094"/>
       <use xlink:href="#DejaVuSans-30" x="190.869141"/>
       <use xlink:href="#DejaVuSans-30" x="254.492188"/>
      </g>
     </g>
    </g>
    <g id="text_15">
     <!-- Surface exploitation 2010 - 2020 -->
     <g transform="translate(14.798437 237.594437) rotate(-90) scale(0.1 -0.1)">
      <defs>
       <path id="DejaVuSans-53" d="M 3425 4513 
L 3425 3897 
Q 3066 4069 2747 4153 
Q 2428 4238 2131 4238 
Q 1616 4238 1336 4038 
Q 1056 3838 1056 3469 
Q 1056 3159 1242 3001 
Q 1428 2844 1947 2747 
L 2328 2669 
Q 3034 2534 3370 2195 
Q 3706 1856 3706 1288 
Q 3706 609 3251 259 
Q 2797 -91 1919 -91 
Q 1588 -91 1214 -16 
Q 841 59 441 206 
L 441 856 
Q 825 641 1194 531 
Q 1563 422 1919 422 
Q 2459 422 2753 634 
Q 3047 847 3047 1241 
Q 3047 1584 2836 1778 
Q 2625 1972 2144 2069 
L 1759 2144 
Q 1053 2284 737 2584 
Q 422 2884 422 3419 
Q 422 4038 858 4394 
Q 1294 4750 2059 4750 
Q 2388 4750 2728 4690 
Q 3069 4631 3425 4513 
z
" transform="scale(0.015625)"/>
       <path id="DejaVuSans-75" d="M 544 1381 
L 544 3500 
L 1119 3500 
L 1119 1403 
Q 1119 906 1312 657 
Q 1506 409 1894 409 
Q 2359 409 2629 706 
Q 2900 1003 2900 1516 
L 2900 3500 
L 3475 3500 
L 3475 0 
L 2900 0 
L 2900 538 
Q 2691 219 2414 64 
Q 2138 -91 1772 -91 
Q 1169 -91 856 284 
Q 544 659 544 1381 
z
M 1991 3584 
L 1991 3584 
z
" transform="scale(0.015625)"/>
       <path id="DejaVuSans-66" d="M 2375 4863 
L 2375 4384 
L 1825 4384 
Q 1516 4384 1395 4259 
Q 1275 4134 1275 3809 
L 1275 3500 
L 2222 3500 
L 2222 3053 
L 1275 3053 
L 1275 0 
L 697 0 
L 697 3053 
L 147 3053 
L 147 3500 
L 697 3500 
L 697 3744 
Q 697 4328 969 4595 
Q 1241 4863 1831 4863 
L 2375 4863 
z
" transform="scale(0.015625)"/>
       <path id="DejaVuSans-63" d="M 3122 3366 
L 3122 2828 
Q 2878 2963 2633 3030 
Q 2388 3097 2138 3097 
Q 1578 3097 1268 2742 
Q 959 2388 959 1747 
Q 959 1106 1268 751 
Q 1578 397 2138 397 
Q 2388 397 2633 464 
Q 2878 531 3122 666 
L 3122 134 
Q 2881 22 2623 -34 
Q 2366 -91 2075 -91 
Q 1284 -91 818 406 
Q 353 903 353 1747 
Q 353 2603 823 3093 
Q 1294 3584 2113 3584 
Q 2378 3584 2631 3529 
Q 2884 3475 3122 3366 
z
" transform="scale(0.015625)"/>
      </defs>
      <use xlink:href="#DejaVuSans-53"/>
      <use xlink:href="#DejaVuSans-75" x="63.476562"/>
      <use xlink:href="#DejaVuSans-72" x="126.855469"/>
      <use xlink:href="#DejaVuSans-66" x="167.96875"/>
      <use xlink:href="#DejaVuSans-61" x="203.173828"/>
      <use xlink:href="#DejaVuSans-63" x="264.453125"/>
      <use xlink:href="#DejaVuSans-65" x="319.433594"/>
      <use xlink:href="#DejaVuSans-20" x="380.957031"/>
      <use xlink:href="#DejaVuSans-65" x="412.744141"/>
      <use xlink:href="#DejaVuSans-78" x="472.517578"/>
      <use xlink:href="#DejaVuSans-70" x="531.697266"/>
      <use xlink:href="#DejaVuSans-6c" x="595.173828"/>
      <use xlink:href="#DejaVuSans-6f" x="622.957031"/>
      <use xlink:href="#DejaVuSans-69" x="684.138672"/>
      <use xlink:href="#DejaVuSans-74" x="711.921875"/>
      <use xlink:href="#DejaVuSans-61" x="751.130859"/>
      <use xlink:href="#DejaVuSans-74" x="812.410156"/>
      <use xlink:href="#DejaVuSans-69" x="851.619141"/>
      <use xlink:href="#DejaVuSans-6f" x="879.402344"/>
      <use xlink:href="#DejaVuSans-6e" x="940.583984"/>
      <use xlink:href="#DejaVuSans-20" x="1003.962891"/>
      <use xlink:href="#DejaVuSans-32" x="1035.75"/>
      <use xlink:href="#DejaVuSans-30" x="1099.373047"/>
      <use xlink:href="#DejaVuSans-31" x="1162.996094"/>
      <use xlink:href="#DejaVuSans-30" x="1226.619141"/>
      <use xlink:href="#DejaVuSans-20" x="1290.242188"/>
      <use xlink:href="#DejaVuSans-2d" x="1322.029297"/>
      <use xlink:href="#DejaVuSans-20" x="1358.113281"/>
      <use xlink:href="#DejaVuSans-32" x="1389.900391"/>
      <use xlink:href="#DejaVuSans-30" x="1453.523438"/>
      <use xlink:href="#DejaVuSans-32" x="1517.146484"/>
      <use xlink:href="#DejaVuSans-30" x="1580.769531"/>
     </g>
    </g>
   </g>
   <g id="PathCollection_1">
    <path d="M 235.576999 247.830323 
C 237.20103 247.830323 238.758763 247.185089 239.907126 246.036726 
C 241.055489 244.888363 241.700724 243.330629 241.700724 241.706599 
C 241.700724 240.082568 241.055489 238.524835 239.907126 237.376472 
C 238.758763 236.228109 237.20103 235.582874 235.576999 235.582874 
C 233.952969 235.582874 232.395235 236.228109 231.246872 237.376472 
C 230.098509 238.524835 229.453275 240.082568 229.453275 241.706599 
C 229.453275 243.330629 230.098509 244.888363 231.246872 246.036726 
C 232.395235 247.185089 233.952969 247.830323 235.576999 247.830323 
z
" clip-path="url(#pd835bc5229)" style="fill: #ff0000; stroke: #ff0000"/>
    <path d="M 400.577898 40.537849 
C 402.201928 40.537849 403.759662 39.892615 404.908025 38.744252 
C 406.056388 37.595889 406.701622 36.038156 406.701622 34.414125 
C 406.701622 32.790094 406.056388 31.232361 404.908025 30.083998 
C 403.759662 28.935635 402.201928 28.290401 400.577898 28.290401 
C 398.953867 28.290401 397.396134 28.935635 396.247771 30.083998 
C 395.099408 31.232361 394.454173 32.790094 394.454173 34.414125 
C 394.454173 36.038156 395.099408 37.595889 396.247771 38.744252 
C 397.396134 39.892615 398.953867 40.537849 400.577898 40.537849 
z
" clip-path="url(#pd835bc5229)" style="fill: #ffa500; stroke: #ffa500"/>
    <path d="M 152.312657 185.888281 
C 153.936688 185.888281 155.494421 185.243047 156.642784 184.094684 
C 157.791147 182.946321 158.436381 181.388587 158.436381 179.764557 
C 158.436381 178.140526 157.791147 176.582793 156.642784 175.43443 
C 155.494421 174.286067 153.936688 173.640832 152.312657 173.640832 
C 150.688626 173.640832 149.130893 174.286067 147.98253 175.43443 
C 146.834167 176.582793 146.188933 178.140526 146.188933 179.764557 
C 146.188933 181.388587 146.834167 182.946321 147.98253 184.094684 
C 149.130893 185.243047 150.688626 185.888281 152.312657 185.888281 
z
" clip-path="url(#pd835bc5229)" style="fill: #0000ff; stroke: #0000ff"/>
    <path d="M 75.923352 282.457849 
C 77.547383 282.457849 79.105116 281.812615 80.253479 280.664252 
C 81.401842 279.515889 82.047077 277.958156 82.047077 276.334125 
C 82.047077 274.710094 81.401842 273.152361 80.253479 272.003998 
C 79.105116 270.855635 77.547383 270.210401 75.923352 270.210401 
C 74.299322 270.210401 72.741588 270.855635 71.593225 272.003998 
C 70.444862 273.152361 69.799628 274.710094 69.799628 276.334125 
C 69.799628 277.958156 70.444862 279.515889 71.593225 280.664252 
C 72.741588 281.812615 74.299322 282.457849 75.923352 282.457849 
z
" clip-path="url(#pd835bc5229)" style="fill: #008000; stroke: #008000"/>
   </g>
   <g id="PathCollection_2">
    <path d="M 198.14624 250.166394 
C 199.770271 250.166394 201.328004 249.52116 202.476367 248.372797 
C 203.62473 247.224433 204.269964 245.6667 204.269964 244.04267 
C 204.269964 242.418639 203.62473 240.860906 202.476367 239.712543 
C 201.328004 238.564179 199.770271 237.918945 198.14624 237.918945 
C 196.522209 237.918945 194.964476 238.564179 193.816113 239.712543 
C 192.66775 240.860906 192.022516 242.418639 192.022516 244.04267 
C 192.022516 245.6667 192.66775 247.224433 193.816113 248.372797 
C 194.964476 249.52116 196.522209 250.166394 198.14624 250.166394 
z
" clip-path="url(#pd835bc5229)" style="fill: #ff0000; fill-opacity: 0.5; stroke: #ff0000; stroke-opacity: 0.5"/>
    <path d="M 308.910732 90.833147 
C 310.534763 90.833147 312.092496 90.187913 313.240859 89.03955 
C 314.389222 87.891187 315.034456 86.333453 315.034456 84.709423 
C 315.034456 83.085392 314.389222 81.527659 313.240859 80.379296 
C 312.092496 79.230933 310.534763 78.585698 308.910732 78.585698 
C 307.286701 78.585698 305.728968 79.230933 304.580605 80.379296 
C 303.432242 81.527659 302.787008 83.085392 302.787008 84.709423 
C 302.787008 86.333453 303.432242 87.891187 304.580605 89.03955 
C 305.728968 90.187913 307.286701 90.833147 308.910732 90.833147 
z
" clip-path="url(#pd835bc5229)" style="fill: #ffa500; fill-opacity: 0.5; stroke: #ffa500; stroke-opacity: 0.5"/>
    <path d="M 166.062732 150.595636 
C 167.686763 150.595636 169.244496 149.950402 170.392859 148.802039 
C 171.541222 147.653676 172.186456 146.095942 172.186456 144.471912 
C 172.186456 142.847881 171.541222 141.290148 170.392859 140.141785 
C 169.244496 138.993422 167.686763 138.348187 166.062732 138.348187 
C 164.438701 138.348187 162.880968 138.993422 161.732605 140.141785 
C 160.584242 141.290148 159.939008 142.847881 159.939008 144.471912 
C 159.939008 146.095942 160.584242 147.653676 161.732605 148.802039 
C 162.880968 149.950402 164.438701 150.595636 166.062732 150.595636 
z
" clip-path="url(#pd835bc5229)" style="fill: #0000ff; fill-opacity: 0.5; stroke: #0000ff; stroke-opacity: 0.5"/>
    <path d="M 80.506711 275.561012 
C 82.130741 275.561012 83.688474 274.915777 84.836838 273.767414 
C 85.985201 272.619051 86.630435 271.061318 86.630435 269.437287 
C 86.630435 267.813257 85.985201 266.255523 84.836838 265.10716 
C 83.688474 263.958797 82.130741 263.313563 80.506711 263.313563 
C 78.88268 263.313563 77.324947 263.958797 76.176584 265.10716 
C 75.02822 266.255523 74.382986 267.813257 74.382986 269.437287 
C 74.382986 271.061318 75.02822 272.619051 76.176584 273.767414 
C 77.324947 274.915777 78.88268 275.561012 80.506711 275.561012 
z
" clip-path="url(#pd835bc5229)" style="fill: #008000; fill-opacity: 0.5; stroke: #008000; stroke-opacity: 0.5"/>
   </g>
   <g id="patch_3">
    <path d="M 59.690625 288.430125 
L 59.690625 22.318125 
" style="fill: none; stroke: #000000; stroke-width: 0.8; stroke-linejoin: miter; stroke-linecap: square"/>
   </g>
   <g id="patch_4">
    <path d="M 416.810625 288.430125 
L 416.810625 22.318125 
" style="fill: none; stroke: #000000; stroke-width: 0.8; stroke-linejoin: miter; stroke-linecap: square"/>
   </g>
   <g id="patch_5">
    <path d="M 59.690625 288.430125 
L 416.810625 288.430125 
" style="fill: none; stroke: #000000; stroke-width: 0.8; stroke-linejoin: miter; stroke-linecap: square"/>
   </g>
   <g id="patch_6">
    <path d="M 59.690625 22.318125 
L 416.810625 22.318125 
" style="fill: none; stroke: #000000; stroke-width: 0.8; stroke-linejoin: miter; stroke-linecap: square"/>
   </g>
   <g id="text_16">
    <!-- Soule Xiberoa -->
    <g transform="translate(196.744687 16.318125) scale(0.12 -0.12)">
     <defs>
      <path id="DejaVuSans-58" d="M 403 4666 
L 1081 4666 
L 2241 2931 
L 3406 4666 
L 4084 4666 
L 2584 2425 
L 4184 0 
L 3506 0 
L 2194 1984 
L 872 0 
L 191 0 
L 1856 2491 
L 403 4666 
z
" transform="scale(0.015625)"/>
     </defs>
     <use xlink:href="#DejaVuSans-53"/>
     <use xlink:href="#DejaVuSans-6f" x="63.476562"/>
     <use xlink:href="#DejaVuSans-75" x="124.658203"/>
     <use xlink:href="#DejaVuSans-6c" x="188.037109"/>
     <use xlink:href="#DejaVuSans-65" x="215.820312"/>
     <use xlink:href="#DejaVuSans-20" x="277.34375"/>
     <use xlink:href="#DejaVuSans-58" x="309.130859"/>
     <use xlink:href="#DejaVuSans-69" x="377.636719"/>
     <use xlink:href="#DejaVuSans-62" x="405.419922"/>
     <use xlink:href="#DejaVuSans-65" x="468.896484"/>
     <use xlink:href="#DejaVuSans-72" x="530.419922"/>
     <use xlink:href="#DejaVuSans-6f" x="569.283203"/>
     <use xlink:href="#DejaVuSans-61" x="630.464844"/>
    </g>
   </g>
   <g id="legend_1">
    <g id="patch_7">
     <path d="M 423.810625 147.743125 
L 592.387187 147.743125 
Q 594.387187 147.743125 594.387187 145.743125 
L 594.387187 29.318125 
Q 594.387187 27.318125 592.387187 27.318125 
L 423.810625 27.318125 
Q 421.810625 27.318125 421.810625 29.318125 
L 421.810625 145.743125 
Q 421.810625 147.743125 423.810625 147.743125 
z
" style="fill: #ffffff; opacity: 0.8; stroke: #cccccc; stroke-linejoin: miter"/>
    </g>
    <g id="line2d_27">
     <path d="M 425.810625 35.416562 
L 435.810625 35.416562 
L 445.810625 35.416562 
" style="fill: none; stroke: #ffffff; stroke-opacity: 0.5; stroke-width: 1.5; stroke-linecap: square"/>
     <defs>
      <path id="m408581754e" d="M 0 2.5 
C 0.663008 2.5 1.29895 2.236584 1.767767 1.767767 
C 2.236584 1.29895 2.5 0.663008 2.5 0 
C 2.5 -0.663008 2.236584 -1.29895 1.767767 -1.767767 
C 1.29895 -2.236584 0.663008 -2.5 0 -2.5 
C -0.663008 -2.5 -1.29895 -2.236584 -1.767767 -1.767767 
C -2.236584 -1.29895 -2.5 -0.663008 -2.5 0 
C -2.5 0.663008 -2.236584 1.29895 -1.767767 1.767767 
C -1.29895 2.236584 -0.663008 2.5 0 2.5 
z
" style="stroke: #ffffff; stroke-opacity: 0.5"/>
     </defs>
     <g>
      <use xlink:href="#m408581754e" x="435.810625" y="35.416562" style="fill: #ff0000; fill-opacity: 0.5; stroke: #ffffff; stroke-opacity: 0.5"/>
     </g>
    </g>
    <g id="text_17">
     <!-- Micro exploitation 2010 -->
     <g transform="translate(453.810625 38.916562) scale(0.1 -0.1)">
      <defs>
       <path id="DejaVuSans-4d" d="M 628 4666 
L 1569 4666 
L 2759 1491 
L 3956 4666 
L 4897 4666 
L 4897 0 
L 4281 0 
L 4281 4097 
L 3078 897 
L 2444 897 
L 1241 4097 
L 1241 0 
L 628 0 
L 628 4666 
z
" transform="scale(0.015625)"/>
      </defs>
      <use xlink:href="#DejaVuSans-4d"/>
      <use xlink:href="#DejaVuSans-69" x="86.279297"/>
      <use xlink:href="#DejaVuSans-63" x="114.0625"/>
      <use xlink:href="#DejaVuSans-72" x="169.042969"/>
      <use xlink:href="#DejaVuSans-6f" x="207.90625"/>
      <use xlink:href="#DejaVuSans-20" x="269.087891"/>
      <use xlink:href="#DejaVuSans-65" x="300.875"/>
      <use xlink:href="#DejaVuSans-78" x="360.648438"/>
      <use xlink:href="#DejaVuSans-70" x="419.828125"/>
      <use xlink:href="#DejaVuSans-6c" x="483.304688"/>
      <use xlink:href="#DejaVuSans-6f" x="511.087891"/>
      <use xlink:href="#DejaVuSans-69" x="572.269531"/>
      <use xlink:href="#DejaVuSans-74" x="600.052734"/>
      <use xlink:href="#DejaVuSans-61" x="639.261719"/>
      <use xlink:href="#DejaVuSans-74" x="700.541016"/>
      <use xlink:href="#DejaVuSans-69" x="739.75"/>
      <use xlink:href="#DejaVuSans-6f" x="767.533203"/>
      <use xlink:href="#DejaVuSans-6e" x="828.714844"/>
      <use xlink:href="#DejaVuSans-20" x="892.09375"/>
      <use xlink:href="#DejaVuSans-32" x="923.880859"/>
      <use xlink:href="#DejaVuSans-30" x="987.503906"/>
      <use xlink:href="#DejaVuSans-31" x="1051.126953"/>
      <use xlink:href="#DejaVuSans-30" x="1114.75"/>
     </g>
    </g>
    <g id="line2d_28">
     <path d="M 425.810625 50.094688 
L 435.810625 50.094688 
L 445.810625 50.094688 
" style="fill: none; stroke: #ffffff; stroke-width: 1.5; stroke-linecap: square"/>
     <defs>
      <path id="m00e6422b68" d="M 0 2.5 
C 0.663008 2.5 1.29895 2.236584 1.767767 1.767767 
C 2.236584 1.29895 2.5 0.663008 2.5 0 
C 2.5 -0.663008 2.236584 -1.29895 1.767767 -1.767767 
C 1.29895 -2.236584 0.663008 -2.5 0 -2.5 
C -0.663008 -2.5 -1.29895 -2.236584 -1.767767 -1.767767 
C -2.236584 -1.29895 -2.5 -0.663008 -2.5 0 
C -2.5 0.663008 -2.236584 1.29895 -1.767767 1.767767 
C -1.29895 2.236584 -0.663008 2.5 0 2.5 
z
" style="stroke: #ffffff"/>
     </defs>
     <g>
      <use xlink:href="#m00e6422b68" x="435.810625" y="50.094688" style="fill: #ff0000; stroke: #ffffff"/>
     </g>
    </g>
    <g id="text_18">
     <!-- Micro exploitation 2020 -->
     <g transform="translate(453.810625 53.594688) scale(0.1 -0.1)">
      <use xlink:href="#DejaVuSans-4d"/>
      <use xlink:href="#DejaVuSans-69" x="86.279297"/>
      <use xlink:href="#DejaVuSans-63" x="114.0625"/>
      <use xlink:href="#DejaVuSans-72" x="169.042969"/>
      <use xlink:href="#DejaVuSans-6f" x="207.90625"/>
      <use xlink:href="#DejaVuSans-20" x="269.087891"/>
      <use xlink:href="#DejaVuSans-65" x="300.875"/>
      <use xlink:href="#DejaVuSans-78" x="360.648438"/>
      <use xlink:href="#DejaVuSans-70" x="419.828125"/>
      <use xlink:href="#DejaVuSans-6c" x="483.304688"/>
      <use xlink:href="#DejaVuSans-6f" x="511.087891"/>
      <use xlink:href="#DejaVuSans-69" x="572.269531"/>
      <use xlink:href="#DejaVuSans-74" x="600.052734"/>
      <use xlink:href="#DejaVuSans-61" x="639.261719"/>
      <use xlink:href="#DejaVuSans-74" x="700.541016"/>
      <use xlink:href="#DejaVuSans-69" x="739.75"/>
      <use xlink:href="#DejaVuSans-6f" x="767.533203"/>
      <use xlink:href="#DejaVuSans-6e" x="828.714844"/>
      <use xlink:href="#DejaVuSans-20" x="892.09375"/>
      <use xlink:href="#DejaVuSans-32" x="923.880859"/>
      <use xlink:href="#DejaVuSans-30" x="987.503906"/>
      <use xlink:href="#DejaVuSans-32" x="1051.126953"/>
      <use xlink:href="#DejaVuSans-30" x="1114.75"/>
     </g>
    </g>
    <g id="line2d_29">
     <path d="M 425.810625 64.772812 
L 435.810625 64.772812 
L 445.810625 64.772812 
" style="fill: none; stroke: #ffffff; stroke-opacity: 0.5; stroke-width: 1.5; stroke-linecap: square"/>
     <defs>
      <path id="md070614885" d="M 0 2.5 
C 0.663008 2.5 1.29895 2.236584 1.767767 1.767767 
C 2.236584 1.29895 2.5 0.663008 2.5 0 
C 2.5 -0.663008 2.236584 -1.29895 1.767767 -1.767767 
C 1.29895 -2.236584 0.663008 -2.5 0 -2.5 
C -0.663008 -2.5 -1.29895 -2.236584 -1.767767 -1.767767 
C -2.236584 -1.29895 -2.5 -0.663008 -2.5 0 
C -2.5 0.663008 -2.236584 1.29895 -1.767767 1.767767 
C -1.29895 2.236584 -0.663008 2.5 0 2.5 
z
" style="stroke: #ffffff; stroke-opacity: 0.5"/>
     </defs>
     <g>
      <use xlink:href="#md070614885" x="435.810625" y="64.772812" style="fill: #ffa500; fill-opacity: 0.5; stroke: #ffffff; stroke-opacity: 0.5"/>
     </g>
    </g>
    <g id="text_19">
     <!-- Petite exploitation 2010 -->
     <g transform="translate(453.810625 68.272812) scale(0.1 -0.1)">
      <defs>
       <path id="DejaVuSans-50" d="M 1259 4147 
L 1259 2394 
L 2053 2394 
Q 2494 2394 2734 2622 
Q 2975 2850 2975 3272 
Q 2975 3691 2734 3919 
Q 2494 4147 2053 4147 
L 1259 4147 
z
M 628 4666 
L 2053 4666 
Q 2838 4666 3239 4311 
Q 3641 3956 3641 3272 
Q 3641 2581 3239 2228 
Q 2838 1875 2053 1875 
L 1259 1875 
L 1259 0 
L 628 0 
L 628 4666 
z
" transform="scale(0.015625)"/>
      </defs>
      <use xlink:href="#DejaVuSans-50"/>
      <use xlink:href="#DejaVuSans-65" x="56.677734"/>
      <use xlink:href="#DejaVuSans-74" x="118.201172"/>
      <use xlink:href="#DejaVuSans-69" x="157.410156"/>
      <use xlink:href="#DejaVuSans-74" x="185.193359"/>
      <use xlink:href="#DejaVuSans-65" x="224.402344"/>
      <use xlink:href="#DejaVuSans-20" x="285.925781"/>
      <use xlink:href="#DejaVuSans-65" x="317.712891"/>
      <use xlink:href="#DejaVuSans-78" x="377.486328"/>
      <use xlink:href="#DejaVuSans-70" x="436.666016"/>
      <use xlink:href="#DejaVuSans-6c" x="500.142578"/>
      <use xlink:href="#DejaVuSans-6f" x="527.925781"/>
      <use xlink:href="#DejaVuSans-69" x="589.107422"/>
      <use xlink:href="#DejaVuSans-74" x="616.890625"/>
      <use xlink:href="#DejaVuSans-61" x="656.099609"/>
      <use xlink:href="#DejaVuSans-74" x="717.378906"/>
      <use xlink:href="#DejaVuSans-69" x="756.587891"/>
      <use xlink:href="#DejaVuSans-6f" x="784.371094"/>
      <use xlink:href="#DejaVuSans-6e" x="845.552734"/>
      <use xlink:href="#DejaVuSans-20" x="908.931641"/>
      <use xlink:href="#DejaVuSans-32" x="940.71875"/>
      <use xlink:href="#DejaVuSans-30" x="1004.341797"/>
      <use xlink:href="#DejaVuSans-31" x="1067.964844"/>
      <use xlink:href="#DejaVuSans-30" x="1131.587891"/>
     </g>
    </g>
    <g id="line2d_30">
     <path d="M 425.810625 79.450938 
L 435.810625 79.450938 
L 445.810625 79.450938 
" style="fill: none; stroke: #ffffff; stroke-width: 1.5; stroke-linecap: square"/>
     <defs>
      <path id="mdf7486c8d3" d="M 0 2.5 
C 0.663008 2.5 1.29895 2.236584 1.767767 1.767767 
C 2.236584 1.29895 2.5 0.663008 2.5 0 
C 2.5 -0.663008 2.236584 -1.29895 1.767767 -1.767767 
C 1.29895 -2.236584 0.663008 -2.5 0 -2.5 
C -0.663008 -2.5 -1.29895 -2.236584 -1.767767 -1.767767 
C -2.236584 -1.29895 -2.5 -0.663008 -2.5 0 
C -2.5 0.663008 -2.236584 1.29895 -1.767767 1.767767 
C -1.29895 2.236584 -0.663008 2.5 0 2.5 
z
" style="stroke: #ffffff"/>
     </defs>
     <g>
      <use xlink:href="#mdf7486c8d3" x="435.810625" y="79.450938" style="fill: #ffa500; stroke: #ffffff"/>
     </g>
    </g>
    <g id="text_20">
     <!-- Petite exploitation 2020 -->
     <g transform="translate(453.810625 82.950938) scale(0.1 -0.1)">
      <use xlink:href="#DejaVuSans-50"/>
      <use xlink:href="#DejaVuSans-65" x="56.677734"/>
      <use xlink:href="#DejaVuSans-74" x="118.201172"/>
      <use xlink:href="#DejaVuSans-69" x="157.410156"/>
      <use xlink:href="#DejaVuSans-74" x="185.193359"/>
      <use xlink:href="#DejaVuSans-65" x="224.402344"/>
      <use xlink:href="#DejaVuSans-20" x="285.925781"/>
      <use xlink:href="#DejaVuSans-65" x="317.712891"/>
      <use xlink:href="#DejaVuSans-78" x="377.486328"/>
      <use xlink:href="#DejaVuSans-70" x="436.666016"/>
      <use xlink:href="#DejaVuSans-6c" x="500.142578"/>
      <use xlink:href="#DejaVuSans-6f" x="527.925781"/>
      <use xlink:href="#DejaVuSans-69" x="589.107422"/>
      <use xlink:href="#DejaVuSans-74" x="616.890625"/>
      <use xlink:href="#DejaVuSans-61" x="656.099609"/>
      <use xlink:href="#DejaVuSans-74" x="717.378906"/>
      <use xlink:href="#DejaVuSans-69" x="756.587891"/>
      <use xlink:href="#DejaVuSans-6f" x="784.371094"/>
      <use xlink:href="#DejaVuSans-6e" x="845.552734"/>
      <use xlink:href="#DejaVuSans-20" x="908.931641"/>
      <use xlink:href="#DejaVuSans-32" x="940.71875"/>
      <use xlink:href="#DejaVuSans-30" x="1004.341797"/>
      <use xlink:href="#DejaVuSans-32" x="1067.964844"/>
      <use xlink:href="#DejaVuSans-30" x="1131.587891"/>
     </g>
    </g>
    <g id="line2d_31">
     <path d="M 425.810625 94.129063 
L 435.810625 94.129063 
L 445.810625 94.129063 
" style="fill: none; stroke: #ffffff; stroke-opacity: 0.5; stroke-width: 1.5; stroke-linecap: square"/>
     <defs>
      <path id="maf4f82a321" d="M 0 2.5 
C 0.663008 2.5 1.29895 2.236584 1.767767 1.767767 
C 2.236584 1.29895 2.5 0.663008 2.5 0 
C 2.5 -0.663008 2.236584 -1.29895 1.767767 -1.767767 
C 1.29895 -2.236584 0.663008 -2.5 0 -2.5 
C -0.663008 -2.5 -1.29895 -2.236584 -1.767767 -1.767767 
C -2.236584 -1.29895 -2.5 -0.663008 -2.5 0 
C -2.5 0.663008 -2.236584 1.29895 -1.767767 1.767767 
C -1.29895 2.236584 -0.663008 2.5 0 2.5 
z
" style="stroke: #ffffff; stroke-opacity: 0.5"/>
     </defs>
     <g>
      <use xlink:href="#maf4f82a321" x="435.810625" y="94.129063" style="fill: #0000ff; fill-opacity: 0.5; stroke: #ffffff; stroke-opacity: 0.5"/>
     </g>
    </g>
    <g id="text_21">
     <!-- Moyenne exploitation 2010 -->
     <g transform="translate(453.810625 97.629063) scale(0.1 -0.1)">
      <defs>
       <path id="DejaVuSans-79" d="M 2059 -325 
Q 1816 -950 1584 -1140 
Q 1353 -1331 966 -1331 
L 506 -1331 
L 506 -850 
L 844 -850 
Q 1081 -850 1212 -737 
Q 1344 -625 1503 -206 
L 1606 56 
L 191 3500 
L 800 3500 
L 1894 763 
L 2988 3500 
L 3597 3500 
L 2059 -325 
z
" transform="scale(0.015625)"/>
      </defs>
      <use xlink:href="#DejaVuSans-4d"/>
      <use xlink:href="#DejaVuSans-6f" x="86.279297"/>
      <use xlink:href="#DejaVuSans-79" x="147.460938"/>
      <use xlink:href="#DejaVuSans-65" x="206.640625"/>
      <use xlink:href="#DejaVuSans-6e" x="268.164062"/>
      <use xlink:href="#DejaVuSans-6e" x="331.542969"/>
      <use xlink:href="#DejaVuSans-65" x="394.921875"/>
      <use xlink:href="#DejaVuSans-20" x="456.445312"/>
      <use xlink:href="#DejaVuSans-65" x="488.232422"/>
      <use xlink:href="#DejaVuSans-78" x="548.005859"/>
      <use xlink:href="#DejaVuSans-70" x="607.185547"/>
      <use xlink:href="#DejaVuSans-6c" x="670.662109"/>
      <use xlink:href="#DejaVuSans-6f" x="698.445312"/>
      <use xlink:href="#DejaVuSans-69" x="759.626953"/>
      <use xlink:href="#DejaVuSans-74" x="787.410156"/>
      <use xlink:href="#DejaVuSans-61" x="826.619141"/>
      <use xlink:href="#DejaVuSans-74" x="887.898438"/>
      <use xlink:href="#DejaVuSans-69" x="927.107422"/>
      <use xlink:href="#DejaVuSans-6f" x="954.890625"/>
      <use xlink:href="#DejaVuSans-6e" x="1016.072266"/>
      <use xlink:href="#DejaVuSans-20" x="1079.451172"/>
      <use xlink:href="#DejaVuSans-32" x="1111.238281"/>
      <use xlink:href="#DejaVuSans-30" x="1174.861328"/>
      <use xlink:href="#DejaVuSans-31" x="1238.484375"/>
      <use xlink:href="#DejaVuSans-30" x="1302.107422"/>
     </g>
    </g>
    <g id="line2d_32">
     <path d="M 425.810625 108.807187 
L 435.810625 108.807187 
L 445.810625 108.807187 
" style="fill: none; stroke: #ffffff; stroke-width: 1.5; stroke-linecap: square"/>
     <defs>
      <path id="mb2ab40fef7" d="M 0 2.5 
C 0.663008 2.5 1.29895 2.236584 1.767767 1.767767 
C 2.236584 1.29895 2.5 0.663008 2.5 0 
C 2.5 -0.663008 2.236584 -1.29895 1.767767 -1.767767 
C 1.29895 -2.236584 0.663008 -2.5 0 -2.5 
C -0.663008 -2.5 -1.29895 -2.236584 -1.767767 -1.767767 
C -2.236584 -1.29895 -2.5 -0.663008 -2.5 0 
C -2.5 0.663008 -2.236584 1.29895 -1.767767 1.767767 
C -1.29895 2.236584 -0.663008 2.5 0 2.5 
z
" style="stroke: #ffffff"/>
     </defs>
     <g>
      <use xlink:href="#mb2ab40fef7" x="435.810625" y="108.807187" style="fill: #0000ff; stroke: #ffffff"/>
     </g>
    </g>
    <g id="text_22">
     <!-- Moyenne exploitation 2020 -->
     <g transform="translate(453.810625 112.307187) scale(0.1 -0.1)">
      <use xlink:href="#DejaVuSans-4d"/>
      <use xlink:href="#DejaVuSans-6f" x="86.279297"/>
      <use xlink:href="#DejaVuSans-79" x="147.460938"/>
      <use xlink:href="#DejaVuSans-65" x="206.640625"/>
      <use xlink:href="#DejaVuSans-6e" x="268.164062"/>
      <use xlink:href="#DejaVuSans-6e" x="331.542969"/>
      <use xlink:href="#DejaVuSans-65" x="394.921875"/>
      <use xlink:href="#DejaVuSans-20" x="456.445312"/>
      <use xlink:href="#DejaVuSans-65" x="488.232422"/>
      <use xlink:href="#DejaVuSans-78" x="548.005859"/>
      <use xlink:href="#DejaVuSans-70" x="607.185547"/>
      <use xlink:href="#DejaVuSans-6c" x="670.662109"/>
      <use xlink:href="#DejaVuSans-6f" x="698.445312"/>
      <use xlink:href="#DejaVuSans-69" x="759.626953"/>
      <use xlink:href="#DejaVuSans-74" x="787.410156"/>
      <use xlink:href="#DejaVuSans-61" x="826.619141"/>
      <use xlink:href="#DejaVuSans-74" x="887.898438"/>
      <use xlink:href="#DejaVuSans-69" x="927.107422"/>
      <use xlink:href="#DejaVuSans-6f" x="954.890625"/>
      <use xlink:href="#DejaVuSans-6e" x="1016.072266"/>
      <use xlink:href="#DejaVuSans-20" x="1079.451172"/>
      <use xlink:href="#DejaVuSans-32" x="1111.238281"/>
      <use xlink:href="#DejaVuSans-30" x="1174.861328"/>
      <use xlink:href="#DejaVuSans-32" x="1238.484375"/>
      <use xlink:href="#DejaVuSans-30" x="1302.107422"/>
     </g>
    </g>
    <g id="line2d_33">
     <path d="M 425.810625 123.485312 
L 435.810625 123.485312 
L 445.810625 123.485312 
" style="fill: none; stroke: #ffffff; stroke-opacity: 0.5; stroke-width: 1.5; stroke-linecap: square"/>
     <defs>
      <path id="mbd8c1891e6" d="M 0 2.5 
C 0.663008 2.5 1.29895 2.236584 1.767767 1.767767 
C 2.236584 1.29895 2.5 0.663008 2.5 0 
C 2.5 -0.663008 2.236584 -1.29895 1.767767 -1.767767 
C 1.29895 -2.236584 0.663008 -2.5 0 -2.5 
C -0.663008 -2.5 -1.29895 -2.236584 -1.767767 -1.767767 
C -2.236584 -1.29895 -2.5 -0.663008 -2.5 0 
C -2.5 0.663008 -2.236584 1.29895 -1.767767 1.767767 
C -1.29895 2.236584 -0.663008 2.5 0 2.5 
z
" style="stroke: #ffffff; stroke-opacity: 0.5"/>
     </defs>
     <g>
      <use xlink:href="#mbd8c1891e6" x="435.810625" y="123.485312" style="fill: #008000; fill-opacity: 0.5; stroke: #ffffff; stroke-opacity: 0.5"/>
     </g>
    </g>
    <g id="text_23">
     <!-- Grande exploitation 2010 -->
     <g transform="translate(453.810625 126.985312) scale(0.1 -0.1)">
      <defs>
       <path id="DejaVuSans-47" d="M 3809 666 
L 3809 1919 
L 2778 1919 
L 2778 2438 
L 4434 2438 
L 4434 434 
Q 4069 175 3628 42 
Q 3188 -91 2688 -91 
Q 1594 -91 976 548 
Q 359 1188 359 2328 
Q 359 3472 976 4111 
Q 1594 4750 2688 4750 
Q 3144 4750 3555 4637 
Q 3966 4525 4313 4306 
L 4313 3634 
Q 3963 3931 3569 4081 
Q 3175 4231 2741 4231 
Q 1884 4231 1454 3753 
Q 1025 3275 1025 2328 
Q 1025 1384 1454 906 
Q 1884 428 2741 428 
Q 3075 428 3337 486 
Q 3600 544 3809 666 
z
" transform="scale(0.015625)"/>
       <path id="DejaVuSans-64" d="M 2906 2969 
L 2906 4863 
L 3481 4863 
L 3481 0 
L 2906 0 
L 2906 525 
Q 2725 213 2448 61 
Q 2172 -91 1784 -91 
Q 1150 -91 751 415 
Q 353 922 353 1747 
Q 353 2572 751 3078 
Q 1150 3584 1784 3584 
Q 2172 3584 2448 3432 
Q 2725 3281 2906 2969 
z
M 947 1747 
Q 947 1113 1208 752 
Q 1469 391 1925 391 
Q 2381 391 2643 752 
Q 2906 1113 2906 1747 
Q 2906 2381 2643 2742 
Q 2381 3103 1925 3103 
Q 1469 3103 1208 2742 
Q 947 2381 947 1747 
z
" transform="scale(0.015625)"/>
      </defs>
      <use xlink:href="#DejaVuSans-47"/>
      <use xlink:href="#DejaVuSans-72" x="77.490234"/>
      <use xlink:href="#DejaVuSans-61" x="118.603516"/>
      <use xlink:href="#DejaVuSans-6e" x="179.882812"/>
      <use xlink:href="#DejaVuSans-64" x="243.261719"/>
      <use xlink:href="#DejaVuSans-65" x="306.738281"/>
      <use xlink:href="#DejaVuSans-20" x="368.261719"/>
      <use xlink:href="#DejaVuSans-65" x="400.048828"/>
      <use xlink:href="#DejaVuSans-78" x="459.822266"/>
      <use xlink:href="#DejaVuSans-70" x="519.001953"/>
      <use xlink:href="#DejaVuSans-6c" x="582.478516"/>
      <use xlink:href="#DejaVuSans-6f" x="610.261719"/>
      <use xlink:href="#DejaVuSans-69" x="671.443359"/>
      <use xlink:href="#DejaVuSans-74" x="699.226562"/>
      <use xlink:href="#DejaVuSans-61" x="738.435547"/>
      <use xlink:href="#DejaVuSans-74" x="799.714844"/>
      <use xlink:href="#DejaVuSans-69" x="838.923828"/>
      <use xlink:href="#DejaVuSans-6f" x="866.707031"/>
      <use xlink:href="#DejaVuSans-6e" x="927.888672"/>
      <use xlink:href="#DejaVuSans-20" x="991.267578"/>
      <use xlink:href="#DejaVuSans-32" x="1023.054688"/>
      <use xlink:href="#DejaVuSans-30" x="1086.677734"/>
      <use xlink:href="#DejaVuSans-31" x="1150.300781"/>
      <use xlink:href="#DejaVuSans-30" x="1213.923828"/>
     </g>
    </g>
    <g id="line2d_34">
     <path d="M 425.810625 138.163437 
L 435.810625 138.163437 
L 445.810625 138.163437 
" style="fill: none; stroke: #ffffff; stroke-width: 1.5; stroke-linecap: square"/>
     <defs>
      <path id="m376c404861" d="M 0 2.5 
C 0.663008 2.5 1.29895 2.236584 1.767767 1.767767 
C 2.236584 1.29895 2.5 0.663008 2.5 0 
C 2.5 -0.663008 2.236584 -1.29895 1.767767 -1.767767 
C 1.29895 -2.236584 0.663008 -2.5 0 -2.5 
C -0.663008 -2.5 -1.29895 -2.236584 -1.767767 -1.767767 
C -2.236584 -1.29895 -2.5 -0.663008 -2.5 0 
C -2.5 0.663008 -2.236584 1.29895 -1.767767 1.767767 
C -1.29895 2.236584 -0.663008 2.5 0 2.5 
z
" style="stroke: #ffffff"/>
     </defs>
     <g>
      <use xlink:href="#m376c404861" x="435.810625" y="138.163437" style="fill: #008000; stroke: #ffffff"/>
     </g>
    </g>
    <g id="text_24">
     <!-- Grande exploitation 2020 -->
     <g transform="translate(453.810625 141.663437) scale(0.1 -0.1)">
      <use xlink:href="#DejaVuSans-47"/>
      <use xlink:href="#DejaVuSans-72" x="77.490234"/>
      <use xlink:href="#DejaVuSans-61" x="118.603516"/>
      <use xlink:href="#DejaVuSans-6e" x="179.882812"/>
      <use xlink:href="#DejaVuSans-64" x="243.261719"/>
      <use xlink:href="#DejaVuSans-65" x="306.738281"/>
      <use xlink:href="#DejaVuSans-20" x="368.261719"/>
      <use xlink:href="#DejaVuSans-65" x="400.048828"/>
      <use xlink:href="#DejaVuSans-78" x="459.822266"/>
      <use xlink:href="#DejaVuSans-70" x="519.001953"/>
      <use xlink:href="#DejaVuSans-6c" x="582.478516"/>
      <use xlink:href="#DejaVuSans-6f" x="610.261719"/>
      <use xlink:href="#DejaVuSans-69" x="671.443359"/>
      <use xlink:href="#DejaVuSans-74" x="699.226562"/>
      <use xlink:href="#DejaVuSans-61" x="738.435547"/>
      <use xlink:href="#DejaVuSans-74" x="799.714844"/>
      <use xlink:href="#DejaVuSans-69" x="838.923828"/>
      <use xlink:href="#DejaVuSans-6f" x="866.707031"/>
      <use xlink:href="#DejaVuSans-6e" x="927.888672"/>
      <use xlink:href="#DejaVuSans-20" x="991.267578"/>
      <use xlink:href="#DejaVuSans-32" x="1023.054688"/>
      <use xlink:href="#DejaVuSans-30" x="1086.677734"/>
      <use xlink:href="#DejaVuSans-32" x="1150.300781"/>
      <use xlink:href="#DejaVuSans-30" x="1213.923828"/>
     </g>
    </g>
   </g>
  </g>
 </g>
 <defs>
  <clipPath id="pd835bc5229">
   <rect x="59.690625" y="22.318125" width="357.12" height="266.112"/>
  </clipPath>
 </defs>
</svg>
