<?xml version="1.0" encoding="utf-8" standalone="no"?>
<!DOCTYPE svg PUBLIC "-//W3C//DTD SVG 1.1//EN"
  "http://www.w3.org/Graphics/SVG/1.1/DTD/svg11.dtd">
<svg xmlns:xlink="http://www.w3.org/1999/xlink" width="603.784375pt" height="510.71625pt" viewBox="0 0 603.784375 510.71625" xmlns="http://www.w3.org/2000/svg" version="1.1">
 <metadata>
  <rdf:RDF xmlns:dc="http://purl.org/dc/elements/1.1/" xmlns:cc="http://creativecommons.org/ns#" xmlns:rdf="http://www.w3.org/1999/02/22-rdf-syntax-ns#">
   <cc:Work>
    <dc:type rdf:resource="http://purl.org/dc/dcmitype/StillImage"/>
    <dc:date>2023-06-28T16:56:12.402318</dc:date>
    <dc:format>image/svg+xml</dc:format>
    <dc:creator>
     <cc:Agent>
      <dc:title>Matplotlib v3.7.1, https://matplotlib.org/</dc:title>
     </cc:Agent>
    </dc:creator>
   </cc:Work>
  </rdf:RDF>
 </metadata>
 <defs>
  <style type="text/css">*{stroke-linejoin: round; stroke-linecap: butt}</style>
 </defs>
 <g id="figure_1">
  <g id="patch_1">
   <path d="M 0 510.71625 
L 603.784375 510.71625 
L 603.784375 0 
L 0 0 
z
" style="fill: #ffffff"/>
  </g>
  <g id="axes_1">
   <g id="patch_2">
    <path d="M 490.704375 262.917187 
C 490.704375 233.795931 484.968122 204.957842 473.8239 178.05331 
C 462.679678 151.148777 446.344213 126.701026 425.752375 106.109188 
C 405.160537 85.51735 380.712786 69.181885 353.808253 58.037662 
C 326.90372 46.89344 298.065631 41.157187 268.944375 41.157187 
C 239.823119 41.157187 210.98503 46.89344 184.080497 58.037662 
C 157.175964 69.181885 132.728213 85.51735 112.136375 106.109188 
C 91.544537 126.701026 75.209072 151.148777 64.06485 178.05331 
C 52.920628 204.957842 47.184375 233.795931 47.184375 262.917187 
C 47.184375 292.038444 52.920628 320.876533 64.06485 347.781065 
C 75.209072 374.685598 91.544537 399.133349 112.136375 419.725187 
C 132.728213 440.317025 157.175964 456.65249 184.080497 467.796713 
C 210.98503 478.940935 239.823119 484.677187 268.944375 484.677187 
C 298.065631 484.677187 326.90372 478.940935 353.808253 467.796713 
C 380.712786 456.65249 405.160537 440.317025 425.752375 419.725187 
C 446.344213 399.133349 462.679678 374.685598 473.8239 347.781065 
C 484.968122 320.876533 490.704375 292.038444 490.704375 262.917188 
M 268.944375 262.917187 
C 268.944375 262.917187 268.944375 262.917187 268.944375 262.917187 
C 268.944375 262.917187 268.944375 262.917187 268.944375 262.917187 
C 268.944375 262.917187 268.944375 262.917187 268.944375 262.917187 
C 268.944375 262.917187 268.944375 262.917187 268.944375 262.917187 
C 268.944375 262.917187 268.944375 262.917187 268.944375 262.917187 
C 268.944375 262.917187 268.944375 262.917187 268.944375 262.917187 
C 268.944375 262.917187 268.944375 262.917187 268.944375 262.917187 
C 268.944375 262.917187 268.944375 262.917187 268.944375 262.917187 
C 268.944375 262.917187 268.944375 262.917187 268.944375 262.917187 
C 268.944375 262.917187 268.944375 262.917187 268.944375 262.917187 
C 268.944375 262.917187 268.944375 262.917187 268.944375 262.917187 
C 268.944375 262.917187 268.944375 262.917187 268.944375 262.917187 
C 268.944375 262.917187 268.944375 262.917187 268.944375 262.917187 
C 268.944375 262.917187 268.944375 262.917187 268.944375 262.917187 
C 268.944375 262.917187 268.944375 262.917187 268.944375 262.917187 
C 268.944375 262.917187 268.944375 262.917187 268.944375 262.917187 
z
" style="fill: #ffffff"/>
   </g>
   <g id="patch_3">
    <path d="M 307.614452 262.917187 
L 268.944375 179.905423 
L 211.19706 262.917187 
L 268.944375 267.041996 
z
" clip-path="url(#p1f0d2ed584)" style="fill: #008000; opacity: 0.5; stroke: #008000; stroke-linejoin: miter"/>
   </g>
   <g id="patch_4">
    <path d="M 352.987342 262.917187 
L 268.944375 104.112072 
L 206.556651 262.917187 
L 268.944375 267.557597 
z
" clip-path="url(#p1f0d2ed584)" style="fill: #ff0000; opacity: 0.5; stroke: #ff0000; stroke-linejoin: miter"/>
   </g>
   <g id="patch_5">
    <path d="M 361.236958 262.917187 
L 268.944375 51.520768 
L 181.292201 262.917187 
L 268.944375 268.588799 
z
" clip-path="url(#p1f0d2ed584)" style="fill: #0000ff; opacity: 0.5; stroke: #0000ff; stroke-linejoin: miter"/>
   </g>
   <g id="matplotlib.axis_1">
    <g id="xtick_1">
     <g id="line2d_1">
      <path d="M 268.944375 262.917187 
L 490.704375 262.917187 
" clip-path="url(#p1f0d2ed584)" style="fill: none; stroke: #b0b0b0; stroke-width: 0.8; stroke-linecap: square"/>
     </g>
     <g id="text_1">
      <!-- microexploitations -->
      <g transform="translate(458.527031 265.676562) scale(0.1 -0.1)">
       <defs>
        <path id="DejaVuSans-6d" d="M 3328 2828 
Q 3544 3216 3844 3400 
Q 4144 3584 4550 3584 
Q 5097 3584 5394 3201 
Q 5691 2819 5691 2113 
L 5691 0 
L 5113 0 
L 5113 2094 
Q 5113 2597 4934 2840 
Q 4756 3084 4391 3084 
Q 3944 3084 3684 2787 
Q 3425 2491 3425 1978 
L 3425 0 
L 2847 0 
L 2847 2094 
Q 2847 2600 2669 2842 
Q 2491 3084 2119 3084 
Q 1678 3084 1418 2786 
Q 1159 2488 1159 1978 
L 1159 0 
L 581 0 
L 581 3500 
L 1159 3500 
L 1159 2956 
Q 1356 3278 1631 3431 
Q 1906 3584 2284 3584 
Q 2666 3584 2933 3390 
Q 3200 3197 3328 2828 
z
" transform="scale(0.015625)"/>
        <path id="DejaVuSans-69" d="M 603 3500 
L 1178 3500 
L 1178 0 
L 603 0 
L 603 3500 
z
M 603 4863 
L 1178 4863 
L 1178 4134 
L 603 4134 
L 603 4863 
z
" transform="scale(0.015625)"/>
        <path id="DejaVuSans-63" d="M 3122 3366 
L 3122 2828 
Q 2878 2963 2633 3030 
Q 2388 3097 2138 3097 
Q 1578 3097 1268 2742 
Q 959 2388 959 1747 
Q 959 1106 1268 751 
Q 1578 397 2138 397 
Q 2388 397 2633 464 
Q 2878 531 3122 666 
L 3122 134 
Q 2881 22 2623 -34 
Q 2366 -91 2075 -91 
Q 1284 -91 818 406 
Q 353 903 353 1747 
Q 353 2603 823 3093 
Q 1294 3584 2113 3584 
Q 2378 3584 2631 3529 
Q 2884 3475 3122 3366 
z
" transform="scale(0.015625)"/>
        <path id="DejaVuSans-72" d="M 2631 2963 
Q 2534 3019 2420 3045 
Q 2306 3072 2169 3072 
Q 1681 3072 1420 2755 
Q 1159 2438 1159 1844 
L 1159 0 
L 581 0 
L 581 3500 
L 1159 3500 
L 1159 2956 
Q 1341 3275 1631 3429 
Q 1922 3584 2338 3584 
Q 2397 3584 2469 3576 
Q 2541 3569 2628 3553 
L 2631 2963 
z
" transform="scale(0.015625)"/>
        <path id="DejaVuSans-6f" d="M 1959 3097 
Q 1497 3097 1228 2736 
Q 959 2375 959 1747 
Q 959 1119 1226 758 
Q 1494 397 1959 397 
Q 2419 397 2687 759 
Q 2956 1122 2956 1747 
Q 2956 2369 2687 2733 
Q 2419 3097 1959 3097 
z
M 1959 3584 
Q 2709 3584 3137 3096 
Q 3566 2609 3566 1747 
Q 3566 888 3137 398 
Q 2709 -91 1959 -91 
Q 1206 -91 779 398 
Q 353 888 353 1747 
Q 353 2609 779 3096 
Q 1206 3584 1959 3584 
z
" transform="scale(0.015625)"/>
        <path id="DejaVuSans-65" d="M 3597 1894 
L 3597 1613 
L 953 1613 
Q 991 1019 1311 708 
Q 1631 397 2203 397 
Q 2534 397 2845 478 
Q 3156 559 3463 722 
L 3463 178 
Q 3153 47 2828 -22 
Q 2503 -91 2169 -91 
Q 1331 -91 842 396 
Q 353 884 353 1716 
Q 353 2575 817 3079 
Q 1281 3584 2069 3584 
Q 2775 3584 3186 3129 
Q 3597 2675 3597 1894 
z
M 3022 2063 
Q 3016 2534 2758 2815 
Q 2500 3097 2075 3097 
Q 1594 3097 1305 2825 
Q 1016 2553 972 2059 
L 3022 2063 
z
" transform="scale(0.015625)"/>
        <path id="DejaVuSans-78" d="M 3513 3500 
L 2247 1797 
L 3578 0 
L 2900 0 
L 1881 1375 
L 863 0 
L 184 0 
L 1544 1831 
L 300 3500 
L 978 3500 
L 1906 2253 
L 2834 3500 
L 3513 3500 
z
" transform="scale(0.015625)"/>
        <path id="DejaVuSans-70" d="M 1159 525 
L 1159 -1331 
L 581 -1331 
L 581 3500 
L 1159 3500 
L 1159 2969 
Q 1341 3281 1617 3432 
Q 1894 3584 2278 3584 
Q 2916 3584 3314 3078 
Q 3713 2572 3713 1747 
Q 3713 922 3314 415 
Q 2916 -91 2278 -91 
Q 1894 -91 1617 61 
Q 1341 213 1159 525 
z
M 3116 1747 
Q 3116 2381 2855 2742 
Q 2594 3103 2138 3103 
Q 1681 3103 1420 2742 
Q 1159 2381 1159 1747 
Q 1159 1113 1420 752 
Q 1681 391 2138 391 
Q 2594 391 2855 752 
Q 3116 1113 3116 1747 
z
" transform="scale(0.015625)"/>
        <path id="DejaVuSans-6c" d="M 603 4863 
L 1178 4863 
L 1178 0 
L 603 0 
L 603 4863 
z
" transform="scale(0.015625)"/>
        <path id="DejaVuSans-74" d="M 1172 4494 
L 1172 3500 
L 2356 3500 
L 2356 3053 
L 1172 3053 
L 1172 1153 
Q 1172 725 1289 603 
Q 1406 481 1766 481 
L 2356 481 
L 2356 0 
L 1766 0 
Q 1100 0 847 248 
Q 594 497 594 1153 
L 594 3053 
L 172 3053 
L 172 3500 
L 594 3500 
L 594 4494 
L 1172 4494 
z
" transform="scale(0.015625)"/>
        <path id="DejaVuSans-61" d="M 2194 1759 
Q 1497 1759 1228 1600 
Q 959 1441 959 1056 
Q 959 750 1161 570 
Q 1363 391 1709 391 
Q 2188 391 2477 730 
Q 2766 1069 2766 1631 
L 2766 1759 
L 2194 1759 
z
M 3341 1997 
L 3341 0 
L 2766 0 
L 2766 531 
Q 2569 213 2275 61 
Q 1981 -91 1556 -91 
Q 1019 -91 701 211 
Q 384 513 384 1019 
Q 384 1609 779 1909 
Q 1175 2209 1959 2209 
L 2766 2209 
L 2766 2266 
Q 2766 2663 2505 2880 
Q 2244 3097 1772 3097 
Q 1472 3097 1187 3025 
Q 903 2953 641 2809 
L 641 3341 
Q 956 3463 1253 3523 
Q 1550 3584 1831 3584 
Q 2591 3584 2966 3190 
Q 3341 2797 3341 1997 
z
" transform="scale(0.015625)"/>
        <path id="DejaVuSans-6e" d="M 3513 2113 
L 3513 0 
L 2938 0 
L 2938 2094 
Q 2938 2591 2744 2837 
Q 2550 3084 2163 3084 
Q 1697 3084 1428 2787 
Q 1159 2491 1159 1978 
L 1159 0 
L 581 0 
L 581 3500 
L 1159 3500 
L 1159 2956 
Q 1366 3272 1645 3428 
Q 1925 3584 2291 3584 
Q 2894 3584 3203 3211 
Q 3513 2838 3513 2113 
z
" transform="scale(0.015625)"/>
        <path id="DejaVuSans-73" d="M 2834 3397 
L 2834 2853 
Q 2591 2978 2328 3040 
Q 2066 3103 1784 3103 
Q 1356 3103 1142 2972 
Q 928 2841 928 2578 
Q 928 2378 1081 2264 
Q 1234 2150 1697 2047 
L 1894 2003 
Q 2506 1872 2764 1633 
Q 3022 1394 3022 966 
Q 3022 478 2636 193 
Q 2250 -91 1575 -91 
Q 1294 -91 989 -36 
Q 684 19 347 128 
L 347 722 
Q 666 556 975 473 
Q 1284 391 1588 391 
Q 1994 391 2212 530 
Q 2431 669 2431 922 
Q 2431 1156 2273 1281 
Q 2116 1406 1581 1522 
L 1381 1569 
Q 847 1681 609 1914 
Q 372 2147 372 2553 
Q 372 3047 722 3315 
Q 1072 3584 1716 3584 
Q 2034 3584 2315 3537 
Q 2597 3491 2834 3397 
z
" transform="scale(0.015625)"/>
       </defs>
       <use xlink:href="#DejaVuSans-6d"/>
       <use xlink:href="#DejaVuSans-69" x="97.412109"/>
       <use xlink:href="#DejaVuSans-63" x="125.195312"/>
       <use xlink:href="#DejaVuSans-72" x="180.175781"/>
       <use xlink:href="#DejaVuSans-6f" x="219.039062"/>
       <use xlink:href="#DejaVuSans-65" x="280.220703"/>
       <use xlink:href="#DejaVuSans-78" x="339.994141"/>
       <use xlink:href="#DejaVuSans-70" x="399.173828"/>
       <use xlink:href="#DejaVuSans-6c" x="462.650391"/>
       <use xlink:href="#DejaVuSans-6f" x="490.433594"/>
       <use xlink:href="#DejaVuSans-69" x="551.615234"/>
       <use xlink:href="#DejaVuSans-74" x="579.398438"/>
       <use xlink:href="#DejaVuSans-61" x="618.607422"/>
       <use xlink:href="#DejaVuSans-74" x="679.886719"/>
       <use xlink:href="#DejaVuSans-69" x="719.095703"/>
       <use xlink:href="#DejaVuSans-6f" x="746.878906"/>
       <use xlink:href="#DejaVuSans-6e" x="808.060547"/>
       <use xlink:href="#DejaVuSans-73" x="871.439453"/>
      </g>
     </g>
    </g>
    <g id="xtick_2">
     <g id="line2d_2">
      <path d="M 268.944375 262.917187 
L 268.944375 41.157187 
" clip-path="url(#p1f0d2ed584)" style="fill: none; stroke: #b0b0b0; stroke-width: 0.8; stroke-linecap: square"/>
     </g>
     <g id="text_2">
      <!-- petites -->
      <g transform="translate(251.702969 29.916562) scale(0.1 -0.1)">
       <use xlink:href="#DejaVuSans-70"/>
       <use xlink:href="#DejaVuSans-65" x="63.476562"/>
       <use xlink:href="#DejaVuSans-74" x="125"/>
       <use xlink:href="#DejaVuSans-69" x="164.208984"/>
       <use xlink:href="#DejaVuSans-74" x="191.992188"/>
       <use xlink:href="#DejaVuSans-65" x="231.201172"/>
       <use xlink:href="#DejaVuSans-73" x="292.724609"/>
      </g>
     </g>
    </g>
    <g id="xtick_3">
     <g id="line2d_3">
      <path d="M 268.944375 262.917187 
L 47.184375 262.917187 
" clip-path="url(#p1f0d2ed584)" style="fill: none; stroke: #b0b0b0; stroke-width: 0.8; stroke-linecap: square"/>
     </g>
     <g id="text_3">
      <!-- moyennes -->
      <g transform="translate(7.2 265.676562) scale(0.1 -0.1)">
       <defs>
        <path id="DejaVuSans-79" d="M 2059 -325 
Q 1816 -950 1584 -1140 
Q 1353 -1331 966 -1331 
L 506 -1331 
L 506 -850 
L 844 -850 
Q 1081 -850 1212 -737 
Q 1344 -625 1503 -206 
L 1606 56 
L 191 3500 
L 800 3500 
L 1894 763 
L 2988 3500 
L 3597 3500 
L 2059 -325 
z
" transform="scale(0.015625)"/>
       </defs>
       <use xlink:href="#DejaVuSans-6d"/>
       <use xlink:href="#DejaVuSans-6f" x="97.412109"/>
       <use xlink:href="#DejaVuSans-79" x="158.59375"/>
       <use xlink:href="#DejaVuSans-65" x="217.773438"/>
       <use xlink:href="#DejaVuSans-6e" x="279.296875"/>
       <use xlink:href="#DejaVuSans-6e" x="342.675781"/>
       <use xlink:href="#DejaVuSans-65" x="406.054688"/>
       <use xlink:href="#DejaVuSans-73" x="467.578125"/>
      </g>
     </g>
    </g>
    <g id="xtick_4">
     <g id="line2d_4">
      <path d="M 268.944375 262.917187 
L 268.944375 484.677187 
" clip-path="url(#p1f0d2ed584)" style="fill: none; stroke: #b0b0b0; stroke-width: 0.8; stroke-linecap: square"/>
     </g>
     <g id="text_4">
      <!-- grandes -->
      <g transform="translate(248.626406 501.436562) scale(0.1 -0.1)">
       <defs>
        <path id="DejaVuSans-67" d="M 2906 1791 
Q 2906 2416 2648 2759 
Q 2391 3103 1925 3103 
Q 1463 3103 1205 2759 
Q 947 2416 947 1791 
Q 947 1169 1205 825 
Q 1463 481 1925 481 
Q 2391 481 2648 825 
Q 2906 1169 2906 1791 
z
M 3481 434 
Q 3481 -459 3084 -895 
Q 2688 -1331 1869 -1331 
Q 1566 -1331 1297 -1286 
Q 1028 -1241 775 -1147 
L 775 -588 
Q 1028 -725 1275 -790 
Q 1522 -856 1778 -856 
Q 2344 -856 2625 -561 
Q 2906 -266 2906 331 
L 2906 616 
Q 2728 306 2450 153 
Q 2172 0 1784 0 
Q 1141 0 747 490 
Q 353 981 353 1791 
Q 353 2603 747 3093 
Q 1141 3584 1784 3584 
Q 2172 3584 2450 3431 
Q 2728 3278 2906 2969 
L 2906 3500 
L 3481 3500 
L 3481 434 
z
" transform="scale(0.015625)"/>
        <path id="DejaVuSans-64" d="M 2906 2969 
L 2906 4863 
L 3481 4863 
L 3481 0 
L 2906 0 
L 2906 525 
Q 2725 213 2448 61 
Q 2172 -91 1784 -91 
Q 1150 -91 751 415 
Q 353 922 353 1747 
Q 353 2572 751 3078 
Q 1150 3584 1784 3584 
Q 2172 3584 2448 3432 
Q 2725 3281 2906 2969 
z
M 947 1747 
Q 947 1113 1208 752 
Q 1469 391 1925 391 
Q 2381 391 2643 752 
Q 2906 1113 2906 1747 
Q 2906 2381 2643 2742 
Q 2381 3103 1925 3103 
Q 1469 3103 1208 2742 
Q 947 2381 947 1747 
z
" transform="scale(0.015625)"/>
       </defs>
       <use xlink:href="#DejaVuSans-67"/>
       <use xlink:href="#DejaVuSans-72" x="63.476562"/>
       <use xlink:href="#DejaVuSans-61" x="104.589844"/>
       <use xlink:href="#DejaVuSans-6e" x="165.869141"/>
       <use xlink:href="#DejaVuSans-64" x="229.248047"/>
       <use xlink:href="#DejaVuSans-65" x="292.724609"/>
       <use xlink:href="#DejaVuSans-73" x="354.248047"/>
      </g>
     </g>
    </g>
   </g>
   <g id="matplotlib.axis_2">
    <g id="ytick_1">
     <g id="line2d_5">
      <path d="M 294.724426 262.917187 
C 294.724426 259.531782 294.057575 256.179296 292.762037 253.051589 
C 291.466498 249.923882 289.567467 247.081782 287.173624 244.687939 
C 284.779781 242.294095 281.93768 240.395064 278.809973 239.099526 
C 275.682267 237.803987 272.32978 237.137136 268.944375 237.137136 
C 265.55897 237.137136 262.206483 237.803987 259.078777 239.099526 
C 255.95107 240.395064 253.108969 242.294095 250.715126 244.687939 
C 248.321283 247.081782 246.422252 249.923882 245.126713 253.051589 
C 243.831175 256.179296 243.164324 259.531782 243.164324 262.917187 
C 243.164324 266.302593 243.831175 269.655079 245.126713 272.782786 
C 246.422252 275.910493 248.321283 278.752593 250.715126 281.146436 
C 253.108969 283.54028 255.95107 285.439311 259.078777 286.734849 
C 262.206483 288.030388 265.55897 288.697239 268.944375 288.697239 
C 272.32978 288.697239 275.682267 288.030388 278.809973 286.734849 
C 281.93768 285.439311 284.779781 283.54028 287.173624 281.146436 
C 289.567467 278.752593 291.466498 275.910493 292.762037 272.782786 
C 294.057575 269.655079 294.724426 266.302593 294.724426 262.917187 
" clip-path="url(#p1f0d2ed584)" style="fill: none; stroke: #b0b0b0; stroke-width: 0.8; stroke-linecap: square"/>
     </g>
     <g id="text_5">
      <!-- 50 -->
      <g transform="translate(292.762037 250.971902) scale(0.1 -0.1)">
       <defs>
        <path id="DejaVuSans-35" d="M 691 4666 
L 3169 4666 
L 3169 4134 
L 1269 4134 
L 1269 2991 
Q 1406 3038 1543 3061 
Q 1681 3084 1819 3084 
Q 2600 3084 3056 2656 
Q 3513 2228 3513 1497 
Q 3513 744 3044 326 
Q 2575 -91 1722 -91 
Q 1428 -91 1123 -41 
Q 819 9 494 109 
L 494 744 
Q 775 591 1075 516 
Q 1375 441 1709 441 
Q 2250 441 2565 725 
Q 2881 1009 2881 1497 
Q 2881 1984 2565 2268 
Q 2250 2553 1709 2553 
Q 1456 2553 1204 2497 
Q 953 2441 691 2322 
L 691 4666 
z
" transform="scale(0.015625)"/>
        <path id="DejaVuSans-30" d="M 2034 4250 
Q 1547 4250 1301 3770 
Q 1056 3291 1056 2328 
Q 1056 1369 1301 889 
Q 1547 409 2034 409 
Q 2525 409 2770 889 
Q 3016 1369 3016 2328 
Q 3016 3291 2770 3770 
Q 2525 4250 2034 4250 
z
M 2034 4750 
Q 2819 4750 3233 4129 
Q 3647 3509 3647 2328 
Q 3647 1150 3233 529 
Q 2819 -91 2034 -91 
Q 1250 -91 836 529 
Q 422 1150 422 2328 
Q 422 3509 836 4129 
Q 1250 4750 2034 4750 
z
" transform="scale(0.015625)"/>
       </defs>
       <use xlink:href="#DejaVuSans-35"/>
       <use xlink:href="#DejaVuSans-30" x="63.623047"/>
      </g>
     </g>
    </g>
    <g id="ytick_2">
     <g id="line2d_6">
      <path d="M 320.504477 262.917187 
C 320.504477 256.146377 319.170775 249.441404 316.579698 243.185991 
C 313.988621 236.930577 310.190559 231.246376 305.402873 226.45869 
C 300.615187 221.671003 294.930985 217.872941 288.675572 215.281864 
C 282.420159 212.690787 275.715186 211.357085 268.944375 211.357085 
C 262.173564 211.357085 255.468591 212.690787 249.213178 215.281864 
C 242.957765 217.872941 237.273563 221.671003 232.485877 226.45869 
C 227.698191 231.246376 223.900129 236.930577 221.309052 243.185991 
C 218.717975 249.441404 217.384273 256.146377 217.384273 262.917187 
C 217.384273 269.687998 218.717975 276.392971 221.309052 282.648384 
C 223.900129 288.903798 227.698191 294.587999 232.485877 299.375685 
C 237.273563 304.163372 242.957765 307.961434 249.213178 310.552511 
C 255.468591 313.143588 262.173564 314.47729 268.944375 314.47729 
C 275.715186 314.47729 282.420159 313.143588 288.675572 310.552511 
C 294.930985 307.961434 300.615187 304.163372 305.402873 299.375685 
C 310.190559 294.587999 313.988621 288.903798 316.579698 282.648384 
C 319.170775 276.392971 320.504477 269.687998 320.504477 262.917187 
" clip-path="url(#p1f0d2ed584)" style="fill: none; stroke: #b0b0b0; stroke-width: 0.8; stroke-linecap: square"/>
     </g>
     <g id="text_6">
      <!-- 100 -->
      <g transform="translate(316.579698 241.106303) scale(0.1 -0.1)">
       <defs>
        <path id="DejaVuSans-31" d="M 794 531 
L 1825 531 
L 1825 4091 
L 703 3866 
L 703 4441 
L 1819 4666 
L 2450 4666 
L 2450 531 
L 3481 531 
L 3481 0 
L 794 0 
L 794 531 
z
" transform="scale(0.015625)"/>
       </defs>
       <use xlink:href="#DejaVuSans-31"/>
       <use xlink:href="#DejaVuSans-30" x="63.623047"/>
       <use xlink:href="#DejaVuSans-30" x="127.246094"/>
      </g>
     </g>
    </g>
    <g id="ytick_3">
     <g id="line2d_7">
      <path d="M 346.284528 262.917187 
C 346.284528 252.760972 344.283975 242.703512 340.39736 233.320392 
C 336.510744 223.937272 330.813651 215.41097 323.632122 208.229441 
C 316.450593 201.047911 307.92429 195.350818 298.54117 191.464203 
C 289.15805 187.577587 279.100591 185.577034 268.944375 185.577034 
C 258.788159 185.577034 248.7307 187.577587 239.34758 191.464203 
C 229.96446 195.350818 221.438157 201.047911 214.256628 208.229441 
C 207.075099 215.41097 201.378006 223.937272 197.49139 233.320392 
C 193.604775 242.703512 191.604222 252.760972 191.604222 262.917187 
C 191.604222 273.073403 193.604775 283.130863 197.49139 292.513983 
C 201.378006 301.897103 207.075099 310.423405 214.256628 317.604934 
C 221.438157 324.786464 229.96446 330.483557 239.34758 334.370172 
C 248.7307 338.256788 258.788159 340.257341 268.944375 340.257341 
C 279.100591 340.257341 289.15805 338.256788 298.54117 334.370172 
C 307.92429 330.483557 316.450593 324.786464 323.632122 317.604934 
C 330.813651 310.423405 336.510744 301.897103 340.39736 292.513983 
C 344.283975 283.130863 346.284528 273.073403 346.284528 262.917187 
" clip-path="url(#p1f0d2ed584)" style="fill: none; stroke: #b0b0b0; stroke-width: 0.8; stroke-linecap: square"/>
     </g>
     <g id="text_7">
      <!-- 150 -->
      <g transform="translate(340.39736 231.240705) scale(0.1 -0.1)">
       <use xlink:href="#DejaVuSans-31"/>
       <use xlink:href="#DejaVuSans-35" x="63.623047"/>
       <use xlink:href="#DejaVuSans-30" x="127.246094"/>
      </g>
     </g>
    </g>
    <g id="ytick_4">
     <g id="line2d_8">
      <path d="M 372.06458 262.917187 
C 372.06458 249.375566 369.397176 235.96562 364.215021 223.454794 
C 359.032867 210.943967 351.436743 199.575564 341.861371 190.000192 
C 332.285999 180.424819 320.917596 172.828695 308.406769 167.646541 
C 295.895942 162.464387 282.485996 159.796983 268.944375 159.796983 
C 255.402754 159.796983 241.992808 162.464387 229.481981 167.646541 
C 216.971154 172.828695 205.602751 180.424819 196.027379 190.000192 
C 186.452007 199.575564 178.855883 210.943967 173.673729 223.454794 
C 168.491574 235.96562 165.82417 249.375566 165.82417 262.917187 
C 165.82417 276.458809 168.491574 289.868755 173.673729 302.379581 
C 178.855883 314.890408 186.452007 326.258811 196.027379 335.834183 
C 205.602751 345.409556 216.971154 353.00568 229.481981 358.187834 
C 241.992808 363.369988 255.402754 366.037392 268.944375 366.037392 
C 282.485996 366.037392 295.895942 363.369988 308.406769 358.187834 
C 320.917596 353.00568 332.285999 345.409556 341.861371 335.834183 
C 351.436743 326.258811 359.032867 314.890408 364.215021 302.379581 
C 369.397176 289.868755 372.06458 276.458809 372.06458 262.917187 
" clip-path="url(#p1f0d2ed584)" style="fill: none; stroke: #b0b0b0; stroke-width: 0.8; stroke-linecap: square"/>
     </g>
     <g id="text_8">
      <!-- 200 -->
      <g transform="translate(364.215021 221.375106) scale(0.1 -0.1)">
       <defs>
        <path id="DejaVuSans-32" d="M 1228 531 
L 3431 531 
L 3431 0 
L 469 0 
L 469 531 
Q 828 903 1448 1529 
Q 2069 2156 2228 2338 
Q 2531 2678 2651 2914 
Q 2772 3150 2772 3378 
Q 2772 3750 2511 3984 
Q 2250 4219 1831 4219 
Q 1534 4219 1204 4116 
Q 875 4013 500 3803 
L 500 4441 
Q 881 4594 1212 4672 
Q 1544 4750 1819 4750 
Q 2544 4750 2975 4387 
Q 3406 4025 3406 3419 
Q 3406 3131 3298 2873 
Q 3191 2616 2906 2266 
Q 2828 2175 2409 1742 
Q 1991 1309 1228 531 
z
" transform="scale(0.015625)"/>
       </defs>
       <use xlink:href="#DejaVuSans-32"/>
       <use xlink:href="#DejaVuSans-30" x="63.623047"/>
       <use xlink:href="#DejaVuSans-30" x="127.246094"/>
      </g>
     </g>
    </g>
    <g id="ytick_5">
     <g id="line2d_9">
      <path d="M 397.844631 262.917187 
C 397.844631 245.990161 394.510376 229.227729 388.032683 213.589195 
C 381.55499 197.950662 372.059835 183.740158 360.09062 171.770943 
C 348.121405 159.801727 333.910901 150.306572 318.272367 143.828879 
C 302.633834 137.351187 285.871401 134.016932 268.944375 134.016932 
C 252.017349 134.016932 235.254916 137.351187 219.616383 143.828879 
C 203.977849 150.306572 189.767345 159.801727 177.79813 171.770943 
C 165.828915 183.740158 156.33376 197.950662 149.856067 213.589195 
C 143.378374 229.227729 140.044119 245.990161 140.044119 262.917187 
C 140.044119 279.844214 143.378374 296.606646 149.856067 312.24518 
C 156.33376 327.883713 165.828915 342.094217 177.79813 354.063432 
C 189.767345 366.032648 203.977849 375.527803 219.616383 382.005496 
C 235.254916 388.483188 252.017349 391.817443 268.944375 391.817443 
C 285.871401 391.817443 302.633834 388.483188 318.272367 382.005496 
C 333.910901 375.527803 348.121405 366.032648 360.09062 354.063432 
C 372.059835 342.094217 381.55499 327.883713 388.032683 312.24518 
C 394.510376 296.606646 397.844631 279.844214 397.844631 262.917188 
" clip-path="url(#p1f0d2ed584)" style="fill: none; stroke: #b0b0b0; stroke-width: 0.8; stroke-linecap: square"/>
     </g>
     <g id="text_9">
      <!-- 250 -->
      <g transform="translate(388.032683 211.509508) scale(0.1 -0.1)">
       <use xlink:href="#DejaVuSans-32"/>
       <use xlink:href="#DejaVuSans-35" x="63.623047"/>
       <use xlink:href="#DejaVuSans-30" x="127.246094"/>
      </g>
     </g>
    </g>
    <g id="ytick_6">
     <g id="line2d_10">
      <path d="M 423.624682 262.917187 
C 423.624682 242.604756 419.623576 222.489837 411.850345 203.723597 
C 404.077114 184.957357 392.682927 167.904752 378.319869 153.541694 
C 363.956811 139.178635 346.904206 127.784449 328.137966 120.011218 
C 309.371726 112.237987 289.256807 108.236881 268.944375 108.236881 
C 248.631943 108.236881 228.517024 112.237987 209.750784 120.011218 
C 190.984544 127.784449 173.931939 139.178635 159.568881 153.541694 
C 145.205823 167.904752 133.811636 184.957357 126.038405 203.723597 
C 118.265174 222.489837 114.264068 242.604756 114.264068 262.917187 
C 114.264068 283.229619 118.265174 303.344538 126.038405 322.110778 
C 133.811636 340.877018 145.205823 357.929623 159.568881 372.292681 
C 173.931939 386.65574 190.984544 398.049926 209.750784 405.823157 
C 228.517024 413.596388 248.631943 417.597494 268.944375 417.597494 
C 289.256807 417.597494 309.371726 413.596388 328.137966 405.823157 
C 346.904206 398.049926 363.956811 386.65574 378.319869 372.292681 
C 392.682927 357.929623 404.077114 340.877018 411.850345 322.110778 
C 419.623576 303.344538 423.624682 283.229619 423.624682 262.917188 
" clip-path="url(#p1f0d2ed584)" style="fill: none; stroke: #b0b0b0; stroke-width: 0.8; stroke-linecap: square"/>
     </g>
     <g id="text_10">
      <!-- 300 -->
      <g transform="translate(411.850345 201.643909) scale(0.1 -0.1)">
       <defs>
        <path id="DejaVuSans-33" d="M 2597 2516 
Q 3050 2419 3304 2112 
Q 3559 1806 3559 1356 
Q 3559 666 3084 287 
Q 2609 -91 1734 -91 
Q 1441 -91 1130 -33 
Q 819 25 488 141 
L 488 750 
Q 750 597 1062 519 
Q 1375 441 1716 441 
Q 2309 441 2620 675 
Q 2931 909 2931 1356 
Q 2931 1769 2642 2001 
Q 2353 2234 1838 2234 
L 1294 2234 
L 1294 2753 
L 1863 2753 
Q 2328 2753 2575 2939 
Q 2822 3125 2822 3475 
Q 2822 3834 2567 4026 
Q 2313 4219 1838 4219 
Q 1578 4219 1281 4162 
Q 984 4106 628 3988 
L 628 4550 
Q 988 4650 1302 4700 
Q 1616 4750 1894 4750 
Q 2613 4750 3031 4423 
Q 3450 4097 3450 3541 
Q 3450 3153 3228 2886 
Q 3006 2619 2597 2516 
z
" transform="scale(0.015625)"/>
       </defs>
       <use xlink:href="#DejaVuSans-33"/>
       <use xlink:href="#DejaVuSans-30" x="63.623047"/>
       <use xlink:href="#DejaVuSans-30" x="127.246094"/>
      </g>
     </g>
    </g>
    <g id="ytick_7">
     <g id="line2d_11">
      <path d="M 449.404733 262.917187 
C 449.404733 239.21935 444.736776 215.751945 435.668006 193.857998 
C 426.599237 171.964052 413.306019 152.069346 396.549118 135.312445 
C 379.792217 118.555543 359.897511 105.262326 338.003564 96.193556 
C 316.109618 87.124787 292.642212 82.456829 268.944375 82.456829 
C 245.246538 82.456829 221.779132 87.124787 199.885186 96.193556 
C 177.991239 105.262326 158.096533 118.555543 141.339632 135.312445 
C 124.582731 152.069346 111.289513 171.964052 102.220744 193.857998 
C 93.151974 215.751945 88.484017 239.21935 88.484017 262.917187 
C 88.484017 286.615025 93.151974 310.08243 102.220744 331.976377 
C 111.289513 353.870323 124.582731 373.765029 141.339632 390.52193 
C 158.096533 407.278832 177.991239 420.572049 199.885186 429.640819 
C 221.779132 438.709588 245.246538 443.377546 268.944375 443.377546 
C 292.642212 443.377546 316.109618 438.709588 338.003564 429.640819 
C 359.897511 420.572049 379.792217 407.278832 396.549118 390.52193 
C 413.306019 373.765029 426.599237 353.870323 435.668006 331.976377 
C 444.736776 310.08243 449.404733 286.615025 449.404733 262.917188 
" clip-path="url(#p1f0d2ed584)" style="fill: none; stroke: #b0b0b0; stroke-width: 0.8; stroke-linecap: square"/>
     </g>
     <g id="text_11">
      <!-- 350 -->
      <g transform="translate(435.668006 191.778311) scale(0.1 -0.1)">
       <use xlink:href="#DejaVuSans-33"/>
       <use xlink:href="#DejaVuSans-35" x="63.623047"/>
       <use xlink:href="#DejaVuSans-30" x="127.246094"/>
      </g>
     </g>
    </g>
    <g id="ytick_8">
     <g id="line2d_12">
      <path d="M 475.184784 262.917187 
C 475.184784 235.833945 469.849976 209.014053 459.485668 183.9924 
C 449.12136 158.970746 433.929111 136.23394 414.778367 117.083196 
C 395.627623 97.932451 372.890816 82.740203 347.869163 72.375895 
C 322.847509 62.011586 296.027617 56.676778 268.944375 56.676778 
C 241.861133 56.676778 215.041241 62.011586 190.019587 72.375895 
C 164.997934 82.740203 142.261127 97.932451 123.110383 117.083196 
C 103.959639 136.23394 88.76739 158.970746 78.403082 183.9924 
C 68.038774 209.014053 62.703966 235.833945 62.703966 262.917187 
C 62.703966 290.00043 68.038774 316.820322 78.403082 341.841975 
C 88.76739 366.863629 103.959639 389.600435 123.110383 408.751179 
C 142.261127 427.901924 164.997934 443.094172 190.019587 453.45848 
C 215.041241 463.822789 241.861133 469.157597 268.944375 469.157597 
C 296.027617 469.157597 322.847509 463.822789 347.869163 453.45848 
C 372.890816 443.094172 395.627623 427.901924 414.778367 408.751179 
C 433.929111 389.600435 449.12136 366.863629 459.485668 341.841975 
C 469.849976 316.820322 475.184784 290.00043 475.184784 262.917188 
" clip-path="url(#p1f0d2ed584)" style="fill: none; stroke: #b0b0b0; stroke-width: 0.8; stroke-linecap: square"/>
     </g>
     <g id="text_12">
      <!-- 400 -->
      <g transform="translate(459.485668 181.912712) scale(0.1 -0.1)">
       <defs>
        <path id="DejaVuSans-34" d="M 2419 4116 
L 825 1625 
L 2419 1625 
L 2419 4116 
z
M 2253 4666 
L 3047 4666 
L 3047 1625 
L 3713 1625 
L 3713 1100 
L 3047 1100 
L 3047 0 
L 2419 0 
L 2419 1100 
L 313 1100 
L 313 1709 
L 2253 4666 
z
" transform="scale(0.015625)"/>
       </defs>
       <use xlink:href="#DejaVuSans-34"/>
       <use xlink:href="#DejaVuSans-30" x="63.623047"/>
       <use xlink:href="#DejaVuSans-30" x="127.246094"/>
      </g>
     </g>
    </g>
   </g>
   <g id="line2d_13">
    <path d="M 307.614452 262.917187 
L 268.944375 179.905423 
L 211.19706 262.917187 
L 268.944375 267.041996 
L 307.614452 262.917187 
" clip-path="url(#p1f0d2ed584)" style="fill: none; stroke: #008000; stroke-linecap: square"/>
   </g>
   <g id="line2d_14">
    <path d="M 352.987342 262.917187 
L 268.944375 104.112072 
L 206.556651 262.917187 
L 268.944375 267.557597 
L 352.987342 262.917187 
" clip-path="url(#p1f0d2ed584)" style="fill: none; stroke: #ff0000; stroke-linecap: square"/>
   </g>
   <g id="line2d_15">
    <path d="M 361.236958 262.917187 
L 268.944375 51.520768 
L 181.292201 262.917187 
L 268.944375 268.588799 
L 361.236958 262.917187 
" clip-path="url(#p1f0d2ed584)" style="fill: none; stroke: #0000ff; stroke-linecap: square"/>
   </g>
   <g id="patch_6">
    <path d="M 490.704375 262.917187 
C 490.704375 233.795931 484.968122 204.957842 473.8239 178.05331 
C 462.679678 151.148777 446.344213 126.701026 425.752375 106.109188 
C 405.160537 85.51735 380.712786 69.181885 353.808253 58.037662 
C 326.90372 46.89344 298.065631 41.157187 268.944375 41.157187 
C 239.823119 41.157187 210.98503 46.89344 184.080497 58.037662 
C 157.175964 69.181885 132.728213 85.51735 112.136375 106.109188 
C 91.544537 126.701026 75.209072 151.148777 64.06485 178.05331 
C 52.920628 204.957842 47.184375 233.795931 47.184375 262.917187 
C 47.184375 292.038444 52.920628 320.876533 64.06485 347.781065 
C 75.209072 374.685598 91.544537 399.133349 112.136375 419.725187 
C 132.728213 440.317025 157.175964 456.65249 184.080497 467.796713 
C 210.98503 478.940935 239.823119 484.677187 268.944375 484.677187 
C 298.065631 484.677187 326.90372 478.940935 353.808253 467.796713 
C 380.712786 456.65249 405.160537 440.317025 425.752375 419.725187 
C 446.344213 399.133349 462.679678 374.685598 473.8239 347.781065 
C 484.968122 320.876533 490.704375 292.038444 490.704375 262.917188 
" style="fill: none; stroke: #000000; stroke-width: 0.8; stroke-linejoin: miter; stroke-linecap: square"/>
   </g>
   <g id="text_13">
    <!-- Taux de variation des SAU entre 2010 &amp; 2020 -->
    <g transform="translate(131.819063 16.318125) scale(0.12 -0.12)">
     <defs>
      <path id="DejaVuSans-54" d="M -19 4666 
L 3928 4666 
L 3928 4134 
L 2272 4134 
L 2272 0 
L 1638 0 
L 1638 4134 
L -19 4134 
L -19 4666 
z
" transform="scale(0.015625)"/>
      <path id="DejaVuSans-75" d="M 544 1381 
L 544 3500 
L 1119 3500 
L 1119 1403 
Q 1119 906 1312 657 
Q 1506 409 1894 409 
Q 2359 409 2629 706 
Q 2900 1003 2900 1516 
L 2900 3500 
L 3475 3500 
L 3475 0 
L 2900 0 
L 2900 538 
Q 2691 219 2414 64 
Q 2138 -91 1772 -91 
Q 1169 -91 856 284 
Q 544 659 544 1381 
z
M 1991 3584 
L 1991 3584 
z
" transform="scale(0.015625)"/>
      <path id="DejaVuSans-20" transform="scale(0.015625)"/>
      <path id="DejaVuSans-76" d="M 191 3500 
L 800 3500 
L 1894 563 
L 2988 3500 
L 3597 3500 
L 2284 0 
L 1503 0 
L 191 3500 
z
" transform="scale(0.015625)"/>
      <path id="DejaVuSans-53" d="M 3425 4513 
L 3425 3897 
Q 3066 4069 2747 4153 
Q 2428 4238 2131 4238 
Q 1616 4238 1336 4038 
Q 1056 3838 1056 3469 
Q 1056 3159 1242 3001 
Q 1428 2844 1947 2747 
L 2328 2669 
Q 3034 2534 3370 2195 
Q 3706 1856 3706 1288 
Q 3706 609 3251 259 
Q 2797 -91 1919 -91 
Q 1588 -91 1214 -16 
Q 841 59 441 206 
L 441 856 
Q 825 641 1194 531 
Q 1563 422 1919 422 
Q 2459 422 2753 634 
Q 3047 847 3047 1241 
Q 3047 1584 2836 1778 
Q 2625 1972 2144 2069 
L 1759 2144 
Q 1053 2284 737 2584 
Q 422 2884 422 3419 
Q 422 4038 858 4394 
Q 1294 4750 2059 4750 
Q 2388 4750 2728 4690 
Q 3069 4631 3425 4513 
z
" transform="scale(0.015625)"/>
      <path id="DejaVuSans-41" d="M 2188 4044 
L 1331 1722 
L 3047 1722 
L 2188 4044 
z
M 1831 4666 
L 2547 4666 
L 4325 0 
L 3669 0 
L 3244 1197 
L 1141 1197 
L 716 0 
L 50 0 
L 1831 4666 
z
" transform="scale(0.015625)"/>
      <path id="DejaVuSans-55" d="M 556 4666 
L 1191 4666 
L 1191 1831 
Q 1191 1081 1462 751 
Q 1734 422 2344 422 
Q 2950 422 3222 751 
Q 3494 1081 3494 1831 
L 3494 4666 
L 4128 4666 
L 4128 1753 
Q 4128 841 3676 375 
Q 3225 -91 2344 -91 
Q 1459 -91 1007 375 
Q 556 841 556 1753 
L 556 4666 
z
" transform="scale(0.015625)"/>
      <path id="DejaVuSans-26" d="M 1556 2509 
Q 1272 2256 1139 2004 
Q 1006 1753 1006 1478 
Q 1006 1022 1337 719 
Q 1669 416 2169 416 
Q 2466 416 2725 514 
Q 2984 613 3213 813 
L 1556 2509 
z
M 1997 2859 
L 3584 1234 
Q 3769 1513 3872 1830 
Q 3975 2147 3994 2503 
L 4575 2503 
Q 4538 2091 4375 1687 
Q 4213 1284 3922 891 
L 4794 0 
L 4006 0 
L 3559 459 
Q 3234 181 2878 45 
Q 2522 -91 2113 -91 
Q 1359 -91 881 339 
Q 403 769 403 1441 
Q 403 1841 612 2192 
Q 822 2544 1241 2853 
Q 1091 3050 1012 3245 
Q 934 3441 934 3628 
Q 934 4134 1281 4442 
Q 1628 4750 2203 4750 
Q 2463 4750 2720 4694 
Q 2978 4638 3244 4525 
L 3244 3956 
Q 2972 4103 2725 4179 
Q 2478 4256 2266 4256 
Q 1938 4256 1733 4082 
Q 1528 3909 1528 3634 
Q 1528 3475 1620 3314 
Q 1713 3153 1997 2859 
z
" transform="scale(0.015625)"/>
     </defs>
     <use xlink:href="#DejaVuSans-54"/>
     <use xlink:href="#DejaVuSans-61" x="44.583984"/>
     <use xlink:href="#DejaVuSans-75" x="105.863281"/>
     <use xlink:href="#DejaVuSans-78" x="169.242188"/>
     <use xlink:href="#DejaVuSans-20" x="228.421875"/>
     <use xlink:href="#DejaVuSans-64" x="260.208984"/>
     <use xlink:href="#DejaVuSans-65" x="323.685547"/>
     <use xlink:href="#DejaVuSans-20" x="385.208984"/>
     <use xlink:href="#DejaVuSans-76" x="416.996094"/>
     <use xlink:href="#DejaVuSans-61" x="476.175781"/>
     <use xlink:href="#DejaVuSans-72" x="537.455078"/>
     <use xlink:href="#DejaVuSans-69" x="578.568359"/>
     <use xlink:href="#DejaVuSans-61" x="606.351562"/>
     <use xlink:href="#DejaVuSans-74" x="667.630859"/>
     <use xlink:href="#DejaVuSans-69" x="706.839844"/>
     <use xlink:href="#DejaVuSans-6f" x="734.623047"/>
     <use xlink:href="#DejaVuSans-6e" x="795.804688"/>
     <use xlink:href="#DejaVuSans-20" x="859.183594"/>
     <use xlink:href="#DejaVuSans-64" x="890.970703"/>
     <use xlink:href="#DejaVuSans-65" x="954.447266"/>
     <use xlink:href="#DejaVuSans-73" x="1015.970703"/>
     <use xlink:href="#DejaVuSans-20" x="1068.070312"/>
     <use xlink:href="#DejaVuSans-53" x="1099.857422"/>
     <use xlink:href="#DejaVuSans-41" x="1165.208984"/>
     <use xlink:href="#DejaVuSans-55" x="1233.617188"/>
     <use xlink:href="#DejaVuSans-20" x="1306.810547"/>
     <use xlink:href="#DejaVuSans-65" x="1338.597656"/>
     <use xlink:href="#DejaVuSans-6e" x="1400.121094"/>
     <use xlink:href="#DejaVuSans-74" x="1463.5"/>
     <use xlink:href="#DejaVuSans-72" x="1502.708984"/>
     <use xlink:href="#DejaVuSans-65" x="1541.572266"/>
     <use xlink:href="#DejaVuSans-20" x="1603.095703"/>
     <use xlink:href="#DejaVuSans-32" x="1634.882812"/>
     <use xlink:href="#DejaVuSans-30" x="1698.505859"/>
     <use xlink:href="#DejaVuSans-31" x="1762.128906"/>
     <use xlink:href="#DejaVuSans-30" x="1825.751953"/>
     <use xlink:href="#DejaVuSans-20" x="1889.375"/>
     <use xlink:href="#DejaVuSans-26" x="1921.162109"/>
     <use xlink:href="#DejaVuSans-20" x="1999.140625"/>
     <use xlink:href="#DejaVuSans-32" x="2030.927734"/>
     <use xlink:href="#DejaVuSans-30" x="2094.550781"/>
     <use xlink:href="#DejaVuSans-32" x="2158.173828"/>
     <use xlink:href="#DejaVuSans-30" x="2221.796875"/>
    </g>
   </g>
   <g id="legend_1">
    <g id="patch_7">
     <path d="M 485.825 107.869687 
L 594.584375 107.869687 
Q 596.584375 107.869687 596.584375 105.869687 
L 596.584375 48.157187 
Q 596.584375 46.157187 594.584375 46.157187 
L 485.825 46.157187 
Q 483.825 46.157187 483.825 48.157187 
L 483.825 105.869687 
Q 483.825 107.869687 485.825 107.869687 
z
" style="fill: #ffffff; opacity: 0.8; stroke: #cccccc; stroke-linejoin: miter"/>
    </g>
    <g id="text_14">
     <!-- Pôles -->
     <g transform="translate(527.241406 57.755625) scale(0.1 -0.1)">
      <defs>
       <path id="DejaVuSans-50" d="M 1259 4147 
L 1259 2394 
L 2053 2394 
Q 2494 2394 2734 2622 
Q 2975 2850 2975 3272 
Q 2975 3691 2734 3919 
Q 2494 4147 2053 4147 
L 1259 4147 
z
M 628 4666 
L 2053 4666 
Q 2838 4666 3239 4311 
Q 3641 3956 3641 3272 
Q 3641 2581 3239 2228 
Q 2838 1875 2053 1875 
L 1259 1875 
L 1259 0 
L 628 0 
L 628 4666 
z
" transform="scale(0.015625)"/>
       <path id="DejaVuSans-f4" d="M 1959 3097 
Q 1497 3097 1228 2736 
Q 959 2375 959 1747 
Q 959 1119 1226 758 
Q 1494 397 1959 397 
Q 2419 397 2687 759 
Q 2956 1122 2956 1747 
Q 2956 2369 2687 2733 
Q 2419 3097 1959 3097 
z
M 1959 3584 
Q 2709 3584 3137 3096 
Q 3566 2609 3566 1747 
Q 3566 888 3137 398 
Q 2709 -91 1959 -91 
Q 1206 -91 779 398 
Q 353 888 353 1747 
Q 353 2609 779 3096 
Q 1206 3584 1959 3584 
z
M 1729 5119 
L 2191 5119 
L 2957 3944 
L 2523 3944 
L 1960 4709 
L 1398 3944 
L 963 3944 
L 1729 5119 
z
" transform="scale(0.015625)"/>
      </defs>
      <use xlink:href="#DejaVuSans-50"/>
      <use xlink:href="#DejaVuSans-f4" x="56.677734"/>
      <use xlink:href="#DejaVuSans-6c" x="117.859375"/>
      <use xlink:href="#DejaVuSans-65" x="145.642578"/>
      <use xlink:href="#DejaVuSans-73" x="207.166016"/>
     </g>
    </g>
    <g id="line2d_16">
     <path d="M 487.825 68.93375 
L 497.825 68.93375 
L 507.825 68.93375 
" style="fill: none; stroke: #008000; stroke-linecap: square"/>
    </g>
    <g id="text_15">
     <!-- Iholdi Otzibarre -->
     <g transform="translate(515.825 72.43375) scale(0.1 -0.1)">
      <defs>
       <path id="DejaVuSans-49" d="M 628 4666 
L 1259 4666 
L 1259 0 
L 628 0 
L 628 4666 
z
" transform="scale(0.015625)"/>
       <path id="DejaVuSans-68" d="M 3513 2113 
L 3513 0 
L 2938 0 
L 2938 2094 
Q 2938 2591 2744 2837 
Q 2550 3084 2163 3084 
Q 1697 3084 1428 2787 
Q 1159 2491 1159 1978 
L 1159 0 
L 581 0 
L 581 4863 
L 1159 4863 
L 1159 2956 
Q 1366 3272 1645 3428 
Q 1925 3584 2291 3584 
Q 2894 3584 3203 3211 
Q 3513 2838 3513 2113 
z
" transform="scale(0.015625)"/>
       <path id="DejaVuSans-4f" d="M 2522 4238 
Q 1834 4238 1429 3725 
Q 1025 3213 1025 2328 
Q 1025 1447 1429 934 
Q 1834 422 2522 422 
Q 3209 422 3611 934 
Q 4013 1447 4013 2328 
Q 4013 3213 3611 3725 
Q 3209 4238 2522 4238 
z
M 2522 4750 
Q 3503 4750 4090 4092 
Q 4678 3434 4678 2328 
Q 4678 1225 4090 567 
Q 3503 -91 2522 -91 
Q 1538 -91 948 565 
Q 359 1222 359 2328 
Q 359 3434 948 4092 
Q 1538 4750 2522 4750 
z
" transform="scale(0.015625)"/>
       <path id="DejaVuSans-7a" d="M 353 3500 
L 3084 3500 
L 3084 2975 
L 922 459 
L 3084 459 
L 3084 0 
L 275 0 
L 275 525 
L 2438 3041 
L 353 3041 
L 353 3500 
z
" transform="scale(0.015625)"/>
       <path id="DejaVuSans-62" d="M 3116 1747 
Q 3116 2381 2855 2742 
Q 2594 3103 2138 3103 
Q 1681 3103 1420 2742 
Q 1159 2381 1159 1747 
Q 1159 1113 1420 752 
Q 1681 391 2138 391 
Q 2594 391 2855 752 
Q 3116 1113 3116 1747 
z
M 1159 2969 
Q 1341 3281 1617 3432 
Q 1894 3584 2278 3584 
Q 2916 3584 3314 3078 
Q 3713 2572 3713 1747 
Q 3713 922 3314 415 
Q 2916 -91 2278 -91 
Q 1894 -91 1617 61 
Q 1341 213 1159 525 
L 1159 0 
L 581 0 
L 581 4863 
L 1159 4863 
L 1159 2969 
z
" transform="scale(0.015625)"/>
      </defs>
      <use xlink:href="#DejaVuSans-49"/>
      <use xlink:href="#DejaVuSans-68" x="29.492188"/>
      <use xlink:href="#DejaVuSans-6f" x="92.871094"/>
      <use xlink:href="#DejaVuSans-6c" x="154.052734"/>
      <use xlink:href="#DejaVuSans-64" x="181.835938"/>
      <use xlink:href="#DejaVuSans-69" x="245.3125"/>
      <use xlink:href="#DejaVuSans-20" x="273.095703"/>
      <use xlink:href="#DejaVuSans-4f" x="304.882812"/>
      <use xlink:href="#DejaVuSans-74" x="383.59375"/>
      <use xlink:href="#DejaVuSans-7a" x="422.802734"/>
      <use xlink:href="#DejaVuSans-69" x="475.292969"/>
      <use xlink:href="#DejaVuSans-62" x="503.076172"/>
      <use xlink:href="#DejaVuSans-61" x="566.552734"/>
      <use xlink:href="#DejaVuSans-72" x="627.832031"/>
      <use xlink:href="#DejaVuSans-72" x="667.195312"/>
      <use xlink:href="#DejaVuSans-65" x="706.058594"/>
     </g>
    </g>
    <g id="line2d_17">
     <path d="M 487.825 83.611875 
L 497.825 83.611875 
L 507.825 83.611875 
" style="fill: none; stroke: #ff0000; stroke-linecap: square"/>
    </g>
    <g id="text_16">
     <!-- Soule Xiberoa -->
     <g transform="translate(515.825 87.111875) scale(0.1 -0.1)">
      <defs>
       <path id="DejaVuSans-58" d="M 403 4666 
L 1081 4666 
L 2241 2931 
L 3406 4666 
L 4084 4666 
L 2584 2425 
L 4184 0 
L 3506 0 
L 2194 1984 
L 872 0 
L 191 0 
L 1856 2491 
L 403 4666 
z
" transform="scale(0.015625)"/>
      </defs>
      <use xlink:href="#DejaVuSans-53"/>
      <use xlink:href="#DejaVuSans-6f" x="63.476562"/>
      <use xlink:href="#DejaVuSans-75" x="124.658203"/>
      <use xlink:href="#DejaVuSans-6c" x="188.037109"/>
      <use xlink:href="#DejaVuSans-65" x="215.820312"/>
      <use xlink:href="#DejaVuSans-20" x="277.34375"/>
      <use xlink:href="#DejaVuSans-58" x="309.130859"/>
      <use xlink:href="#DejaVuSans-69" x="377.636719"/>
      <use xlink:href="#DejaVuSans-62" x="405.419922"/>
      <use xlink:href="#DejaVuSans-65" x="468.896484"/>
      <use xlink:href="#DejaVuSans-72" x="530.419922"/>
      <use xlink:href="#DejaVuSans-6f" x="569.283203"/>
      <use xlink:href="#DejaVuSans-61" x="630.464844"/>
     </g>
    </g>
    <g id="line2d_18">
     <path d="M 487.825 98.29 
L 497.825 98.29 
L 507.825 98.29 
" style="fill: none; stroke: #0000ff; stroke-linecap: square"/>
    </g>
    <g id="text_17">
     <!-- Garazi Baigorri -->
     <g transform="translate(515.825 101.79) scale(0.1 -0.1)">
      <defs>
       <path id="DejaVuSans-47" d="M 3809 666 
L 3809 1919 
L 2778 1919 
L 2778 2438 
L 4434 2438 
L 4434 434 
Q 4069 175 3628 42 
Q 3188 -91 2688 -91 
Q 1594 -91 976 548 
Q 359 1188 359 2328 
Q 359 3472 976 4111 
Q 1594 4750 2688 4750 
Q 3144 4750 3555 4637 
Q 3966 4525 4313 4306 
L 4313 3634 
Q 3963 3931 3569 4081 
Q 3175 4231 2741 4231 
Q 1884 4231 1454 3753 
Q 1025 3275 1025 2328 
Q 1025 1384 1454 906 
Q 1884 428 2741 428 
Q 3075 428 3337 486 
Q 3600 544 3809 666 
z
" transform="scale(0.015625)"/>
       <path id="DejaVuSans-42" d="M 1259 2228 
L 1259 519 
L 2272 519 
Q 2781 519 3026 730 
Q 3272 941 3272 1375 
Q 3272 1813 3026 2020 
Q 2781 2228 2272 2228 
L 1259 2228 
z
M 1259 4147 
L 1259 2741 
L 2194 2741 
Q 2656 2741 2882 2914 
Q 3109 3088 3109 3444 
Q 3109 3797 2882 3972 
Q 2656 4147 2194 4147 
L 1259 4147 
z
M 628 4666 
L 2241 4666 
Q 2963 4666 3353 4366 
Q 3744 4066 3744 3513 
Q 3744 3084 3544 2831 
Q 3344 2578 2956 2516 
Q 3422 2416 3680 2098 
Q 3938 1781 3938 1306 
Q 3938 681 3513 340 
Q 3088 0 2303 0 
L 628 0 
L 628 4666 
z
" transform="scale(0.015625)"/>
      </defs>
      <use xlink:href="#DejaVuSans-47"/>
      <use xlink:href="#DejaVuSans-61" x="77.490234"/>
      <use xlink:href="#DejaVuSans-72" x="138.769531"/>
      <use xlink:href="#DejaVuSans-61" x="179.882812"/>
      <use xlink:href="#DejaVuSans-7a" x="241.162109"/>
      <use xlink:href="#DejaVuSans-69" x="293.652344"/>
      <use xlink:href="#DejaVuSans-20" x="321.435547"/>
      <use xlink:href="#DejaVuSans-42" x="353.222656"/>
      <use xlink:href="#DejaVuSans-61" x="421.826172"/>
      <use xlink:href="#DejaVuSans-69" x="483.105469"/>
      <use xlink:href="#DejaVuSans-67" x="510.888672"/>
      <use xlink:href="#DejaVuSans-6f" x="574.365234"/>
      <use xlink:href="#DejaVuSans-72" x="635.546875"/>
      <use xlink:href="#DejaVuSans-72" x="674.910156"/>
      <use xlink:href="#DejaVuSans-69" x="716.023438"/>
     </g>
    </g>
   </g>
  </g>
 </g>
 <defs>
  <clipPath id="p1f0d2ed584">
   <path d="M 490.704375 262.917187 
C 490.704375 233.795931 484.968122 204.957842 473.8239 178.05331 
C 462.679678 151.148777 446.344213 126.701026 425.752375 106.109188 
C 405.160537 85.51735 380.712786 69.181885 353.808253 58.037662 
C 326.90372 46.89344 298.065631 41.157187 268.944375 41.157187 
C 239.823119 41.157187 210.98503 46.89344 184.080497 58.037662 
C 157.175964 69.181885 132.728213 85.51735 112.136375 106.109188 
C 91.544537 126.701026 75.209072 151.148777 64.06485 178.05331 
C 52.920628 204.957842 47.184375 233.795931 47.184375 262.917187 
C 47.184375 292.038444 52.920628 320.876533 64.06485 347.781065 
C 75.209072 374.685598 91.544537 399.133349 112.136375 419.725187 
C 132.728213 440.317025 157.175964 456.65249 184.080497 467.796713 
C 210.98503 478.940935 239.823119 484.677187 268.944375 484.677187 
C 298.065631 484.677187 326.90372 478.940935 353.808253 467.796713 
C 380.712786 456.65249 405.160537 440.317025 425.752375 419.725187 
C 446.344213 399.133349 462.679678 374.685598 473.8239 347.781065 
C 484.968122 320.876533 490.704375 292.038444 490.704375 262.917188 
M 268.944375 262.917187 
C 268.944375 262.917187 268.944375 262.917187 268.944375 262.917187 
C 268.944375 262.917187 268.944375 262.917187 268.944375 262.917187 
C 268.944375 262.917187 268.944375 262.917187 268.944375 262.917187 
C 268.944375 262.917187 268.944375 262.917187 268.944375 262.917187 
C 268.944375 262.917187 268.944375 262.917187 268.944375 262.917187 
C 268.944375 262.917187 268.944375 262.917187 268.944375 262.917187 
C 268.944375 262.917187 268.944375 262.917187 268.944375 262.917187 
C 268.944375 262.917187 268.944375 262.917187 268.944375 262.917187 
C 268.944375 262.917187 268.944375 262.917187 268.944375 262.917187 
C 268.944375 262.917187 268.944375 262.917187 268.944375 262.917187 
C 268.944375 262.917187 268.944375 262.917187 268.944375 262.917187 
C 268.944375 262.917187 268.944375 262.917187 268.944375 262.917187 
C 268.944375 262.917187 268.944375 262.917187 268.944375 262.917187 
C 268.944375 262.917187 268.944375 262.917187 268.944375 262.917187 
C 268.944375 262.917187 268.944375 262.917187 268.944375 262.917187 
C 268.944375 262.917187 268.944375 262.917187 268.944375 262.917187 
z
"/>
  </clipPath>
 </defs>
</svg>
