<?xml version="1.0" encoding="utf-8" standalone="no"?>
<!DOCTYPE svg PUBLIC "-//W3C//DTD SVG 1.1//EN"
  "http://www.w3.org/Graphics/SVG/1.1/DTD/svg11.dtd">
<svg xmlns:xlink="http://www.w3.org/1999/xlink" width="603.784375pt" height="510.71625pt" viewBox="0 0 603.784375 510.71625" xmlns="http://www.w3.org/2000/svg" version="1.1">
 <metadata>
  <rdf:RDF xmlns:dc="http://purl.org/dc/elements/1.1/" xmlns:cc="http://creativecommons.org/ns#" xmlns:rdf="http://www.w3.org/1999/02/22-rdf-syntax-ns#">
   <cc:Work>
    <dc:type rdf:resource="http://purl.org/dc/dcmitype/StillImage"/>
    <dc:date>2023-06-26T14:55:20.890417</dc:date>
    <dc:format>image/svg+xml</dc:format>
    <dc:creator>
     <cc:Agent>
      <dc:title>Matplotlib v3.7.1, https://matplotlib.org/</dc:title>
     </cc:Agent>
    </dc:creator>
   </cc:Work>
  </rdf:RDF>
 </metadata>
 <defs>
  <style type="text/css">*{stroke-linejoin: round; stroke-linecap: butt}</style>
 </defs>
 <g id="figure_1">
  <g id="patch_1">
   <path d="M 0 510.71625 
L 603.784375 510.71625 
L 603.784375 0 
L 0 0 
z
" style="fill: #ffffff"/>
  </g>
  <g id="axes_1">
   <g id="patch_2">
    <path d="M 490.704375 262.917187 
C 490.704375 233.795931 484.968122 204.957842 473.8239 178.05331 
C 462.679678 151.148777 446.344213 126.701026 425.752375 106.109188 
C 405.160537 85.51735 380.712786 69.181885 353.808253 58.037662 
C 326.90372 46.89344 298.065631 41.157187 268.944375 41.157187 
C 239.823119 41.157187 210.98503 46.89344 184.080497 58.037662 
C 157.175964 69.181885 132.728213 85.51735 112.136375 106.109188 
C 91.544537 126.701026 75.209072 151.148777 64.06485 178.05331 
C 52.920628 204.957842 47.184375 233.795931 47.184375 262.917187 
C 47.184375 292.038444 52.920628 320.876533 64.06485 347.781065 
C 75.209072 374.685598 91.544537 399.133349 112.136375 419.725187 
C 132.728213 440.317025 157.175964 456.65249 184.080497 467.796713 
C 210.98503 478.940935 239.823119 484.677187 268.944375 484.677187 
C 298.065631 484.677187 326.90372 478.940935 353.808253 467.796713 
C 380.712786 456.65249 405.160537 440.317025 425.752375 419.725187 
C 446.344213 399.133349 462.679678 374.685598 473.8239 347.781065 
C 484.968122 320.876533 490.704375 292.038444 490.704375 262.917187 
M 268.944375 262.917187 
C 268.944375 262.917187 268.944375 262.917187 268.944375 262.917187 
C 268.944375 262.917187 268.944375 262.917187 268.944375 262.917187 
C 268.944375 262.917187 268.944375 262.917187 268.944375 262.917187 
C 268.944375 262.917187 268.944375 262.917187 268.944375 262.917187 
C 268.944375 262.917187 268.944375 262.917187 268.944375 262.917187 
C 268.944375 262.917187 268.944375 262.917187 268.944375 262.917187 
C 268.944375 262.917187 268.944375 262.917187 268.944375 262.917187 
C 268.944375 262.917187 268.944375 262.917187 268.944375 262.917187 
C 268.944375 262.917187 268.944375 262.917187 268.944375 262.917187 
C 268.944375 262.917187 268.944375 262.917187 268.944375 262.917187 
C 268.944375 262.917187 268.944375 262.917187 268.944375 262.917187 
C 268.944375 262.917187 268.944375 262.917187 268.944375 262.917187 
C 268.944375 262.917187 268.944375 262.917187 268.944375 262.917187 
C 268.944375 262.917187 268.944375 262.917187 268.944375 262.917187 
C 268.944375 262.917187 268.944375 262.917187 268.944375 262.917187 
C 268.944375 262.917187 268.944375 262.917187 268.944375 262.917187 
z
" style="fill: #ffffff"/>
   </g>
   <g id="patch_3">
    <path d="M 480.624375 262.917187 
L 268.944375 234.412118 
L 203.466117 262.917187 
L 268.944375 313.810842 
z
" clip-path="url(#pb7e3dbbaaf)" style="fill: #008000; opacity: 0.5; stroke: #008000; stroke-linejoin: miter"/>
   </g>
   <g id="patch_4">
    <path d="M 417.488162 262.917187 
L 268.944375 227.461634 
L 196.872261 262.917187 
L 268.944375 403.6429 
z
" clip-path="url(#pb7e3dbbaaf)" style="fill: #ff0000; opacity: 0.5; stroke: #ff0000; stroke-linejoin: miter"/>
   </g>
   <g id="patch_5">
    <path d="M 399.525327 262.917187 
L 268.944375 252.837187 
L 152.96707 262.917187 
L 268.944375 434.716278 
z
" clip-path="url(#pb7e3dbbaaf)" style="fill: #0000ff; opacity: 0.5; stroke: #0000ff; stroke-linejoin: miter"/>
   </g>
   <g id="matplotlib.axis_1">
    <g id="xtick_1">
     <g id="line2d_1">
      <path d="M 268.944375 262.917187 
L 490.704375 262.917187 
" clip-path="url(#pb7e3dbbaaf)" style="fill: none; stroke: #b0b0b0; stroke-width: 0.8; stroke-linecap: square"/>
     </g>
     <g id="text_1">
      <!-- microexploitations -->
      <g transform="translate(458.527031 265.676562) scale(0.1 -0.1)">
       <defs>
        <path id="DejaVuSans-6d" d="M 3328 2828 
Q 3544 3216 3844 3400 
Q 4144 3584 4550 3584 
Q 5097 3584 5394 3201 
Q 5691 2819 5691 2113 
L 5691 0 
L 5113 0 
L 5113 2094 
Q 5113 2597 4934 2840 
Q 4756 3084 4391 3084 
Q 3944 3084 3684 2787 
Q 3425 2491 3425 1978 
L 3425 0 
L 2847 0 
L 2847 2094 
Q 2847 2600 2669 2842 
Q 2491 3084 2119 3084 
Q 1678 3084 1418 2786 
Q 1159 2488 1159 1978 
L 1159 0 
L 581 0 
L 581 3500 
L 1159 3500 
L 1159 2956 
Q 1356 3278 1631 3431 
Q 1906 3584 2284 3584 
Q 2666 3584 2933 3390 
Q 3200 3197 3328 2828 
z
" transform="scale(0.015625)"/>
        <path id="DejaVuSans-69" d="M 603 3500 
L 1178 3500 
L 1178 0 
L 603 0 
L 603 3500 
z
M 603 4863 
L 1178 4863 
L 1178 4134 
L 603 4134 
L 603 4863 
z
" transform="scale(0.015625)"/>
        <path id="DejaVuSans-63" d="M 3122 3366 
L 3122 2828 
Q 2878 2963 2633 3030 
Q 2388 3097 2138 3097 
Q 1578 3097 1268 2742 
Q 959 2388 959 1747 
Q 959 1106 1268 751 
Q 1578 397 2138 397 
Q 2388 397 2633 464 
Q 2878 531 3122 666 
L 3122 134 
Q 2881 22 2623 -34 
Q 2366 -91 2075 -91 
Q 1284 -91 818 406 
Q 353 903 353 1747 
Q 353 2603 823 3093 
Q 1294 3584 2113 3584 
Q 2378 3584 2631 3529 
Q 2884 3475 3122 3366 
z
" transform="scale(0.015625)"/>
        <path id="DejaVuSans-72" d="M 2631 2963 
Q 2534 3019 2420 3045 
Q 2306 3072 2169 3072 
Q 1681 3072 1420 2755 
Q 1159 2438 1159 1844 
L 1159 0 
L 581 0 
L 581 3500 
L 1159 3500 
L 1159 2956 
Q 1341 3275 1631 3429 
Q 1922 3584 2338 3584 
Q 2397 3584 2469 3576 
Q 2541 3569 2628 3553 
L 2631 2963 
z
" transform="scale(0.015625)"/>
        <path id="DejaVuSans-6f" d="M 1959 3097 
Q 1497 3097 1228 2736 
Q 959 2375 959 1747 
Q 959 1119 1226 758 
Q 1494 397 1959 397 
Q 2419 397 2687 759 
Q 2956 1122 2956 1747 
Q 2956 2369 2687 2733 
Q 2419 3097 1959 3097 
z
M 1959 3584 
Q 2709 3584 3137 3096 
Q 3566 2609 3566 1747 
Q 3566 888 3137 398 
Q 2709 -91 1959 -91 
Q 1206 -91 779 398 
Q 353 888 353 1747 
Q 353 2609 779 3096 
Q 1206 3584 1959 3584 
z
" transform="scale(0.015625)"/>
        <path id="DejaVuSans-65" d="M 3597 1894 
L 3597 1613 
L 953 1613 
Q 991 1019 1311 708 
Q 1631 397 2203 397 
Q 2534 397 2845 478 
Q 3156 559 3463 722 
L 3463 178 
Q 3153 47 2828 -22 
Q 2503 -91 2169 -91 
Q 1331 -91 842 396 
Q 353 884 353 1716 
Q 353 2575 817 3079 
Q 1281 3584 2069 3584 
Q 2775 3584 3186 3129 
Q 3597 2675 3597 1894 
z
M 3022 2063 
Q 3016 2534 2758 2815 
Q 2500 3097 2075 3097 
Q 1594 3097 1305 2825 
Q 1016 2553 972 2059 
L 3022 2063 
z
" transform="scale(0.015625)"/>
        <path id="DejaVuSans-78" d="M 3513 3500 
L 2247 1797 
L 3578 0 
L 2900 0 
L 1881 1375 
L 863 0 
L 184 0 
L 1544 1831 
L 300 3500 
L 978 3500 
L 1906 2253 
L 2834 3500 
L 3513 3500 
z
" transform="scale(0.015625)"/>
        <path id="DejaVuSans-70" d="M 1159 525 
L 1159 -1331 
L 581 -1331 
L 581 3500 
L 1159 3500 
L 1159 2969 
Q 1341 3281 1617 3432 
Q 1894 3584 2278 3584 
Q 2916 3584 3314 3078 
Q 3713 2572 3713 1747 
Q 3713 922 3314 415 
Q 2916 -91 2278 -91 
Q 1894 -91 1617 61 
Q 1341 213 1159 525 
z
M 3116 1747 
Q 3116 2381 2855 2742 
Q 2594 3103 2138 3103 
Q 1681 3103 1420 2742 
Q 1159 2381 1159 1747 
Q 1159 1113 1420 752 
Q 1681 391 2138 391 
Q 2594 391 2855 752 
Q 3116 1113 3116 1747 
z
" transform="scale(0.015625)"/>
        <path id="DejaVuSans-6c" d="M 603 4863 
L 1178 4863 
L 1178 0 
L 603 0 
L 603 4863 
z
" transform="scale(0.015625)"/>
        <path id="DejaVuSans-74" d="M 1172 4494 
L 1172 3500 
L 2356 3500 
L 2356 3053 
L 1172 3053 
L 1172 1153 
Q 1172 725 1289 603 
Q 1406 481 1766 481 
L 2356 481 
L 2356 0 
L 1766 0 
Q 1100 0 847 248 
Q 594 497 594 1153 
L 594 3053 
L 172 3053 
L 172 3500 
L 594 3500 
L 594 4494 
L 1172 4494 
z
" transform="scale(0.015625)"/>
        <path id="DejaVuSans-61" d="M 2194 1759 
Q 1497 1759 1228 1600 
Q 959 1441 959 1056 
Q 959 750 1161 570 
Q 1363 391 1709 391 
Q 2188 391 2477 730 
Q 2766 1069 2766 1631 
L 2766 1759 
L 2194 1759 
z
M 3341 1997 
L 3341 0 
L 2766 0 
L 2766 531 
Q 2569 213 2275 61 
Q 1981 -91 1556 -91 
Q 1019 -91 701 211 
Q 384 513 384 1019 
Q 384 1609 779 1909 
Q 1175 2209 1959 2209 
L 2766 2209 
L 2766 2266 
Q 2766 2663 2505 2880 
Q 2244 3097 1772 3097 
Q 1472 3097 1187 3025 
Q 903 2953 641 2809 
L 641 3341 
Q 956 3463 1253 3523 
Q 1550 3584 1831 3584 
Q 2591 3584 2966 3190 
Q 3341 2797 3341 1997 
z
" transform="scale(0.015625)"/>
        <path id="DejaVuSans-6e" d="M 3513 2113 
L 3513 0 
L 2938 0 
L 2938 2094 
Q 2938 2591 2744 2837 
Q 2550 3084 2163 3084 
Q 1697 3084 1428 2787 
Q 1159 2491 1159 1978 
L 1159 0 
L 581 0 
L 581 3500 
L 1159 3500 
L 1159 2956 
Q 1366 3272 1645 3428 
Q 1925 3584 2291 3584 
Q 2894 3584 3203 3211 
Q 3513 2838 3513 2113 
z
" transform="scale(0.015625)"/>
        <path id="DejaVuSans-73" d="M 2834 3397 
L 2834 2853 
Q 2591 2978 2328 3040 
Q 2066 3103 1784 3103 
Q 1356 3103 1142 2972 
Q 928 2841 928 2578 
Q 928 2378 1081 2264 
Q 1234 2150 1697 2047 
L 1894 2003 
Q 2506 1872 2764 1633 
Q 3022 1394 3022 966 
Q 3022 478 2636 193 
Q 2250 -91 1575 -91 
Q 1294 -91 989 -36 
Q 684 19 347 128 
L 347 722 
Q 666 556 975 473 
Q 1284 391 1588 391 
Q 1994 391 2212 530 
Q 2431 669 2431 922 
Q 2431 1156 2273 1281 
Q 2116 1406 1581 1522 
L 1381 1569 
Q 847 1681 609 1914 
Q 372 2147 372 2553 
Q 372 3047 722 3315 
Q 1072 3584 1716 3584 
Q 2034 3584 2315 3537 
Q 2597 3491 2834 3397 
z
" transform="scale(0.015625)"/>
       </defs>
       <use xlink:href="#DejaVuSans-6d"/>
       <use xlink:href="#DejaVuSans-69" x="97.412109"/>
       <use xlink:href="#DejaVuSans-63" x="125.195312"/>
       <use xlink:href="#DejaVuSans-72" x="180.175781"/>
       <use xlink:href="#DejaVuSans-6f" x="219.039062"/>
       <use xlink:href="#DejaVuSans-65" x="280.220703"/>
       <use xlink:href="#DejaVuSans-78" x="339.994141"/>
       <use xlink:href="#DejaVuSans-70" x="399.173828"/>
       <use xlink:href="#DejaVuSans-6c" x="462.650391"/>
       <use xlink:href="#DejaVuSans-6f" x="490.433594"/>
       <use xlink:href="#DejaVuSans-69" x="551.615234"/>
       <use xlink:href="#DejaVuSans-74" x="579.398438"/>
       <use xlink:href="#DejaVuSans-61" x="618.607422"/>
       <use xlink:href="#DejaVuSans-74" x="679.886719"/>
       <use xlink:href="#DejaVuSans-69" x="719.095703"/>
       <use xlink:href="#DejaVuSans-6f" x="746.878906"/>
       <use xlink:href="#DejaVuSans-6e" x="808.060547"/>
       <use xlink:href="#DejaVuSans-73" x="871.439453"/>
      </g>
     </g>
    </g>
    <g id="xtick_2">
     <g id="line2d_2">
      <path d="M 268.944375 262.917187 
L 268.944375 41.157187 
" clip-path="url(#pb7e3dbbaaf)" style="fill: none; stroke: #b0b0b0; stroke-width: 0.8; stroke-linecap: square"/>
     </g>
     <g id="text_2">
      <!-- petites -->
      <g transform="translate(251.702969 29.916562) scale(0.1 -0.1)">
       <use xlink:href="#DejaVuSans-70"/>
       <use xlink:href="#DejaVuSans-65" x="63.476562"/>
       <use xlink:href="#DejaVuSans-74" x="125"/>
       <use xlink:href="#DejaVuSans-69" x="164.208984"/>
       <use xlink:href="#DejaVuSans-74" x="191.992188"/>
       <use xlink:href="#DejaVuSans-65" x="231.201172"/>
       <use xlink:href="#DejaVuSans-73" x="292.724609"/>
      </g>
     </g>
    </g>
    <g id="xtick_3">
     <g id="line2d_3">
      <path d="M 268.944375 262.917187 
L 47.184375 262.917187 
" clip-path="url(#pb7e3dbbaaf)" style="fill: none; stroke: #b0b0b0; stroke-width: 0.8; stroke-linecap: square"/>
     </g>
     <g id="text_3">
      <!-- moyennes -->
      <g transform="translate(7.2 265.676562) scale(0.1 -0.1)">
       <defs>
        <path id="DejaVuSans-79" d="M 2059 -325 
Q 1816 -950 1584 -1140 
Q 1353 -1331 966 -1331 
L 506 -1331 
L 506 -850 
L 844 -850 
Q 1081 -850 1212 -737 
Q 1344 -625 1503 -206 
L 1606 56 
L 191 3500 
L 800 3500 
L 1894 763 
L 2988 3500 
L 3597 3500 
L 2059 -325 
z
" transform="scale(0.015625)"/>
       </defs>
       <use xlink:href="#DejaVuSans-6d"/>
       <use xlink:href="#DejaVuSans-6f" x="97.412109"/>
       <use xlink:href="#DejaVuSans-79" x="158.59375"/>
       <use xlink:href="#DejaVuSans-65" x="217.773438"/>
       <use xlink:href="#DejaVuSans-6e" x="279.296875"/>
       <use xlink:href="#DejaVuSans-6e" x="342.675781"/>
       <use xlink:href="#DejaVuSans-65" x="406.054688"/>
       <use xlink:href="#DejaVuSans-73" x="467.578125"/>
      </g>
     </g>
    </g>
    <g id="xtick_4">
     <g id="line2d_4">
      <path d="M 268.944375 262.917187 
L 268.944375 484.677187 
" clip-path="url(#pb7e3dbbaaf)" style="fill: none; stroke: #b0b0b0; stroke-width: 0.8; stroke-linecap: square"/>
     </g>
     <g id="text_4">
      <!-- grandes -->
      <g transform="translate(248.626406 501.436562) scale(0.1 -0.1)">
       <defs>
        <path id="DejaVuSans-67" d="M 2906 1791 
Q 2906 2416 2648 2759 
Q 2391 3103 1925 3103 
Q 1463 3103 1205 2759 
Q 947 2416 947 1791 
Q 947 1169 1205 825 
Q 1463 481 1925 481 
Q 2391 481 2648 825 
Q 2906 1169 2906 1791 
z
M 3481 434 
Q 3481 -459 3084 -895 
Q 2688 -1331 1869 -1331 
Q 1566 -1331 1297 -1286 
Q 1028 -1241 775 -1147 
L 775 -588 
Q 1028 -725 1275 -790 
Q 1522 -856 1778 -856 
Q 2344 -856 2625 -561 
Q 2906 -266 2906 331 
L 2906 616 
Q 2728 306 2450 153 
Q 2172 0 1784 0 
Q 1141 0 747 490 
Q 353 981 353 1791 
Q 353 2603 747 3093 
Q 1141 3584 1784 3584 
Q 2172 3584 2450 3431 
Q 2728 3278 2906 2969 
L 2906 3500 
L 3481 3500 
L 3481 434 
z
" transform="scale(0.015625)"/>
        <path id="DejaVuSans-64" d="M 2906 2969 
L 2906 4863 
L 3481 4863 
L 3481 0 
L 2906 0 
L 2906 525 
Q 2725 213 2448 61 
Q 2172 -91 1784 -91 
Q 1150 -91 751 415 
Q 353 922 353 1747 
Q 353 2572 751 3078 
Q 1150 3584 1784 3584 
Q 2172 3584 2448 3432 
Q 2725 3281 2906 2969 
z
M 947 1747 
Q 947 1113 1208 752 
Q 1469 391 1925 391 
Q 2381 391 2643 752 
Q 2906 1113 2906 1747 
Q 2906 2381 2643 2742 
Q 2381 3103 1925 3103 
Q 1469 3103 1208 2742 
Q 947 2381 947 1747 
z
" transform="scale(0.015625)"/>
       </defs>
       <use xlink:href="#DejaVuSans-67"/>
       <use xlink:href="#DejaVuSans-72" x="63.476562"/>
       <use xlink:href="#DejaVuSans-61" x="104.589844"/>
       <use xlink:href="#DejaVuSans-6e" x="165.869141"/>
       <use xlink:href="#DejaVuSans-64" x="229.248047"/>
       <use xlink:href="#DejaVuSans-65" x="292.724609"/>
       <use xlink:href="#DejaVuSans-73" x="354.248047"/>
      </g>
     </g>
    </g>
   </g>
   <g id="matplotlib.axis_2">
    <g id="ytick_1">
     <g id="line2d_5">
      <path d="M 287.198743 262.917187 
C 287.198743 260.520046 286.726558 258.146214 285.809212 255.931543 
C 284.891865 253.716873 283.547197 251.704435 281.852162 250.0094 
C 280.157127 248.314365 278.144689 246.969697 275.930019 246.052351 
C 273.715349 245.135005 271.341517 244.66282 268.944375 244.66282 
C 266.547233 244.66282 264.173401 245.135005 261.958731 246.052351 
C 259.744061 246.969697 257.731623 248.314365 256.036588 250.0094 
C 254.341553 251.704435 252.996885 253.716873 252.079538 255.931543 
C 251.162192 258.146214 250.690007 260.520046 250.690007 262.917187 
C 250.690007 265.314329 251.162192 267.688161 252.079538 269.902832 
C 252.996885 272.117502 254.341553 274.12994 256.036588 275.824975 
C 257.731623 277.52001 259.744061 278.864678 261.958731 279.782024 
C 264.173401 280.69937 266.547233 281.171555 268.944375 281.171555 
C 271.341517 281.171555 273.715349 280.69937 275.930019 279.782024 
C 278.144689 278.864678 280.157127 277.52001 281.852162 275.824975 
C 283.547197 274.12994 284.891865 272.117502 285.809212 269.902832 
C 286.726558 267.688161 287.198743 265.314329 287.198743 262.917187 
" clip-path="url(#pb7e3dbbaaf)" style="fill: none; stroke: #b0b0b0; stroke-width: 0.8; stroke-linecap: square"/>
     </g>
     <g id="text_5">
      <!-- −0.2 -->
      <g transform="translate(285.809212 253.851856) scale(0.1 -0.1)">
       <defs>
        <path id="DejaVuSans-2212" d="M 678 2272 
L 4684 2272 
L 4684 1741 
L 678 1741 
L 678 2272 
z
" transform="scale(0.015625)"/>
        <path id="DejaVuSans-30" d="M 2034 4250 
Q 1547 4250 1301 3770 
Q 1056 3291 1056 2328 
Q 1056 1369 1301 889 
Q 1547 409 2034 409 
Q 2525 409 2770 889 
Q 3016 1369 3016 2328 
Q 3016 3291 2770 3770 
Q 2525 4250 2034 4250 
z
M 2034 4750 
Q 2819 4750 3233 4129 
Q 3647 3509 3647 2328 
Q 3647 1150 3233 529 
Q 2819 -91 2034 -91 
Q 1250 -91 836 529 
Q 422 1150 422 2328 
Q 422 3509 836 4129 
Q 1250 4750 2034 4750 
z
" transform="scale(0.015625)"/>
        <path id="DejaVuSans-2e" d="M 684 794 
L 1344 794 
L 1344 0 
L 684 0 
L 684 794 
z
" transform="scale(0.015625)"/>
        <path id="DejaVuSans-32" d="M 1228 531 
L 3431 531 
L 3431 0 
L 469 0 
L 469 531 
Q 828 903 1448 1529 
Q 2069 2156 2228 2338 
Q 2531 2678 2651 2914 
Q 2772 3150 2772 3378 
Q 2772 3750 2511 3984 
Q 2250 4219 1831 4219 
Q 1534 4219 1204 4116 
Q 875 4013 500 3803 
L 500 4441 
Q 881 4594 1212 4672 
Q 1544 4750 1819 4750 
Q 2544 4750 2975 4387 
Q 3406 4025 3406 3419 
Q 3406 3131 3298 2873 
Q 3191 2616 2906 2266 
Q 2828 2175 2409 1742 
Q 1991 1309 1228 531 
z
" transform="scale(0.015625)"/>
       </defs>
       <use xlink:href="#DejaVuSans-2212"/>
       <use xlink:href="#DejaVuSans-30" x="83.789062"/>
       <use xlink:href="#DejaVuSans-2e" x="147.412109"/>
       <use xlink:href="#DejaVuSans-32" x="179.199219"/>
      </g>
     </g>
    </g>
    <g id="ytick_2">
     <g id="line2d_6">
      <path d="M 314.943697 262.917187 
C 314.943697 256.876612 313.753835 250.894773 311.442207 245.314009 
C 309.130579 239.733245 305.742139 234.662087 301.470807 230.390755 
C 297.199475 226.119423 292.128318 222.730984 286.547553 220.419355 
C 280.966789 218.107727 274.984951 216.917866 268.944375 216.917866 
C 262.903799 216.917866 256.921961 218.107727 251.341197 220.419355 
C 245.760432 222.730984 240.689275 226.119423 236.417943 230.390755 
C 232.146611 234.662087 228.758171 239.733245 226.446543 245.314009 
C 224.134915 250.894773 222.945053 256.876612 222.945053 262.917187 
C 222.945053 268.957763 224.134915 274.939602 226.446543 280.520366 
C 228.758171 286.10113 232.146611 291.172288 236.417943 295.44362 
C 240.689275 299.714952 245.760432 303.103391 251.341197 305.41502 
C 256.921961 307.726648 262.903799 308.916509 268.944375 308.916509 
C 274.984951 308.916509 280.966789 307.726648 286.547553 305.41502 
C 292.128318 303.103391 297.199475 299.714952 301.470807 295.44362 
C 305.742139 291.172288 309.130579 286.10113 311.442207 280.520366 
C 313.753835 274.939602 314.943697 268.957763 314.943697 262.917187 
" clip-path="url(#pb7e3dbbaaf)" style="fill: none; stroke: #b0b0b0; stroke-width: 0.8; stroke-linecap: square"/>
     </g>
     <g id="text_6">
      <!-- −0.1 -->
      <g transform="translate(311.442207 243.234322) scale(0.1 -0.1)">
       <defs>
        <path id="DejaVuSans-31" d="M 794 531 
L 1825 531 
L 1825 4091 
L 703 3866 
L 703 4441 
L 1819 4666 
L 2450 4666 
L 2450 531 
L 3481 531 
L 3481 0 
L 794 0 
L 794 531 
z
" transform="scale(0.015625)"/>
       </defs>
       <use xlink:href="#DejaVuSans-2212"/>
       <use xlink:href="#DejaVuSans-30" x="83.789062"/>
       <use xlink:href="#DejaVuSans-2e" x="147.412109"/>
       <use xlink:href="#DejaVuSans-31" x="179.199219"/>
      </g>
     </g>
    </g>
    <g id="ytick_3">
     <g id="line2d_7">
      <path d="M 342.688651 262.917187 
C 342.688651 253.233178 340.781113 243.643333 337.075202 234.696475 
C 333.369292 225.749616 327.937082 217.619739 321.089453 210.77211 
C 314.241824 203.924481 306.111946 198.49227 297.165088 194.78636 
C 288.218229 191.08045 278.628385 189.172911 268.944375 189.172911 
C 259.260365 189.172911 249.670521 191.08045 240.723662 194.78636 
C 231.776804 198.49227 223.646926 203.924481 216.799297 210.77211 
C 209.951668 217.619739 204.519458 225.749616 200.813548 234.696475 
C 197.107637 243.643333 195.200099 253.233178 195.200099 262.917187 
C 195.200099 272.601197 197.107637 282.191042 200.813548 291.1379 
C 204.519458 300.084759 209.951668 308.214636 216.799297 315.062265 
C 223.646926 321.909894 231.776804 327.342105 240.723662 331.048015 
C 249.670521 334.753925 259.260365 336.661464 268.944375 336.661464 
C 278.628385 336.661464 288.218229 334.753925 297.165088 331.048015 
C 306.111946 327.342105 314.241824 321.909894 321.089453 315.062265 
C 327.937082 308.214636 333.369292 300.084759 337.075202 291.1379 
C 340.781113 282.191042 342.688651 272.601197 342.688651 262.917187 
" clip-path="url(#pb7e3dbbaaf)" style="fill: none; stroke: #b0b0b0; stroke-width: 0.8; stroke-linecap: square"/>
     </g>
     <g id="text_7">
      <!-- 0.0 -->
      <g transform="translate(337.075202 232.616787) scale(0.1 -0.1)">
       <use xlink:href="#DejaVuSans-30"/>
       <use xlink:href="#DejaVuSans-2e" x="63.623047"/>
       <use xlink:href="#DejaVuSans-30" x="95.410156"/>
      </g>
     </g>
    </g>
    <g id="ytick_4">
     <g id="line2d_8">
      <path d="M 370.433606 262.917187 
C 370.433606 249.589744 367.80839 236.391893 362.708198 224.07894 
C 357.608006 211.765988 350.132024 200.57739 340.708098 191.153464 
C 331.284172 181.729539 320.095575 174.253556 307.782622 169.153365 
C 295.46967 164.053173 282.271819 161.427957 268.944375 161.427957 
C 255.616931 161.427957 242.41908 164.053173 230.106128 169.153365 
C 217.793175 174.253556 206.604578 181.729539 197.180652 191.153464 
C 187.756726 200.57739 180.280744 211.765988 175.180552 224.07894 
C 170.08036 236.391893 167.455144 249.589744 167.455144 262.917187 
C 167.455144 276.244631 170.08036 289.442482 175.180552 301.755435 
C 180.280744 314.068387 187.756726 325.256985 197.180652 334.680911 
C 206.604578 344.104836 217.793175 351.580819 230.106128 356.68101 
C 242.41908 361.781202 255.616931 364.406418 268.944375 364.406418 
C 282.271819 364.406418 295.46967 361.781202 307.782622 356.68101 
C 320.095575 351.580819 331.284172 344.104836 340.708098 334.680911 
C 350.132024 325.256985 357.608006 314.068387 362.708198 301.755435 
C 367.80839 289.442482 370.433606 276.244631 370.433606 262.917187 
" clip-path="url(#pb7e3dbbaaf)" style="fill: none; stroke: #b0b0b0; stroke-width: 0.8; stroke-linecap: square"/>
     </g>
     <g id="text_8">
      <!-- 0.1 -->
      <g transform="translate(362.708198 221.999253) scale(0.1 -0.1)">
       <use xlink:href="#DejaVuSans-30"/>
       <use xlink:href="#DejaVuSans-2e" x="63.623047"/>
       <use xlink:href="#DejaVuSans-31" x="95.410156"/>
      </g>
     </g>
    </g>
    <g id="ytick_5">
     <g id="line2d_9">
      <path d="M 398.17856 262.917187 
C 398.17856 245.94631 394.835667 229.140453 388.341193 213.461406 
C 381.84672 197.78236 372.326966 183.535042 360.326743 171.534819 
C 348.326521 159.534596 334.079203 150.014843 318.400156 143.520369 
C 302.72111 137.025895 285.915253 133.683003 268.944375 133.683003 
C 251.973497 133.683003 235.16764 137.025895 219.488594 143.520369 
C 203.809547 150.014843 189.562229 159.534596 177.562007 171.534819 
C 165.561784 183.535042 156.04203 197.78236 149.547557 213.461406 
C 143.053083 229.140453 139.71019 245.94631 139.71019 262.917187 
C 139.71019 279.888065 143.053083 296.693922 149.547557 312.372969 
C 156.04203 328.052015 165.561784 342.299333 177.562007 354.299556 
C 189.562229 366.299779 203.809547 375.819532 219.488594 382.314006 
C 235.16764 388.80848 251.973497 392.151372 268.944375 392.151372 
C 285.915253 392.151372 302.72111 388.80848 318.400156 382.314006 
C 334.079203 375.819532 348.326521 366.299779 360.326743 354.299556 
C 372.326966 342.299333 381.84672 328.052015 388.341193 312.372969 
C 394.835667 296.693922 398.17856 279.888065 398.17856 262.917188 
" clip-path="url(#pb7e3dbbaaf)" style="fill: none; stroke: #b0b0b0; stroke-width: 0.8; stroke-linecap: square"/>
     </g>
     <g id="text_9">
      <!-- 0.2 -->
      <g transform="translate(388.341193 211.381719) scale(0.1 -0.1)">
       <use xlink:href="#DejaVuSans-30"/>
       <use xlink:href="#DejaVuSans-2e" x="63.623047"/>
       <use xlink:href="#DejaVuSans-32" x="95.410156"/>
      </g>
     </g>
    </g>
    <g id="ytick_6">
     <g id="line2d_10">
      <path d="M 425.923514 262.917187 
C 425.923514 242.302876 421.862944 221.889012 413.974189 202.843872 
C 406.085433 183.798731 394.521908 166.492693 379.945389 151.916174 
C 365.368869 137.339654 348.062831 125.776129 329.017691 117.887374 
C 309.97255 109.998618 289.558687 105.938048 268.944375 105.938048 
C 248.330063 105.938048 227.9162 109.998618 208.871059 117.887374 
C 189.825919 125.776129 172.519881 137.339654 157.943361 151.916174 
C 143.366842 166.492693 131.803317 183.798731 123.914561 202.843872 
C 116.025806 221.889012 111.965236 242.302876 111.965236 262.917187 
C 111.965236 283.531499 116.025806 303.945363 123.914561 322.990503 
C 131.803317 342.035644 143.366842 359.341682 157.943361 373.918201 
C 172.519881 388.494721 189.825919 400.058246 208.871059 407.947001 
C 227.9162 415.835757 248.330063 419.896327 268.944375 419.896327 
C 289.558687 419.896327 309.97255 415.835757 329.017691 407.947001 
C 348.062831 400.058246 365.368869 388.494721 379.945389 373.918201 
C 394.521908 359.341682 406.085433 342.035644 413.974189 322.990503 
C 421.862944 303.945363 425.923514 283.531499 425.923514 262.917188 
" clip-path="url(#pb7e3dbbaaf)" style="fill: none; stroke: #b0b0b0; stroke-width: 0.8; stroke-linecap: square"/>
     </g>
     <g id="text_10">
      <!-- 0.3 -->
      <g transform="translate(413.974189 200.764184) scale(0.1 -0.1)">
       <defs>
        <path id="DejaVuSans-33" d="M 2597 2516 
Q 3050 2419 3304 2112 
Q 3559 1806 3559 1356 
Q 3559 666 3084 287 
Q 2609 -91 1734 -91 
Q 1441 -91 1130 -33 
Q 819 25 488 141 
L 488 750 
Q 750 597 1062 519 
Q 1375 441 1716 441 
Q 2309 441 2620 675 
Q 2931 909 2931 1356 
Q 2931 1769 2642 2001 
Q 2353 2234 1838 2234 
L 1294 2234 
L 1294 2753 
L 1863 2753 
Q 2328 2753 2575 2939 
Q 2822 3125 2822 3475 
Q 2822 3834 2567 4026 
Q 2313 4219 1838 4219 
Q 1578 4219 1281 4162 
Q 984 4106 628 3988 
L 628 4550 
Q 988 4650 1302 4700 
Q 1616 4750 1894 4750 
Q 2613 4750 3031 4423 
Q 3450 4097 3450 3541 
Q 3450 3153 3228 2886 
Q 3006 2619 2597 2516 
z
" transform="scale(0.015625)"/>
       </defs>
       <use xlink:href="#DejaVuSans-30"/>
       <use xlink:href="#DejaVuSans-2e" x="63.623047"/>
       <use xlink:href="#DejaVuSans-33" x="95.410156"/>
      </g>
     </g>
    </g>
    <g id="ytick_7">
     <g id="line2d_11">
      <path d="M 453.668469 262.917187 
C 453.668469 238.659442 448.890222 214.637572 439.607184 192.226337 
C 430.324147 169.815103 416.716851 149.450345 399.564034 132.297528 
C 382.411218 115.144712 362.04646 101.537416 339.635225 92.254378 
C 317.22399 82.971341 293.202121 78.193094 268.944375 78.193094 
C 244.686629 78.193094 220.66476 82.971341 198.253525 92.254378 
C 175.84229 101.537416 155.477532 115.144712 138.324716 132.297528 
C 121.171899 149.450345 107.564603 169.815103 98.281566 192.226337 
C 88.998528 214.637572 84.220281 238.659442 84.220281 262.917187 
C 84.220281 287.174933 88.998528 311.196803 98.281566 333.608038 
C 107.564603 356.019272 121.171899 376.38403 138.324716 393.536847 
C 155.477532 410.689663 175.84229 424.296959 198.253525 433.579997 
C 220.66476 442.863034 244.686629 447.641281 268.944375 447.641281 
C 293.202121 447.641281 317.22399 442.863034 339.635225 433.579997 
C 362.04646 424.296959 382.411218 410.689663 399.564034 393.536847 
C 416.716851 376.38403 430.324147 356.019272 439.607184 333.608038 
C 448.890222 311.196803 453.668469 287.174933 453.668469 262.917188 
" clip-path="url(#pb7e3dbbaaf)" style="fill: none; stroke: #b0b0b0; stroke-width: 0.8; stroke-linecap: square"/>
     </g>
     <g id="text_11">
      <!-- 0.4 -->
      <g transform="translate(439.607184 190.14665) scale(0.1 -0.1)">
       <defs>
        <path id="DejaVuSans-34" d="M 2419 4116 
L 825 1625 
L 2419 1625 
L 2419 4116 
z
M 2253 4666 
L 3047 4666 
L 3047 1625 
L 3713 1625 
L 3713 1100 
L 3047 1100 
L 3047 0 
L 2419 0 
L 2419 1100 
L 313 1100 
L 313 1709 
L 2253 4666 
z
" transform="scale(0.015625)"/>
       </defs>
       <use xlink:href="#DejaVuSans-30"/>
       <use xlink:href="#DejaVuSans-2e" x="63.623047"/>
       <use xlink:href="#DejaVuSans-34" x="95.410156"/>
      </g>
     </g>
    </g>
    <g id="ytick_8">
     <g id="line2d_12">
      <path d="M 481.413423 262.917187 
C 481.413423 235.016008 475.917499 207.386132 465.24018 181.608803 
C 454.56286 155.831474 438.911793 132.407996 419.18268 112.678883 
C 399.453566 92.94977 376.030088 77.298702 350.252759 66.621383 
C 324.475431 55.944064 296.845555 50.44814 268.944375 50.44814 
C 241.043195 50.44814 213.413319 55.944064 187.635991 66.621383 
C 161.858662 77.298702 138.435184 92.94977 118.70607 112.678883 
C 98.976957 132.407996 83.32589 155.831474 72.64857 181.608803 
C 61.971251 207.386132 56.475327 235.016008 56.475327 262.917187 
C 56.475327 290.818367 61.971251 318.448243 72.64857 344.225572 
C 83.32589 370.002901 98.976957 393.426379 118.70607 413.155492 
C 138.435184 432.884605 161.858662 448.535673 187.635991 459.212992 
C 213.413319 469.890311 241.043195 475.386235 268.944375 475.386235 
C 296.845555 475.386235 324.475431 469.890311 350.252759 459.212992 
C 376.030088 448.535673 399.453566 432.884605 419.18268 413.155492 
C 438.911793 393.426379 454.56286 370.002901 465.24018 344.225572 
C 475.917499 318.448243 481.413423 290.818367 481.413423 262.917188 
" clip-path="url(#pb7e3dbbaaf)" style="fill: none; stroke: #b0b0b0; stroke-width: 0.8; stroke-linecap: square"/>
     </g>
     <g id="text_12">
      <!-- 0.5 -->
      <g transform="translate(465.24018 179.529116) scale(0.1 -0.1)">
       <defs>
        <path id="DejaVuSans-35" d="M 691 4666 
L 3169 4666 
L 3169 4134 
L 1269 4134 
L 1269 2991 
Q 1406 3038 1543 3061 
Q 1681 3084 1819 3084 
Q 2600 3084 3056 2656 
Q 3513 2228 3513 1497 
Q 3513 744 3044 326 
Q 2575 -91 1722 -91 
Q 1428 -91 1123 -41 
Q 819 9 494 109 
L 494 744 
Q 775 591 1075 516 
Q 1375 441 1709 441 
Q 2250 441 2565 725 
Q 2881 1009 2881 1497 
Q 2881 1984 2565 2268 
Q 2250 2553 1709 2553 
Q 1456 2553 1204 2497 
Q 953 2441 691 2322 
L 691 4666 
z
" transform="scale(0.015625)"/>
       </defs>
       <use xlink:href="#DejaVuSans-30"/>
       <use xlink:href="#DejaVuSans-2e" x="63.623047"/>
       <use xlink:href="#DejaVuSans-35" x="95.410156"/>
      </g>
     </g>
    </g>
   </g>
   <g id="line2d_13">
    <path d="M 480.624375 262.917187 
L 268.944375 234.412118 
L 203.466117 262.917187 
L 268.944375 313.810842 
L 480.624375 262.917187 
" clip-path="url(#pb7e3dbbaaf)" style="fill: none; stroke: #008000; stroke-linecap: square"/>
   </g>
   <g id="line2d_14">
    <path d="M 417.488162 262.917187 
L 268.944375 227.461634 
L 196.872261 262.917187 
L 268.944375 403.6429 
L 417.488162 262.917187 
" clip-path="url(#pb7e3dbbaaf)" style="fill: none; stroke: #ff0000; stroke-linecap: square"/>
   </g>
   <g id="line2d_15">
    <path d="M 399.525327 262.917187 
L 268.944375 252.837187 
L 152.96707 262.917187 
L 268.944375 434.716278 
L 399.525327 262.917187 
" clip-path="url(#pb7e3dbbaaf)" style="fill: none; stroke: #0000ff; stroke-linecap: square"/>
   </g>
   <g id="patch_6">
    <path d="M 490.704375 262.917187 
C 490.704375 233.795931 484.968122 204.957842 473.8239 178.05331 
C 462.679678 151.148777 446.344213 126.701026 425.752375 106.109188 
C 405.160537 85.51735 380.712786 69.181885 353.808253 58.037662 
C 326.90372 46.89344 298.065631 41.157187 268.944375 41.157187 
C 239.823119 41.157187 210.98503 46.89344 184.080497 58.037662 
C 157.175964 69.181885 132.728213 85.51735 112.136375 106.109188 
C 91.544537 126.701026 75.209072 151.148777 64.06485 178.05331 
C 52.920628 204.957842 47.184375 233.795931 47.184375 262.917187 
C 47.184375 292.038444 52.920628 320.876533 64.06485 347.781065 
C 75.209072 374.685598 91.544537 399.133349 112.136375 419.725187 
C 132.728213 440.317025 157.175964 456.65249 184.080497 467.796713 
C 210.98503 478.940935 239.823119 484.677187 268.944375 484.677187 
C 298.065631 484.677187 326.90372 478.940935 353.808253 467.796713 
C 380.712786 456.65249 405.160537 440.317025 425.752375 419.725187 
C 446.344213 399.133349 462.679678 374.685598 473.8239 347.781065 
C 484.968122 320.876533 490.704375 292.038444 490.704375 262.917188 
" style="fill: none; stroke: #000000; stroke-width: 0.8; stroke-linejoin: miter; stroke-linecap: square"/>
   </g>
   <g id="text_13">
    <!-- Taux de variation des SAU entre 2010 &amp; 2020 -->
    <g transform="translate(131.819062 16.318125) scale(0.12 -0.12)">
     <defs>
      <path id="DejaVuSans-54" d="M -19 4666 
L 3928 4666 
L 3928 4134 
L 2272 4134 
L 2272 0 
L 1638 0 
L 1638 4134 
L -19 4134 
L -19 4666 
z
" transform="scale(0.015625)"/>
      <path id="DejaVuSans-75" d="M 544 1381 
L 544 3500 
L 1119 3500 
L 1119 1403 
Q 1119 906 1312 657 
Q 1506 409 1894 409 
Q 2359 409 2629 706 
Q 2900 1003 2900 1516 
L 2900 3500 
L 3475 3500 
L 3475 0 
L 2900 0 
L 2900 538 
Q 2691 219 2414 64 
Q 2138 -91 1772 -91 
Q 1169 -91 856 284 
Q 544 659 544 1381 
z
M 1991 3584 
L 1991 3584 
z
" transform="scale(0.015625)"/>
      <path id="DejaVuSans-20" transform="scale(0.015625)"/>
      <path id="DejaVuSans-76" d="M 191 3500 
L 800 3500 
L 1894 563 
L 2988 3500 
L 3597 3500 
L 2284 0 
L 1503 0 
L 191 3500 
z
" transform="scale(0.015625)"/>
      <path id="DejaVuSans-53" d="M 3425 4513 
L 3425 3897 
Q 3066 4069 2747 4153 
Q 2428 4238 2131 4238 
Q 1616 4238 1336 4038 
Q 1056 3838 1056 3469 
Q 1056 3159 1242 3001 
Q 1428 2844 1947 2747 
L 2328 2669 
Q 3034 2534 3370 2195 
Q 3706 1856 3706 1288 
Q 3706 609 3251 259 
Q 2797 -91 1919 -91 
Q 1588 -91 1214 -16 
Q 841 59 441 206 
L 441 856 
Q 825 641 1194 531 
Q 1563 422 1919 422 
Q 2459 422 2753 634 
Q 3047 847 3047 1241 
Q 3047 1584 2836 1778 
Q 2625 1972 2144 2069 
L 1759 2144 
Q 1053 2284 737 2584 
Q 422 2884 422 3419 
Q 422 4038 858 4394 
Q 1294 4750 2059 4750 
Q 2388 4750 2728 4690 
Q 3069 4631 3425 4513 
z
" transform="scale(0.015625)"/>
      <path id="DejaVuSans-41" d="M 2188 4044 
L 1331 1722 
L 3047 1722 
L 2188 4044 
z
M 1831 4666 
L 2547 4666 
L 4325 0 
L 3669 0 
L 3244 1197 
L 1141 1197 
L 716 0 
L 50 0 
L 1831 4666 
z
" transform="scale(0.015625)"/>
      <path id="DejaVuSans-55" d="M 556 4666 
L 1191 4666 
L 1191 1831 
Q 1191 1081 1462 751 
Q 1734 422 2344 422 
Q 2950 422 3222 751 
Q 3494 1081 3494 1831 
L 3494 4666 
L 4128 4666 
L 4128 1753 
Q 4128 841 3676 375 
Q 3225 -91 2344 -91 
Q 1459 -91 1007 375 
Q 556 841 556 1753 
L 556 4666 
z
" transform="scale(0.015625)"/>
      <path id="DejaVuSans-26" d="M 1556 2509 
Q 1272 2256 1139 2004 
Q 1006 1753 1006 1478 
Q 1006 1022 1337 719 
Q 1669 416 2169 416 
Q 2466 416 2725 514 
Q 2984 613 3213 813 
L 1556 2509 
z
M 1997 2859 
L 3584 1234 
Q 3769 1513 3872 1830 
Q 3975 2147 3994 2503 
L 4575 2503 
Q 4538 2091 4375 1687 
Q 4213 1284 3922 891 
L 4794 0 
L 4006 0 
L 3559 459 
Q 3234 181 2878 45 
Q 2522 -91 2113 -91 
Q 1359 -91 881 339 
Q 403 769 403 1441 
Q 403 1841 612 2192 
Q 822 2544 1241 2853 
Q 1091 3050 1012 3245 
Q 934 3441 934 3628 
Q 934 4134 1281 4442 
Q 1628 4750 2203 4750 
Q 2463 4750 2720 4694 
Q 2978 4638 3244 4525 
L 3244 3956 
Q 2972 4103 2725 4179 
Q 2478 4256 2266 4256 
Q 1938 4256 1733 4082 
Q 1528 3909 1528 3634 
Q 1528 3475 1620 3314 
Q 1713 3153 1997 2859 
z
" transform="scale(0.015625)"/>
     </defs>
     <use xlink:href="#DejaVuSans-54"/>
     <use xlink:href="#DejaVuSans-61" x="44.583984"/>
     <use xlink:href="#DejaVuSans-75" x="105.863281"/>
     <use xlink:href="#DejaVuSans-78" x="169.242188"/>
     <use xlink:href="#DejaVuSans-20" x="228.421875"/>
     <use xlink:href="#DejaVuSans-64" x="260.208984"/>
     <use xlink:href="#DejaVuSans-65" x="323.685547"/>
     <use xlink:href="#DejaVuSans-20" x="385.208984"/>
     <use xlink:href="#DejaVuSans-76" x="416.996094"/>
     <use xlink:href="#DejaVuSans-61" x="476.175781"/>
     <use xlink:href="#DejaVuSans-72" x="537.455078"/>
     <use xlink:href="#DejaVuSans-69" x="578.568359"/>
     <use xlink:href="#DejaVuSans-61" x="606.351562"/>
     <use xlink:href="#DejaVuSans-74" x="667.630859"/>
     <use xlink:href="#DejaVuSans-69" x="706.839844"/>
     <use xlink:href="#DejaVuSans-6f" x="734.623047"/>
     <use xlink:href="#DejaVuSans-6e" x="795.804688"/>
     <use xlink:href="#DejaVuSans-20" x="859.183594"/>
     <use xlink:href="#DejaVuSans-64" x="890.970703"/>
     <use xlink:href="#DejaVuSans-65" x="954.447266"/>
     <use xlink:href="#DejaVuSans-73" x="1015.970703"/>
     <use xlink:href="#DejaVuSans-20" x="1068.070312"/>
     <use xlink:href="#DejaVuSans-53" x="1099.857422"/>
     <use xlink:href="#DejaVuSans-41" x="1165.208984"/>
     <use xlink:href="#DejaVuSans-55" x="1233.617188"/>
     <use xlink:href="#DejaVuSans-20" x="1306.810547"/>
     <use xlink:href="#DejaVuSans-65" x="1338.597656"/>
     <use xlink:href="#DejaVuSans-6e" x="1400.121094"/>
     <use xlink:href="#DejaVuSans-74" x="1463.5"/>
     <use xlink:href="#DejaVuSans-72" x="1502.708984"/>
     <use xlink:href="#DejaVuSans-65" x="1541.572266"/>
     <use xlink:href="#DejaVuSans-20" x="1603.095703"/>
     <use xlink:href="#DejaVuSans-32" x="1634.882812"/>
     <use xlink:href="#DejaVuSans-30" x="1698.505859"/>
     <use xlink:href="#DejaVuSans-31" x="1762.128906"/>
     <use xlink:href="#DejaVuSans-30" x="1825.751953"/>
     <use xlink:href="#DejaVuSans-20" x="1889.375"/>
     <use xlink:href="#DejaVuSans-26" x="1921.162109"/>
     <use xlink:href="#DejaVuSans-20" x="1999.140625"/>
     <use xlink:href="#DejaVuSans-32" x="2030.927734"/>
     <use xlink:href="#DejaVuSans-30" x="2094.550781"/>
     <use xlink:href="#DejaVuSans-32" x="2158.173828"/>
     <use xlink:href="#DejaVuSans-30" x="2221.796875"/>
    </g>
   </g>
   <g id="legend_1">
    <g id="patch_7">
     <path d="M 475.826563 107.869687 
L 594.584375 107.869687 
Q 596.584375 107.869687 596.584375 105.869687 
L 596.584375 48.157187 
Q 596.584375 46.157187 594.584375 46.157187 
L 475.826563 46.157187 
Q 473.826563 46.157187 473.826563 48.157187 
L 473.826563 105.869687 
Q 473.826563 107.869687 475.826563 107.869687 
z
" style="fill: #ffffff; opacity: 0.8; stroke: #cccccc; stroke-linejoin: miter"/>
    </g>
    <g id="text_14">
     <!-- Pôles -->
     <g transform="translate(522.242188 57.755625) scale(0.1 -0.1)">
      <defs>
       <path id="DejaVuSans-50" d="M 1259 4147 
L 1259 2394 
L 2053 2394 
Q 2494 2394 2734 2622 
Q 2975 2850 2975 3272 
Q 2975 3691 2734 3919 
Q 2494 4147 2053 4147 
L 1259 4147 
z
M 628 4666 
L 2053 4666 
Q 2838 4666 3239 4311 
Q 3641 3956 3641 3272 
Q 3641 2581 3239 2228 
Q 2838 1875 2053 1875 
L 1259 1875 
L 1259 0 
L 628 0 
L 628 4666 
z
" transform="scale(0.015625)"/>
       <path id="DejaVuSans-f4" d="M 1959 3097 
Q 1497 3097 1228 2736 
Q 959 2375 959 1747 
Q 959 1119 1226 758 
Q 1494 397 1959 397 
Q 2419 397 2687 759 
Q 2956 1122 2956 1747 
Q 2956 2369 2687 2733 
Q 2419 3097 1959 3097 
z
M 1959 3584 
Q 2709 3584 3137 3096 
Q 3566 2609 3566 1747 
Q 3566 888 3137 398 
Q 2709 -91 1959 -91 
Q 1206 -91 779 398 
Q 353 888 353 1747 
Q 353 2609 779 3096 
Q 1206 3584 1959 3584 
z
M 1729 5119 
L 2191 5119 
L 2957 3944 
L 2523 3944 
L 1960 4709 
L 1398 3944 
L 963 3944 
L 1729 5119 
z
" transform="scale(0.015625)"/>
      </defs>
      <use xlink:href="#DejaVuSans-50"/>
      <use xlink:href="#DejaVuSans-f4" x="56.677734"/>
      <use xlink:href="#DejaVuSans-6c" x="117.859375"/>
      <use xlink:href="#DejaVuSans-65" x="145.642578"/>
      <use xlink:href="#DejaVuSans-73" x="207.166016"/>
     </g>
    </g>
    <g id="line2d_16">
     <path d="M 477.826563 68.93375 
L 487.826563 68.93375 
L 497.826563 68.93375 
" style="fill: none; stroke: #008000; stroke-linecap: square"/>
    </g>
    <g id="text_15">
     <!-- Pays de Bidache -->
     <g transform="translate(505.826563 72.43375) scale(0.1 -0.1)">
      <defs>
       <path id="DejaVuSans-42" d="M 1259 2228 
L 1259 519 
L 2272 519 
Q 2781 519 3026 730 
Q 3272 941 3272 1375 
Q 3272 1813 3026 2020 
Q 2781 2228 2272 2228 
L 1259 2228 
z
M 1259 4147 
L 1259 2741 
L 2194 2741 
Q 2656 2741 2882 2914 
Q 3109 3088 3109 3444 
Q 3109 3797 2882 3972 
Q 2656 4147 2194 4147 
L 1259 4147 
z
M 628 4666 
L 2241 4666 
Q 2963 4666 3353 4366 
Q 3744 4066 3744 3513 
Q 3744 3084 3544 2831 
Q 3344 2578 2956 2516 
Q 3422 2416 3680 2098 
Q 3938 1781 3938 1306 
Q 3938 681 3513 340 
Q 3088 0 2303 0 
L 628 0 
L 628 4666 
z
" transform="scale(0.015625)"/>
       <path id="DejaVuSans-68" d="M 3513 2113 
L 3513 0 
L 2938 0 
L 2938 2094 
Q 2938 2591 2744 2837 
Q 2550 3084 2163 3084 
Q 1697 3084 1428 2787 
Q 1159 2491 1159 1978 
L 1159 0 
L 581 0 
L 581 4863 
L 1159 4863 
L 1159 2956 
Q 1366 3272 1645 3428 
Q 1925 3584 2291 3584 
Q 2894 3584 3203 3211 
Q 3513 2838 3513 2113 
z
" transform="scale(0.015625)"/>
      </defs>
      <use xlink:href="#DejaVuSans-50"/>
      <use xlink:href="#DejaVuSans-61" x="55.802734"/>
      <use xlink:href="#DejaVuSans-79" x="117.082031"/>
      <use xlink:href="#DejaVuSans-73" x="176.261719"/>
      <use xlink:href="#DejaVuSans-20" x="228.361328"/>
      <use xlink:href="#DejaVuSans-64" x="260.148438"/>
      <use xlink:href="#DejaVuSans-65" x="323.625"/>
      <use xlink:href="#DejaVuSans-20" x="385.148438"/>
      <use xlink:href="#DejaVuSans-42" x="416.935547"/>
      <use xlink:href="#DejaVuSans-69" x="485.539062"/>
      <use xlink:href="#DejaVuSans-64" x="513.322266"/>
      <use xlink:href="#DejaVuSans-61" x="576.798828"/>
      <use xlink:href="#DejaVuSans-63" x="638.078125"/>
      <use xlink:href="#DejaVuSans-68" x="693.058594"/>
      <use xlink:href="#DejaVuSans-65" x="756.4375"/>
     </g>
    </g>
    <g id="line2d_17">
     <path d="M 477.826563 83.611875 
L 487.826563 83.611875 
L 497.826563 83.611875 
" style="fill: none; stroke: #ff0000; stroke-linecap: square"/>
    </g>
    <g id="text_16">
     <!-- Amikuze -->
     <g transform="translate(505.826563 87.111875) scale(0.1 -0.1)">
      <defs>
       <path id="DejaVuSans-6b" d="M 581 4863 
L 1159 4863 
L 1159 1991 
L 2875 3500 
L 3609 3500 
L 1753 1863 
L 3688 0 
L 2938 0 
L 1159 1709 
L 1159 0 
L 581 0 
L 581 4863 
z
" transform="scale(0.015625)"/>
       <path id="DejaVuSans-7a" d="M 353 3500 
L 3084 3500 
L 3084 2975 
L 922 459 
L 3084 459 
L 3084 0 
L 275 0 
L 275 525 
L 2438 3041 
L 353 3041 
L 353 3500 
z
" transform="scale(0.015625)"/>
      </defs>
      <use xlink:href="#DejaVuSans-41"/>
      <use xlink:href="#DejaVuSans-6d" x="68.408203"/>
      <use xlink:href="#DejaVuSans-69" x="165.820312"/>
      <use xlink:href="#DejaVuSans-6b" x="193.603516"/>
      <use xlink:href="#DejaVuSans-75" x="248.388672"/>
      <use xlink:href="#DejaVuSans-7a" x="311.767578"/>
      <use xlink:href="#DejaVuSans-65" x="364.257812"/>
     </g>
    </g>
    <g id="line2d_18">
     <path d="M 477.826563 98.29 
L 487.826563 98.29 
L 497.826563 98.29 
" style="fill: none; stroke: #0000ff; stroke-linecap: square"/>
    </g>
    <g id="text_17">
     <!-- Pays d'Hasparren -->
     <g transform="translate(505.826563 101.79) scale(0.1 -0.1)">
      <defs>
       <path id="DejaVuSans-27" d="M 1147 4666 
L 1147 2931 
L 616 2931 
L 616 4666 
L 1147 4666 
z
" transform="scale(0.015625)"/>
       <path id="DejaVuSans-48" d="M 628 4666 
L 1259 4666 
L 1259 2753 
L 3553 2753 
L 3553 4666 
L 4184 4666 
L 4184 0 
L 3553 0 
L 3553 2222 
L 1259 2222 
L 1259 0 
L 628 0 
L 628 4666 
z
" transform="scale(0.015625)"/>
      </defs>
      <use xlink:href="#DejaVuSans-50"/>
      <use xlink:href="#DejaVuSans-61" x="55.802734"/>
      <use xlink:href="#DejaVuSans-79" x="117.082031"/>
      <use xlink:href="#DejaVuSans-73" x="176.261719"/>
      <use xlink:href="#DejaVuSans-20" x="228.361328"/>
      <use xlink:href="#DejaVuSans-64" x="260.148438"/>
      <use xlink:href="#DejaVuSans-27" x="323.625"/>
      <use xlink:href="#DejaVuSans-48" x="351.115234"/>
      <use xlink:href="#DejaVuSans-61" x="426.310547"/>
      <use xlink:href="#DejaVuSans-73" x="487.589844"/>
      <use xlink:href="#DejaVuSans-70" x="539.689453"/>
      <use xlink:href="#DejaVuSans-61" x="603.166016"/>
      <use xlink:href="#DejaVuSans-72" x="664.445312"/>
      <use xlink:href="#DejaVuSans-72" x="703.808594"/>
      <use xlink:href="#DejaVuSans-65" x="742.671875"/>
      <use xlink:href="#DejaVuSans-6e" x="804.195312"/>
     </g>
    </g>
   </g>
  </g>
 </g>
 <defs>
  <clipPath id="pb7e3dbbaaf">
   <path d="M 490.704375 262.917187 
C 490.704375 233.795931 484.968122 204.957842 473.8239 178.05331 
C 462.679678 151.148777 446.344213 126.701026 425.752375 106.109188 
C 405.160537 85.51735 380.712786 69.181885 353.808253 58.037662 
C 326.90372 46.89344 298.065631 41.157187 268.944375 41.157187 
C 239.823119 41.157187 210.98503 46.89344 184.080497 58.037662 
C 157.175964 69.181885 132.728213 85.51735 112.136375 106.109188 
C 91.544537 126.701026 75.209072 151.148777 64.06485 178.05331 
C 52.920628 204.957842 47.184375 233.795931 47.184375 262.917187 
C 47.184375 292.038444 52.920628 320.876533 64.06485 347.781065 
C 75.209072 374.685598 91.544537 399.133349 112.136375 419.725187 
C 132.728213 440.317025 157.175964 456.65249 184.080497 467.796713 
C 210.98503 478.940935 239.823119 484.677187 268.944375 484.677187 
C 298.065631 484.677187 326.90372 478.940935 353.808253 467.796713 
C 380.712786 456.65249 405.160537 440.317025 425.752375 419.725187 
C 446.344213 399.133349 462.679678 374.685598 473.8239 347.781065 
C 484.968122 320.876533 490.704375 292.038444 490.704375 262.917187 
M 268.944375 262.917187 
C 268.944375 262.917187 268.944375 262.917187 268.944375 262.917187 
C 268.944375 262.917187 268.944375 262.917187 268.944375 262.917187 
C 268.944375 262.917187 268.944375 262.917187 268.944375 262.917187 
C 268.944375 262.917187 268.944375 262.917187 268.944375 262.917187 
C 268.944375 262.917187 268.944375 262.917187 268.944375 262.917187 
C 268.944375 262.917187 268.944375 262.917187 268.944375 262.917187 
C 268.944375 262.917187 268.944375 262.917187 268.944375 262.917187 
C 268.944375 262.917187 268.944375 262.917187 268.944375 262.917187 
C 268.944375 262.917187 268.944375 262.917187 268.944375 262.917187 
C 268.944375 262.917187 268.944375 262.917187 268.944375 262.917187 
C 268.944375 262.917187 268.944375 262.917187 268.944375 262.917187 
C 268.944375 262.917187 268.944375 262.917187 268.944375 262.917187 
C 268.944375 262.917187 268.944375 262.917187 268.944375 262.917187 
C 268.944375 262.917187 268.944375 262.917187 268.944375 262.917187 
C 268.944375 262.917187 268.944375 262.917187 268.944375 262.917187 
C 268.944375 262.917187 268.944375 262.917187 268.944375 262.917187 
z
"/>
  </clipPath>
 </defs>
</svg>
