<?xml version="1.0" encoding="utf-8" standalone="no"?>
<!DOCTYPE svg PUBLIC "-//W3C//DTD SVG 1.1//EN"
  "http://www.w3.org/Graphics/SVG/1.1/DTD/svg11.dtd">
<svg xmlns:xlink="http://www.w3.org/1999/xlink" width="603.784375pt" height="510.71625pt" viewBox="0 0 603.784375 510.71625" xmlns="http://www.w3.org/2000/svg" version="1.1">
 <metadata>
  <rdf:RDF xmlns:dc="http://purl.org/dc/elements/1.1/" xmlns:cc="http://creativecommons.org/ns#" xmlns:rdf="http://www.w3.org/1999/02/22-rdf-syntax-ns#">
   <cc:Work>
    <dc:type rdf:resource="http://purl.org/dc/dcmitype/StillImage"/>
    <dc:date>2023-06-26T14:55:18.565090</dc:date>
    <dc:format>image/svg+xml</dc:format>
    <dc:creator>
     <cc:Agent>
      <dc:title>Matplotlib v3.7.1, https://matplotlib.org/</dc:title>
     </cc:Agent>
    </dc:creator>
   </cc:Work>
  </rdf:RDF>
 </metadata>
 <defs>
  <style type="text/css">*{stroke-linejoin: round; stroke-linecap: butt}</style>
 </defs>
 <g id="figure_1">
  <g id="patch_1">
   <path d="M 0 510.71625 
L 603.784375 510.71625 
L 603.784375 0 
L 0 0 
z
" style="fill: #ffffff"/>
  </g>
  <g id="axes_1">
   <g id="patch_2">
    <path d="M 490.704375 262.917187 
C 490.704375 233.795931 484.968122 204.957842 473.8239 178.05331 
C 462.679678 151.148777 446.344213 126.701026 425.752375 106.109188 
C 405.160537 85.51735 380.712786 69.181885 353.808253 58.037662 
C 326.90372 46.89344 298.065631 41.157187 268.944375 41.157187 
C 239.823119 41.157187 210.98503 46.89344 184.080497 58.037662 
C 157.175964 69.181885 132.728213 85.51735 112.136375 106.109188 
C 91.544537 126.701026 75.209072 151.148777 64.06485 178.05331 
C 52.920628 204.957842 47.184375 233.795931 47.184375 262.917187 
C 47.184375 292.038444 52.920628 320.876533 64.06485 347.781065 
C 75.209072 374.685598 91.544537 399.133349 112.136375 419.725187 
C 132.728213 440.317025 157.175964 456.65249 184.080497 467.796713 
C 210.98503 478.940935 239.823119 484.677187 268.944375 484.677187 
C 298.065631 484.677187 326.90372 478.940935 353.808253 467.796713 
C 380.712786 456.65249 405.160537 440.317025 425.752375 419.725187 
C 446.344213 399.133349 462.679678 374.685598 473.8239 347.781065 
C 484.968122 320.876533 490.704375 292.038444 490.704375 262.917188 
M 268.944375 262.917187 
C 268.944375 262.917187 268.944375 262.917187 268.944375 262.917187 
C 268.944375 262.917187 268.944375 262.917187 268.944375 262.917187 
C 268.944375 262.917187 268.944375 262.917187 268.944375 262.917187 
C 268.944375 262.917187 268.944375 262.917187 268.944375 262.917187 
C 268.944375 262.917187 268.944375 262.917187 268.944375 262.917187 
C 268.944375 262.917187 268.944375 262.917187 268.944375 262.917187 
C 268.944375 262.917187 268.944375 262.917187 268.944375 262.917187 
C 268.944375 262.917187 268.944375 262.917187 268.944375 262.917187 
C 268.944375 262.917187 268.944375 262.917187 268.944375 262.917187 
C 268.944375 262.917187 268.944375 262.917187 268.944375 262.917187 
C 268.944375 262.917187 268.944375 262.917187 268.944375 262.917187 
C 268.944375 262.917187 268.944375 262.917187 268.944375 262.917187 
C 268.944375 262.917187 268.944375 262.917187 268.944375 262.917187 
C 268.944375 262.917187 268.944375 262.917187 268.944375 262.917187 
C 268.944375 262.917187 268.944375 262.917187 268.944375 262.917187 
C 268.944375 262.917187 268.944375 262.917187 268.944375 262.917187 
z
" style="fill: #ffffff"/>
   </g>
   <g id="patch_3">
    <path d="M 279.024375 262.917187 
L 268.944375 230.590167 
L 216.289019 262.917187 
L 268.944375 308.142562 
z
" clip-path="url(#pcc0f1c256a)" style="fill: #008000; opacity: 0.5; stroke: #008000; stroke-linejoin: miter"/>
   </g>
   <g id="patch_4">
    <path d="M 300.525481 262.917187 
L 268.944375 247.627947 
L 191.220964 262.917187 
L 268.944375 474.597187 
z
" clip-path="url(#pcc0f1c256a)" style="fill: #ff0000; opacity: 0.5; stroke: #ff0000; stroke-linejoin: miter"/>
   </g>
   <g id="patch_5">
    <path d="M 302.339672 262.917187 
L 268.944375 246.449833 
L 202.60112 262.917187 
L 268.944375 466.997612 
z
" clip-path="url(#pcc0f1c256a)" style="fill: #0000ff; opacity: 0.5; stroke: #0000ff; stroke-linejoin: miter"/>
   </g>
   <g id="matplotlib.axis_1">
    <g id="xtick_1">
     <g id="line2d_1">
      <path d="M 268.944375 262.917187 
L 490.704375 262.917187 
" clip-path="url(#pcc0f1c256a)" style="fill: none; stroke: #b0b0b0; stroke-width: 0.8; stroke-linecap: square"/>
     </g>
     <g id="text_1">
      <!-- microexploitations -->
      <g transform="translate(458.527031 265.676562) scale(0.1 -0.1)">
       <defs>
        <path id="DejaVuSans-6d" d="M 3328 2828 
Q 3544 3216 3844 3400 
Q 4144 3584 4550 3584 
Q 5097 3584 5394 3201 
Q 5691 2819 5691 2113 
L 5691 0 
L 5113 0 
L 5113 2094 
Q 5113 2597 4934 2840 
Q 4756 3084 4391 3084 
Q 3944 3084 3684 2787 
Q 3425 2491 3425 1978 
L 3425 0 
L 2847 0 
L 2847 2094 
Q 2847 2600 2669 2842 
Q 2491 3084 2119 3084 
Q 1678 3084 1418 2786 
Q 1159 2488 1159 1978 
L 1159 0 
L 581 0 
L 581 3500 
L 1159 3500 
L 1159 2956 
Q 1356 3278 1631 3431 
Q 1906 3584 2284 3584 
Q 2666 3584 2933 3390 
Q 3200 3197 3328 2828 
z
" transform="scale(0.015625)"/>
        <path id="DejaVuSans-69" d="M 603 3500 
L 1178 3500 
L 1178 0 
L 603 0 
L 603 3500 
z
M 603 4863 
L 1178 4863 
L 1178 4134 
L 603 4134 
L 603 4863 
z
" transform="scale(0.015625)"/>
        <path id="DejaVuSans-63" d="M 3122 3366 
L 3122 2828 
Q 2878 2963 2633 3030 
Q 2388 3097 2138 3097 
Q 1578 3097 1268 2742 
Q 959 2388 959 1747 
Q 959 1106 1268 751 
Q 1578 397 2138 397 
Q 2388 397 2633 464 
Q 2878 531 3122 666 
L 3122 134 
Q 2881 22 2623 -34 
Q 2366 -91 2075 -91 
Q 1284 -91 818 406 
Q 353 903 353 1747 
Q 353 2603 823 3093 
Q 1294 3584 2113 3584 
Q 2378 3584 2631 3529 
Q 2884 3475 3122 3366 
z
" transform="scale(0.015625)"/>
        <path id="DejaVuSans-72" d="M 2631 2963 
Q 2534 3019 2420 3045 
Q 2306 3072 2169 3072 
Q 1681 3072 1420 2755 
Q 1159 2438 1159 1844 
L 1159 0 
L 581 0 
L 581 3500 
L 1159 3500 
L 1159 2956 
Q 1341 3275 1631 3429 
Q 1922 3584 2338 3584 
Q 2397 3584 2469 3576 
Q 2541 3569 2628 3553 
L 2631 2963 
z
" transform="scale(0.015625)"/>
        <path id="DejaVuSans-6f" d="M 1959 3097 
Q 1497 3097 1228 2736 
Q 959 2375 959 1747 
Q 959 1119 1226 758 
Q 1494 397 1959 397 
Q 2419 397 2687 759 
Q 2956 1122 2956 1747 
Q 2956 2369 2687 2733 
Q 2419 3097 1959 3097 
z
M 1959 3584 
Q 2709 3584 3137 3096 
Q 3566 2609 3566 1747 
Q 3566 888 3137 398 
Q 2709 -91 1959 -91 
Q 1206 -91 779 398 
Q 353 888 353 1747 
Q 353 2609 779 3096 
Q 1206 3584 1959 3584 
z
" transform="scale(0.015625)"/>
        <path id="DejaVuSans-65" d="M 3597 1894 
L 3597 1613 
L 953 1613 
Q 991 1019 1311 708 
Q 1631 397 2203 397 
Q 2534 397 2845 478 
Q 3156 559 3463 722 
L 3463 178 
Q 3153 47 2828 -22 
Q 2503 -91 2169 -91 
Q 1331 -91 842 396 
Q 353 884 353 1716 
Q 353 2575 817 3079 
Q 1281 3584 2069 3584 
Q 2775 3584 3186 3129 
Q 3597 2675 3597 1894 
z
M 3022 2063 
Q 3016 2534 2758 2815 
Q 2500 3097 2075 3097 
Q 1594 3097 1305 2825 
Q 1016 2553 972 2059 
L 3022 2063 
z
" transform="scale(0.015625)"/>
        <path id="DejaVuSans-78" d="M 3513 3500 
L 2247 1797 
L 3578 0 
L 2900 0 
L 1881 1375 
L 863 0 
L 184 0 
L 1544 1831 
L 300 3500 
L 978 3500 
L 1906 2253 
L 2834 3500 
L 3513 3500 
z
" transform="scale(0.015625)"/>
        <path id="DejaVuSans-70" d="M 1159 525 
L 1159 -1331 
L 581 -1331 
L 581 3500 
L 1159 3500 
L 1159 2969 
Q 1341 3281 1617 3432 
Q 1894 3584 2278 3584 
Q 2916 3584 3314 3078 
Q 3713 2572 3713 1747 
Q 3713 922 3314 415 
Q 2916 -91 2278 -91 
Q 1894 -91 1617 61 
Q 1341 213 1159 525 
z
M 3116 1747 
Q 3116 2381 2855 2742 
Q 2594 3103 2138 3103 
Q 1681 3103 1420 2742 
Q 1159 2381 1159 1747 
Q 1159 1113 1420 752 
Q 1681 391 2138 391 
Q 2594 391 2855 752 
Q 3116 1113 3116 1747 
z
" transform="scale(0.015625)"/>
        <path id="DejaVuSans-6c" d="M 603 4863 
L 1178 4863 
L 1178 0 
L 603 0 
L 603 4863 
z
" transform="scale(0.015625)"/>
        <path id="DejaVuSans-74" d="M 1172 4494 
L 1172 3500 
L 2356 3500 
L 2356 3053 
L 1172 3053 
L 1172 1153 
Q 1172 725 1289 603 
Q 1406 481 1766 481 
L 2356 481 
L 2356 0 
L 1766 0 
Q 1100 0 847 248 
Q 594 497 594 1153 
L 594 3053 
L 172 3053 
L 172 3500 
L 594 3500 
L 594 4494 
L 1172 4494 
z
" transform="scale(0.015625)"/>
        <path id="DejaVuSans-61" d="M 2194 1759 
Q 1497 1759 1228 1600 
Q 959 1441 959 1056 
Q 959 750 1161 570 
Q 1363 391 1709 391 
Q 2188 391 2477 730 
Q 2766 1069 2766 1631 
L 2766 1759 
L 2194 1759 
z
M 3341 1997 
L 3341 0 
L 2766 0 
L 2766 531 
Q 2569 213 2275 61 
Q 1981 -91 1556 -91 
Q 1019 -91 701 211 
Q 384 513 384 1019 
Q 384 1609 779 1909 
Q 1175 2209 1959 2209 
L 2766 2209 
L 2766 2266 
Q 2766 2663 2505 2880 
Q 2244 3097 1772 3097 
Q 1472 3097 1187 3025 
Q 903 2953 641 2809 
L 641 3341 
Q 956 3463 1253 3523 
Q 1550 3584 1831 3584 
Q 2591 3584 2966 3190 
Q 3341 2797 3341 1997 
z
" transform="scale(0.015625)"/>
        <path id="DejaVuSans-6e" d="M 3513 2113 
L 3513 0 
L 2938 0 
L 2938 2094 
Q 2938 2591 2744 2837 
Q 2550 3084 2163 3084 
Q 1697 3084 1428 2787 
Q 1159 2491 1159 1978 
L 1159 0 
L 581 0 
L 581 3500 
L 1159 3500 
L 1159 2956 
Q 1366 3272 1645 3428 
Q 1925 3584 2291 3584 
Q 2894 3584 3203 3211 
Q 3513 2838 3513 2113 
z
" transform="scale(0.015625)"/>
        <path id="DejaVuSans-73" d="M 2834 3397 
L 2834 2853 
Q 2591 2978 2328 3040 
Q 2066 3103 1784 3103 
Q 1356 3103 1142 2972 
Q 928 2841 928 2578 
Q 928 2378 1081 2264 
Q 1234 2150 1697 2047 
L 1894 2003 
Q 2506 1872 2764 1633 
Q 3022 1394 3022 966 
Q 3022 478 2636 193 
Q 2250 -91 1575 -91 
Q 1294 -91 989 -36 
Q 684 19 347 128 
L 347 722 
Q 666 556 975 473 
Q 1284 391 1588 391 
Q 1994 391 2212 530 
Q 2431 669 2431 922 
Q 2431 1156 2273 1281 
Q 2116 1406 1581 1522 
L 1381 1569 
Q 847 1681 609 1914 
Q 372 2147 372 2553 
Q 372 3047 722 3315 
Q 1072 3584 1716 3584 
Q 2034 3584 2315 3537 
Q 2597 3491 2834 3397 
z
" transform="scale(0.015625)"/>
       </defs>
       <use xlink:href="#DejaVuSans-6d"/>
       <use xlink:href="#DejaVuSans-69" x="97.412109"/>
       <use xlink:href="#DejaVuSans-63" x="125.195312"/>
       <use xlink:href="#DejaVuSans-72" x="180.175781"/>
       <use xlink:href="#DejaVuSans-6f" x="219.039062"/>
       <use xlink:href="#DejaVuSans-65" x="280.220703"/>
       <use xlink:href="#DejaVuSans-78" x="339.994141"/>
       <use xlink:href="#DejaVuSans-70" x="399.173828"/>
       <use xlink:href="#DejaVuSans-6c" x="462.650391"/>
       <use xlink:href="#DejaVuSans-6f" x="490.433594"/>
       <use xlink:href="#DejaVuSans-69" x="551.615234"/>
       <use xlink:href="#DejaVuSans-74" x="579.398438"/>
       <use xlink:href="#DejaVuSans-61" x="618.607422"/>
       <use xlink:href="#DejaVuSans-74" x="679.886719"/>
       <use xlink:href="#DejaVuSans-69" x="719.095703"/>
       <use xlink:href="#DejaVuSans-6f" x="746.878906"/>
       <use xlink:href="#DejaVuSans-6e" x="808.060547"/>
       <use xlink:href="#DejaVuSans-73" x="871.439453"/>
      </g>
     </g>
    </g>
    <g id="xtick_2">
     <g id="line2d_2">
      <path d="M 268.944375 262.917187 
L 268.944375 41.157187 
" clip-path="url(#pcc0f1c256a)" style="fill: none; stroke: #b0b0b0; stroke-width: 0.8; stroke-linecap: square"/>
     </g>
     <g id="text_2">
      <!-- petites -->
      <g transform="translate(251.702969 29.916562) scale(0.1 -0.1)">
       <use xlink:href="#DejaVuSans-70"/>
       <use xlink:href="#DejaVuSans-65" x="63.476562"/>
       <use xlink:href="#DejaVuSans-74" x="125"/>
       <use xlink:href="#DejaVuSans-69" x="164.208984"/>
       <use xlink:href="#DejaVuSans-74" x="191.992188"/>
       <use xlink:href="#DejaVuSans-65" x="231.201172"/>
       <use xlink:href="#DejaVuSans-73" x="292.724609"/>
      </g>
     </g>
    </g>
    <g id="xtick_3">
     <g id="line2d_3">
      <path d="M 268.944375 262.917187 
L 47.184375 262.917187 
" clip-path="url(#pcc0f1c256a)" style="fill: none; stroke: #b0b0b0; stroke-width: 0.8; stroke-linecap: square"/>
     </g>
     <g id="text_3">
      <!-- moyennes -->
      <g transform="translate(7.2 265.676562) scale(0.1 -0.1)">
       <defs>
        <path id="DejaVuSans-79" d="M 2059 -325 
Q 1816 -950 1584 -1140 
Q 1353 -1331 966 -1331 
L 506 -1331 
L 506 -850 
L 844 -850 
Q 1081 -850 1212 -737 
Q 1344 -625 1503 -206 
L 1606 56 
L 191 3500 
L 800 3500 
L 1894 763 
L 2988 3500 
L 3597 3500 
L 2059 -325 
z
" transform="scale(0.015625)"/>
       </defs>
       <use xlink:href="#DejaVuSans-6d"/>
       <use xlink:href="#DejaVuSans-6f" x="97.412109"/>
       <use xlink:href="#DejaVuSans-79" x="158.59375"/>
       <use xlink:href="#DejaVuSans-65" x="217.773438"/>
       <use xlink:href="#DejaVuSans-6e" x="279.296875"/>
       <use xlink:href="#DejaVuSans-6e" x="342.675781"/>
       <use xlink:href="#DejaVuSans-65" x="406.054688"/>
       <use xlink:href="#DejaVuSans-73" x="467.578125"/>
      </g>
     </g>
    </g>
    <g id="xtick_4">
     <g id="line2d_4">
      <path d="M 268.944375 262.917187 
L 268.944375 484.677187 
" clip-path="url(#pcc0f1c256a)" style="fill: none; stroke: #b0b0b0; stroke-width: 0.8; stroke-linecap: square"/>
     </g>
     <g id="text_4">
      <!-- grandes -->
      <g transform="translate(248.626406 501.436562) scale(0.1 -0.1)">
       <defs>
        <path id="DejaVuSans-67" d="M 2906 1791 
Q 2906 2416 2648 2759 
Q 2391 3103 1925 3103 
Q 1463 3103 1205 2759 
Q 947 2416 947 1791 
Q 947 1169 1205 825 
Q 1463 481 1925 481 
Q 2391 481 2648 825 
Q 2906 1169 2906 1791 
z
M 3481 434 
Q 3481 -459 3084 -895 
Q 2688 -1331 1869 -1331 
Q 1566 -1331 1297 -1286 
Q 1028 -1241 775 -1147 
L 775 -588 
Q 1028 -725 1275 -790 
Q 1522 -856 1778 -856 
Q 2344 -856 2625 -561 
Q 2906 -266 2906 331 
L 2906 616 
Q 2728 306 2450 153 
Q 2172 0 1784 0 
Q 1141 0 747 490 
Q 353 981 353 1791 
Q 353 2603 747 3093 
Q 1141 3584 1784 3584 
Q 2172 3584 2450 3431 
Q 2728 3278 2906 2969 
L 2906 3500 
L 3481 3500 
L 3481 434 
z
" transform="scale(0.015625)"/>
        <path id="DejaVuSans-64" d="M 2906 2969 
L 2906 4863 
L 3481 4863 
L 3481 0 
L 2906 0 
L 2906 525 
Q 2725 213 2448 61 
Q 2172 -91 1784 -91 
Q 1150 -91 751 415 
Q 353 922 353 1747 
Q 353 2572 751 3078 
Q 1150 3584 1784 3584 
Q 2172 3584 2448 3432 
Q 2725 3281 2906 2969 
z
M 947 1747 
Q 947 1113 1208 752 
Q 1469 391 1925 391 
Q 2381 391 2643 752 
Q 2906 1113 2906 1747 
Q 2906 2381 2643 2742 
Q 2381 3103 1925 3103 
Q 1469 3103 1208 2742 
Q 947 2381 947 1747 
z
" transform="scale(0.015625)"/>
       </defs>
       <use xlink:href="#DejaVuSans-67"/>
       <use xlink:href="#DejaVuSans-72" x="63.476562"/>
       <use xlink:href="#DejaVuSans-61" x="104.589844"/>
       <use xlink:href="#DejaVuSans-6e" x="165.869141"/>
       <use xlink:href="#DejaVuSans-64" x="229.248047"/>
       <use xlink:href="#DejaVuSans-65" x="292.724609"/>
       <use xlink:href="#DejaVuSans-73" x="354.248047"/>
      </g>
     </g>
    </g>
   </g>
   <g id="matplotlib.axis_2">
    <g id="ytick_1">
     <g id="line2d_5">
      <path d="M 279.056181 262.917187 
C 279.056181 261.589317 278.79462 260.274359 278.286466 259.047567 
C 277.778312 257.820775 277.033448 256.706007 276.094502 255.767061 
C 275.155556 254.828115 274.040788 254.08325 272.813996 253.575097 
C 271.587204 253.066943 270.272245 252.805381 268.944375 252.805381 
C 267.616505 252.805381 266.301546 253.066943 265.074754 253.575097 
C 263.847962 254.08325 262.733194 254.828115 261.794248 255.767061 
C 260.855302 256.706007 260.110438 257.820775 259.602284 259.047567 
C 259.09413 260.274359 258.832569 261.589317 258.832569 262.917187 
C 258.832569 264.245058 259.09413 265.560016 259.602284 266.786808 
C 260.110438 268.0136 260.855302 269.128368 261.794248 270.067314 
C 262.733194 271.00626 263.847962 271.751125 265.074754 272.259278 
C 266.301546 272.767432 267.616505 273.028994 268.944375 273.028994 
C 270.272245 273.028994 271.587204 272.767432 272.813996 272.259278 
C 274.040788 271.751125 275.155556 271.00626 276.094502 270.067314 
C 277.033448 269.128368 277.778312 268.0136 278.286466 266.786808 
C 278.79462 265.560016 279.056181 264.245058 279.056181 262.917187 
" clip-path="url(#pcc0f1c256a)" style="fill: none; stroke: #b0b0b0; stroke-width: 0.8; stroke-linecap: square"/>
     </g>
     <g id="text_5">
      <!-- −0.25 -->
      <g transform="translate(278.286466 256.967879) scale(0.1 -0.1)">
       <defs>
        <path id="DejaVuSans-2212" d="M 678 2272 
L 4684 2272 
L 4684 1741 
L 678 1741 
L 678 2272 
z
" transform="scale(0.015625)"/>
        <path id="DejaVuSans-30" d="M 2034 4250 
Q 1547 4250 1301 3770 
Q 1056 3291 1056 2328 
Q 1056 1369 1301 889 
Q 1547 409 2034 409 
Q 2525 409 2770 889 
Q 3016 1369 3016 2328 
Q 3016 3291 2770 3770 
Q 2525 4250 2034 4250 
z
M 2034 4750 
Q 2819 4750 3233 4129 
Q 3647 3509 3647 2328 
Q 3647 1150 3233 529 
Q 2819 -91 2034 -91 
Q 1250 -91 836 529 
Q 422 1150 422 2328 
Q 422 3509 836 4129 
Q 1250 4750 2034 4750 
z
" transform="scale(0.015625)"/>
        <path id="DejaVuSans-2e" d="M 684 794 
L 1344 794 
L 1344 0 
L 684 0 
L 684 794 
z
" transform="scale(0.015625)"/>
        <path id="DejaVuSans-32" d="M 1228 531 
L 3431 531 
L 3431 0 
L 469 0 
L 469 531 
Q 828 903 1448 1529 
Q 2069 2156 2228 2338 
Q 2531 2678 2651 2914 
Q 2772 3150 2772 3378 
Q 2772 3750 2511 3984 
Q 2250 4219 1831 4219 
Q 1534 4219 1204 4116 
Q 875 4013 500 3803 
L 500 4441 
Q 881 4594 1212 4672 
Q 1544 4750 1819 4750 
Q 2544 4750 2975 4387 
Q 3406 4025 3406 3419 
Q 3406 3131 3298 2873 
Q 3191 2616 2906 2266 
Q 2828 2175 2409 1742 
Q 1991 1309 1228 531 
z
" transform="scale(0.015625)"/>
        <path id="DejaVuSans-35" d="M 691 4666 
L 3169 4666 
L 3169 4134 
L 1269 4134 
L 1269 2991 
Q 1406 3038 1543 3061 
Q 1681 3084 1819 3084 
Q 2600 3084 3056 2656 
Q 3513 2228 3513 1497 
Q 3513 744 3044 326 
Q 2575 -91 1722 -91 
Q 1428 -91 1123 -41 
Q 819 9 494 109 
L 494 744 
Q 775 591 1075 516 
Q 1375 441 1709 441 
Q 2250 441 2565 725 
Q 2881 1009 2881 1497 
Q 2881 1984 2565 2268 
Q 2250 2553 1709 2553 
Q 1456 2553 1204 2497 
Q 953 2441 691 2322 
L 691 4666 
z
" transform="scale(0.015625)"/>
       </defs>
       <use xlink:href="#DejaVuSans-2212"/>
       <use xlink:href="#DejaVuSans-30" x="83.789062"/>
       <use xlink:href="#DejaVuSans-2e" x="147.412109"/>
       <use xlink:href="#DejaVuSans-32" x="179.199219"/>
       <use xlink:href="#DejaVuSans-35" x="242.822266"/>
      </g>
     </g>
    </g>
    <g id="ytick_2">
     <g id="line2d_6">
      <path d="M 307.263864 262.917187 
C 307.263864 257.885118 306.272656 252.90198 304.346966 248.252954 
C 302.421277 243.603928 299.598555 239.379427 296.040345 235.821217 
C 292.482135 232.263007 288.257634 229.440286 283.608608 227.514596 
C 278.959583 225.588907 273.976444 224.597699 268.944375 224.597699 
C 263.912306 224.597699 258.929167 225.588907 254.280142 227.514596 
C 249.631116 229.440286 245.406615 232.263007 241.848405 235.821217 
C 238.290195 239.379427 235.467473 243.603928 233.541784 248.252954 
C 231.616094 252.90198 230.624886 257.885118 230.624886 262.917187 
C 230.624886 267.949257 231.616094 272.932395 233.541784 277.581421 
C 235.467473 282.230447 238.290195 286.454948 241.848405 290.013158 
C 245.406615 293.571368 249.631116 296.394089 254.280142 298.319779 
C 258.929167 300.245468 263.912306 301.236676 268.944375 301.236676 
C 273.976444 301.236676 278.959583 300.245468 283.608608 298.319779 
C 288.257634 296.394089 292.482135 293.571368 296.040345 290.013158 
C 299.598555 286.454948 302.421277 282.230447 304.346966 277.581421 
C 306.272656 272.932395 307.263864 267.949257 307.263864 262.917187 
" clip-path="url(#pcc0f1c256a)" style="fill: none; stroke: #b0b0b0; stroke-width: 0.8; stroke-linecap: square"/>
     </g>
     <g id="text_6">
      <!-- 0.00 -->
      <g transform="translate(304.346966 246.173267) scale(0.1 -0.1)">
       <use xlink:href="#DejaVuSans-30"/>
       <use xlink:href="#DejaVuSans-2e" x="63.623047"/>
       <use xlink:href="#DejaVuSans-30" x="95.410156"/>
       <use xlink:href="#DejaVuSans-30" x="159.033203"/>
      </g>
     </g>
    </g>
    <g id="ytick_3">
     <g id="line2d_7">
      <path d="M 335.471546 262.917187 
C 335.471546 254.180919 333.750691 245.529601 330.407466 237.458341 
C 327.064241 229.387082 322.163663 222.052848 315.986189 215.875374 
C 309.808714 209.6979 302.47448 204.797321 294.403221 201.454096 
C 286.331962 198.110871 277.680643 196.390017 268.944375 196.390017 
C 260.208107 196.390017 251.556788 198.110871 243.485529 201.454096 
C 235.41427 204.797321 228.080036 209.6979 221.902561 215.875374 
C 215.725087 222.052848 210.824509 229.387082 207.481284 237.458341 
C 204.138059 245.529601 202.417204 254.180919 202.417204 262.917187 
C 202.417204 271.653456 204.138059 280.304774 207.481284 288.376034 
C 210.824509 296.447293 215.725087 303.781527 221.902561 309.959001 
C 228.080036 316.136475 235.41427 321.037054 243.485529 324.380279 
C 251.556788 327.723504 260.208107 329.444358 268.944375 329.444358 
C 277.680643 329.444358 286.331962 327.723504 294.403221 324.380279 
C 302.47448 321.037054 309.808714 316.136475 315.986189 309.959001 
C 322.163663 303.781527 327.064241 296.447293 330.407466 288.376034 
C 333.750691 280.304774 335.471546 271.653456 335.471546 262.917187 
" clip-path="url(#pcc0f1c256a)" style="fill: none; stroke: #b0b0b0; stroke-width: 0.8; stroke-linecap: square"/>
     </g>
     <g id="text_7">
      <!-- 0.25 -->
      <g transform="translate(330.407466 235.378654) scale(0.1 -0.1)">
       <use xlink:href="#DejaVuSans-30"/>
       <use xlink:href="#DejaVuSans-2e" x="63.623047"/>
       <use xlink:href="#DejaVuSans-32" x="95.410156"/>
       <use xlink:href="#DejaVuSans-35" x="159.033203"/>
      </g>
     </g>
    </g>
    <g id="ytick_4">
     <g id="line2d_8">
      <path d="M 363.679228 262.917187 
C 363.679228 250.476721 361.228727 238.157222 356.467967 226.663729 
C 351.707206 215.170236 344.72877 204.726269 335.932032 195.929531 
C 327.135293 187.132792 316.691326 180.154356 305.197834 175.393596 
C 293.704341 170.632835 281.384842 168.182335 268.944375 168.182335 
C 256.503908 168.182335 244.184409 170.632835 232.690916 175.393596 
C 221.197424 180.154356 210.753457 187.132792 201.956718 195.929531 
C 193.15998 204.726269 186.181544 215.170236 181.420783 226.663729 
C 176.660023 238.157222 174.209522 250.476721 174.209522 262.917187 
C 174.209522 275.357654 176.660023 287.677153 181.420783 299.170646 
C 186.181544 310.664139 193.15998 321.108106 201.956718 329.904844 
C 210.753457 338.701583 221.197424 345.680019 232.690916 350.440779 
C 244.184409 355.20154 256.503908 357.65204 268.944375 357.65204 
C 281.384842 357.65204 293.704341 355.20154 305.197834 350.440779 
C 316.691326 345.680019 327.135293 338.701583 335.932032 329.904844 
C 344.72877 321.108106 351.707206 310.664139 356.467967 299.170646 
C 361.228727 287.677153 363.679228 275.357654 363.679228 262.917187 
" clip-path="url(#pcc0f1c256a)" style="fill: none; stroke: #b0b0b0; stroke-width: 0.8; stroke-linecap: square"/>
     </g>
     <g id="text_8">
      <!-- 0.50 -->
      <g transform="translate(356.467967 224.584041) scale(0.1 -0.1)">
       <use xlink:href="#DejaVuSans-30"/>
       <use xlink:href="#DejaVuSans-2e" x="63.623047"/>
       <use xlink:href="#DejaVuSans-35" x="95.410156"/>
       <use xlink:href="#DejaVuSans-30" x="159.033203"/>
      </g>
     </g>
    </g>
    <g id="ytick_5">
     <g id="line2d_9">
      <path d="M 391.88691 262.917187 
C 391.88691 246.772522 388.706763 230.784842 382.528467 215.869116 
C 376.350171 200.95339 367.293878 187.39969 355.877875 175.983687 
C 344.461873 164.567685 330.908173 155.511392 315.992446 149.333096 
C 301.07672 143.1548 285.089041 139.974652 268.944375 139.974652 
C 252.799709 139.974652 236.81203 143.1548 221.896304 149.333096 
C 206.980577 155.511392 193.426877 164.567685 182.010875 175.983687 
C 170.594872 187.39969 161.538579 200.95339 155.360283 215.869116 
C 149.181987 230.784842 146.00184 246.772522 146.00184 262.917187 
C 146.00184 279.061853 149.181987 295.049533 155.360283 309.965259 
C 161.538579 324.880985 170.594872 338.434685 182.010875 349.850688 
C 193.426877 361.26669 206.980577 370.322983 221.896304 376.501279 
C 236.81203 382.679575 252.799709 385.859723 268.944375 385.859723 
C 285.089041 385.859723 301.07672 382.679575 315.992446 376.501279 
C 330.908173 370.322983 344.461873 361.26669 355.877875 349.850688 
C 367.293878 338.434685 376.350171 324.880985 382.528467 309.965259 
C 388.706763 295.049533 391.88691 279.061853 391.88691 262.917188 
" clip-path="url(#pcc0f1c256a)" style="fill: none; stroke: #b0b0b0; stroke-width: 0.8; stroke-linecap: square"/>
     </g>
     <g id="text_9">
      <!-- 0.75 -->
      <g transform="translate(382.528467 213.789429) scale(0.1 -0.1)">
       <defs>
        <path id="DejaVuSans-37" d="M 525 4666 
L 3525 4666 
L 3525 4397 
L 1831 0 
L 1172 0 
L 2766 4134 
L 525 4134 
L 525 4666 
z
" transform="scale(0.015625)"/>
       </defs>
       <use xlink:href="#DejaVuSans-30"/>
       <use xlink:href="#DejaVuSans-2e" x="63.623047"/>
       <use xlink:href="#DejaVuSans-37" x="95.410156"/>
       <use xlink:href="#DejaVuSans-35" x="159.033203"/>
      </g>
     </g>
    </g>
    <g id="ytick_6">
     <g id="line2d_10">
      <path d="M 420.094592 262.917187 
C 420.094592 243.068323 416.184799 223.412463 408.588967 205.074504 
C 400.993135 186.736544 389.858985 170.073111 375.823719 156.037844 
C 361.788452 142.002577 345.125019 130.868427 326.787059 123.272595 
C 308.449099 115.676764 288.79324 111.76697 268.944375 111.76697 
C 249.09551 111.76697 229.439651 115.676764 211.101691 123.272595 
C 192.763731 130.868427 176.100298 142.002577 162.065031 156.037844 
C 148.029765 170.073111 136.895615 186.736544 129.299783 205.074504 
C 121.703951 223.412463 117.794158 243.068323 117.794158 262.917187 
C 117.794158 282.766052 121.703951 302.421912 129.299783 320.759871 
C 136.895615 339.097831 148.029765 355.761264 162.065031 369.796531 
C 176.100298 383.831798 192.763731 394.965948 211.101691 402.56178 
C 229.439651 410.157611 249.09551 414.067405 268.944375 414.067405 
C 288.79324 414.067405 308.449099 410.157611 326.787059 402.56178 
C 345.125019 394.965948 361.788452 383.831798 375.823719 369.796531 
C 389.858985 355.761264 400.993135 339.097831 408.588967 320.759871 
C 416.184799 302.421912 420.094592 282.766052 420.094592 262.917188 
" clip-path="url(#pcc0f1c256a)" style="fill: none; stroke: #b0b0b0; stroke-width: 0.8; stroke-linecap: square"/>
     </g>
     <g id="text_10">
      <!-- 1.00 -->
      <g transform="translate(408.588967 202.994816) scale(0.1 -0.1)">
       <defs>
        <path id="DejaVuSans-31" d="M 794 531 
L 1825 531 
L 1825 4091 
L 703 3866 
L 703 4441 
L 1819 4666 
L 2450 4666 
L 2450 531 
L 3481 531 
L 3481 0 
L 794 0 
L 794 531 
z
" transform="scale(0.015625)"/>
       </defs>
       <use xlink:href="#DejaVuSans-31"/>
       <use xlink:href="#DejaVuSans-2e" x="63.623047"/>
       <use xlink:href="#DejaVuSans-30" x="95.410156"/>
       <use xlink:href="#DejaVuSans-30" x="159.033203"/>
      </g>
     </g>
    </g>
    <g id="ytick_7">
     <g id="line2d_11">
      <path d="M 448.302274 262.917187 
C 448.302274 239.364124 443.662834 216.040084 434.649467 194.279891 
C 425.6361 172.519698 412.424093 152.746532 395.769562 136.092001 
C 379.115031 119.43747 359.341865 106.225462 337.581672 97.212095 
C 315.821478 88.198728 292.497439 83.559288 268.944375 83.559288 
C 245.391311 83.559288 222.067272 88.198728 200.307078 97.212095 
C 178.546885 106.225462 158.773719 119.43747 142.119188 136.092001 
C 125.464657 152.746532 112.25265 172.519698 103.239283 194.279891 
C 94.225916 216.040084 89.586476 239.364124 89.586476 262.917187 
C 89.586476 286.470251 94.225916 309.794291 103.239283 331.554484 
C 112.25265 353.314677 125.464657 373.087843 142.119188 389.742374 
C 158.773719 406.396905 178.546885 419.608913 200.307078 428.62228 
C 222.067272 437.635647 245.391311 442.275087 268.944375 442.275087 
C 292.497439 442.275087 315.821478 437.635647 337.581672 428.62228 
C 359.341865 419.608913 379.115031 406.396905 395.769562 389.742374 
C 412.424093 373.087843 425.6361 353.314677 434.649467 331.554484 
C 443.662834 309.794291 448.302274 286.470251 448.302274 262.917188 
" clip-path="url(#pcc0f1c256a)" style="fill: none; stroke: #b0b0b0; stroke-width: 0.8; stroke-linecap: square"/>
     </g>
     <g id="text_11">
      <!-- 1.25 -->
      <g transform="translate(434.649467 192.200203) scale(0.1 -0.1)">
       <use xlink:href="#DejaVuSans-31"/>
       <use xlink:href="#DejaVuSans-2e" x="63.623047"/>
       <use xlink:href="#DejaVuSans-32" x="95.410156"/>
       <use xlink:href="#DejaVuSans-35" x="159.033203"/>
      </g>
     </g>
    </g>
    <g id="ytick_8">
     <g id="line2d_12">
      <path d="M 476.509957 262.917187 
C 476.509957 235.659925 471.14087 208.667705 460.709968 183.485278 
C 450.279065 158.302851 434.9892 135.419952 415.715405 116.146157 
C 396.44161 96.872362 373.558711 81.582498 348.376284 71.151595 
C 323.193857 60.720692 296.201637 55.351606 268.944375 55.351606 
C 241.687113 55.351606 214.694893 60.720692 189.512466 71.151595 
C 164.330039 81.582498 141.44714 96.872362 122.173345 116.146157 
C 102.89955 135.419952 87.609685 158.302851 77.178782 183.485278 
C 66.74788 208.667705 61.378793 235.659925 61.378793 262.917187 
C 61.378793 290.17445 66.74788 317.16667 77.178782 342.349097 
C 87.609685 367.531524 102.89955 390.414423 122.173345 409.688218 
C 141.44714 428.962013 164.330039 444.251877 189.512466 454.68278 
C 214.694893 465.113683 241.687113 470.482769 268.944375 470.482769 
C 296.201637 470.482769 323.193857 465.113683 348.376284 454.68278 
C 373.558711 444.251877 396.44161 428.962013 415.715405 409.688218 
C 434.9892 390.414423 450.279065 367.531524 460.709968 342.349097 
C 471.14087 317.16667 476.509957 290.17445 476.509957 262.917188 
" clip-path="url(#pcc0f1c256a)" style="fill: none; stroke: #b0b0b0; stroke-width: 0.8; stroke-linecap: square"/>
     </g>
     <g id="text_12">
      <!-- 1.50 -->
      <g transform="translate(460.709968 181.405591) scale(0.1 -0.1)">
       <use xlink:href="#DejaVuSans-31"/>
       <use xlink:href="#DejaVuSans-2e" x="63.623047"/>
       <use xlink:href="#DejaVuSans-35" x="95.410156"/>
       <use xlink:href="#DejaVuSans-30" x="159.033203"/>
      </g>
     </g>
    </g>
   </g>
   <g id="line2d_13">
    <path d="M 279.024375 262.917187 
L 268.944375 230.590167 
L 216.289019 262.917187 
L 268.944375 308.142562 
L 279.024375 262.917187 
" clip-path="url(#pcc0f1c256a)" style="fill: none; stroke: #008000; stroke-linecap: square"/>
   </g>
   <g id="line2d_14">
    <path d="M 300.525481 262.917187 
L 268.944375 247.627947 
L 191.220964 262.917187 
L 268.944375 474.597187 
L 300.525481 262.917187 
" clip-path="url(#pcc0f1c256a)" style="fill: none; stroke: #ff0000; stroke-linecap: square"/>
   </g>
   <g id="line2d_15">
    <path d="M 302.339672 262.917187 
L 268.944375 246.449833 
L 202.60112 262.917187 
L 268.944375 466.997612 
L 302.339672 262.917187 
" clip-path="url(#pcc0f1c256a)" style="fill: none; stroke: #0000ff; stroke-linecap: square"/>
   </g>
   <g id="patch_6">
    <path d="M 490.704375 262.917187 
C 490.704375 233.795931 484.968122 204.957842 473.8239 178.05331 
C 462.679678 151.148777 446.344213 126.701026 425.752375 106.109188 
C 405.160537 85.51735 380.712786 69.181885 353.808253 58.037662 
C 326.90372 46.89344 298.065631 41.157187 268.944375 41.157187 
C 239.823119 41.157187 210.98503 46.89344 184.080497 58.037662 
C 157.175964 69.181885 132.728213 85.51735 112.136375 106.109188 
C 91.544537 126.701026 75.209072 151.148777 64.06485 178.05331 
C 52.920628 204.957842 47.184375 233.795931 47.184375 262.917187 
C 47.184375 292.038444 52.920628 320.876533 64.06485 347.781065 
C 75.209072 374.685598 91.544537 399.133349 112.136375 419.725187 
C 132.728213 440.317025 157.175964 456.65249 184.080497 467.796713 
C 210.98503 478.940935 239.823119 484.677187 268.944375 484.677187 
C 298.065631 484.677187 326.90372 478.940935 353.808253 467.796713 
C 380.712786 456.65249 405.160537 440.317025 425.752375 419.725187 
C 446.344213 399.133349 462.679678 374.685598 473.8239 347.781065 
C 484.968122 320.876533 490.704375 292.038444 490.704375 262.917188 
" style="fill: none; stroke: #000000; stroke-width: 0.8; stroke-linejoin: miter; stroke-linecap: square"/>
   </g>
   <g id="text_13">
    <!-- Taux de variation des SAU entre 2010 &amp; 2020 -->
    <g transform="translate(131.819062 16.318125) scale(0.12 -0.12)">
     <defs>
      <path id="DejaVuSans-54" d="M -19 4666 
L 3928 4666 
L 3928 4134 
L 2272 4134 
L 2272 0 
L 1638 0 
L 1638 4134 
L -19 4134 
L -19 4666 
z
" transform="scale(0.015625)"/>
      <path id="DejaVuSans-75" d="M 544 1381 
L 544 3500 
L 1119 3500 
L 1119 1403 
Q 1119 906 1312 657 
Q 1506 409 1894 409 
Q 2359 409 2629 706 
Q 2900 1003 2900 1516 
L 2900 3500 
L 3475 3500 
L 3475 0 
L 2900 0 
L 2900 538 
Q 2691 219 2414 64 
Q 2138 -91 1772 -91 
Q 1169 -91 856 284 
Q 544 659 544 1381 
z
M 1991 3584 
L 1991 3584 
z
" transform="scale(0.015625)"/>
      <path id="DejaVuSans-20" transform="scale(0.015625)"/>
      <path id="DejaVuSans-76" d="M 191 3500 
L 800 3500 
L 1894 563 
L 2988 3500 
L 3597 3500 
L 2284 0 
L 1503 0 
L 191 3500 
z
" transform="scale(0.015625)"/>
      <path id="DejaVuSans-53" d="M 3425 4513 
L 3425 3897 
Q 3066 4069 2747 4153 
Q 2428 4238 2131 4238 
Q 1616 4238 1336 4038 
Q 1056 3838 1056 3469 
Q 1056 3159 1242 3001 
Q 1428 2844 1947 2747 
L 2328 2669 
Q 3034 2534 3370 2195 
Q 3706 1856 3706 1288 
Q 3706 609 3251 259 
Q 2797 -91 1919 -91 
Q 1588 -91 1214 -16 
Q 841 59 441 206 
L 441 856 
Q 825 641 1194 531 
Q 1563 422 1919 422 
Q 2459 422 2753 634 
Q 3047 847 3047 1241 
Q 3047 1584 2836 1778 
Q 2625 1972 2144 2069 
L 1759 2144 
Q 1053 2284 737 2584 
Q 422 2884 422 3419 
Q 422 4038 858 4394 
Q 1294 4750 2059 4750 
Q 2388 4750 2728 4690 
Q 3069 4631 3425 4513 
z
" transform="scale(0.015625)"/>
      <path id="DejaVuSans-41" d="M 2188 4044 
L 1331 1722 
L 3047 1722 
L 2188 4044 
z
M 1831 4666 
L 2547 4666 
L 4325 0 
L 3669 0 
L 3244 1197 
L 1141 1197 
L 716 0 
L 50 0 
L 1831 4666 
z
" transform="scale(0.015625)"/>
      <path id="DejaVuSans-55" d="M 556 4666 
L 1191 4666 
L 1191 1831 
Q 1191 1081 1462 751 
Q 1734 422 2344 422 
Q 2950 422 3222 751 
Q 3494 1081 3494 1831 
L 3494 4666 
L 4128 4666 
L 4128 1753 
Q 4128 841 3676 375 
Q 3225 -91 2344 -91 
Q 1459 -91 1007 375 
Q 556 841 556 1753 
L 556 4666 
z
" transform="scale(0.015625)"/>
      <path id="DejaVuSans-26" d="M 1556 2509 
Q 1272 2256 1139 2004 
Q 1006 1753 1006 1478 
Q 1006 1022 1337 719 
Q 1669 416 2169 416 
Q 2466 416 2725 514 
Q 2984 613 3213 813 
L 1556 2509 
z
M 1997 2859 
L 3584 1234 
Q 3769 1513 3872 1830 
Q 3975 2147 3994 2503 
L 4575 2503 
Q 4538 2091 4375 1687 
Q 4213 1284 3922 891 
L 4794 0 
L 4006 0 
L 3559 459 
Q 3234 181 2878 45 
Q 2522 -91 2113 -91 
Q 1359 -91 881 339 
Q 403 769 403 1441 
Q 403 1841 612 2192 
Q 822 2544 1241 2853 
Q 1091 3050 1012 3245 
Q 934 3441 934 3628 
Q 934 4134 1281 4442 
Q 1628 4750 2203 4750 
Q 2463 4750 2720 4694 
Q 2978 4638 3244 4525 
L 3244 3956 
Q 2972 4103 2725 4179 
Q 2478 4256 2266 4256 
Q 1938 4256 1733 4082 
Q 1528 3909 1528 3634 
Q 1528 3475 1620 3314 
Q 1713 3153 1997 2859 
z
" transform="scale(0.015625)"/>
     </defs>
     <use xlink:href="#DejaVuSans-54"/>
     <use xlink:href="#DejaVuSans-61" x="44.583984"/>
     <use xlink:href="#DejaVuSans-75" x="105.863281"/>
     <use xlink:href="#DejaVuSans-78" x="169.242188"/>
     <use xlink:href="#DejaVuSans-20" x="228.421875"/>
     <use xlink:href="#DejaVuSans-64" x="260.208984"/>
     <use xlink:href="#DejaVuSans-65" x="323.685547"/>
     <use xlink:href="#DejaVuSans-20" x="385.208984"/>
     <use xlink:href="#DejaVuSans-76" x="416.996094"/>
     <use xlink:href="#DejaVuSans-61" x="476.175781"/>
     <use xlink:href="#DejaVuSans-72" x="537.455078"/>
     <use xlink:href="#DejaVuSans-69" x="578.568359"/>
     <use xlink:href="#DejaVuSans-61" x="606.351562"/>
     <use xlink:href="#DejaVuSans-74" x="667.630859"/>
     <use xlink:href="#DejaVuSans-69" x="706.839844"/>
     <use xlink:href="#DejaVuSans-6f" x="734.623047"/>
     <use xlink:href="#DejaVuSans-6e" x="795.804688"/>
     <use xlink:href="#DejaVuSans-20" x="859.183594"/>
     <use xlink:href="#DejaVuSans-64" x="890.970703"/>
     <use xlink:href="#DejaVuSans-65" x="954.447266"/>
     <use xlink:href="#DejaVuSans-73" x="1015.970703"/>
     <use xlink:href="#DejaVuSans-20" x="1068.070312"/>
     <use xlink:href="#DejaVuSans-53" x="1099.857422"/>
     <use xlink:href="#DejaVuSans-41" x="1165.208984"/>
     <use xlink:href="#DejaVuSans-55" x="1233.617188"/>
     <use xlink:href="#DejaVuSans-20" x="1306.810547"/>
     <use xlink:href="#DejaVuSans-65" x="1338.597656"/>
     <use xlink:href="#DejaVuSans-6e" x="1400.121094"/>
     <use xlink:href="#DejaVuSans-74" x="1463.5"/>
     <use xlink:href="#DejaVuSans-72" x="1502.708984"/>
     <use xlink:href="#DejaVuSans-65" x="1541.572266"/>
     <use xlink:href="#DejaVuSans-20" x="1603.095703"/>
     <use xlink:href="#DejaVuSans-32" x="1634.882812"/>
     <use xlink:href="#DejaVuSans-30" x="1698.505859"/>
     <use xlink:href="#DejaVuSans-31" x="1762.128906"/>
     <use xlink:href="#DejaVuSans-30" x="1825.751953"/>
     <use xlink:href="#DejaVuSans-20" x="1889.375"/>
     <use xlink:href="#DejaVuSans-26" x="1921.162109"/>
     <use xlink:href="#DejaVuSans-20" x="1999.140625"/>
     <use xlink:href="#DejaVuSans-32" x="2030.927734"/>
     <use xlink:href="#DejaVuSans-30" x="2094.550781"/>
     <use xlink:href="#DejaVuSans-32" x="2158.173828"/>
     <use xlink:href="#DejaVuSans-30" x="2221.796875"/>
    </g>
   </g>
   <g id="legend_1">
    <g id="patch_7">
     <path d="M 485.825 107.869687 
L 594.584375 107.869687 
Q 596.584375 107.869687 596.584375 105.869687 
L 596.584375 48.157187 
Q 596.584375 46.157187 594.584375 46.157187 
L 485.825 46.157187 
Q 483.825 46.157187 483.825 48.157187 
L 483.825 105.869687 
Q 483.825 107.869687 485.825 107.869687 
z
" style="fill: #ffffff; opacity: 0.8; stroke: #cccccc; stroke-linejoin: miter"/>
    </g>
    <g id="text_14">
     <!-- Pôles -->
     <g transform="translate(527.241406 57.755625) scale(0.1 -0.1)">
      <defs>
       <path id="DejaVuSans-50" d="M 1259 4147 
L 1259 2394 
L 2053 2394 
Q 2494 2394 2734 2622 
Q 2975 2850 2975 3272 
Q 2975 3691 2734 3919 
Q 2494 4147 2053 4147 
L 1259 4147 
z
M 628 4666 
L 2053 4666 
Q 2838 4666 3239 4311 
Q 3641 3956 3641 3272 
Q 3641 2581 3239 2228 
Q 2838 1875 2053 1875 
L 1259 1875 
L 1259 0 
L 628 0 
L 628 4666 
z
" transform="scale(0.015625)"/>
       <path id="DejaVuSans-f4" d="M 1959 3097 
Q 1497 3097 1228 2736 
Q 959 2375 959 1747 
Q 959 1119 1226 758 
Q 1494 397 1959 397 
Q 2419 397 2687 759 
Q 2956 1122 2956 1747 
Q 2956 2369 2687 2733 
Q 2419 3097 1959 3097 
z
M 1959 3584 
Q 2709 3584 3137 3096 
Q 3566 2609 3566 1747 
Q 3566 888 3137 398 
Q 2709 -91 1959 -91 
Q 1206 -91 779 398 
Q 353 888 353 1747 
Q 353 2609 779 3096 
Q 1206 3584 1959 3584 
z
M 1729 5119 
L 2191 5119 
L 2957 3944 
L 2523 3944 
L 1960 4709 
L 1398 3944 
L 963 3944 
L 1729 5119 
z
" transform="scale(0.015625)"/>
      </defs>
      <use xlink:href="#DejaVuSans-50"/>
      <use xlink:href="#DejaVuSans-f4" x="56.677734"/>
      <use xlink:href="#DejaVuSans-6c" x="117.859375"/>
      <use xlink:href="#DejaVuSans-65" x="145.642578"/>
      <use xlink:href="#DejaVuSans-73" x="207.166016"/>
     </g>
    </g>
    <g id="line2d_16">
     <path d="M 487.825 68.93375 
L 497.825 68.93375 
L 507.825 68.93375 
" style="fill: none; stroke: #008000; stroke-linecap: square"/>
    </g>
    <g id="text_15">
     <!-- Iholdi Otzibarre -->
     <g transform="translate(515.825 72.43375) scale(0.1 -0.1)">
      <defs>
       <path id="DejaVuSans-49" d="M 628 4666 
L 1259 4666 
L 1259 0 
L 628 0 
L 628 4666 
z
" transform="scale(0.015625)"/>
       <path id="DejaVuSans-68" d="M 3513 2113 
L 3513 0 
L 2938 0 
L 2938 2094 
Q 2938 2591 2744 2837 
Q 2550 3084 2163 3084 
Q 1697 3084 1428 2787 
Q 1159 2491 1159 1978 
L 1159 0 
L 581 0 
L 581 4863 
L 1159 4863 
L 1159 2956 
Q 1366 3272 1645 3428 
Q 1925 3584 2291 3584 
Q 2894 3584 3203 3211 
Q 3513 2838 3513 2113 
z
" transform="scale(0.015625)"/>
       <path id="DejaVuSans-4f" d="M 2522 4238 
Q 1834 4238 1429 3725 
Q 1025 3213 1025 2328 
Q 1025 1447 1429 934 
Q 1834 422 2522 422 
Q 3209 422 3611 934 
Q 4013 1447 4013 2328 
Q 4013 3213 3611 3725 
Q 3209 4238 2522 4238 
z
M 2522 4750 
Q 3503 4750 4090 4092 
Q 4678 3434 4678 2328 
Q 4678 1225 4090 567 
Q 3503 -91 2522 -91 
Q 1538 -91 948 565 
Q 359 1222 359 2328 
Q 359 3434 948 4092 
Q 1538 4750 2522 4750 
z
" transform="scale(0.015625)"/>
       <path id="DejaVuSans-7a" d="M 353 3500 
L 3084 3500 
L 3084 2975 
L 922 459 
L 3084 459 
L 3084 0 
L 275 0 
L 275 525 
L 2438 3041 
L 353 3041 
L 353 3500 
z
" transform="scale(0.015625)"/>
       <path id="DejaVuSans-62" d="M 3116 1747 
Q 3116 2381 2855 2742 
Q 2594 3103 2138 3103 
Q 1681 3103 1420 2742 
Q 1159 2381 1159 1747 
Q 1159 1113 1420 752 
Q 1681 391 2138 391 
Q 2594 391 2855 752 
Q 3116 1113 3116 1747 
z
M 1159 2969 
Q 1341 3281 1617 3432 
Q 1894 3584 2278 3584 
Q 2916 3584 3314 3078 
Q 3713 2572 3713 1747 
Q 3713 922 3314 415 
Q 2916 -91 2278 -91 
Q 1894 -91 1617 61 
Q 1341 213 1159 525 
L 1159 0 
L 581 0 
L 581 4863 
L 1159 4863 
L 1159 2969 
z
" transform="scale(0.015625)"/>
      </defs>
      <use xlink:href="#DejaVuSans-49"/>
      <use xlink:href="#DejaVuSans-68" x="29.492188"/>
      <use xlink:href="#DejaVuSans-6f" x="92.871094"/>
      <use xlink:href="#DejaVuSans-6c" x="154.052734"/>
      <use xlink:href="#DejaVuSans-64" x="181.835938"/>
      <use xlink:href="#DejaVuSans-69" x="245.3125"/>
      <use xlink:href="#DejaVuSans-20" x="273.095703"/>
      <use xlink:href="#DejaVuSans-4f" x="304.882812"/>
      <use xlink:href="#DejaVuSans-74" x="383.59375"/>
      <use xlink:href="#DejaVuSans-7a" x="422.802734"/>
      <use xlink:href="#DejaVuSans-69" x="475.292969"/>
      <use xlink:href="#DejaVuSans-62" x="503.076172"/>
      <use xlink:href="#DejaVuSans-61" x="566.552734"/>
      <use xlink:href="#DejaVuSans-72" x="627.832031"/>
      <use xlink:href="#DejaVuSans-72" x="667.195312"/>
      <use xlink:href="#DejaVuSans-65" x="706.058594"/>
     </g>
    </g>
    <g id="line2d_17">
     <path d="M 487.825 83.611875 
L 497.825 83.611875 
L 507.825 83.611875 
" style="fill: none; stroke: #ff0000; stroke-linecap: square"/>
    </g>
    <g id="text_16">
     <!-- Soule Xiberoa -->
     <g transform="translate(515.825 87.111875) scale(0.1 -0.1)">
      <defs>
       <path id="DejaVuSans-58" d="M 403 4666 
L 1081 4666 
L 2241 2931 
L 3406 4666 
L 4084 4666 
L 2584 2425 
L 4184 0 
L 3506 0 
L 2194 1984 
L 872 0 
L 191 0 
L 1856 2491 
L 403 4666 
z
" transform="scale(0.015625)"/>
      </defs>
      <use xlink:href="#DejaVuSans-53"/>
      <use xlink:href="#DejaVuSans-6f" x="63.476562"/>
      <use xlink:href="#DejaVuSans-75" x="124.658203"/>
      <use xlink:href="#DejaVuSans-6c" x="188.037109"/>
      <use xlink:href="#DejaVuSans-65" x="215.820312"/>
      <use xlink:href="#DejaVuSans-20" x="277.34375"/>
      <use xlink:href="#DejaVuSans-58" x="309.130859"/>
      <use xlink:href="#DejaVuSans-69" x="377.636719"/>
      <use xlink:href="#DejaVuSans-62" x="405.419922"/>
      <use xlink:href="#DejaVuSans-65" x="468.896484"/>
      <use xlink:href="#DejaVuSans-72" x="530.419922"/>
      <use xlink:href="#DejaVuSans-6f" x="569.283203"/>
      <use xlink:href="#DejaVuSans-61" x="630.464844"/>
     </g>
    </g>
    <g id="line2d_18">
     <path d="M 487.825 98.29 
L 497.825 98.29 
L 507.825 98.29 
" style="fill: none; stroke: #0000ff; stroke-linecap: square"/>
    </g>
    <g id="text_17">
     <!-- Garazi Baigorri -->
     <g transform="translate(515.825 101.79) scale(0.1 -0.1)">
      <defs>
       <path id="DejaVuSans-47" d="M 3809 666 
L 3809 1919 
L 2778 1919 
L 2778 2438 
L 4434 2438 
L 4434 434 
Q 4069 175 3628 42 
Q 3188 -91 2688 -91 
Q 1594 -91 976 548 
Q 359 1188 359 2328 
Q 359 3472 976 4111 
Q 1594 4750 2688 4750 
Q 3144 4750 3555 4637 
Q 3966 4525 4313 4306 
L 4313 3634 
Q 3963 3931 3569 4081 
Q 3175 4231 2741 4231 
Q 1884 4231 1454 3753 
Q 1025 3275 1025 2328 
Q 1025 1384 1454 906 
Q 1884 428 2741 428 
Q 3075 428 3337 486 
Q 3600 544 3809 666 
z
" transform="scale(0.015625)"/>
       <path id="DejaVuSans-42" d="M 1259 2228 
L 1259 519 
L 2272 519 
Q 2781 519 3026 730 
Q 3272 941 3272 1375 
Q 3272 1813 3026 2020 
Q 2781 2228 2272 2228 
L 1259 2228 
z
M 1259 4147 
L 1259 2741 
L 2194 2741 
Q 2656 2741 2882 2914 
Q 3109 3088 3109 3444 
Q 3109 3797 2882 3972 
Q 2656 4147 2194 4147 
L 1259 4147 
z
M 628 4666 
L 2241 4666 
Q 2963 4666 3353 4366 
Q 3744 4066 3744 3513 
Q 3744 3084 3544 2831 
Q 3344 2578 2956 2516 
Q 3422 2416 3680 2098 
Q 3938 1781 3938 1306 
Q 3938 681 3513 340 
Q 3088 0 2303 0 
L 628 0 
L 628 4666 
z
" transform="scale(0.015625)"/>
      </defs>
      <use xlink:href="#DejaVuSans-47"/>
      <use xlink:href="#DejaVuSans-61" x="77.490234"/>
      <use xlink:href="#DejaVuSans-72" x="138.769531"/>
      <use xlink:href="#DejaVuSans-61" x="179.882812"/>
      <use xlink:href="#DejaVuSans-7a" x="241.162109"/>
      <use xlink:href="#DejaVuSans-69" x="293.652344"/>
      <use xlink:href="#DejaVuSans-20" x="321.435547"/>
      <use xlink:href="#DejaVuSans-42" x="353.222656"/>
      <use xlink:href="#DejaVuSans-61" x="421.826172"/>
      <use xlink:href="#DejaVuSans-69" x="483.105469"/>
      <use xlink:href="#DejaVuSans-67" x="510.888672"/>
      <use xlink:href="#DejaVuSans-6f" x="574.365234"/>
      <use xlink:href="#DejaVuSans-72" x="635.546875"/>
      <use xlink:href="#DejaVuSans-72" x="674.910156"/>
      <use xlink:href="#DejaVuSans-69" x="716.023438"/>
     </g>
    </g>
   </g>
  </g>
 </g>
 <defs>
  <clipPath id="pcc0f1c256a">
   <path d="M 490.704375 262.917187 
C 490.704375 233.795931 484.968122 204.957842 473.8239 178.05331 
C 462.679678 151.148777 446.344213 126.701026 425.752375 106.109188 
C 405.160537 85.51735 380.712786 69.181885 353.808253 58.037662 
C 326.90372 46.89344 298.065631 41.157187 268.944375 41.157187 
C 239.823119 41.157187 210.98503 46.89344 184.080497 58.037662 
C 157.175964 69.181885 132.728213 85.51735 112.136375 106.109188 
C 91.544537 126.701026 75.209072 151.148777 64.06485 178.05331 
C 52.920628 204.957842 47.184375 233.795931 47.184375 262.917187 
C 47.184375 292.038444 52.920628 320.876533 64.06485 347.781065 
C 75.209072 374.685598 91.544537 399.133349 112.136375 419.725187 
C 132.728213 440.317025 157.175964 456.65249 184.080497 467.796713 
C 210.98503 478.940935 239.823119 484.677187 268.944375 484.677187 
C 298.065631 484.677187 326.90372 478.940935 353.808253 467.796713 
C 380.712786 456.65249 405.160537 440.317025 425.752375 419.725187 
C 446.344213 399.133349 462.679678 374.685598 473.8239 347.781065 
C 484.968122 320.876533 490.704375 292.038444 490.704375 262.917188 
M 268.944375 262.917187 
C 268.944375 262.917187 268.944375 262.917187 268.944375 262.917187 
C 268.944375 262.917187 268.944375 262.917187 268.944375 262.917187 
C 268.944375 262.917187 268.944375 262.917187 268.944375 262.917187 
C 268.944375 262.917187 268.944375 262.917187 268.944375 262.917187 
C 268.944375 262.917187 268.944375 262.917187 268.944375 262.917187 
C 268.944375 262.917187 268.944375 262.917187 268.944375 262.917187 
C 268.944375 262.917187 268.944375 262.917187 268.944375 262.917187 
C 268.944375 262.917187 268.944375 262.917187 268.944375 262.917187 
C 268.944375 262.917187 268.944375 262.917187 268.944375 262.917187 
C 268.944375 262.917187 268.944375 262.917187 268.944375 262.917187 
C 268.944375 262.917187 268.944375 262.917187 268.944375 262.917187 
C 268.944375 262.917187 268.944375 262.917187 268.944375 262.917187 
C 268.944375 262.917187 268.944375 262.917187 268.944375 262.917187 
C 268.944375 262.917187 268.944375 262.917187 268.944375 262.917187 
C 268.944375 262.917187 268.944375 262.917187 268.944375 262.917187 
C 268.944375 262.917187 268.944375 262.917187 268.944375 262.917187 
z
"/>
  </clipPath>
 </defs>
</svg>
