<?xml version="1.0" encoding="utf-8" standalone="no"?>
<!DOCTYPE svg PUBLIC "-//W3C//DTD SVG 1.1//EN"
  "http://www.w3.org/Graphics/SVG/1.1/DTD/svg11.dtd">
<svg xmlns:xlink="http://www.w3.org/1999/xlink" width="603.784375pt" height="510.71625pt" viewBox="0 0 603.784375 510.71625" xmlns="http://www.w3.org/2000/svg" version="1.1">
 <metadata>
  <rdf:RDF xmlns:dc="http://purl.org/dc/elements/1.1/" xmlns:cc="http://creativecommons.org/ns#" xmlns:rdf="http://www.w3.org/1999/02/22-rdf-syntax-ns#">
   <cc:Work>
    <dc:type rdf:resource="http://purl.org/dc/dcmitype/StillImage"/>
    <dc:date>2023-06-28T16:56:15.118752</dc:date>
    <dc:format>image/svg+xml</dc:format>
    <dc:creator>
     <cc:Agent>
      <dc:title>Matplotlib v3.7.1, https://matplotlib.org/</dc:title>
     </cc:Agent>
    </dc:creator>
   </cc:Work>
  </rdf:RDF>
 </metadata>
 <defs>
  <style type="text/css">*{stroke-linejoin: round; stroke-linecap: butt}</style>
 </defs>
 <g id="figure_1">
  <g id="patch_1">
   <path d="M 0 510.71625 
L 603.784375 510.71625 
L 603.784375 0 
L 0 0 
z
" style="fill: #ffffff"/>
  </g>
  <g id="axes_1">
   <g id="patch_2">
    <path d="M 490.704375 262.917187 
C 490.704375 233.795931 484.968122 204.957842 473.8239 178.05331 
C 462.679678 151.148777 446.344213 126.701026 425.752375 106.109188 
C 405.160537 85.51735 380.712786 69.181885 353.808253 58.037662 
C 326.90372 46.89344 298.065631 41.157187 268.944375 41.157187 
C 239.823119 41.157187 210.98503 46.89344 184.080497 58.037662 
C 157.175964 69.181885 132.728213 85.51735 112.136375 106.109188 
C 91.544537 126.701026 75.209072 151.148777 64.06485 178.05331 
C 52.920628 204.957842 47.184375 233.795931 47.184375 262.917187 
C 47.184375 292.038444 52.920628 320.876533 64.06485 347.781065 
C 75.209072 374.685598 91.544537 399.133349 112.136375 419.725187 
C 132.728213 440.317025 157.175964 456.65249 184.080497 467.796713 
C 210.98503 478.940935 239.823119 484.677187 268.944375 484.677187 
C 298.065631 484.677187 326.90372 478.940935 353.808253 467.796713 
C 380.712786 456.65249 405.160537 440.317025 425.752375 419.725187 
C 446.344213 399.133349 462.679678 374.685598 473.8239 347.781065 
C 484.968122 320.876533 490.704375 292.038444 490.704375 262.917188 
M 268.944375 262.917187 
C 268.944375 262.917187 268.944375 262.917187 268.944375 262.917187 
C 268.944375 262.917187 268.944375 262.917187 268.944375 262.917187 
C 268.944375 262.917187 268.944375 262.917187 268.944375 262.917187 
C 268.944375 262.917187 268.944375 262.917187 268.944375 262.917187 
C 268.944375 262.917187 268.944375 262.917187 268.944375 262.917187 
C 268.944375 262.917187 268.944375 262.917187 268.944375 262.917187 
C 268.944375 262.917187 268.944375 262.917187 268.944375 262.917187 
C 268.944375 262.917187 268.944375 262.917187 268.944375 262.917187 
C 268.944375 262.917187 268.944375 262.917187 268.944375 262.917187 
C 268.944375 262.917187 268.944375 262.917187 268.944375 262.917187 
C 268.944375 262.917187 268.944375 262.917187 268.944375 262.917187 
C 268.944375 262.917187 268.944375 262.917187 268.944375 262.917187 
C 268.944375 262.917187 268.944375 262.917187 268.944375 262.917187 
C 268.944375 262.917187 268.944375 262.917187 268.944375 262.917187 
C 268.944375 262.917187 268.944375 262.917187 268.944375 262.917187 
C 268.944375 262.917187 268.944375 262.917187 268.944375 262.917187 
z
" style="fill: #ffffff"/>
   </g>
   <g id="patch_3">
    <path d="M 345.700338 262.917187 
L 268.944375 191.709848 
L 220.856302 262.917187 
L 268.944375 280.48783 
z
" clip-path="url(#p2bf21b7ce6)" style="fill: #008000; opacity: 0.5; stroke: #008000; stroke-linejoin: miter"/>
   </g>
   <g id="patch_4">
    <path d="M 416.907678 262.917187 
L 268.944375 51.14471 
L 135.777403 262.917187 
L 268.944375 280.48783 
z
" clip-path="url(#p2bf21b7ce6)" style="fill: #ff0000; opacity: 0.5; stroke: #ff0000; stroke-linejoin: miter"/>
   </g>
   <g id="patch_5">
    <path d="M 442.801256 262.917187 
L 268.944375 78.88783 
L 169.069146 262.917187 
L 268.944375 274.939206 
z
" clip-path="url(#p2bf21b7ce6)" style="fill: #0000ff; opacity: 0.5; stroke: #0000ff; stroke-linejoin: miter"/>
   </g>
   <g id="matplotlib.axis_1">
    <g id="xtick_1">
     <g id="line2d_1">
      <path d="M 268.944375 262.917187 
L 490.704375 262.917187 
" clip-path="url(#p2bf21b7ce6)" style="fill: none; stroke: #b0b0b0; stroke-width: 0.8; stroke-linecap: square"/>
     </g>
     <g id="text_1">
      <!-- microexploitations -->
      <g transform="translate(458.527031 265.676562) scale(0.1 -0.1)">
       <defs>
        <path id="DejaVuSans-6d" d="M 3328 2828 
Q 3544 3216 3844 3400 
Q 4144 3584 4550 3584 
Q 5097 3584 5394 3201 
Q 5691 2819 5691 2113 
L 5691 0 
L 5113 0 
L 5113 2094 
Q 5113 2597 4934 2840 
Q 4756 3084 4391 3084 
Q 3944 3084 3684 2787 
Q 3425 2491 3425 1978 
L 3425 0 
L 2847 0 
L 2847 2094 
Q 2847 2600 2669 2842 
Q 2491 3084 2119 3084 
Q 1678 3084 1418 2786 
Q 1159 2488 1159 1978 
L 1159 0 
L 581 0 
L 581 3500 
L 1159 3500 
L 1159 2956 
Q 1356 3278 1631 3431 
Q 1906 3584 2284 3584 
Q 2666 3584 2933 3390 
Q 3200 3197 3328 2828 
z
" transform="scale(0.015625)"/>
        <path id="DejaVuSans-69" d="M 603 3500 
L 1178 3500 
L 1178 0 
L 603 0 
L 603 3500 
z
M 603 4863 
L 1178 4863 
L 1178 4134 
L 603 4134 
L 603 4863 
z
" transform="scale(0.015625)"/>
        <path id="DejaVuSans-63" d="M 3122 3366 
L 3122 2828 
Q 2878 2963 2633 3030 
Q 2388 3097 2138 3097 
Q 1578 3097 1268 2742 
Q 959 2388 959 1747 
Q 959 1106 1268 751 
Q 1578 397 2138 397 
Q 2388 397 2633 464 
Q 2878 531 3122 666 
L 3122 134 
Q 2881 22 2623 -34 
Q 2366 -91 2075 -91 
Q 1284 -91 818 406 
Q 353 903 353 1747 
Q 353 2603 823 3093 
Q 1294 3584 2113 3584 
Q 2378 3584 2631 3529 
Q 2884 3475 3122 3366 
z
" transform="scale(0.015625)"/>
        <path id="DejaVuSans-72" d="M 2631 2963 
Q 2534 3019 2420 3045 
Q 2306 3072 2169 3072 
Q 1681 3072 1420 2755 
Q 1159 2438 1159 1844 
L 1159 0 
L 581 0 
L 581 3500 
L 1159 3500 
L 1159 2956 
Q 1341 3275 1631 3429 
Q 1922 3584 2338 3584 
Q 2397 3584 2469 3576 
Q 2541 3569 2628 3553 
L 2631 2963 
z
" transform="scale(0.015625)"/>
        <path id="DejaVuSans-6f" d="M 1959 3097 
Q 1497 3097 1228 2736 
Q 959 2375 959 1747 
Q 959 1119 1226 758 
Q 1494 397 1959 397 
Q 2419 397 2687 759 
Q 2956 1122 2956 1747 
Q 2956 2369 2687 2733 
Q 2419 3097 1959 3097 
z
M 1959 3584 
Q 2709 3584 3137 3096 
Q 3566 2609 3566 1747 
Q 3566 888 3137 398 
Q 2709 -91 1959 -91 
Q 1206 -91 779 398 
Q 353 888 353 1747 
Q 353 2609 779 3096 
Q 1206 3584 1959 3584 
z
" transform="scale(0.015625)"/>
        <path id="DejaVuSans-65" d="M 3597 1894 
L 3597 1613 
L 953 1613 
Q 991 1019 1311 708 
Q 1631 397 2203 397 
Q 2534 397 2845 478 
Q 3156 559 3463 722 
L 3463 178 
Q 3153 47 2828 -22 
Q 2503 -91 2169 -91 
Q 1331 -91 842 396 
Q 353 884 353 1716 
Q 353 2575 817 3079 
Q 1281 3584 2069 3584 
Q 2775 3584 3186 3129 
Q 3597 2675 3597 1894 
z
M 3022 2063 
Q 3016 2534 2758 2815 
Q 2500 3097 2075 3097 
Q 1594 3097 1305 2825 
Q 1016 2553 972 2059 
L 3022 2063 
z
" transform="scale(0.015625)"/>
        <path id="DejaVuSans-78" d="M 3513 3500 
L 2247 1797 
L 3578 0 
L 2900 0 
L 1881 1375 
L 863 0 
L 184 0 
L 1544 1831 
L 300 3500 
L 978 3500 
L 1906 2253 
L 2834 3500 
L 3513 3500 
z
" transform="scale(0.015625)"/>
        <path id="DejaVuSans-70" d="M 1159 525 
L 1159 -1331 
L 581 -1331 
L 581 3500 
L 1159 3500 
L 1159 2969 
Q 1341 3281 1617 3432 
Q 1894 3584 2278 3584 
Q 2916 3584 3314 3078 
Q 3713 2572 3713 1747 
Q 3713 922 3314 415 
Q 2916 -91 2278 -91 
Q 1894 -91 1617 61 
Q 1341 213 1159 525 
z
M 3116 1747 
Q 3116 2381 2855 2742 
Q 2594 3103 2138 3103 
Q 1681 3103 1420 2742 
Q 1159 2381 1159 1747 
Q 1159 1113 1420 752 
Q 1681 391 2138 391 
Q 2594 391 2855 752 
Q 3116 1113 3116 1747 
z
" transform="scale(0.015625)"/>
        <path id="DejaVuSans-6c" d="M 603 4863 
L 1178 4863 
L 1178 0 
L 603 0 
L 603 4863 
z
" transform="scale(0.015625)"/>
        <path id="DejaVuSans-74" d="M 1172 4494 
L 1172 3500 
L 2356 3500 
L 2356 3053 
L 1172 3053 
L 1172 1153 
Q 1172 725 1289 603 
Q 1406 481 1766 481 
L 2356 481 
L 2356 0 
L 1766 0 
Q 1100 0 847 248 
Q 594 497 594 1153 
L 594 3053 
L 172 3053 
L 172 3500 
L 594 3500 
L 594 4494 
L 1172 4494 
z
" transform="scale(0.015625)"/>
        <path id="DejaVuSans-61" d="M 2194 1759 
Q 1497 1759 1228 1600 
Q 959 1441 959 1056 
Q 959 750 1161 570 
Q 1363 391 1709 391 
Q 2188 391 2477 730 
Q 2766 1069 2766 1631 
L 2766 1759 
L 2194 1759 
z
M 3341 1997 
L 3341 0 
L 2766 0 
L 2766 531 
Q 2569 213 2275 61 
Q 1981 -91 1556 -91 
Q 1019 -91 701 211 
Q 384 513 384 1019 
Q 384 1609 779 1909 
Q 1175 2209 1959 2209 
L 2766 2209 
L 2766 2266 
Q 2766 2663 2505 2880 
Q 2244 3097 1772 3097 
Q 1472 3097 1187 3025 
Q 903 2953 641 2809 
L 641 3341 
Q 956 3463 1253 3523 
Q 1550 3584 1831 3584 
Q 2591 3584 2966 3190 
Q 3341 2797 3341 1997 
z
" transform="scale(0.015625)"/>
        <path id="DejaVuSans-6e" d="M 3513 2113 
L 3513 0 
L 2938 0 
L 2938 2094 
Q 2938 2591 2744 2837 
Q 2550 3084 2163 3084 
Q 1697 3084 1428 2787 
Q 1159 2491 1159 1978 
L 1159 0 
L 581 0 
L 581 3500 
L 1159 3500 
L 1159 2956 
Q 1366 3272 1645 3428 
Q 1925 3584 2291 3584 
Q 2894 3584 3203 3211 
Q 3513 2838 3513 2113 
z
" transform="scale(0.015625)"/>
        <path id="DejaVuSans-73" d="M 2834 3397 
L 2834 2853 
Q 2591 2978 2328 3040 
Q 2066 3103 1784 3103 
Q 1356 3103 1142 2972 
Q 928 2841 928 2578 
Q 928 2378 1081 2264 
Q 1234 2150 1697 2047 
L 1894 2003 
Q 2506 1872 2764 1633 
Q 3022 1394 3022 966 
Q 3022 478 2636 193 
Q 2250 -91 1575 -91 
Q 1294 -91 989 -36 
Q 684 19 347 128 
L 347 722 
Q 666 556 975 473 
Q 1284 391 1588 391 
Q 1994 391 2212 530 
Q 2431 669 2431 922 
Q 2431 1156 2273 1281 
Q 2116 1406 1581 1522 
L 1381 1569 
Q 847 1681 609 1914 
Q 372 2147 372 2553 
Q 372 3047 722 3315 
Q 1072 3584 1716 3584 
Q 2034 3584 2315 3537 
Q 2597 3491 2834 3397 
z
" transform="scale(0.015625)"/>
       </defs>
       <use xlink:href="#DejaVuSans-6d"/>
       <use xlink:href="#DejaVuSans-69" x="97.412109"/>
       <use xlink:href="#DejaVuSans-63" x="125.195312"/>
       <use xlink:href="#DejaVuSans-72" x="180.175781"/>
       <use xlink:href="#DejaVuSans-6f" x="219.039062"/>
       <use xlink:href="#DejaVuSans-65" x="280.220703"/>
       <use xlink:href="#DejaVuSans-78" x="339.994141"/>
       <use xlink:href="#DejaVuSans-70" x="399.173828"/>
       <use xlink:href="#DejaVuSans-6c" x="462.650391"/>
       <use xlink:href="#DejaVuSans-6f" x="490.433594"/>
       <use xlink:href="#DejaVuSans-69" x="551.615234"/>
       <use xlink:href="#DejaVuSans-74" x="579.398438"/>
       <use xlink:href="#DejaVuSans-61" x="618.607422"/>
       <use xlink:href="#DejaVuSans-74" x="679.886719"/>
       <use xlink:href="#DejaVuSans-69" x="719.095703"/>
       <use xlink:href="#DejaVuSans-6f" x="746.878906"/>
       <use xlink:href="#DejaVuSans-6e" x="808.060547"/>
       <use xlink:href="#DejaVuSans-73" x="871.439453"/>
      </g>
     </g>
    </g>
    <g id="xtick_2">
     <g id="line2d_2">
      <path d="M 268.944375 262.917187 
L 268.944375 41.157187 
" clip-path="url(#p2bf21b7ce6)" style="fill: none; stroke: #b0b0b0; stroke-width: 0.8; stroke-linecap: square"/>
     </g>
     <g id="text_2">
      <!-- petites -->
      <g transform="translate(251.702969 29.916562) scale(0.1 -0.1)">
       <use xlink:href="#DejaVuSans-70"/>
       <use xlink:href="#DejaVuSans-65" x="63.476562"/>
       <use xlink:href="#DejaVuSans-74" x="125"/>
       <use xlink:href="#DejaVuSans-69" x="164.208984"/>
       <use xlink:href="#DejaVuSans-74" x="191.992188"/>
       <use xlink:href="#DejaVuSans-65" x="231.201172"/>
       <use xlink:href="#DejaVuSans-73" x="292.724609"/>
      </g>
     </g>
    </g>
    <g id="xtick_3">
     <g id="line2d_3">
      <path d="M 268.944375 262.917187 
L 47.184375 262.917187 
" clip-path="url(#p2bf21b7ce6)" style="fill: none; stroke: #b0b0b0; stroke-width: 0.8; stroke-linecap: square"/>
     </g>
     <g id="text_3">
      <!-- moyennes -->
      <g transform="translate(7.2 265.676562) scale(0.1 -0.1)">
       <defs>
        <path id="DejaVuSans-79" d="M 2059 -325 
Q 1816 -950 1584 -1140 
Q 1353 -1331 966 -1331 
L 506 -1331 
L 506 -850 
L 844 -850 
Q 1081 -850 1212 -737 
Q 1344 -625 1503 -206 
L 1606 56 
L 191 3500 
L 800 3500 
L 1894 763 
L 2988 3500 
L 3597 3500 
L 2059 -325 
z
" transform="scale(0.015625)"/>
       </defs>
       <use xlink:href="#DejaVuSans-6d"/>
       <use xlink:href="#DejaVuSans-6f" x="97.412109"/>
       <use xlink:href="#DejaVuSans-79" x="158.59375"/>
       <use xlink:href="#DejaVuSans-65" x="217.773438"/>
       <use xlink:href="#DejaVuSans-6e" x="279.296875"/>
       <use xlink:href="#DejaVuSans-6e" x="342.675781"/>
       <use xlink:href="#DejaVuSans-65" x="406.054688"/>
       <use xlink:href="#DejaVuSans-73" x="467.578125"/>
      </g>
     </g>
    </g>
    <g id="xtick_4">
     <g id="line2d_4">
      <path d="M 268.944375 262.917187 
L 268.944375 484.677187 
" clip-path="url(#p2bf21b7ce6)" style="fill: none; stroke: #b0b0b0; stroke-width: 0.8; stroke-linecap: square"/>
     </g>
     <g id="text_4">
      <!-- grandes -->
      <g transform="translate(248.626406 501.436562) scale(0.1 -0.1)">
       <defs>
        <path id="DejaVuSans-67" d="M 2906 1791 
Q 2906 2416 2648 2759 
Q 2391 3103 1925 3103 
Q 1463 3103 1205 2759 
Q 947 2416 947 1791 
Q 947 1169 1205 825 
Q 1463 481 1925 481 
Q 2391 481 2648 825 
Q 2906 1169 2906 1791 
z
M 3481 434 
Q 3481 -459 3084 -895 
Q 2688 -1331 1869 -1331 
Q 1566 -1331 1297 -1286 
Q 1028 -1241 775 -1147 
L 775 -588 
Q 1028 -725 1275 -790 
Q 1522 -856 1778 -856 
Q 2344 -856 2625 -561 
Q 2906 -266 2906 331 
L 2906 616 
Q 2728 306 2450 153 
Q 2172 0 1784 0 
Q 1141 0 747 490 
Q 353 981 353 1791 
Q 353 2603 747 3093 
Q 1141 3584 1784 3584 
Q 2172 3584 2450 3431 
Q 2728 3278 2906 2969 
L 2906 3500 
L 3481 3500 
L 3481 434 
z
" transform="scale(0.015625)"/>
        <path id="DejaVuSans-64" d="M 2906 2969 
L 2906 4863 
L 3481 4863 
L 3481 0 
L 2906 0 
L 2906 525 
Q 2725 213 2448 61 
Q 2172 -91 1784 -91 
Q 1150 -91 751 415 
Q 353 922 353 1747 
Q 353 2572 751 3078 
Q 1150 3584 1784 3584 
Q 2172 3584 2448 3432 
Q 2725 3281 2906 2969 
z
M 947 1747 
Q 947 1113 1208 752 
Q 1469 391 1925 391 
Q 2381 391 2643 752 
Q 2906 1113 2906 1747 
Q 2906 2381 2643 2742 
Q 2381 3103 1925 3103 
Q 1469 3103 1208 2742 
Q 947 2381 947 1747 
z
" transform="scale(0.015625)"/>
       </defs>
       <use xlink:href="#DejaVuSans-67"/>
       <use xlink:href="#DejaVuSans-72" x="63.476562"/>
       <use xlink:href="#DejaVuSans-61" x="104.589844"/>
       <use xlink:href="#DejaVuSans-6e" x="165.869141"/>
       <use xlink:href="#DejaVuSans-64" x="229.248047"/>
       <use xlink:href="#DejaVuSans-65" x="292.724609"/>
       <use xlink:href="#DejaVuSans-73" x="354.248047"/>
      </g>
     </g>
    </g>
   </g>
   <g id="matplotlib.axis_2">
    <g id="ytick_1">
     <g id="line2d_5">
      <path d="M 315.182907 262.917187 
C 315.182907 256.845199 313.986858 250.832253 311.663208 245.222467 
C 309.339559 239.612682 305.933499 234.515152 301.639955 230.221608 
C 297.34641 225.928064 292.248881 222.522003 286.639095 220.198354 
C 281.029309 217.874705 275.016363 216.678655 268.944375 216.678655 
C 262.872387 216.678655 256.859441 217.874705 251.249655 220.198354 
C 245.639869 222.522003 240.54234 225.928064 236.248795 230.221608 
C 231.955251 234.515152 228.549191 239.612682 226.225542 245.222467 
C 223.901892 250.832253 222.705843 256.845199 222.705843 262.917187 
C 222.705843 268.989176 223.901892 275.002122 226.225542 280.611908 
C 228.549191 286.221693 231.955251 291.319223 236.248795 295.612767 
C 240.54234 299.906311 245.639869 303.312372 251.249655 305.636021 
C 256.859441 307.95967 262.872387 309.15572 268.944375 309.15572 
C 275.016363 309.15572 281.029309 307.95967 286.639095 305.636021 
C 292.248881 303.312372 297.34641 299.906311 301.639955 295.612767 
C 305.933499 291.319223 309.339559 286.221693 311.663208 280.611908 
C 313.986858 275.002122 315.182907 268.989176 315.182907 262.917187 
" clip-path="url(#p2bf21b7ce6)" style="fill: none; stroke: #b0b0b0; stroke-width: 0.8; stroke-linecap: square"/>
     </g>
     <g id="text_5">
      <!-- 50 -->
      <g transform="translate(311.663208 243.14278) scale(0.1 -0.1)">
       <defs>
        <path id="DejaVuSans-35" d="M 691 4666 
L 3169 4666 
L 3169 4134 
L 1269 4134 
L 1269 2991 
Q 1406 3038 1543 3061 
Q 1681 3084 1819 3084 
Q 2600 3084 3056 2656 
Q 3513 2228 3513 1497 
Q 3513 744 3044 326 
Q 2575 -91 1722 -91 
Q 1428 -91 1123 -41 
Q 819 9 494 109 
L 494 744 
Q 775 591 1075 516 
Q 1375 441 1709 441 
Q 2250 441 2565 725 
Q 2881 1009 2881 1497 
Q 2881 1984 2565 2268 
Q 2250 2553 1709 2553 
Q 1456 2553 1204 2497 
Q 953 2441 691 2322 
L 691 4666 
z
" transform="scale(0.015625)"/>
        <path id="DejaVuSans-30" d="M 2034 4250 
Q 1547 4250 1301 3770 
Q 1056 3291 1056 2328 
Q 1056 1369 1301 889 
Q 1547 409 2034 409 
Q 2525 409 2770 889 
Q 3016 1369 3016 2328 
Q 3016 3291 2770 3770 
Q 2525 4250 2034 4250 
z
M 2034 4750 
Q 2819 4750 3233 4129 
Q 3647 3509 3647 2328 
Q 3647 1150 3233 529 
Q 2819 -91 2034 -91 
Q 1250 -91 836 529 
Q 422 1150 422 2328 
Q 422 3509 836 4129 
Q 1250 4750 2034 4750 
z
" transform="scale(0.015625)"/>
       </defs>
       <use xlink:href="#DejaVuSans-35"/>
       <use xlink:href="#DejaVuSans-30" x="63.623047"/>
      </g>
     </g>
    </g>
    <g id="ytick_2">
     <g id="line2d_6">
      <path d="M 361.421439 262.917187 
C 361.421439 250.773211 359.029341 238.747319 354.382042 227.527747 
C 349.734743 216.308176 342.922623 206.113117 334.335534 197.526028 
C 325.748446 188.93894 315.553387 182.126819 304.333815 177.479521 
C 293.114244 172.832222 281.088352 170.440123 268.944375 170.440123 
C 256.800398 170.440123 244.774506 172.832222 233.554935 177.479521 
C 222.335363 182.126819 212.140304 188.93894 203.553216 197.526028 
C 194.966127 206.113117 188.154007 216.308176 183.506708 227.527747 
C 178.859409 238.747319 176.467311 250.773211 176.467311 262.917187 
C 176.467311 275.061164 178.859409 287.087056 183.506708 298.306628 
C 188.154007 309.526199 194.966127 319.721258 203.553216 328.308347 
C 212.140304 336.895435 222.335363 343.707556 233.554935 348.354854 
C 244.774506 353.002153 256.800398 355.394252 268.944375 355.394252 
C 281.088352 355.394252 293.114244 353.002153 304.333815 348.354854 
C 315.553387 343.707556 325.748446 336.895435 334.335534 328.308347 
C 342.922623 319.721258 349.734743 309.526199 354.382042 298.306628 
C 359.029341 287.087056 361.421439 275.061164 361.421439 262.917187 
" clip-path="url(#p2bf21b7ce6)" style="fill: none; stroke: #b0b0b0; stroke-width: 0.8; stroke-linecap: square"/>
     </g>
     <g id="text_6">
      <!-- 100 -->
      <g transform="translate(354.382042 225.44806) scale(0.1 -0.1)">
       <defs>
        <path id="DejaVuSans-31" d="M 794 531 
L 1825 531 
L 1825 4091 
L 703 3866 
L 703 4441 
L 1819 4666 
L 2450 4666 
L 2450 531 
L 3481 531 
L 3481 0 
L 794 0 
L 794 531 
z
" transform="scale(0.015625)"/>
       </defs>
       <use xlink:href="#DejaVuSans-31"/>
       <use xlink:href="#DejaVuSans-30" x="63.623047"/>
       <use xlink:href="#DejaVuSans-30" x="127.246094"/>
      </g>
     </g>
    </g>
    <g id="ytick_3">
     <g id="line2d_7">
      <path d="M 407.659971 262.917187 
C 407.659971 244.701222 404.071823 226.662384 397.100875 209.833027 
C 390.129927 193.00367 379.911746 177.711081 367.031114 164.830449 
C 354.150481 151.949816 338.857893 141.731635 322.028536 134.760687 
C 305.199178 127.789739 287.16034 124.201591 268.944375 124.201591 
C 250.72841 124.201591 232.689572 127.789739 215.860214 134.760687 
C 199.030857 141.731635 183.738269 151.949816 170.857636 164.830449 
C 157.977004 177.711081 147.758823 193.00367 140.787875 209.833027 
C 133.816927 226.662384 130.228779 244.701222 130.228779 262.917187 
C 130.228779 281.133153 133.816927 299.171991 140.787875 316.001348 
C 147.758823 332.830705 157.977004 348.123294 170.857636 361.003926 
C 183.738269 373.884559 199.030857 384.10274 215.860214 391.073688 
C 232.689572 398.044636 250.72841 401.632784 268.944375 401.632784 
C 287.16034 401.632784 305.199178 398.044636 322.028536 391.073688 
C 338.857893 384.10274 354.150481 373.884559 367.031114 361.003926 
C 379.911746 348.123294 390.129927 332.830705 397.100875 316.001348 
C 404.071823 299.171991 407.659971 281.133153 407.659971 262.917188 
" clip-path="url(#p2bf21b7ce6)" style="fill: none; stroke: #b0b0b0; stroke-width: 0.8; stroke-linecap: square"/>
     </g>
     <g id="text_7">
      <!-- 150 -->
      <g transform="translate(397.100875 207.753339) scale(0.1 -0.1)">
       <use xlink:href="#DejaVuSans-31"/>
       <use xlink:href="#DejaVuSans-35" x="63.623047"/>
       <use xlink:href="#DejaVuSans-30" x="127.246094"/>
      </g>
     </g>
    </g>
    <g id="ytick_4">
     <g id="line2d_8">
      <path d="M 453.898503 262.917187 
C 453.898503 238.629234 449.114306 214.57745 439.819709 192.138307 
C 430.525111 169.699164 416.90087 149.309046 399.726693 132.134869 
C 382.552517 114.960692 362.162399 101.336451 339.723256 92.041854 
C 317.284112 82.747256 293.232329 77.963059 268.944375 77.963059 
C 244.656421 77.963059 220.604638 82.747256 198.165494 92.041854 
C 175.726351 101.336451 155.336233 114.960692 138.162057 132.134869 
C 120.98788 149.309046 107.363639 169.699164 98.069041 192.138307 
C 88.774444 214.57745 83.990247 238.629234 83.990247 262.917187 
C 83.990247 287.205141 88.774444 311.256925 98.069041 333.696068 
C 107.363639 356.135211 120.98788 376.525329 138.162057 393.699506 
C 155.336233 410.873683 175.726351 424.497924 198.165494 433.792521 
C 220.604638 443.087119 244.656421 447.871316 268.944375 447.871316 
C 293.232329 447.871316 317.284112 443.087119 339.723256 433.792521 
C 362.162399 424.497924 382.552517 410.873683 399.726693 393.699506 
C 416.90087 376.525329 430.525111 356.135211 439.819709 333.696068 
C 449.114306 311.256925 453.898503 287.205141 453.898503 262.917188 
" clip-path="url(#p2bf21b7ce6)" style="fill: none; stroke: #b0b0b0; stroke-width: 0.8; stroke-linecap: square"/>
     </g>
     <g id="text_8">
      <!-- 200 -->
      <g transform="translate(439.819709 190.058619) scale(0.1 -0.1)">
       <defs>
        <path id="DejaVuSans-32" d="M 1228 531 
L 3431 531 
L 3431 0 
L 469 0 
L 469 531 
Q 828 903 1448 1529 
Q 2069 2156 2228 2338 
Q 2531 2678 2651 2914 
Q 2772 3150 2772 3378 
Q 2772 3750 2511 3984 
Q 2250 4219 1831 4219 
Q 1534 4219 1204 4116 
Q 875 4013 500 3803 
L 500 4441 
Q 881 4594 1212 4672 
Q 1544 4750 1819 4750 
Q 2544 4750 2975 4387 
Q 3406 4025 3406 3419 
Q 3406 3131 3298 2873 
Q 3191 2616 2906 2266 
Q 2828 2175 2409 1742 
Q 1991 1309 1228 531 
z
" transform="scale(0.015625)"/>
       </defs>
       <use xlink:href="#DejaVuSans-32"/>
       <use xlink:href="#DejaVuSans-30" x="63.623047"/>
       <use xlink:href="#DejaVuSans-30" x="127.246094"/>
      </g>
     </g>
    </g>
   </g>
   <g id="line2d_9">
    <path d="M 345.700338 262.917187 
L 268.944375 191.709848 
L 220.856302 262.917187 
L 268.944375 280.48783 
L 345.700338 262.917187 
" clip-path="url(#p2bf21b7ce6)" style="fill: none; stroke: #008000; stroke-linecap: square"/>
   </g>
   <g id="line2d_10">
    <path d="M 416.907678 262.917187 
L 268.944375 51.14471 
L 135.777403 262.917187 
L 268.944375 280.48783 
L 416.907678 262.917187 
" clip-path="url(#p2bf21b7ce6)" style="fill: none; stroke: #ff0000; stroke-linecap: square"/>
   </g>
   <g id="line2d_11">
    <path d="M 442.801256 262.917187 
L 268.944375 78.88783 
L 169.069146 262.917187 
L 268.944375 274.939206 
L 442.801256 262.917187 
" clip-path="url(#p2bf21b7ce6)" style="fill: none; stroke: #0000ff; stroke-linecap: square"/>
   </g>
   <g id="patch_6">
    <path d="M 490.704375 262.917187 
C 490.704375 233.795931 484.968122 204.957842 473.8239 178.05331 
C 462.679678 151.148777 446.344213 126.701026 425.752375 106.109188 
C 405.160537 85.51735 380.712786 69.181885 353.808253 58.037662 
C 326.90372 46.89344 298.065631 41.157187 268.944375 41.157187 
C 239.823119 41.157187 210.98503 46.89344 184.080497 58.037662 
C 157.175964 69.181885 132.728213 85.51735 112.136375 106.109188 
C 91.544537 126.701026 75.209072 151.148777 64.06485 178.05331 
C 52.920628 204.957842 47.184375 233.795931 47.184375 262.917187 
C 47.184375 292.038444 52.920628 320.876533 64.06485 347.781065 
C 75.209072 374.685598 91.544537 399.133349 112.136375 419.725187 
C 132.728213 440.317025 157.175964 456.65249 184.080497 467.796713 
C 210.98503 478.940935 239.823119 484.677187 268.944375 484.677187 
C 298.065631 484.677187 326.90372 478.940935 353.808253 467.796713 
C 380.712786 456.65249 405.160537 440.317025 425.752375 419.725187 
C 446.344213 399.133349 462.679678 374.685598 473.8239 347.781065 
C 484.968122 320.876533 490.704375 292.038444 490.704375 262.917188 
" style="fill: none; stroke: #000000; stroke-width: 0.8; stroke-linejoin: miter; stroke-linecap: square"/>
   </g>
   <g id="text_9">
    <!-- Taux de variation des SAU entre 2010 &amp; 2020 -->
    <g transform="translate(131.819062 16.318125) scale(0.12 -0.12)">
     <defs>
      <path id="DejaVuSans-54" d="M -19 4666 
L 3928 4666 
L 3928 4134 
L 2272 4134 
L 2272 0 
L 1638 0 
L 1638 4134 
L -19 4134 
L -19 4666 
z
" transform="scale(0.015625)"/>
      <path id="DejaVuSans-75" d="M 544 1381 
L 544 3500 
L 1119 3500 
L 1119 1403 
Q 1119 906 1312 657 
Q 1506 409 1894 409 
Q 2359 409 2629 706 
Q 2900 1003 2900 1516 
L 2900 3500 
L 3475 3500 
L 3475 0 
L 2900 0 
L 2900 538 
Q 2691 219 2414 64 
Q 2138 -91 1772 -91 
Q 1169 -91 856 284 
Q 544 659 544 1381 
z
M 1991 3584 
L 1991 3584 
z
" transform="scale(0.015625)"/>
      <path id="DejaVuSans-20" transform="scale(0.015625)"/>
      <path id="DejaVuSans-76" d="M 191 3500 
L 800 3500 
L 1894 563 
L 2988 3500 
L 3597 3500 
L 2284 0 
L 1503 0 
L 191 3500 
z
" transform="scale(0.015625)"/>
      <path id="DejaVuSans-53" d="M 3425 4513 
L 3425 3897 
Q 3066 4069 2747 4153 
Q 2428 4238 2131 4238 
Q 1616 4238 1336 4038 
Q 1056 3838 1056 3469 
Q 1056 3159 1242 3001 
Q 1428 2844 1947 2747 
L 2328 2669 
Q 3034 2534 3370 2195 
Q 3706 1856 3706 1288 
Q 3706 609 3251 259 
Q 2797 -91 1919 -91 
Q 1588 -91 1214 -16 
Q 841 59 441 206 
L 441 856 
Q 825 641 1194 531 
Q 1563 422 1919 422 
Q 2459 422 2753 634 
Q 3047 847 3047 1241 
Q 3047 1584 2836 1778 
Q 2625 1972 2144 2069 
L 1759 2144 
Q 1053 2284 737 2584 
Q 422 2884 422 3419 
Q 422 4038 858 4394 
Q 1294 4750 2059 4750 
Q 2388 4750 2728 4690 
Q 3069 4631 3425 4513 
z
" transform="scale(0.015625)"/>
      <path id="DejaVuSans-41" d="M 2188 4044 
L 1331 1722 
L 3047 1722 
L 2188 4044 
z
M 1831 4666 
L 2547 4666 
L 4325 0 
L 3669 0 
L 3244 1197 
L 1141 1197 
L 716 0 
L 50 0 
L 1831 4666 
z
" transform="scale(0.015625)"/>
      <path id="DejaVuSans-55" d="M 556 4666 
L 1191 4666 
L 1191 1831 
Q 1191 1081 1462 751 
Q 1734 422 2344 422 
Q 2950 422 3222 751 
Q 3494 1081 3494 1831 
L 3494 4666 
L 4128 4666 
L 4128 1753 
Q 4128 841 3676 375 
Q 3225 -91 2344 -91 
Q 1459 -91 1007 375 
Q 556 841 556 1753 
L 556 4666 
z
" transform="scale(0.015625)"/>
      <path id="DejaVuSans-26" d="M 1556 2509 
Q 1272 2256 1139 2004 
Q 1006 1753 1006 1478 
Q 1006 1022 1337 719 
Q 1669 416 2169 416 
Q 2466 416 2725 514 
Q 2984 613 3213 813 
L 1556 2509 
z
M 1997 2859 
L 3584 1234 
Q 3769 1513 3872 1830 
Q 3975 2147 3994 2503 
L 4575 2503 
Q 4538 2091 4375 1687 
Q 4213 1284 3922 891 
L 4794 0 
L 4006 0 
L 3559 459 
Q 3234 181 2878 45 
Q 2522 -91 2113 -91 
Q 1359 -91 881 339 
Q 403 769 403 1441 
Q 403 1841 612 2192 
Q 822 2544 1241 2853 
Q 1091 3050 1012 3245 
Q 934 3441 934 3628 
Q 934 4134 1281 4442 
Q 1628 4750 2203 4750 
Q 2463 4750 2720 4694 
Q 2978 4638 3244 4525 
L 3244 3956 
Q 2972 4103 2725 4179 
Q 2478 4256 2266 4256 
Q 1938 4256 1733 4082 
Q 1528 3909 1528 3634 
Q 1528 3475 1620 3314 
Q 1713 3153 1997 2859 
z
" transform="scale(0.015625)"/>
     </defs>
     <use xlink:href="#DejaVuSans-54"/>
     <use xlink:href="#DejaVuSans-61" x="44.583984"/>
     <use xlink:href="#DejaVuSans-75" x="105.863281"/>
     <use xlink:href="#DejaVuSans-78" x="169.242188"/>
     <use xlink:href="#DejaVuSans-20" x="228.421875"/>
     <use xlink:href="#DejaVuSans-64" x="260.208984"/>
     <use xlink:href="#DejaVuSans-65" x="323.685547"/>
     <use xlink:href="#DejaVuSans-20" x="385.208984"/>
     <use xlink:href="#DejaVuSans-76" x="416.996094"/>
     <use xlink:href="#DejaVuSans-61" x="476.175781"/>
     <use xlink:href="#DejaVuSans-72" x="537.455078"/>
     <use xlink:href="#DejaVuSans-69" x="578.568359"/>
     <use xlink:href="#DejaVuSans-61" x="606.351562"/>
     <use xlink:href="#DejaVuSans-74" x="667.630859"/>
     <use xlink:href="#DejaVuSans-69" x="706.839844"/>
     <use xlink:href="#DejaVuSans-6f" x="734.623047"/>
     <use xlink:href="#DejaVuSans-6e" x="795.804688"/>
     <use xlink:href="#DejaVuSans-20" x="859.183594"/>
     <use xlink:href="#DejaVuSans-64" x="890.970703"/>
     <use xlink:href="#DejaVuSans-65" x="954.447266"/>
     <use xlink:href="#DejaVuSans-73" x="1015.970703"/>
     <use xlink:href="#DejaVuSans-20" x="1068.070312"/>
     <use xlink:href="#DejaVuSans-53" x="1099.857422"/>
     <use xlink:href="#DejaVuSans-41" x="1165.208984"/>
     <use xlink:href="#DejaVuSans-55" x="1233.617188"/>
     <use xlink:href="#DejaVuSans-20" x="1306.810547"/>
     <use xlink:href="#DejaVuSans-65" x="1338.597656"/>
     <use xlink:href="#DejaVuSans-6e" x="1400.121094"/>
     <use xlink:href="#DejaVuSans-74" x="1463.5"/>
     <use xlink:href="#DejaVuSans-72" x="1502.708984"/>
     <use xlink:href="#DejaVuSans-65" x="1541.572266"/>
     <use xlink:href="#DejaVuSans-20" x="1603.095703"/>
     <use xlink:href="#DejaVuSans-32" x="1634.882812"/>
     <use xlink:href="#DejaVuSans-30" x="1698.505859"/>
     <use xlink:href="#DejaVuSans-31" x="1762.128906"/>
     <use xlink:href="#DejaVuSans-30" x="1825.751953"/>
     <use xlink:href="#DejaVuSans-20" x="1889.375"/>
     <use xlink:href="#DejaVuSans-26" x="1921.162109"/>
     <use xlink:href="#DejaVuSans-20" x="1999.140625"/>
     <use xlink:href="#DejaVuSans-32" x="2030.927734"/>
     <use xlink:href="#DejaVuSans-30" x="2094.550781"/>
     <use xlink:href="#DejaVuSans-32" x="2158.173828"/>
     <use xlink:href="#DejaVuSans-30" x="2221.796875"/>
    </g>
   </g>
   <g id="legend_1">
    <g id="patch_7">
     <path d="M 475.826563 107.869687 
L 594.584375 107.869687 
Q 596.584375 107.869687 596.584375 105.869687 
L 596.584375 48.157187 
Q 596.584375 46.157187 594.584375 46.157187 
L 475.826563 46.157187 
Q 473.826563 46.157187 473.826563 48.157187 
L 473.826563 105.869687 
Q 473.826563 107.869687 475.826563 107.869687 
z
" style="fill: #ffffff; opacity: 0.8; stroke: #cccccc; stroke-linejoin: miter"/>
    </g>
    <g id="text_10">
     <!-- Pôles -->
     <g transform="translate(522.242188 57.755625) scale(0.1 -0.1)">
      <defs>
       <path id="DejaVuSans-50" d="M 1259 4147 
L 1259 2394 
L 2053 2394 
Q 2494 2394 2734 2622 
Q 2975 2850 2975 3272 
Q 2975 3691 2734 3919 
Q 2494 4147 2053 4147 
L 1259 4147 
z
M 628 4666 
L 2053 4666 
Q 2838 4666 3239 4311 
Q 3641 3956 3641 3272 
Q 3641 2581 3239 2228 
Q 2838 1875 2053 1875 
L 1259 1875 
L 1259 0 
L 628 0 
L 628 4666 
z
" transform="scale(0.015625)"/>
       <path id="DejaVuSans-f4" d="M 1959 3097 
Q 1497 3097 1228 2736 
Q 959 2375 959 1747 
Q 959 1119 1226 758 
Q 1494 397 1959 397 
Q 2419 397 2687 759 
Q 2956 1122 2956 1747 
Q 2956 2369 2687 2733 
Q 2419 3097 1959 3097 
z
M 1959 3584 
Q 2709 3584 3137 3096 
Q 3566 2609 3566 1747 
Q 3566 888 3137 398 
Q 2709 -91 1959 -91 
Q 1206 -91 779 398 
Q 353 888 353 1747 
Q 353 2609 779 3096 
Q 1206 3584 1959 3584 
z
M 1729 5119 
L 2191 5119 
L 2957 3944 
L 2523 3944 
L 1960 4709 
L 1398 3944 
L 963 3944 
L 1729 5119 
z
" transform="scale(0.015625)"/>
      </defs>
      <use xlink:href="#DejaVuSans-50"/>
      <use xlink:href="#DejaVuSans-f4" x="56.677734"/>
      <use xlink:href="#DejaVuSans-6c" x="117.859375"/>
      <use xlink:href="#DejaVuSans-65" x="145.642578"/>
      <use xlink:href="#DejaVuSans-73" x="207.166016"/>
     </g>
    </g>
    <g id="line2d_12">
     <path d="M 477.826563 68.93375 
L 487.826563 68.93375 
L 497.826563 68.93375 
" style="fill: none; stroke: #008000; stroke-linecap: square"/>
    </g>
    <g id="text_11">
     <!-- Pays de Bidache -->
     <g transform="translate(505.826563 72.43375) scale(0.1 -0.1)">
      <defs>
       <path id="DejaVuSans-42" d="M 1259 2228 
L 1259 519 
L 2272 519 
Q 2781 519 3026 730 
Q 3272 941 3272 1375 
Q 3272 1813 3026 2020 
Q 2781 2228 2272 2228 
L 1259 2228 
z
M 1259 4147 
L 1259 2741 
L 2194 2741 
Q 2656 2741 2882 2914 
Q 3109 3088 3109 3444 
Q 3109 3797 2882 3972 
Q 2656 4147 2194 4147 
L 1259 4147 
z
M 628 4666 
L 2241 4666 
Q 2963 4666 3353 4366 
Q 3744 4066 3744 3513 
Q 3744 3084 3544 2831 
Q 3344 2578 2956 2516 
Q 3422 2416 3680 2098 
Q 3938 1781 3938 1306 
Q 3938 681 3513 340 
Q 3088 0 2303 0 
L 628 0 
L 628 4666 
z
" transform="scale(0.015625)"/>
       <path id="DejaVuSans-68" d="M 3513 2113 
L 3513 0 
L 2938 0 
L 2938 2094 
Q 2938 2591 2744 2837 
Q 2550 3084 2163 3084 
Q 1697 3084 1428 2787 
Q 1159 2491 1159 1978 
L 1159 0 
L 581 0 
L 581 4863 
L 1159 4863 
L 1159 2956 
Q 1366 3272 1645 3428 
Q 1925 3584 2291 3584 
Q 2894 3584 3203 3211 
Q 3513 2838 3513 2113 
z
" transform="scale(0.015625)"/>
      </defs>
      <use xlink:href="#DejaVuSans-50"/>
      <use xlink:href="#DejaVuSans-61" x="55.802734"/>
      <use xlink:href="#DejaVuSans-79" x="117.082031"/>
      <use xlink:href="#DejaVuSans-73" x="176.261719"/>
      <use xlink:href="#DejaVuSans-20" x="228.361328"/>
      <use xlink:href="#DejaVuSans-64" x="260.148438"/>
      <use xlink:href="#DejaVuSans-65" x="323.625"/>
      <use xlink:href="#DejaVuSans-20" x="385.148438"/>
      <use xlink:href="#DejaVuSans-42" x="416.935547"/>
      <use xlink:href="#DejaVuSans-69" x="485.539062"/>
      <use xlink:href="#DejaVuSans-64" x="513.322266"/>
      <use xlink:href="#DejaVuSans-61" x="576.798828"/>
      <use xlink:href="#DejaVuSans-63" x="638.078125"/>
      <use xlink:href="#DejaVuSans-68" x="693.058594"/>
      <use xlink:href="#DejaVuSans-65" x="756.4375"/>
     </g>
    </g>
    <g id="line2d_13">
     <path d="M 477.826563 83.611875 
L 487.826563 83.611875 
L 497.826563 83.611875 
" style="fill: none; stroke: #ff0000; stroke-linecap: square"/>
    </g>
    <g id="text_12">
     <!-- Amikuze -->
     <g transform="translate(505.826563 87.111875) scale(0.1 -0.1)">
      <defs>
       <path id="DejaVuSans-6b" d="M 581 4863 
L 1159 4863 
L 1159 1991 
L 2875 3500 
L 3609 3500 
L 1753 1863 
L 3688 0 
L 2938 0 
L 1159 1709 
L 1159 0 
L 581 0 
L 581 4863 
z
" transform="scale(0.015625)"/>
       <path id="DejaVuSans-7a" d="M 353 3500 
L 3084 3500 
L 3084 2975 
L 922 459 
L 3084 459 
L 3084 0 
L 275 0 
L 275 525 
L 2438 3041 
L 353 3041 
L 353 3500 
z
" transform="scale(0.015625)"/>
      </defs>
      <use xlink:href="#DejaVuSans-41"/>
      <use xlink:href="#DejaVuSans-6d" x="68.408203"/>
      <use xlink:href="#DejaVuSans-69" x="165.820312"/>
      <use xlink:href="#DejaVuSans-6b" x="193.603516"/>
      <use xlink:href="#DejaVuSans-75" x="248.388672"/>
      <use xlink:href="#DejaVuSans-7a" x="311.767578"/>
      <use xlink:href="#DejaVuSans-65" x="364.257812"/>
     </g>
    </g>
    <g id="line2d_14">
     <path d="M 477.826563 98.29 
L 487.826563 98.29 
L 497.826563 98.29 
" style="fill: none; stroke: #0000ff; stroke-linecap: square"/>
    </g>
    <g id="text_13">
     <!-- Pays d'Hasparren -->
     <g transform="translate(505.826563 101.79) scale(0.1 -0.1)">
      <defs>
       <path id="DejaVuSans-27" d="M 1147 4666 
L 1147 2931 
L 616 2931 
L 616 4666 
L 1147 4666 
z
" transform="scale(0.015625)"/>
       <path id="DejaVuSans-48" d="M 628 4666 
L 1259 4666 
L 1259 2753 
L 3553 2753 
L 3553 4666 
L 4184 4666 
L 4184 0 
L 3553 0 
L 3553 2222 
L 1259 2222 
L 1259 0 
L 628 0 
L 628 4666 
z
" transform="scale(0.015625)"/>
      </defs>
      <use xlink:href="#DejaVuSans-50"/>
      <use xlink:href="#DejaVuSans-61" x="55.802734"/>
      <use xlink:href="#DejaVuSans-79" x="117.082031"/>
      <use xlink:href="#DejaVuSans-73" x="176.261719"/>
      <use xlink:href="#DejaVuSans-20" x="228.361328"/>
      <use xlink:href="#DejaVuSans-64" x="260.148438"/>
      <use xlink:href="#DejaVuSans-27" x="323.625"/>
      <use xlink:href="#DejaVuSans-48" x="351.115234"/>
      <use xlink:href="#DejaVuSans-61" x="426.310547"/>
      <use xlink:href="#DejaVuSans-73" x="487.589844"/>
      <use xlink:href="#DejaVuSans-70" x="539.689453"/>
      <use xlink:href="#DejaVuSans-61" x="603.166016"/>
      <use xlink:href="#DejaVuSans-72" x="664.445312"/>
      <use xlink:href="#DejaVuSans-72" x="703.808594"/>
      <use xlink:href="#DejaVuSans-65" x="742.671875"/>
      <use xlink:href="#DejaVuSans-6e" x="804.195312"/>
     </g>
    </g>
   </g>
  </g>
 </g>
 <defs>
  <clipPath id="p2bf21b7ce6">
   <path d="M 490.704375 262.917187 
C 490.704375 233.795931 484.968122 204.957842 473.8239 178.05331 
C 462.679678 151.148777 446.344213 126.701026 425.752375 106.109188 
C 405.160537 85.51735 380.712786 69.181885 353.808253 58.037662 
C 326.90372 46.89344 298.065631 41.157187 268.944375 41.157187 
C 239.823119 41.157187 210.98503 46.89344 184.080497 58.037662 
C 157.175964 69.181885 132.728213 85.51735 112.136375 106.109188 
C 91.544537 126.701026 75.209072 151.148777 64.06485 178.05331 
C 52.920628 204.957842 47.184375 233.795931 47.184375 262.917187 
C 47.184375 292.038444 52.920628 320.876533 64.06485 347.781065 
C 75.209072 374.685598 91.544537 399.133349 112.136375 419.725187 
C 132.728213 440.317025 157.175964 456.65249 184.080497 467.796713 
C 210.98503 478.940935 239.823119 484.677187 268.944375 484.677187 
C 298.065631 484.677187 326.90372 478.940935 353.808253 467.796713 
C 380.712786 456.65249 405.160537 440.317025 425.752375 419.725187 
C 446.344213 399.133349 462.679678 374.685598 473.8239 347.781065 
C 484.968122 320.876533 490.704375 292.038444 490.704375 262.917188 
M 268.944375 262.917187 
C 268.944375 262.917187 268.944375 262.917187 268.944375 262.917187 
C 268.944375 262.917187 268.944375 262.917187 268.944375 262.917187 
C 268.944375 262.917187 268.944375 262.917187 268.944375 262.917187 
C 268.944375 262.917187 268.944375 262.917187 268.944375 262.917187 
C 268.944375 262.917187 268.944375 262.917187 268.944375 262.917187 
C 268.944375 262.917187 268.944375 262.917187 268.944375 262.917187 
C 268.944375 262.917187 268.944375 262.917187 268.944375 262.917187 
C 268.944375 262.917187 268.944375 262.917187 268.944375 262.917187 
C 268.944375 262.917187 268.944375 262.917187 268.944375 262.917187 
C 268.944375 262.917187 268.944375 262.917187 268.944375 262.917187 
C 268.944375 262.917187 268.944375 262.917187 268.944375 262.917187 
C 268.944375 262.917187 268.944375 262.917187 268.944375 262.917187 
C 268.944375 262.917187 268.944375 262.917187 268.944375 262.917187 
C 268.944375 262.917187 268.944375 262.917187 268.944375 262.917187 
C 268.944375 262.917187 268.944375 262.917187 268.944375 262.917187 
C 268.944375 262.917187 268.944375 262.917187 268.944375 262.917187 
z
"/>
  </clipPath>
 </defs>
</svg>
