<?xml version="1.0" encoding="utf-8" standalone="no"?>
<!DOCTYPE svg PUBLIC "-//W3C//DTD SVG 1.1//EN"
  "http://www.w3.org/Graphics/SVG/1.1/DTD/svg11.dtd">
<svg xmlns:xlink="http://www.w3.org/1999/xlink" width="572.88279pt" height="500.611446pt" viewBox="0 0 572.88279 500.611446" xmlns="http://www.w3.org/2000/svg" version="1.1">
 <metadata>
  <rdf:RDF xmlns:dc="http://purl.org/dc/elements/1.1/" xmlns:cc="http://creativecommons.org/ns#" xmlns:rdf="http://www.w3.org/1999/02/22-rdf-syntax-ns#">
   <cc:Work>
    <dc:type rdf:resource="http://purl.org/dc/dcmitype/StillImage"/>
    <dc:date>2023-06-26T13:50:57.970855</dc:date>
    <dc:format>image/svg+xml</dc:format>
    <dc:creator>
     <cc:Agent>
      <dc:title>Matplotlib v3.7.1, https://matplotlib.org/</dc:title>
     </cc:Agent>
    </dc:creator>
   </cc:Work>
  </rdf:RDF>
 </metadata>
 <defs>
  <style type="text/css">*{stroke-linejoin: round; stroke-linecap: butt}</style>
 </defs>
 <g id="figure_1">
  <g id="patch_1">
   <path d="M 0 500.611446 
L 572.88279 500.611446 
L 572.88279 0 
L 0 0 
z
" style="fill: #ffffff"/>
  </g>
  <g id="axes_1">
   <g id="patch_2">
    <path d="M 475.564821 256.394108 
C 475.564821 227.272852 469.828568 198.434763 458.684346 171.53023 
C 447.540124 144.625697 431.204659 120.177946 410.612821 99.586108 
C 390.020983 78.99427 365.573232 62.658805 338.668699 51.514583 
C 311.764166 40.37036 282.926077 34.634108 253.804821 34.634108 
C 224.683564 34.634108 195.845476 40.37036 168.940943 51.514583 
C 142.03641 62.658805 117.588659 78.99427 96.996821 99.586108 
C 76.404983 120.177946 60.069518 144.625697 48.925296 171.53023 
C 37.781073 198.434763 32.044821 227.272852 32.044821 256.394108 
C 32.044821 285.515364 37.781073 314.353453 48.925296 341.257986 
C 60.069518 368.162519 76.404983 392.61027 96.996821 413.202108 
C 117.588659 433.793946 142.03641 450.129411 168.940943 461.273633 
C 195.845476 472.417855 224.683564 478.154108 253.804821 478.154108 
C 282.926077 478.154108 311.764166 472.417855 338.668699 461.273633 
C 365.573232 450.129411 390.020983 433.793946 410.612821 413.202108 
C 431.204659 392.61027 447.540124 368.162519 458.684346 341.257986 
C 469.828568 314.353453 475.564821 285.515364 475.564821 256.394108 
M 253.804821 256.394108 
C 253.804821 256.394108 253.804821 256.394108 253.804821 256.394108 
C 253.804821 256.394108 253.804821 256.394108 253.804821 256.394108 
C 253.804821 256.394108 253.804821 256.394108 253.804821 256.394108 
C 253.804821 256.394108 253.804821 256.394108 253.804821 256.394108 
C 253.804821 256.394108 253.804821 256.394108 253.804821 256.394108 
C 253.804821 256.394108 253.804821 256.394108 253.804821 256.394108 
C 253.804821 256.394108 253.804821 256.394108 253.804821 256.394108 
C 253.804821 256.394108 253.804821 256.394108 253.804821 256.394108 
C 253.804821 256.394108 253.804821 256.394108 253.804821 256.394108 
C 253.804821 256.394108 253.804821 256.394108 253.804821 256.394108 
C 253.804821 256.394108 253.804821 256.394108 253.804821 256.394108 
C 253.804821 256.394108 253.804821 256.394108 253.804821 256.394108 
C 253.804821 256.394108 253.804821 256.394108 253.804821 256.394108 
C 253.804821 256.394108 253.804821 256.394108 253.804821 256.394108 
C 253.804821 256.394108 253.804821 256.394108 253.804821 256.394108 
C 253.804821 256.394108 253.804821 256.394108 253.804821 256.394108 
z
" style="fill: #ffffff"/>
   </g>
   <g id="matplotlib.axis_1">
    <g id="xtick_1">
     <g id="line2d_1">
      <path d="M 253.804821 256.394108 
L 475.564821 256.394108 
" clip-path="url(#p4d22e5cda4)" style="fill: none; stroke: #b0b0b0; stroke-width: 0.8; stroke-linecap: square"/>
     </g>
     <g id="text_1">
      <!-- apiculture (nombre de ruches) -->
      <g transform="translate(413.446852 259.153483) scale(0.1 -0.1)">
       <defs>
        <path id="DejaVuSans-61" d="M 2194 1759 
Q 1497 1759 1228 1600 
Q 959 1441 959 1056 
Q 959 750 1161 570 
Q 1363 391 1709 391 
Q 2188 391 2477 730 
Q 2766 1069 2766 1631 
L 2766 1759 
L 2194 1759 
z
M 3341 1997 
L 3341 0 
L 2766 0 
L 2766 531 
Q 2569 213 2275 61 
Q 1981 -91 1556 -91 
Q 1019 -91 701 211 
Q 384 513 384 1019 
Q 384 1609 779 1909 
Q 1175 2209 1959 2209 
L 2766 2209 
L 2766 2266 
Q 2766 2663 2505 2880 
Q 2244 3097 1772 3097 
Q 1472 3097 1187 3025 
Q 903 2953 641 2809 
L 641 3341 
Q 956 3463 1253 3523 
Q 1550 3584 1831 3584 
Q 2591 3584 2966 3190 
Q 3341 2797 3341 1997 
z
" transform="scale(0.015625)"/>
        <path id="DejaVuSans-70" d="M 1159 525 
L 1159 -1331 
L 581 -1331 
L 581 3500 
L 1159 3500 
L 1159 2969 
Q 1341 3281 1617 3432 
Q 1894 3584 2278 3584 
Q 2916 3584 3314 3078 
Q 3713 2572 3713 1747 
Q 3713 922 3314 415 
Q 2916 -91 2278 -91 
Q 1894 -91 1617 61 
Q 1341 213 1159 525 
z
M 3116 1747 
Q 3116 2381 2855 2742 
Q 2594 3103 2138 3103 
Q 1681 3103 1420 2742 
Q 1159 2381 1159 1747 
Q 1159 1113 1420 752 
Q 1681 391 2138 391 
Q 2594 391 2855 752 
Q 3116 1113 3116 1747 
z
" transform="scale(0.015625)"/>
        <path id="DejaVuSans-69" d="M 603 3500 
L 1178 3500 
L 1178 0 
L 603 0 
L 603 3500 
z
M 603 4863 
L 1178 4863 
L 1178 4134 
L 603 4134 
L 603 4863 
z
" transform="scale(0.015625)"/>
        <path id="DejaVuSans-63" d="M 3122 3366 
L 3122 2828 
Q 2878 2963 2633 3030 
Q 2388 3097 2138 3097 
Q 1578 3097 1268 2742 
Q 959 2388 959 1747 
Q 959 1106 1268 751 
Q 1578 397 2138 397 
Q 2388 397 2633 464 
Q 2878 531 3122 666 
L 3122 134 
Q 2881 22 2623 -34 
Q 2366 -91 2075 -91 
Q 1284 -91 818 406 
Q 353 903 353 1747 
Q 353 2603 823 3093 
Q 1294 3584 2113 3584 
Q 2378 3584 2631 3529 
Q 2884 3475 3122 3366 
z
" transform="scale(0.015625)"/>
        <path id="DejaVuSans-75" d="M 544 1381 
L 544 3500 
L 1119 3500 
L 1119 1403 
Q 1119 906 1312 657 
Q 1506 409 1894 409 
Q 2359 409 2629 706 
Q 2900 1003 2900 1516 
L 2900 3500 
L 3475 3500 
L 3475 0 
L 2900 0 
L 2900 538 
Q 2691 219 2414 64 
Q 2138 -91 1772 -91 
Q 1169 -91 856 284 
Q 544 659 544 1381 
z
M 1991 3584 
L 1991 3584 
z
" transform="scale(0.015625)"/>
        <path id="DejaVuSans-6c" d="M 603 4863 
L 1178 4863 
L 1178 0 
L 603 0 
L 603 4863 
z
" transform="scale(0.015625)"/>
        <path id="DejaVuSans-74" d="M 1172 4494 
L 1172 3500 
L 2356 3500 
L 2356 3053 
L 1172 3053 
L 1172 1153 
Q 1172 725 1289 603 
Q 1406 481 1766 481 
L 2356 481 
L 2356 0 
L 1766 0 
Q 1100 0 847 248 
Q 594 497 594 1153 
L 594 3053 
L 172 3053 
L 172 3500 
L 594 3500 
L 594 4494 
L 1172 4494 
z
" transform="scale(0.015625)"/>
        <path id="DejaVuSans-72" d="M 2631 2963 
Q 2534 3019 2420 3045 
Q 2306 3072 2169 3072 
Q 1681 3072 1420 2755 
Q 1159 2438 1159 1844 
L 1159 0 
L 581 0 
L 581 3500 
L 1159 3500 
L 1159 2956 
Q 1341 3275 1631 3429 
Q 1922 3584 2338 3584 
Q 2397 3584 2469 3576 
Q 2541 3569 2628 3553 
L 2631 2963 
z
" transform="scale(0.015625)"/>
        <path id="DejaVuSans-65" d="M 3597 1894 
L 3597 1613 
L 953 1613 
Q 991 1019 1311 708 
Q 1631 397 2203 397 
Q 2534 397 2845 478 
Q 3156 559 3463 722 
L 3463 178 
Q 3153 47 2828 -22 
Q 2503 -91 2169 -91 
Q 1331 -91 842 396 
Q 353 884 353 1716 
Q 353 2575 817 3079 
Q 1281 3584 2069 3584 
Q 2775 3584 3186 3129 
Q 3597 2675 3597 1894 
z
M 3022 2063 
Q 3016 2534 2758 2815 
Q 2500 3097 2075 3097 
Q 1594 3097 1305 2825 
Q 1016 2553 972 2059 
L 3022 2063 
z
" transform="scale(0.015625)"/>
        <path id="DejaVuSans-20" transform="scale(0.015625)"/>
        <path id="DejaVuSans-28" d="M 1984 4856 
Q 1566 4138 1362 3434 
Q 1159 2731 1159 2009 
Q 1159 1288 1364 580 
Q 1569 -128 1984 -844 
L 1484 -844 
Q 1016 -109 783 600 
Q 550 1309 550 2009 
Q 550 2706 781 3412 
Q 1013 4119 1484 4856 
L 1984 4856 
z
" transform="scale(0.015625)"/>
        <path id="DejaVuSans-6e" d="M 3513 2113 
L 3513 0 
L 2938 0 
L 2938 2094 
Q 2938 2591 2744 2837 
Q 2550 3084 2163 3084 
Q 1697 3084 1428 2787 
Q 1159 2491 1159 1978 
L 1159 0 
L 581 0 
L 581 3500 
L 1159 3500 
L 1159 2956 
Q 1366 3272 1645 3428 
Q 1925 3584 2291 3584 
Q 2894 3584 3203 3211 
Q 3513 2838 3513 2113 
z
" transform="scale(0.015625)"/>
        <path id="DejaVuSans-6f" d="M 1959 3097 
Q 1497 3097 1228 2736 
Q 959 2375 959 1747 
Q 959 1119 1226 758 
Q 1494 397 1959 397 
Q 2419 397 2687 759 
Q 2956 1122 2956 1747 
Q 2956 2369 2687 2733 
Q 2419 3097 1959 3097 
z
M 1959 3584 
Q 2709 3584 3137 3096 
Q 3566 2609 3566 1747 
Q 3566 888 3137 398 
Q 2709 -91 1959 -91 
Q 1206 -91 779 398 
Q 353 888 353 1747 
Q 353 2609 779 3096 
Q 1206 3584 1959 3584 
z
" transform="scale(0.015625)"/>
        <path id="DejaVuSans-6d" d="M 3328 2828 
Q 3544 3216 3844 3400 
Q 4144 3584 4550 3584 
Q 5097 3584 5394 3201 
Q 5691 2819 5691 2113 
L 5691 0 
L 5113 0 
L 5113 2094 
Q 5113 2597 4934 2840 
Q 4756 3084 4391 3084 
Q 3944 3084 3684 2787 
Q 3425 2491 3425 1978 
L 3425 0 
L 2847 0 
L 2847 2094 
Q 2847 2600 2669 2842 
Q 2491 3084 2119 3084 
Q 1678 3084 1418 2786 
Q 1159 2488 1159 1978 
L 1159 0 
L 581 0 
L 581 3500 
L 1159 3500 
L 1159 2956 
Q 1356 3278 1631 3431 
Q 1906 3584 2284 3584 
Q 2666 3584 2933 3390 
Q 3200 3197 3328 2828 
z
" transform="scale(0.015625)"/>
        <path id="DejaVuSans-62" d="M 3116 1747 
Q 3116 2381 2855 2742 
Q 2594 3103 2138 3103 
Q 1681 3103 1420 2742 
Q 1159 2381 1159 1747 
Q 1159 1113 1420 752 
Q 1681 391 2138 391 
Q 2594 391 2855 752 
Q 3116 1113 3116 1747 
z
M 1159 2969 
Q 1341 3281 1617 3432 
Q 1894 3584 2278 3584 
Q 2916 3584 3314 3078 
Q 3713 2572 3713 1747 
Q 3713 922 3314 415 
Q 2916 -91 2278 -91 
Q 1894 -91 1617 61 
Q 1341 213 1159 525 
L 1159 0 
L 581 0 
L 581 4863 
L 1159 4863 
L 1159 2969 
z
" transform="scale(0.015625)"/>
        <path id="DejaVuSans-64" d="M 2906 2969 
L 2906 4863 
L 3481 4863 
L 3481 0 
L 2906 0 
L 2906 525 
Q 2725 213 2448 61 
Q 2172 -91 1784 -91 
Q 1150 -91 751 415 
Q 353 922 353 1747 
Q 353 2572 751 3078 
Q 1150 3584 1784 3584 
Q 2172 3584 2448 3432 
Q 2725 3281 2906 2969 
z
M 947 1747 
Q 947 1113 1208 752 
Q 1469 391 1925 391 
Q 2381 391 2643 752 
Q 2906 1113 2906 1747 
Q 2906 2381 2643 2742 
Q 2381 3103 1925 3103 
Q 1469 3103 1208 2742 
Q 947 2381 947 1747 
z
" transform="scale(0.015625)"/>
        <path id="DejaVuSans-68" d="M 3513 2113 
L 3513 0 
L 2938 0 
L 2938 2094 
Q 2938 2591 2744 2837 
Q 2550 3084 2163 3084 
Q 1697 3084 1428 2787 
Q 1159 2491 1159 1978 
L 1159 0 
L 581 0 
L 581 4863 
L 1159 4863 
L 1159 2956 
Q 1366 3272 1645 3428 
Q 1925 3584 2291 3584 
Q 2894 3584 3203 3211 
Q 3513 2838 3513 2113 
z
" transform="scale(0.015625)"/>
        <path id="DejaVuSans-73" d="M 2834 3397 
L 2834 2853 
Q 2591 2978 2328 3040 
Q 2066 3103 1784 3103 
Q 1356 3103 1142 2972 
Q 928 2841 928 2578 
Q 928 2378 1081 2264 
Q 1234 2150 1697 2047 
L 1894 2003 
Q 2506 1872 2764 1633 
Q 3022 1394 3022 966 
Q 3022 478 2636 193 
Q 2250 -91 1575 -91 
Q 1294 -91 989 -36 
Q 684 19 347 128 
L 347 722 
Q 666 556 975 473 
Q 1284 391 1588 391 
Q 1994 391 2212 530 
Q 2431 669 2431 922 
Q 2431 1156 2273 1281 
Q 2116 1406 1581 1522 
L 1381 1569 
Q 847 1681 609 1914 
Q 372 2147 372 2553 
Q 372 3047 722 3315 
Q 1072 3584 1716 3584 
Q 2034 3584 2315 3537 
Q 2597 3491 2834 3397 
z
" transform="scale(0.015625)"/>
        <path id="DejaVuSans-29" d="M 513 4856 
L 1013 4856 
Q 1481 4119 1714 3412 
Q 1947 2706 1947 2009 
Q 1947 1309 1714 600 
Q 1481 -109 1013 -844 
L 513 -844 
Q 928 -128 1133 580 
Q 1338 1288 1338 2009 
Q 1338 2731 1133 3434 
Q 928 4138 513 4856 
z
" transform="scale(0.015625)"/>
       </defs>
       <use xlink:href="#DejaVuSans-61"/>
       <use xlink:href="#DejaVuSans-70" x="61.279297"/>
       <use xlink:href="#DejaVuSans-69" x="124.755859"/>
       <use xlink:href="#DejaVuSans-63" x="152.539062"/>
       <use xlink:href="#DejaVuSans-75" x="207.519531"/>
       <use xlink:href="#DejaVuSans-6c" x="270.898438"/>
       <use xlink:href="#DejaVuSans-74" x="298.681641"/>
       <use xlink:href="#DejaVuSans-75" x="337.890625"/>
       <use xlink:href="#DejaVuSans-72" x="401.269531"/>
       <use xlink:href="#DejaVuSans-65" x="440.132812"/>
       <use xlink:href="#DejaVuSans-20" x="501.65625"/>
       <use xlink:href="#DejaVuSans-28" x="533.443359"/>
       <use xlink:href="#DejaVuSans-6e" x="572.457031"/>
       <use xlink:href="#DejaVuSans-6f" x="635.835938"/>
       <use xlink:href="#DejaVuSans-6d" x="697.017578"/>
       <use xlink:href="#DejaVuSans-62" x="794.429688"/>
       <use xlink:href="#DejaVuSans-72" x="857.90625"/>
       <use xlink:href="#DejaVuSans-65" x="896.769531"/>
       <use xlink:href="#DejaVuSans-20" x="958.292969"/>
       <use xlink:href="#DejaVuSans-64" x="990.080078"/>
       <use xlink:href="#DejaVuSans-65" x="1053.556641"/>
       <use xlink:href="#DejaVuSans-20" x="1115.080078"/>
       <use xlink:href="#DejaVuSans-72" x="1146.867188"/>
       <use xlink:href="#DejaVuSans-75" x="1187.980469"/>
       <use xlink:href="#DejaVuSans-63" x="1251.359375"/>
       <use xlink:href="#DejaVuSans-68" x="1306.339844"/>
       <use xlink:href="#DejaVuSans-65" x="1369.71875"/>
       <use xlink:href="#DejaVuSans-73" x="1431.242188"/>
       <use xlink:href="#DejaVuSans-29" x="1483.341797"/>
      </g>
     </g>
    </g>
    <g id="xtick_2">
     <g id="line2d_2">
      <path d="M 253.804821 256.394108 
L 390.33391 81.644843 
" clip-path="url(#p4d22e5cda4)" style="fill: none; stroke: #b0b0b0; stroke-width: 0.8; stroke-linecap: square"/>
     </g>
     <g id="text_2">
      <!-- total équins -->
      <g transform="translate(369.349264 73.572068) scale(0.1 -0.1)">
       <defs>
        <path id="DejaVuSans-e9" d="M 3597 1894 
L 3597 1613 
L 953 1613 
Q 991 1019 1311 708 
Q 1631 397 2203 397 
Q 2534 397 2845 478 
Q 3156 559 3463 722 
L 3463 178 
Q 3153 47 2828 -22 
Q 2503 -91 2169 -91 
Q 1331 -91 842 396 
Q 353 884 353 1716 
Q 353 2575 817 3079 
Q 1281 3584 2069 3584 
Q 2775 3584 3186 3129 
Q 3597 2675 3597 1894 
z
M 3022 2063 
Q 3016 2534 2758 2815 
Q 2500 3097 2075 3097 
Q 1594 3097 1305 2825 
Q 1016 2553 972 2059 
L 3022 2063 
z
M 2466 5119 
L 3088 5119 
L 2070 3944 
L 1591 3944 
L 2466 5119 
z
" transform="scale(0.015625)"/>
        <path id="DejaVuSans-71" d="M 947 1747 
Q 947 1113 1208 752 
Q 1469 391 1925 391 
Q 2381 391 2643 752 
Q 2906 1113 2906 1747 
Q 2906 2381 2643 2742 
Q 2381 3103 1925 3103 
Q 1469 3103 1208 2742 
Q 947 2381 947 1747 
z
M 2906 525 
Q 2725 213 2448 61 
Q 2172 -91 1784 -91 
Q 1150 -91 751 415 
Q 353 922 353 1747 
Q 353 2572 751 3078 
Q 1150 3584 1784 3584 
Q 2172 3584 2448 3432 
Q 2725 3281 2906 2969 
L 2906 3500 
L 3481 3500 
L 3481 -1331 
L 2906 -1331 
L 2906 525 
z
" transform="scale(0.015625)"/>
       </defs>
       <use xlink:href="#DejaVuSans-74"/>
       <use xlink:href="#DejaVuSans-6f" x="39.208984"/>
       <use xlink:href="#DejaVuSans-74" x="100.390625"/>
       <use xlink:href="#DejaVuSans-61" x="139.599609"/>
       <use xlink:href="#DejaVuSans-6c" x="200.878906"/>
       <use xlink:href="#DejaVuSans-20" x="228.662109"/>
       <use xlink:href="#DejaVuSans-e9" x="260.449219"/>
       <use xlink:href="#DejaVuSans-71" x="321.972656"/>
       <use xlink:href="#DejaVuSans-75" x="385.449219"/>
       <use xlink:href="#DejaVuSans-69" x="448.828125"/>
       <use xlink:href="#DejaVuSans-6e" x="476.611328"/>
       <use xlink:href="#DejaVuSans-73" x="539.990234"/>
      </g>
     </g>
    </g>
    <g id="xtick_3">
     <g id="line2d_3">
      <path d="M 253.804821 256.394108 
L 200.156221 41.221328 
" clip-path="url(#p4d22e5cda4)" style="fill: none; stroke: #b0b0b0; stroke-width: 0.8; stroke-linecap: square"/>
     </g>
     <g id="text_3">
      <!-- total bovins -->
      <g transform="translate(167.391971 30.396563) scale(0.1 -0.1)">
       <defs>
        <path id="DejaVuSans-76" d="M 191 3500 
L 800 3500 
L 1894 563 
L 2988 3500 
L 3597 3500 
L 2284 0 
L 1503 0 
L 191 3500 
z
" transform="scale(0.015625)"/>
       </defs>
       <use xlink:href="#DejaVuSans-74"/>
       <use xlink:href="#DejaVuSans-6f" x="39.208984"/>
       <use xlink:href="#DejaVuSans-74" x="100.390625"/>
       <use xlink:href="#DejaVuSans-61" x="139.599609"/>
       <use xlink:href="#DejaVuSans-6c" x="200.878906"/>
       <use xlink:href="#DejaVuSans-20" x="228.662109"/>
       <use xlink:href="#DejaVuSans-62" x="260.449219"/>
       <use xlink:href="#DejaVuSans-6f" x="323.925781"/>
       <use xlink:href="#DejaVuSans-76" x="385.107422"/>
       <use xlink:href="#DejaVuSans-69" x="444.287109"/>
       <use xlink:href="#DejaVuSans-6e" x="472.070312"/>
       <use xlink:href="#DejaVuSans-73" x="535.449219"/>
      </g>
     </g>
    </g>
    <g id="xtick_4">
     <g id="line2d_4">
      <path d="M 253.804821 256.394108 
L 51.21698 166.19619 
" clip-path="url(#p4d22e5cda4)" style="fill: none; stroke: #b0b0b0; stroke-width: 0.8; stroke-linecap: square"/>
     </g>
     <g id="text_4">
      <!-- total caprins -->
      <g transform="translate(7.2 163.261252) scale(0.1 -0.1)">
       <use xlink:href="#DejaVuSans-74"/>
       <use xlink:href="#DejaVuSans-6f" x="39.208984"/>
       <use xlink:href="#DejaVuSans-74" x="100.390625"/>
       <use xlink:href="#DejaVuSans-61" x="139.599609"/>
       <use xlink:href="#DejaVuSans-6c" x="200.878906"/>
       <use xlink:href="#DejaVuSans-20" x="228.662109"/>
       <use xlink:href="#DejaVuSans-63" x="260.449219"/>
       <use xlink:href="#DejaVuSans-61" x="315.429688"/>
       <use xlink:href="#DejaVuSans-70" x="376.708984"/>
       <use xlink:href="#DejaVuSans-72" x="440.185547"/>
       <use xlink:href="#DejaVuSans-69" x="481.298828"/>
       <use xlink:href="#DejaVuSans-6e" x="509.082031"/>
       <use xlink:href="#DejaVuSans-73" x="572.460938"/>
      </g>
     </g>
    </g>
    <g id="xtick_5">
     <g id="line2d_5">
      <path d="M 253.804821 256.394108 
L 58.002363 360.504122 
" clip-path="url(#p4d22e5cda4)" style="fill: none; stroke: #b0b0b0; stroke-width: 0.8; stroke-linecap: square"/>
     </g>
     <g id="text_5">
      <!-- total ovins -->
      <g transform="translate(19.437971 369.836099) scale(0.1 -0.1)">
       <use xlink:href="#DejaVuSans-74"/>
       <use xlink:href="#DejaVuSans-6f" x="39.208984"/>
       <use xlink:href="#DejaVuSans-74" x="100.390625"/>
       <use xlink:href="#DejaVuSans-61" x="139.599609"/>
       <use xlink:href="#DejaVuSans-6c" x="200.878906"/>
       <use xlink:href="#DejaVuSans-20" x="228.662109"/>
       <use xlink:href="#DejaVuSans-6f" x="260.449219"/>
       <use xlink:href="#DejaVuSans-76" x="321.630859"/>
       <use xlink:href="#DejaVuSans-69" x="380.810547"/>
       <use xlink:href="#DejaVuSans-6e" x="408.59375"/>
       <use xlink:href="#DejaVuSans-73" x="471.972656"/>
      </g>
     </g>
    </g>
    <g id="xtick_6">
     <g id="line2d_6">
      <path d="M 253.804821 256.394108 
L 215.296601 474.785075 
" clip-path="url(#p4d22e5cda4)" style="fill: none; stroke: #b0b0b0; stroke-width: 0.8; stroke-linecap: square"/>
     </g>
     <g id="text_6">
      <!-- total porcins -->
      <g transform="translate(181.75537 491.331759) scale(0.1 -0.1)">
       <use xlink:href="#DejaVuSans-74"/>
       <use xlink:href="#DejaVuSans-6f" x="39.208984"/>
       <use xlink:href="#DejaVuSans-74" x="100.390625"/>
       <use xlink:href="#DejaVuSans-61" x="139.599609"/>
       <use xlink:href="#DejaVuSans-6c" x="200.878906"/>
       <use xlink:href="#DejaVuSans-20" x="228.662109"/>
       <use xlink:href="#DejaVuSans-70" x="260.449219"/>
       <use xlink:href="#DejaVuSans-6f" x="323.925781"/>
       <use xlink:href="#DejaVuSans-72" x="385.107422"/>
       <use xlink:href="#DejaVuSans-63" x="423.970703"/>
       <use xlink:href="#DejaVuSans-69" x="478.951172"/>
       <use xlink:href="#DejaVuSans-6e" x="506.734375"/>
       <use xlink:href="#DejaVuSans-73" x="570.113281"/>
      </g>
     </g>
    </g>
    <g id="xtick_7">
     <g id="line2d_7">
      <path d="M 253.804821 256.394108 
L 402.191224 421.193904 
" clip-path="url(#p4d22e5cda4)" style="fill: none; stroke: #b0b0b0; stroke-width: 0.8; stroke-linecap: square"/>
     </g>
     <g id="text_7">
      <!-- total volailles -->
      <g transform="translate(378.216865 434.357307) scale(0.1 -0.1)">
       <use xlink:href="#DejaVuSans-74"/>
       <use xlink:href="#DejaVuSans-6f" x="39.208984"/>
       <use xlink:href="#DejaVuSans-74" x="100.390625"/>
       <use xlink:href="#DejaVuSans-61" x="139.599609"/>
       <use xlink:href="#DejaVuSans-6c" x="200.878906"/>
       <use xlink:href="#DejaVuSans-20" x="228.662109"/>
       <use xlink:href="#DejaVuSans-76" x="260.449219"/>
       <use xlink:href="#DejaVuSans-6f" x="319.628906"/>
       <use xlink:href="#DejaVuSans-6c" x="380.810547"/>
       <use xlink:href="#DejaVuSans-61" x="408.59375"/>
       <use xlink:href="#DejaVuSans-69" x="469.873047"/>
       <use xlink:href="#DejaVuSans-6c" x="497.65625"/>
       <use xlink:href="#DejaVuSans-6c" x="525.439453"/>
       <use xlink:href="#DejaVuSans-65" x="553.222656"/>
       <use xlink:href="#DejaVuSans-73" x="614.746094"/>
      </g>
     </g>
    </g>
   </g>
   <g id="matplotlib.axis_2">
    <g id="ytick_1">
     <g id="line2d_8">
      <path d="M 285.967564 256.394108 
C 285.967564 252.170535 285.135612 247.988031 283.519321 244.085959 
C 281.903029 240.183887 279.533831 236.638131 276.547314 233.651614 
C 273.560798 230.665097 270.015042 228.295899 266.11297 226.679608 
C 262.210897 225.063317 258.028394 224.231365 253.804821 224.231365 
C 249.581248 224.231365 245.398744 225.063317 241.496672 226.679608 
C 237.5946 228.295899 234.048844 230.665097 231.062327 233.651614 
C 228.07581 236.638131 225.706612 240.183887 224.090321 244.085959 
C 222.47403 247.988031 221.642078 252.170535 221.642078 256.394108 
C 221.642078 260.617681 222.47403 264.800184 224.090321 268.702257 
C 225.706612 272.604329 228.07581 276.150085 231.062327 279.136602 
C 234.048844 282.123118 237.5946 284.492316 241.496672 286.108608 
C 245.398744 287.724899 249.581248 288.556851 253.804821 288.556851 
C 258.028394 288.556851 262.210897 287.724899 266.11297 286.108608 
C 270.015042 284.492316 273.560798 282.123118 276.547314 279.136602 
C 279.533831 276.150085 281.903029 272.604329 283.519321 268.702257 
C 285.135612 264.800184 285.967564 260.617681 285.967564 256.394108 
" clip-path="url(#p4d22e5cda4)" style="fill: none; stroke: #b0b0b0; stroke-width: 0.8; stroke-linecap: square"/>
     </g>
     <g id="text_8">
      <!-- 0.05 -->
      <g transform="translate(283.519321 242.006272) scale(0.1 -0.1)">
       <defs>
        <path id="DejaVuSans-30" d="M 2034 4250 
Q 1547 4250 1301 3770 
Q 1056 3291 1056 2328 
Q 1056 1369 1301 889 
Q 1547 409 2034 409 
Q 2525 409 2770 889 
Q 3016 1369 3016 2328 
Q 3016 3291 2770 3770 
Q 2525 4250 2034 4250 
z
M 2034 4750 
Q 2819 4750 3233 4129 
Q 3647 3509 3647 2328 
Q 3647 1150 3233 529 
Q 2819 -91 2034 -91 
Q 1250 -91 836 529 
Q 422 1150 422 2328 
Q 422 3509 836 4129 
Q 1250 4750 2034 4750 
z
" transform="scale(0.015625)"/>
        <path id="DejaVuSans-2e" d="M 684 794 
L 1344 794 
L 1344 0 
L 684 0 
L 684 794 
z
" transform="scale(0.015625)"/>
        <path id="DejaVuSans-35" d="M 691 4666 
L 3169 4666 
L 3169 4134 
L 1269 4134 
L 1269 2991 
Q 1406 3038 1543 3061 
Q 1681 3084 1819 3084 
Q 2600 3084 3056 2656 
Q 3513 2228 3513 1497 
Q 3513 744 3044 326 
Q 2575 -91 1722 -91 
Q 1428 -91 1123 -41 
Q 819 9 494 109 
L 494 744 
Q 775 591 1075 516 
Q 1375 441 1709 441 
Q 2250 441 2565 725 
Q 2881 1009 2881 1497 
Q 2881 1984 2565 2268 
Q 2250 2553 1709 2553 
Q 1456 2553 1204 2497 
Q 953 2441 691 2322 
L 691 4666 
z
" transform="scale(0.015625)"/>
       </defs>
       <use xlink:href="#DejaVuSans-30"/>
       <use xlink:href="#DejaVuSans-2e" x="63.623047"/>
       <use xlink:href="#DejaVuSans-30" x="95.410156"/>
       <use xlink:href="#DejaVuSans-35" x="159.033203"/>
      </g>
     </g>
    </g>
    <g id="ytick_2">
     <g id="line2d_9">
      <path d="M 318.130307 256.394108 
C 318.130307 247.946963 316.466403 239.581955 313.233821 231.77781 
C 310.001238 223.973666 305.262842 216.882155 299.289808 210.909121 
C 293.316774 204.936087 286.225263 200.197691 278.421119 196.965108 
C 270.616974 193.732526 262.251966 192.068622 253.804821 192.068622 
C 245.357675 192.068622 236.992668 193.732526 229.188523 196.965108 
C 221.384378 200.197691 214.292867 204.936087 208.319834 210.909121 
C 202.3468 216.882155 197.608404 223.973666 194.375821 231.77781 
C 191.143239 239.581955 189.479335 247.946963 189.479335 256.394108 
C 189.479335 264.841253 191.143239 273.206261 194.375821 281.010406 
C 197.608404 288.81455 202.3468 295.906061 208.319834 301.879095 
C 214.292867 307.852129 221.384378 312.590525 229.188523 315.823108 
C 236.992668 319.05569 245.357675 320.719594 253.804821 320.719594 
C 262.251966 320.719594 270.616974 319.05569 278.421119 315.823108 
C 286.225263 312.590525 293.316774 307.852129 299.289808 301.879095 
C 305.262842 295.906061 310.001238 288.81455 313.233821 281.010406 
C 316.466403 273.206261 318.130307 264.841253 318.130307 256.394108 
" clip-path="url(#p4d22e5cda4)" style="fill: none; stroke: #b0b0b0; stroke-width: 0.8; stroke-linecap: square"/>
     </g>
     <g id="text_9">
      <!-- 0.10 -->
      <g transform="translate(313.233821 229.698123) scale(0.1 -0.1)">
       <defs>
        <path id="DejaVuSans-31" d="M 794 531 
L 1825 531 
L 1825 4091 
L 703 3866 
L 703 4441 
L 1819 4666 
L 2450 4666 
L 2450 531 
L 3481 531 
L 3481 0 
L 794 0 
L 794 531 
z
" transform="scale(0.015625)"/>
       </defs>
       <use xlink:href="#DejaVuSans-30"/>
       <use xlink:href="#DejaVuSans-2e" x="63.623047"/>
       <use xlink:href="#DejaVuSans-31" x="95.410156"/>
       <use xlink:href="#DejaVuSans-30" x="159.033203"/>
      </g>
     </g>
    </g>
    <g id="ytick_3">
     <g id="line2d_10">
      <path d="M 350.293049 256.394108 
C 350.293049 243.72339 347.797194 231.175879 342.94832 219.469661 
C 338.099446 207.763444 330.991852 197.126178 322.032302 188.166627 
C 313.072751 179.207077 302.435484 172.099482 290.729267 167.250608 
C 279.02305 162.401735 266.475539 159.905879 253.804821 159.905879 
C 241.134103 159.905879 228.586591 162.401735 216.880374 167.250608 
C 205.174157 172.099482 194.536891 179.207077 185.57734 188.166627 
C 176.617789 197.126178 169.510195 207.763444 164.661321 219.469661 
C 159.812447 231.175879 157.316592 243.72339 157.316592 256.394108 
C 157.316592 269.064826 159.812447 281.612337 164.661321 293.318554 
C 169.510195 305.024772 176.617789 315.662038 185.57734 324.621589 
C 194.536891 333.581139 205.174157 340.688734 216.880374 345.537607 
C 228.586591 350.386481 241.134103 352.882336 253.804821 352.882336 
C 266.475539 352.882336 279.02305 350.386481 290.729267 345.537607 
C 302.435484 340.688734 313.072751 333.581139 322.032302 324.621589 
C 330.991852 315.662038 338.099446 305.024772 342.94832 293.318554 
C 347.797194 281.612337 350.293049 269.064826 350.293049 256.394108 
" clip-path="url(#p4d22e5cda4)" style="fill: none; stroke: #b0b0b0; stroke-width: 0.8; stroke-linecap: square"/>
     </g>
     <g id="text_10">
      <!-- 0.15 -->
      <g transform="translate(342.94832 217.389974) scale(0.1 -0.1)">
       <use xlink:href="#DejaVuSans-30"/>
       <use xlink:href="#DejaVuSans-2e" x="63.623047"/>
       <use xlink:href="#DejaVuSans-31" x="95.410156"/>
       <use xlink:href="#DejaVuSans-35" x="159.033203"/>
      </g>
     </g>
    </g>
    <g id="ytick_4">
     <g id="line2d_11">
      <path d="M 382.455792 256.394108 
C 382.455792 239.499817 379.127985 222.769802 372.66282 207.161513 
C 366.197655 191.553223 356.720863 177.370201 344.774795 165.424134 
C 332.828728 153.478066 318.645706 144.001274 303.037416 137.536109 
C 287.429127 131.070943 270.699112 127.743136 253.804821 127.743136 
C 236.91053 127.743136 220.180515 131.070943 204.572226 137.536109 
C 188.963936 144.001274 174.780914 153.478066 162.834847 165.424134 
C 150.888779 177.370201 141.411987 191.553223 134.946822 207.161513 
C 128.481656 222.769802 125.153849 239.499817 125.153849 256.394108 
C 125.153849 273.288399 128.481656 290.018414 134.946822 305.626703 
C 141.411987 321.234993 150.888779 335.418015 162.834847 347.364082 
C 174.780914 359.31015 188.963936 368.786942 204.572226 375.252107 
C 220.180515 381.717272 236.91053 385.045079 253.804821 385.045079 
C 270.699112 385.045079 287.429127 381.717272 303.037416 375.252107 
C 318.645706 368.786942 332.828728 359.31015 344.774795 347.364082 
C 356.720863 335.418015 366.197655 321.234993 372.66282 305.626703 
C 379.127985 290.018414 382.455792 273.288399 382.455792 256.394108 
" clip-path="url(#p4d22e5cda4)" style="fill: none; stroke: #b0b0b0; stroke-width: 0.8; stroke-linecap: square"/>
     </g>
     <g id="text_11">
      <!-- 0.20 -->
      <g transform="translate(372.66282 205.081825) scale(0.1 -0.1)">
       <defs>
        <path id="DejaVuSans-32" d="M 1228 531 
L 3431 531 
L 3431 0 
L 469 0 
L 469 531 
Q 828 903 1448 1529 
Q 2069 2156 2228 2338 
Q 2531 2678 2651 2914 
Q 2772 3150 2772 3378 
Q 2772 3750 2511 3984 
Q 2250 4219 1831 4219 
Q 1534 4219 1204 4116 
Q 875 4013 500 3803 
L 500 4441 
Q 881 4594 1212 4672 
Q 1544 4750 1819 4750 
Q 2544 4750 2975 4387 
Q 3406 4025 3406 3419 
Q 3406 3131 3298 2873 
Q 3191 2616 2906 2266 
Q 2828 2175 2409 1742 
Q 1991 1309 1228 531 
z
" transform="scale(0.015625)"/>
       </defs>
       <use xlink:href="#DejaVuSans-30"/>
       <use xlink:href="#DejaVuSans-2e" x="63.623047"/>
       <use xlink:href="#DejaVuSans-32" x="95.410156"/>
       <use xlink:href="#DejaVuSans-30" x="159.033203"/>
      </g>
     </g>
    </g>
    <g id="ytick_5">
     <g id="line2d_12">
      <path d="M 414.618535 256.394108 
C 414.618535 235.276244 410.458776 214.363726 402.37732 194.853364 
C 394.295864 175.343002 382.449873 157.614225 367.517289 142.68164 
C 352.584704 127.749056 334.855927 115.903065 315.345565 107.821609 
C 295.835203 99.740152 274.922684 95.580394 253.804821 95.580394 
C 232.686957 95.580394 211.774439 99.740152 192.264077 107.821609 
C 172.753715 115.903065 155.024937 127.749056 140.092353 142.68164 
C 125.159769 157.614225 113.313778 175.343002 105.232322 194.853364 
C 97.150865 214.363726 92.991107 235.276244 92.991107 256.394108 
C 92.991107 277.511971 97.150865 298.42449 105.232322 317.934852 
C 113.313778 337.445214 125.159769 355.173991 140.092353 370.106576 
C 155.024937 385.03916 172.753715 396.885151 192.264077 404.966607 
C 211.774439 413.048064 232.686957 417.207822 253.804821 417.207822 
C 274.922684 417.207822 295.835203 413.048064 315.345565 404.966607 
C 334.855927 396.885151 352.584704 385.03916 367.517289 370.106576 
C 382.449873 355.173991 394.295864 337.445214 402.37732 317.934852 
C 410.458776 298.42449 414.618535 277.511971 414.618535 256.394108 
" clip-path="url(#p4d22e5cda4)" style="fill: none; stroke: #b0b0b0; stroke-width: 0.8; stroke-linecap: square"/>
     </g>
     <g id="text_12">
      <!-- 0.25 -->
      <g transform="translate(402.37732 192.773676) scale(0.1 -0.1)">
       <use xlink:href="#DejaVuSans-30"/>
       <use xlink:href="#DejaVuSans-2e" x="63.623047"/>
       <use xlink:href="#DejaVuSans-32" x="95.410156"/>
       <use xlink:href="#DejaVuSans-35" x="159.033203"/>
      </g>
     </g>
    </g>
    <g id="ytick_6">
     <g id="line2d_13">
      <path d="M 446.781278 256.394108 
C 446.781278 231.052672 441.789568 205.957649 432.09182 182.545215 
C 422.394072 159.132781 408.178884 137.858248 390.259782 119.939146 
C 372.340681 102.020045 351.066148 87.804857 327.653714 78.107109 
C 304.24128 68.409361 279.146257 63.417651 253.804821 63.417651 
C 228.463385 63.417651 203.368362 68.409361 179.955928 78.107109 
C 156.543494 87.804857 135.268961 102.020045 117.349859 119.939146 
C 99.430758 137.858248 85.21557 159.132781 75.517822 182.545215 
C 65.820074 205.957649 60.828364 231.052672 60.828364 256.394108 
C 60.828364 281.735544 65.820074 306.830567 75.517822 330.243001 
C 85.21557 353.655435 99.430758 374.929968 117.349859 392.849069 
C 135.268961 410.768171 156.543494 424.983359 179.955928 434.681107 
C 203.368362 444.378855 228.463385 449.370565 253.804821 449.370565 
C 279.146257 449.370565 304.24128 444.378855 327.653714 434.681107 
C 351.066148 424.983359 372.340681 410.768171 390.259782 392.849069 
C 408.178884 374.929968 422.394072 353.655435 432.09182 330.243001 
C 441.789568 306.830567 446.781278 281.735544 446.781278 256.394108 
" clip-path="url(#p4d22e5cda4)" style="fill: none; stroke: #b0b0b0; stroke-width: 0.8; stroke-linecap: square"/>
     </g>
     <g id="text_13">
      <!-- 0.30 -->
      <g transform="translate(432.09182 180.465527) scale(0.1 -0.1)">
       <defs>
        <path id="DejaVuSans-33" d="M 2597 2516 
Q 3050 2419 3304 2112 
Q 3559 1806 3559 1356 
Q 3559 666 3084 287 
Q 2609 -91 1734 -91 
Q 1441 -91 1130 -33 
Q 819 25 488 141 
L 488 750 
Q 750 597 1062 519 
Q 1375 441 1716 441 
Q 2309 441 2620 675 
Q 2931 909 2931 1356 
Q 2931 1769 2642 2001 
Q 2353 2234 1838 2234 
L 1294 2234 
L 1294 2753 
L 1863 2753 
Q 2328 2753 2575 2939 
Q 2822 3125 2822 3475 
Q 2822 3834 2567 4026 
Q 2313 4219 1838 4219 
Q 1578 4219 1281 4162 
Q 984 4106 628 3988 
L 628 4550 
Q 988 4650 1302 4700 
Q 1616 4750 1894 4750 
Q 2613 4750 3031 4423 
Q 3450 4097 3450 3541 
Q 3450 3153 3228 2886 
Q 3006 2619 2597 2516 
z
" transform="scale(0.015625)"/>
       </defs>
       <use xlink:href="#DejaVuSans-30"/>
       <use xlink:href="#DejaVuSans-2e" x="63.623047"/>
       <use xlink:href="#DejaVuSans-33" x="95.410156"/>
       <use xlink:href="#DejaVuSans-30" x="159.033203"/>
      </g>
     </g>
    </g>
   </g>
   <g id="line2d_14">
    <path d="M 376.329556 256.394108 
L 371.502671 108.805672 
L 224.663019 128.715534 
L 137.894301 200.574543 
L 97.484673 331.673924 
L 230.880428 356.832435 
L 328.570648 350.14749 
L 376.329556 256.394108 
" clip-path="url(#p4d22e5cda4)" style="fill: none; stroke: #0000ff; stroke-width: 1.5; stroke-linecap: square"/>
   </g>
   <g id="line2d_15">
    <path d="M 253.804821 256.394108 
L 385.485867 91.271299 
L 223.641445 124.239723 
L 127.492075 195.565095 
L 91.639214 334.488948 
L 221.888989 396.226505 
L 297.588974 311.297699 
L 253.804821 256.394108 
" clip-path="url(#p4d22e5cda4)" style="fill: none; stroke: #ff0000; stroke-width: 1.5; stroke-linecap: square"/>
   </g>
   <g id="patch_3">
    <path d="M 475.564821 256.394108 
C 475.564821 227.272852 469.828568 198.434763 458.684346 171.53023 
C 447.540124 144.625697 431.204659 120.177946 410.612821 99.586108 
C 390.020983 78.99427 365.573232 62.658805 338.668699 51.514583 
C 311.764166 40.37036 282.926077 34.634108 253.804821 34.634108 
C 224.683564 34.634108 195.845476 40.37036 168.940943 51.514583 
C 142.03641 62.658805 117.588659 78.99427 96.996821 99.586108 
C 76.404983 120.177946 60.069518 144.625697 48.925296 171.53023 
C 37.781073 198.434763 32.044821 227.272852 32.044821 256.394108 
C 32.044821 285.515364 37.781073 314.353453 48.925296 341.257986 
C 60.069518 368.162519 76.404983 392.61027 96.996821 413.202108 
C 117.588659 433.793946 142.03641 450.129411 168.940943 461.273633 
C 195.845476 472.417855 224.683564 478.154108 253.804821 478.154108 
C 282.926077 478.154108 311.764166 472.417855 338.668699 461.273633 
C 365.573232 450.129411 390.020983 433.793946 410.612821 413.202108 
C 431.204659 392.61027 447.540124 368.162519 458.684346 341.257986 
C 469.828568 314.353453 475.564821 285.515364 475.564821 256.394108 
" style="fill: none; stroke: #000000; stroke-width: 0.8; stroke-linejoin: miter; stroke-linecap: square"/>
   </g>
   <g id="text_14">
    <!-- Répartition des cheptels sur le pole de Garazi Baigorri en 2010 et 2020 -->
    <g transform="translate(39.908571 16.798125) scale(0.12 -0.12)">
     <defs>
      <path id="DejaVuSans-52" d="M 2841 2188 
Q 3044 2119 3236 1894 
Q 3428 1669 3622 1275 
L 4263 0 
L 3584 0 
L 2988 1197 
Q 2756 1666 2539 1819 
Q 2322 1972 1947 1972 
L 1259 1972 
L 1259 0 
L 628 0 
L 628 4666 
L 2053 4666 
Q 2853 4666 3247 4331 
Q 3641 3997 3641 3322 
Q 3641 2881 3436 2590 
Q 3231 2300 2841 2188 
z
M 1259 4147 
L 1259 2491 
L 2053 2491 
Q 2509 2491 2742 2702 
Q 2975 2913 2975 3322 
Q 2975 3731 2742 3939 
Q 2509 4147 2053 4147 
L 1259 4147 
z
" transform="scale(0.015625)"/>
      <path id="DejaVuSans-47" d="M 3809 666 
L 3809 1919 
L 2778 1919 
L 2778 2438 
L 4434 2438 
L 4434 434 
Q 4069 175 3628 42 
Q 3188 -91 2688 -91 
Q 1594 -91 976 548 
Q 359 1188 359 2328 
Q 359 3472 976 4111 
Q 1594 4750 2688 4750 
Q 3144 4750 3555 4637 
Q 3966 4525 4313 4306 
L 4313 3634 
Q 3963 3931 3569 4081 
Q 3175 4231 2741 4231 
Q 1884 4231 1454 3753 
Q 1025 3275 1025 2328 
Q 1025 1384 1454 906 
Q 1884 428 2741 428 
Q 3075 428 3337 486 
Q 3600 544 3809 666 
z
" transform="scale(0.015625)"/>
      <path id="DejaVuSans-7a" d="M 353 3500 
L 3084 3500 
L 3084 2975 
L 922 459 
L 3084 459 
L 3084 0 
L 275 0 
L 275 525 
L 2438 3041 
L 353 3041 
L 353 3500 
z
" transform="scale(0.015625)"/>
      <path id="DejaVuSans-42" d="M 1259 2228 
L 1259 519 
L 2272 519 
Q 2781 519 3026 730 
Q 3272 941 3272 1375 
Q 3272 1813 3026 2020 
Q 2781 2228 2272 2228 
L 1259 2228 
z
M 1259 4147 
L 1259 2741 
L 2194 2741 
Q 2656 2741 2882 2914 
Q 3109 3088 3109 3444 
Q 3109 3797 2882 3972 
Q 2656 4147 2194 4147 
L 1259 4147 
z
M 628 4666 
L 2241 4666 
Q 2963 4666 3353 4366 
Q 3744 4066 3744 3513 
Q 3744 3084 3544 2831 
Q 3344 2578 2956 2516 
Q 3422 2416 3680 2098 
Q 3938 1781 3938 1306 
Q 3938 681 3513 340 
Q 3088 0 2303 0 
L 628 0 
L 628 4666 
z
" transform="scale(0.015625)"/>
      <path id="DejaVuSans-67" d="M 2906 1791 
Q 2906 2416 2648 2759 
Q 2391 3103 1925 3103 
Q 1463 3103 1205 2759 
Q 947 2416 947 1791 
Q 947 1169 1205 825 
Q 1463 481 1925 481 
Q 2391 481 2648 825 
Q 2906 1169 2906 1791 
z
M 3481 434 
Q 3481 -459 3084 -895 
Q 2688 -1331 1869 -1331 
Q 1566 -1331 1297 -1286 
Q 1028 -1241 775 -1147 
L 775 -588 
Q 1028 -725 1275 -790 
Q 1522 -856 1778 -856 
Q 2344 -856 2625 -561 
Q 2906 -266 2906 331 
L 2906 616 
Q 2728 306 2450 153 
Q 2172 0 1784 0 
Q 1141 0 747 490 
Q 353 981 353 1791 
Q 353 2603 747 3093 
Q 1141 3584 1784 3584 
Q 2172 3584 2450 3431 
Q 2728 3278 2906 2969 
L 2906 3500 
L 3481 3500 
L 3481 434 
z
" transform="scale(0.015625)"/>
     </defs>
     <use xlink:href="#DejaVuSans-52"/>
     <use xlink:href="#DejaVuSans-e9" x="64.982422"/>
     <use xlink:href="#DejaVuSans-70" x="126.505859"/>
     <use xlink:href="#DejaVuSans-61" x="189.982422"/>
     <use xlink:href="#DejaVuSans-72" x="251.261719"/>
     <use xlink:href="#DejaVuSans-74" x="292.375"/>
     <use xlink:href="#DejaVuSans-69" x="331.583984"/>
     <use xlink:href="#DejaVuSans-74" x="359.367188"/>
     <use xlink:href="#DejaVuSans-69" x="398.576172"/>
     <use xlink:href="#DejaVuSans-6f" x="426.359375"/>
     <use xlink:href="#DejaVuSans-6e" x="487.541016"/>
     <use xlink:href="#DejaVuSans-20" x="550.919922"/>
     <use xlink:href="#DejaVuSans-64" x="582.707031"/>
     <use xlink:href="#DejaVuSans-65" x="646.183594"/>
     <use xlink:href="#DejaVuSans-73" x="707.707031"/>
     <use xlink:href="#DejaVuSans-20" x="759.806641"/>
     <use xlink:href="#DejaVuSans-63" x="791.59375"/>
     <use xlink:href="#DejaVuSans-68" x="846.574219"/>
     <use xlink:href="#DejaVuSans-65" x="909.953125"/>
     <use xlink:href="#DejaVuSans-70" x="971.476562"/>
     <use xlink:href="#DejaVuSans-74" x="1034.953125"/>
     <use xlink:href="#DejaVuSans-65" x="1074.162109"/>
     <use xlink:href="#DejaVuSans-6c" x="1135.685547"/>
     <use xlink:href="#DejaVuSans-73" x="1163.46875"/>
     <use xlink:href="#DejaVuSans-20" x="1215.568359"/>
     <use xlink:href="#DejaVuSans-73" x="1247.355469"/>
     <use xlink:href="#DejaVuSans-75" x="1299.455078"/>
     <use xlink:href="#DejaVuSans-72" x="1362.833984"/>
     <use xlink:href="#DejaVuSans-20" x="1403.947266"/>
     <use xlink:href="#DejaVuSans-6c" x="1435.734375"/>
     <use xlink:href="#DejaVuSans-65" x="1463.517578"/>
     <use xlink:href="#DejaVuSans-20" x="1525.041016"/>
     <use xlink:href="#DejaVuSans-70" x="1556.828125"/>
     <use xlink:href="#DejaVuSans-6f" x="1620.304688"/>
     <use xlink:href="#DejaVuSans-6c" x="1681.486328"/>
     <use xlink:href="#DejaVuSans-65" x="1709.269531"/>
     <use xlink:href="#DejaVuSans-20" x="1770.792969"/>
     <use xlink:href="#DejaVuSans-64" x="1802.580078"/>
     <use xlink:href="#DejaVuSans-65" x="1866.056641"/>
     <use xlink:href="#DejaVuSans-20" x="1927.580078"/>
     <use xlink:href="#DejaVuSans-47" x="1959.367188"/>
     <use xlink:href="#DejaVuSans-61" x="2036.857422"/>
     <use xlink:href="#DejaVuSans-72" x="2098.136719"/>
     <use xlink:href="#DejaVuSans-61" x="2139.25"/>
     <use xlink:href="#DejaVuSans-7a" x="2200.529297"/>
     <use xlink:href="#DejaVuSans-69" x="2253.019531"/>
     <use xlink:href="#DejaVuSans-20" x="2280.802734"/>
     <use xlink:href="#DejaVuSans-42" x="2312.589844"/>
     <use xlink:href="#DejaVuSans-61" x="2381.193359"/>
     <use xlink:href="#DejaVuSans-69" x="2442.472656"/>
     <use xlink:href="#DejaVuSans-67" x="2470.255859"/>
     <use xlink:href="#DejaVuSans-6f" x="2533.732422"/>
     <use xlink:href="#DejaVuSans-72" x="2594.914062"/>
     <use xlink:href="#DejaVuSans-72" x="2634.277344"/>
     <use xlink:href="#DejaVuSans-69" x="2675.390625"/>
     <use xlink:href="#DejaVuSans-20" x="2703.173828"/>
     <use xlink:href="#DejaVuSans-65" x="2734.960938"/>
     <use xlink:href="#DejaVuSans-6e" x="2796.484375"/>
     <use xlink:href="#DejaVuSans-20" x="2859.863281"/>
     <use xlink:href="#DejaVuSans-32" x="2891.650391"/>
     <use xlink:href="#DejaVuSans-30" x="2955.273438"/>
     <use xlink:href="#DejaVuSans-31" x="3018.896484"/>
     <use xlink:href="#DejaVuSans-30" x="3082.519531"/>
     <use xlink:href="#DejaVuSans-20" x="3146.142578"/>
     <use xlink:href="#DejaVuSans-65" x="3177.929688"/>
     <use xlink:href="#DejaVuSans-74" x="3239.453125"/>
     <use xlink:href="#DejaVuSans-20" x="3278.662109"/>
     <use xlink:href="#DejaVuSans-32" x="3310.449219"/>
     <use xlink:href="#DejaVuSans-30" x="3374.072266"/>
     <use xlink:href="#DejaVuSans-32" x="3437.695312"/>
     <use xlink:href="#DejaVuSans-30" x="3501.318359"/>
    </g>
   </g>
   <g id="legend_1">
    <g id="patch_4">
     <path d="M 411.114821 71.990358 
L 468.564821 71.990358 
Q 470.564821 71.990358 470.564821 69.990358 
L 470.564821 41.634108 
Q 470.564821 39.634108 468.564821 39.634108 
L 411.114821 39.634108 
Q 409.114821 39.634108 409.114821 41.634108 
L 409.114821 69.990358 
Q 409.114821 71.990358 411.114821 71.990358 
z
" style="fill: #ffffff; opacity: 0.8; stroke: #cccccc; stroke-linejoin: miter"/>
    </g>
    <g id="line2d_16">
     <path d="M 413.114821 47.732545 
L 423.114821 47.732545 
L 433.114821 47.732545 
" style="fill: none; stroke: #0000ff; stroke-width: 1.5; stroke-linecap: square"/>
    </g>
    <g id="text_15">
     <!-- 2020 -->
     <g transform="translate(441.114821 51.232545) scale(0.1 -0.1)">
      <use xlink:href="#DejaVuSans-32"/>
      <use xlink:href="#DejaVuSans-30" x="63.623047"/>
      <use xlink:href="#DejaVuSans-32" x="127.246094"/>
      <use xlink:href="#DejaVuSans-30" x="190.869141"/>
     </g>
    </g>
    <g id="line2d_17">
     <path d="M 413.114821 62.41067 
L 423.114821 62.41067 
L 433.114821 62.41067 
" style="fill: none; stroke: #ff0000; stroke-width: 1.5; stroke-linecap: square"/>
    </g>
    <g id="text_16">
     <!-- 2010 -->
     <g transform="translate(441.114821 65.91067) scale(0.1 -0.1)">
      <use xlink:href="#DejaVuSans-32"/>
      <use xlink:href="#DejaVuSans-30" x="63.623047"/>
      <use xlink:href="#DejaVuSans-31" x="127.246094"/>
      <use xlink:href="#DejaVuSans-30" x="190.869141"/>
     </g>
    </g>
   </g>
  </g>
 </g>
 <defs>
  <clipPath id="p4d22e5cda4">
   <path d="M 475.564821 256.394108 
C 475.564821 227.272852 469.828568 198.434763 458.684346 171.53023 
C 447.540124 144.625697 431.204659 120.177946 410.612821 99.586108 
C 390.020983 78.99427 365.573232 62.658805 338.668699 51.514583 
C 311.764166 40.37036 282.926077 34.634108 253.804821 34.634108 
C 224.683564 34.634108 195.845476 40.37036 168.940943 51.514583 
C 142.03641 62.658805 117.588659 78.99427 96.996821 99.586108 
C 76.404983 120.177946 60.069518 144.625697 48.925296 171.53023 
C 37.781073 198.434763 32.044821 227.272852 32.044821 256.394108 
C 32.044821 285.515364 37.781073 314.353453 48.925296 341.257986 
C 60.069518 368.162519 76.404983 392.61027 96.996821 413.202108 
C 117.588659 433.793946 142.03641 450.129411 168.940943 461.273633 
C 195.845476 472.417855 224.683564 478.154108 253.804821 478.154108 
C 282.926077 478.154108 311.764166 472.417855 338.668699 461.273633 
C 365.573232 450.129411 390.020983 433.793946 410.612821 413.202108 
C 431.204659 392.61027 447.540124 368.162519 458.684346 341.257986 
C 469.828568 314.353453 475.564821 285.515364 475.564821 256.394108 
M 253.804821 256.394108 
C 253.804821 256.394108 253.804821 256.394108 253.804821 256.394108 
C 253.804821 256.394108 253.804821 256.394108 253.804821 256.394108 
C 253.804821 256.394108 253.804821 256.394108 253.804821 256.394108 
C 253.804821 256.394108 253.804821 256.394108 253.804821 256.394108 
C 253.804821 256.394108 253.804821 256.394108 253.804821 256.394108 
C 253.804821 256.394108 253.804821 256.394108 253.804821 256.394108 
C 253.804821 256.394108 253.804821 256.394108 253.804821 256.394108 
C 253.804821 256.394108 253.804821 256.394108 253.804821 256.394108 
C 253.804821 256.394108 253.804821 256.394108 253.804821 256.394108 
C 253.804821 256.394108 253.804821 256.394108 253.804821 256.394108 
C 253.804821 256.394108 253.804821 256.394108 253.804821 256.394108 
C 253.804821 256.394108 253.804821 256.394108 253.804821 256.394108 
C 253.804821 256.394108 253.804821 256.394108 253.804821 256.394108 
C 253.804821 256.394108 253.804821 256.394108 253.804821 256.394108 
C 253.804821 256.394108 253.804821 256.394108 253.804821 256.394108 
C 253.804821 256.394108 253.804821 256.394108 253.804821 256.394108 
z
"/>
  </clipPath>
 </defs>
</svg>
