<?xml version="1.0" encoding="utf-8" standalone="no"?>
<!DOCTYPE svg PUBLIC "-//W3C//DTD SVG 1.1//EN"
  "http://www.w3.org/Graphics/SVG/1.1/DTD/svg11.dtd">
<svg xmlns:xlink="http://www.w3.org/1999/xlink" width="572.88279pt" height="500.611446pt" viewBox="0 0 572.88279 500.611446" xmlns="http://www.w3.org/2000/svg" version="1.1">
 <metadata>
  <rdf:RDF xmlns:dc="http://purl.org/dc/elements/1.1/" xmlns:cc="http://creativecommons.org/ns#" xmlns:rdf="http://www.w3.org/1999/02/22-rdf-syntax-ns#">
   <cc:Work>
    <dc:type rdf:resource="http://purl.org/dc/dcmitype/StillImage"/>
    <dc:date>2023-06-26T13:50:59.521873</dc:date>
    <dc:format>image/svg+xml</dc:format>
    <dc:creator>
     <cc:Agent>
      <dc:title>Matplotlib v3.7.1, https://matplotlib.org/</dc:title>
     </cc:Agent>
    </dc:creator>
   </cc:Work>
  </rdf:RDF>
 </metadata>
 <defs>
  <style type="text/css">*{stroke-linejoin: round; stroke-linecap: butt}</style>
 </defs>
 <g id="figure_1">
  <g id="patch_1">
   <path d="M 0 500.611446 
L 572.88279 500.611446 
L 572.88279 0 
L 0 0 
z
" style="fill: #ffffff"/>
  </g>
  <g id="axes_1">
   <g id="patch_2">
    <path d="M 475.564821 256.394108 
C 475.564821 227.272852 469.828568 198.434763 458.684346 171.53023 
C 447.540124 144.625697 431.204659 120.177946 410.612821 99.586108 
C 390.020983 78.99427 365.573232 62.658805 338.668699 51.514583 
C 311.764166 40.37036 282.926077 34.634108 253.804821 34.634108 
C 224.683564 34.634108 195.845476 40.37036 168.940943 51.514583 
C 142.03641 62.658805 117.588659 78.99427 96.996821 99.586108 
C 76.404983 120.177946 60.069518 144.625697 48.925296 171.53023 
C 37.781073 198.434763 32.044821 227.272852 32.044821 256.394108 
C 32.044821 285.515364 37.781073 314.353453 48.925296 341.257986 
C 60.069518 368.162519 76.404983 392.61027 96.996821 413.202108 
C 117.588659 433.793946 142.03641 450.129411 168.940943 461.273633 
C 195.845476 472.417855 224.683564 478.154108 253.804821 478.154108 
C 282.926077 478.154108 311.764166 472.417855 338.668699 461.273633 
C 365.573232 450.129411 390.020983 433.793946 410.612821 413.202108 
C 431.204659 392.61027 447.540124 368.162519 458.684346 341.257986 
C 469.828568 314.353453 475.564821 285.515364 475.564821 256.394108 
M 253.804821 256.394108 
C 253.804821 256.394108 253.804821 256.394108 253.804821 256.394108 
C 253.804821 256.394108 253.804821 256.394108 253.804821 256.394108 
C 253.804821 256.394108 253.804821 256.394108 253.804821 256.394108 
C 253.804821 256.394108 253.804821 256.394108 253.804821 256.394108 
C 253.804821 256.394108 253.804821 256.394108 253.804821 256.394108 
C 253.804821 256.394108 253.804821 256.394108 253.804821 256.394108 
C 253.804821 256.394108 253.804821 256.394108 253.804821 256.394108 
C 253.804821 256.394108 253.804821 256.394108 253.804821 256.394108 
C 253.804821 256.394108 253.804821 256.394108 253.804821 256.394108 
C 253.804821 256.394108 253.804821 256.394108 253.804821 256.394108 
C 253.804821 256.394108 253.804821 256.394108 253.804821 256.394108 
C 253.804821 256.394108 253.804821 256.394108 253.804821 256.394108 
C 253.804821 256.394108 253.804821 256.394108 253.804821 256.394108 
C 253.804821 256.394108 253.804821 256.394108 253.804821 256.394108 
C 253.804821 256.394108 253.804821 256.394108 253.804821 256.394108 
C 253.804821 256.394108 253.804821 256.394108 253.804821 256.394108 
z
" style="fill: #ffffff"/>
   </g>
   <g id="matplotlib.axis_1">
    <g id="xtick_1">
     <g id="line2d_1">
      <path d="M 253.804821 256.394108 
L 475.564821 256.394108 
" clip-path="url(#pc9856a8a85)" style="fill: none; stroke: #b0b0b0; stroke-width: 0.8; stroke-linecap: square"/>
     </g>
     <g id="text_1">
      <!-- apiculture (nombre de ruches) -->
      <g transform="translate(413.446852 259.153483) scale(0.1 -0.1)">
       <defs>
        <path id="DejaVuSans-61" d="M 2194 1759 
Q 1497 1759 1228 1600 
Q 959 1441 959 1056 
Q 959 750 1161 570 
Q 1363 391 1709 391 
Q 2188 391 2477 730 
Q 2766 1069 2766 1631 
L 2766 1759 
L 2194 1759 
z
M 3341 1997 
L 3341 0 
L 2766 0 
L 2766 531 
Q 2569 213 2275 61 
Q 1981 -91 1556 -91 
Q 1019 -91 701 211 
Q 384 513 384 1019 
Q 384 1609 779 1909 
Q 1175 2209 1959 2209 
L 2766 2209 
L 2766 2266 
Q 2766 2663 2505 2880 
Q 2244 3097 1772 3097 
Q 1472 3097 1187 3025 
Q 903 2953 641 2809 
L 641 3341 
Q 956 3463 1253 3523 
Q 1550 3584 1831 3584 
Q 2591 3584 2966 3190 
Q 3341 2797 3341 1997 
z
" transform="scale(0.015625)"/>
        <path id="DejaVuSans-70" d="M 1159 525 
L 1159 -1331 
L 581 -1331 
L 581 3500 
L 1159 3500 
L 1159 2969 
Q 1341 3281 1617 3432 
Q 1894 3584 2278 3584 
Q 2916 3584 3314 3078 
Q 3713 2572 3713 1747 
Q 3713 922 3314 415 
Q 2916 -91 2278 -91 
Q 1894 -91 1617 61 
Q 1341 213 1159 525 
z
M 3116 1747 
Q 3116 2381 2855 2742 
Q 2594 3103 2138 3103 
Q 1681 3103 1420 2742 
Q 1159 2381 1159 1747 
Q 1159 1113 1420 752 
Q 1681 391 2138 391 
Q 2594 391 2855 752 
Q 3116 1113 3116 1747 
z
" transform="scale(0.015625)"/>
        <path id="DejaVuSans-69" d="M 603 3500 
L 1178 3500 
L 1178 0 
L 603 0 
L 603 3500 
z
M 603 4863 
L 1178 4863 
L 1178 4134 
L 603 4134 
L 603 4863 
z
" transform="scale(0.015625)"/>
        <path id="DejaVuSans-63" d="M 3122 3366 
L 3122 2828 
Q 2878 2963 2633 3030 
Q 2388 3097 2138 3097 
Q 1578 3097 1268 2742 
Q 959 2388 959 1747 
Q 959 1106 1268 751 
Q 1578 397 2138 397 
Q 2388 397 2633 464 
Q 2878 531 3122 666 
L 3122 134 
Q 2881 22 2623 -34 
Q 2366 -91 2075 -91 
Q 1284 -91 818 406 
Q 353 903 353 1747 
Q 353 2603 823 3093 
Q 1294 3584 2113 3584 
Q 2378 3584 2631 3529 
Q 2884 3475 3122 3366 
z
" transform="scale(0.015625)"/>
        <path id="DejaVuSans-75" d="M 544 1381 
L 544 3500 
L 1119 3500 
L 1119 1403 
Q 1119 906 1312 657 
Q 1506 409 1894 409 
Q 2359 409 2629 706 
Q 2900 1003 2900 1516 
L 2900 3500 
L 3475 3500 
L 3475 0 
L 2900 0 
L 2900 538 
Q 2691 219 2414 64 
Q 2138 -91 1772 -91 
Q 1169 -91 856 284 
Q 544 659 544 1381 
z
M 1991 3584 
L 1991 3584 
z
" transform="scale(0.015625)"/>
        <path id="DejaVuSans-6c" d="M 603 4863 
L 1178 4863 
L 1178 0 
L 603 0 
L 603 4863 
z
" transform="scale(0.015625)"/>
        <path id="DejaVuSans-74" d="M 1172 4494 
L 1172 3500 
L 2356 3500 
L 2356 3053 
L 1172 3053 
L 1172 1153 
Q 1172 725 1289 603 
Q 1406 481 1766 481 
L 2356 481 
L 2356 0 
L 1766 0 
Q 1100 0 847 248 
Q 594 497 594 1153 
L 594 3053 
L 172 3053 
L 172 3500 
L 594 3500 
L 594 4494 
L 1172 4494 
z
" transform="scale(0.015625)"/>
        <path id="DejaVuSans-72" d="M 2631 2963 
Q 2534 3019 2420 3045 
Q 2306 3072 2169 3072 
Q 1681 3072 1420 2755 
Q 1159 2438 1159 1844 
L 1159 0 
L 581 0 
L 581 3500 
L 1159 3500 
L 1159 2956 
Q 1341 3275 1631 3429 
Q 1922 3584 2338 3584 
Q 2397 3584 2469 3576 
Q 2541 3569 2628 3553 
L 2631 2963 
z
" transform="scale(0.015625)"/>
        <path id="DejaVuSans-65" d="M 3597 1894 
L 3597 1613 
L 953 1613 
Q 991 1019 1311 708 
Q 1631 397 2203 397 
Q 2534 397 2845 478 
Q 3156 559 3463 722 
L 3463 178 
Q 3153 47 2828 -22 
Q 2503 -91 2169 -91 
Q 1331 -91 842 396 
Q 353 884 353 1716 
Q 353 2575 817 3079 
Q 1281 3584 2069 3584 
Q 2775 3584 3186 3129 
Q 3597 2675 3597 1894 
z
M 3022 2063 
Q 3016 2534 2758 2815 
Q 2500 3097 2075 3097 
Q 1594 3097 1305 2825 
Q 1016 2553 972 2059 
L 3022 2063 
z
" transform="scale(0.015625)"/>
        <path id="DejaVuSans-20" transform="scale(0.015625)"/>
        <path id="DejaVuSans-28" d="M 1984 4856 
Q 1566 4138 1362 3434 
Q 1159 2731 1159 2009 
Q 1159 1288 1364 580 
Q 1569 -128 1984 -844 
L 1484 -844 
Q 1016 -109 783 600 
Q 550 1309 550 2009 
Q 550 2706 781 3412 
Q 1013 4119 1484 4856 
L 1984 4856 
z
" transform="scale(0.015625)"/>
        <path id="DejaVuSans-6e" d="M 3513 2113 
L 3513 0 
L 2938 0 
L 2938 2094 
Q 2938 2591 2744 2837 
Q 2550 3084 2163 3084 
Q 1697 3084 1428 2787 
Q 1159 2491 1159 1978 
L 1159 0 
L 581 0 
L 581 3500 
L 1159 3500 
L 1159 2956 
Q 1366 3272 1645 3428 
Q 1925 3584 2291 3584 
Q 2894 3584 3203 3211 
Q 3513 2838 3513 2113 
z
" transform="scale(0.015625)"/>
        <path id="DejaVuSans-6f" d="M 1959 3097 
Q 1497 3097 1228 2736 
Q 959 2375 959 1747 
Q 959 1119 1226 758 
Q 1494 397 1959 397 
Q 2419 397 2687 759 
Q 2956 1122 2956 1747 
Q 2956 2369 2687 2733 
Q 2419 3097 1959 3097 
z
M 1959 3584 
Q 2709 3584 3137 3096 
Q 3566 2609 3566 1747 
Q 3566 888 3137 398 
Q 2709 -91 1959 -91 
Q 1206 -91 779 398 
Q 353 888 353 1747 
Q 353 2609 779 3096 
Q 1206 3584 1959 3584 
z
" transform="scale(0.015625)"/>
        <path id="DejaVuSans-6d" d="M 3328 2828 
Q 3544 3216 3844 3400 
Q 4144 3584 4550 3584 
Q 5097 3584 5394 3201 
Q 5691 2819 5691 2113 
L 5691 0 
L 5113 0 
L 5113 2094 
Q 5113 2597 4934 2840 
Q 4756 3084 4391 3084 
Q 3944 3084 3684 2787 
Q 3425 2491 3425 1978 
L 3425 0 
L 2847 0 
L 2847 2094 
Q 2847 2600 2669 2842 
Q 2491 3084 2119 3084 
Q 1678 3084 1418 2786 
Q 1159 2488 1159 1978 
L 1159 0 
L 581 0 
L 581 3500 
L 1159 3500 
L 1159 2956 
Q 1356 3278 1631 3431 
Q 1906 3584 2284 3584 
Q 2666 3584 2933 3390 
Q 3200 3197 3328 2828 
z
" transform="scale(0.015625)"/>
        <path id="DejaVuSans-62" d="M 3116 1747 
Q 3116 2381 2855 2742 
Q 2594 3103 2138 3103 
Q 1681 3103 1420 2742 
Q 1159 2381 1159 1747 
Q 1159 1113 1420 752 
Q 1681 391 2138 391 
Q 2594 391 2855 752 
Q 3116 1113 3116 1747 
z
M 1159 2969 
Q 1341 3281 1617 3432 
Q 1894 3584 2278 3584 
Q 2916 3584 3314 3078 
Q 3713 2572 3713 1747 
Q 3713 922 3314 415 
Q 2916 -91 2278 -91 
Q 1894 -91 1617 61 
Q 1341 213 1159 525 
L 1159 0 
L 581 0 
L 581 4863 
L 1159 4863 
L 1159 2969 
z
" transform="scale(0.015625)"/>
        <path id="DejaVuSans-64" d="M 2906 2969 
L 2906 4863 
L 3481 4863 
L 3481 0 
L 2906 0 
L 2906 525 
Q 2725 213 2448 61 
Q 2172 -91 1784 -91 
Q 1150 -91 751 415 
Q 353 922 353 1747 
Q 353 2572 751 3078 
Q 1150 3584 1784 3584 
Q 2172 3584 2448 3432 
Q 2725 3281 2906 2969 
z
M 947 1747 
Q 947 1113 1208 752 
Q 1469 391 1925 391 
Q 2381 391 2643 752 
Q 2906 1113 2906 1747 
Q 2906 2381 2643 2742 
Q 2381 3103 1925 3103 
Q 1469 3103 1208 2742 
Q 947 2381 947 1747 
z
" transform="scale(0.015625)"/>
        <path id="DejaVuSans-68" d="M 3513 2113 
L 3513 0 
L 2938 0 
L 2938 2094 
Q 2938 2591 2744 2837 
Q 2550 3084 2163 3084 
Q 1697 3084 1428 2787 
Q 1159 2491 1159 1978 
L 1159 0 
L 581 0 
L 581 4863 
L 1159 4863 
L 1159 2956 
Q 1366 3272 1645 3428 
Q 1925 3584 2291 3584 
Q 2894 3584 3203 3211 
Q 3513 2838 3513 2113 
z
" transform="scale(0.015625)"/>
        <path id="DejaVuSans-73" d="M 2834 3397 
L 2834 2853 
Q 2591 2978 2328 3040 
Q 2066 3103 1784 3103 
Q 1356 3103 1142 2972 
Q 928 2841 928 2578 
Q 928 2378 1081 2264 
Q 1234 2150 1697 2047 
L 1894 2003 
Q 2506 1872 2764 1633 
Q 3022 1394 3022 966 
Q 3022 478 2636 193 
Q 2250 -91 1575 -91 
Q 1294 -91 989 -36 
Q 684 19 347 128 
L 347 722 
Q 666 556 975 473 
Q 1284 391 1588 391 
Q 1994 391 2212 530 
Q 2431 669 2431 922 
Q 2431 1156 2273 1281 
Q 2116 1406 1581 1522 
L 1381 1569 
Q 847 1681 609 1914 
Q 372 2147 372 2553 
Q 372 3047 722 3315 
Q 1072 3584 1716 3584 
Q 2034 3584 2315 3537 
Q 2597 3491 2834 3397 
z
" transform="scale(0.015625)"/>
        <path id="DejaVuSans-29" d="M 513 4856 
L 1013 4856 
Q 1481 4119 1714 3412 
Q 1947 2706 1947 2009 
Q 1947 1309 1714 600 
Q 1481 -109 1013 -844 
L 513 -844 
Q 928 -128 1133 580 
Q 1338 1288 1338 2009 
Q 1338 2731 1133 3434 
Q 928 4138 513 4856 
z
" transform="scale(0.015625)"/>
       </defs>
       <use xlink:href="#DejaVuSans-61"/>
       <use xlink:href="#DejaVuSans-70" x="61.279297"/>
       <use xlink:href="#DejaVuSans-69" x="124.755859"/>
       <use xlink:href="#DejaVuSans-63" x="152.539062"/>
       <use xlink:href="#DejaVuSans-75" x="207.519531"/>
       <use xlink:href="#DejaVuSans-6c" x="270.898438"/>
       <use xlink:href="#DejaVuSans-74" x="298.681641"/>
       <use xlink:href="#DejaVuSans-75" x="337.890625"/>
       <use xlink:href="#DejaVuSans-72" x="401.269531"/>
       <use xlink:href="#DejaVuSans-65" x="440.132812"/>
       <use xlink:href="#DejaVuSans-20" x="501.65625"/>
       <use xlink:href="#DejaVuSans-28" x="533.443359"/>
       <use xlink:href="#DejaVuSans-6e" x="572.457031"/>
       <use xlink:href="#DejaVuSans-6f" x="635.835938"/>
       <use xlink:href="#DejaVuSans-6d" x="697.017578"/>
       <use xlink:href="#DejaVuSans-62" x="794.429688"/>
       <use xlink:href="#DejaVuSans-72" x="857.90625"/>
       <use xlink:href="#DejaVuSans-65" x="896.769531"/>
       <use xlink:href="#DejaVuSans-20" x="958.292969"/>
       <use xlink:href="#DejaVuSans-64" x="990.080078"/>
       <use xlink:href="#DejaVuSans-65" x="1053.556641"/>
       <use xlink:href="#DejaVuSans-20" x="1115.080078"/>
       <use xlink:href="#DejaVuSans-72" x="1146.867188"/>
       <use xlink:href="#DejaVuSans-75" x="1187.980469"/>
       <use xlink:href="#DejaVuSans-63" x="1251.359375"/>
       <use xlink:href="#DejaVuSans-68" x="1306.339844"/>
       <use xlink:href="#DejaVuSans-65" x="1369.71875"/>
       <use xlink:href="#DejaVuSans-73" x="1431.242188"/>
       <use xlink:href="#DejaVuSans-29" x="1483.341797"/>
      </g>
     </g>
    </g>
    <g id="xtick_2">
     <g id="line2d_2">
      <path d="M 253.804821 256.394108 
L 390.33391 81.644843 
" clip-path="url(#pc9856a8a85)" style="fill: none; stroke: #b0b0b0; stroke-width: 0.8; stroke-linecap: square"/>
     </g>
     <g id="text_2">
      <!-- total équins -->
      <g transform="translate(369.349264 73.572068) scale(0.1 -0.1)">
       <defs>
        <path id="DejaVuSans-e9" d="M 3597 1894 
L 3597 1613 
L 953 1613 
Q 991 1019 1311 708 
Q 1631 397 2203 397 
Q 2534 397 2845 478 
Q 3156 559 3463 722 
L 3463 178 
Q 3153 47 2828 -22 
Q 2503 -91 2169 -91 
Q 1331 -91 842 396 
Q 353 884 353 1716 
Q 353 2575 817 3079 
Q 1281 3584 2069 3584 
Q 2775 3584 3186 3129 
Q 3597 2675 3597 1894 
z
M 3022 2063 
Q 3016 2534 2758 2815 
Q 2500 3097 2075 3097 
Q 1594 3097 1305 2825 
Q 1016 2553 972 2059 
L 3022 2063 
z
M 2466 5119 
L 3088 5119 
L 2070 3944 
L 1591 3944 
L 2466 5119 
z
" transform="scale(0.015625)"/>
        <path id="DejaVuSans-71" d="M 947 1747 
Q 947 1113 1208 752 
Q 1469 391 1925 391 
Q 2381 391 2643 752 
Q 2906 1113 2906 1747 
Q 2906 2381 2643 2742 
Q 2381 3103 1925 3103 
Q 1469 3103 1208 2742 
Q 947 2381 947 1747 
z
M 2906 525 
Q 2725 213 2448 61 
Q 2172 -91 1784 -91 
Q 1150 -91 751 415 
Q 353 922 353 1747 
Q 353 2572 751 3078 
Q 1150 3584 1784 3584 
Q 2172 3584 2448 3432 
Q 2725 3281 2906 2969 
L 2906 3500 
L 3481 3500 
L 3481 -1331 
L 2906 -1331 
L 2906 525 
z
" transform="scale(0.015625)"/>
       </defs>
       <use xlink:href="#DejaVuSans-74"/>
       <use xlink:href="#DejaVuSans-6f" x="39.208984"/>
       <use xlink:href="#DejaVuSans-74" x="100.390625"/>
       <use xlink:href="#DejaVuSans-61" x="139.599609"/>
       <use xlink:href="#DejaVuSans-6c" x="200.878906"/>
       <use xlink:href="#DejaVuSans-20" x="228.662109"/>
       <use xlink:href="#DejaVuSans-e9" x="260.449219"/>
       <use xlink:href="#DejaVuSans-71" x="321.972656"/>
       <use xlink:href="#DejaVuSans-75" x="385.449219"/>
       <use xlink:href="#DejaVuSans-69" x="448.828125"/>
       <use xlink:href="#DejaVuSans-6e" x="476.611328"/>
       <use xlink:href="#DejaVuSans-73" x="539.990234"/>
      </g>
     </g>
    </g>
    <g id="xtick_3">
     <g id="line2d_3">
      <path d="M 253.804821 256.394108 
L 200.156221 41.221328 
" clip-path="url(#pc9856a8a85)" style="fill: none; stroke: #b0b0b0; stroke-width: 0.8; stroke-linecap: square"/>
     </g>
     <g id="text_3">
      <!-- total bovins -->
      <g transform="translate(167.391971 30.396563) scale(0.1 -0.1)">
       <defs>
        <path id="DejaVuSans-76" d="M 191 3500 
L 800 3500 
L 1894 563 
L 2988 3500 
L 3597 3500 
L 2284 0 
L 1503 0 
L 191 3500 
z
" transform="scale(0.015625)"/>
       </defs>
       <use xlink:href="#DejaVuSans-74"/>
       <use xlink:href="#DejaVuSans-6f" x="39.208984"/>
       <use xlink:href="#DejaVuSans-74" x="100.390625"/>
       <use xlink:href="#DejaVuSans-61" x="139.599609"/>
       <use xlink:href="#DejaVuSans-6c" x="200.878906"/>
       <use xlink:href="#DejaVuSans-20" x="228.662109"/>
       <use xlink:href="#DejaVuSans-62" x="260.449219"/>
       <use xlink:href="#DejaVuSans-6f" x="323.925781"/>
       <use xlink:href="#DejaVuSans-76" x="385.107422"/>
       <use xlink:href="#DejaVuSans-69" x="444.287109"/>
       <use xlink:href="#DejaVuSans-6e" x="472.070312"/>
       <use xlink:href="#DejaVuSans-73" x="535.449219"/>
      </g>
     </g>
    </g>
    <g id="xtick_4">
     <g id="line2d_4">
      <path d="M 253.804821 256.394108 
L 51.21698 166.19619 
" clip-path="url(#pc9856a8a85)" style="fill: none; stroke: #b0b0b0; stroke-width: 0.8; stroke-linecap: square"/>
     </g>
     <g id="text_4">
      <!-- total caprins -->
      <g transform="translate(7.2 163.261252) scale(0.1 -0.1)">
       <use xlink:href="#DejaVuSans-74"/>
       <use xlink:href="#DejaVuSans-6f" x="39.208984"/>
       <use xlink:href="#DejaVuSans-74" x="100.390625"/>
       <use xlink:href="#DejaVuSans-61" x="139.599609"/>
       <use xlink:href="#DejaVuSans-6c" x="200.878906"/>
       <use xlink:href="#DejaVuSans-20" x="228.662109"/>
       <use xlink:href="#DejaVuSans-63" x="260.449219"/>
       <use xlink:href="#DejaVuSans-61" x="315.429688"/>
       <use xlink:href="#DejaVuSans-70" x="376.708984"/>
       <use xlink:href="#DejaVuSans-72" x="440.185547"/>
       <use xlink:href="#DejaVuSans-69" x="481.298828"/>
       <use xlink:href="#DejaVuSans-6e" x="509.082031"/>
       <use xlink:href="#DejaVuSans-73" x="572.460938"/>
      </g>
     </g>
    </g>
    <g id="xtick_5">
     <g id="line2d_5">
      <path d="M 253.804821 256.394108 
L 58.002363 360.504122 
" clip-path="url(#pc9856a8a85)" style="fill: none; stroke: #b0b0b0; stroke-width: 0.8; stroke-linecap: square"/>
     </g>
     <g id="text_5">
      <!-- total ovins -->
      <g transform="translate(19.437971 369.836099) scale(0.1 -0.1)">
       <use xlink:href="#DejaVuSans-74"/>
       <use xlink:href="#DejaVuSans-6f" x="39.208984"/>
       <use xlink:href="#DejaVuSans-74" x="100.390625"/>
       <use xlink:href="#DejaVuSans-61" x="139.599609"/>
       <use xlink:href="#DejaVuSans-6c" x="200.878906"/>
       <use xlink:href="#DejaVuSans-20" x="228.662109"/>
       <use xlink:href="#DejaVuSans-6f" x="260.449219"/>
       <use xlink:href="#DejaVuSans-76" x="321.630859"/>
       <use xlink:href="#DejaVuSans-69" x="380.810547"/>
       <use xlink:href="#DejaVuSans-6e" x="408.59375"/>
       <use xlink:href="#DejaVuSans-73" x="471.972656"/>
      </g>
     </g>
    </g>
    <g id="xtick_6">
     <g id="line2d_6">
      <path d="M 253.804821 256.394108 
L 215.296601 474.785075 
" clip-path="url(#pc9856a8a85)" style="fill: none; stroke: #b0b0b0; stroke-width: 0.8; stroke-linecap: square"/>
     </g>
     <g id="text_6">
      <!-- total porcins -->
      <g transform="translate(181.75537 491.331759) scale(0.1 -0.1)">
       <use xlink:href="#DejaVuSans-74"/>
       <use xlink:href="#DejaVuSans-6f" x="39.208984"/>
       <use xlink:href="#DejaVuSans-74" x="100.390625"/>
       <use xlink:href="#DejaVuSans-61" x="139.599609"/>
       <use xlink:href="#DejaVuSans-6c" x="200.878906"/>
       <use xlink:href="#DejaVuSans-20" x="228.662109"/>
       <use xlink:href="#DejaVuSans-70" x="260.449219"/>
       <use xlink:href="#DejaVuSans-6f" x="323.925781"/>
       <use xlink:href="#DejaVuSans-72" x="385.107422"/>
       <use xlink:href="#DejaVuSans-63" x="423.970703"/>
       <use xlink:href="#DejaVuSans-69" x="478.951172"/>
       <use xlink:href="#DejaVuSans-6e" x="506.734375"/>
       <use xlink:href="#DejaVuSans-73" x="570.113281"/>
      </g>
     </g>
    </g>
    <g id="xtick_7">
     <g id="line2d_7">
      <path d="M 253.804821 256.394108 
L 402.191224 421.193904 
" clip-path="url(#pc9856a8a85)" style="fill: none; stroke: #b0b0b0; stroke-width: 0.8; stroke-linecap: square"/>
     </g>
     <g id="text_7">
      <!-- total volailles -->
      <g transform="translate(378.216865 434.357307) scale(0.1 -0.1)">
       <use xlink:href="#DejaVuSans-74"/>
       <use xlink:href="#DejaVuSans-6f" x="39.208984"/>
       <use xlink:href="#DejaVuSans-74" x="100.390625"/>
       <use xlink:href="#DejaVuSans-61" x="139.599609"/>
       <use xlink:href="#DejaVuSans-6c" x="200.878906"/>
       <use xlink:href="#DejaVuSans-20" x="228.662109"/>
       <use xlink:href="#DejaVuSans-76" x="260.449219"/>
       <use xlink:href="#DejaVuSans-6f" x="319.628906"/>
       <use xlink:href="#DejaVuSans-6c" x="380.810547"/>
       <use xlink:href="#DejaVuSans-61" x="408.59375"/>
       <use xlink:href="#DejaVuSans-69" x="469.873047"/>
       <use xlink:href="#DejaVuSans-6c" x="497.65625"/>
       <use xlink:href="#DejaVuSans-6c" x="525.439453"/>
       <use xlink:href="#DejaVuSans-65" x="553.222656"/>
       <use xlink:href="#DejaVuSans-73" x="614.746094"/>
      </g>
     </g>
    </g>
   </g>
   <g id="matplotlib.axis_2">
    <g id="ytick_1">
     <g id="line2d_8">
      <path d="M 292.665621 256.394108 
C 292.665621 251.290954 291.660411 246.237423 289.707519 241.522724 
C 287.754626 236.808025 284.89203 232.523847 281.283556 228.915373 
C 277.675082 225.306898 273.390904 222.444302 268.676205 220.49141 
C 263.961506 218.538518 258.907974 217.533308 253.804821 217.533308 
C 248.701667 217.533308 243.648136 218.538518 238.933437 220.49141 
C 234.218737 222.444302 229.93456 225.306898 226.326086 228.915373 
C 222.717611 232.523847 219.855015 236.808025 217.902123 241.522724 
C 215.949231 246.237423 214.944021 251.290954 214.944021 256.394108 
C 214.944021 261.497261 215.949231 266.550793 217.902123 271.265492 
C 219.855015 275.980191 222.717611 280.264369 226.326086 283.872843 
C 229.93456 287.481318 234.218737 290.343913 238.933437 292.296806 
C 243.648136 294.249698 248.701667 295.254908 253.804821 295.254908 
C 258.907974 295.254908 263.961506 294.249698 268.676205 292.296806 
C 273.390904 290.343913 277.675082 287.481318 281.283556 283.872843 
C 284.89203 280.264369 287.754626 275.980191 289.707519 271.265492 
C 291.660411 266.550793 292.665621 261.497261 292.665621 256.394108 
" clip-path="url(#pc9856a8a85)" style="fill: none; stroke: #b0b0b0; stroke-width: 0.8; stroke-linecap: square"/>
     </g>
     <g id="text_8">
      <!-- 0.02 -->
      <g transform="translate(289.707519 239.443036) scale(0.1 -0.1)">
       <defs>
        <path id="DejaVuSans-30" d="M 2034 4250 
Q 1547 4250 1301 3770 
Q 1056 3291 1056 2328 
Q 1056 1369 1301 889 
Q 1547 409 2034 409 
Q 2525 409 2770 889 
Q 3016 1369 3016 2328 
Q 3016 3291 2770 3770 
Q 2525 4250 2034 4250 
z
M 2034 4750 
Q 2819 4750 3233 4129 
Q 3647 3509 3647 2328 
Q 3647 1150 3233 529 
Q 2819 -91 2034 -91 
Q 1250 -91 836 529 
Q 422 1150 422 2328 
Q 422 3509 836 4129 
Q 1250 4750 2034 4750 
z
" transform="scale(0.015625)"/>
        <path id="DejaVuSans-2e" d="M 684 794 
L 1344 794 
L 1344 0 
L 684 0 
L 684 794 
z
" transform="scale(0.015625)"/>
        <path id="DejaVuSans-32" d="M 1228 531 
L 3431 531 
L 3431 0 
L 469 0 
L 469 531 
Q 828 903 1448 1529 
Q 2069 2156 2228 2338 
Q 2531 2678 2651 2914 
Q 2772 3150 2772 3378 
Q 2772 3750 2511 3984 
Q 2250 4219 1831 4219 
Q 1534 4219 1204 4116 
Q 875 4013 500 3803 
L 500 4441 
Q 881 4594 1212 4672 
Q 1544 4750 1819 4750 
Q 2544 4750 2975 4387 
Q 3406 4025 3406 3419 
Q 3406 3131 3298 2873 
Q 3191 2616 2906 2266 
Q 2828 2175 2409 1742 
Q 1991 1309 1228 531 
z
" transform="scale(0.015625)"/>
       </defs>
       <use xlink:href="#DejaVuSans-30"/>
       <use xlink:href="#DejaVuSans-2e" x="63.623047"/>
       <use xlink:href="#DejaVuSans-30" x="95.410156"/>
       <use xlink:href="#DejaVuSans-32" x="159.033203"/>
      </g>
     </g>
    </g>
    <g id="ytick_2">
     <g id="line2d_9">
      <path d="M 331.526421 256.394108 
C 331.526421 246.187801 329.516001 236.080737 325.610216 226.651339 
C 321.704432 217.221941 315.97924 208.653586 308.762291 201.436638 
C 301.545342 194.219689 292.976988 188.494497 283.54759 184.588712 
C 274.118191 180.682928 264.011128 178.672508 253.804821 178.672508 
C 243.598514 178.672508 233.49145 180.682928 224.062052 184.588712 
C 214.632654 188.494497 206.064299 194.219689 198.84735 201.436638 
C 191.630402 208.653586 185.90521 217.221941 181.999425 226.651339 
C 178.093641 236.080737 176.083221 246.187801 176.083221 256.394108 
C 176.083221 266.600415 178.093641 276.707478 181.999425 286.136877 
C 185.90521 295.566275 191.630402 304.134629 198.84735 311.351578 
C 206.064299 318.568527 214.632654 324.293719 224.062052 328.199503 
C 233.49145 332.105288 243.598514 334.115708 253.804821 334.115708 
C 264.011128 334.115708 274.118191 332.105288 283.54759 328.199503 
C 292.976988 324.293719 301.545342 318.568527 308.762291 311.351578 
C 315.97924 304.134629 321.704432 295.566275 325.610216 286.136877 
C 329.516001 276.707478 331.526421 266.600415 331.526421 256.394108 
" clip-path="url(#pc9856a8a85)" style="fill: none; stroke: #b0b0b0; stroke-width: 0.8; stroke-linecap: square"/>
     </g>
     <g id="text_9">
      <!-- 0.04 -->
      <g transform="translate(325.610216 224.571652) scale(0.1 -0.1)">
       <defs>
        <path id="DejaVuSans-34" d="M 2419 4116 
L 825 1625 
L 2419 1625 
L 2419 4116 
z
M 2253 4666 
L 3047 4666 
L 3047 1625 
L 3713 1625 
L 3713 1100 
L 3047 1100 
L 3047 0 
L 2419 0 
L 2419 1100 
L 313 1100 
L 313 1709 
L 2253 4666 
z
" transform="scale(0.015625)"/>
       </defs>
       <use xlink:href="#DejaVuSans-30"/>
       <use xlink:href="#DejaVuSans-2e" x="63.623047"/>
       <use xlink:href="#DejaVuSans-30" x="95.410156"/>
       <use xlink:href="#DejaVuSans-34" x="159.033203"/>
      </g>
     </g>
    </g>
    <g id="ytick_3">
     <g id="line2d_10">
      <path d="M 370.387221 256.394108 
C 370.387221 241.084647 367.371591 225.924052 361.512914 211.779955 
C 355.654237 197.635858 347.06645 184.783326 336.241026 173.957902 
C 325.415603 163.132479 312.563071 154.544692 298.418974 148.686015 
C 284.274877 142.827338 269.114281 139.811708 253.804821 139.811708 
C 238.49536 139.811708 223.334765 142.827338 209.190668 148.686015 
C 195.046571 154.544692 182.194039 163.132479 171.368615 173.957902 
C 160.543192 184.783326 151.955405 197.635858 146.096728 211.779955 
C 140.238051 225.924052 137.222421 241.084647 137.222421 256.394108 
C 137.222421 271.703568 140.238051 286.864164 146.096728 301.008261 
C 151.955405 315.152358 160.543192 328.00489 171.368615 338.830314 
C 182.194039 349.655737 195.046571 358.243524 209.190668 364.102201 
C 223.334765 369.960878 238.49536 372.976508 253.804821 372.976508 
C 269.114281 372.976508 284.274877 369.960878 298.418974 364.102201 
C 312.563071 358.243524 325.415603 349.655737 336.241026 338.830314 
C 347.06645 328.00489 355.654237 315.152358 361.512914 301.008261 
C 367.371591 286.864164 370.387221 271.703568 370.387221 256.394108 
" clip-path="url(#pc9856a8a85)" style="fill: none; stroke: #b0b0b0; stroke-width: 0.8; stroke-linecap: square"/>
     </g>
     <g id="text_10">
      <!-- 0.06 -->
      <g transform="translate(361.512914 209.700267) scale(0.1 -0.1)">
       <defs>
        <path id="DejaVuSans-36" d="M 2113 2584 
Q 1688 2584 1439 2293 
Q 1191 2003 1191 1497 
Q 1191 994 1439 701 
Q 1688 409 2113 409 
Q 2538 409 2786 701 
Q 3034 994 3034 1497 
Q 3034 2003 2786 2293 
Q 2538 2584 2113 2584 
z
M 3366 4563 
L 3366 3988 
Q 3128 4100 2886 4159 
Q 2644 4219 2406 4219 
Q 1781 4219 1451 3797 
Q 1122 3375 1075 2522 
Q 1259 2794 1537 2939 
Q 1816 3084 2150 3084 
Q 2853 3084 3261 2657 
Q 3669 2231 3669 1497 
Q 3669 778 3244 343 
Q 2819 -91 2113 -91 
Q 1303 -91 875 529 
Q 447 1150 447 2328 
Q 447 3434 972 4092 
Q 1497 4750 2381 4750 
Q 2619 4750 2861 4703 
Q 3103 4656 3366 4563 
z
" transform="scale(0.015625)"/>
       </defs>
       <use xlink:href="#DejaVuSans-30"/>
       <use xlink:href="#DejaVuSans-2e" x="63.623047"/>
       <use xlink:href="#DejaVuSans-30" x="95.410156"/>
       <use xlink:href="#DejaVuSans-36" x="159.033203"/>
      </g>
     </g>
    </g>
    <g id="ytick_4">
     <g id="line2d_11">
      <path d="M 409.248021 256.394108 
C 409.248021 235.981494 405.227181 215.767367 397.415612 196.908571 
C 389.604043 178.049774 378.153659 160.913065 363.719762 146.479167 
C 349.285864 132.045269 332.149154 120.594886 313.290358 112.783317 
C 294.431562 104.971748 274.217435 100.950908 253.804821 100.950908 
C 233.392207 100.950908 213.17808 104.971748 194.319284 112.783317 
C 175.460487 120.594886 158.323778 132.045269 143.88988 146.479167 
C 129.455982 160.913065 118.005599 178.049774 110.19403 196.908571 
C 102.382461 215.767367 98.361621 235.981494 98.361621 256.394108 
C 98.361621 276.806722 102.382461 297.020849 110.19403 315.879645 
C 118.005599 334.738442 129.455982 351.875151 143.88988 366.309049 
C 158.323778 380.742947 175.460487 392.19333 194.319284 400.004899 
C 213.17808 407.816468 233.392207 411.837308 253.804821 411.837308 
C 274.217435 411.837308 294.431562 407.816468 313.290358 400.004899 
C 332.149154 392.19333 349.285864 380.742947 363.719762 366.309049 
C 378.153659 351.875151 389.604043 334.738442 397.415612 315.879645 
C 405.227181 297.020849 409.248021 276.806722 409.248021 256.394108 
" clip-path="url(#pc9856a8a85)" style="fill: none; stroke: #b0b0b0; stroke-width: 0.8; stroke-linecap: square"/>
     </g>
     <g id="text_11">
      <!-- 0.08 -->
      <g transform="translate(397.415612 194.828883) scale(0.1 -0.1)">
       <defs>
        <path id="DejaVuSans-38" d="M 2034 2216 
Q 1584 2216 1326 1975 
Q 1069 1734 1069 1313 
Q 1069 891 1326 650 
Q 1584 409 2034 409 
Q 2484 409 2743 651 
Q 3003 894 3003 1313 
Q 3003 1734 2745 1975 
Q 2488 2216 2034 2216 
z
M 1403 2484 
Q 997 2584 770 2862 
Q 544 3141 544 3541 
Q 544 4100 942 4425 
Q 1341 4750 2034 4750 
Q 2731 4750 3128 4425 
Q 3525 4100 3525 3541 
Q 3525 3141 3298 2862 
Q 3072 2584 2669 2484 
Q 3125 2378 3379 2068 
Q 3634 1759 3634 1313 
Q 3634 634 3220 271 
Q 2806 -91 2034 -91 
Q 1263 -91 848 271 
Q 434 634 434 1313 
Q 434 1759 690 2068 
Q 947 2378 1403 2484 
z
M 1172 3481 
Q 1172 3119 1398 2916 
Q 1625 2713 2034 2713 
Q 2441 2713 2670 2916 
Q 2900 3119 2900 3481 
Q 2900 3844 2670 4047 
Q 2441 4250 2034 4250 
Q 1625 4250 1398 4047 
Q 1172 3844 1172 3481 
z
" transform="scale(0.015625)"/>
       </defs>
       <use xlink:href="#DejaVuSans-30"/>
       <use xlink:href="#DejaVuSans-2e" x="63.623047"/>
       <use xlink:href="#DejaVuSans-30" x="95.410156"/>
       <use xlink:href="#DejaVuSans-38" x="159.033203"/>
      </g>
     </g>
    </g>
    <g id="ytick_5">
     <g id="line2d_12">
      <path d="M 448.108821 256.394108 
C 448.108821 230.87834 443.082771 205.610682 433.31831 182.037186 
C 423.553848 158.463691 409.240869 137.042804 391.198497 119.000432 
C 373.156125 100.95806 351.735238 86.645081 328.161742 76.880619 
C 304.588247 67.116158 279.320588 62.090108 253.804821 62.090108 
C 228.289053 62.090108 203.021395 67.116158 179.447899 76.880619 
C 155.874404 86.645081 134.453517 100.95806 116.411145 119.000432 
C 98.368773 137.042804 84.055794 158.463691 74.291332 182.037186 
C 64.526871 205.610682 59.500821 230.87834 59.500821 256.394108 
C 59.500821 281.909875 64.526871 307.177534 74.291332 330.75103 
C 84.055794 354.324525 98.368773 375.745412 116.411145 393.787784 
C 134.453517 411.830156 155.874404 426.143135 179.447899 435.907597 
C 203.021395 445.672058 228.289053 450.698108 253.804821 450.698108 
C 279.320588 450.698108 304.588247 445.672058 328.161742 435.907597 
C 351.735238 426.143135 373.156125 411.830156 391.198497 393.787784 
C 409.240869 375.745412 423.553848 354.324525 433.31831 330.75103 
C 443.082771 307.177534 448.108821 281.909875 448.108821 256.394108 
" clip-path="url(#pc9856a8a85)" style="fill: none; stroke: #b0b0b0; stroke-width: 0.8; stroke-linecap: square"/>
     </g>
     <g id="text_12">
      <!-- 0.10 -->
      <g transform="translate(433.31831 179.957499) scale(0.1 -0.1)">
       <defs>
        <path id="DejaVuSans-31" d="M 794 531 
L 1825 531 
L 1825 4091 
L 703 3866 
L 703 4441 
L 1819 4666 
L 2450 4666 
L 2450 531 
L 3481 531 
L 3481 0 
L 794 0 
L 794 531 
z
" transform="scale(0.015625)"/>
       </defs>
       <use xlink:href="#DejaVuSans-30"/>
       <use xlink:href="#DejaVuSans-2e" x="63.623047"/>
       <use xlink:href="#DejaVuSans-31" x="95.410156"/>
       <use xlink:href="#DejaVuSans-30" x="159.033203"/>
      </g>
     </g>
    </g>
   </g>
   <g id="line2d_13">
    <path d="M 253.804821 256.394108 
L 282.186876 220.804136 
L 244.362497 215.024582 
L 203.787148 232.306866 
L 235.037469 265.431988 
L 245.923129 290.926055 
L 280.37429 289.711169 
L 253.804821 256.394108 
" clip-path="url(#pc9856a8a85)" style="fill: none; stroke: #0000ff; stroke-width: 1.5; stroke-linecap: square"/>
   </g>
   <g id="line2d_14">
    <path d="M 465.004821 256.394108 
L 276.534007 227.89261 
L 246.699707 225.26457 
L 253.804821 256.394108 
L 238.239698 263.889876 
L 245.040623 294.792566 
L 280.256035 289.562882 
L 465.004821 256.394108 
" clip-path="url(#pc9856a8a85)" style="fill: none; stroke: #ff0000; stroke-width: 1.5; stroke-linecap: square"/>
   </g>
   <g id="patch_3">
    <path d="M 475.564821 256.394108 
C 475.564821 227.272852 469.828568 198.434763 458.684346 171.53023 
C 447.540124 144.625697 431.204659 120.177946 410.612821 99.586108 
C 390.020983 78.99427 365.573232 62.658805 338.668699 51.514583 
C 311.764166 40.37036 282.926077 34.634108 253.804821 34.634108 
C 224.683564 34.634108 195.845476 40.37036 168.940943 51.514583 
C 142.03641 62.658805 117.588659 78.99427 96.996821 99.586108 
C 76.404983 120.177946 60.069518 144.625697 48.925296 171.53023 
C 37.781073 198.434763 32.044821 227.272852 32.044821 256.394108 
C 32.044821 285.515364 37.781073 314.353453 48.925296 341.257986 
C 60.069518 368.162519 76.404983 392.61027 96.996821 413.202108 
C 117.588659 433.793946 142.03641 450.129411 168.940943 461.273633 
C 195.845476 472.417855 224.683564 478.154108 253.804821 478.154108 
C 282.926077 478.154108 311.764166 472.417855 338.668699 461.273633 
C 365.573232 450.129411 390.020983 433.793946 410.612821 413.202108 
C 431.204659 392.61027 447.540124 368.162519 458.684346 341.257986 
C 469.828568 314.353453 475.564821 285.515364 475.564821 256.394108 
" style="fill: none; stroke: #000000; stroke-width: 0.8; stroke-linejoin: miter; stroke-linecap: square"/>
   </g>
   <g id="text_13">
    <!-- Répartition des cheptels sur le pole de Nive Adour en 2010 et 2020 -->
    <g transform="translate(51.482008 16.798125) scale(0.12 -0.12)">
     <defs>
      <path id="DejaVuSans-52" d="M 2841 2188 
Q 3044 2119 3236 1894 
Q 3428 1669 3622 1275 
L 4263 0 
L 3584 0 
L 2988 1197 
Q 2756 1666 2539 1819 
Q 2322 1972 1947 1972 
L 1259 1972 
L 1259 0 
L 628 0 
L 628 4666 
L 2053 4666 
Q 2853 4666 3247 4331 
Q 3641 3997 3641 3322 
Q 3641 2881 3436 2590 
Q 3231 2300 2841 2188 
z
M 1259 4147 
L 1259 2491 
L 2053 2491 
Q 2509 2491 2742 2702 
Q 2975 2913 2975 3322 
Q 2975 3731 2742 3939 
Q 2509 4147 2053 4147 
L 1259 4147 
z
" transform="scale(0.015625)"/>
      <path id="DejaVuSans-4e" d="M 628 4666 
L 1478 4666 
L 3547 763 
L 3547 4666 
L 4159 4666 
L 4159 0 
L 3309 0 
L 1241 3903 
L 1241 0 
L 628 0 
L 628 4666 
z
" transform="scale(0.015625)"/>
      <path id="DejaVuSans-41" d="M 2188 4044 
L 1331 1722 
L 3047 1722 
L 2188 4044 
z
M 1831 4666 
L 2547 4666 
L 4325 0 
L 3669 0 
L 3244 1197 
L 1141 1197 
L 716 0 
L 50 0 
L 1831 4666 
z
" transform="scale(0.015625)"/>
     </defs>
     <use xlink:href="#DejaVuSans-52"/>
     <use xlink:href="#DejaVuSans-e9" x="64.982422"/>
     <use xlink:href="#DejaVuSans-70" x="126.505859"/>
     <use xlink:href="#DejaVuSans-61" x="189.982422"/>
     <use xlink:href="#DejaVuSans-72" x="251.261719"/>
     <use xlink:href="#DejaVuSans-74" x="292.375"/>
     <use xlink:href="#DejaVuSans-69" x="331.583984"/>
     <use xlink:href="#DejaVuSans-74" x="359.367188"/>
     <use xlink:href="#DejaVuSans-69" x="398.576172"/>
     <use xlink:href="#DejaVuSans-6f" x="426.359375"/>
     <use xlink:href="#DejaVuSans-6e" x="487.541016"/>
     <use xlink:href="#DejaVuSans-20" x="550.919922"/>
     <use xlink:href="#DejaVuSans-64" x="582.707031"/>
     <use xlink:href="#DejaVuSans-65" x="646.183594"/>
     <use xlink:href="#DejaVuSans-73" x="707.707031"/>
     <use xlink:href="#DejaVuSans-20" x="759.806641"/>
     <use xlink:href="#DejaVuSans-63" x="791.59375"/>
     <use xlink:href="#DejaVuSans-68" x="846.574219"/>
     <use xlink:href="#DejaVuSans-65" x="909.953125"/>
     <use xlink:href="#DejaVuSans-70" x="971.476562"/>
     <use xlink:href="#DejaVuSans-74" x="1034.953125"/>
     <use xlink:href="#DejaVuSans-65" x="1074.162109"/>
     <use xlink:href="#DejaVuSans-6c" x="1135.685547"/>
     <use xlink:href="#DejaVuSans-73" x="1163.46875"/>
     <use xlink:href="#DejaVuSans-20" x="1215.568359"/>
     <use xlink:href="#DejaVuSans-73" x="1247.355469"/>
     <use xlink:href="#DejaVuSans-75" x="1299.455078"/>
     <use xlink:href="#DejaVuSans-72" x="1362.833984"/>
     <use xlink:href="#DejaVuSans-20" x="1403.947266"/>
     <use xlink:href="#DejaVuSans-6c" x="1435.734375"/>
     <use xlink:href="#DejaVuSans-65" x="1463.517578"/>
     <use xlink:href="#DejaVuSans-20" x="1525.041016"/>
     <use xlink:href="#DejaVuSans-70" x="1556.828125"/>
     <use xlink:href="#DejaVuSans-6f" x="1620.304688"/>
     <use xlink:href="#DejaVuSans-6c" x="1681.486328"/>
     <use xlink:href="#DejaVuSans-65" x="1709.269531"/>
     <use xlink:href="#DejaVuSans-20" x="1770.792969"/>
     <use xlink:href="#DejaVuSans-64" x="1802.580078"/>
     <use xlink:href="#DejaVuSans-65" x="1866.056641"/>
     <use xlink:href="#DejaVuSans-20" x="1927.580078"/>
     <use xlink:href="#DejaVuSans-4e" x="1959.367188"/>
     <use xlink:href="#DejaVuSans-69" x="2034.171875"/>
     <use xlink:href="#DejaVuSans-76" x="2061.955078"/>
     <use xlink:href="#DejaVuSans-65" x="2121.134766"/>
     <use xlink:href="#DejaVuSans-20" x="2182.658203"/>
     <use xlink:href="#DejaVuSans-41" x="2214.445312"/>
     <use xlink:href="#DejaVuSans-64" x="2281.103516"/>
     <use xlink:href="#DejaVuSans-6f" x="2344.580078"/>
     <use xlink:href="#DejaVuSans-75" x="2405.761719"/>
     <use xlink:href="#DejaVuSans-72" x="2469.140625"/>
     <use xlink:href="#DejaVuSans-20" x="2510.253906"/>
     <use xlink:href="#DejaVuSans-65" x="2542.041016"/>
     <use xlink:href="#DejaVuSans-6e" x="2603.564453"/>
     <use xlink:href="#DejaVuSans-20" x="2666.943359"/>
     <use xlink:href="#DejaVuSans-32" x="2698.730469"/>
     <use xlink:href="#DejaVuSans-30" x="2762.353516"/>
     <use xlink:href="#DejaVuSans-31" x="2825.976562"/>
     <use xlink:href="#DejaVuSans-30" x="2889.599609"/>
     <use xlink:href="#DejaVuSans-20" x="2953.222656"/>
     <use xlink:href="#DejaVuSans-65" x="2985.009766"/>
     <use xlink:href="#DejaVuSans-74" x="3046.533203"/>
     <use xlink:href="#DejaVuSans-20" x="3085.742188"/>
     <use xlink:href="#DejaVuSans-32" x="3117.529297"/>
     <use xlink:href="#DejaVuSans-30" x="3181.152344"/>
     <use xlink:href="#DejaVuSans-32" x="3244.775391"/>
     <use xlink:href="#DejaVuSans-30" x="3308.398438"/>
    </g>
   </g>
   <g id="legend_1">
    <g id="patch_4">
     <path d="M 411.114821 71.990358 
L 468.564821 71.990358 
Q 470.564821 71.990358 470.564821 69.990358 
L 470.564821 41.634108 
Q 470.564821 39.634108 468.564821 39.634108 
L 411.114821 39.634108 
Q 409.114821 39.634108 409.114821 41.634108 
L 409.114821 69.990358 
Q 409.114821 71.990358 411.114821 71.990358 
z
" style="fill: #ffffff; opacity: 0.8; stroke: #cccccc; stroke-linejoin: miter"/>
    </g>
    <g id="line2d_15">
     <path d="M 413.114821 47.732545 
L 423.114821 47.732545 
L 433.114821 47.732545 
" style="fill: none; stroke: #0000ff; stroke-width: 1.5; stroke-linecap: square"/>
    </g>
    <g id="text_14">
     <!-- 2020 -->
     <g transform="translate(441.114821 51.232545) scale(0.1 -0.1)">
      <use xlink:href="#DejaVuSans-32"/>
      <use xlink:href="#DejaVuSans-30" x="63.623047"/>
      <use xlink:href="#DejaVuSans-32" x="127.246094"/>
      <use xlink:href="#DejaVuSans-30" x="190.869141"/>
     </g>
    </g>
    <g id="line2d_16">
     <path d="M 413.114821 62.41067 
L 423.114821 62.41067 
L 433.114821 62.41067 
" style="fill: none; stroke: #ff0000; stroke-width: 1.5; stroke-linecap: square"/>
    </g>
    <g id="text_15">
     <!-- 2010 -->
     <g transform="translate(441.114821 65.91067) scale(0.1 -0.1)">
      <use xlink:href="#DejaVuSans-32"/>
      <use xlink:href="#DejaVuSans-30" x="63.623047"/>
      <use xlink:href="#DejaVuSans-31" x="127.246094"/>
      <use xlink:href="#DejaVuSans-30" x="190.869141"/>
     </g>
    </g>
   </g>
  </g>
 </g>
 <defs>
  <clipPath id="pc9856a8a85">
   <path d="M 475.564821 256.394108 
C 475.564821 227.272852 469.828568 198.434763 458.684346 171.53023 
C 447.540124 144.625697 431.204659 120.177946 410.612821 99.586108 
C 390.020983 78.99427 365.573232 62.658805 338.668699 51.514583 
C 311.764166 40.37036 282.926077 34.634108 253.804821 34.634108 
C 224.683564 34.634108 195.845476 40.37036 168.940943 51.514583 
C 142.03641 62.658805 117.588659 78.99427 96.996821 99.586108 
C 76.404983 120.177946 60.069518 144.625697 48.925296 171.53023 
C 37.781073 198.434763 32.044821 227.272852 32.044821 256.394108 
C 32.044821 285.515364 37.781073 314.353453 48.925296 341.257986 
C 60.069518 368.162519 76.404983 392.61027 96.996821 413.202108 
C 117.588659 433.793946 142.03641 450.129411 168.940943 461.273633 
C 195.845476 472.417855 224.683564 478.154108 253.804821 478.154108 
C 282.926077 478.154108 311.764166 472.417855 338.668699 461.273633 
C 365.573232 450.129411 390.020983 433.793946 410.612821 413.202108 
C 431.204659 392.61027 447.540124 368.162519 458.684346 341.257986 
C 469.828568 314.353453 475.564821 285.515364 475.564821 256.394108 
M 253.804821 256.394108 
C 253.804821 256.394108 253.804821 256.394108 253.804821 256.394108 
C 253.804821 256.394108 253.804821 256.394108 253.804821 256.394108 
C 253.804821 256.394108 253.804821 256.394108 253.804821 256.394108 
C 253.804821 256.394108 253.804821 256.394108 253.804821 256.394108 
C 253.804821 256.394108 253.804821 256.394108 253.804821 256.394108 
C 253.804821 256.394108 253.804821 256.394108 253.804821 256.394108 
C 253.804821 256.394108 253.804821 256.394108 253.804821 256.394108 
C 253.804821 256.394108 253.804821 256.394108 253.804821 256.394108 
C 253.804821 256.394108 253.804821 256.394108 253.804821 256.394108 
C 253.804821 256.394108 253.804821 256.394108 253.804821 256.394108 
C 253.804821 256.394108 253.804821 256.394108 253.804821 256.394108 
C 253.804821 256.394108 253.804821 256.394108 253.804821 256.394108 
C 253.804821 256.394108 253.804821 256.394108 253.804821 256.394108 
C 253.804821 256.394108 253.804821 256.394108 253.804821 256.394108 
C 253.804821 256.394108 253.804821 256.394108 253.804821 256.394108 
C 253.804821 256.394108 253.804821 256.394108 253.804821 256.394108 
z
"/>
  </clipPath>
 </defs>
</svg>
