<?xml version="1.0" encoding="utf-8" standalone="no"?>
<!DOCTYPE svg PUBLIC "-//W3C//DTD SVG 1.1//EN"
  "http://www.w3.org/Graphics/SVG/1.1/DTD/svg11.dtd">
<svg xmlns:xlink="http://www.w3.org/1999/xlink" width="572.88279pt" height="500.611446pt" viewBox="0 0 572.88279 500.611446" xmlns="http://www.w3.org/2000/svg" version="1.1">
 <metadata>
  <rdf:RDF xmlns:dc="http://purl.org/dc/elements/1.1/" xmlns:cc="http://creativecommons.org/ns#" xmlns:rdf="http://www.w3.org/1999/02/22-rdf-syntax-ns#">
   <cc:Work>
    <dc:type rdf:resource="http://purl.org/dc/dcmitype/StillImage"/>
    <dc:date>2023-06-26T13:50:56.926892</dc:date>
    <dc:format>image/svg+xml</dc:format>
    <dc:creator>
     <cc:Agent>
      <dc:title>Matplotlib v3.7.1, https://matplotlib.org/</dc:title>
     </cc:Agent>
    </dc:creator>
   </cc:Work>
  </rdf:RDF>
 </metadata>
 <defs>
  <style type="text/css">*{stroke-linejoin: round; stroke-linecap: butt}</style>
 </defs>
 <g id="figure_1">
  <g id="patch_1">
   <path d="M 0 500.611446 
L 572.88279 500.611446 
L 572.88279 0 
L 0 0 
z
" style="fill: #ffffff"/>
  </g>
  <g id="axes_1">
   <g id="patch_2">
    <path d="M 475.564821 256.394108 
C 475.564821 227.272852 469.828568 198.434763 458.684346 171.53023 
C 447.540124 144.625697 431.204659 120.177946 410.612821 99.586108 
C 390.020983 78.99427 365.573232 62.658805 338.668699 51.514583 
C 311.764166 40.37036 282.926077 34.634108 253.804821 34.634108 
C 224.683564 34.634108 195.845476 40.37036 168.940943 51.514583 
C 142.03641 62.658805 117.588659 78.99427 96.996821 99.586108 
C 76.404983 120.177946 60.069518 144.625697 48.925296 171.53023 
C 37.781073 198.434763 32.044821 227.272852 32.044821 256.394108 
C 32.044821 285.515364 37.781073 314.353453 48.925296 341.257986 
C 60.069518 368.162519 76.404983 392.61027 96.996821 413.202108 
C 117.588659 433.793946 142.03641 450.129411 168.940943 461.273633 
C 195.845476 472.417855 224.683564 478.154108 253.804821 478.154108 
C 282.926077 478.154108 311.764166 472.417855 338.668699 461.273633 
C 365.573232 450.129411 390.020983 433.793946 410.612821 413.202108 
C 431.204659 392.61027 447.540124 368.162519 458.684346 341.257986 
C 469.828568 314.353453 475.564821 285.515364 475.564821 256.394108 
M 253.804821 256.394108 
C 253.804821 256.394108 253.804821 256.394108 253.804821 256.394108 
C 253.804821 256.394108 253.804821 256.394108 253.804821 256.394108 
C 253.804821 256.394108 253.804821 256.394108 253.804821 256.394108 
C 253.804821 256.394108 253.804821 256.394108 253.804821 256.394108 
C 253.804821 256.394108 253.804821 256.394108 253.804821 256.394108 
C 253.804821 256.394108 253.804821 256.394108 253.804821 256.394108 
C 253.804821 256.394108 253.804821 256.394108 253.804821 256.394108 
C 253.804821 256.394108 253.804821 256.394108 253.804821 256.394108 
C 253.804821 256.394108 253.804821 256.394108 253.804821 256.394108 
C 253.804821 256.394108 253.804821 256.394108 253.804821 256.394108 
C 253.804821 256.394108 253.804821 256.394108 253.804821 256.394108 
C 253.804821 256.394108 253.804821 256.394108 253.804821 256.394108 
C 253.804821 256.394108 253.804821 256.394108 253.804821 256.394108 
C 253.804821 256.394108 253.804821 256.394108 253.804821 256.394108 
C 253.804821 256.394108 253.804821 256.394108 253.804821 256.394108 
C 253.804821 256.394108 253.804821 256.394108 253.804821 256.394108 
z
" style="fill: #ffffff"/>
   </g>
   <g id="matplotlib.axis_1">
    <g id="xtick_1">
     <g id="line2d_1">
      <path d="M 253.804821 256.394108 
L 475.564821 256.394108 
" clip-path="url(#p333e7c769c)" style="fill: none; stroke: #b0b0b0; stroke-width: 0.8; stroke-linecap: square"/>
     </g>
     <g id="text_1">
      <!-- apiculture (nombre de ruches) -->
      <g transform="translate(413.446852 259.153483) scale(0.1 -0.1)">
       <defs>
        <path id="DejaVuSans-61" d="M 2194 1759 
Q 1497 1759 1228 1600 
Q 959 1441 959 1056 
Q 959 750 1161 570 
Q 1363 391 1709 391 
Q 2188 391 2477 730 
Q 2766 1069 2766 1631 
L 2766 1759 
L 2194 1759 
z
M 3341 1997 
L 3341 0 
L 2766 0 
L 2766 531 
Q 2569 213 2275 61 
Q 1981 -91 1556 -91 
Q 1019 -91 701 211 
Q 384 513 384 1019 
Q 384 1609 779 1909 
Q 1175 2209 1959 2209 
L 2766 2209 
L 2766 2266 
Q 2766 2663 2505 2880 
Q 2244 3097 1772 3097 
Q 1472 3097 1187 3025 
Q 903 2953 641 2809 
L 641 3341 
Q 956 3463 1253 3523 
Q 1550 3584 1831 3584 
Q 2591 3584 2966 3190 
Q 3341 2797 3341 1997 
z
" transform="scale(0.015625)"/>
        <path id="DejaVuSans-70" d="M 1159 525 
L 1159 -1331 
L 581 -1331 
L 581 3500 
L 1159 3500 
L 1159 2969 
Q 1341 3281 1617 3432 
Q 1894 3584 2278 3584 
Q 2916 3584 3314 3078 
Q 3713 2572 3713 1747 
Q 3713 922 3314 415 
Q 2916 -91 2278 -91 
Q 1894 -91 1617 61 
Q 1341 213 1159 525 
z
M 3116 1747 
Q 3116 2381 2855 2742 
Q 2594 3103 2138 3103 
Q 1681 3103 1420 2742 
Q 1159 2381 1159 1747 
Q 1159 1113 1420 752 
Q 1681 391 2138 391 
Q 2594 391 2855 752 
Q 3116 1113 3116 1747 
z
" transform="scale(0.015625)"/>
        <path id="DejaVuSans-69" d="M 603 3500 
L 1178 3500 
L 1178 0 
L 603 0 
L 603 3500 
z
M 603 4863 
L 1178 4863 
L 1178 4134 
L 603 4134 
L 603 4863 
z
" transform="scale(0.015625)"/>
        <path id="DejaVuSans-63" d="M 3122 3366 
L 3122 2828 
Q 2878 2963 2633 3030 
Q 2388 3097 2138 3097 
Q 1578 3097 1268 2742 
Q 959 2388 959 1747 
Q 959 1106 1268 751 
Q 1578 397 2138 397 
Q 2388 397 2633 464 
Q 2878 531 3122 666 
L 3122 134 
Q 2881 22 2623 -34 
Q 2366 -91 2075 -91 
Q 1284 -91 818 406 
Q 353 903 353 1747 
Q 353 2603 823 3093 
Q 1294 3584 2113 3584 
Q 2378 3584 2631 3529 
Q 2884 3475 3122 3366 
z
" transform="scale(0.015625)"/>
        <path id="DejaVuSans-75" d="M 544 1381 
L 544 3500 
L 1119 3500 
L 1119 1403 
Q 1119 906 1312 657 
Q 1506 409 1894 409 
Q 2359 409 2629 706 
Q 2900 1003 2900 1516 
L 2900 3500 
L 3475 3500 
L 3475 0 
L 2900 0 
L 2900 538 
Q 2691 219 2414 64 
Q 2138 -91 1772 -91 
Q 1169 -91 856 284 
Q 544 659 544 1381 
z
M 1991 3584 
L 1991 3584 
z
" transform="scale(0.015625)"/>
        <path id="DejaVuSans-6c" d="M 603 4863 
L 1178 4863 
L 1178 0 
L 603 0 
L 603 4863 
z
" transform="scale(0.015625)"/>
        <path id="DejaVuSans-74" d="M 1172 4494 
L 1172 3500 
L 2356 3500 
L 2356 3053 
L 1172 3053 
L 1172 1153 
Q 1172 725 1289 603 
Q 1406 481 1766 481 
L 2356 481 
L 2356 0 
L 1766 0 
Q 1100 0 847 248 
Q 594 497 594 1153 
L 594 3053 
L 172 3053 
L 172 3500 
L 594 3500 
L 594 4494 
L 1172 4494 
z
" transform="scale(0.015625)"/>
        <path id="DejaVuSans-72" d="M 2631 2963 
Q 2534 3019 2420 3045 
Q 2306 3072 2169 3072 
Q 1681 3072 1420 2755 
Q 1159 2438 1159 1844 
L 1159 0 
L 581 0 
L 581 3500 
L 1159 3500 
L 1159 2956 
Q 1341 3275 1631 3429 
Q 1922 3584 2338 3584 
Q 2397 3584 2469 3576 
Q 2541 3569 2628 3553 
L 2631 2963 
z
" transform="scale(0.015625)"/>
        <path id="DejaVuSans-65" d="M 3597 1894 
L 3597 1613 
L 953 1613 
Q 991 1019 1311 708 
Q 1631 397 2203 397 
Q 2534 397 2845 478 
Q 3156 559 3463 722 
L 3463 178 
Q 3153 47 2828 -22 
Q 2503 -91 2169 -91 
Q 1331 -91 842 396 
Q 353 884 353 1716 
Q 353 2575 817 3079 
Q 1281 3584 2069 3584 
Q 2775 3584 3186 3129 
Q 3597 2675 3597 1894 
z
M 3022 2063 
Q 3016 2534 2758 2815 
Q 2500 3097 2075 3097 
Q 1594 3097 1305 2825 
Q 1016 2553 972 2059 
L 3022 2063 
z
" transform="scale(0.015625)"/>
        <path id="DejaVuSans-20" transform="scale(0.015625)"/>
        <path id="DejaVuSans-28" d="M 1984 4856 
Q 1566 4138 1362 3434 
Q 1159 2731 1159 2009 
Q 1159 1288 1364 580 
Q 1569 -128 1984 -844 
L 1484 -844 
Q 1016 -109 783 600 
Q 550 1309 550 2009 
Q 550 2706 781 3412 
Q 1013 4119 1484 4856 
L 1984 4856 
z
" transform="scale(0.015625)"/>
        <path id="DejaVuSans-6e" d="M 3513 2113 
L 3513 0 
L 2938 0 
L 2938 2094 
Q 2938 2591 2744 2837 
Q 2550 3084 2163 3084 
Q 1697 3084 1428 2787 
Q 1159 2491 1159 1978 
L 1159 0 
L 581 0 
L 581 3500 
L 1159 3500 
L 1159 2956 
Q 1366 3272 1645 3428 
Q 1925 3584 2291 3584 
Q 2894 3584 3203 3211 
Q 3513 2838 3513 2113 
z
" transform="scale(0.015625)"/>
        <path id="DejaVuSans-6f" d="M 1959 3097 
Q 1497 3097 1228 2736 
Q 959 2375 959 1747 
Q 959 1119 1226 758 
Q 1494 397 1959 397 
Q 2419 397 2687 759 
Q 2956 1122 2956 1747 
Q 2956 2369 2687 2733 
Q 2419 3097 1959 3097 
z
M 1959 3584 
Q 2709 3584 3137 3096 
Q 3566 2609 3566 1747 
Q 3566 888 3137 398 
Q 2709 -91 1959 -91 
Q 1206 -91 779 398 
Q 353 888 353 1747 
Q 353 2609 779 3096 
Q 1206 3584 1959 3584 
z
" transform="scale(0.015625)"/>
        <path id="DejaVuSans-6d" d="M 3328 2828 
Q 3544 3216 3844 3400 
Q 4144 3584 4550 3584 
Q 5097 3584 5394 3201 
Q 5691 2819 5691 2113 
L 5691 0 
L 5113 0 
L 5113 2094 
Q 5113 2597 4934 2840 
Q 4756 3084 4391 3084 
Q 3944 3084 3684 2787 
Q 3425 2491 3425 1978 
L 3425 0 
L 2847 0 
L 2847 2094 
Q 2847 2600 2669 2842 
Q 2491 3084 2119 3084 
Q 1678 3084 1418 2786 
Q 1159 2488 1159 1978 
L 1159 0 
L 581 0 
L 581 3500 
L 1159 3500 
L 1159 2956 
Q 1356 3278 1631 3431 
Q 1906 3584 2284 3584 
Q 2666 3584 2933 3390 
Q 3200 3197 3328 2828 
z
" transform="scale(0.015625)"/>
        <path id="DejaVuSans-62" d="M 3116 1747 
Q 3116 2381 2855 2742 
Q 2594 3103 2138 3103 
Q 1681 3103 1420 2742 
Q 1159 2381 1159 1747 
Q 1159 1113 1420 752 
Q 1681 391 2138 391 
Q 2594 391 2855 752 
Q 3116 1113 3116 1747 
z
M 1159 2969 
Q 1341 3281 1617 3432 
Q 1894 3584 2278 3584 
Q 2916 3584 3314 3078 
Q 3713 2572 3713 1747 
Q 3713 922 3314 415 
Q 2916 -91 2278 -91 
Q 1894 -91 1617 61 
Q 1341 213 1159 525 
L 1159 0 
L 581 0 
L 581 4863 
L 1159 4863 
L 1159 2969 
z
" transform="scale(0.015625)"/>
        <path id="DejaVuSans-64" d="M 2906 2969 
L 2906 4863 
L 3481 4863 
L 3481 0 
L 2906 0 
L 2906 525 
Q 2725 213 2448 61 
Q 2172 -91 1784 -91 
Q 1150 -91 751 415 
Q 353 922 353 1747 
Q 353 2572 751 3078 
Q 1150 3584 1784 3584 
Q 2172 3584 2448 3432 
Q 2725 3281 2906 2969 
z
M 947 1747 
Q 947 1113 1208 752 
Q 1469 391 1925 391 
Q 2381 391 2643 752 
Q 2906 1113 2906 1747 
Q 2906 2381 2643 2742 
Q 2381 3103 1925 3103 
Q 1469 3103 1208 2742 
Q 947 2381 947 1747 
z
" transform="scale(0.015625)"/>
        <path id="DejaVuSans-68" d="M 3513 2113 
L 3513 0 
L 2938 0 
L 2938 2094 
Q 2938 2591 2744 2837 
Q 2550 3084 2163 3084 
Q 1697 3084 1428 2787 
Q 1159 2491 1159 1978 
L 1159 0 
L 581 0 
L 581 4863 
L 1159 4863 
L 1159 2956 
Q 1366 3272 1645 3428 
Q 1925 3584 2291 3584 
Q 2894 3584 3203 3211 
Q 3513 2838 3513 2113 
z
" transform="scale(0.015625)"/>
        <path id="DejaVuSans-73" d="M 2834 3397 
L 2834 2853 
Q 2591 2978 2328 3040 
Q 2066 3103 1784 3103 
Q 1356 3103 1142 2972 
Q 928 2841 928 2578 
Q 928 2378 1081 2264 
Q 1234 2150 1697 2047 
L 1894 2003 
Q 2506 1872 2764 1633 
Q 3022 1394 3022 966 
Q 3022 478 2636 193 
Q 2250 -91 1575 -91 
Q 1294 -91 989 -36 
Q 684 19 347 128 
L 347 722 
Q 666 556 975 473 
Q 1284 391 1588 391 
Q 1994 391 2212 530 
Q 2431 669 2431 922 
Q 2431 1156 2273 1281 
Q 2116 1406 1581 1522 
L 1381 1569 
Q 847 1681 609 1914 
Q 372 2147 372 2553 
Q 372 3047 722 3315 
Q 1072 3584 1716 3584 
Q 2034 3584 2315 3537 
Q 2597 3491 2834 3397 
z
" transform="scale(0.015625)"/>
        <path id="DejaVuSans-29" d="M 513 4856 
L 1013 4856 
Q 1481 4119 1714 3412 
Q 1947 2706 1947 2009 
Q 1947 1309 1714 600 
Q 1481 -109 1013 -844 
L 513 -844 
Q 928 -128 1133 580 
Q 1338 1288 1338 2009 
Q 1338 2731 1133 3434 
Q 928 4138 513 4856 
z
" transform="scale(0.015625)"/>
       </defs>
       <use xlink:href="#DejaVuSans-61"/>
       <use xlink:href="#DejaVuSans-70" x="61.279297"/>
       <use xlink:href="#DejaVuSans-69" x="124.755859"/>
       <use xlink:href="#DejaVuSans-63" x="152.539062"/>
       <use xlink:href="#DejaVuSans-75" x="207.519531"/>
       <use xlink:href="#DejaVuSans-6c" x="270.898438"/>
       <use xlink:href="#DejaVuSans-74" x="298.681641"/>
       <use xlink:href="#DejaVuSans-75" x="337.890625"/>
       <use xlink:href="#DejaVuSans-72" x="401.269531"/>
       <use xlink:href="#DejaVuSans-65" x="440.132812"/>
       <use xlink:href="#DejaVuSans-20" x="501.65625"/>
       <use xlink:href="#DejaVuSans-28" x="533.443359"/>
       <use xlink:href="#DejaVuSans-6e" x="572.457031"/>
       <use xlink:href="#DejaVuSans-6f" x="635.835938"/>
       <use xlink:href="#DejaVuSans-6d" x="697.017578"/>
       <use xlink:href="#DejaVuSans-62" x="794.429688"/>
       <use xlink:href="#DejaVuSans-72" x="857.90625"/>
       <use xlink:href="#DejaVuSans-65" x="896.769531"/>
       <use xlink:href="#DejaVuSans-20" x="958.292969"/>
       <use xlink:href="#DejaVuSans-64" x="990.080078"/>
       <use xlink:href="#DejaVuSans-65" x="1053.556641"/>
       <use xlink:href="#DejaVuSans-20" x="1115.080078"/>
       <use xlink:href="#DejaVuSans-72" x="1146.867188"/>
       <use xlink:href="#DejaVuSans-75" x="1187.980469"/>
       <use xlink:href="#DejaVuSans-63" x="1251.359375"/>
       <use xlink:href="#DejaVuSans-68" x="1306.339844"/>
       <use xlink:href="#DejaVuSans-65" x="1369.71875"/>
       <use xlink:href="#DejaVuSans-73" x="1431.242188"/>
       <use xlink:href="#DejaVuSans-29" x="1483.341797"/>
      </g>
     </g>
    </g>
    <g id="xtick_2">
     <g id="line2d_2">
      <path d="M 253.804821 256.394108 
L 390.33391 81.644843 
" clip-path="url(#p333e7c769c)" style="fill: none; stroke: #b0b0b0; stroke-width: 0.8; stroke-linecap: square"/>
     </g>
     <g id="text_2">
      <!-- total équins -->
      <g transform="translate(369.349264 73.572068) scale(0.1 -0.1)">
       <defs>
        <path id="DejaVuSans-e9" d="M 3597 1894 
L 3597 1613 
L 953 1613 
Q 991 1019 1311 708 
Q 1631 397 2203 397 
Q 2534 397 2845 478 
Q 3156 559 3463 722 
L 3463 178 
Q 3153 47 2828 -22 
Q 2503 -91 2169 -91 
Q 1331 -91 842 396 
Q 353 884 353 1716 
Q 353 2575 817 3079 
Q 1281 3584 2069 3584 
Q 2775 3584 3186 3129 
Q 3597 2675 3597 1894 
z
M 3022 2063 
Q 3016 2534 2758 2815 
Q 2500 3097 2075 3097 
Q 1594 3097 1305 2825 
Q 1016 2553 972 2059 
L 3022 2063 
z
M 2466 5119 
L 3088 5119 
L 2070 3944 
L 1591 3944 
L 2466 5119 
z
" transform="scale(0.015625)"/>
        <path id="DejaVuSans-71" d="M 947 1747 
Q 947 1113 1208 752 
Q 1469 391 1925 391 
Q 2381 391 2643 752 
Q 2906 1113 2906 1747 
Q 2906 2381 2643 2742 
Q 2381 3103 1925 3103 
Q 1469 3103 1208 2742 
Q 947 2381 947 1747 
z
M 2906 525 
Q 2725 213 2448 61 
Q 2172 -91 1784 -91 
Q 1150 -91 751 415 
Q 353 922 353 1747 
Q 353 2572 751 3078 
Q 1150 3584 1784 3584 
Q 2172 3584 2448 3432 
Q 2725 3281 2906 2969 
L 2906 3500 
L 3481 3500 
L 3481 -1331 
L 2906 -1331 
L 2906 525 
z
" transform="scale(0.015625)"/>
       </defs>
       <use xlink:href="#DejaVuSans-74"/>
       <use xlink:href="#DejaVuSans-6f" x="39.208984"/>
       <use xlink:href="#DejaVuSans-74" x="100.390625"/>
       <use xlink:href="#DejaVuSans-61" x="139.599609"/>
       <use xlink:href="#DejaVuSans-6c" x="200.878906"/>
       <use xlink:href="#DejaVuSans-20" x="228.662109"/>
       <use xlink:href="#DejaVuSans-e9" x="260.449219"/>
       <use xlink:href="#DejaVuSans-71" x="321.972656"/>
       <use xlink:href="#DejaVuSans-75" x="385.449219"/>
       <use xlink:href="#DejaVuSans-69" x="448.828125"/>
       <use xlink:href="#DejaVuSans-6e" x="476.611328"/>
       <use xlink:href="#DejaVuSans-73" x="539.990234"/>
      </g>
     </g>
    </g>
    <g id="xtick_3">
     <g id="line2d_3">
      <path d="M 253.804821 256.394108 
L 200.156221 41.221328 
" clip-path="url(#p333e7c769c)" style="fill: none; stroke: #b0b0b0; stroke-width: 0.8; stroke-linecap: square"/>
     </g>
     <g id="text_3">
      <!-- total bovins -->
      <g transform="translate(167.391971 30.396563) scale(0.1 -0.1)">
       <defs>
        <path id="DejaVuSans-76" d="M 191 3500 
L 800 3500 
L 1894 563 
L 2988 3500 
L 3597 3500 
L 2284 0 
L 1503 0 
L 191 3500 
z
" transform="scale(0.015625)"/>
       </defs>
       <use xlink:href="#DejaVuSans-74"/>
       <use xlink:href="#DejaVuSans-6f" x="39.208984"/>
       <use xlink:href="#DejaVuSans-74" x="100.390625"/>
       <use xlink:href="#DejaVuSans-61" x="139.599609"/>
       <use xlink:href="#DejaVuSans-6c" x="200.878906"/>
       <use xlink:href="#DejaVuSans-20" x="228.662109"/>
       <use xlink:href="#DejaVuSans-62" x="260.449219"/>
       <use xlink:href="#DejaVuSans-6f" x="323.925781"/>
       <use xlink:href="#DejaVuSans-76" x="385.107422"/>
       <use xlink:href="#DejaVuSans-69" x="444.287109"/>
       <use xlink:href="#DejaVuSans-6e" x="472.070312"/>
       <use xlink:href="#DejaVuSans-73" x="535.449219"/>
      </g>
     </g>
    </g>
    <g id="xtick_4">
     <g id="line2d_4">
      <path d="M 253.804821 256.394108 
L 51.21698 166.19619 
" clip-path="url(#p333e7c769c)" style="fill: none; stroke: #b0b0b0; stroke-width: 0.8; stroke-linecap: square"/>
     </g>
     <g id="text_4">
      <!-- total caprins -->
      <g transform="translate(7.2 163.261252) scale(0.1 -0.1)">
       <use xlink:href="#DejaVuSans-74"/>
       <use xlink:href="#DejaVuSans-6f" x="39.208984"/>
       <use xlink:href="#DejaVuSans-74" x="100.390625"/>
       <use xlink:href="#DejaVuSans-61" x="139.599609"/>
       <use xlink:href="#DejaVuSans-6c" x="200.878906"/>
       <use xlink:href="#DejaVuSans-20" x="228.662109"/>
       <use xlink:href="#DejaVuSans-63" x="260.449219"/>
       <use xlink:href="#DejaVuSans-61" x="315.429688"/>
       <use xlink:href="#DejaVuSans-70" x="376.708984"/>
       <use xlink:href="#DejaVuSans-72" x="440.185547"/>
       <use xlink:href="#DejaVuSans-69" x="481.298828"/>
       <use xlink:href="#DejaVuSans-6e" x="509.082031"/>
       <use xlink:href="#DejaVuSans-73" x="572.460938"/>
      </g>
     </g>
    </g>
    <g id="xtick_5">
     <g id="line2d_5">
      <path d="M 253.804821 256.394108 
L 58.002363 360.504122 
" clip-path="url(#p333e7c769c)" style="fill: none; stroke: #b0b0b0; stroke-width: 0.8; stroke-linecap: square"/>
     </g>
     <g id="text_5">
      <!-- total ovins -->
      <g transform="translate(19.437971 369.836099) scale(0.1 -0.1)">
       <use xlink:href="#DejaVuSans-74"/>
       <use xlink:href="#DejaVuSans-6f" x="39.208984"/>
       <use xlink:href="#DejaVuSans-74" x="100.390625"/>
       <use xlink:href="#DejaVuSans-61" x="139.599609"/>
       <use xlink:href="#DejaVuSans-6c" x="200.878906"/>
       <use xlink:href="#DejaVuSans-20" x="228.662109"/>
       <use xlink:href="#DejaVuSans-6f" x="260.449219"/>
       <use xlink:href="#DejaVuSans-76" x="321.630859"/>
       <use xlink:href="#DejaVuSans-69" x="380.810547"/>
       <use xlink:href="#DejaVuSans-6e" x="408.59375"/>
       <use xlink:href="#DejaVuSans-73" x="471.972656"/>
      </g>
     </g>
    </g>
    <g id="xtick_6">
     <g id="line2d_6">
      <path d="M 253.804821 256.394108 
L 215.296601 474.785075 
" clip-path="url(#p333e7c769c)" style="fill: none; stroke: #b0b0b0; stroke-width: 0.8; stroke-linecap: square"/>
     </g>
     <g id="text_6">
      <!-- total porcins -->
      <g transform="translate(181.75537 491.331759) scale(0.1 -0.1)">
       <use xlink:href="#DejaVuSans-74"/>
       <use xlink:href="#DejaVuSans-6f" x="39.208984"/>
       <use xlink:href="#DejaVuSans-74" x="100.390625"/>
       <use xlink:href="#DejaVuSans-61" x="139.599609"/>
       <use xlink:href="#DejaVuSans-6c" x="200.878906"/>
       <use xlink:href="#DejaVuSans-20" x="228.662109"/>
       <use xlink:href="#DejaVuSans-70" x="260.449219"/>
       <use xlink:href="#DejaVuSans-6f" x="323.925781"/>
       <use xlink:href="#DejaVuSans-72" x="385.107422"/>
       <use xlink:href="#DejaVuSans-63" x="423.970703"/>
       <use xlink:href="#DejaVuSans-69" x="478.951172"/>
       <use xlink:href="#DejaVuSans-6e" x="506.734375"/>
       <use xlink:href="#DejaVuSans-73" x="570.113281"/>
      </g>
     </g>
    </g>
    <g id="xtick_7">
     <g id="line2d_7">
      <path d="M 253.804821 256.394108 
L 402.191224 421.193904 
" clip-path="url(#p333e7c769c)" style="fill: none; stroke: #b0b0b0; stroke-width: 0.8; stroke-linecap: square"/>
     </g>
     <g id="text_7">
      <!-- total volailles -->
      <g transform="translate(378.216865 434.357307) scale(0.1 -0.1)">
       <use xlink:href="#DejaVuSans-74"/>
       <use xlink:href="#DejaVuSans-6f" x="39.208984"/>
       <use xlink:href="#DejaVuSans-74" x="100.390625"/>
       <use xlink:href="#DejaVuSans-61" x="139.599609"/>
       <use xlink:href="#DejaVuSans-6c" x="200.878906"/>
       <use xlink:href="#DejaVuSans-20" x="228.662109"/>
       <use xlink:href="#DejaVuSans-76" x="260.449219"/>
       <use xlink:href="#DejaVuSans-6f" x="319.628906"/>
       <use xlink:href="#DejaVuSans-6c" x="380.810547"/>
       <use xlink:href="#DejaVuSans-61" x="408.59375"/>
       <use xlink:href="#DejaVuSans-69" x="469.873047"/>
       <use xlink:href="#DejaVuSans-6c" x="497.65625"/>
       <use xlink:href="#DejaVuSans-6c" x="525.439453"/>
       <use xlink:href="#DejaVuSans-65" x="553.222656"/>
       <use xlink:href="#DejaVuSans-73" x="614.746094"/>
      </g>
     </g>
    </g>
   </g>
   <g id="matplotlib.axis_2">
    <g id="ytick_1">
     <g id="line2d_8">
      <path d="M 282.053875 256.394108 
C 282.053875 252.684476 281.323158 249.010916 279.903544 245.583663 
C 278.483929 242.15641 276.403024 239.042116 273.779918 236.41901 
C 271.156813 233.795905 268.042519 231.715 264.615266 230.295385 
C 261.188013 228.875771 257.514453 228.145054 253.804821 228.145054 
C 250.095189 228.145054 246.421629 228.875771 242.994376 230.295385 
C 239.567123 231.715 236.452829 233.795905 233.829723 236.41901 
C 231.206618 239.042116 229.125713 242.15641 227.706098 245.583663 
C 226.286484 249.010916 225.555767 252.684476 225.555767 256.394108 
C 225.555767 260.10374 226.286484 263.7773 227.706098 267.204553 
C 229.125713 270.631806 231.206618 273.7461 233.829723 276.369205 
C 236.452829 278.992311 239.567123 281.073216 242.994376 282.492831 
C 246.421629 283.912445 250.095189 284.643162 253.804821 284.643162 
C 257.514453 284.643162 261.188013 283.912445 264.615266 282.492831 
C 268.042519 281.073216 271.156813 278.992311 273.779918 276.369205 
C 276.403024 273.7461 278.483929 270.631806 279.903544 267.204553 
C 281.323158 263.7773 282.053875 260.10374 282.053875 256.394108 
" clip-path="url(#p333e7c769c)" style="fill: none; stroke: #b0b0b0; stroke-width: 0.8; stroke-linecap: square"/>
     </g>
     <g id="text_8">
      <!-- 0.02 -->
      <g transform="translate(279.903544 243.503976) scale(0.1 -0.1)">
       <defs>
        <path id="DejaVuSans-30" d="M 2034 4250 
Q 1547 4250 1301 3770 
Q 1056 3291 1056 2328 
Q 1056 1369 1301 889 
Q 1547 409 2034 409 
Q 2525 409 2770 889 
Q 3016 1369 3016 2328 
Q 3016 3291 2770 3770 
Q 2525 4250 2034 4250 
z
M 2034 4750 
Q 2819 4750 3233 4129 
Q 3647 3509 3647 2328 
Q 3647 1150 3233 529 
Q 2819 -91 2034 -91 
Q 1250 -91 836 529 
Q 422 1150 422 2328 
Q 422 3509 836 4129 
Q 1250 4750 2034 4750 
z
" transform="scale(0.015625)"/>
        <path id="DejaVuSans-2e" d="M 684 794 
L 1344 794 
L 1344 0 
L 684 0 
L 684 794 
z
" transform="scale(0.015625)"/>
        <path id="DejaVuSans-32" d="M 1228 531 
L 3431 531 
L 3431 0 
L 469 0 
L 469 531 
Q 828 903 1448 1529 
Q 2069 2156 2228 2338 
Q 2531 2678 2651 2914 
Q 2772 3150 2772 3378 
Q 2772 3750 2511 3984 
Q 2250 4219 1831 4219 
Q 1534 4219 1204 4116 
Q 875 4013 500 3803 
L 500 4441 
Q 881 4594 1212 4672 
Q 1544 4750 1819 4750 
Q 2544 4750 2975 4387 
Q 3406 4025 3406 3419 
Q 3406 3131 3298 2873 
Q 3191 2616 2906 2266 
Q 2828 2175 2409 1742 
Q 1991 1309 1228 531 
z
" transform="scale(0.015625)"/>
       </defs>
       <use xlink:href="#DejaVuSans-30"/>
       <use xlink:href="#DejaVuSans-2e" x="63.623047"/>
       <use xlink:href="#DejaVuSans-30" x="95.410156"/>
       <use xlink:href="#DejaVuSans-32" x="159.033203"/>
      </g>
     </g>
    </g>
    <g id="ytick_2">
     <g id="line2d_9">
      <path d="M 310.302929 256.394108 
C 310.302929 248.974844 308.841495 241.627724 306.002266 234.773218 
C 303.163037 227.918712 299.001228 221.690124 293.755016 216.443913 
C 288.508804 211.197701 282.280216 207.035892 275.425711 204.196663 
C 268.571205 201.357433 261.224084 199.896 253.804821 199.896 
C 246.385557 199.896 239.038437 201.357433 232.183931 204.196663 
C 225.329425 207.035892 219.100837 211.197701 213.854626 216.443913 
C 208.608414 221.690124 204.446605 227.918712 201.607375 234.773218 
C 198.768146 241.627724 197.306713 248.974844 197.306713 256.394108 
C 197.306713 263.813371 198.768146 271.160492 201.607375 278.014998 
C 204.446605 284.869503 208.608414 291.098091 213.854626 296.344303 
C 219.100837 301.590515 225.329425 305.752324 232.183931 308.591553 
C 239.038437 311.430783 246.385557 312.892216 253.804821 312.892216 
C 261.224084 312.892216 268.571205 311.430783 275.425711 308.591553 
C 282.280216 305.752324 288.508804 301.590515 293.755016 296.344303 
C 299.001228 291.098091 303.163037 284.869503 306.002266 278.014998 
C 308.841495 271.160492 310.302929 263.813371 310.302929 256.394108 
" clip-path="url(#p333e7c769c)" style="fill: none; stroke: #b0b0b0; stroke-width: 0.8; stroke-linecap: square"/>
     </g>
     <g id="text_9">
      <!-- 0.04 -->
      <g transform="translate(306.002266 232.693531) scale(0.1 -0.1)">
       <defs>
        <path id="DejaVuSans-34" d="M 2419 4116 
L 825 1625 
L 2419 1625 
L 2419 4116 
z
M 2253 4666 
L 3047 4666 
L 3047 1625 
L 3713 1625 
L 3713 1100 
L 3047 1100 
L 3047 0 
L 2419 0 
L 2419 1100 
L 313 1100 
L 313 1709 
L 2253 4666 
z
" transform="scale(0.015625)"/>
       </defs>
       <use xlink:href="#DejaVuSans-30"/>
       <use xlink:href="#DejaVuSans-2e" x="63.623047"/>
       <use xlink:href="#DejaVuSans-30" x="95.410156"/>
       <use xlink:href="#DejaVuSans-34" x="159.033203"/>
      </g>
     </g>
    </g>
    <g id="ytick_3">
     <g id="line2d_10">
      <path d="M 338.551982 256.394108 
C 338.551982 245.265213 336.359833 234.244532 332.100989 223.962773 
C 327.842145 213.681015 321.599431 204.338133 313.730114 196.468815 
C 305.860796 188.599498 296.517914 182.356784 286.236156 178.09794 
C 275.954397 173.839096 264.933716 171.646946 253.804821 171.646946 
C 242.675926 171.646946 231.655245 173.839096 221.373486 178.09794 
C 211.091728 182.356784 201.748846 188.599498 193.879528 196.468815 
C 186.010211 204.338133 179.767497 213.681015 175.508653 223.962773 
C 171.249809 234.244532 169.057659 245.265213 169.057659 256.394108 
C 169.057659 267.523003 171.249809 278.543684 175.508653 288.825443 
C 179.767497 299.107201 186.010211 308.450083 193.879528 316.319401 
C 201.748846 324.188718 211.091728 330.431432 221.373486 334.690276 
C 231.655245 338.94912 242.675926 341.14127 253.804821 341.14127 
C 264.933716 341.14127 275.954397 338.94912 286.236156 334.690276 
C 296.517914 330.431432 305.860796 324.188718 313.730114 316.319401 
C 321.599431 308.450083 327.842145 299.107201 332.100989 288.825443 
C 336.359833 278.543684 338.551982 267.523003 338.551982 256.394108 
" clip-path="url(#p333e7c769c)" style="fill: none; stroke: #b0b0b0; stroke-width: 0.8; stroke-linecap: square"/>
     </g>
     <g id="text_10">
      <!-- 0.06 -->
      <g transform="translate(332.100989 221.883086) scale(0.1 -0.1)">
       <defs>
        <path id="DejaVuSans-36" d="M 2113 2584 
Q 1688 2584 1439 2293 
Q 1191 2003 1191 1497 
Q 1191 994 1439 701 
Q 1688 409 2113 409 
Q 2538 409 2786 701 
Q 3034 994 3034 1497 
Q 3034 2003 2786 2293 
Q 2538 2584 2113 2584 
z
M 3366 4563 
L 3366 3988 
Q 3128 4100 2886 4159 
Q 2644 4219 2406 4219 
Q 1781 4219 1451 3797 
Q 1122 3375 1075 2522 
Q 1259 2794 1537 2939 
Q 1816 3084 2150 3084 
Q 2853 3084 3261 2657 
Q 3669 2231 3669 1497 
Q 3669 778 3244 343 
Q 2819 -91 2113 -91 
Q 1303 -91 875 529 
Q 447 1150 447 2328 
Q 447 3434 972 4092 
Q 1497 4750 2381 4750 
Q 2619 4750 2861 4703 
Q 3103 4656 3366 4563 
z
" transform="scale(0.015625)"/>
       </defs>
       <use xlink:href="#DejaVuSans-30"/>
       <use xlink:href="#DejaVuSans-2e" x="63.623047"/>
       <use xlink:href="#DejaVuSans-30" x="95.410156"/>
       <use xlink:href="#DejaVuSans-36" x="159.033203"/>
      </g>
     </g>
    </g>
    <g id="ytick_4">
     <g id="line2d_11">
      <path d="M 366.801036 256.394108 
C 366.801036 241.555581 363.87817 226.86134 358.199712 213.152328 
C 352.521253 199.443317 344.197634 186.986141 333.705211 176.493718 
C 323.212788 166.001295 310.755612 157.677676 297.0466 151.999217 
C 283.337589 146.320759 268.643348 143.397892 253.804821 143.397892 
C 238.966294 143.397892 224.272053 146.320759 210.563041 151.999217 
C 196.85403 157.677676 184.396854 166.001295 173.904431 176.493718 
C 163.412008 186.986141 155.088389 199.443317 149.40993 213.152328 
C 143.731472 226.86134 140.808605 241.555581 140.808605 256.394108 
C 140.808605 271.232635 143.731472 285.926876 149.40993 299.635888 
C 155.088389 313.344899 163.412008 325.802075 173.904431 336.294498 
C 184.396854 346.786921 196.85403 355.11054 210.563041 360.788999 
C 224.272053 366.467457 238.966294 369.390323 253.804821 369.390323 
C 268.643348 369.390323 283.337589 366.467457 297.0466 360.788999 
C 310.755612 355.11054 323.212788 346.786921 333.705211 336.294498 
C 344.197634 325.802075 352.521253 313.344899 358.199712 299.635888 
C 363.87817 285.926876 366.801036 271.232635 366.801036 256.394108 
" clip-path="url(#p333e7c769c)" style="fill: none; stroke: #b0b0b0; stroke-width: 0.8; stroke-linecap: square"/>
     </g>
     <g id="text_11">
      <!-- 0.08 -->
      <g transform="translate(358.199712 211.072641) scale(0.1 -0.1)">
       <defs>
        <path id="DejaVuSans-38" d="M 2034 2216 
Q 1584 2216 1326 1975 
Q 1069 1734 1069 1313 
Q 1069 891 1326 650 
Q 1584 409 2034 409 
Q 2484 409 2743 651 
Q 3003 894 3003 1313 
Q 3003 1734 2745 1975 
Q 2488 2216 2034 2216 
z
M 1403 2484 
Q 997 2584 770 2862 
Q 544 3141 544 3541 
Q 544 4100 942 4425 
Q 1341 4750 2034 4750 
Q 2731 4750 3128 4425 
Q 3525 4100 3525 3541 
Q 3525 3141 3298 2862 
Q 3072 2584 2669 2484 
Q 3125 2378 3379 2068 
Q 3634 1759 3634 1313 
Q 3634 634 3220 271 
Q 2806 -91 2034 -91 
Q 1263 -91 848 271 
Q 434 634 434 1313 
Q 434 1759 690 2068 
Q 947 2378 1403 2484 
z
M 1172 3481 
Q 1172 3119 1398 2916 
Q 1625 2713 2034 2713 
Q 2441 2713 2670 2916 
Q 2900 3119 2900 3481 
Q 2900 3844 2670 4047 
Q 2441 4250 2034 4250 
Q 1625 4250 1398 4047 
Q 1172 3844 1172 3481 
z
" transform="scale(0.015625)"/>
       </defs>
       <use xlink:href="#DejaVuSans-30"/>
       <use xlink:href="#DejaVuSans-2e" x="63.623047"/>
       <use xlink:href="#DejaVuSans-30" x="95.410156"/>
       <use xlink:href="#DejaVuSans-38" x="159.033203"/>
      </g>
     </g>
    </g>
    <g id="ytick_5">
     <g id="line2d_12">
      <path d="M 395.05009 256.394108 
C 395.05009 237.845949 391.396507 219.478148 384.298434 202.341883 
C 377.200361 185.205619 366.795837 169.634149 353.680309 156.51862 
C 340.56478 143.403091 324.99331 132.998568 307.857045 125.900495 
C 290.720781 118.802421 272.35298 115.148839 253.804821 115.148839 
C 235.256662 115.148839 216.888861 118.802421 199.752596 125.900495 
C 182.616332 132.998568 167.044862 143.403091 153.929333 156.51862 
C 140.813804 169.634149 130.409281 185.205619 123.311207 202.341883 
C 116.213134 219.478148 112.559551 237.845949 112.559551 256.394108 
C 112.559551 274.942267 116.213134 293.310068 123.311207 310.446332 
C 130.409281 327.582597 140.813804 343.154067 153.929333 356.269596 
C 167.044862 369.385125 182.616332 379.789648 199.752596 386.887721 
C 216.888861 393.985794 235.256662 397.639377 253.804821 397.639377 
C 272.35298 397.639377 290.720781 393.985794 307.857045 386.887721 
C 324.99331 379.789648 340.56478 369.385125 353.680309 356.269596 
C 366.795837 343.154067 377.200361 327.582597 384.298434 310.446332 
C 391.396507 293.310068 395.05009 274.942267 395.05009 256.394108 
" clip-path="url(#p333e7c769c)" style="fill: none; stroke: #b0b0b0; stroke-width: 0.8; stroke-linecap: square"/>
     </g>
     <g id="text_12">
      <!-- 0.10 -->
      <g transform="translate(384.298434 200.262196) scale(0.1 -0.1)">
       <defs>
        <path id="DejaVuSans-31" d="M 794 531 
L 1825 531 
L 1825 4091 
L 703 3866 
L 703 4441 
L 1819 4666 
L 2450 4666 
L 2450 531 
L 3481 531 
L 3481 0 
L 794 0 
L 794 531 
z
" transform="scale(0.015625)"/>
       </defs>
       <use xlink:href="#DejaVuSans-30"/>
       <use xlink:href="#DejaVuSans-2e" x="63.623047"/>
       <use xlink:href="#DejaVuSans-31" x="95.410156"/>
       <use xlink:href="#DejaVuSans-30" x="159.033203"/>
      </g>
     </g>
    </g>
    <g id="ytick_6">
     <g id="line2d_13">
      <path d="M 423.299144 256.394108 
C 423.299144 234.136317 418.914845 212.094956 410.397157 191.531439 
C 401.879469 170.967921 389.394041 152.282157 373.655406 136.543523 
C 357.916772 120.804888 339.231007 108.31946 318.66749 99.801772 
C 298.103973 91.284084 276.062611 86.899785 253.804821 86.899785 
C 231.54703 86.899785 209.505669 91.284084 188.942151 99.801772 
C 168.378634 108.31946 149.69287 120.804888 133.954236 136.543523 
C 118.215601 152.282157 105.730172 170.967921 97.212485 191.531439 
C 88.694797 212.094956 84.310498 234.136317 84.310498 256.394108 
C 84.310498 278.651899 88.694797 300.69326 97.212485 321.256777 
C 105.730172 341.820294 118.215601 360.506059 133.954236 376.244693 
C 149.69287 391.983328 168.378634 404.468756 188.942151 412.986444 
C 209.505669 421.504132 231.54703 425.888431 253.804821 425.888431 
C 276.062611 425.888431 298.103973 421.504132 318.66749 412.986444 
C 339.231007 404.468756 357.916772 391.983328 373.655406 376.244693 
C 389.394041 360.506059 401.879469 341.820294 410.397157 321.256777 
C 418.914845 300.69326 423.299144 278.651899 423.299144 256.394108 
" clip-path="url(#p333e7c769c)" style="fill: none; stroke: #b0b0b0; stroke-width: 0.8; stroke-linecap: square"/>
     </g>
     <g id="text_13">
      <!-- 0.12 -->
      <g transform="translate(410.397157 189.451751) scale(0.1 -0.1)">
       <use xlink:href="#DejaVuSans-30"/>
       <use xlink:href="#DejaVuSans-2e" x="63.623047"/>
       <use xlink:href="#DejaVuSans-31" x="95.410156"/>
       <use xlink:href="#DejaVuSans-32" x="159.033203"/>
      </g>
     </g>
    </g>
    <g id="ytick_7">
     <g id="line2d_14">
      <path d="M 451.548198 256.394108 
C 451.548198 230.426686 446.433182 204.711764 436.49588 180.720994 
C 426.558577 156.730224 411.992244 134.930165 393.630504 116.568425 
C 375.268763 98.206685 353.468705 83.640351 329.477935 73.703049 
C 305.487165 63.765747 279.772243 58.650731 253.804821 58.650731 
C 227.837398 58.650731 202.122477 63.765747 178.131707 73.703049 
C 154.140937 83.640351 132.340878 98.206685 113.979138 116.568425 
C 95.617398 134.930165 81.051064 156.730224 71.113762 180.720994 
C 61.17646 204.711764 56.061444 230.426686 56.061444 256.394108 
C 56.061444 282.36153 61.17646 308.076452 71.113762 332.067222 
C 81.051064 356.057992 95.617398 377.85805 113.979138 396.219791 
C 132.340878 414.581531 154.140937 429.147864 178.131707 439.085167 
C 202.122477 449.022469 227.837398 454.137485 253.804821 454.137485 
C 279.772243 454.137485 305.487165 449.022469 329.477935 439.085167 
C 353.468705 429.147864 375.268763 414.581531 393.630504 396.219791 
C 411.992244 377.85805 426.558577 356.057992 436.49588 332.067222 
C 446.433182 308.076452 451.548198 282.36153 451.548198 256.394108 
" clip-path="url(#p333e7c769c)" style="fill: none; stroke: #b0b0b0; stroke-width: 0.8; stroke-linecap: square"/>
     </g>
     <g id="text_14">
      <!-- 0.14 -->
      <g transform="translate(436.49588 178.641306) scale(0.1 -0.1)">
       <use xlink:href="#DejaVuSans-30"/>
       <use xlink:href="#DejaVuSans-2e" x="63.623047"/>
       <use xlink:href="#DejaVuSans-31" x="95.410156"/>
       <use xlink:href="#DejaVuSans-34" x="159.033203"/>
      </g>
     </g>
    </g>
   </g>
   <g id="line2d_15">
    <path d="M 365.904241 256.394108 
L 363.478847 118.86723 
L 234.984444 173.93665 
L 84.128034 174.682074 
L 167.583983 297.915875 
L 219.837472 405.214789 
L 309.14722 325.791281 
L 365.904241 256.394108 
" clip-path="url(#p333e7c769c)" style="fill: none; stroke: #0000ff; stroke-width: 1.5; stroke-linecap: square"/>
   </g>
   <g id="line2d_16">
    <path d="M 468.743274 256.394108 
L 343.026382 144.513809 
L 236.335254 179.854935 
L 90.654064 177.824844 
L 173.93604 294.856885 
L 231.506489 354.089482 
L 307.643676 323.905897 
L 468.743274 256.394108 
" clip-path="url(#p333e7c769c)" style="fill: none; stroke: #ff0000; stroke-width: 1.5; stroke-linecap: square"/>
   </g>
   <g id="patch_3">
    <path d="M 475.564821 256.394108 
C 475.564821 227.272852 469.828568 198.434763 458.684346 171.53023 
C 447.540124 144.625697 431.204659 120.177946 410.612821 99.586108 
C 390.020983 78.99427 365.573232 62.658805 338.668699 51.514583 
C 311.764166 40.37036 282.926077 34.634108 253.804821 34.634108 
C 224.683564 34.634108 195.845476 40.37036 168.940943 51.514583 
C 142.03641 62.658805 117.588659 78.99427 96.996821 99.586108 
C 76.404983 120.177946 60.069518 144.625697 48.925296 171.53023 
C 37.781073 198.434763 32.044821 227.272852 32.044821 256.394108 
C 32.044821 285.515364 37.781073 314.353453 48.925296 341.257986 
C 60.069518 368.162519 76.404983 392.61027 96.996821 413.202108 
C 117.588659 433.793946 142.03641 450.129411 168.940943 461.273633 
C 195.845476 472.417855 224.683564 478.154108 253.804821 478.154108 
C 282.926077 478.154108 311.764166 472.417855 338.668699 461.273633 
C 365.573232 450.129411 390.020983 433.793946 410.612821 413.202108 
C 431.204659 392.61027 447.540124 368.162519 458.684346 341.257986 
C 469.828568 314.353453 475.564821 285.515364 475.564821 256.394108 
" style="fill: none; stroke: #000000; stroke-width: 0.8; stroke-linejoin: miter; stroke-linecap: square"/>
   </g>
   <g id="text_15">
    <!-- Répartition des cheptels sur le pole de Errobi en 2010 et 2020 -->
    <g transform="translate(66.904821 16.798125) scale(0.12 -0.12)">
     <defs>
      <path id="DejaVuSans-52" d="M 2841 2188 
Q 3044 2119 3236 1894 
Q 3428 1669 3622 1275 
L 4263 0 
L 3584 0 
L 2988 1197 
Q 2756 1666 2539 1819 
Q 2322 1972 1947 1972 
L 1259 1972 
L 1259 0 
L 628 0 
L 628 4666 
L 2053 4666 
Q 2853 4666 3247 4331 
Q 3641 3997 3641 3322 
Q 3641 2881 3436 2590 
Q 3231 2300 2841 2188 
z
M 1259 4147 
L 1259 2491 
L 2053 2491 
Q 2509 2491 2742 2702 
Q 2975 2913 2975 3322 
Q 2975 3731 2742 3939 
Q 2509 4147 2053 4147 
L 1259 4147 
z
" transform="scale(0.015625)"/>
      <path id="DejaVuSans-45" d="M 628 4666 
L 3578 4666 
L 3578 4134 
L 1259 4134 
L 1259 2753 
L 3481 2753 
L 3481 2222 
L 1259 2222 
L 1259 531 
L 3634 531 
L 3634 0 
L 628 0 
L 628 4666 
z
" transform="scale(0.015625)"/>
     </defs>
     <use xlink:href="#DejaVuSans-52"/>
     <use xlink:href="#DejaVuSans-e9" x="64.982422"/>
     <use xlink:href="#DejaVuSans-70" x="126.505859"/>
     <use xlink:href="#DejaVuSans-61" x="189.982422"/>
     <use xlink:href="#DejaVuSans-72" x="251.261719"/>
     <use xlink:href="#DejaVuSans-74" x="292.375"/>
     <use xlink:href="#DejaVuSans-69" x="331.583984"/>
     <use xlink:href="#DejaVuSans-74" x="359.367188"/>
     <use xlink:href="#DejaVuSans-69" x="398.576172"/>
     <use xlink:href="#DejaVuSans-6f" x="426.359375"/>
     <use xlink:href="#DejaVuSans-6e" x="487.541016"/>
     <use xlink:href="#DejaVuSans-20" x="550.919922"/>
     <use xlink:href="#DejaVuSans-64" x="582.707031"/>
     <use xlink:href="#DejaVuSans-65" x="646.183594"/>
     <use xlink:href="#DejaVuSans-73" x="707.707031"/>
     <use xlink:href="#DejaVuSans-20" x="759.806641"/>
     <use xlink:href="#DejaVuSans-63" x="791.59375"/>
     <use xlink:href="#DejaVuSans-68" x="846.574219"/>
     <use xlink:href="#DejaVuSans-65" x="909.953125"/>
     <use xlink:href="#DejaVuSans-70" x="971.476562"/>
     <use xlink:href="#DejaVuSans-74" x="1034.953125"/>
     <use xlink:href="#DejaVuSans-65" x="1074.162109"/>
     <use xlink:href="#DejaVuSans-6c" x="1135.685547"/>
     <use xlink:href="#DejaVuSans-73" x="1163.46875"/>
     <use xlink:href="#DejaVuSans-20" x="1215.568359"/>
     <use xlink:href="#DejaVuSans-73" x="1247.355469"/>
     <use xlink:href="#DejaVuSans-75" x="1299.455078"/>
     <use xlink:href="#DejaVuSans-72" x="1362.833984"/>
     <use xlink:href="#DejaVuSans-20" x="1403.947266"/>
     <use xlink:href="#DejaVuSans-6c" x="1435.734375"/>
     <use xlink:href="#DejaVuSans-65" x="1463.517578"/>
     <use xlink:href="#DejaVuSans-20" x="1525.041016"/>
     <use xlink:href="#DejaVuSans-70" x="1556.828125"/>
     <use xlink:href="#DejaVuSans-6f" x="1620.304688"/>
     <use xlink:href="#DejaVuSans-6c" x="1681.486328"/>
     <use xlink:href="#DejaVuSans-65" x="1709.269531"/>
     <use xlink:href="#DejaVuSans-20" x="1770.792969"/>
     <use xlink:href="#DejaVuSans-64" x="1802.580078"/>
     <use xlink:href="#DejaVuSans-65" x="1866.056641"/>
     <use xlink:href="#DejaVuSans-20" x="1927.580078"/>
     <use xlink:href="#DejaVuSans-45" x="1959.367188"/>
     <use xlink:href="#DejaVuSans-72" x="2022.550781"/>
     <use xlink:href="#DejaVuSans-72" x="2061.914062"/>
     <use xlink:href="#DejaVuSans-6f" x="2100.777344"/>
     <use xlink:href="#DejaVuSans-62" x="2161.958984"/>
     <use xlink:href="#DejaVuSans-69" x="2225.435547"/>
     <use xlink:href="#DejaVuSans-20" x="2253.21875"/>
     <use xlink:href="#DejaVuSans-65" x="2285.005859"/>
     <use xlink:href="#DejaVuSans-6e" x="2346.529297"/>
     <use xlink:href="#DejaVuSans-20" x="2409.908203"/>
     <use xlink:href="#DejaVuSans-32" x="2441.695312"/>
     <use xlink:href="#DejaVuSans-30" x="2505.318359"/>
     <use xlink:href="#DejaVuSans-31" x="2568.941406"/>
     <use xlink:href="#DejaVuSans-30" x="2632.564453"/>
     <use xlink:href="#DejaVuSans-20" x="2696.1875"/>
     <use xlink:href="#DejaVuSans-65" x="2727.974609"/>
     <use xlink:href="#DejaVuSans-74" x="2789.498047"/>
     <use xlink:href="#DejaVuSans-20" x="2828.707031"/>
     <use xlink:href="#DejaVuSans-32" x="2860.494141"/>
     <use xlink:href="#DejaVuSans-30" x="2924.117188"/>
     <use xlink:href="#DejaVuSans-32" x="2987.740234"/>
     <use xlink:href="#DejaVuSans-30" x="3051.363281"/>
    </g>
   </g>
   <g id="legend_1">
    <g id="patch_4">
     <path d="M 411.114821 71.990358 
L 468.564821 71.990358 
Q 470.564821 71.990358 470.564821 69.990358 
L 470.564821 41.634108 
Q 470.564821 39.634108 468.564821 39.634108 
L 411.114821 39.634108 
Q 409.114821 39.634108 409.114821 41.634108 
L 409.114821 69.990358 
Q 409.114821 71.990358 411.114821 71.990358 
z
" style="fill: #ffffff; opacity: 0.8; stroke: #cccccc; stroke-linejoin: miter"/>
    </g>
    <g id="line2d_17">
     <path d="M 413.114821 47.732545 
L 423.114821 47.732545 
L 433.114821 47.732545 
" style="fill: none; stroke: #0000ff; stroke-width: 1.5; stroke-linecap: square"/>
    </g>
    <g id="text_16">
     <!-- 2020 -->
     <g transform="translate(441.114821 51.232545) scale(0.1 -0.1)">
      <use xlink:href="#DejaVuSans-32"/>
      <use xlink:href="#DejaVuSans-30" x="63.623047"/>
      <use xlink:href="#DejaVuSans-32" x="127.246094"/>
      <use xlink:href="#DejaVuSans-30" x="190.869141"/>
     </g>
    </g>
    <g id="line2d_18">
     <path d="M 413.114821 62.41067 
L 423.114821 62.41067 
L 433.114821 62.41067 
" style="fill: none; stroke: #ff0000; stroke-width: 1.5; stroke-linecap: square"/>
    </g>
    <g id="text_17">
     <!-- 2010 -->
     <g transform="translate(441.114821 65.91067) scale(0.1 -0.1)">
      <use xlink:href="#DejaVuSans-32"/>
      <use xlink:href="#DejaVuSans-30" x="63.623047"/>
      <use xlink:href="#DejaVuSans-31" x="127.246094"/>
      <use xlink:href="#DejaVuSans-30" x="190.869141"/>
     </g>
    </g>
   </g>
  </g>
 </g>
 <defs>
  <clipPath id="p333e7c769c">
   <path d="M 475.564821 256.394108 
C 475.564821 227.272852 469.828568 198.434763 458.684346 171.53023 
C 447.540124 144.625697 431.204659 120.177946 410.612821 99.586108 
C 390.020983 78.99427 365.573232 62.658805 338.668699 51.514583 
C 311.764166 40.37036 282.926077 34.634108 253.804821 34.634108 
C 224.683564 34.634108 195.845476 40.37036 168.940943 51.514583 
C 142.03641 62.658805 117.588659 78.99427 96.996821 99.586108 
C 76.404983 120.177946 60.069518 144.625697 48.925296 171.53023 
C 37.781073 198.434763 32.044821 227.272852 32.044821 256.394108 
C 32.044821 285.515364 37.781073 314.353453 48.925296 341.257986 
C 60.069518 368.162519 76.404983 392.61027 96.996821 413.202108 
C 117.588659 433.793946 142.03641 450.129411 168.940943 461.273633 
C 195.845476 472.417855 224.683564 478.154108 253.804821 478.154108 
C 282.926077 478.154108 311.764166 472.417855 338.668699 461.273633 
C 365.573232 450.129411 390.020983 433.793946 410.612821 413.202108 
C 431.204659 392.61027 447.540124 368.162519 458.684346 341.257986 
C 469.828568 314.353453 475.564821 285.515364 475.564821 256.394108 
M 253.804821 256.394108 
C 253.804821 256.394108 253.804821 256.394108 253.804821 256.394108 
C 253.804821 256.394108 253.804821 256.394108 253.804821 256.394108 
C 253.804821 256.394108 253.804821 256.394108 253.804821 256.394108 
C 253.804821 256.394108 253.804821 256.394108 253.804821 256.394108 
C 253.804821 256.394108 253.804821 256.394108 253.804821 256.394108 
C 253.804821 256.394108 253.804821 256.394108 253.804821 256.394108 
C 253.804821 256.394108 253.804821 256.394108 253.804821 256.394108 
C 253.804821 256.394108 253.804821 256.394108 253.804821 256.394108 
C 253.804821 256.394108 253.804821 256.394108 253.804821 256.394108 
C 253.804821 256.394108 253.804821 256.394108 253.804821 256.394108 
C 253.804821 256.394108 253.804821 256.394108 253.804821 256.394108 
C 253.804821 256.394108 253.804821 256.394108 253.804821 256.394108 
C 253.804821 256.394108 253.804821 256.394108 253.804821 256.394108 
C 253.804821 256.394108 253.804821 256.394108 253.804821 256.394108 
C 253.804821 256.394108 253.804821 256.394108 253.804821 256.394108 
C 253.804821 256.394108 253.804821 256.394108 253.804821 256.394108 
z
"/>
  </clipPath>
 </defs>
</svg>
